<?xml version="1.0" encoding="utf-8"?>
<!-- Generator: Adobe Illustrator 28.1.0, SVG Export Plug-In . SVG Version: 6.00 Build 0)  -->
<svg version="1.1" id="Layer_1" xmlns="http://www.w3.org/2000/svg" xmlns:xlink="http://www.w3.org/1999/xlink" x="0px" y="0px"
	 viewBox="0 0 5980 1280" style="enable-background:new 0 0 5980 1280;" xml:space="preserve">
<style type="text/css">
	.st0{fill:#FFFFFF;}
	.st1{fill:#8BC24A;}
</style>
<path class="st0" d="M2185.8,1108.7V659.1h-106.6L1961,849.2l-118.2-190.1h-106.6v449.6h97V817.1l125.3,190.1h2.6l126.6-192v293.5
	H2185.8z"/>
<path class="st0" d="M2636.2,1108.7v-88h-244.1v-94.4h212v-88h-212v-91.2H2633v-88h-339.2v449.6H2636.2z"/>
<path class="st0" d="M3132.7,1045.1V849.8h-195.3v85.4h99.6v64.2c-25.1,18-57.2,27-93.1,27c-79.7,0-136.2-60.4-136.2-142.6v-1.3
	c0-76.4,57.2-140,129.1-140c52,0,82.9,16.7,117.6,45.6l62.3-75.1c-46.9-39.8-95.7-61.7-176.7-61.7c-136.2,0-235.8,104.7-235.8,232.5
	v1.3c0,132.9,96.4,231.2,236.4,231.2C3022.9,1116.4,3086.5,1084.2,3132.7,1045.1z"/>
<path class="st0" d="M3666,1108.7l-192.7-452.8h-91.2l-192.7,452.8h100.9l41.1-100.8h190.1l41.1,100.8H3666z M3486.2,920.5h-119.5
	l59.7-145.8L3486.2,920.5z"/>
<path class="st0" d="M4054.2,975.7v-1.3c0-78.4-51.4-111.1-142.6-134.9c-77.7-19.9-97-29.5-97-59.1v-1.3c0-21.8,19.9-39.2,57.8-39.2
	c37.9,0,77.1,16.7,116.9,44.3l51.4-74.5c-45.6-36.6-101.5-57.2-167-57.2c-91.9,0-157.4,53.9-157.4,135.5v1.3
	c0,89.3,58.5,114.3,149,137.4c75.2,19.3,90.6,32.1,90.6,57.2v1.3c0,26.3-24.4,42.4-64.9,42.4c-51.4,0-93.8-21.2-134.3-54.6l-58.5,70
	c54,48.2,122.7,71.9,190.8,71.9C3986.1,1115.1,4054.2,1065,4054.2,975.7z"/>
<path class="st0" d="M4535.2,1036.1l-63-63.6c-35.3,32.1-66.8,52.7-118.2,52.7c-77.1,0-130.4-64.2-130.4-141.3v-1.3
	c0-77.1,54.6-140,130.4-140c45,0,80.3,19.3,115,50.7l62.9-72.6c-41.8-41.1-92.5-69.4-177.3-69.4c-138.1,0-234.5,104.7-234.5,232.5
	v1.3c0,129.1,98.3,231.2,230.6,231.2C4437.5,1116.4,4488.9,1085.5,4535.2,1036.1z"/>
<path class="st0" d="M5052.5,1108.7l-192.7-452.8h-91.2l-192.7,452.8h100.9l41.1-100.8h190.2l41.1,100.8H5052.5z M4872.6,920.5
	h-119.5l59.8-145.8L4872.6,920.5z"/>
<path class="st0" d="M5521.5,1108.7V659.1h-97.6v276.8l-210.7-276.8H5122v449.6h97.6V822.9l217.8,285.8H5521.5z"/>
<path class="st0" d="M5954.5,975.7v-1.3c0-78.4-51.4-111.1-142.6-134.9c-77.7-19.9-97-29.5-97-59.1v-1.3c0-21.8,19.9-39.2,57.8-39.2
	s77.1,16.7,116.9,44.3l51.4-74.5c-45.6-36.6-101.5-57.2-167-57.2c-91.9,0-157.4,53.9-157.4,135.5v1.3c0,89.3,58.5,114.3,149,137.4
	c75.2,19.3,90.6,32.1,90.6,57.2v1.3c0,26.3-24.4,42.4-64.9,42.4c-51.4,0-93.8-21.2-134.3-54.6l-58.5,70
	c54,48.2,122.7,71.9,190.8,71.9C5886.4,1115.1,5954.5,1065,5954.5,975.7z"/>
<path class="st0" d="M2184.5,351.5c0-124.6-91.9-231.8-228.7-231.8c-136.9,0-230,108.6-230,233.1c0,124.6,91.9,231.8,228.7,231.8
	c55.9,0,104.1-18.6,142-48.2l59.1,54l34.7-37.9l-59.8-49.4C2165.2,462,2184.5,408,2184.5,351.5z M2092.6,469.7l-82.9-75.1
	l-34.1,37.9l83.5,71.3c-27.6,21.2-63.6,34.1-103.4,34.1c-102.8,0-177.3-83.5-177.3-186.3s73.2-185,176-185
	c102.8,0,177.3,83.5,177.3,186.3C2131.8,397.1,2117,438.2,2092.6,469.7z"/>
<path class="st0" d="M2487,435c0,62.3-43,104-99.6,104c-58.4,0-91.9-38.5-91.9-100.2V244.9H2246v206.2c0,79,46.9,132.9,127.2,132.9
	c57.2,0,91.2-28.9,113.7-64.9V577h48.8V245H2487V435z"/>
<path class="st0" d="M2668.8,244.9h-49.4v332h49.4V244.9z"/>
<path class="st0" d="M3035,244.9h-55.2l-98.3,128.5l-98.3-128.5h-56.6L2851.9,408l-130.4,169h55.2l103.4-135.5L2983,577h57.2
	l-131.1-170.2L3035,244.9z"/>
<path class="st0" d="M3204.6,237.8c-91.9,0-159.3,77.1-159.3,173.4c0,103.4,74.5,173.4,165.8,173.4c63,0,103.4-25.1,136.9-62.3
	l-30.9-27.6c-27,28.3-59.1,46.9-104.7,46.9c-58.4,0-109.9-40.5-116.9-112.4h263.4c0.6-5.8,0.6-10.9,0.6-15.4
	C3359.4,316.2,3302.9,237.8,3204.6,237.8z M3095.4,392.6c6.4-64.9,50.1-113,107.9-113c66.2,0,100.8,52.6,106,113H3095.4z"/>
<path class="st0" d="M3468,108.1h-49.4V577h49.4V108.1z"/>
<path class="st0" d="M2644.4,181.3c19.5,0,35.3-15.8,35.3-35.3s-15.8-35.3-35.3-35.3s-35.3,15.8-35.3,35.3
	S2624.9,181.3,2644.4,181.3z"/>
<rect x="15" class="st1" width="1280" height="1280"/>
<path class="st0" d="M255,325v630h160V475h160v240h160V475h160v480h160V400l-160-75H255z"/>
</svg>
