<svg width="30" height="30" viewBox="0 0 30 30" fill="none" xmlns="http://www.w3.org/2000/svg">
<path d="M2 24V28H6L8 30H0V22L2 24ZM30 30H22L24 28H28V24L30 22V30ZM10 28H20L21 27H9L10 28ZM22 22H20V20H19V22H17V20H16V22H14V20H13V22H11V20H10V22H8V20H6V23L8 25V23H10V25H11V23H13V25H14V23H16V25H17V23H19V25H20V23H22V25L24 23V20H22V22ZM3 10.5L6 18H24L27 10.5L20.0635 3.56348L25 12.123H19.3105L22.209 17H7.81055L10.708 12.123H5L9.9502 3.54883L3 10.5ZM10.6162 15.374H19.4023L17.4697 12.123H12.5488L10.6162 15.374ZM7.78613 10.4971H11.6738L14.0889 6.43359L12.0088 3.1123L7.78613 10.4971ZM13.5146 10.4971H16.5039L15.0098 7.98145L13.5146 10.4971ZM15.9209 6.41797L18.3447 10.4971H22.2139L18 3.1123L15.9209 6.41797ZM6 2H2V6L0 8V0H8L6 2ZM30 8L28 6V2H24L22 0H30V8ZM26 25L21 30H9L4 25V20L0 10L10 0H12L15 4.87012L18 0.0136719V0H20L30 10L26 20V25Z" fill="white"/>
</svg>
