<svg width="30" height="30" viewBox="0 0 30 30" fill="none" xmlns="http://www.w3.org/2000/svg">
<path d="M2 24V28H6L8 30H0V22L2 24ZM12 4L14 3V5L12 6V9L14 11V13H16V11L18 9V6L16 5V3L18 4V0H20V2L21 1.5V3.5L20 4V6L21 5.5V7.5L20 8V10L18 12V13H19.5L22 10.5V1L24 3V11.5L22.5 13H23L24.7998 13.8994L26 13V6L28 8V11L30 10V12L28 13V14.5L25 17V20L27.5 22.5L26 24L25 23V25L23 27V22L22 23V25L19 28V30H17V27.5L20 24.5V21.7646C19.6732 21.5647 19.3318 21.3593 19 21.1592V24L18 25L16 23.5H14L12 25L11 24V21.1992L10 21.7998V24.5L13 27.5V30H11V28L8 25V23L7 22V27L5 25V23L4 24L2.5 22.5L5 20V17L2 14.5V13L0 12V10L2 11V8L4 6V13L5.19922 13.8994L7 13H7.5L6 11.5V3.5L8 1.5V10.5L10.5 13H12V12L10 10V8L9 7.5V5.5L10 6V4L9 3.5V1.5L10 2V0H12V4ZM17 26L16 27V30H14V27L13 26L14 25H16L17 26ZM30 30H22L24 28H28V24L30 22V30ZM15 19.5C15 19.5 14 19.5 13 20V22L13.5 21.5H16.5L17 22V20C16 19.5 15 19.5 15 19.5ZM7 15.5V19L8.5 20.5L13 18C13.9 17.55 15 17.5 15 17.5C15 17.5 16.1 17.55 17 18L21.5 20.5L23 19V15.5L22 15H8L7 15.5ZM9.33301 16C9.99959 16 11.9995 16.3332 12 16.7998C12 17.3331 10 18.5 9 18.5C8.33333 18.5 8 17.3331 8 16.7998C8.00008 16.2666 8.33341 16 9 16H9.33301ZM21 16C21.6666 16 21.9999 16.2666 22 16.7998C22 17.3331 21.6667 18.5 21 18.5C20 18.5 18 17.3331 18 16.7998C18.0005 16.3332 20.0004 16 20.667 16H21ZM6 2H2V6L0 8V0H8L6 2ZM30 8L28 6V2H24L22 0H30V8Z" fill="white"/>
</svg>
