<svg width="30" height="30" viewBox="0 0 30 30" fill="none" xmlns="http://www.w3.org/2000/svg">
<path d="M2 24V28H6L8 30H0V22L2 24ZM22.5 17.5C23.9998 19.9999 23.5 22.5001 23 24C21.9999 26.9999 18.4999 30 13 30C20.9998 28.0001 22.4997 21.0002 20.5 19L20 16.5L22.5 17.5ZM30 30H22L24 28H28V24L30 22V30ZM19 18C19 22.9998 18.9998 27 11 28C4.02529 28.9963 1.02158 21.0573 1 21C1.02653 21.0264 4.02223 24 9 24C11.9999 24 13 22.9997 13 18L16 15L19 18ZM19.5 11C24 11 27.5 15 27.5 20C27.4998 24.9997 23.0001 27 23 27C23.0001 26.9999 24.9998 23.9998 25 21C25 18 22.5 15 19.5 15L17 13L19.5 11ZM15 19.5C14.9999 24.4997 12.5 24.625 11 25C8.96007 25.5099 6.01527 25.0026 6 25C6.01473 25.0219 7.02218 26.5 10 26.5C12.9999 26.5 16.9998 24.9997 17 19.5L16 18L15 19.5ZM22 7.5C25 7 30 8.99998 30 14C30 15.9999 29.9999 18.0002 28 22C30 14 27 9.5 23 9.5L20 9L22 7.5ZM0 13C2.00002 19.9994 7.49977 20.9996 9 19L11 18V20C9.5 21.9997 6.9999 22 5 21.5C3.00006 21 0.000173733 18.4998 0 13ZM11 1C10.9546 1.0273 6 4.01374 6 7C6.00006 10.9996 7.00052 11 10.0869 11L13.0869 14L10.0869 17C5.08701 17 2.00012 14.9997 2 9C2 2.02771 10.9293 1.00796 11 1ZM4.5 6C4.48417 6.01603 3.5 7.02418 3.5 10C3.50012 11.9999 4.50063 14.9998 9 15L10 14L9 13C6.50044 12.9999 5.00008 11.9996 4.5 10C4.28908 9.156 4.49754 6.03665 4.5 6ZM21 3C26.9999 3 28 7.99985 28 8C27.9999 7.99991 25 5 22 5C19 5 17 8 17 11L15 13.5L13 11C13 6.50003 16 3 21 3ZM16 0C17 0 20 1.86273e-09 22 2C19 1 13 -0.5 12 6.5L11 9L9.5 7C9.5 3 13 0 16 0ZM6 2H2V6L0 8V0H8L6 2ZM30 8L28 6V2H24L22 0H30V8Z" fill="white"/>
</svg>
