<svg width="30" height="30" viewBox="0 0 30 30" fill="none" xmlns="http://www.w3.org/2000/svg">
<path fill-rule="evenodd" clip-rule="evenodd" d="M16.5807 11.7896C16.0771 11.9268 15.5471 12 15 12C14.4529 12 13.9229 11.9268 13.4193 11.7896L9.84756 18.0926C11.2689 19.0258 12 20.3419 12 21.1518C12 21.9186 11.9184 22.4262 11.6457 22.8693C11.4344 23.2126 11.247 23.5171 11.247 23.8736C11.247 23.9158 11.2512 23.958 11.2591 24.0001L18.7409 24.0001C18.7488 23.958 18.753 23.9158 18.753 23.8736C18.753 23.5171 18.5656 23.2126 18.3543 22.8693C18.0816 22.4262 18 21.9186 18 21.1518C18 20.3419 18.7311 19.0258 20.1525 18.0926L16.5807 11.7896ZM22.0061 17.2607L18.3977 10.946C19.9695 9.86412 21 8.0524 21 6C21 2.68629 18.3137 0 15 0C11.6863 0 9 2.68629 9 6C9 8.05241 10.0305 9.86414 11.6024 10.946L7.99394 17.2607C7.39436 17.0959 6.7293 17 6 17C2.06478 17 0 19.7909 0 21.1518C0 21.9186 0.0816302 22.4262 0.35435 22.8693C0.565597 23.2126 0.753037 23.5171 0.753037 23.8736C0.753037 24.1347 0.590305 24.3909 0.418109 24.662C0.159598 25.0691 -0.120243 25.5097 0.0971661 26.051C0.29853 26.5524 0.352134 26.6216 0.626276 26.9755C0.664027 27.0242 0.70596 27.0783 0.753037 27.1397C1.02869 27.4992 1.05335 27.7588 1.07301 27.9657C1.09378 28.1843 1.10895 28.344 1.40891 28.5006C1.77232 28.6903 2.23321 28.5056 2.62864 28.3471C2.95069 28.218 3.22932 28.1063 3.37652 28.2285C3.475 28.3102 3.45233 28.5176 3.41914 28.8211C3.40333 28.9657 3.38514 29.1321 3.37652 29.3172C3.34298 30.0371 3.37652 29.9997 3.37652 29.9997H8.62348C8.62348 29.9997 8.65702 30.0371 8.62348 29.3172C8.61486 29.1321 8.59667 28.9657 8.58086 28.8212C8.54768 28.5176 8.525 28.3102 8.62348 28.2285C8.77068 28.1063 9.04931 28.218 9.37136 28.3471C9.76679 28.5056 10.2277 28.6903 10.5911 28.5006C10.891 28.344 10.9062 28.1843 10.927 27.9657C10.9466 27.7588 10.9713 27.4992 11.247 27.1397C11.2939 27.0785 11.3357 27.0245 11.3733 26.9759L11.3737 26.9755C11.6479 26.6216 11.7015 26.5524 11.9028 26.051C11.9097 26.0339 11.9161 26.0169 11.9219 26.0001H18.0781C18.0839 26.0169 18.0903 26.0339 18.0972 26.051C18.2985 26.5524 18.3521 26.6216 18.6263 26.9755C18.664 27.0242 18.706 27.0783 18.753 27.1397C19.0287 27.4992 19.0534 27.7588 19.073 27.9657C19.0938 28.1843 19.109 28.344 19.4089 28.5006C19.7723 28.6903 20.2332 28.5056 20.6286 28.3471C20.9507 28.218 21.2293 28.1063 21.3765 28.2285C21.475 28.3102 21.4523 28.5176 21.4191 28.8211C21.4033 28.9657 21.3851 29.1321 21.3765 29.3172C21.343 30.0371 21.3765 29.9997 21.3765 29.9997H26.6235C26.6235 29.9997 26.657 30.0371 26.6235 29.3172C26.6149 29.1322 26.5967 28.9658 26.5809 28.8212L26.5809 28.8212V28.8211C26.5477 28.5176 26.525 28.3102 26.6235 28.2285C26.7707 28.1063 27.0493 28.218 27.3714 28.3471C27.7668 28.5056 28.2277 28.6903 28.5911 28.5006C28.891 28.344 28.9062 28.1843 28.927 27.9657C28.9466 27.7588 28.9713 27.4992 29.247 27.1397C29.2938 27.0786 29.3356 27.0247 29.3732 26.9761L29.3733 26.9759L29.3737 26.9755C29.6479 26.6216 29.7015 26.5524 29.9028 26.051C30.1202 25.5097 29.8404 25.0691 29.5819 24.662C29.4097 24.3909 29.247 24.1347 29.247 23.8736C29.247 23.5171 29.4344 23.2126 29.6457 22.8693C29.9184 22.4262 30 21.9186 30 21.1518C30 19.7909 27.9352 17 24 17C23.2707 17 22.6057 17.0959 22.0061 17.2607ZM19.3826 26.0001C19.3892 26.0242 19.3964 26.0482 19.4042 26.0722C19.5891 26.641 20.0403 27.1397 20.6765 27.1397C21.3127 27.1397 23.2212 26.0722 23.2212 25.5384C23.2211 25.0047 20.6765 24.2041 20.0404 24.4709C19.4838 24.7044 19.2559 25.2683 19.3461 25.8316C19.3684 25.8883 19.3917 25.9444 19.416 26.0001H19.3826ZM9.95965 24.4709C10.5162 24.7044 10.744 25.2682 10.654 25.8314C10.6316 25.8882 10.6083 25.9444 10.5839 26.0001H10.6174C10.6108 26.0242 10.6036 26.0482 10.5958 26.0722C10.4109 26.641 9.95968 27.1397 9.32349 27.1397C8.68729 27.1397 6.77881 26.0722 6.77884 25.5384C6.77888 25.0047 9.32349 24.2041 9.95965 24.4709ZM20 6C20 8.76142 17.7614 11 15 11C12.2386 11 10 8.76142 10 6C10 3.23858 12.2386 1 15 1C17.7614 1 20 3.23858 20 6ZM6 26.0509C5.77953 26.051 5.7188 26.3102 5.59735 26.8286C5.5428 27.0615 5.476 27.3466 5.37698 27.684C5.13786 28.4988 5.42669 28.3989 5.7211 28.2971C5.82005 28.2628 5.91963 28.2284 6 28.2284C6.08039 28.2284 6.18004 28.2628 6.27901 28.2971C6.57344 28.3989 6.86229 28.4988 6.62313 27.684C6.52409 27.3466 6.45728 27.0614 6.40273 26.8285L6.40272 26.8285C6.28127 26.3101 6.2205 26.0509 6 26.0509ZM2.04035 24.4709C1.40419 24.7378 1.19748 25.4363 1.40419 26.0722C1.58908 26.641 2.04032 27.1397 2.67651 27.1397C3.31271 27.1397 5.22119 26.0722 5.22116 25.5384C5.22112 25.0047 2.67651 24.2041 2.04035 24.4709ZM23.5973 26.8286C23.7188 26.3102 23.7795 26.051 24 26.0509C24.2205 26.0509 24.2813 26.3101 24.4027 26.8285L24.4027 26.8286C24.4573 27.0614 24.5241 27.3466 24.6231 27.684C24.8623 28.4988 24.5734 28.3989 24.279 28.2971C24.18 28.2628 24.0804 28.2284 24 28.2284C23.9196 28.2284 23.82 28.2628 23.7211 28.2971C23.4267 28.3989 23.1379 28.4988 23.377 27.684C23.476 27.3466 23.5428 27.0615 23.5973 26.8286ZM28.5958 26.0722C28.8025 25.4363 28.5958 24.7378 27.9596 24.4709C27.3235 24.2041 24.7789 25.0047 24.7788 25.5384C24.7788 26.0722 26.6873 27.1397 27.3235 27.1397C27.9597 27.1397 28.4109 26.641 28.5958 26.0722Z" fill="white"/>
</svg>
