<svg width="30" height="30" viewBox="0 0 30 30" fill="none" xmlns="http://www.w3.org/2000/svg">
<path d="M2 24V28H6L8 30H0V22L2 24ZM30 30H22L24 28H28V24L30 22V30ZM29 22L23.8359 21.1387L23 21L25.999 22.7998L23.666 22.333L23 27L15 29L7.86816 27.2168L10.6133 21.3828L9.29199 25.5723L15 27L21 25.5L21.5811 21.7207L19 20H21.5L20 17.5L29 22ZM10 11L6 10.1992V16.5L8 19L8.34473 21.2451L10.7305 20.2686L4 27L6.33301 22.333L6 20L4 17V10H0.5L4 9L2.5 6.5L10 11ZM26 6V17L24.9561 18.5645L22.6152 18.2305L24 16.5V9L22 12L24 7H20.167L27.5 3L26 6ZM7 13.5156C7 12.5009 13 14.001 13 15.001C12.9994 16.0003 11.7993 16.001 10.5996 16.001C8.20036 16.0008 7.00049 14.5303 7 13.5156ZM17 14.9385C17 13.876 22.9986 12.2818 23 13.3594C22.9997 14.4376 21.7998 16.0008 19.4004 16.001C18.2007 16.001 17.0007 16.0002 17 14.9385ZM6 2H2V6L0 8V0H8L6 2ZM30 8L28 6V2H24L22 0H30V8ZM23.1426 3.61816L24.3486 3.21582L21.3037 5.45996L19 5L20.7646 4.41113L19 3H11L8.31836 5.14355L11 7L7.24121 6.05957L4.98438 2.83496L6.52051 3.89844L10 1H20L23.1426 3.61816Z" fill="white"/>
</svg>
