<svg width="30" height="30" viewBox="0 0 30 30" fill="none" xmlns="http://www.w3.org/2000/svg">
<path d="M2 24V28H6L8 30H0V22L2 24ZM30 30H22L24 28H28V24L30 22V30ZM14 6L17 12L19 13.5L20 11L22 7V12L26 20L23 26L19 29L21 25.5L24 20L21 14.5L20 16L16 13.5L12 6L9.5 9L9 13L11 19L10.5 21.5L7 19.5L6 22L7.5 26L10 29L6 27L4 22L5 19L3 15L5 10V15L7 17.5L9 18.5L7 13L8 8L14 1V6ZM16 20V22L15 25L17 24L18 22L19 25L18 28L15 29L12 28L11 26L12 23L14.5 20L15 18L16 20ZM6 2H2V6L0 8V0H8L6 2ZM30 8L28 6V2H24L22 0H30V8Z" fill="white"/>
</svg>
