<svg width="31" height="30" viewBox="0 0 31 30" fill="none" xmlns="http://www.w3.org/2000/svg">
<path d="M2 24V28H6L8 30H0V22L2 24ZM22 6V10L24 9H30V15L25 20H30.5L22 27L16 25V30H14V25L8 27L0 20H5L0 15V9H6L8 10V6L15 0L22 6ZM30 30H22L24 28H28V24L30 22V30ZM10 7V11L9 13L6 11H2V14L8 20L7 22H5L8 24.5L15 22.5L22 24.5L25 22H23L22 20L28 14V11H24L21 13L20 11V7L15 3L10 7ZM14.2607 16.6729C14.4436 16.8738 14.7069 17.0009 15 17.001C15.2917 17.001 15.5526 16.874 15.7354 16.6748L16.0205 16.8496C15.7999 17.4439 15.7617 18.0994 15.9121 18.7188C15.9522 18.8909 16.0062 19.0596 16.0732 19.2217C16.1301 19.3563 16.1971 19.4868 16.2725 19.6104C16.5115 20.0111 16.8361 20.3441 17.2188 20.582C17.7176 20.8942 18.2937 21.0324 18.8682 20.9775C19.4426 20.9226 19.9875 20.6773 20.4277 20.2754L20.8789 20.5469C20.1317 21.4194 19.0957 21.9396 17.9961 21.9951C16.8965 22.0505 15.8202 21.6372 15.001 20.8438C14.7854 21.0508 14.5498 21.2329 14.2988 21.3867C13.4748 21.8957 12.5146 22.088 11.5762 21.9326C10.6378 21.7772 9.77558 21.2833 9.13086 20.5312L9.58105 20.2588C9.88332 20.5395 10.2383 20.7477 10.6211 20.8682C11.0038 20.9885 11.4062 21.0184 11.8008 20.957C12.1952 20.8955 12.5737 20.7439 12.9092 20.5117C13.2446 20.2794 13.5308 19.9716 13.7471 19.6104C13.8215 19.4862 13.8885 19.3558 13.9463 19.2217C14.0106 19.0549 14.0616 18.8815 14.0977 18.7051C14.2467 18.0856 14.2086 17.4305 13.9893 16.8359L14.2607 16.6729ZM11.1201 15.4365C11.4305 15.4538 11.7349 15.5355 12.0176 15.6768C12.0062 15.783 12 15.8917 12 16.001C12.0001 17.0905 12.5811 18.045 13.4502 18.5703C13.4111 18.6493 13.3689 18.7269 13.3232 18.8018C13.1927 19.0159 13.035 19.2102 12.8555 19.3779C11.7404 18.6682 11.0001 17.4207 11 16.001C11 15.8097 11.0141 15.6207 11.04 15.4365H11.1201ZM18.9609 15.4443C18.9862 15.6261 19 15.8122 19 16.001C18.9999 17.4183 18.2623 18.6637 17.1504 19.374C16.9725 19.2073 16.8159 19.0149 16.6865 18.8018C16.6394 18.7258 16.5961 18.647 16.5566 18.5664C17.422 18.0402 17.9999 17.0877 18 16.001C18 15.8944 17.9942 15.7883 17.9834 15.6846C18.2663 15.5431 18.5711 15.4616 18.8818 15.4443H18.9609ZM14.0674 8.56641C13.6879 8.71128 13.3412 8.94298 13.0527 9.24609C12.7644 9.54922 12.5398 9.91667 12.3955 10.3223C12.2514 10.7278 12.1904 11.1632 12.2168 11.5967C12.2433 12.03 12.3567 12.4524 12.5488 12.834C12.5664 12.8692 12.582 12.9079 12.5996 12.9404C12.7373 13.1865 12.9067 13.4107 13.1025 13.6055C13.5394 14.0567 14.1008 14.4233 14.7012 14.501H14.749V15.0332C14.3184 15.1447 14 15.5355 14 16.001C14 16.0722 14.0073 16.142 14.0215 16.209L13.7646 16.3711L13.7373 16.3281C13.4929 15.9253 13.1635 15.59 12.7764 15.3506C12.3893 15.1113 11.9553 14.974 11.5098 14.9502H11.3789C10.968 14.949 10.5615 15.0462 10.1895 15.2344C9.81741 15.4227 9.48758 15.6974 9.22559 16.0391C8.96374 16.3807 8.77558 16.7814 8.67383 17.2109C8.57218 17.6406 8.55971 18.09 8.6377 18.5254L8.18652 18.7969C7.90591 17.8151 7.94316 16.7591 8.29102 15.8027C8.63904 14.8463 9.27786 14.0456 10.1025 13.5322C10.3419 13.3821 10.595 13.2585 10.8574 13.1631C10.8173 12.9183 10.7967 12.6695 10.7949 12.4209C10.7959 11.3935 11.1205 10.3962 11.7148 9.59375C12.3093 8.7915 13.1392 8.23108 14.0674 8.00391V8.56641ZM15.9375 8.00098C16.8661 8.22869 17.6956 8.78994 18.29 9.59277C18.8844 10.3957 19.2091 11.3932 19.21 12.4209C19.2091 12.6685 19.1888 12.9162 19.1494 13.1602C19.4118 13.257 19.6647 13.3817 19.9043 13.5322C20.7258 14.0464 21.3621 14.8458 21.709 15.7998C22.0557 16.7537 22.0935 17.8064 21.8154 18.7861L21.3623 18.5146C21.4413 18.0804 21.43 17.6321 21.3291 17.2031C21.2281 16.7741 21.0398 16.3743 20.7783 16.0332C20.5167 15.6921 20.1881 15.4177 19.8164 15.2305C19.4448 15.0433 19.039 14.9476 18.6289 14.9502H18.4951C18.0497 14.974 17.6155 15.1114 17.2285 15.3506C16.8415 15.59 16.5119 15.9253 16.2676 16.3281L16.2422 16.3711L15.9775 16.2051C15.9912 16.1392 16 16.0709 16 16.001C16 15.7317 15.8929 15.4874 15.7197 15.3076C15.7148 15.3001 15.7111 15.2916 15.7061 15.2842C15.6808 15.2477 15.6527 15.2293 15.623 15.2197C15.5163 15.1345 15.3918 15.0711 15.2559 15.0352V14.501H15.3154C15.9172 14.4257 16.4804 14.0646 16.917 13.6113C17.1131 13.4175 17.2823 13.1938 17.4199 12.9482C17.44 12.9131 17.4532 12.875 17.4707 12.8398C17.6913 12.4024 17.8066 11.9112 17.8057 11.4131C17.8053 10.7885 17.6254 10.1788 17.291 9.66895C16.9565 9.15912 16.4833 8.77429 15.9375 8.56641V8.00098ZM15 12.001C15.7117 12.001 16.38 12.1869 16.959 12.5127C16.9568 12.5179 16.9543 12.5241 16.9521 12.5293C16.9441 12.5489 16.9361 12.569 16.9258 12.5879C16.8033 12.8156 16.652 13.0224 16.4775 13.2021C16.4389 13.2439 16.3991 13.2853 16.3584 13.3252C15.9506 13.1178 15.4889 13.001 15 13.001C14.5182 13.001 14.0626 13.1145 13.6592 13.3164C13.6173 13.2756 13.5758 13.2341 13.5361 13.1914C13.3618 13.0108 13.2113 12.8024 13.0889 12.5742C13.0801 12.5572 13.0717 12.5384 13.0635 12.5195C13.0613 12.5145 13.0589 12.5089 13.0566 12.5039C13.6319 12.1836 14.2948 12.001 15 12.001ZM6 2H2V6L0 8V0H8L6 2ZM30 8L28 6V2H24L22 0H30V8Z" fill="white"/>
</svg>
