<svg width="30" height="30" viewBox="0 0 30 30" fill="none" xmlns="http://www.w3.org/2000/svg">
<path d="M2 24V28H6L8 30H0V22L2 24ZM15.5 19.5L16.5 23L16 25.5V27L19 26.5L15 30L11 26.5L14 27V25L14.5 23L13.5 19L15.5 19.5ZM30 30H22L24 28H28V24L30 22V30ZM8.8125 21.1875L13.4277 23.2852L12.9609 25.1553L7.22168 22.7783L4.96387 17.3271L6 17.5L7.04102 17.291L8.8125 21.1875ZM24 17H25.1719L22.7783 22.7783L17.2402 25.0713L17.5 23L17.4834 22.8701L21.1875 21.1875L23.2588 16.6289L24 17ZM10.6699 17.5L12.4414 18.7656L13.1895 21.7607L13.1885 21.7617L8.9375 18.5L8.7334 16.9531L10.5801 16.583L10.6699 17.5ZM21.7617 16.8115L18.5 21.0625L17.2773 21.2227L17.0459 19.374L17.5 19.3301L18.9414 17.3115L21.7529 16.749L21.7617 16.8115ZM3 14L6 14.5L11 13.5L10.5 15L11 15.5L6 16.5L3 16L3.5 19L0 15L3.5 11L3 14ZM30 15L26.5 19L27 16H24L23 15.5L19 16L19.5 14L23 13.5L24.5 14H27L26.5 11L30 15ZM17.1211 12.8789L18 15L17.1211 17.1211L15 18L12.8789 17.1211L12 15L12.8789 12.8789L15 12L17.1211 12.8789ZM14.25 14.25L14 15L14.25 15.75L15 16L15.75 15.75L16 15L15.75 14.25L15 14L14.25 14.25ZM12.5 6.5V7.13574L8.8125 8.8125L6.7373 13.377L6 13.5L4.70996 13.2842L7.22168 7.22168L12.7217 4.94336L12.5 6.5ZM12.9375 10.627L12.5 10.6699L11.083 12.6523L8.29102 13.1172L11.5 8.9375L12.6309 8.78809L12.9375 10.627ZM21.0625 11.5L21.2109 12.6309L19.3721 12.9375L19.3301 12.5L17.8623 11.4512L17.1182 8.47363L21.0625 11.5ZM22.7783 7.22168L24.7725 12.0371L22.8027 12.3652L21.1875 8.8125L17 6.9082V6L17.3428 4.96973L22.7783 7.22168ZM19 3.5L16 3V5L15.5 7L16.5 10L14.5 11L13.5 7L14 5V3L11 3.5L15 0L19 3.5ZM6 2H2V6L0 8V0H8L6 2ZM30 8L28 6V2H24L22 0H30V8Z" fill="white"/>
</svg>
