<svg width="30" height="30" viewBox="0 0 30 30" fill="none" xmlns="http://www.w3.org/2000/svg">
<path d="M2 24V28H6L8 30H0V22L2 24ZM30 30H22L24 28H28V24L30 22V30ZM11 1L5 8V9L10.5 12H15L17 10V11.5L17.5 11L19 7V10L20 9L22 4V7.5L25 5L24 8H26L28 9.5L29 13V14.5L24 14L21 18L24 20H22.5L26 24L23.5 22.5L25 25L27 27H23.5L18.5 18L23 12L27 12.5L26.5 11L25 9.5H22L16 14H10L3.5 10L7 13L6.5 16L9.5 20.5L5.5 22.5L9 27H5.5L4 24L3.5 26L3 22L7 20L4.5 17L5 13.5L1 10.5V9L10 0H15L11 1ZM17.5 20L20 26L21 27H17.5L16 21.5L13.5 19.5L14.5 21L14 22L11 23.5L12.5 26L14 27H10.5L8 23L12 21L11 18.5L14 17.5L17.5 20ZM6 2H2V6L0 8V0H8L6 2ZM30 8L28 6V2H24L22 0H30V8Z" fill="white"/>
</svg>
