<svg width="30" height="30" viewBox="0 0 30 30" fill="none" xmlns="http://www.w3.org/2000/svg">
<path d="M2 24V28H6L8 30H0V22L2 24ZM30 30H22L24 28H28V24L30 22V30ZM11 25L13.5391 25.9521L13.2119 28.4033L9.50781 27.1689L10.8613 24.1689L11 25ZM20.4912 27.1689L16.7871 28.4033L16.46 25.9521L19 25L19.1377 24.1689L20.4912 27.1689ZM10 19L10.3994 21.3984L8.56445 23.9521L8.0498 20.3506L9.9209 18.9102L10 19ZM21.9492 20.3506L21.4346 23.9521L19.5996 21.3984L20 19L20.0781 18.9102L21.9492 20.3506ZM8.75293 17.5752L6.18066 18.6348L4 17V16.4658L7.3877 16.0146L8.75293 17.5752ZM26 16.4658V17L23.8184 18.6348L21.2461 17.5752L22.6113 16.0146L26 16.4658ZM7 13.5146C7.00023 12.2721 13 13.5152 13 14.7578C12.9996 15.9998 11.7993 16 10.5996 16C8.19993 15.9999 7.00006 14.7572 7 13.5146ZM17 14.7578C17 13.5152 22.9998 12.2721 23 13.5146C22.9999 14.7571 21.7999 15.9998 19.4004 16C18.2006 16 17.0004 15.9999 17 14.7578ZM6.5 11.4951V13.8662L4 13.5332V10.4648L6.5 11.4951ZM26 13.5332L23.5 13.8662V11.4951L26 10.4648V13.5332ZM8.12793 6.0752L6.5 7.5V8.4541L4 6.5293V6L6.47852 3.93359L8.12793 6.0752ZM26 6V6.5293L23.5 8.4541V7.5L21.8711 6.0752L23.5205 3.93359L26 6ZM6 2H2V6L0 8V0H8L6 2ZM30 8L28 6V2H24L22 0H30V8ZM13.5332 4H10.5L10.4736 4.02148L9.4248 1.47852L10 1H13.1338L13.5332 4ZM20.5742 1.47852L19.5254 4.02148L19.5 4H16.4668L16.8662 1H20L20.5742 1.47852Z" fill="white"/>
</svg>
