<svg width="30" height="30" viewBox="0 0 30 30" fill="none" xmlns="http://www.w3.org/2000/svg">
<path d="M2 24V28H6L8 30H0V22L2 24ZM30 30H22L24 28H28V24L30 22V30ZM22 5H26L26.5 9L29 11L27 15L29 19L25 22V25H22L19 29L15 27L11 29L8 25H5V22L1 19L3 15L1 11L4.5 9L5 5H9L11 1L15.5 3L20 1L22 5ZM15.5 5L12 3.5L10 7H7L6.5 10L3.5 12L5 15L3.5 18.5L7 21V23H9L11.5 26.5L15 25L18.5 26.5L21 22.9805H23V21L26.5 18.5L25 15L26.5 12L24.5 10L24 7H21L19 3.5L15.5 5ZM21.3643 8.63574L24 15L21.3643 21.3643L15 24L8.63672 21.3643L6 15L8.63672 8.63574L15 6L21.3643 8.63574ZM14.5 14H19L15 22L19.8125 19.8125L22 15L19.8125 10.1875L17.0361 8.92578L14.5 14ZM10.1875 10.1875L8 15L10.1875 19.8125L12.9629 21.0732L15.5 16H11L15 8L10.1875 10.1875ZM6 2H2V6L0 8V0H8L6 2ZM30 8L28 6V2H24L22 0H30V8Z" fill="white"/>
</svg>
