<svg width="30" height="30" viewBox="0 0 30 30" fill="none" xmlns="http://www.w3.org/2000/svg">
<path d="M2 24V28H6L8 30H0V22L2 24ZM27 8L28 11L21.5 5L18.6357 9.09082L21 8.5L20.166 11.416L23 10L29 15L30 18L23 12.5L21.333 13.333L22 14L20.5898 15.1279L27 18.8203V24L25 27V20.2598L19.9297 17.5049L20.5 19.5L18.166 19.166L22 23V27L20 30V24L16 20L15 21L14 20L10 24V30L8 27V23L11.833 19.166L9.5 19.5L10.0566 17.5498L5 20.5V27L3 24V19L9.42773 15.1426L8 14L8.76855 13.3838L7 12.5L0 18L1 15L7 10L10.416 11.708L9.5 8.5L11.3125 9.01758L8.5 5L2 11L3 8L9 2L13.7168 8.60352L15 7L16.2822 8.60352L21 2L27 8ZM30 30H22L24 28H28V24L30 22V30ZM12 15.5L14 17V15L11 13L12 15.5ZM16 15V17L18 15.5L19 13L16 15ZM12.5 12.5L14 13.5V11.5L12 11L12.5 12.5ZM16 11.5V13.5L17.5 12.5L18 11L16 11.5ZM6 2H2V6L0 8V0H8L6 2ZM30 8L28 6V2H24L22 0H30V8Z" fill="white"/>
</svg>
