<svg width="30" height="30" viewBox="0 0 30 30" fill="none" xmlns="http://www.w3.org/2000/svg">
<path d="M2 24V28H6L8 30H0V22L2 24ZM15 1L16 0H20L29 9L28 19.5L27 25L24.5 21.5L24 26L22 29L20.5 24L20 28L18.5 30L17.5 25L16.5 29L15 30L13.5 29L12.5 25L11.5 30L10 28L9.5 24L8 29L6 26L5.5 21.5L3 25L2 19.5L1 9L10 0H14L15 1ZM30 30H22L24 28H28V24L30 22V30ZM3 10L4 20.5L6.5 18L7.5 25.5L9 19L10.5 20L11 25L12 22L13 21L15 28L17 21L18 22L19 25L19.5 20L21 19L22.5 25.5L23.5 18L26 20.5L27 10L19 2H17L15 4L13 2H11L3 10ZM9.5 10C11.433 10 13 11.567 13 13.5C13 15.433 11.433 17 9.5 17C7.56702 17 6 15.433 6 13.5C6 11.567 7.56702 10 9.5 10ZM20.5 10C22.433 10 24 11.567 24 13.5C24 15.433 22.433 17 20.5 17C18.567 17 17 15.433 17 13.5C17 11.567 18.567 10 20.5 10ZM9.5 12C8.67159 12 8 12.6716 8 13.5C8 14.3284 8.67159 15 9.5 15C10.3284 15 11 14.3284 11 13.5C11 12.6716 10.3284 12 9.5 12ZM20.5 12C19.6716 12 19 12.6716 19 13.5C19 14.3284 19.6716 15 20.5 15C21.3284 15 22 14.3284 22 13.5C22 12.6716 21.3284 12 20.5 12ZM6 2H2V6L0 8V0H8L6 2ZM30 8L28 6V2H24L22 0H30V8Z" fill="white"/>
</svg>
