<svg width="30" height="30" viewBox="0 0 30 30" fill="none" xmlns="http://www.w3.org/2000/svg">
<path d="M2 24V28H6L8 30H0V22L2 24ZM25 14V20L22 23V24L21 27L17 30H13L9 27L8 24V23L5 20V14L7 13H23L25 14ZM30 30H22L24 28H28V24L30 22V30ZM15 19.5C15 19.5 14 19.5 13 20L10 21.7998V24L11 26L14 28H16L19 26L20 24V21.7646C18.844 21.0572 17.5186 20.2593 17 20C16 19.5 15 19.5 15 19.5ZM7 15.5V19L8.5 20.5L13 18C13.9 17.55 15 17.5 15 17.5C15 17.5 16.1 17.55 17 18L21.5 20.5L23 19V15.5L22 15H8L7 15.5ZM9.33301 16C9.99959 16 11.9995 16.3332 12 16.7998C12 17.3331 10 18.5 9 18.5C8.33333 18.5 8 17.3331 8 16.7998C8.00008 16.2666 8.33341 16 9 16H9.33301ZM21 16C21.6666 16 21.9999 16.2666 22 16.7998C22 17.3331 21.6667 18.5 21 18.5C20 18.5 18 17.3331 18 16.7998C18.0005 16.3332 20.0004 16 20.667 16H21ZM26 5L27 9L29 13V18H28L26 13L24 12H6L4 13L2 18H1V13L3 9L4 5L10 0H20L26 5ZM6 5.5L5 9L4 11L6 10H24L26 11L25 9L24 5.5L19 2H11L6 5.5ZM6 2H2V6L0 8V0H8L6 2ZM30 8L28 6V2H24L22 0H30V8Z" fill="white"/>
</svg>
