<svg width="30" height="30" viewBox="0 0 30 30" fill="none" xmlns="http://www.w3.org/2000/svg">
<path fill-rule="evenodd" clip-rule="evenodd" d="M23 0H7V3H0V6C0 13.778 5.92002 20.1734 13.5 20.9259V25.5622C9.24343 25.9193 6 27.7703 6 30H13.5H16.5H24C24 27.7703 20.7566 25.9193 16.5 25.5622V20.9259C24.08 20.1734 30 13.778 30 6V3H23V0ZM7 14.9444C4.545 12.7471 3 9.554 3 6H7V14.9444ZM27 6C27 9.554 25.455 12.7471 23 14.9444V6H27ZM17.6235 16.9996H12.3765C12.3765 16.9996 12.343 17.04 12.3765 16.2646C12.3851 16.0654 12.4033 15.8862 12.4191 15.7305C12.4523 15.4036 12.475 15.1802 12.3765 15.0922C12.2293 14.9606 11.9507 15.0809 11.6286 15.2199C11.2332 15.3906 10.7723 15.5896 10.4089 15.3853C10.109 15.2166 10.0938 15.0446 10.073 14.8092C10.0534 14.5864 10.0287 14.3069 9.75304 13.9197C9.70596 13.8536 9.66403 13.7953 9.62628 13.7428C9.35213 13.3617 9.29853 13.2872 9.09717 12.7472C8.87976 12.1642 9.1596 11.6898 9.41811 11.2514C9.59031 10.9595 9.75304 10.6835 9.75304 10.4023C9.75304 10.0185 9.5656 9.69048 9.35435 9.32084C9.08163 8.84363 9 8.29699 9 7.47112C9 6.00554 11.0648 3 15 3C18.9352 3 21 6.00554 21 7.47112C21 8.29699 20.9184 8.84363 20.6457 9.32084C20.4344 9.69048 20.247 10.0185 20.247 10.4023C20.247 10.6835 20.4097 10.9595 20.5819 11.2514C20.8404 11.6898 21.1202 12.1642 20.9028 12.7472C20.7015 13.2872 20.6479 13.3617 20.3737 13.7428L20.3733 13.7433C20.3357 13.7957 20.2939 13.8538 20.247 13.9197C19.9713 14.3069 19.9466 14.5864 19.927 14.8092C19.9062 15.0446 19.891 15.2166 19.5911 15.3853C19.2277 15.5896 18.7668 15.3906 18.3714 15.2199C18.0493 15.0809 17.7707 14.9606 17.6235 15.0922C17.525 15.1802 17.5477 15.4036 17.5809 15.7304V15.7305L17.5809 15.7305C17.5967 15.8862 17.6149 16.0654 17.6235 16.2646C17.657 17.04 17.6235 16.9996 17.6235 16.9996ZM14.5973 13.5847C14.7188 13.0264 14.7795 12.7472 15 12.7472C15.2205 12.7472 15.2813 13.0263 15.4027 13.5845C15.4573 13.8353 15.5241 14.1424 15.6231 14.5059C15.8623 15.3833 15.5734 15.2757 15.279 15.1661C15.18 15.1292 15.0804 15.0921 15 15.0921C14.9196 15.0921 14.82 15.1292 14.7211 15.1661C14.4267 15.2757 14.1379 15.3833 14.377 14.5059C14.476 14.1425 14.5428 13.8355 14.5973 13.5847L14.5973 13.5847ZM10.4042 12.7701C10.1975 12.0852 10.4042 11.333 11.0404 11.0456C11.6765 10.7582 14.2211 11.6204 14.2212 12.1952C14.2212 12.77 12.3127 13.9197 11.6765 13.9197C11.0403 13.9197 10.5891 13.3826 10.4042 12.7701ZM19.5958 12.7701C19.8025 12.0852 19.5958 11.333 18.9596 11.0456C18.3235 10.7582 15.7789 11.6204 15.7788 12.1952C15.7788 12.77 17.6873 13.9197 18.3235 13.9197C18.9597 13.9197 19.4109 13.3826 19.5958 12.7701Z" fill="white"/>
</svg>
