<svg width="30" height="30" viewBox="0 0 30 30" fill="none" xmlns="http://www.w3.org/2000/svg">
<path d="M10 18C10 19 10 20 11 20H14C15 20 15 19 15 18C16 18 17 18 17 17V4C17 3 16 2 15 2C15 1 15 0 14 0H11C10 0 10 1 10 2C9 2 8 3 8 4V17C8 18.0354 9 18 10 18ZM27 26C28.7889 24.0072 30 21.8828 30 19C30 12.7961 25.2039 8 19 8V12C23.1355 12 26 14.8645 26 19C26 23.1355 23.1355 26 19 26H3C1 26 0 28 0 29C0 29.5 0.482031 30 1 30H29C29.518 30 30 29.5805 30 29.0625C30 28 29 26 27 26ZM7 23C7 23.5523 7.44772 24 8 24H17C17.5523 24 18 23.5523 18 23V23C18 22.4477 17.5523 22 17 22H8C7.44771 22 7 22.4477 7 23V23Z" fill="white"/>
</svg>
