<svg width="30" height="30" viewBox="0 0 30 30" fill="none" xmlns="http://www.w3.org/2000/svg">
<path d="M2 24V28H6L8 30H0V22L2 24ZM16.5 4L15.5 7L16.5264 9.05176L17.2676 7.07227L20.0674 5.22363L21.6338 1.50977L21.7988 6.22363L19.4326 8.32227L19.2959 10.6123L20.9277 9.26758L24.2764 9.06738L27.4902 6.63379L25.2764 10.7988L22.1777 11.4326L20.9141 13.3477L23 13L26 14.5L30 14L26 16.5L23 15.5L20.9482 16.5264L22.9277 17.2676L24.7764 20.0674L28.4902 21.6338L23.7764 21.7988L21.6777 19.4326L19.3877 19.2959L20.7324 20.9277L20.9326 24.2764L23.3662 27.4902L19.2012 25.2764L18.5674 22.1777L16.6523 20.9141L17 23L15.5 26L16 30L13.5 26L14.5 23L13.4736 20.9482L12.7324 22.9287L9.93262 24.7764L8.36621 28.4902L8.20117 23.7764L10.5674 21.6787L10.7041 19.3877L9.07227 20.7324L5.72363 20.9326L2.50977 23.3662L4.72363 19.2012L7.82227 18.5674L9.08594 16.6523L7 17L4 15.5L0 16L4 13.5L7 14.5L9.05176 13.4736L7.07227 12.7324L5.22363 9.93262L1.50977 8.36621L6.22363 8.20117L8.32227 10.5674L10.6123 10.7041L9.26758 9.07227L9.06738 5.72363L6.63379 2.50977L10.7988 4.72363L11.4326 7.82227L13.3477 9.08594L13 7L14.5 4L14 0L16.5 4ZM30 30H22L24 28H28V24L30 22V30ZM14.9238 10C14.1738 10.0069 13.4627 10.1789 12.8262 10.4814L12.1367 10.8799C11.6661 11.2041 11.254 11.607 10.9189 12.0693L10.4023 12.9639C10.196 13.4261 10.0574 13.9256 10 14.4492V15.5498C10.0574 16.074 10.1956 16.5744 10.4023 17.0371L10.918 17.9287C11.2542 18.393 11.6679 18.798 12.1406 19.123L12.8223 19.5156C13.473 19.8257 14.201 19.9999 14.9697 20C17.7311 20 19.9696 17.7613 19.9697 15C19.9697 12.2542 17.7565 10.0251 15.0166 10H14.9238ZM18 12.5L17 14V15.5L18.5 16L18 17.5L17 18.5L15 19L13 18.5L11.5 17L12 16V15H11L11.5 13L13 11.5L14 12H15L16 11L18 12.5ZM15 13.5H13.5L13 14L13.5 14.5V16L14 17H15.5L16.5 16.5L15.5 16V14L16 13L15 13.5ZM6 2H2V6L0 8V0H8L6 2ZM30 8L28 6V2H24L22 0H30V8Z" fill="white"/>
</svg>
