<svg width="30" height="30" viewBox="0 0 30 30" fill="none" xmlns="http://www.w3.org/2000/svg">
<path d="M2 24V28H6L8 30H0V22L2 24ZM30 30H22L24 28H28V24L30 22V30ZM26 6L27 11L26 17L23 20L22 22V27L15 29L8 27V24L7 20L4 16L5 12L4 6L10 2L14 1H20L26 6ZM13.5 16L12.5 18L9 19L8.76855 19.2305L9 19.5L10 23.5V26L15 27L20 25.5V25L19 23.5L16 23L13 24.5L11 25L13 23L16 21.5H18V20L19.5 17L15 15L13.5 16ZM21 17.5L20 20V22L21.5 19L24 16.5L21 17.5ZM6.37793 8.8916L7 12L6 16L7.58398 17.8486L9 17H10.5L11.5 15.5L10 13L10.5 9L9.5 8L6.37793 8.8916ZM18 14.5L21 15.5L23 15L22.5 14L21.5 13L18 14.5ZM10.2217 3.94434L11.5 6.5L12.5 8L12 13L13 14L15.5 13L17 10.5L18 8L20 5L20.3633 4.09082L19 3H14L10.2217 3.94434ZM22 6L20 8.5L19 11L18 12.5L19 12L23 11L24.5 13.5L24.5381 13.5381L25 11L24 7L22.125 5.5L22 6ZM6 2H2V6L0 8V0H8L6 2ZM30 8L28 6V2H24L22 0H30V8ZM6 7L9 6L8.54492 5.09082L6 7Z" fill="white"/>
</svg>
