<svg width="30" height="30" viewBox="0 0 30 30" fill="none" xmlns="http://www.w3.org/2000/svg">
<path d="M2 24V28H6L8 30H0V22L2 24ZM23 3V8L20 9V10H30V15L26 17L18 13V15H20.5L28 19L27 21L20 17H18.5L22 19.5L19 25L21.5 28.5L20 30L17 25L19.5 20L18.7305 19.5381L17 23L15 25L13 23L11.2686 19.5381L10.5 20L13 25L10 30L8.5 28.5L11 25L8 19.5L11.5 17H10L3 21L2 19L9.5 15H12V13L4 17L0 15V10H10V9L7 8V3L9 1V6.5L12 7.5V11H14V17L13 18.5L14 21.5L15 22.5L16 21.5L17 18.5L16 17V11H18V7.5L21 6.5V1L23 3ZM30 30H22L24 28H28V24L30 22V30ZM2 14L4 15L10 12H2V14ZM26 15L28 14V12H20L26 15ZM17 7V10H13V7L15 0L17 7ZM6 2H2V6L0 8V0H8L6 2ZM30 8L28 6V2H24L22 0H30V8Z" fill="white"/>
</svg>
