<svg width="30" height="30" viewBox="0 0 30 30" fill="none" xmlns="http://www.w3.org/2000/svg">
<path d="M2 24V28H6L8 30H0V22L2 24ZM30 10V20L22 26L28 19V12L25 10.125V17L22.9238 19.4229L24.5 21L21.5 24L20.1543 22.6533L19 24H20V30H10V24H11L9.8457 22.6533L8.5 24L5.5 21L7.07617 19.4229L5 17V10.125L2 12V19L8 26L0 20V10L10 0H20L30 10ZM30 30H22L24 28H28V24L30 22V30ZM12 28H18V26H12V28ZM7 8.875V11.3555C7.73297 10.5247 8.80511 10 10 10C12.2089 10.0001 13.9998 11.7911 14 14C13.9997 16.2087 12.2088 17.9999 10 18C9.46601 18 8.95695 17.8941 8.49121 17.7041L14 24H16L21.5078 17.7041C21.0423 17.8939 20.5337 18 20 18C17.7912 18 16.0003 16.2088 16 14C16.0002 11.7911 17.7911 10 20 10C21.1949 10 22.267 10.5247 23 11.3555V8.875L20 7H10L7 8.875ZM10 12C8.89561 12 8.00025 12.8957 8 14C8.00026 15.1043 8.89562 16 10 16C11.1044 16 11.9997 15.1043 12 14C11.9998 12.8957 11.1044 12 10 12ZM20 12C18.8956 12 18.0002 12.8957 18 14C18.0003 15.1043 18.8956 16 20 16C21.1044 16 21.9997 15.1043 22 14C21.9998 12.8957 21.1044 12 20 12ZM3 9.5L9.5 5H20.5L27 9.5L19.5 2H10.5L3 9.5ZM6 2H2V6L0 8V0H8L6 2ZM30 8L28 6V2H24L22 0H30V8Z" fill="white"/>
</svg>
