<svg width="35" height="35" viewBox="0 0 35 35" fill="none" xmlns="http://www.w3.org/2000/svg">
<path fill-rule="evenodd" clip-rule="evenodd" d="M17 3L19 0L21 3H17ZM3 16L6 18V14L3 16ZM32 14L35 16L32 18V14ZM31.2583 11.2321L29.2583 7.76795L32.8564 8L31.2583 11.2321ZM27.2321 5.74175L23.768 3.74175L27.0001 2.14368L27.2321 5.74175ZM14.2322 3.74163L10.7681 5.74163L11.0001 2.14355L14.2322 3.74163ZM31.2584 20.7681L29.2584 24.2322L32.8564 24.0001L31.2584 20.7681ZM8.74163 7.76783L6.74163 11.2319L5.14355 7.99988L8.74163 7.76783ZM30 16C30 18.9099 28.8701 21.5559 27.0251 23.5232C29.8971 24.221 32 26.476 32 29.15C32 32.3809 28.93 35 25.1429 35H7.31429C3.27472 35 0 31.7765 0 27.8C0 23.8236 3.27472 20.6 7.31429 20.6C7.61039 20.6 7.90238 20.6173 8.18928 20.651C8.36323 20.4197 8.54817 20.1968 8.74335 19.9832C8.26334 18.7481 8 17.4048 8 16C8 9.92487 12.9249 5 19 5C25.0751 5 30 9.92487 30 16ZM10.3739 18.5754C10.1306 17.7594 10 16.895 10 16C10 11.0294 14.0294 7 19 7C23.9706 7 28 11.0294 28 16C28 19.0039 26.5284 21.664 24.2668 23.2988C23.1014 19.648 19.6363 17 15.5429 17C13.6245 17 11.8442 17.5816 10.3739 18.5754ZM7.31493 22.4C7.26305 22.4 7.21135 22.4007 7.15982 22.4021C4.20157 22.4826 1.82857 24.8685 1.82857 27.8C1.82857 30.7823 4.28461 33.2 7.31429 33.2H25.1429C27.9201 33.2 30.1714 31.3868 30.1714 29.15C30.1714 26.9132 27.9201 25.1 25.1429 25.1C24.974 25.1 24.8071 25.1067 24.6425 25.1198C23.819 25.1854 23.0538 25.4109 22.3956 25.7574C22.2659 22.1418 19.2474 19.25 15.5429 19.25C12.9164 19.25 10.6348 20.7036 9.483 22.8381C8.81797 22.5562 8.08498 22.4 7.31493 22.4Z" fill="white"/>
</svg>
