<svg width="33" height="33" viewBox="0 0 33 33" fill="none" xmlns="http://www.w3.org/2000/svg">
<path fill-rule="evenodd" clip-rule="evenodd" d="M29 0L28 3L25 4L28 5L29 8L30 5L33 4L30 3L29 0ZM32.0005 17.1507C29.9815 18.939 27.326 20.0246 24.4168 20.0246C24.1889 20.0246 23.9624 20.018 23.7378 20.0048C22.2426 17.0388 19.1346 15 15.5429 15C15.3454 15 15.1493 15.0062 14.9549 15.0183C13.7053 13.1847 12.9748 10.9689 12.9748 8.5826C12.9748 5.67395 14.0601 3.0188 15.8479 1C11.2504 2.82621 8 7.31498 8 12.5629C8 14.3697 8.38529 16.0866 9.0782 17.6357C8.75718 17.9517 8.45992 18.2911 8.18928 18.651C7.90238 18.6173 7.61039 18.6 7.31429 18.6C3.27472 18.6 0 21.8236 0 25.8C0 29.7765 3.27472 33 7.31429 33H25.1429C28.93 33 32 30.3809 32 27.15C32 24.9556 30.5837 23.0434 28.4884 22.0423C30.0269 20.7343 31.2429 19.0584 32.0005 17.1507ZM24 11L25 8L26 11L29 12L26 13L25 16L24 13L21 12L24 11ZM7.31493 20.4C7.26305 20.4 7.21135 20.4007 7.15982 20.4021C4.20157 20.4826 1.82857 22.8685 1.82857 25.8C1.82857 28.7823 4.28461 31.2 7.31429 31.2H25.1429C27.9201 31.2 30.1714 29.3868 30.1714 27.15C30.1714 24.9132 27.9201 23.1 25.1429 23.1C24.974 23.1 24.8071 23.1067 24.6425 23.1198C23.819 23.1854 23.0538 23.4109 22.3956 23.7574C22.2659 20.1418 19.2474 17.25 15.5429 17.25C12.9164 17.25 10.6348 18.7036 9.483 20.8381C8.81797 20.5562 8.08498 20.4 7.31493 20.4Z" fill="white"/>
</svg>
