<svg width="35" height="25" viewBox="0 0 35 25" fill="none" xmlns="http://www.w3.org/2000/svg">
<path fill-rule="evenodd" clip-rule="evenodd" d="M35 11.475C35 14.3147 32.5073 16.6541 29.2998 16.9649C29.7475 17.7181 30 18.5712 30 19.475C30 22.5264 27.1218 25 23.5714 25H6.85714C3.07005 25 0 21.9555 0 18.2C0 15.0296 2.18796 12.3659 5.14821 11.6129C5.05109 11.1571 5 10.6845 5 10.2C5 6.44446 8.07005 3.4 11.8571 3.4C12.1347 3.4 12.4085 3.41636 12.6775 3.44816C14.2389 1.35623 16.7454 0 19.5714 0C23.4254 0 26.6853 2.52235 27.764 5.99316C28.0285 5.96468 28.298 5.95 28.5714 5.95C32.1218 5.95 35 8.42363 35 11.475ZM7.14038 11.4057C7.3213 11.413 7.50041 11.4272 7.67745 11.4482C9.23885 9.35623 11.7454 8 14.5714 8C18.4254 8 21.6853 10.5224 22.764 13.9932C23.0285 13.9647 23.298 13.95 23.5714 13.95C24.9802 13.95 26.2832 14.3395 27.3425 15H28.5714C31.1751 15 33 13.5875 33 11.475C33 9.36251 31.1832 7.87916 28.5796 7.87916C28.4213 7.87916 28.2648 7.8855 28.1105 7.89787C27.3385 7.95977 26.6211 8.1728 26.0041 8.5C25.8824 5.08533 22.973 2.5 19.5 2.5C17.0377 2.5 15.0798 3.98405 14 6C13.3765 5.73372 12.7219 5.5 12 5.5C11.9514 5.5 11.9029 5.50067 11.8546 5.502C9.08122 5.57803 7 7.43137 7 10.2C7 10.6219 7.04845 11.0251 7.14038 11.4057ZM7 13.5C6.95137 13.5 6.90289 13.5007 6.85459 13.502C4.08122 13.578 2 15.4314 2 18.2C2 21.0167 4.15968 23 7 23H23.5714C26.1751 23 28 21.5875 28 19.475C28 17.3625 26.1832 15.8792 23.5796 15.8792C23.4213 15.8792 23.2648 15.8855 23.1105 15.8979C22.3385 15.9598 21.6211 16.1728 21.0041 16.5C20.8824 13.0853 17.973 10.5 14.5 10.5C12.0377 10.5 10.0798 11.9841 9 14C8.37654 13.7337 7.72192 13.5 7 13.5Z" fill="white"/>
</svg>
