<svg width="35" height="35" viewBox="0 0 35 35" fill="none" xmlns="http://www.w3.org/2000/svg">
<path fill-rule="evenodd" clip-rule="evenodd" d="M15 4L17.5 0L20 4H15ZM20 31L17.5 35L15 31H20ZM0 17.5L4 20V15L0 17.5ZM31 15L35 17.5L31 20V15ZM7.05866 26.4151L4.55866 22.0849L2.34456 26.25L7.05866 26.4151ZM30.4413 12.9151L27.9413 8.58494L32.6554 8.75L30.4413 12.9151ZM12.9152 30.4412L8.58507 27.9412L8.75014 32.6553L12.9152 30.4412ZM26.4149 7.05876L22.0848 4.55876L26.2499 2.34466L26.4149 7.05876ZM8.58496 7.05883L12.9151 4.55883L8.75003 2.34473L8.58496 7.05883ZM22.0849 30.4412L26.415 27.9412L26.25 32.6553L22.0849 30.4412ZM4.55883 12.915L7.05883 8.58491L2.34473 8.74997L4.55883 12.915ZM27.9412 26.4151L30.4412 22.085L32.6553 26.25L27.9412 26.4151ZM17.5 29C23.8513 29 29 23.8513 29 17.5C29 11.1487 23.8513 6 17.5 6C11.1487 6 6 11.1487 6 17.5C6 23.8513 11.1487 29 17.5 29Z" fill="white"/>
</svg>
