<svg width="35" height="28" viewBox="0 0 35 28" fill="none" xmlns="http://www.w3.org/2000/svg">
<path fill-rule="evenodd" clip-rule="evenodd" d="M8 20C3.58173 20 0 16.4183 0 12C0 7.58173 3.58173 4 8 4C8.32387 4 8.64323 4.01924 8.95703 4.05666C10.7787 1.59557 12.703 0 16 0C20.4963 0 23.2995 2.96747 24.558 7.05078C24.8666 7.01727 25.181 7 25.5 7C29.6421 7 33 9.91015 33 13.5C33 13.6682 32.9926 13.835 32.9781 14H35V16H16V14H30.9664C30.9886 13.8358 31 13.669 31 13.5C31 11.0147 28.5376 9 25.5 9C25.3153 9 25.1328 9.00746 24.9528 9.02201C24.052 9.09483 23.2151 9.34547 22.4952 9.73041C22.3533 5.71314 20.0519 2.5 16 2.5C13.1273 2.5 11.6318 4.11511 10.372 6.48682C9.64465 6.17354 8.84294 6 8.0007 6C7.94397 6 7.88742 6.00079 7.83105 6.00235C4.59546 6.0918 2 8.74279 2 12C2 15.3137 4.68629 18 8 18H18H30V20H18H8ZM35 24V22H16V24H35ZM0 22H12V24H0V22ZM22 28V26H2V28H22Z" fill="white"/>
</svg>
