<svg width="35" height="28" viewBox="0 0 35 28" fill="none" xmlns="http://www.w3.org/2000/svg">
<path fill-rule="evenodd" clip-rule="evenodd" d="M17.5 0L15 4H20L17.5 0ZM6.2725 20C6.09408 19.1951 6 18.3586 6 17.5C6 11.1487 11.1487 6 17.5 6C23.8513 6 29 11.1487 29 17.5C29 18.3586 28.9059 19.1951 28.7275 20H6.2725ZM31 20L35 17.5L31 15V20ZM4 20L0 17.5L4 15V20ZM27.9413 8.58494L30.4413 12.9151L32.6554 8.75L27.9413 8.58494ZM22.0848 4.55876L26.4149 7.05876L26.2499 2.34466L22.0848 4.55876ZM12.9151 4.55883L8.58496 7.05883L8.75003 2.34473L12.9151 4.55883ZM7.05883 8.58491L4.55883 12.915L2.34473 8.74997L7.05883 8.58491ZM35 22V24H0V22H35ZM29 28V26H6V28H29Z" fill="white"/>
</svg>
