<svg width="25" height="25" viewBox="0 0 25 25" fill="none" xmlns="http://www.w3.org/2000/svg">
<path fill-rule="evenodd" clip-rule="evenodd" d="M21 0L20 3L17 4L20 5L21 8L22 5L25 4L22 3L21 0ZM24.1221 17.1108C22.0929 18.9082 19.4239 19.9994 16.5 19.9994C10.1487 19.9994 5 14.8507 5 8.4994C5 5.57604 6.0908 2.90744 7.88759 0.878418C3.26687 2.71389 0 7.22539 0 12.4999C0 19.4035 5.59644 24.9999 12.5 24.9999C17.7751 24.9999 22.287 21.7323 24.1221 17.1108ZM16 11L17 8L18 11L21 12L18 13L17 16L16 13L13 12L16 11Z" fill="white"/>
</svg>
