<svg width="35" height="35" viewBox="0 0 35 35" fill="none" xmlns="http://www.w3.org/2000/svg">
<path fill-rule="evenodd" clip-rule="evenodd" d="M17.5 0L15 4H20L17.5 0ZM17.5 35L20 31H15L17.5 35ZM4 20L0 17.5L4 15V20ZM35 17.5L31 15V20L35 17.5ZM4.55866 22.0849L7.05866 26.4151L2.34456 26.25L4.55866 22.0849ZM27.9413 8.58494L30.4413 12.9151L32.6554 8.75L27.9413 8.58494ZM8.58507 27.9412L12.9152 30.4412L8.75014 32.6553L8.58507 27.9412ZM22.0848 4.55876L26.4149 7.05876L26.2499 2.34466L22.0848 4.55876ZM12.9151 4.55883L8.58496 7.05883L8.75003 2.34473L12.9151 4.55883ZM26.415 27.9412L22.0849 30.4412L26.25 32.6553L26.415 27.9412ZM7.05883 8.58491L4.55883 12.915L2.34473 8.74997L7.05883 8.58491ZM30.4412 22.085L27.9412 26.4151L32.6553 26.25L30.4412 22.085ZM29 17.5C29 23.8513 23.8513 29 17.5 29C11.1487 29 6 23.8513 6 17.5C6 11.1487 11.1487 6 17.5 6C23.8513 6 29 11.1487 29 17.5ZM26.1365 21.463C24.6762 22.471 22.9054 23.0613 20.9968 23.0613C15.994 23.0613 11.9385 19.0057 11.9385 14.003C11.9385 12.0946 12.5286 10.324 13.5364 8.86383C10.2688 10.366 8 13.668 8 17.5C8 22.7467 12.2533 27 17.5 27C21.3322 27 24.6345 24.7309 26.1365 21.463ZM21.5 10.0001L20.625 12.6251L18 13.5001L20.625 14.3751L21.5 17.0001L22.375 14.3751L25 13.5001L22.375 12.6251L21.5 10.0001Z" fill="white"/>
</svg>
