<svg width="35" height="28" viewBox="0 0 35 28" fill="none" xmlns="http://www.w3.org/2000/svg">
<path fill-rule="evenodd" clip-rule="evenodd" d="M8.0007 6C7.94397 6 7.88741 6.00079 7.83105 6.00235L7.83106 6.00233C4.59547 6.09178 2 8.74279 2 12C2 15.3137 4.68629 18 8 18H10.999H27.4998H27.5C30.5376 18 33 15.9853 33 13.5C33 11.0147 30.5376 9 27.5 9C27.3153 9 27.1328 9.00745 26.9528 9.022L26.9528 9.02201C26.052 9.09484 25.2151 9.34546 24.4952 9.7304C24.3533 5.71314 21.0519 2.5 17 2.5C14.1273 2.5 11.6318 4.11511 10.372 6.48681C9.64466 6.17354 8.84295 6 8.0007 6ZM0 12C0 16.4183 3.58172 20 8 20H27.4998H27.5C31.6421 20 35 17.0899 35 13.5C35 9.91015 31.6421 7 27.5 7C27.181 7 26.8666 7.01727 26.558 7.05078C25.2995 2.96747 21.4963 0 17 0C13.703 0 10.7787 1.59557 8.95703 4.05665C8.64323 4.01924 8.32386 4 8 4C3.58172 4 0 7.58172 0 12ZM8 22L6 28L8.00002 28L10 22H8ZM14 28L16 22H18L16 28L14 28ZM24 22L22 28L24 28L26 22H24Z" fill="white"/>
</svg>
