<svg width="38" height="38" viewBox="0 0 38 38" fill="none" xmlns="http://www.w3.org/2000/svg">
<path fill-rule="evenodd" clip-rule="evenodd" d="M2.18394 26.4931C0.830069 25.0601 0 23.127 0 21C0 16.5817 3.58172 13 8 13C8.32386 13 8.64323 13.0192 8.95703 13.0567C10.7787 10.5956 13.703 9 17 9C21.4963 9 25.2995 11.9675 26.558 16.0508C26.8666 16.0173 27.181 16 27.5 16C31.6421 16 35 18.9101 35 22.5C35 26.0899 31.6421 29 27.5 29H18.1955C17.1227 28.3453 15.9419 28 15.0417 28C14.0289 25.1417 12.1601 24 8.54167 24C5.88836 24 4.96598 24.7772 3.5 26.5C3.34249 26.4837 2.70478 26.4877 2.18394 26.4931ZM18.7472 21.5165H16.1131V21.3512C16.1131 19.0858 17.1449 18.0995 18.0049 17.2773C18.6195 16.6898 19.1463 16.1862 19.1463 15.3595C19.1463 14.3058 18.5277 13.7273 17.5499 13.7273C16.4922 13.7273 15.7938 14.6364 15.7938 15.6901V15.8347H13V15.6901C13 13.1488 14.816 11 17.5499 11C20.3237 11 22 12.6736 22 15.0909C22 16.8019 21.1286 17.6495 20.2879 18.4672C19.5042 19.2295 18.7472 19.9658 18.7472 21.3512V21.5165ZM17.4302 26C16.5122 26 15.8337 25.2769 15.8337 24.3471C15.8337 23.4174 16.5122 22.6942 17.4302 22.6942C18.3481 22.6942 19.0266 23.4174 19.0266 24.3471C19.0266 25.2769 18.3481 26 17.4302 26Z" fill="white"/>
<path fill-rule="evenodd" clip-rule="evenodd" d="M35.9782 17.4977C34.4793 15.4401 31.4932 14.0508 28.111 14.0508C26.6368 9.96747 22.1816 7 16.9145 7C13.5034 7 10.4329 8.24459 8.29199 10.2308C9.14343 7.43549 11.7606 5.4 14.8572 5.4C15.1348 5.4 15.4086 5.41636 15.6775 5.44816C17.2389 3.35623 19.7455 2 22.5715 2C26.4255 2 29.6854 4.52235 30.7641 7.99316C31.0286 7.96468 31.298 7.95 31.5715 7.95C35.1219 7.95 38.0001 10.4236 38.0001 13.475C38.0001 15.0605 37.223 16.4901 35.9782 17.4977Z" fill="white"/>
<path fill-rule="evenodd" clip-rule="evenodd" d="M4.11429 36C1.84203 36 0 34.2091 0 32C0 29.7909 1.84203 28 4.11429 28C4.28084 28 4.44509 28.0096 4.60647 28.0283C5.54331 26.7978 7.04725 26 8.74286 26C11.0552 26 13.0112 27.4837 13.6584 29.5254C13.8171 29.5086 13.9788 29.5 14.1429 29.5C16.2731 29.5 18 30.9551 18 32.75C18 34.5449 16.2731 36 14.1429 36H4.11429Z" fill="white"/>
</svg>
