<svg width="868" height="70" viewBox="0 0 868 70" fill="none" xmlns="http://www.w3.org/2000/svg">
<g clip-path="url(#clip0_3461_59498)">
<path d="M868 33L468 33L468 37L868 37L868 33Z" fill="url(#paint0_linear_3461_59498)"/>
<path d="M0 37L400 36.9999L400 32.9999L-5.97394e-07 33L0 37Z" fill="url(#paint1_linear_3461_59498)"/>
<path d="M453.239 64.2393C447.718 67.8792 441.107 70 434 70C426.892 70 420.281 67.8795 414.76 64.2393L434 45L453.239 64.2393ZM463.239 15.7598C466.88 21.2807 469 27.8923 469 35C469 42.1074 466.879 48.7185 463.239 54.2393L444 35L463.239 15.7598ZM424 35L404.76 54.2393C401.12 48.7186 399 42.1072 399 35C399 27.8925 401.12 21.2806 404.76 15.7598L424 35ZM434 0C441.107 0 447.719 2.11996 453.239 5.75977L434 25L414.76 5.75977C420.281 2.11969 426.893 0 434 0Z" fill="#E14645"/>
</g>
<defs>
<linearGradient id="paint0_linear_3461_59498" x1="868" y1="35" x2="468" y2="35" gradientUnits="userSpaceOnUse">
<stop stop-color="#E14645" stop-opacity="0"/>
<stop offset="1" stop-color="#E14645"/>
</linearGradient>
<linearGradient id="paint1_linear_3461_59498" x1="-2.98697e-07" y1="35" x2="400" y2="34.9999" gradientUnits="userSpaceOnUse">
<stop stop-color="#E14645" stop-opacity="0"/>
<stop offset="1" stop-color="#E14645"/>
</linearGradient>
<clipPath id="clip0_3461_59498">
<rect width="868" height="70" fill="white"/>
</clipPath>
</defs>
</svg>
