<svg width="868" height="70" viewBox="0 0 868 70" fill="none" xmlns="http://www.w3.org/2000/svg">
<g clip-path="url(#clip0_3461_59507)">
<path d="M868 33L468 33L468 37L868 37L868 33Z" fill="url(#paint0_linear_3461_59507)"/>
<path d="M0 37L400 36.9999L400 32.9999L-5.97394e-07 33L0 37Z" fill="url(#paint1_linear_3461_59507)"/>
<path d="M465.424 19.5752C467.712 24.2288 469 29.4638 469 35C469 54.33 453.33 70 434 70C414.67 70 399 54.33 399 35C399 32.8097 399.203 30.6667 399.588 28.5879L428 57L465.424 19.5752ZM434 0C442.646 0 450.559 3.13722 456.666 8.33301L428 37L405.575 14.5752C411.929 5.74793 422.293 0 434 0Z" fill="#00B183"/>
</g>
<defs>
<linearGradient id="paint0_linear_3461_59507" x1="868" y1="35" x2="468" y2="35" gradientUnits="userSpaceOnUse">
<stop stop-color="#00B183" stop-opacity="0"/>
<stop offset="1" stop-color="#00B183"/>
</linearGradient>
<linearGradient id="paint1_linear_3461_59507" x1="-2.98697e-07" y1="35" x2="400" y2="34.9999" gradientUnits="userSpaceOnUse">
<stop stop-color="#00B183" stop-opacity="0"/>
<stop offset="1" stop-color="#00B183"/>
</linearGradient>
<clipPath id="clip0_3461_59507">
<rect width="868" height="70" fill="white"/>
</clipPath>
</defs>
</svg>
