<!DOCTYPE svg PUBLIC "-//W3C//DTD SVG 1.1//EN" "http://www.w3.org/Graphics/SVG/1.1/DTD/svg11.dtd">
<!-- Uploaded to: SVG Repo, www.svgrepo.com, Transformed by: SVG Repo Mixer Tools -->
<svg fill="#ffffff" height="800px" width="800px" version="1.1" id="Layer_1" xmlns="http://www.w3.org/2000/svg" xmlns:xlink="http://www.w3.org/1999/xlink" viewBox="0 0 329.975 329.975" xml:space="preserve" stroke="#ffffff">
<g id="SVGRepo_bgCarrier" stroke-width="0"/>
<g id="SVGRepo_tracerCarrier" stroke-linecap="round" stroke-linejoin="round"/>
<g id="SVGRepo_iconCarrier"> <g id="XMLID_827_"> <path id="XMLID_828_" d="M15,179.987h35.966c6.731,51.438,47.583,92.292,99.021,99.022v35.965c0,8.284,6.716,15,15,15 c8.284,0,15-6.716,15-15v-35.965c51.438-6.73,92.291-47.584,99.021-99.022h35.966c8.284,0,15-6.716,15-15c0-8.284-6.716-15-15-15 h-35.966c-6.73-51.439-47.583-92.292-99.021-99.022V15c0-8.284-6.716-15-15-15c-8.284,0-15,6.716-15,15v35.965 c-51.439,6.73-92.291,47.583-99.021,99.022H15c-8.284,0-15,6.716-15,15C0,173.271,6.716,179.987,15,179.987z M179.987,81.34 c34.863,6.236,62.411,33.784,68.647,68.648h-68.647V81.34z M179.987,179.987h68.647c-6.236,34.863-33.784,62.411-68.647,68.647 V179.987z M149.987,81.34v68.648H81.34C87.576,115.124,115.124,87.576,149.987,81.34z M149.987,179.987v68.647 c-34.863-6.236-62.411-33.784-68.648-68.647H149.987z"/> </g> </g>
</svg>