<svg id="stone_barrier_" data-name="stone_barrier " xmlns="http://www.w3.org/2000/svg" width="200" height="200" viewBox="0 0 200 200">
  <defs>
    <style>
      .cls-1 {
        fill: #1e1e1e;
      }

      .cls-1, .cls-2 {
        fill-rule: evenodd;
      }

      .cls-2 {
        fill: #fff;
      }
    </style>
  </defs>
  <path id="Shape_39_copy_6" data-name="Shape 39 copy 6" class="cls-1" d="M10,2.041v107.23a90,90,0,1,0,180,0V2.041H10Z"/>
  <path id="Shape_39_copy_5" data-name="Shape 39 copy 5" class="cls-2" d="M100,194.517a85.333,85.333,0,0,1-85.227-85.246V6.816H185.227V109.271A85.333,85.333,0,0,1,100,194.517ZM19.88,11.925v97.347a80.12,80.12,0,1,0,160.24,0V11.925H19.88Z"/>
  <path id="Shape_39_copy_7" data-name="Shape 39 copy 7" class="cls-2" d="M30.413,76.418l14.38-40.7L86.4,27.758,92.83,49.18l-3.06,5.509L54.89,76.724Zm0.918,5.509L37.144,93.25l20.194,1.224L55.5,81.927H31.331ZM101.2,51.83l2.72-6c0.123-2.35.229-4.3,0.229-4.3L94.666,28.37l-3.06.612,5.2,18.056S99.258,49.823,101.2,51.83Zm18.859,64.985,18.97-18.056,3.06,10.405-7.037,18.668-7.344-4.9Zm3.672-74.674,18.358,42.845,3.672,20.5,15.91-26.319L166.262,60.5,139.643,46.426ZM48.771,111l-9.023,15.6,24.322,5.821,17.746,2.754,7.955-23.871-22.336-2.142Zm46.2,2.754-8.261,22.953,16.522,11.936,7.955-1.836-2.142-11.324ZM49.689,135.177l15.6,10.405,10.4,2.755,25.7,3.672L81.2,139.768Zm83.343,15.51L152,126.816l5.507,16.22-3.977,3.978Zm-12.359-5.411,4.9,6.427,16.216-22.647-16.216,9.794Zm-3.365-106.2h-4.284L111.8,48.874l-5.844,10.505-1.739,44.364,10.643,10.012,22.947-20.811ZM78.77,93.541l1.453-.837c1.253-1.943,4.525-7.017,8.21-12.726L99.7,55.136,97.42,52.853l-3.366,5.509L59.174,80.7,61.316,93.25Z"/>
</svg>
