<svg xmlns="http://www.w3.org/2000/svg" width="200" height="200" viewBox="0 0 200 200">
  <defs>
    <style>
      .cls-1 {
        fill: #1e1e1e;
      }

      .cls-2, .cls-3 {
        fill: #fff;
      }

      .cls-3 {
        fill-rule: evenodd;
      }
    </style>
  </defs>
  <g id="Layer_3" data-name="Layer 3">
    <path class="cls-1" d="M184.50222,99.95944,181.027,96.26559a5,5,0,0,0-3.53155-1.57275l-7.17291-.158c-.03669-.00073-.07355-.00122-.11017-.00122a4.99977,4.99977,0,0,0-3.541,1.47l-9.49719,9.52661-10.07947-.22192-4.66461-4.8501.22193-10.08325,9.94287-9.05835a4.99958,4.99958,0,0,0,1.63147-3.58594l.15777-7.16675a4.99962,4.99962,0,0,0-1.41839-3.60009l-3.50837-3.59913a5.00035,5.00035,0,0,0-4.42059-1.439l-18.298,3.11914a5.00078,5.00078,0,0,0-2.61524,1.31519l-15.799,15.1062a4.99931,4.99931,0,0,0-1.54345,3.50879L106.22311,111.53l-16.352,15.92334-3.2879,3.13794q-.16983.13585-.33014.28906l-3.69763,3.53589q-.13174.126-.2533.2605l-7.041,6.71972a4.98341,4.98341,0,0,0-1.33172,2.23487,4.98505,4.98505,0,0,0-2.32031,1.25122l-3.66663,3.53686a4.94891,4.94891,0,0,0-1.31653,2.22925,4.95352,4.95352,0,0,0-2.30041,1.23437l-7.299,6.97706a4.99911,4.99911,0,0,0-1.54389,3.50415l-.31488,14.30249a5.00044,5.00044,0,0,0,1.38031,3.56079l6.88513,7.22a4.98275,4.98275,0,0,0,3.60742,1.65845l14.3136.31494c.03675.00073.07349.00122.11017.00122a4.99906,4.99906,0,0,0,3.46289-1.39356l49.481-47.02832,26.5921.58545c.03668.00073.07343.00122.11011.00122a5,5,0,0,0,3.45538-1.38623L180.361,125.09811a4.99941,4.99941,0,0,0,1.42932-2.54638l3.955-18.09888A4.99976,4.99976,0,0,0,184.50222,99.95944Z"/>
    <path class="cls-1" d="M132.40955,88.44606l-12.019-2.60865q-.72492-1.88049-1.60034-3.71069l6.69262-10.40356,2.61707-4.06836-3.42053-3.42041L111.69391,51.249l-3.42053-3.42041-4.06824,2.61695L93.55781,57.29518q-1.6649-.75843-3.38935-1.40113L87.48237,43.51881l-1.02613-4.7273L82.3498,34.23086,63.25464,38.79151H58.4173l-1.02612,4.7273L54.77161,55.58766q-1.9173.67749-3.77386,1.50317l-10.32923-6.645-4.06823-2.61719L33.17969,51.249,20.19416,64.23439,16.77356,67.655l2.61719,4.06812,6.2464,9.71q-1.1142,2.24633-2.00525,4.58911L12.46406,88.44606,7.7367,89.47218v4.8374l-.19125,16.1278-3.61957,2.34783,8.53811,5.75215,10.45746,2.26978a51.55036,51.55036,0,0,0,2.21161,5.52685l-5.74231,8.92627-4.3453-.33375,5.14871,7.82252,12.98553,12.98536,3.42054,3.42041,4.06817-2.617,8.68652-5.58813a51.56475,51.56475,0,0,0,5.84656,2.42651l2.1897,10.08838,1.02612,4.7273H86.45624l1.02613-4.7273,2.25616-10.39453a51.58268,51.58268,0,0,0,5.44244-2.33765l9.02424,5.80542,4.06823,2.617,3.42047-3.42041L124.67939,142.749,128.1,139.32838l-2.61719-4.06812-6.19629-9.63183q1.025-2.27673,1.82477-4.63867l11.2984-2.4524,4.72724-1.02612V89.47218ZM93.82807,104.4048A21.7826,21.7826,0,1,1,72.04548,82.62208,21.80734,21.80734,0,0,1,93.82807,104.4048Z"/>
    <g>
      <path class="cls-2" d="M193.966,58.51446V48.90454l-8.01242-1.739a23.80483,23.80483,0,0,0-2.07558-4.80123l4.48869-6.9776-6.79525-6.79516-7.07261,4.55a23.80715,23.80715,0,0,0-4.66094-1.92857l-1.78436-8.22065h-9.60987l-1.75743,8.09665a23.79541,23.79541,0,0,0-4.87128,1.93452l-6.8892-4.43192-6.79525,6.79516,4.27246,6.64145a23.81575,23.81575,0,0,0-2.29573,5.23205l-7.576,1.64436v9.60992l7.29119,1.58265a23.79405,23.79405,0,0,0,2.29037,5.74491l-3.9823,6.19031,6.79525,6.79534,6.09515-3.92116a23.80115,23.80115,0,0,0,5.88635,2.442l1.53641,7.07841h9.60987l1.56334-7.20241a23.82357,23.82357,0,0,0,5.66619-2.4422l6.28838,4.04535,6.79525-6.79534-4.20207-6.53183a23.79483,23.79483,0,0,0,2.07816-5.30967Zm-21.09443-4.32708a9.82773,9.82773,0,1,1-9.82773-9.82783A9.83887,9.83887,0,0,1,172.87153,54.18738Z"/>
      <path class="cls-1" d="M169.66556,86.42656h-12.834l-1.62695-7.49024a25.824,25.824,0,0,1-4.10352-1.70312l-6.45019,4.14941-9.0752-9.07715,4.22363-6.56347a25.74745,25.74745,0,0,1-1.57714-3.94532l-7.69141-1.66992v-12.835l8.03223-1.74316a26.01465,26.01465,0,0,1,1.50878-3.44727l-4.49609-6.98926,9.0752-9.07519,7.28711,4.6875a25.98863,25.98863,0,0,1,3.04394-1.21192l1.84961-8.5205h12.834l1.88184,8.66894a26.21488,26.21488,0,0,1,2.83984,1.17383l7.459-4.79785,9.07519,9.07519-4.72461,7.34278a25.79714,25.79714,0,0,1,1.29493,2.998l8.47461,1.83887v12.835l-8.12891,1.76465a25.735,25.735,0,0,1-1.37109,3.49121l4.45507,6.92285-9.07519,9.07715-6.63281-4.2666a25.94387,25.94387,0,0,1-3.88965,1.67187Zm-9.60937-4H166.441l1.47558-6.79688,1.15234-.3291a21.81836,21.81836,0,0,0,5.19043-2.23731l1.06348-.63378,5.97461,3.84375,4.51465-4.51465-3.9668-6.166.55664-1.03711a21.82338,21.82338,0,0,0,1.9043-4.86426l.30859-1.19335,7.35157-1.59571V50.5164l-7.582-1.64453-.34277-1.1211a21.82776,21.82776,0,0,0-1.90234-4.39746l-.59864-1.05273,4.27149-6.63965-4.51465-4.51465-6.71484,4.31934-1.041-.56836a21.932,21.932,0,0,0-4.27051-1.7666l-1.13672-.33594L166.441,24.992h-6.38477l-1.67285,7.7041-1.168.32129a21.84716,21.84716,0,0,0-4.46191,1.77148l-1.03516.55078-6.51856-4.19336-4.51464,4.51465,4.06738,6.32227-.62695,1.06152a21.803,21.803,0,0,0-2.10352,4.793l-.33984,1.12793L134.5308,50.5164v6.38574l6.92676,1.50391.30371,1.20019a21.81526,21.81526,0,0,0,2.09765,5.26075l.585,1.04785-3.75878,5.84277,4.51464,4.51563,5.76954-3.71192,1.05761.61621a21.78649,21.78649,0,0,0,5.39063,2.23731l1.18359.3125Zm2.9873-16.41114A11.82813,11.82813,0,1,1,174.87162,54.1873,11.84078,11.84078,0,0,1,163.04349,66.01542Zm0-19.65625a7.82813,7.82813,0,1,0,7.82813,7.82813A7.83682,7.83682,0,0,0,163.04349,46.35917Z"/>
    </g>
    <g>
      <path class="cls-2" d="M56.92266,160.49674,53.8543,146.361a48.53025,48.53025,0,0,1-8.585-3.5625l-12.17089,7.82812L16.69219,134.22233,24.658,121.83951a48.57766,48.57766,0,0,1-3.3125-8.29L6.824,110.39713V87.195l15.15235-3.28906a48.58129,48.58129,0,0,1,3.21-7.332L16.69316,63.37076,33.09844,46.96354l13.752,8.84765A48.6752,48.6752,0,0,1,53.42851,53.196l3.49415-16.09961H80.1248l3.55371,16.37207A48.66139,48.66139,0,0,1,89.86308,56.026l14.08594-9.0625,16.40723,16.40722-8.92481,13.87305a48.65536,48.65536,0,0,1,2.79688,6.47949L130.22344,87.195v23.20215l-15.35547,3.333a48.49658,48.49658,0,0,1-2.916,7.42969l8.4043,13.0625L103.949,150.62662,91.42656,142.571a48.5214,48.5214,0,0,1-8.1748,3.51758l-3.127,14.4082Zm11.21-85.57031a24.78272,24.78272,0,1,0,24.78222,24.7832A24.81187,24.81187,0,0,0,68.13262,74.92643Z"/>
      <path class="cls-1" d="M77.70586,40.09586l3.40985,15.70972a45.51194,45.51194,0,0,1,8.9068,3.6853l13.51575-8.69482,12.98547,12.98535-8.57776,13.334a45.4861,45.4861,0,0,1,3.96637,9.1753l15.31152,3.32324v18.36426l-14.759,3.20361a45.46858,45.46858,0,0,1-3.97125,10.14648l8.03009,12.48243-12.98547,12.98535-12.017-7.73047a45.51281,45.51281,0,0,1-10.82788,4.667l-2.98749,13.76367H59.3416l-2.936-13.52685a45.48845,45.48845,0,0,1-11.24872-4.66626l-11.64759,7.49292L20.52373,133.81071l7.61011-11.82959a45.47683,45.47683,0,0,1-4.3769-10.97852L9.82366,107.97819V89.61393l14.47747-3.14234a45.52172,45.52172,0,0,1,4.38715-9.99877L20.52373,63.78141,33.50926,50.79606l13.16517,8.46948a45.47513,45.47513,0,0,1,9.30871-3.69678l3.35846-15.4729H77.70586m-9.57343,87.396A27.78272,27.78272,0,1,0,40.34984,99.70914a27.81418,27.81418,0,0,0,27.78259,27.78272m14.41077-93.396H54.50426l-1.02612,4.7273L50.85857,50.892q-1.9173.67751-3.77387,1.50318l-10.32922-6.645L32.68724,43.133l-3.42059,3.42041L16.28111,59.53873l-3.42059,3.42066,2.61719,4.06811,6.2464,9.71q-1.1142,2.24634-2.00525,4.58912L8.551,83.7504,3.82366,84.77653v28.03906L8.551,113.84171l10.45746,2.26978A51.54828,51.54828,0,0,0,21.22,121.63834l-5.74231,8.92627-2.61719,4.06812,3.42059,3.42065,12.98554,12.98535,3.42053,3.42041,4.06818-2.61694,8.68652-5.58813a51.56475,51.56475,0,0,0,5.84656,2.42651l2.1897,10.08838,1.02612,4.72729H82.5432l1.02612-4.72729,2.25617-10.39453a51.58268,51.58268,0,0,0,5.44244-2.33765l9.02423,5.80542,4.06824,2.61694,3.42047-3.42041,12.98547-12.98535,3.4206-3.42065-2.61719-4.06812-6.19629-9.63183q1.025-2.27674,1.82477-4.63868l11.2984-2.45239,4.72723-1.02612V84.77653l-4.72735-1.02613-12.019-2.60864q-.72492-1.88049-1.60035-3.71069l6.69263-10.40357,2.61707-4.06836-3.42054-3.42041L107.78087,46.55338,104.36034,43.133l-4.06824,2.617-10.64734,6.8496q-1.66488-.75841-3.38934-1.40112l-2.6861-12.37524-1.02612-4.7273Zm-14.41077,87.396A21.78272,21.78272,0,1,1,89.915,99.70914a21.80734,21.80734,0,0,1-21.7826,21.78272Z"/>
    </g>
    <g>
      <g>
        <path class="cls-3" d="M63.96562,183.47623a2.49289,2.49289,0,0,1-1.85742-.88867l-6.88183-7.21582a2.50255,2.50255,0,0,1-.68946-1.78027l.31543-14.30176a2.49765,2.49765,0,0,1,.77149-1.752l7.29883-6.97754a2.49882,2.49882,0,0,1,3.5332.07812l20.9834,21.915a2.49966,2.49966,0,0,1-.07422,3.53223l-7.29981,7.00976a2.50057,2.50057,0,0,1-1.73144.69629C78.31523,183.79166,63.96562,183.47623,63.96562,183.47623Z"/>
        <path class="cls-1" d="M64.65,152.36686l20.98346,21.91553-7.29968,7.00927-14.3136-.31494.00012-.00635-6.98419-7.324.31488-14.30249,7.299-6.977m-.00067-5a4.98228,4.98228,0,0,0-3.45422,1.38574l-7.299,6.977a4.99916,4.99916,0,0,0-1.54388,3.50415l-.31488,14.30249a5.00038,5.00038,0,0,0,1.38031,3.56079l6.88513,7.22a4.98271,4.98271,0,0,0,3.60742,1.65845l14.3136.31494c.03675.00073.07349.00122.11017.00122a4.9991,4.9991,0,0,0,3.46289-1.39355l7.29968-7.00928a5,5,0,0,0,.14844-7.06445L68.26152,148.90885a4.98651,4.98651,0,0,0-3.61218-1.542Z"/>
      </g>
      <g>
        <path class="cls-3" d="M89.26641,173.30338a2.4891,2.4891,0,0,1-1.80567-.77148l-20.9834-21.916a2.50019,2.50019,0,0,1,.07032-3.52832l3.667-3.53613a2.50323,2.50323,0,0,1,1.73535-.7002h.04883a2.50425,2.50425,0,0,1,1.75586.76953l21.01562,21.916a2.502,2.502,0,0,1-.07715,3.53809L90.99394,172.611A2.49209,2.49209,0,0,1,89.26641,173.30338Z"/>
        <path class="cls-1" d="M71.94982,145.351l21.01574,21.91626-3.69891,3.53589L68.28319,148.88761l3.66663-3.53662m-.00013-5a5.00009,5.00009,0,0,0-3.471,1.40112L64.81206,145.289a4.99992,4.99992,0,0,0-.14038,7.05664l20.98346,21.91553a5.00015,5.00015,0,0,0,7.06653.15625l3.69891-3.53589a5,5,0,0,0,.15387-7.075L75.5587,141.8903a4.99955,4.99955,0,0,0-3.51135-1.53833c-.03247-.00074-.06519-.001-.09766-.001Z"/>
      </g>
      <g>
        <path class="cls-3" d="M96.56523,166.32487a2.49227,2.49227,0,0,1-1.80664-.77246L73.77617,143.611a2.50093,2.50093,0,0,1,.08008-3.53613l7.12012-6.79493a2.4617,2.4617,0,0,1,.17675-.1875l3.69727-3.53515a2.452,2.452,0,0,1,.24023-.20313l3.39454-3.24121,17.08593-16.63672.5791-27.5791a2.49587,2.49587,0,0,1,.77149-1.7539l15.7998-15.10645a2.49969,2.49969,0,0,1,1.30762-.6582L142.327,61.25944a2.53843,2.53843,0,0,1,.41992-.03516,2.50238,2.50238,0,0,1,1.79.75488l3.50782,3.59864a2.49812,2.49812,0,0,1,.709,1.7998l-.15723,7.167a2.4973,2.4973,0,0,1-.81543,1.793L137.0457,86.11784l-.26855,12.19335,6.10058,6.34375,12.18164.26758,10.252-10.28418a2.4972,2.4972,0,0,1,1.7705-.73535c.01856,0,7.22754.15918,7.22754.15918a2.497,2.497,0,0,1,1.76563.78613l3.47558,3.69336a2.49857,2.49857,0,0,1,.62208,2.2461l-3.95508,18.10058a2.50392,2.50392,0,0,1-.71485,1.27246l-15.79492,15.10254a2.50063,2.50063,0,0,1-1.72754.69336c-.01855,0-27.668-.60937-27.668-.60937l-17.40722,16.31445L102.10723,161.985c-.03711.041-.07618.08106-.11719.11914l-3.69922,3.5293A2.49088,2.49088,0,0,1,96.56523,166.32487Z"/>
        <path class="cls-1" d="M142.74663,63.72428,146.255,67.3234l-.15777,7.16675L134.57006,84.99186l-.31489,14.30371,7.53589,7.83569,14.2826.31446L167.082,96.40324l7.17291.15795,3.47522,3.69385-3.955,18.09888L157.98,133.45646l-28.6322-.63037-18.15241,17.01123-3.63336,3.47387.0003.00025-3.53332,3.37768-3.768,3.60254.00342.00342-3.69879,3.52954-20.98291-21.9414,7.30731-6.97388-.0094-.00977,3.69763-3.53589.01294.01343,3.62067-3.45532,17.83667-17.36914.60114-28.603,15.799-15.1062,18.298-3.11914m.00018-5a5.0148,5.0148,0,0,0-.84039.071l-18.298,3.11914a5.00084,5.00084,0,0,0-2.61524,1.31518l-15.799,15.1062a4.99936,4.99936,0,0,0-1.54346,3.50879l-.5581,26.55493-16.352,15.92334-3.2879,3.13794q-.16983.13587-.33014.28907L79.425,131.2858q-.13174.126-.2533.2605l-7.041,6.71973a5.00015,5.00015,0,0,0-.16156,7.073l20.98291,21.9414a5.00028,5.00028,0,0,0,7.06543.16162l3.6988-3.52954q.08139-.078.15893-.15869l3.60913-3.45068,3.533-3.37744,3.6153-3.457,16.6452-15.59888,26.5921.58545c.03668.00073.07343.00122.11011.00122a5,5,0,0,0,3.45538-1.38623l15.79511-15.10254a4.99947,4.99947,0,0,0,1.42932-2.54639l3.95495-18.09888a4.99971,4.99971,0,0,0-1.243-4.4934l-3.47522-3.69385a5,5,0,0,0-3.53155-1.57275l-7.17291-.158c-.03669-.00074-.07355-.00122-.11017-.00122a4.99977,4.99977,0,0,0-3.541,1.47l-9.49719,9.52661-10.07947-.22193-4.66461-4.85009.22192-10.08326,9.94288-9.05835a4.99961,4.99961,0,0,0,1.63147-3.58593l.15777-7.16675a4.99961,4.99961,0,0,0-1.4184-3.6001L146.327,60.23429a5.00041,5.00041,0,0,0-3.5802-1.51Z"/>
      </g>
    </g>
    <polygon class="cls-1" points="54.698 148.753 104.263 106.231 105.571 109.476 55.624 157.538 54.698 148.753"/>
  </g>
</svg>
