<svg id="blindness_" data-name="blindness " xmlns="http://www.w3.org/2000/svg" width="200" height="200" viewBox="0 0 200 200">
  <defs>
    <style>
      .cls-1 {
        fill: #1e1e1e;
      }

      .cls-1, .cls-2 {
        fill-rule: evenodd;
      }

      .cls-2 {
        fill: #fff;
      }
    </style>
  </defs>
  <path id="Shape_39_copy" data-name="Shape 39 copy" class="cls-1" d="M144.721,113.147C147.567,109.979,195,91.288,195,91.288s-45.456-5.273-50.438-7.683c-9.17-4.435-6.957-12.672-5.692-16.157s10.91-52.085,10.91-52.085-37.156,43.214-40.319,41.631C107.422,55.973,91.911,1,91.911,1S80.527,59.291,75.151,60.558s-55.34-23.126-55.34-23.126,38.112,47.9,32.255,51.638C34.674,100.159,4,111.563,4,111.563s50.6,7.287,51.861,14.573-6.008,55.757-6.008,55.757,28.46-32.314,33.836-37.7,8.538,0,12.333,10.137S111.2,199,111.2,199s8.854-55.123,14.23-59.241,42.69,13.305,42.69,13.305S141.874,116.315,144.721,113.147Z"/>
  <path id="Shape_39_copy_2" data-name="Shape 39 copy 2" class="cls-2" d="M89,130.562a4.559,4.559,0,0,1,1.293.187c1.745,0.51,5.835,1.705,14.4,29.166,1.353,4.339,2.608,8.669,3.683,12.521,1.357-14.872,4.824-36.013,10.386-42.717a6.228,6.228,0,0,1,4.316-2.535c6.09-.425,18.37,5.748,27.239,10.764-1.51-1.947-3.127-4.07-4.725-6.23-12.437-16.807-11.567-19.423-11.1-20.827,0.494-1.484,1.32-3.968,25.161-12.149,2.938-1.009,5.873-1.981,8.611-2.868-12.284-.363-21.67-2.3-28.008-5.8-7.611-4.2-9.2-9.6-10.049-12.5-1.294-4.411,4.729-27.561,8.844-42.358-3.124,3.657-7.074,8.23-11.082,12.735-5.193,5.839-9.471,10.43-12.716,13.648-6.1,6.052-7.888,6.7-9.581,5.848-1.27-.637-2.851-1.428-9.49-28.238-1.168-4.715-2.288-9.427-3.238-13.5-0.478,3.718-1.076,7.956-1.791,12.267C86.8,64.178,82.383,67.5,80.933,68.6a4.9,4.9,0,0,1-3.972,1.016C69.85,68.236,48.729,57.761,36.55,51.524c2.741,3.5,6.085,7.84,9.4,12.325,14.156,19.175,15.724,24.5,15.508,26.99-0.254,2.922-3.351,6.933-24.4,14.527-4.408,1.591-8.829,3.051-12.58,4.239,3.675,0.422,7.982.949,12.351,1.557,24.026,3.346,26.546,5.869,27.494,6.82,1.231,1.233,3.792,3.8-2.08,29.732-1.037,4.579-2.16,9.1-3.164,12.977,2.416-3.264,5.278-7.031,8.258-10.74C80.263,133.852,85.793,130.562,89,130.562Z"/>
  <path id="Shape_39_copy_3" data-name="Shape 39 copy 3" class="cls-1" d="M128.277,101.109s-14.158,16.128-31.623,16.128-31.623-16.128-31.623-16.128S79.189,84.981,96.654,84.981,128.277,101.109,128.277,101.109Z"/>
  <path id="Shape_39_copy_4" data-name="Shape 39 copy 4" class="cls-2" d="M106.141,101.109A10.119,10.119,0,1,1,96.022,90.971,10.128,10.128,0,0,1,106.141,101.109Z"/>
</svg>
