<svg xmlns="http://www.w3.org/2000/svg" width="200" height="200" viewBox="0 0 200 200">
  <metadata><?xpacket begin="﻿" id="W5M0MpCehiHzreSzNTczkc9d"?>
<x:xmpmeta xmlns:x="adobe:ns:meta/" x:xmptk="Adobe XMP Core 5.6-c138 79.159824, 2016/09/14-01:09:01        ">
   <rdf:RDF xmlns:rdf="http://www.w3.org/1999/02/22-rdf-syntax-ns#">
      <rdf:Description rdf:about=""/>
   </rdf:RDF>
</x:xmpmeta>
                                                                                                    
                                                                                                    
                                                                                                    
                                                                                                    
                                                                                                    
                                                                                                    
                                                                                                    
                                                                                                    
                                                                                                    
                                                                                                    
                                                                                                    
                                                                                                    
                                                                                                    
                                                                                                    
                                                                                                    
                                                                                                    
                                                                                                    
                                                                                                    
                                                                                                    
                                                                                                    
                           
<?xpacket end="w"?></metadata>
<defs>
    <style>
      .cls-1 {
        fill: #1e1e1e;
      }

      .cls-1, .cls-2 {
        fill-rule: evenodd;
      }

      .cls-2 {
        fill: #fff;
      }
    </style>
  </defs>
  <path class="cls-1" d="M156.543,166.4a5.5,5.5,0,0,1-3.437,3.775L83.427,195.663a5.519,5.519,0,0,1-7.048-3.2C75.247,189.524,52.986,130.7,61.153,87.049H40.341a5.87,5.87,0,0,1-4.292-9.892L103.984,5.041a5.9,5.9,0,0,1,9.452,1.19L153.22,78.347a5.873,5.873,0,0,1-5.16,8.7h-27.3c-1.032,12.3,4.389,26.565,10.314,38.071a212.662,212.662,0,0,0,24.315,36.309A5.489,5.489,0,0,1,156.543,166.4Z"/>
  <path class="cls-2" d="M111.13,81.177c-12.743,25.846,9.789,61.315,9.789,61.315L75.693,162.511s-15.452-41.639-5.975-81.334H40.34L108.277,9.061,148.06,81.177H111.13ZM141.6,161.266L83.032,182l-5.214-13.673,49.551-14.817Z"/>
</svg>
