<svg width="24" height="30" viewBox="0 0 24 30" fill="none" xmlns="http://www.w3.org/2000/svg">
<path fill-rule="evenodd" clip-rule="evenodd" d="M6.5 6L8 3V1L7 0L5 1V2L6.5 6ZM9 5L8 6L9 7L10 6L9 5ZM16 5L17 8L18 7V4L16 3V5ZM18.5 17L19 16L20 17V18L19 20L18.5 17ZM19 1V4L20 3V2L19 1ZM20 8L22 5L24 6V8L22 12L20 8ZM4 4L3 3L2 4V6L3 7L4 5V4ZM1 9L0 11V14L1 17L2 16L4 13V11L2 9H1ZM6 20L5 19V17L6 18V20ZM17.5 14L17 11L17.5 10L18 11V12L17.5 14ZM7.5 10.5L6.5 8.5L7 8V7H6L5.5 8L7 12L7.5 11.5L10 12V15L11 15.5L11.5 17H10L9.5 18L7.5 22.5L11 28L9.5 23L8.5 22.5L11 18.5H11.5L12.5 24L12 25V30L13.5 24L13 18V17H12.5L12 15.5L13 15L13.5 13L14.5 16L14 18.5L14.5 20.5L15 19V18L15.5 15H15L14 11.5L12.5 11V10L13.2071 9.29289C13.3946 9.10536 13.5 8.851 13.5 8.58579V7.72076C13.5 7.29033 13.2246 6.90819 12.8162 6.77208L12.3162 6.60541C12.111 6.53699 11.889 6.53699 11.6838 6.60541L11.1838 6.77208C10.7754 6.90819 10.5 7.29033 10.5 7.72076V8.58579C10.5 8.851 10.6054 9.10536 10.7929 9.29289L11.5 10V11H10L7.5 10.5Z" fill="white"/>
</svg>