<svg width="30" height="28" viewBox="0 0 30 28" fill="none" xmlns="http://www.w3.org/2000/svg">
<path fill-rule="evenodd" clip-rule="evenodd" d="M16 0L27 14L16 28L30 14L16 0ZM16 22L24 14L16 6L21 14L16 22ZM7.5 9L7 10L6 14L5 16V20.5H3.5L0 22L6 21.5L7 17L9 21L7.5 21.7143L5 26L10 21L8.5 16L8 14L9 13L9.125 12.8333L10 14L12 14.5L13 16.5V14.5L10.5 13L9.79412 11.9412L10.5 11L13 13L15.5 12L17.5 12.5L16 11L13.5 12L10.75 9.52381L9 9L10 8.5L11.5 9L12 8L11.5 6L10.5 5.5H9L8.5 7L9 8L7.5 9Z" fill="white"/>
</svg>