<svg width="30" height="30" viewBox="0 0 30 30" fill="none" xmlns="http://www.w3.org/2000/svg">
<path fill-rule="evenodd" clip-rule="evenodd" d="M10.2143 1.83931C11.7074 1.29622 13.3191 1 15 1C16.6809 1 18.2926 1.29622 19.7857 1.83931L20.1275 0.899261C18.5277 0.317381 16.8009 0 15 0C13.1991 0 11.4723 0.317381 9.87246 0.899262L10.2143 1.83931ZM29.1007 9.87246L28.1607 10.2143C28.7038 11.7074 29 13.3191 29 15C29 16.6809 28.7038 18.2926 28.1607 19.7857L29.1007 20.1275C29.6826 18.5277 30 16.8009 30 15C30 13.1991 29.6826 11.4723 29.1007 9.87246ZM20.1275 29.1007L19.7857 28.1607C18.2926 28.7038 16.6809 29 15 29C13.3191 29 11.7074 28.7038 10.2143 28.1607L9.87246 29.1007C11.4723 29.6826 13.1991 30 15 30C16.8009 30 18.5277 29.6826 20.1275 29.1007ZM0.899262 20.1275L1.83931 19.7857C1.29622 18.2926 1 16.6809 1 15C1 13.3191 1.29622 11.7074 1.83931 10.2143L0.899262 9.87246C0.317381 11.4723 0 13.1991 0 15C0 16.8009 0.317381 18.5277 0.899262 20.1275ZM5 15C5 12.9477 5.61823 11.0398 6.67861 9.45241L5.84648 8.89766C4.68005 10.6438 4 12.7425 4 15C4 17.2575 4.68005 19.3562 5.84648 21.1023L6.67861 20.5476C5.61823 18.9602 5 17.0523 5 15ZM15 5C12.9477 5 11.0398 5.61823 9.45241 6.67862L8.89765 5.84648C10.6438 4.68006 12.7425 4 15 4C17.2575 4 19.3562 4.68005 21.1023 5.84647L20.5476 6.67861C18.9602 5.61823 17.0523 5 15 5ZM23.3214 9.45241L24.1535 8.89765C25.3199 10.6438 26 12.7425 26 15C26 17.2575 25.3199 19.3562 24.1535 21.1024L23.3214 20.5476C24.3818 18.9602 25 17.0523 25 15C25 12.9477 24.3818 11.0398 23.3214 9.45241ZM20.5476 23.3214L21.1023 24.1535C19.3562 25.3199 17.2575 26 15 26C12.7425 26 10.6438 25.3199 8.89765 24.1535L9.45241 23.3214C11.0398 24.3818 12.9477 25 15 25C17.0523 25 18.9602 24.3818 20.5476 23.3214ZM8 15C8 13.4006 8.53644 11.9264 9.43921 10.7476L8.64481 10.1401C7.61307 11.4873 7 13.1721 7 15C7 16.8279 7.61307 18.5127 8.64481 19.8599L9.43921 19.2524C8.53644 18.0736 8 16.5994 8 15ZM15 8C13.4006 8 11.9264 8.53644 10.7476 9.43921L10.1401 8.64481C11.4873 7.61307 13.1721 7 15 7C16.8279 7 18.5127 7.61307 19.8599 8.64481L19.2524 9.43921C18.0736 8.53644 16.5994 8 15 8ZM20.5608 10.7476L21.3552 10.1401C22.3869 11.4873 23 13.1721 23 15C23 16.8279 22.3869 18.5127 21.3552 19.8599L20.5608 19.2524C21.4636 18.0736 22 16.5994 22 15C22 13.4006 21.4636 11.9264 20.5608 10.7476ZM19.2524 20.5608L19.8599 21.3552C18.5127 22.3869 16.8279 23 15 23C13.1721 23 11.4873 22.3869 10.1401 21.3552L10.7476 20.5608C11.9264 21.4636 13.4006 22 15 22C16.5994 22 18.0736 21.4636 19.2524 20.5608ZM11.253 18.083C11.2379 18.4274 11.181 18.7222 11.081 18.8506C11.016 18.9303 10.7262 19.0207 10.5961 18.9959C10.2335 18.9225 9.99999 18.4445 9.99999 17.889C9.99999 17.0565 10.5961 16.389 11.148 15.8334C11.286 16.389 11.286 17.3334 11.253 18.083ZM20 17.889C20 18.7491 19.6333 18.8148 19.4264 18.8506C19.3088 18.8655 18.9665 18.8555 18.8824 18.7491C18.7871 18.6214 18.7034 18.3724 18.7197 17.9754C18.7269 17.7958 18.7307 17.6108 18.7344 17.4257C18.7465 16.8349 18.7585 16.2443 18.8824 15.8334C19.4264 16.373 20 17.0288 20 17.889ZM12.9798 18.4376C12.9961 18.8678 12.8939 19.1299 12.7683 19.2712C12.6777 19.372 12.4918 19.4587 12.3291 19.4274C11.9967 19.372 11.6156 18.9941 11.7062 18.3043C11.8108 17.514 12.0246 17.0066 12.3407 16.6185C12.6661 17.0604 12.952 17.6263 12.9798 18.4376ZM18.2556 18.1944C18.3462 18.8842 17.9651 19.2609 17.6304 19.3165C17.463 19.3444 17.3259 19.2906 17.1911 19.1608C17.0656 19.0198 16.9634 18.7579 16.9773 18.3301C17.0075 17.5164 17.2934 16.9505 17.6188 16.5086C17.9372 16.8967 18.151 17.4041 18.2556 18.1944ZM14.7299 18.2108C14.7299 18.606 14.6207 18.8445 14.4882 18.9777C14.3883 19.0759 14.1951 19.191 14.0278 19.1608C13.6931 19.1089 13.3424 18.7392 13.4609 18.1056C13.5981 17.3644 13.8297 16.7378 14.1667 16.373C14.4711 16.7822 14.7322 17.4579 14.7299 18.2108ZM16.473 17.9536C16.5892 18.5873 16.3092 18.9741 15.9722 19.0279C15.8026 19.0466 15.5898 18.952 15.4457 18.8234C15.3132 18.6925 15.204 18.4516 15.2017 18.0565C15.1994 17.3036 15.4597 16.7822 15.7664 16.373C16.1034 16.7378 16.3359 17.2124 16.473 17.9536ZM20 12.7779C20 13.3334 19.7222 14.1667 19.4264 14.7223C19.1505 14.1667 19.0356 13.6112 19.0125 13.0243C18.9939 12.552 19.0412 12.2424 19.1667 12.0834C19.2945 11.9221 19.4276 11.9211 19.5833 11.9445C19.7922 11.9759 20 12.2223 20 12.7779ZM10.7614 14.6127C10.7524 14.6485 10.7433 14.6849 10.7341 14.7223C10.2778 14.3056 9.99999 13.3334 9.99999 12.7779C9.99999 12.2223 10.2441 11.8547 10.5555 11.8056C10.6732 11.7871 10.7475 11.8343 10.8333 11.9445C10.9588 12.1059 11.0276 12.4281 11.009 12.8981C10.9765 13.753 10.8855 14.1168 10.7614 14.6127ZM18.6982 11.8406C18.5412 12.775 18.3041 14.1862 17.5 14.7223C17.2656 13.5506 17.2433 12.8112 17.2197 12.0317C17.2153 11.8872 17.2109 11.7413 17.2051 11.591C17.1865 11.1374 17.3027 10.8849 17.4398 10.7539C17.5793 10.623 17.7629 10.5879 17.972 10.6347C18.388 10.7259 18.8127 11.1608 18.715 11.7407C18.7095 11.7733 18.7039 11.8067 18.6982 11.8406ZM12.8535 11.6126C12.8166 12.5656 12.7757 13.6195 12.5 14.7223C11.6667 13.889 11.4239 12.639 11.3483 11.7407C11.2953 11.1112 11.6783 10.7282 12.092 10.63C12.3012 10.5833 12.4825 10.616 12.6196 10.7469C12.7591 10.8755 12.8729 11.1304 12.8543 11.591L12.8535 11.6126ZM14.8275 10.8685C14.8298 11.7313 14.5413 12.5903 14.1834 13.0556C13.7976 12.6418 13.5307 11.8248 13.3215 10.9761C13.2611 10.7282 13.3215 10.5388 13.4516 10.3775C13.5818 10.2185 13.7886 10.1016 14.0001 10.0618C14.2093 10.0244 14.4138 10.0618 14.5626 10.1764C14.709 10.2933 14.8252 10.4944 14.8275 10.8685ZM16.796 10.9246C16.6078 11.7734 16.3699 12.6418 15.9771 13.0556C15.6192 12.5903 15.29 11.6752 15.2923 10.8124C15.2947 10.4757 15.4062 10.2793 15.5596 10.1554C15.7107 10.0314 15.9222 9.98235 16.1337 10.0057C16.3428 10.0314 16.5427 10.132 16.6682 10.284C16.7937 10.436 16.8611 10.637 16.796 10.9246Z" fill="white"/>
</svg>
