<svg xmlns="http://www.w3.org/2000/svg" width="200" height="200" viewBox="0 0 200 200">
  <metadata><?xpacket begin="﻿" id="W5M0MpCehiHzreSzNTczkc9d"?>
<x:xmpmeta xmlns:x="adobe:ns:meta/" x:xmptk="Adobe XMP Core 5.6-c138 79.159824, 2016/09/14-01:09:01        ">
   <rdf:RDF xmlns:rdf="http://www.w3.org/1999/02/22-rdf-syntax-ns#">
      <rdf:Description rdf:about=""/>
   </rdf:RDF>
</x:xmpmeta>
                                                                                                    
                                                                                                    
                                                                                                    
                                                                                                    
                                                                                                    
                                                                                                    
                                                                                                    
                                                                                                    
                                                                                                    
                                                                                                    
                                                                                                    
                                                                                                    
                                                                                                    
                                                                                                    
                                                                                                    
                                                                                                    
                                                                                                    
                                                                                                    
                                                                                                    
                                                                                                    
                           
<?xpacket end="w"?></metadata>
<defs>
    <style>
      .cls-1 {
        fill: #1e1e1e;
      }

      .cls-1, .cls-2 {
        fill-rule: evenodd;
      }

      .cls-2 {
        fill: #fff;
      }
    </style>
  </defs>
  <path class="cls-1" d="M186.7,88.8a7.982,7.982,0,0,0-10.324-4.809l-18.81,7.026a7.941,7.941,0,0,0-5.1,6.386,7.956,7.956,0,0,0-1.794-1.121,98.851,98.851,0,0,0-5.243-14.492c-8.838-19.41-23.184-34.808-40.45-43.883a12.755,12.755,0,0,0,.423-1.817A14.238,14.238,0,0,0,101.07,23.83a20.448,20.448,0,0,0-23.046-3.47A14.281,14.281,0,0,0,70.249,30.8a13.15,13.15,0,0,0-.129,1.469c-0.206.045-.412,0.088-0.617,0.135-0.118-.14-0.244-0.272-0.371-0.4,2.813-5.481,1.259-9.594.228-11.39q-0.251-.433-0.54-0.841a16.342,16.342,0,0,0-1.05-2.2l-1.709-2.988a16.314,16.314,0,0,0-1.142-1.726c-0.037-.066-0.074-0.134-0.113-0.2-4.652-8.1-16.947-8.9-29.239-1.892-11.1,6.329-16.781,16.013-14.144,23.875a16.108,16.108,0,0,0,1.7,4.339h0l1.7,2.975a16.132,16.132,0,0,0,2.186,2.971,10.6,10.6,0,0,0,.678,1A70.219,70.219,0,0,0,8.089,78.884c-5.572,19.945-3.552,42.108,5.691,62.4C28.363,173.307,57.674,194,88.455,194a62.813,62.813,0,0,0,49.724-24.111,7.979,7.979,0,0,0,9.37,2.664l15.8-6.3a7.938,7.938,0,0,0,4.9-8.71c-0.823-4.807-1.911-10.771-3.152-17.061,1.283,4.912,2.422,9.752,3.264,14.194a7.981,7.981,0,0,0,10.994,5.818l13.859-5.958a7.939,7.939,0,0,0,4.79-7.9C197.414,138.933,194.856,111.982,186.7,88.8Z"/>
  <path class="cls-2" d="M88.856,32.345c3.728,0.562,6.722,2.6,7.991,5.112a5.39,5.39,0,0,0,.6-1.751c0.593-3.916-3.253-7.743-8.59-8.548S78.711,28.874,78.118,32.79a5.676,5.676,0,0,0,.6,3.436C80.266,33.348,84.368,31.668,88.856,32.345Zm-58.673,3.5,1.7,2.977a8.279,8.279,0,0,0,1.853,2.216,2.449,2.449,0,0,0,.245.61c0.63,1.1,2.086,1.625,4.068,1.625a18.6,18.6,0,0,0,4.789-.755,4.763,4.763,0,0,1-1.873-1.789l-0.005-.011a14.261,14.261,0,0,1-2.911.358c-1.526,0-2.075-.375-2.157-0.519-0.58-1.011,2.325-5.953,10.339-10.528,4.406-2.516,9.072-4.079,12.176-4.079,1.525,0,2.074.375,2.157,0.519,0.291,0.507-.3,2-1.962,3.945,0.038,0.06.084,0.114,0.12,0.176a4.628,4.628,0,0,1,.593,2.276c2.842-2.931,4.162-5.74,3.16-7.488A2.543,2.543,0,0,0,61.77,24.6a8.3,8.3,0,0,0-.888-2.284l-1.7-2.977a8.326,8.326,0,0,0-1.026-1.42,4.07,4.07,0,0,0-.223-0.5c-2.241-3.909-10.435-3.435-18.3,1.058C32.051,22.8,27.559,29.27,29.236,33.234A8.266,8.266,0,0,0,30.183,35.841Zm13.6,41.6c-3.54,14.263-1.8,30.312,4.9,45.193,13.754,30.539,44.332,46.52,68.161,35.634a38.635,38.635,0,0,0,14.607-11.748c-0.709-2.185-1.445-4.389-2.193-6.575l-7.332-7.022q0.735-1.161,1.382-2.4l4.008,3.839c-4.3-12.155-8.357-22.4-8.434-22.589l-1.023-2.577,22.368-9.656a84.788,84.788,0,0,0-4.516-12.678C126.1,65.529,109,50.531,90.452,44.767a42.446,42.446,0,0,0-7.535-.7A38.176,38.176,0,0,0,66.954,47.5C55.5,52.738,47.272,63.369,43.779,77.44ZM131.33,83.26l1.973,4.489-11.929,4.732c-0.306-.755-0.61-1.51-0.941-2.263s-0.682-1.489-1.032-2.227ZM91.94,155.907l-2.665-.692,0.2-10.463q1.329,0.4,2.665.7Zm23.312-94.2,2.228,2.262-4.83,7.658c-0.726-.784-1.473-1.531-2.233-2.254Zm-9.694,72.14c0.758-.306,1.493-0.648,2.23-0.986l8.187,18.971-4.522,1.828-8.187-18.972C104.032,134.423,104.8,134.158,105.558,133.851ZM91.337,48.192L94,48.884,93.8,59.347c-0.886-.27-1.774-0.5-2.665-0.7Zm-17,1.636,8.09,17.3c-0.7.253-3.724,1.078-4.413,1.367s-1.357.61-2.027,0.928l-7.443-17.86ZM93.988,97.117l10.4-20.761,6.934,6.92s-6.69,14.128-10.792,23.152a6.732,6.732,0,0,1-3.642,6.347c-3.473,1.562-9.584-1.063-9.882-5.03-7.254-8.528-24.223-30.236-24.223-30.236l3.847-5.947Zm-23.361,35.35c0.726,0.784,1.474,1.531,2.233,2.254l-4.835,7.666L65.8,140.125ZM46.587,93.791L46.557,90.6l8.812,1.927c-0.023,1.052-.021,2.113.021,3.184Zm7.4,26.4-2.8-6.735,16.9-7.1c0.434,1.132.864,2.264,1.333,3.394s0.967,2.233,1.462,3.34Zm5.985-46.611L52.44,66.364l1.385-2.395,7.525,7.208Q60.616,72.338,59.969,73.576ZM55.538,32.405a2.485,2.485,0,0,0-2.172-.775,10.376,10.376,0,0,0-4.968,1.5,10.566,10.566,0,0,0-3.8,3.492,2.506,2.506,0,0,0-.452,2.281h0a1.384,1.384,0,0,0,.646.51,4.157,4.157,0,0,0,.377.92l0.419,0.733c0.447-.217.883-0.449,1.338-0.655a56.954,56.954,0,0,1,11.082-3.7l-1.59-2.784a4.163,4.163,0,0,0-.767-0.948A1.184,1.184,0,0,0,55.538,32.405Zm64.021,134.489a46.267,46.267,0,0,1-19.192,4.09c-23.752,0-48.566-17.171-61.107-44.762-7.714-16.97-9.7-35.331-5.6-51.7C37.81,57.942,47.692,45.375,61.483,39.13c0.645-.292,1.3-0.553,1.954-0.814A54.5,54.5,0,0,0,47.97,42.7C15.723,57.3,3.738,100.276,21.2,138.69,34.705,168.4,61.872,186.682,88.41,186.682a54.973,54.973,0,0,0,22.792-4.875,56.038,56.038,0,0,0,25.042-22.7q-0.539-1.844-1.131-3.759A46.086,46.086,0,0,1,119.559,166.894Zm6.961-53.841,19.474,52.113,11.557-4.614c-5.606-42.374-10.4-56.323-10.4-56.323Zm52.336-20.888L160.1,99.184l17.1,53.3,11.556-4.614C185.654,109.657,178.856,92.165,178.856,92.165Z"/>
</svg>
