<?xml version="1.0" encoding="UTF-8" standalone="no"?>
<svg
   id="stone_barrier_"
   data-name="stone_barrier "
   width="200"
   height="200"
   viewBox="0 0 200 200"
   version="1.1"
   sodipodi:docname="stones.svg"
   inkscape:version="1.3.2 (091e20e, 2023-11-25, custom)"
   xmlns:inkscape="http://www.inkscape.org/namespaces/inkscape"
   xmlns:sodipodi="http://sodipodi.sourceforge.net/DTD/sodipodi-0.dtd"
   xmlns="http://www.w3.org/2000/svg"
   xmlns:svg="http://www.w3.org/2000/svg">
  <sodipodi:namedview
     id="namedview1"
     pagecolor="#ffffff"
     bordercolor="#000000"
     borderopacity="0.25"
     inkscape:showpageshadow="2"
     inkscape:pageopacity="0.0"
     inkscape:pagecheckerboard="true"
     inkscape:deskcolor="#d1d1d1"
     showgrid="false"
     inkscape:zoom="3.995"
     inkscape:cx="100"
     inkscape:cy="100"
     inkscape:window-width="1920"
     inkscape:window-height="1013"
     inkscape:window-x="-9"
     inkscape:window-y="-9"
     inkscape:window-maximized="1"
     inkscape:current-layer="stone_barrier_" />
  <defs
     id="defs1">
    <style
       id="style1">
      .cls-1 {
        fill: #1e1e1e;
      }

      .cls-1, .cls-2 {
        fill-rule: evenodd;
      }

      .cls-2 {
        fill: #fff;
      }
    </style>
  </defs>
  <path
     id="Shape_39_copy_7"
     data-name="Shape 39 copy 7"
     class="cls-2"
     d="M 14.000003,81.359778 32.206688,25.018984 84.885795,13.999998 93.026893,43.65436 89.15259,51.280438 44.990617,81.783372 Z m 1.162291,7.62608 7.359906,15.674372 25.567858,1.69438 -2.327114,-17.368752 z m 88.461966,-41.663117 3.44382,-8.305769 c 0.15571,-3.253093 0.28993,-5.952468 0.28993,-5.952468 L 95.351472,14.847187 91.47717,15.694376 98.060951,40.689198 c 0,0 3.104509,3.855263 5.563309,6.633543 z m 23.87759,89.958379 24.01813,-24.99482 3.87431,14.40359 -8.90963,25.84202 -9.29833,-6.78305 z m 4.64916,-103.370811 23.24328,59.310105 4.64916,28.378036 L 180.18728,85.165203 186,59.324573 152.29737,39.842011 Z m -94.907731,95.321151 -11.424125,21.59499 30.794367,8.05797 22.468416,3.81236 10.071918,-33.0445 -28.279869,-2.96515 z m 58.494356,3.81233 -10.459347,31.77373 20.918692,16.52294 10.07192,-2.54156 -2.71201,-15.67576 z M 38.40557,162.69956 58.156911,177.10314 71.324472,180.91685 103.86354,186 78.302013,169.05485 Z m 105.52154,21.4704 24.0156,-33.0445 6.97248,22.45327 -5.03533,5.5067 z m -15.64788,-7.49043 6.20397,8.89687 20.53125,-31.35012 -20.53125,13.55778 z M 124.01877,29.667446 h -5.42401 l -1.54972,13.56332 -7.39916,14.542014 -2.20178,61.41284 13.47524,13.85957 29.05346,-28.80856 z m -48.793407,75.395604 1.839659,-1.15865 c 1.58644,-2.68968 5.729156,-9.713596 10.394776,-17.616535 l 14.265282,-34.388647 -2.886735,-3.160344 -4.261734,7.626079 -44.161972,30.922374 2.71201,17.372903 z"
     style="stroke-width:1.32389" />
</svg>
