<?xml version="1.0" encoding="UTF-8"?>
<svg id="Layer_1" data-name="Layer 1" xmlns="http://www.w3.org/2000/svg" width="200" height="200" viewBox="0 0 200 200">
  <defs>
    <style>
      .cls-1 {
        fill: #3b6e25;
      }

      .cls-1, .cls-2 {
        fill-rule: evenodd;
        stroke-width: 0px;
      }

      .cls-2 {
        fill: #fff;
      }
    </style>
  </defs>
  <path class="cls-2" d="m83.71,95.05c.15.19.31.38.46.58.65.87,1.26,1.85,1.81,2.99.18-1.03.38-2.07.6-3.09-1-.11-1.95-.27-2.86-.47Zm18.97,42.33c-1.31.44-2.76.87-4.37,1.27.54,1.42,1.14,2.82,1.8,4.2.29-1.07.68-2.11,1.17-3.1.4-.82.87-1.61,1.41-2.37Zm-15.58,3.17c1.15.41,2.35.96,3.62,1.7-.33-.72-.64-1.44-.94-2.17-.92.2-1.81.36-2.68.48Zm1.43-66.5c.14.2.28.4.41.61.92,1.42,1.68,3.16,2.22,5.37.1-.26.2-.53.31-.79.49-1.23.99-2.44,1.52-3.65-1.68-.32-3.17-.84-4.47-1.54Zm16.14,3.68c-1.21-.31-2.51-.7-3.9-1.16-.6,1.52-1.16,3.07-1.68,4.63,1.47-1.23,3.07-2.26,4.76-3.09.27-.13.55-.26.82-.38Zm-3.15,20.08c-1.9,0-4.04-.14-6.47-.46-.33,2-.59,4.02-.78,6.04,1.82-2.2,4-3.93,6.45-5.19.26-.14.53-.27.8-.39Zm-.77,20.02c-1.96.06-4.21-.05-6.8-.36.1,1.87.26,3.73.5,5.59.04.3.08.61.12.91,1.52-2.37,3.6-4.44,6.18-6.14Zm-15.66,3.54c-.17-1.53-.29-3.06-.36-4.59-5.4-.44-9.63-2.04-12.87-4.84-5.03-4.35-7.77-11.84-8.14-23.44-.03-1.07.51-2.08,1.43-2.63.92-.56,2.06-.57,3-.05,1.68.95,3.3,1.7,4.84,2.38-3.09-4.56-4.36-11.43-3.63-21.16.08-1.03.68-1.94,1.6-2.41.91-.47,2.01-.44,2.89.09,2.85,1.71,5.57,2.76,7.94,3.97.83.42,1.62.86,2.37,1.34-2.78-4.37-3.32-11.59-1.1-22.34.21-.99.9-1.81,1.85-2.17.94-.36,2.01-.22,2.82.38,2.18,1.61,4.35,2.58,6.19,3.7,2.44,1.49,4.42,3.22,5.66,6.13.61,1.42,1.03,3.18,1.19,5.44h0c.12-.19.25-.37.4-.52-.95-2.49-1.29-4.86-1.04-7.11.39-3.53,2.21-6.88,5.79-10.07,3.1-2.76,7.62-5.47,13.71-8.19.97-.44,2.1-.31,2.96.32.86.63,1.31,1.67,1.19,2.73-.32,2.8-.1,5.19-.17,7.41-.09,2.85-.58,5.46-2.4,8.16-1.44,2.13-3.81,4.36-7.82,6.81,4.79-.64,10.25.29,16,2.9,1.04.47,1.71,1.49,1.74,2.63.03,1.14-.6,2.19-1.62,2.71-2.36,1.2-3.85,2.83-5.3,4.31-1.07,1.1-2.13,2.13-3.33,3.01.86.17,1.74.37,2.62.6,1.09.29,1.92,1.17,2.14,2.28.22,1.1-.2,2.24-1.09,2.93-3.54,2.75-5.28,6.04-7.47,8.75-1.55,1.92-3.25,3.66-5.64,4.93,2.79-.02,5.75.37,8.85,1.18,1.07.28,1.9,1.13,2.14,2.21.25,1.08-.13,2.21-.97,2.92-3.21,2.73-4.57,5.99-6.45,8.66-.61.86-1.25,1.68-1.98,2.43.98-.19,2-.34,3.04-.47,1.15-.14,2.29.4,2.89,1.4.61.99.58,2.25-.07,3.21-1.56,2.3-2.07,4.51-2.62,6.56-.47,1.76-.97,3.43-1.8,5.02,1.63-.62,3.39-1.16,5.26-1.6,1.09-.26,2.23.12,2.95.98.72.86.9,2.05.46,3.08-1.04,2.42-1.07,4.63-1.17,6.7-.13,2.67-.38,5.16-1.67,7.59-1.61,3.02-4.96,6.12-12.66,9.12,1.72,2.09,3.61,4.11,5.7,6.03l.02.02c1.33,1.19,1.47,3.24.3,4.6-1.17,1.37-3.22,1.54-4.59.4-3.18-2.56-6.03-5.3-8.55-8.21-4.5,2.96-8.87,4.26-13.3,3.94-6.86-.5-14.07-5.06-22.23-14.54-.71-.83-.91-1.98-.52-2.99.39-1.02,1.3-1.74,2.38-1.88,3.57-.47,6.53-1.37,9.32-1.94.55-.11,1.09-.21,1.64-.29-.74-.24-1.47-.53-2.17-.87-6.21-2.97-11.26-9.84-15.4-21.64-.36-1.03-.13-2.17.6-2.98.73-.81,1.85-1.15,2.91-.88,3.5.86,6.58,1.1,9.39,1.6,3.35.59,6.35,1.52,9.23,3.73.92.71,1.83,1.55,2.73,2.58Z"/>
  <path class="cls-1" d="m103.35,153.09c-3.45-11.3,3.41-19.75,17.06-22.96-3.98,9.3,4.28,15.87-17.06,22.96Zm-8.72-16.64c-1.03-11.49,7.57-19.1,21.81-20.85-5.92,8.74.89,16.07-21.81,20.85Zm-2.46-22.23c3.36-12.93,13.94-17.96,27.38-14.46-8.59,7.29-5.2,17.88-27.38,14.46Zm8.67-40.77c4.93-10.28,15.4-12.59,27.32-7.17-8.96,4.57-7.32,14.12-27.32,7.17Zm-7.05,20.71c4.75-12.93,15.87-17.96,28.93-14.46-9.37,7.29-7.13,17.88-28.93,14.46Zm6.19,60.13c-10.68,7.72-20.32,5.16-32.76-9.29,12.16-1.6,17.35-8.02,32.76,9.29Zm-9.84-17.36c-12.76,3.29-20.8-2.6-27.12-20.59,11.9,2.94,19.08-1.14,27.12,20.59Zm-4.03-23.05c-13.04-.62-18.87-8-19.43-25.5,10.36,5.85,18.36,4.24,19.43,25.5Zm18.83-52.11c-5.02-9.47-.51-16.5,15.88-23.81-1.11,9.63,3.86,14.65-15.88,23.81Zm-8.21,11.24c-11.06-.38-14.36-7.53-10.79-24.75,7.54,5.57,14.79,3.84,10.79,24.75Zm-7.74,19.73c-12.98-.62-18-8-16.69-25.5,9.73,5.85,17.9,4.24,16.69,25.5Zm22.36,70.21c.14.12.16.33.04.47-.12.14-.33.16-.47.04-6.39-5.13-11.34-11.06-15.02-17.54-1.66-2.93-3.06-5.97-4.2-9.1-1.54-4.2-2.62-8.54-3.29-12.96-.44-2.93-.71-5.9-.78-8.89-.07-2.96.05-5.93.32-8.9.41-4.41,1.18-8.8,2.24-13.12,1.06-4.31,2.42-8.53,4.04-12.63,2.47-6.25,5.54-12.17,9.03-17.59.09-.16.3-.21.46-.11.16.09.21.3.11.46-3.1,5.56-5.72,11.6-7.8,17.9-1.35,4.09-2.46,8.28-3.3,12.54-.84,4.23-1.4,8.51-1.68,12.8-.19,2.86-.24,5.72-.17,8.57.07,2.86.27,5.71.62,8.54.54,4.26,1.42,8.45,2.72,12.53,1.92,6.06,4.69,11.87,8.54,17.26,2.44,3.43,5.28,6.69,8.59,9.73Z"/>
</svg>