<?xml version="1.0" encoding="UTF-8"?>
<svg id="Layer_1" data-name="Layer 1" xmlns="http://www.w3.org/2000/svg" width="200" height="200" viewBox="0 0 200 200">
  <defs>
    <style>
      .cls-1 {
        fill: #b7b98a;
      }

      .cls-1, .cls-2, .cls-3, .cls-4, .cls-5, .cls-6, .cls-7, .cls-8, .cls-9, .cls-10, .cls-11 {
        fill-rule: evenodd;
        stroke-width: 0px;
      }

      .cls-2 {
        fill: #61633b;
      }

      .cls-4 {
        fill: #979797;
      }

      .cls-5 {
        fill: #f8ba53;
      }

      .cls-6 {
        fill: #3b3d22;
      }

      .cls-7 {
        fill: #cb8e2d;
      }

      .cls-8 {
        fill: #454545;
      }

      .cls-9 {
        fill: #f5f0e4;
      }

      .cls-10 {
        fill: #e6e3e7;
      }

      .cls-11 {
        fill: #cebc91;
      }
    </style>
  </defs>
  <g>
    <path class="cls-3" d="m94.67,157.53l.34,1.39c-.63,1.18-1.76,2.25-3.7,3.15l-.09.03c-9.09,3.26-15.93,3.26-17.31,3.26h0c-2.13.25-6.43-2.28-5.82-3.16l-.99-.16-1.1-.58c-.22-.06-1.38-.37-2.52-1.2l-1.32-.96c-.18-.13-1.14-.84-1.92-2.05-.19-.06-1.22-.38-2.24-1.15l-1.3-.98c-.18-.14-1.13-.86-1.89-2.11-.15-.14-.44-1.3-1.1-2.45l-.63-.1-1.11-.59-1.4-1.1c-.32-.25-2-1.59-2.82-4.26h0c-1.37-4.56-1.87-8.57-2.05-11.8-4.05-1.78-7.19-5.29-7.87-9.26-.21-1.25-.17-2.45.08-3.56-1.02-2.04-.87-4.8.04-7.8.87-2.9,2.53-5.31,4.98-7.02,2.19-1.53,5.06-2.56,8.81-2.72l1.01-1.38,1.22-1.21.86-.52,2.62.18,1.98-2.57c-.95-.68-4.49-2.27-5.48-2.96-4.5-3.18-4.78-8.25-2.45-13.28.5-1.79,1.52-3.59,2.84-5.34,1.95-2.58,3.24-3.16,5.99-3.6,2.75-.44,4.85-.72,8.49,1.85.65.46,1.71,1.36,3.06,2.5.7-.47,2.96-1.6,3.9-2.85-.53-1.38-.94-2.46-1.12-3.14-1.16-4.35-.56-7.08,1.15-9.62,1.63-2.43,2.71-3,6.23-4.05.85-.25,1.69-.47,2.51-.64h0c.36-.13.72-.24,1.09-.34,1.52-.41,3.04-.55,4.5-.46.56-.23,1.15-.43,1.75-.59,5.6-1.5,11.28,0,14.05,4.1.19.15.39.33.59.51,1.7-.49,3.71-.24,4.03-.2.21-.23,1.85-2.03,3.08-2.44.58-.2,2.96-1.01,7.35-.04.15.09.29.18.44.27,1.17-1.38,5.82-6.9,12.5-14.75,2.54-2.98,9.15,1.58,9.82,2.04l.14.1c.64.44,7.38,5.08,5.17,7.94-4.33,5.62-5.38,7.04-8.09,10.46,1,.81,1.84,1.58,2.35,2.19l.04.06c1.54,1.67,1,4.07.69,4.54,0,.01,0,0-2.01,4.88l-1.41,3,.82,1.18,1.04,1.14c.22.27,1.45,1.79,1.82,3.9.44,2.48-.55,5.26-.71,5.7l-.03.08c-.66,1.8-1.34,3.56-2.03,5.29.04.34.06.7.05,1.08h0c-.05,3.49-.33,11.65-1.21,15.03l-.02.08-.91,2.13-1.43,1.85-4.87,1.33c.14.68,2,5.67,1.1,7.45h0c-.16.32-.49.98-.99,1.91-.14.26.4,1.06.8,1.22,4.47,1.73,7.64,7.81,6.51,13.27-.75,3.61-4.03,8.7-6.68,10.53-2.13,2.31-5.49,4.01-8.54,5.4h0c-2.37,1.57-5.48,2.26-9.56,1.42-1.45-.3-5.25-2.06-9.33-3.2-1.89,1.2-4.53,3.07-5.03,3.35h-.03s-2.06.85-2.06.85l-3.36-.74c-.41.15-.85.26-1.29.34Z"/>
    <path class="cls-7" d="m56.38,92.75c-2.84-2.83-3.89-6.82-2.83-10.23-.11-2.04,1.04-4.08,2.56-6.1,2.79-3.7,6.65-4.95,11.84-1.28.32.22.72.54,1.21.94-.91.13-1.75.38-2.26.92-.07.07-.15.16-.26.27.84.37,1.66.85,2.42,1.44.06.04.12.09.17.14,3.26,4.27,5.59,7.71,2.19,12.11-3.22,4.16-10.06,5.01-15.05,1.79Z"/>
    <path class="cls-2" d="m82.87,81.51c.85.41.82,1.39.82,1.54-.04,1.13-.8,1.98-.93,2.12-.8.9-4.15,4.69-8.43,10.96-.62.9-2.4-1.37-.27-7.48,1.31-3.77-2.78-9.93-2.4-10.08,1.24-.52,2.44-.61,3.4-.3.64.23,5.27,1.88,7.83,3.24Zm38-6.91c1.76,1.18,2.62,3.77,1.98,6.34-.2.68-1.17,4.01-3.06,8.41-.16.37-1.09,2.59-3.62,3.63-.35.14-2.53,1.04-4.48-.31-6.26-4.29-6.24-4.16-12.45-8.46-1.83-1.26-1.6-3.44-1.57-3.78.26-2.52,2.08-3.98,2.39-4.22.51-.4,3-2.34,6.74-4.5,3.18-1.84,6.94-1.86,9.39-.22l4.67,3.11Zm-11.9,23.32c2.17,1.51,2.58,4.94.81,7.73-.65,1-3.93,6-8.63,12.17-1.61,2.13-4.45,2.8-6.2,1.55-2.94-2.09-15.51-10.73-16.51-11.5-2.16-1.65-2.48-5.45-.51-8.43.55-.84,2.74-4.17,7.68-9.98,2.32-2.66,5.98-3.43,8.23-1.87,7.61,5.25,7.61,5.08,15.13,10.34Zm-36.18,46.9c.15.11,1.02.76,1,2.12,0,.19-.02,1.36-1.05,2.3-3.44,3.18-5.91,5.19-6.44,5.62-1.63,1.28-3.93,1.42-5.51.24l-1.32-.99c-1.96-1.48-1.83-3.75-1.81-4.13.07-.75.39-4.42,1.56-9.42.05-.23.37-1.68,1.91-2.44,1.57-.77,2.65.11,2.81.25.68.55.77.38,8.84,6.45Zm18.01-20.71c.2.14,1.38.99,1.48,2.78.01.26.1,1.79-1.15,3.22-.57.65-3.57,4.07-7.34,8.02-.81.84-4.62,4.8-8.42,2.04-4.27-3.11-8.71-6.74-9.45-7.34-2-1.63-2.72-4.76-1.72-7.5.8-2.1.84-1.95,5.26-11.04.11-.23.8-1.65,2.4-2.18,1.6-.53,2.68.31,2.85.45,6.66,5.2,8.45,6.09,16.08,11.56Zm29.59-60.67c.48.24.83.41.99.5.92.48-2.34,3.73-3.29,3.23-.92-.49-8.53-4.56-12.43-4.16l2.24-2.19c1.3-.45,2.89-.42,4.53-.14l2.39-2.69c2.89-.68,5.64-.1,8.05,1.35.67.35-1.12,2.96-2.47,4.11Zm-64.78,52.15c.28.19.52.39.74.6-.24-.2-.48-.39-.74-.57,0-.01,0-.02,0-.03Zm-.49,15.95c1.72,1.77,1,4.39.89,4.79-.25.9-1.65,5.96-1.69,11.43,0,.06,0,.49-.39.76-.4.27-.7.04-.74,0l-1.43-1.11c-.19-.15-1.2-.94-1.69-2.52-1.54-5.01-1.97-9.31-2.07-12.42.66.2,1.3.33,1.87.33,2.05.04,3.8-.43,5.25-1.26Zm-3.13-25.49c.21-.6.43-1.17.65-1.71.1-.24.73-1.71,2.16-2.48.19-.1,1.44-.77,2.53-.04.57.36,3.67,2.3,6.95,4.67,1.09.81,1.3,2.98.41,4.69-1.45,2.77-3.15,6.69-4.22,9.22-.13-2.46-1.41-4.27-2.92-5.54-.01-.65-.08-1.28-.2-1.9-.27-1.33-.51-2.49-1.04-3.41-.17-.31-1.47-1.86-2.51-2.42-.28-.15-.98-.61-1.8-1.1h0Zm39.05-29.64s-.06.05-.09.08c-.26.23-2.09,1.86-4.06.9-.5-.28-.95-.53-1.35-.75,1.59.09,2.97.03,3.73,0,.59-.03,1.18-.11,1.77-.23Z"/>
    <path class="cls-1" d="m87.64,123.91v.08c.02.06.04.39-.29.77-.82.94-7.81,10.21-8.46,10.96-.34.38-4.58-2.15-8.23-4.68,5.73-1.67,10.11-4.58,9.5-4.74-4.17-1.1-12.07-4.52-11.91-4.96.62-1.61,2.9-6.42,2.92-6.47.37-.81,2.03-1.39,3.07-.6,6.65,4.97,6.65,4.82,13.39,9.65Zm-10.85-38.54c.22-1.2-3.63-6.12-3.85-6.18.44-1,.76-.36,1.02-.26.38.13,3.62,1.49,5.84,2.58l-3.01,3.86Zm29.38-12.69c.7-.44,10.74,8.7,9.97,10.59l-.7,1.68v.03c-.08.17-.53,1.23-1.67,1.7-.07.03-.65.27-.92.08h-.02c-6.23-4.28-6.21-4.15-12.38-8.42h0c-.13-.09-.09-.54-.08-.58.1-1.02.88-1.66,1.01-1.76.37-.29,2.05-1.6,4.8-3.3Zm-45.6,67.51c.14-.8,1.5-.92,2.25-.38l7.2,5.67c-3.34,3.15-7.07,5.21-7.59,5.64-.11.09-1.03.83-1.63.38l-.03-.02-1.29-.97c-.07-.05-.83-1.01-.79-1.82l1.88-8.49Zm35.46-26.78c-3.51-2.49-10.4-7.53-11.22-8.1-.67-.47-4.71-6.75-4.2-7.47h0c3.68-5.14,6.18-8.36,6.82-9.11.19-.22,1.92-2.19,3.33-1.21h0c7.58,5.23,7.59,5.06,15.1,10.31h0c1.14.8-.02,2.66-.15,2.87-.64.98-3.87,5.9-8.49,11.96h0c-.37.5-.77.66-.85.69l-.34.08Zm-42.33-7.8c.53-1.36.83-2.05,1.71-2.26,1.47-.35,5.41,2.48,5.83,2.78.21-.31.8,2,.49,2.59-.42.8.43-.08-2.33,6.33-.39-.49-.66-1.15-1.12-1.53-.01-.65-.08-1.28-.2-1.9-.27-1.33-.69-2.27-1.21-3.2-.17-.31-1.47-1.86-2.51-2.42-.13-.07-.36-.21-.65-.39Z"/>
    <path class="cls-7" d="m43.73,129.15c-2.18-1.62-3.56-4.1-3.51-6.84.01-.7.12-1.38.3-2.03-.95-1.49-1.49-3.3-1.45-5.25.03-1.83.57-3.52,1.46-4.93,1.44-3.1,4.66-5.59,9.89-5.76-.24.64-.46,1.26-.66,1.87.99.15.66.55,1.51,1.04,1.71,1.03,3.39,2.98,2.86,5.62-.77-.29-1.39-.43-1.69-.45-3.26-.14-6.16,1.01-5.48,1.45.21.14,1.27-.21,2.11-.15,1.71.12,3.23.41,4.53.88.83.27,1.49.6,2.03.97,0,.01,0,.02,0,.03.26.18.51.37.74.57.4.38.71.79.98,1.21.71,1.09,1.07,2.45,1.04,4.11-.09,5.08-4.91,9.67-10.68,9.02-1.37-.15-2.29-.1-3.96-1.36Z"/>
    <path class="cls-6" d="m84.36,153.96l5.47,3.37c.1.06.76.47.53,1.4-.22.92-1.05,1.23-1.18,1.28-5,1.8-10.58,3-16.17,3-.14,0-.89,0-1.57-.52l-1.47-1.13c-.06-.05-.46-.35-.33-.94.12-.6.62-.78.7-.8.8-.32,4.34-1.71,9.53-5.34,2.32-1.61,4.2-.49,4.49-.32Zm28.78-13.24c.23.2.47.41.72.62.1.08.71.58.62,1.57-.09.99-.79,1.65-.91,1.76-6.73,6.2-12.94,9.65-14.16,10.33-.08.04-.28.15-.56.26,2.5-2.21,7.86-7.08,14.29-14.54Zm17.06-23.7c.65,1.72.53,3.93-.5,5.97-.16.32-1.05-.37-2.23-1.55.91-1.43,1.82-2.9,2.73-4.42Zm7.1-13.21c-.32,1.83-.74,3.79-1.27,5.84-.46,1.68-1.9,2.07-2.12,2.13-.09.02-.38.1-.76.1,1.42-2.58,2.81-5.27,4.15-8.06Z"/>
    <path class="cls-2" d="m82.75,156.32h0s4.87,3.02,4.87,3.02c-7.2,2.21-12.74,2.26-13.84,2.27l-.49-.34c.71-.32,5.61-2.56,8.65-4.65l.53-.27.27-.03Zm28.49-13.44l1.55,1.27c-4.18,3.81-8.11,6.51-10.64,8.09,2.4-2.26,5.54-5.38,9.09-9.36Z"/>
    <path class="cls-8" d="m124.51,55.32c3.27-3.88,6.53-7.75,9.8-11.63,2.53-2.99,7.96.78,8.56,1.2l.12.08c1.58,1.1,2.4,2.32,2.56,2.55-3.77,5.1-3.69,5.04-10.4,13.83-.23-.19-1.41-1.14-2.99-2.18-3.81-2.5-7-3.63-7.64-3.85Z"/>
    <path class="cls-10" d="m133.63,57.27l-5.27-2.65c2.27-3.55,8.06-11.24,9.62-11,2.69.41,4.14,2.4,4.14,2.4-1.71,2.31-6.34,8.44-8.49,11.26Z"/>
    <path class="cls-10" d="m95.09,153.43c-1.04.93-3.16.97-4.35-.01l-6.04-4.24c-1.43-1.2-2.31-4.29-1.42-5.21,9.37-9.91,30.44-35.14,44.32-64.48,1.66-5.2-1.95-7.42-2.3-10.58,0-.07-.06-.49.29-.86l4.14-6.69c.32-.21.72-.83-3.56-3.15.51-.52.51-.4,1.17-.14l5.24,2.59c4.16,2.33,8.28,5.94,8.08,6.24-.47.69-3.41,7.75-4.06,8.53-.34.41-.26.89-.24.97.63,3.79,5.6,5.22,3.43,10.84-15.76,35.42-40.31,61.51-44.7,66.18Z"/>
    <path class="cls-4" d="m95.71,153.16c-.26.23-2.51,2.22-4.37.68l-2.96-2.01-2.95-2.03c-1.23-1.03-1.3-2.97-.34-3.95,18.49-17.65,35.56-43.2,44.79-64.24.15-.33,2.09-1.85,3.1-1.59,2.88.75,6.44,2.87,6.97,3.18.24.02.65,1.53.47,2.6-1.51,8.72-22.25,49.18-44.71,67.34Z"/>
    <path class="cls-8" d="m136.93,75.21c-.34.4-.52.79-.52.79l-8.58-5.29c0-.07-.6-.95-.25-1.32l3.43-4.99c.37-.56,1.83-1.22,3-.76,4.51,1.77,6.59,3.42,6.52,3.51l-3.59,8.06Z"/>
    <path class="cls-7" d="m92.18,57.06c.75-.49,1.58-.86,2.48-1.1,5.05-1.35,10.37,2.09,11.87,7.68,1.5,5.59-1.39,11.23-6.44,12.59-3.06.82-6.22-.12-8.57-2.24-.57.23-1.16.43-1.77.6-6.1,1.64-12.11-.96-13.4-5.79-1.29-4.83,2.61-10.08,8.71-11.71,2.5-.67,4.98-.63,7.12-.02Z"/>
    <path class="cls-3" d="m87.88,67.61c-.29-.88-.28-1.67-.48-1.85-.65-.6-1.02,2.35-.01,5.78.4,1.35,4.71,8.04,11.22,6.29,6.5-1.74,11.74-6.97,9.75-14.41-.78-3.08-5.47-7.33-5.73-6.16-.11.47,1.36,1.86,2.73,4.45,1.65,6.14-1.38,12.3-6.75,13.74-5.37,1.44-8.74-1.8-10.72-7.84Z"/>
    <path class="cls-5" d="m44.67,129.77c-3.25-1.44-5.56-5.04-5.5-9.02.02-1.27.28-2.45.74-3.49-.23-1.17-.14-2.52.07-3.95.54-3.65,2.65-7.54,7.28-8.22.42-.06.7.02.37.25-1.74,1.25-3.6,5.5-1.89,8.01.03.24.16.45.35.59.19.14.43.21.66.17,1.01-.13,2.48-.28,3-.23,1.19.12,2.32.52,3.33,1.15-.23-.02-.46-.03-.69-.03-5.29-.09-10.71.89-11.28,7.43-.27,3.11.85,5.78,3.57,7.35Z"/>
    <path class="cls-5" d="m56.2,92.56c-.35-.19-.69-.42-1.01-.67-3.82-2.96-4.27-8.8-1-13.02,3.27-4.23,9.03-5.25,12.85-2.29.73.56,1.33,1.23,1.81,1.96-4.56-3.36-10.16-2.79-13.31,1.29-2.88,3.72-2.83,9.1.66,12.73Z"/>
    <path class="cls-7" d="m135.78,130.89c.07.09.15.18.22.27,3,3.84,2.25,9.45-1.68,12.51-.12.09-.24.18-.36.27-.48,2.29-1.89,4.58-4.09,6.3-1.38,1.07-2.89,1.79-4.41,2.16-1.77,2.22-4.49,3.23-8.46,2.41-1.17-.24-4.72-1.77-7.67-2.65,1.76-1.28,3.71-2.8,5.73-4.56.33-2.07,1.32-4.44,3.24-7.04.23.26.31.33.36.38.06.06.1.12.14.17.38.51.79.98,1.2,1.4,1.78,1.81,3.65,2.7,3.6,2-.02-.26-1-.88-1.5-1.59-.47-.68-.86-1.33-1.17-1.94-1.95-3.84-.83-6.48,2.95-9.43,3.81-2.98,8.35-3.66,11.9-.67Z"/>
    <path class="cls-5" d="m133.65,146.23c-.83,1.92-2.68,3.59-4.91,5.04-1.31.85-2.93.91-3.89,1.84-3.18,3.08-7.58,2.06-10.93.48-.82-.39-1.18-.82.65-.55,2.43.35,5.84.15,7.46-.43.24-.08-3.64-2.15-2.63-2.26.63-.07,5.57,1.05,5.93.86,1.94-1,3.75-2.3,4.53-2.87.51-.37,1.12-1.35,1.5-1.73-3.42.87-6.72-.43-8.83-3.19-1.03-1.35-1.57-2.93-1.66-4.57.3.89.76,1.74,1.37,2.52,3,3.84,8.17,5.37,12.09,2.31,3.92-3.06,4.68-8.67,1.68-12.51-.1-.13-.21-.26-.32-.38.61.45,1.17.98,1.65,1.61,2.93,3.84,1.89,9.63-2.32,12.92-.44.34-.9.65-1.37.91Z"/>
    <path class="cls-3" d="m136.2,131.97c1.03,2.47,1.11,4.77.67,6.68-.37,1.6-1.29,3.21-3.4,3.74-4.66,1.16-12.92-1.11-13.85-7.61-2.47-17.1-5.59-24.87-5.59-24.87,0,0,13.86,6.31,19.35,16.36,1.42,2.6,2.29,4.43,2.82,5.7Zm-79.08-40.04c-1.61-2.14-2.26-4.34-2.3-6.31-.04-1.64.45-3.43,2.37-4.46,4.23-2.28,12.78-2.11,15.3,3.95,5.35,12.84,7.63,19.33,13.04,23.34,0,0-16.47-3.31-24.27-11.69-2.02-2.17-3.32-3.72-4.14-4.83Zm-8.69,38.1c-2.35-.69-4.02-1.95-5.13-3.36-.92-1.18-1.54-2.75-.7-4.56,1.85-3.98,8.2-8.53,13.36-5.47,10.93,6.47,16.15,9.98,22.3,9.95,0,0-13.86,6.58-24.16,4.71-2.67-.48-4.46-.91-5.67-1.27Zm57.71-67.14c.7,1.19,1.63,2.98,2.85,5.69,3.8,8.42,1.66,20.6.69,24.99-.05.2-.22.34-.43.35-.21,0-.39-.12-.45-.32-2.02-5.73-7.06-10.36-16-19.42-4.61-4.67-1.47-12.63,2.27-15.64,1.7-1.37,3.53-1.13,5.03-.47,1.8.8,4.69,2.51,6.05,4.82Z"/>
    <path class="cls-11" d="m134.19,131.45c.84,1.9,1.54,4.49,1.21,6.46-.2,1.19-.73,2.54-2.32,2.94-4.03,1.01-10.05-1.26-11.98-6.61-1.18-3.27-1.79-8.32-1.9-12.88,2.31,3.63,3.89,7.11,5.19,11.36-.97-5.69-5.56-14.33-8.06-19.77,3.02,1.2,11.96,7.33,15.65,14.09.98,1.79,1.69,3.26,2.21,4.42Zm-75-39.52c-1.29-1.63-2.6-3.97-2.77-5.96-.1-1.2.08-2.64,1.52-3.42,3.66-1.97,10.06-1.26,13.24,3.45,1.95,2.88,3.79,7.62,5.03,12.01-3.13-2.95-5.53-5.93-7.84-9.72,2.35,5.27,9.01,13.33,12.78,17.98-3.22-.42-13.48-4.96-18.74-10.6-1.39-1.49-2.44-2.74-3.23-3.74Zm-9.24,36.97c-1.83-.49-4.07-1.48-5.28-2.85-.73-.83-1.39-1.98-.76-3.33,1.6-3.44,6.67-6.42,11.58-4.71,3,1.04,6.93,3.5,10.25,6.04-3.91-.45-7.29-1.32-11.05-2.83,4.6,2.58,13.88,4.83,19.18,6.18-2.59,1.46-12.58,3.74-19.51,2.48-1.83-.33-3.29-.67-4.41-.97Zm54.28-64.36c.62,1.11,1.37,2.57,2.2,4.43,3.17,7.02,3.4,18.24,2.54,21.38-2.83-5.28-7.69-14.53-11.65-18.74,2.6,3.6,4.43,6.96,5.94,10.99-3.58-2.84-7.24-6.37-9.14-9.28-3.11-4.76-1.29-10.93,1.94-13.55,1.28-1.03,2.67-.64,3.74-.08,1.77.92,3.42,3.04,4.43,4.86Z"/>
    <path class="cls-9" d="m127.68,129.16c-1.56-.41-3.44-4.37-7.46-12.54,1.19.44,10.46,7.85,10.36,10.93-.06,1.75-1.21,2.05-2.9,1.6Zm-65.74-44.29c5.27,2.88.8,6.3,11.71,15.99-6.88-1.27-16.21-10.02-15.77-14.04.19-1.74-.31-4.34,4.06-1.95Zm-12.82,35.4c5.33-1.31.57,3.49,16.87,6.63-2.03,1.58-18.12.51-18.63-2.9-.24-1.58.16-3.33,1.76-3.73Zm46.36-56.05c-.51-4.96,2.71-3.33,4.14-2.32,2.53,1.77,8.33,14.13,8.94,26.91-4-12.14-12.46-18.61-13.08-24.59Z"/>
  </g>
  <path class="cls-5" d="m89.68,56.65c.9-.61,1.93-1.09,3.08-1.4,4.2-1.13,7.27,0,10.05,2.67-1.29-1.23-4.04-2.24-7.34-1.36-5.05,1.35-7.72,7.11-6.22,12.71.07.25.14.49.22.73-.93-.91-1.25-2.1-1.61-3.88-.2-.98-.77-4.32-.13-3.65-1.63-1.71-4.7-.79-8.03.66-2.87,1.24-3.2,3.5-2.67,7.17-.23-.62-.4-1.14-.5-1.53-1.65-6.14,1.55-9.52,6.97-11.13,2.21-.65,4.33-1.11,6.19-.99Z"/>
</svg>