<?xml version="1.0" encoding="UTF-8"?>
<svg id="Layer_1" data-name="Layer 1" xmlns="http://www.w3.org/2000/svg" width="200" height="200" viewBox="0 0 200 200">
  <defs>
    <style>
      .cls-1, .cls-2 {
        fill-rule: evenodd;
        stroke-width: 0px;
      }

      .cls-2 {
        fill: #f8ba53;
      }
    </style>
  </defs>
  <path class="cls-2" d="m85.47,47.97l1.03-.46,2.85-1.72c3.11-1.83,4.93-1.83,5.39-1.83,5.36,0,8.56,1.56,9.24,1.89l2.59,1.15c2.02.48,5.86-.16,6.36-.24l4-.91,3.35-.47c.63-.04,4.61-.31,7.82,1.44,4.51,2.47,7.46,9.57,7.86,10.54.96.34.61.64,11.01,6.41.22.12,1.44.8,1.55,2.74v.04c3.37.92,8.5,4.81,9.17,5.32.2.15,1.3.99.86,2.99l-.67,1.44c.37.34,2.03,1.87,3.59,5.18.1.2.62,1.32-.02,2.8l-.46.76c1.91,2.6,2.96,7.82,3.1,8.53.35,1.75-.54,2.71-.7,2.88-1.08,1.17-2.04.49-2.19.39l-.19-.12c2.07,3.52,2.84,10.34,2.94,11.26.2,1.77-.77,2.71-.95,2.88l-.68.46c.16.7.88,3.78,1.24,8.91.14,2.07-1.15,2.92-1.37,3.07-.09.06-.64.43-1.28.32l-.54.28-.23.71c.04.92.25,6.68-1.26,11.42l-.88,2.95.11-.19-.37.74-.48.68-.72.63-.83.39-.7.09-.62-.11-.5-.29-.06-.07-4.34,6.28c-7.67,9.5-21.36,12.35-24.09,12.68-.23.03-2.01.25-2.65-1.01-.66-1.28.86-2.14,1.03-2.24,2.29-1.3,5.04-3.71,5.45-4.07-3.55,1.31-6.27.83-6.81.74-.18-.03-1.58-.28-1.84-1.44-.26-1.18.94-1.89,1.1-1.99l2.15-1.46-2.35.71-2.22.23-.87-.08-.93-.25-.74-.37-.6-.52-.39-.59-.19-.6.11.35-1.34-2.81-.56-.65c-.84-.18-4.78-1.02-9.89-4.18h0c-.08-.05-.59-.37-1.16-.03l-1.47.77c-2.08.95-33.41,8.32-35.84,8.8-4.18.83-11.83-1.42-16.17-5.33-.45-.4-2.44-2.19-3.73-6.51-.15-.49-.95-3.17-1.15-6.35v-.26c0-.89.12-7.15,3.02-10.66l.53-.44c1.44-3.47,4.13-4.93,4.62-5.2.96-.52,1.87,0,2.01.08l1.59-1.61c1.38-1.14,2.74.02,2.92.17.19-.16,1.19-1.03,2.6-1.71.97-.47,1.9-.03,2.05.04l1.14-1.3c.17-.18,1.31-1.33,3.07-.22l.34.25c.31-.47,3.19-4.88,3.49-6.09.49-1.94,1.11-2.73,1.27-2.94-.26-.14-1.57-.85-2.9-2.25-.08,1.43-1.01,2-1.18,2.11-.18.11-1.27.78-2.66-.08l-2.18-1.75c-.04.18-.3,1.35-1.45,1.81-1.54.62-2.63-.58-2.79-.76-2.13-2.36-3.08-4.54-3.27-4.98l-.73.51c-1.37.59-2.34-.44-2.48-.59-2.26-2.42-3-5.35-3.12-5.86-1.25.15-1.88-.9-1.98-1.05-1.94-3.19-2.11-7.19-2.14-7.84l-1.69-5.65-.33-.11-.63-.48c-.97-.95-1.38-2.59-1.44-2.84-.07-.26-.46-1.83-.18-3.36.76-4.14,4-11.65,6.32-14.74.29-.38,2.32-3.09,4.58-3.85,5.62-1.88,17.32-3.72,21.1-3.06,8,1.4,7.82,1.63,11.64,1.76Z"/>
  <path class="cls-1" d="m145.92,71.84h.94c4.63-.82,8.84,2.07,9.49,2.51-2.58.54-2.6.26-4.76,1.64l-1.19,1.95c-.3-.52-2.1-3.62-4.48-6.1Zm-30.13-12.68c3.61-3,7.49-5.74,8.77-5.41,2.29,1.65,4.13,4.5,4.75,6.7,0,0-.44-8.35-6.81-9.21-3.93-.53-4.42,2.73-11.21,6.53-3.1,1.29-4.17,2.4-6.16,2.24-1.17-.1-1.9-.26-1.9-.26-8.11-3.37-14.41-4.2-21.24-3.79,7.28.05,14.18,2.69,20.83,5.97,4.82,6.54,8.15,8.61,15.72,8.34-6.98-.2-11.45-5.88-11.95-8.57,3.27,1.04,7.88-1.59,9.19-2.54Zm-54.6,14.61c-.15.74-1.3,6.27-.26,9.5.37-2.42,2.9-6.43,3.23-6.95-1.44-1.48-2.71-2.37-2.97-2.55Zm20.96,54.65l3.33-1.38c-2.09-2-4.24-4.82-4.58-5.26,0,.54.05,3.23,1.24,6.64Zm-32.15-.87c-.24.91.58,3.46,2.66,4.58-.39-5.25.17-8.44.3-9.16-.32.3-1.75,1.67-2.96,4.59Zm3.43,4.96l.31.11c.3.1,1.69.56,3.93.77-.24-.5-1.19-2.45-1.68-6.71-1.89,1.92-2.47,5.32-2.56,5.82Zm62.02-69.75c-1.68.69-3.38,1.13-3.38,1.13,0,0,.84,1.74,2.51,2.79.77.48,3.22,1.01,4.33.96,3.56-.15,5.28-3.1,4.63-5.95-.66-2.9-3.41-1.73-5.3-.49,0,.22-.01.5-.03.83-.1,1.77.75,4.77-.49,4.7-1.04-.06-2.05-2.23-2.28-3.97Zm-23.4,61.24l3.35-1.6c-2.45-1.89-4.01-3.52-4.33-3.85-.08,2.75.82,5.04.98,5.46Zm-40.97-53.69c-.25,3.58.26,6.04.37,6.56.15-.52.95-3.3,2.57-6.23-1.46-.35-2.7-.33-2.94-.32Zm91.72,27.49c-.07-.9-2.38-6.04-4.11-9.14-.67-1.19-2.78-15-3.12-15.22-.39-.26,1.34,13.92,1.72,15.69.48,2.18,1.25,5.14,1.57,6.98.46,2.64-1.12.43-4.31-1.63-3-1.94-10.27-2.14-14.51-2.87-7.07-1.23-6.45-2.37-12.31-6.43-1.89-1.31-6.68-.58-9.12.97,2.33-.48,6.56.04,7.95,1.14,5.79,4.57,5.26,5.13,9.47,6.89,6.11,2.54,14.47,3.51,15.76,3.66,4.17.48,9.08,4.07,9.77,4.58.19-.33,1.4-2.49,1.24-4.6Zm-95.06-26.6c.03.46.21,3.72,1.17,5.59.03-.51.23-4.28.88-6.38-.17-.03-2.09-.32-2.05.78Zm12.79-11.15c-.08.34.05.69.32.9.27.22.64.26.95.1,1.56-.69,3.56-1.66,3.56-1.66,1.34-.59,2.84-.67,4.25-1.07.09-.02.73-.28.93-.65,1.74-3.07-3.03-3.55-5.32-2.88-2.71.79-4.08,3.4-4.69,5.25Zm5.7,18.31c-.15.85-1.15,6.6,0,10.8,1.3-4.03,3.44-6.94,3.84-7.48l-3.83-3.33Zm11.53,51.8l3.21-1.26c-1.99-2.03-2.85-4.26-3.01-4.67-.81,1.9-.27,5.47-.19,5.94Zm17.33-4.34c-7.75,2.73-27.07,8.96-30.83,9.61-1.2.21-9.98,1.73-14.84-3.31-.91-.95-.98-2.72-.99-2.97-.19.52-1.48,4.14,2.47,6.51,2.47,1.49,10.62,3.1,18.85,1.06,1.93-.48,23.12-8.61,27.98-10.79,2.7-1.21,6.13-4.01,6.84-4.31,2.75-1.17,2.81-.48,10.31.22,10.36.97,17.17-5.06,18.84-10.03.86-2.58,5.65-5.53,6.24-5.89-6.43,3.5-6.51,3.38-7.06,4.06-.1.12-.02,0-2.49,4.57-1.5,2.77-8.13,6.94-17.53,4.56-3.32-.84-8.74.5-10.21,2.07-1.12,1.2-6.94,4.29-7.56,4.62Zm-8.5.72l3.69-1.71c-2.57-1.97-3.42-4.36-3.58-4.81-1.32,2.71-.27,6.03-.11,6.53Zm-7.64-38.97c-.22,5.63,1.91,8.54,2.35,9.15.02-.65.1-3.11,1.93-7.9l-2.28-.53-2-.71Zm16.5,1.73c1.29,3.97,3.05,5.73,3.45,6.13-.06-.54-.31-2.73-.05-6.76l-1.76.33-1.64.3Zm-8.65.07c.16.69,1.24,5.56,3.57,8.15-.26-2.4.96-7.3,1.12-7.92l-4.69-.23Zm-26.22,44.13l3.78-.21c-.19-.43-1.05-2.45-1.52-5.7-1.96,2.84-2.21,5.41-2.26,5.92Zm6.39-.55l3.65-.68-1.8-4.92c-1.14.72-1.79,5.14-1.86,5.61Zm4.93-.98l1.43-.36,2.18-.66c-.32-.35-1.85-2-2.76-5.2-1.15,2.43-.89,5.71-.84,6.21Zm.21-48.7c-.17.81-1.17,5.69.54,10.34.2-.64,1.14-3.69,3.54-7.51l-4.08-2.83Zm17.37,25.03c-.1-.33-.64-2.15-3.65-2.17-2.66-.02-11.05,5.25-13.53,8.32-.75.93-7.95,9.8-10.1,10.97l-3.64,2.36c3.25-.35,11-2.75,14.72-5.76,1.37-1.11,9.43-7.64,20.6-7.98.83-.03,6.21-.19,10.31-1.61,0-.43-.06-3.46-4.3-3.21-1.57.09-13.58.8-19.32,3.92-4.51,2.45-11.08,8.27-11.98,9.07.54-.9,4.52-7.57,8.48-10.08,3.89-2.47,11.39-3.64,12.41-3.8Zm-33.52-37.12c-.08.62-.5,3.86.09,7.88.17-.55.97-3.17,3.14-6.53l-3.23-1.35Zm54.84,45.22c-.16.03-.32.06-.49.08.14.08.31.04.49-.08Zm0,0c2.59-.44,3.73-.59,4.25-.55,3.76.26,5.74-5.4,4.88-10.56.98.64,3.3,5.84,1.19,9.96,5.29-.09,6.68-6.47,8.03-7.56.55-.45,6.88-3.63,7.48-3.93l-10.15-1.47c-.99-.16-10.67-1.76-12.2-2.89-.6-.45-4.45-3.29-8-4.92.52.93,5.13,9.46,6.38,11.9,1.71,3.33-.54,9.1-1.88,10.02ZM55.03,50.96c7.2-2.21,15.58-3.03,17.76-2.65l6.39,1.28,6.9,1.42c7.15,1.35,14.88-.15,16.15-.39-.94-.03-8.42-.25-11.69-.7l-3-.51c5.99-3.28,5.9-3.54,6.93-3.54,5.66.01,11.09,3.19,11.27,3.24,2.75.71,7.19-.07,7.8-.18,1.04-.18,10.57-1.84,13.23-.26,3.48,2.07,5.88,7.62,6.21,8.38l.57,2.48c8.92,13.95,8.57,13.99,17.68,27.84,2.87,9.38-2.95,15.89,4.27,19.1.97.43.02-10.31-.05-11.21-.79-8.92-3.28-13.96-3.84-15.08.67-.13,6.12-1.22,8.04,2.88l-3.5.71-.77,1.27c-.3.26.54,3.31.74,3.38,1.58.6,4.58-.86,6.01,5.91-2.56-2.1-5.12-.62-5.27,1.5-.02.22-.16,2.2.7,2.62,4.34,2.11,4.31,9.64,4.38,10.23l-2.13-1.9c-.18-.37-1.1-.62-1.52.32-.65,1.46-.03,2.98.06,3.21,2.09,5.17,2.75,4.88,3.14,10.58-.14-.3-1.22-2.58-3.02-2.76-.44-.03-.75.49-.79.56-.07.11.27,3.59.36,3.72,1.31,1.89-1.01,14.19-2.1,15.73-.77,1.69-1.26-3.79-1.68-5.91-1.1,3.33-2.52,7.01-6.79,13.8-7.1,8.55-19.87,11.5-22.35,11.85,4.75-2.79,13.85-11.06,16.03-18.53,4.36-14.98-2.49,14.6-17.96,11.87,5.82-3.45,6.42-7.86,5.72-8.78-.38,1.67-10.26,6.43-10.67,3.99-.19-.44-1.9-4.37-3.67-4.74-.77-.16-4.28-.91-9-3.84l-.58-.3c1.55-.11,4.22.26,4.59.31.85.12,17.07,3.7,25.71-2.55.34-.22,2.29-1.49,3.78-3.35,2.4-3.01,4.59-9.16,4.88-10-3.84,6.59-5.96,8.34-8.94,10.98-.32.29-1.9,1.69-4.49,3.05-6.45,1.71-18.89-.92-20.5-1.26-3.93-.83-6.74-.04-7.31.11-.47.4-3.28,2.75-6.59,4-1.85.7-1.79.49-13.2,3.66-1.49.36-12.18,2.93-18.65,4.19-3.5.68-9.99-1.38-13.83-4.84-3.5-3.15-4.03-9.92-4.1-10.84,0-.74.03-6.15,2.44-8.97l.24,1.69c.06-.65.43-4.73,4.47-6.86-.69,2.53-.31,4.82-.24,5.23.22-.62,1.76-4.97,4.26-6.97-.53,1.52-.16,1.48.16,4.31,1.15-3.71,4.52-5.31,5.07-5.57-.06.3-.6,3.05.17,3.87.82-2.69,3.33-5.18,3.71-5.56-.03.27-.24,2.22.47,3.31,1,.03,2.08-1.74,2.2-1.94,4.5-7.35,4.66-7.23,4.99-8.53.43-1.68,1.25-2.69,3.22-3.18,1.69-.42,2.46-1.9,2.5-2.24-3.45-1.89-3.65-4.5-3.69-4.99-.33.14-2.9,1.23-2.33,3.81-3.76-1.95-4.71-5.89-4.86-6.52-2.17,1.75-1.92,5.79-1.89,6.32-1.86-1.15-4.58-4.84-4.68-6.88-1.24,1.73-1.17,6.18-1.16,6.73-.64-.71-4.53-5-3.7-11.37-2.63,1.21-2.91,5.65-2.94,6.19-3.35-3.55-2.93-9.81-2.87-10.69-1.92.96-1.98,3.83-1.99,4.2-1.68-2.72-1.75-6.34-1.76-6.91l-2.26-7.51c-1.06.73-2.38-2.27-2.06-3.83l.06-.27c.17-.22,1.6-2.12,2.62-2.36,1.44-.33,8.04,1.55,8.73,1.74,4.02,1.14,16.1,11.26,17.51,12.08,5.64,3.28,18.34,4.69,15.32,3.92-11.72-2.96-22.68-12.47-22.93-12.69-1.63-1.88-3.35-3.75-7.2-5.44l-6.76-1.95c-3.03-.68-3.29-1.09-5.48,1.04-.08-1.02,2.89-6.28,3.18-6.8,1.27,2.06,2,1.29,1.99-3.25.16-1.49,3.8-3.07,4.19-3.24Zm90.86,15.69c-.62-.26-2.08,2.78-1.53,3.45-.59-.68-2.96-3.43-6.94-8.88,4.35,2.58,3.91,2.89,8.47,5.43Z"/>
</svg>