<?xml version="1.0" encoding="UTF-8"?>
<svg id="Layer_1" data-name="Layer 1" xmlns="http://www.w3.org/2000/svg" width="200" height="200" viewBox="0 0 200 200">
  <defs>
    <style>
      .cls-1 {
        fill: #fff;
      }

      .cls-1, .cls-2 {
        fill-rule: evenodd;
        stroke-width: 0px;
      }

      .cls-2 {
        fill: #5f020f;
      }
    </style>
  </defs>
  <path class="cls-1" d="m137.3,121.58c.22-.22.43-.45.65-.7,1.31-1.49,2.57-3.51,3.81-5.92.57-1.11,1.76-1.75,3-1.61,1.24.14,2.26,1.02,2.57,2.23,0,0,4.5,16.8-8.21,34.46-5.29,7.34-16.75,11.44-25.73,13.98-1.38.39-2.84-.25-3.49-1.52-.19-.37-2.75-1.04-4.9-.49-1.82.46-3.09,2.15-5,2-3.58-.27-3.78-2.17-5-2-1.48.21-2.89,1.63-4.39,1.51-15.17-1.22-25.87-6.98-32.13-15.44-6.3-8.52-8.17-19.89-5.24-32.59.34-1.48,1.74-2.48,3.25-2.31,1.51.17,2.66,1.44,2.67,2.97.02,3.41,1.1,7.42,3.91,9.67-4.39-10.39-3.65-15.97-2.22-20.87.97-3.32,2.45-6.27,2.58-10.65.04-1.33.32-2.84.5-4.51.32-3.02.17-6.72-3.95-10.84-.93-.93-1.15-2.37-.52-3.54.62-1.17,1.94-1.79,3.23-1.53,5.58,1.12,10.2,3.23,13.63,6.86.51.54.99,1.11,1.45,1.72,1.09-6.07,2.91-9.4,4.75-13.09,2.7-5.4,5.41-11.68,5.67-30.53.02-1.22.77-2.3,1.9-2.75,1.13-.45,2.42-.17,3.26.71,22.03,22.91,29.12,35.35,27.97,48.19,1.38-.76,2.69-1.62,3.85-2.62,2.15-1.87,3.69-4.29,3.69-7.66,0-1.29.82-2.43,2.04-2.84,1.22-.41,2.56,0,3.35,1.02,13.63,17.82,7.46,30.4,3.26,39.83-.53,1.18-.63,2.83-.61,4.49.02,1.53.19,3.08.41,4.38Z"/>
  <path class="cls-2" d="m108.71,152.21c-1.81,3.82-7.88,8.34-8.87,8.45-2.27-1.79-7.57-6.82-6.87-14.35.89-9.55,11.8-17.7,11.8-17.7,0,0-3.41,5-1.31,9.83,2.1,4.83,8.2,7.55,5.24,13.77Zm-17.85,8.31c-28.22-2.28-40.11-20.89-34.69-44.37.04,6.56,3.46,14.55,12.49,14.42-11.58-22.19-2.56-24.5-2.22-36.2.12-4.19,2.88-10.35-4.33-17.56,9.83,1.97,16.39,7.21,17.67,20.32-.19-32.13,10.9-18.96,11.42-58.27,24.2,25.17,30.01,36.79,26.14,51.31,6.78-2.9,14.52-6.78,14.52-15.49,12.59,16.46,6.78,28.08,2.9,36.79-2.11,4.75.19,15.17.97,14.52,3.09-.83,5.97-4.35,8.71-9.68,0,0,4.05,15.56-7.75,31.95-4.93,6.85-15.74,10.47-24.12,12.85,14.73-11.58,12.24-30.48,12.24-30.48-5.74,5.74-9.57,5.55-12.3,4.92,0,0,4.92-5.74,4.1-15.58-.6-7.17-5.74-10.66-5.74-10.66,1.21,3.43-4.1,8.2-7.38,9.02,0,0,.42-8.38-.32-14.56-.61-5.1-7.8-11.66-7.8-11.66,0,0,1.79,3.41,1.72,7.77-.07,4.36-3.04,5.06-6.97,10.2s-.3,10.84-.52,14.58c-.17,2.88-3.59,9.22-3.71,7.77-.27-3.4.03-4.53-2.59-10.2-1.37-2.96-4.23-4.37-4.23-4.37,0,0,2.18,7.69.96,12.15-1.22,4.46-1.48,9.43,1.48,15.41,1.96,3.96,4.11,13.15,9.33,15.09Z"/>
</svg>