<?xml version="1.0" encoding="UTF-8"?>
<svg id="Layer_1" data-name="Layer 1" xmlns="http://www.w3.org/2000/svg" width="200" height="200" viewBox="0 0 200 200">
  <defs>
    <style>
      .cls-1 {
        fill: #101010;
      }

      .cls-1, .cls-2 {
        fill-rule: evenodd;
        stroke-width: 0px;
      }

      .cls-2 {
        fill: #fff;
      }
    </style>
  </defs>
  <path class="cls-2" d="m58.3,90.75c.64-1.02,1.77-1.69,3.06-1.69h2.88c1.18,0,2.22.57,2.88,1.44.66-.87,1.7-1.44,2.88-1.44h2.88c1.4,0,2.61.8,3.21,1.96l.65-7.64c.02-.23.06-.46.12-.68-.37-.22-.7-.51-.98-.85l-3.26-4.08c-.44-.55-.71-1.21-.77-1.91l-1.63-17.13c-.1-1.01.24-2.01.92-2.76.68-.75,1.65-1.18,2.66-1.18h5.93c1.9,0,3.47,1.47,3.59,3.36l.37,5.61h2.82v-5.37c0-1.99,1.61-3.6,3.6-3.6h4.89c1.99,0,3.6,1.61,3.6,3.6v5.37h2.59v-5.37c0-1.99,1.61-3.6,3.6-3.6h4.89c1.99,0,3.6,1.61,3.6,3.6v5.37h2.82l.37-5.61c.13-1.89,1.7-3.36,3.59-3.36h5.93c1.01,0,1.98.43,2.66,1.18.68.75,1.02,1.75.92,2.76l-1.63,17.13c-.07.69-.33,1.35-.76,1.89l-3.23,4.08c-.28.36-.63.65-1.01.88.06.21.1.43.12.66l.68,8.05c.5-1.38,1.83-2.37,3.38-2.37h2.88c1.18,0,2.22.57,2.88,1.44.66-.87,1.7-1.44,2.88-1.44h2.88c1.29,0,2.42.68,3.06,1.69.64-1.02,1.77-1.69,3.06-1.69h3.49c1.01,0,1.98.43,2.66,1.18.68.75,1.02,1.75.92,2.76l-.96,10.08c-.08.87-.48,1.69-1.12,2.29l-1.98,1.85,3.1,34.06c.09,1.01-.24,2.01-.93,2.75-.68.75-1.65,1.17-2.66,1.17h-19c-.72,0-1.39-.21-1.95-.58-.58.37-1.25.58-1.95.58h-14.68c-1.99,0-3.6-1.61-3.6-3.6v-16.32c0-1.64-.65-3.22-1.81-4.38-1.16-1.16-2.74-1.81-4.38-1.81s-3.22.65-4.38,1.81c-1.16,1.16-1.81,2.74-1.81,4.38v16.32c0,1.99-1.61,3.6-3.6,3.6h-14.68c-.66,0-1.29-.18-1.85-.51-.54.32-1.17.51-1.85.51h-19c-1.01,0-1.98-.43-2.66-1.17-.68-.75-1.02-1.75-.93-2.75l3.1-34.06-1.98-1.85c-.64-.6-1.04-1.41-1.12-2.29l-.96-10.08c-.1-1.01.24-2.01.92-2.76.68-.75,1.65-1.18,2.66-1.18h3.49c1.28,0,2.42.67,3.06,1.69Z"/>
  <path class="cls-1" d="m124.37,75.52l-3.23,4.08h-42.45l-3.26-4.08-1.63-17.13h5.93l.6,8.97h9.79v-8.97h4.89v8.97h9.79v-8.97h4.89v8.97h9.79l.6-8.97h5.93l-1.63,17.13Zm-24.47,16.32c-2.25,0-4.08,1.55-4.08,3.47v10.4h8.16v-10.4c0-1.92-1.83-3.47-4.08-3.47Zm-9.79,49.77h-14.68l4.9-57.92h39.16l4.89,57.92h-14.68v-16.32c0-2.6-1.03-5.09-2.87-6.92-1.84-1.84-4.33-2.87-6.92-2.87s-5.09,1.03-6.92,2.87c-1.84,1.84-2.87,4.33-2.87,6.92v16.32Zm34.26-43.67h2.76v-5.28h2.88v5.28h5.76v-5.28h2.88v5.28h5.76l.35-5.28h3.49l-.96,10.08-2.3,2.16-20.03.02-.58-6.98Zm3.91,43.67l-2.88-34.26h18.76l3.12,34.26h-19Zm-52.64-43.67l-.58,6.98-20.02-.02-2.3-2.16-.96-10.08h3.49l.35,5.28h5.76v-5.28h2.88v5.28h5.76v-5.28h2.88v5.28h2.76Zm-3.91,43.67h-19l3.12-34.26h18.76l-2.88,34.26Z"/>
</svg>