<?xml version="1.0" encoding="UTF-8"?>
<svg id="Layer_1" data-name="Layer 1" xmlns="http://www.w3.org/2000/svg" width="200" height="200" viewBox="0 0 200 200">
  <defs>
    <style>
      .cls-1 {
        fill: #1f67ce;
      }

      .cls-1, .cls-2 {
        fill-rule: evenodd;
        stroke-width: 0px;
      }

      .cls-2 {
        fill: #fff;
      }
    </style>
  </defs>
  <path class="cls-2" d="m100,149.28c-21.82,0-41.13-7.79-53.13-19.57-8.47-8.32-13.37-18.62-13.37-29.71s4.9-21.4,13.37-29.71c12-11.78,31.31-19.57,53.13-19.57s41.13,7.79,53.13,19.57c8.47,8.32,13.37,18.62,13.37,29.71s-4.9,21.4-13.37,29.71c-12,11.78-31.31,19.57-53.13,19.57Z"/>
  <path class="cls-1" d="m127.02,98.98c-.12-7.64-1.54-14.79-3.95-20.94-6.33,1.93-13.48,3.09-21.07,3.27v17.67h25.02Zm-3.89,22.83c2.17-5.58,3.52-11.99,3.83-18.83h-24.96v15.55c7.62.18,14.79,1.35,21.13,3.28Zm-21.13,20.35c5.09-.59,9.76-3.41,13.65-7.77,2.24-2.51,4.22-5.51,5.88-8.91-5.88-1.74-12.5-2.79-19.53-2.96v19.63Zm-23.53-16.68c1.66,3.4,3.64,6.4,5.88,8.91,3.89,4.35,8.56,7.17,13.65,7.77v-19.63c-7.03.17-13.65,1.21-19.53,2.96Zm-5.44-22.5c.31,6.84,1.66,13.25,3.83,18.83,6.34-1.94,13.51-3.11,21.13-3.28v-15.55h-24.96Zm3.89-24.94c-2.41,6.14-3.83,13.3-3.95,20.94h25.02v-17.67c-7.59-.17-14.74-1.34-21.07-3.27Zm21.07-20.21c-5.09.59-9.76,3.41-13.65,7.77-2.21,2.47-4.17,5.43-5.81,8.77,5.86,1.73,12.46,2.77,19.46,2.94v-19.48Zm23.46,16.54c-1.64-3.34-3.6-6.3-5.81-8.77-3.89-4.35-8.56-7.17-13.65-7.77v19.48c7-.17,13.6-1.21,19.46-2.94Zm10.73-4.39c-4.52-4.15-9.97-7.42-16.03-9.54.85.77,1.67,1.6,2.47,2.49,2.54,2.84,4.79,6.28,6.65,10.18,2.48-.92,4.8-1.96,6.91-3.13Zm13.52,29c-.25-9.91-4.2-18.97-10.6-26.06-2.49,1.44-5.26,2.74-8.25,3.85,2.54,6.54,4.05,14.12,4.16,22.21h14.69Zm-10.51,27.99c5.93-6.6,9.73-14.9,10.41-23.99h-14.65c-.31,7.3-1.75,14.13-4.05,20.11,3.01,1.12,5.79,2.43,8.29,3.88Zm-19.04,12.58c6.11-2.14,11.6-5.45,16.14-9.64-2.13-1.18-4.46-2.24-6.96-3.16-1.87,3.95-4.14,7.43-6.71,10.31-.8.89-1.62,1.72-2.47,2.49Zm-48.46-9.64c4.54,4.19,10.03,7.51,16.14,9.64-.85-.77-1.67-1.6-2.47-2.49-2.57-2.88-4.84-6.36-6.71-10.31-2.5.92-4.83,1.98-6.96,3.16Zm-13.31-26.93c.69,9.1,4.48,17.39,10.41,23.99,2.5-1.46,5.28-2.76,8.29-3.88-2.3-5.98-3.74-12.81-4.05-20.11h-14.65Zm10.5-30.06c-6.41,7.09-10.35,16.15-10.6,26.06h14.69c.12-8.09,1.62-15.67,4.16-22.21-2.99-1.11-5.76-2.41-8.25-3.85Zm18.95-12.48c-6.06,2.12-11.51,5.4-16.03,9.54,2.12,1.16,4.43,2.21,6.91,3.13,1.86-3.89,4.11-7.33,6.65-10.18.8-.89,1.62-1.72,2.47-2.49Zm53.14,6.47c-1.8-1.02-3.69-1.97-5.65-2.84,1.54,1.17,3.01,2.42,4.39,3.75.43-.3.85-.6,1.26-.91Zm22.5,32.08c-.3-8.86-4.46-17.02-11.26-23.7-2.26-2.22-4.81-4.28-7.62-6.15-.67.55-1.37,1.08-2.1,1.6,6.79,7.74,10.95,17.55,11.2,28.24h9.77Zm-18.77,31.81c2.76-1.85,5.28-3.88,7.51-6.08,6.3-6.18,10.33-13.64,11.13-21.73h-9.73c-.68,9.88-4.7,18.94-11.03,26.18.74.53,1.44,1.07,2.12,1.63Zm-9.38,5.14c2-.89,3.93-1.86,5.77-2.9-.42-.32-.84-.63-1.28-.93-1.41,1.36-2.91,2.64-4.48,3.84Zm-68.43-2.9c1.84,1.05,3.76,2.02,5.77,2.9-1.58-1.19-3.07-2.48-4.48-3.84-.44.31-.87.62-1.28.93Zm-22.26-30.04c.8,8.1,4.83,15.55,11.13,21.73,2.23,2.19,4.75,4.23,7.51,6.08.67-.56,1.38-1.1,2.12-1.63-6.33-7.24-10.35-16.3-11.03-26.18h-9.73Zm18.74-33.85c-2.8,1.87-5.35,3.92-7.62,6.15-6.8,6.68-10.96,14.84-11.26,23.7h9.77c.25-10.69,4.41-20.51,11.2-28.24-.73-.52-1.43-1.05-2.1-1.6Zm9.28-5.07c-1.96.87-3.85,1.82-5.65,2.84.41.31.83.61,1.26.91,1.38-1.33,2.85-2.58,4.39-3.75Zm31.33,82.21c-20.95,0-39.51-7.4-51.03-18.71-7.87-7.72-12.47-17.27-12.47-27.57s4.61-19.85,12.47-27.57c11.52-11.31,30.08-18.71,51.03-18.71s39.51,7.4,51.03,18.71c7.86,7.72,12.47,17.27,12.47,27.57s-4.61,19.85-12.47,27.57c-11.52,11.31-30.08,18.71-51.03,18.71Z"/>
</svg>