<?xml version="1.0" encoding="UTF-8"?>
<svg id="Layer_1" data-name="Layer 1" xmlns="http://www.w3.org/2000/svg" width="200" height="200" viewBox="0 0 200 200">
  <defs>
    <style>
      .cls-1 {
        fill: #ba2d27;
      }

      .cls-1, .cls-2, .cls-3, .cls-4, .cls-5, .cls-6, .cls-7, .cls-8 {
        fill-rule: evenodd;
        stroke-width: 0px;
      }

      .cls-3 {
        fill: #25303d;
      }

      .cls-4 {
        fill: #47110f;
      }

      .cls-5 {
        fill: #fff;
      }

      .cls-6 {
        fill: #475c75;
      }

      .cls-7 {
        fill: #f5f0e4;
      }

      .cls-8 {
        fill: #727272;
      }
    </style>
  </defs>
  <path class="cls-2" d="m71.83,147.85c-4.66-.77-9.41-1.75-10.89-2.46-3.45-1.67-5.72-5.19-6.11-5.79l-.02-.02c-.28-.4-2.09-3.04-.46-6.99.69-1.67,1.24-7.5,1.64-7.19.79.6.26,1.06,1.08,1.72.09.08.61.49,1.35.51l.6-.58c.19-.51-.44-.54.55-6.83.07-.44,2.84,3.17,3.07,3.32l.3-.29c1.71-2.12,1.32-6.43,1.7-5.81.14.23.92,1.49,2.68,1.33l2.54-2.46-3.91-4.66c-1.73-.38-3.63,3.85-3.83,2.77-.29-1.53-.21-4.73-.92-5.57h-.13c-1.65-1.35-3.16,2.52-3.32,1.65-.11-.6-1.12-6.33-1.67-7.32-.22-.34-2.63,2.18-2.71,2.17-.42-.07-.94-5.91-1.55-7.17-1.37,1.24-1.35,2.19-2.13,1.22-.14-.17-1.43-4.56-1.49-5.17-.43-3.89-.92-3.78-.16-6.23,0,0-6.84-21.56-2.39-30.89.68-1.43.46-1.94,3.95-4.75.14-.11.84-.68,1.91-.74.36-.02,1.56-.08,4.35,1.05.19.08,14.23,4.12,21.02,4.83l.12.02c5.55.82,34.54,3.5,52.26,16.54,2.35-1.69,8.81-6.1,13.22-6.72l4.88-.66h.03c.28-.02,3.05-.17,2.96,2.05-.03.74-2.58,7.94-2.54,10.67.02,1.48.42,2.89.56,4.36.04.43.05.88-.01,1.32-.29,1.84-1.79.68-1.91,2.6-.18,2.89-.19,5.86-.15,8.26,2.2,4.92,4.08,10.79,5.17,17.7l2.34-1.29c3.51-2.41,5.99-.87,6.43-.59.52.19.7.86.73.96.03.11.2.77-.09,1.46-.3.39-2,2.57-3,5.68-.07.21-.66,2.05-.66,2.67,0,.23,0,1.92-.46,2.9-1.44,1.62-2.7,5.65-2.87,6.18-.9,2.9,1.5,5.3,1.79,5.59-.15,2.09-3.04,1.66-3.31,1.62-1.37-.21-2.86-1.72-3.07-1.94-1.88-1.91-1.82-6.19-4.82-3.65-.38.32-.82.67-1.28,1.02,2.29,1.08,5.78,3.57,7.88,8.91.14.36,1.6,4.08,1.23,4.72-.1.16-.71,1.23-1.78,1.5-.25.06-2.2-.05-2.71-.2-1.86-.39-5.51-3.02-11.73-5.45-4.23-1.66-4.9-1.93-5.14-2.01-9.06,4.3-16.6,5.46-18.41,5.75-2.14.34-15.36,2.46-26.71,1.14-.15.59-.72.85-.81.89l-5.22,2.35c-3.22,1.42-8.68,4.72-9.42,5.17-1,.6-1.94-.1-2.08-.2-.12-.09-1.09-.81-.53-1.79l4.08-7.17Z"/>
  <path class="cls-6" d="m129.28,139.38c-5.4,2.52-11.28,4.6-16.86,5.52-12.6,2.08-30.35,1.91-35.35,1.23-1.24-.15-11.61-1.44-15.27-3.24-.34-.17-1.91-.94-3.7-3.1,2.81,1.52,9.75,2.46,13.89,1.6,8.46-1.77,16.32-7.64,17.59-8.58,5.66-4.23,7.65-12.56,7.94-13.81l2.23-2.13c1.02,3.44-2.37,16.84-2.73,18.27.73-1.29,6.72-11.83,7.21-17.2.06-.7-.24-.46-.14-8.73.05-3.95-7.29-15.01-8.09-16.21-3.41-5.14,4.82,13.4,1.99,7.51-2.08-4.34-21.3-14.73-32.35-17.34-1.32-.31-7.7,1.29-8.29,1.19-.58-.1-5.7-.97-7.28,1.44l-.03.06c0-.89-9.72-27.62,1.79-32.61,1.61-.12,16.01,5.89,24.19,6.72,1.14.17,35.33,3.17,53.18,17.6,3.12,2.52,21.85,17.66,20.77,46.87-.06,1.71-4.7,5.82-11.42,9.95,1.16.27,2.7.86,4.74,2.02,4.5,2.56,7.01,9.49,6.3,10.71-.9,1.54-3.76-1.77-4-2.05-.99-1.15-1.23-.94-16.32-5.7Z"/>
  <path class="cls-3" d="m128.05,130.79c1.44-1.23,3.59-4.15,4.87-8.05,7.33-26.34-1.43-40.78-8.6-48.61,1.73,1.07,3.37,2.22,4.89,3.44,3.12,2.52,21.85,17.66,20.77,46.87-.07,2.05-6.67,7.51-15.56,12.34-.51.18-2,1.26-3.09,1.48-.84.1-3.27-1.62-3.99-2.08.05-.05.1-.11.15-.16,2.53-2.97,2.04-4.86.67-5.18-.11-.02-.12-.03-.1-.05Zm1.92-55.56c.9-.62,7.64-5.22,11.99-5.82l4.3-.57c.51-.03,1.6.29,1.63.35.03.05.23.39.09.79l-2.81,6.38c-.32.8.76,8.19.67,8.75-.1.64-7.35.1-11.12-6.17-.12-.21.8-5,8.4-8.14-1.93-.08-9.5,4.19-11.46,5.72l-1.71-1.31Zm20.49,50.45c-.14.81.17,1.5,2.18.64,2.46-1.05-1.28.97-.93,3.74.18,1.42-.04,2.88.02,4.31,0,.12.04.87.6,1.4.12.12,1.13,1.09,1.8,1.18-.35.04-2.35.25-3.82-2.07l-.72-1.44c-1-1.34-.7-4.07-.29-4.65.27-.39.79-1.65,1.16-3.1Zm0,0c.02-.13.06-.27.1-.4-.03.14-.07.27-.1.4Zm.1-.4c.2-.86.34-1.76.36-2.57l.09-3.23c.04-.51.32-3.87,3.22-5.42,2.18-1.16,4.45-.99,5.03-.8-.3.51-2.98,4.98-2.94,6.81.05,1.91-.63,2.17-1.9,2.68-3.14,1.26-3.23,1.13-3.43,1.51-.04.07-.28.52-.44,1.02Z"/>
  <path class="cls-4" d="m93.3,112.69c-.33.39-1.22-2.88-6.17,1.64-3.07,2.79-6.98,4.5-10.42,6.82-1.51,1.02-3.54,1.62-4.42,3.21-.7-.63,11.33-9.72,10.72-9.71-5.89.15-13.58,8.58-14.52,9.61l-5.87,6.11,1.31,3.04,3.03-2.69,2.72,1.48,1.56-3.5,3.08,1.29,2.01-5.09,3.57,1.47,1.87-4.54,4.21.45,1.95-5.11,4.33.44,2.23-3.24c3.29-.58-1.05-1.65-1.21-1.69Z"/>
  <path class="cls-3" d="m74.01,147.62c-4.75,6.6-5.12,6.39-5.22,7.82-.03.41.55.4.6.4.49-.51,4.06-4.23,6.82-5.43,1.64-.72,2.91.83,2.77-1.13-.07-1.04-2.05-1.48-2.26-1.53-1.45-.85-2.52-.23-2.71-.12Z"/>
  <path class="cls-8" d="m129.66,136.77l1.4,1.76c-5.87,2.89-12.43,5.35-18.64,6.37-12.6,2.08-30.35,1.91-35.35,1.23-1.24-.15-11.61-1.44-15.27-3.24-.34-.17-1.91-.94-3.7-3.1,2.81,1.52,9.75,2.46,13.89,1.6,8.46-1.77,16.32-7.64,17.59-8.58,5.66-4.23,7.65-12.56,7.94-13.81l2.23-2.13c1.02,3.44-2.37,16.84-2.73,18.27.73-1.29,6.72-11.83,7.21-17.2.06-.7-.24-.46-.14-8.73.04-3.76-7.45-15.7-8.79-17.73.12.07.22.13.29.17,2.14,1.23,11.18,6.73,9.55,12.26-1.17,3.97,4.35,19.74,11.85,23.36,6.83,3.3,8.74,9.96,12.68,9.49Zm-35.29-45.82c.65,2.61,5.78,14.04,3.62,9.56-2.08-4.34-21.3-14.73-32.35-17.34-1.32-.31-7.7,1.29-8.29,1.19-.58-.1-5.7-.97-7.28,1.44l-.03.06c0-.67-5.44-15.8-3.36-25.47.38-.13.9-.38,1.19-.55,2.46-2.57,8.1,5.51,8.71,6.48,2.01,3.18,20.79,14.03,22.52,15.77,2.81,2.82,11.65,6.78,15.25,8.86Z"/>
  <path class="cls-7" d="m50.41,88.12c.13.4.86,1.56.79,3.75-.03,1.07-.62,3.49-.84,4.05-2.45-2.04-.08-7.18.05-7.8Zm45.91,14.18c-.61.48-.6.41-6.05,3.3.66-2.41.61-2.31.82-4.71.61-2.52,4.6-1,5.23,1.42Zm-10.48-7.14c1.23-.52,4.96,1.33,4.65,2.98-1.38,1.12-4.09,4.24-5.22,4.99.24-4.03.12-3.95.56-7.98Zm-7.51-3.79c1.55-.61,6.42,1.37,6.09,3.41-3.13,2.27-4.89,5.15-6.39,6.03-.04-4.74-.53-4.63.3-9.44Zm-8-3.56c1.31-1.83,7.08.46,7.01,2.34-.57.49-5.25,4.52-5.96,6.94-.03-.75-.22-5.56-1.05-9.28Zm-14.33-.78c1.43-1.8,5.8-2.06,5.64.16-2.02,3.28-2.01,6.63-2.11,7.89-3.26-7.47-3.27-7.39-3.52-8.05Zm6.09.02c1.42-1.9,3.86-1.76,4.22-1.74.3.02,2.95.17,2.96,2.39-1.1,1.05-3.44,3.59-3.09,7.91-1.45-1.5-3.18-6.72-4.09-8.56Zm-10.81.69c.33-1.1,3.3-2.47,3.84-1.91l.19,7.15-4.03-5.24Zm42.78,35.63c-.68,2.66-4.1,5.1-4.56,2.69-.09-1.59.27-4.51-.05-6.02,1.68,1.76,3.92,3.18,4.61,3.33Zm-10.07,8.94c.05-1.46-.89-6.46-1.03-8.33,1.87,2.35,3.31,3.51,5.66,4.74.22,1.82-3.45,4.09-4.63,3.59Zm-6.19,4.5c-.45-4.6-.07-4.47-.51-8.98,1.19,1.3,3.33,4.63,5.01,5.54.27,1.84-3.4,4-4.5,3.44Zm-6.36,2.35c-.55-2.74.25-7.09.36-7.69.54,1.5,1.69,3.48,3.86,5.09.78,2-2.28,3.85-4.22,2.6Zm-5.76.86c.22-3.71,1.39-6.92,1.59-7.47.23,1.37.63,4.17,2.33,6.75-.02,1.33-2.99,1.42-3.92.72Zm-6.29-1.35c.44-.95,1.61-5.17,2-6.14.14.98.45,4.14,2.3,6.66-.07,1.17-3.31.38-4.3-.53Zm-.91-1.32c-.34.68-2.48-.83-2.62-1.88.28-2.55,1.79-5.22,1.99-5.57.02.61.19,5.32.64,7.45Zm68.11-1.09c-.83.45-3.04,2.2-4.15,2.6-9.75,3.52-28.31,4.89-23.7-.07-.59.4-2.9,1.97-8.09,3.36-1.51.4-11.64,3.12-19.33,1.17-.44-.12-3.19-.86-5.29-1.69,2.15.16,4.29.11,5.98-.24,8.46-1.77,16.32-7.64,17.59-8.58,5.66-4.23,7.65-12.56,7.94-13.81l2.23-2.13c1.02,3.44-2.37,16.84-2.73,18.27.73-1.29,6.72-11.83,7.21-17.2.06-.7-.24-.46-.14-8.73.05-3.95-7.29-15.01-8.09-16.21-3.41-5.14,4.82,13.4,1.99,7.51-.72-1.49-3.45-3.69-7.18-6.05-11.11-7.81-18.92-12.43-21.91-13.04-2.82-.82-10.21-1.59-10.24-1.65-.78-1.57,8.92-3.49,12.98-1.86-4.14-4.49-11.68-4.06-12.75-4-1.43.45-6.04,2.98-6.55,3.26-.18.1,1.06-2.28,5.28-5.16-3.25-4.68-9.13-11.73-8.94-12.68,1.84-.41,14.82,2.94,18.14,6.4.31.32,2.7,3.15,4.85,2.64.96-.23,2.78-.71,3.7,1.31l-2.79,2.12c-3.07,1.16,23.81,9.22,25.48,10.84,2.75,2.66-.83,1.83-5.64,3.17,2.48,1.2,2.22,1.59,8.91,4.32,7.93,3.23,13.13,11.63,14.43,15.84,1.47,4.73-2.44,11.88-2.51,12.07-1.12,3.21,6.28.79,4.25,7.61,4.2-3.03,4.73-2.36,5.94-2.97-1,5.07-1.19,5.37-.78,5.33,2.68-1.38,4.43-1.48,4.7-1.57l-.79,4.63c1.81-.82,3.45.29,2.36,2.77.83.22,1.81.86,1.96.95.42.27.44,2.03,5,3.05.61.26,8.87,4.84,10.17,5.66,1.78,1.13,3.69,3.42,3.97,3.76,1.51,1.81-2.96-.38-3.22-.54-3.54-2.23-11.78-5.46-12.65-5.8-3.83-1.26-6.67-1.76-8.53-1.52-.26-.45-.2-1.91.95-3.12Z"/>
  <path class="cls-2" d="m70.83,72.82c-.14.04-.29.03-.41-.05-.29-.2-.74-.59-.57-1.2.04-.13.12-.23.24-.29.4-.26,1.91-1.05,1.91-1.05.12-.21,1.33-2.24,2.12-2.06,1.49.35,1.73,1.62,1.05,2.46-.86,1.07-3.57,1.95-4.34,2.18Zm41.13,1.64c-.42-.17-4.54-1.79-5.66-.41-2.54,3.17,6.93,1.38,4.03,4.06-.1.09-6.52-1.55-6.93-.97-.83,1.17,1.19,3.83,2.59,4.52-.46-.05-3.73-.38-5.44-1.86-.37-.32-.42-.12-5.47-2.74-2.85-1.49-4.7-5.92-5.92-6.7-3.78-2.41-9.42-3.88-10.77-4.05,2.01.12,9.68,1.19,10.28,1.37l2.78,1.45c.16.09,3.3.79,4.78.92,5.19.44,5.08-.39,10.23.13,3,.3,11.25,4.7,17.99,9.64l-12.49-5.37Zm22.35,33.56c-.16,3.02-1.32,14.14-4.74,19.8-.61,1.01-3.8,6.31-10.02,7.66.43-.24,6.01-3.59,9.06-9.38,1.48-2.8,4.49-11.68,5.69-18.09Zm-3.58-9.53c.49,1.79,2.16,11.3-2.28,22.23-.64,1.57-3.94,9.68-13.04,12.62,5.75-3.49,10.61-12.26,11.35-13.6,2.97-5.36,4.3-15.33,3.97-21.25Zm-4.57-9.19c.61,2.15,3.23,14.83-2.24,28.08-.8,1.95-4.9,11.88-16.18,15.8,8.71-4.43,13.84-15.52,14.69-17.34,4.38-9.44,4.2-22.18,3.73-26.54Zm-53.84,56.15c4.77.97,8.97.24,9.74.11,5.48-.95,14.21-5.06,15.4-5.63l-11.38,6.27c-1.42.7-3.18,1.09-4.59,1.31-1.44.22-2.92.08-4.3-.39-2-.68-4.88-1.67-4.88-1.67Z"/>
  <path class="cls-1" d="m100.49,72.69c-1.44-.6-4.53-.31-4.91-.28-.23.49-.01,1.75,1.13,2.35,2.07,1.1,3.63-.16,3.77-1.11v-.97Zm-7.82-1.2c.37.1,2.32.62,4.68.7l6.61-.39c-.14.41-1.21,3.54-3.69,3.94-.52.08-4.12.66-6.29-2.06-.13-.16-1.27-1.58-1.3-2.18Z"/>
  <path class="cls-5" d="m96.7,72.35c.78,0,.83-.03,1.12.87.05.14.44,1.35-.73,1.35-1.16,0-1.54-1.2-1.59-1.34-.28-.87,1.06-.88,1.19-.88Z"/>
</svg>