<?xml version="1.0" encoding="UTF-8"?>
<svg id="Layer_1" data-name="Layer 1" xmlns="http://www.w3.org/2000/svg" width="200" height="200" viewBox="0 0 200 200">
  <defs>
    <style>
      .cls-1, .cls-2, .cls-3, .cls-4 {
        fill-rule: evenodd;
        stroke-width: 0px;
      }

      .cls-2 {
        fill: #8f7c61;
      }

      .cls-3 {
        fill: #e9dec4;
      }

      .cls-4 {
        fill: #cebc91;
      }
    </style>
  </defs>
  <g id="skull">
    <path class="cls-4" d="m65.95,124.53c-.14-.35-.45-.59-.83-.63l-2.72-.28-6.44-6.53c-.64-1.54-1.28-9.24-.55-10.52.19-.33.5-.86.9-1.34.76-.89,1.99-2.62,1.99-2.9,0,0-.07-10.57-2.04-16.76-1.14-3.56-2.13-10.45-1.35-17.21.5-4.44,1.78-8.83,4.31-12.16,6.44-8.5,15.19-18.78,35.21-20.57,2.04-.08,3.91-.11,5.54-.06h.05c1.66-.05,3.51-.02,5.52.06,20.04,1.78,28.79,12.07,35.25,20.57,2.54,3.33,3.79,7.72,4.29,12.16.78,6.76-.21,13.65-1.35,17.21-1.97,6.19-1.87,16.4-1.87,16.4,0,.29,1.07,2.37,1.82,3.26.43.48.64,1.06.9,1.34.69.7.09,8.37-.54,10.52l-6.44,6.53-2.72.28c-.38.04-.71.3-.85.66l-5.85,16.64c-.02.06-.05.13-.05.2l-.88,6.55-1.61,4.08s-6.33,3.98-7.04,4.62l-8.13,7.42-4.05.6-6.18-1.55c-.17-.04-.31-.04-.47,0l-6.87,1.31-3.36-.36-8.13-7.42s-.05-.05-.07-.07l-6.23-4.52-1.63-4.11-.88-6.55c0-.08-.02-.16-.05-.24l-6.59-16.64Z"/>
    <path class="cls-2" d="m106.85,164.8l-6.86-1.54-9.26,1.54-9.51-8.78-6.57-3.9-5.1-20.13-3.49-9.53-6.04-2.01-4.8-4.16-.59-9.62,3.66-4.62-4.04-29.77,5.38-16.63,11.28-10.53-3.35,4.1-5.8,14.87,2.9,16.17,1.1,6.05c-2.99,1.78-4.8,5.69-4.12,9.43,1.12-2.75,4.53-3.29,5.4-2.37l28.32,9.37c-3.17,3.09-8.62,6.29-13.93,7.42-8.75,1.26-9.39-.22-10.52-.77l-6.25-2.84-1.91-6.43-7.06,7.29,1.91,7.13,8.06,4.7,13.65,4.79c4.34,3.88,6.08,8,7.26,12.16l-3.6.9-.25,3.01.55,3.13,1.37,2.52,7.8,4.42,7.55.22,6.4.21,8.87-4.82,2.12-4.49-.15-1.42-.17-2.74-3.01-.84c.77-3.66,2.37-7.49,6.28-11.73l13.62-5.32,8.06-4.7,1.91-7.13-7.06-7.29-1.91,6.43-6.25,2.84c-1.13.55-1.77,2.03-10.52.77-5.32-1.13-10.76-4.33-13.93-7.42l28.31-9.37c.88-.92,4.29-.38,5.41,2.37.68-3.74-1.13-7.65-4.12-9.43l1.1-6.05,2.9-16.17-5.8-14.87-3.35-4.1,11.27,10.53,5.39,16.63-4.04,29.77,3.66,4.62-.59,9.62-4.8,4.16-6.04,2.01-3.49,9.53-5.1,20.13-6.58,3.9-7.99,8.66-3.54.12Z"/>
    <path class="cls-3" d="m84.04,139.11c.31-.86.97-1.42,2.53-1.19l1.53,1.75c1.17-1.89,2.91-.3,5.17,1.42.45-1.2,1.16-2.19,3.02-2.3,1.71.02,2.73.63,3.18,1.73l.34,5.92c-.09.95-3.74,1.24-4.84.82-.25-1.11-4.41-1.14-4.81-.56-.66.12-1.94-1.58-2.56-1.38-2.3.73-4.51-.69-4.06-1.51-.31-.31-.11-.31.5-4.7Zm32.38,0c.61,4.39-.27,4.66-.58,4.97.23.42-.89,1.7-3.47,1.18-1.48,1.14-2.22,1.14-2.54,1.08-3.7-.36-4.04.54-4.16.18-1.33,1.47-5.35,1.48-5.43.53l.14-6.53c.46-1.1,2.08-1.71,3.79-1.73,1.86.11,2.57,1.1,3.02,2.3,2.26-1.72,4-3.31,5.17-1.42l1.53-1.75c1.56-.23,2.22.33,2.53,1.19Z"/>
    <path class="cls-1" d="m65.03,124.9l-3.1-.32-6.92-7.04s-.83-9.96-.57-11.18c.26-1.22,2.87-3.55,2.87-3.55,0,0-.05-10.85-1.99-16.93s-3.51-21.61,3.1-30.28c6.59-8.67,15.52-19.15,35.96-20.96,2.06-.08,3.96-.11,5.62-.06,1.68-.05,3.58-.02,5.62.06,20.45,1.81,29.38,12.29,35.96,20.96,6.61,8.67,5.05,24.19,3.1,30.28-1.94,6.08-1.97,16.93-1.97,16.93,0,0,2.58,2.33,2.84,3.55.28,1.22-.54,11.18-.54,11.18l-6.94,7.04-3.1.32-5.85,16.64-.9,6.67-1.78,4.49-7.18,4.7-8.36,7.64-3.86.41-7.04-1.67-7.04,1.67-3.86-.41-8.36-7.64-6.47-4.7-1.78-4.49-.9-6.67-6.56-16.64Zm32.08-33.8c-.4,1.65-1.33,5.48-1.45,6.75-.14,1.63-.31,4.89-.31,4.89l-1.94-3.57.4,4.19s-2.72.86-5.35,2.17c-2.65,1.32-3.51,3.42-6.37,4.43-2.87,1.01-10.31,1.46-13.95.3h-.02s-1.66,2.59-1.66,2.59l-2.72,1.74.07,5.69c1.47.06,3.46.03,5.21-.39,3.2-.78,4.83-2.52,4.83-2.52l8.81,2.75c-.45,3.1,1.75,6.34,3.67,10.34-2.44-3.39-4.53-5.85-5.97-6.58,2.44,3.21,3.44,6.34,2.75,9.38-.57-3.52-1.47-5.94-2.87-6.65.95,2.75.97,4.91.26,6.6l.17.68c.59.02,1.3.53,2.13,1.65l1.18.44c1.26-1.71,2.61-1.75,4.03-.19.19.21.47-4.3.66-4.03l.76,4.3,1.78-1.15,1.28,1.82c.36-.25-.24-4.85.09-5.05.24-.14.95,4.93,1.11,4.73,1.49-1.86,3.81-1.62,5.28-.43.45-.96.71-2.93.92-5.22.02-.35.05-.57.09-.02.12,1.6.54,4.5,1.02,5.24,1.47-1.19,3.79-1.44,5.28.43.17.2.88-4.88,1.14-4.73.33.2-.28,4.79.07,5.05l1.28-1.82,1.8,1.15.73-4.3c.19-.27.5,4.24.69,4.03,1.42-1.56,2.75-1.52,4,.19l1.18-.44c.85-1.12,1.54-1.63,2.13-1.65l.17-.68c-.71-1.69-.69-3.85.26-6.6-1.4.71-2.27,3.12-2.84,6.65-.71-3.04.28-6.17,2.72-9.38-1.45.73-3.53,3.2-5.97,6.58,1.92-4,4.12-7.24,3.67-10.34l8.81-2.75s1.18,1.26,3.51,2.11l1.97-.11,3.96-5.87-2.32,6.74c2.58.21,5.07-.12,5.07-.12,0,0,4.6-3.76,5.57-5.82.97-2.06.36-7.28.36-7.28,0,0-1.21-2.18-3.39-5.09-2.18-2.91-1.45-13.22-1.45-13.22,0,0-1.68-3.19-6.02-4.29-2.51-.63-12.63,2.48-12.63,2.48,0,0,7.39-4.76,11.51-5.62,4.1-.86,5.31.46,5.31.46l-1.18-6.3c2.72-3.22,2.27-10.46-.62-18.95,3.86,4.24,5.45,16.7,4.5,24.5,0,0,5.31-3.27,2.7-13.59-3.29-13.18-8.79-19.15-19.26-25.1-7.2-4.08-17.79-5.18-23.74-5.47-5.05.24-13.43,1.07-20.26,3.81l.09,4.12,1.75,2.9-1.56,3.52,2.61,1.35,1.4,7.2.43.22.45-1.52,4.9-3.11-.81-2.52,2.13-4.77,7.34-1.13,1.14-5.63,5.24-3.78-3.98,4.57-1.73,5.63-7.08,2.85-1.4,3.11-.07,2.52-3.39,5.24,3.25,1.77-4.12.8-1.11,2.52-1.68.58-.24.38-3.65,9.28-3.74.25-3.39,5.47-.62.38c3.62,1.7,7.32,4.08,7.32,4.08,0,0-6.11-1.88-10.02-2.42l1.54,3.68c3.44,0,8.2,1.61,12.72,3.67,4.48,2.03,3.86,4.37,9.43,4.06,1.99-.11,3.79-3.16,4.22-4.76.12-.48.19-.77.19-.77,0,0-.05.3-.19.77Zm2.06,28.77c-.12.45-.26.92-.4,1.32-.5,1.36-1.82,3.19-1.82,3.19,0,0-4.26-1.45-6.02-2.13-1.73-.68.66-5.33,1.82-8.51,1.14-3.09,4.38-9.62,7.06-10.07.05-.02.09-.02.14-.02.02,0,.05,0,.05,0t.05,0s.09,0,.14.02c2.68.45,5.95,6.98,7.06,10.07,1.18,3.18,3.58,7.84,1.82,8.51-1.75.68-6.02,2.13-6.02,2.13,0,0-1.33-1.82-1.82-3.19-.14-.4-.28-.86-.4-1.32-.31,4.36-.83,7.9-.83,7.9,0,0-.52-3.53-.83-7.9Zm23.17-44.36l2.37.75h3.39l-6.11,2.64.83-1.79-.47-1.6Zm-19.45,15.58c-.14-.47-.19-.77-.19-.77,0,0,.07.29.19.77Zm0,0c.43,1.61,2.25,4.65,4.22,4.76,4.6.26,5-1.29,7.46-2.97l.64-2.42-2.77-1.7.97-11.89.83,10.67,4.12,1.82-.69,1.92c5.33-2.31,10.83-3.9,13.93-2.82,5.95,2.06,4.71,9.7,2.18,13.59-2.56,3.88-6.56,5.82-11.28,5.64-4.74-.18-7.42-1.63-7.42-1.63,0,0,2.82,3.23,9.74,2.57,4.05-.39,6.52-1.25,8.01-2.14.88-.71,1.85-1.63,2.2-2.49.73-1.74,1.56-6.46,1.56-6.46,0,0,1.99,7.25,1.23,8.24-.4.54-1.45,1.92-2.77,2.92-.62.69-2.01,1.17-3.2,1.55-3.65,1.16-11.06.71-13.95-.3-2.87-1.01-3.72-3.11-6.35-4.43-2.65-1.32-5.35-2.17-5.35-2.17l.38-4.19-1.94,3.57s-.17-3.26-.31-4.89c-.12-1.27-1.04-5.1-1.45-6.75Zm9.31,10.04c-.02.07-.07.14-.09.22,0,0,.71,1.99,3.89,3.67.17.09,1.82,1,4.43,1.55,2.68.57,6.61-.02,10.28-4.05.76-.83,1.45-1.86,1.45-1.88,0-.07-.05-.14-.05-.22-.09.03-.19.03-.26.06-.02,0-3.77,4.28-8.79,4.7-.85.07-1.99.1-4.36-.45-4.05-.94-5.76-2.75-6.23-3.44,0-.02,0-.05-.02-.06-.12-.06-.14-.03-.24-.09Zm-20.26,4.84s-1.99,5.55-3.98,6.46c-1.97.91-7.91-1-7.91-1,0,0,6.02,0,8.08-1.11,2.08-1.11,3.81-4.35,3.81-4.35Zm12.6-40.04l11.59-4.08-8.74,4.39-1.18,3-5.16,1.47,1.11-3.13,2.39-1.66Zm3.51,40.04s1.73,3.24,3.81,4.35c2.06,1.11,8.08,1.11,8.08,1.11,0,0-5.92,1.9-7.91,1-1.99-.91-3.98-6.46-3.98-6.46Zm-5.97,49.13c-.69.36-1.14.47-1.14.47h-1.9s-.83-.19-1.94-.95c-.38-.24-.07,3.62-.47,3.25-.45-.4-1.49-4.22-1.92-3.86-.4.36-.9.76-1.61.48-.43-.17-.71-.57-1.26-1.14-.26-.26,1.04,6.03.64,5.71-.31-.24-2.35-6.52-2.8-6.2-.47.33-1,.68-1.49.52-.43-.13-1.11-.95-1.73-1.57-.52-.51.19,2.69-.05,3-.21.3-1.85-3.17-2.32-3.18-.71-.02-1.52-.28-2.04-.61-.83-.55-1.45-1.72-1.92-2.41-2.18-3.04-2.18-3.36-2.18-3.36l-.21,3.92-1.82-6.78.26-7.42-3.89-9.06,1.97,7.77.64,6.46-4.19-8.07,2.54,10.28,1.78,5.99,1.94,2.59,4.76,3.62,6.94,4.8-5.88-1.94,8.48,6.72,2.06-.67,1.66-1.8,6.21,1.01,4.74,1.57,2.2-.08.92-.97-6.99-8.06Zm16.75-18.84l-1.18.92s-.26.9-.07,2.59c.17,1.7-.62,3.01-.62,3.01l1.54.97,1.11-1.1s-.09-3.73-.21-4.41c-.14-.68-.57-1.99-.57-1.99Zm-15.31.76c-1.02.09-1.78,1.4-2.49,2.76-.73,1.36-.69,5.43-.59,6.36.07.93.81.59,2.25.81,1.45.21,3.08-.42,3.46-1.44.38-1.02.36-3.53.02-4.67-.36-1.14-1.63-3.89-2.65-3.8Zm-21.99,11.29s-.28-1.8-.21-2.54c.07-.74.45-1.29.45-1.29-.52-.1-1.42-.59-1.52-.76,0,0-.05.73-.05,1.95s1.33,2.65,1.33,2.65Zm14.93-11.29c-1.02-.09-2.3,2.66-2.65,3.8-.33,1.14-.36,3.66.02,4.67.38,1.02,2.01,1.65,3.46,1.44,1.47-.21,2.18.13,2.27-.81.07-.93.12-5-.62-6.36-.71-1.36-1.47-2.67-2.49-2.76Zm-14.38,9.43s.05.75.07,1.14c.05.38,1.09,1.62,1.09,1.62,0,0,.73.42,1.16.32s.07-1.35.07-1.91.17-1.88.17-1.88c0,0-1.11-1.34-1.52-1.36-.43-.02-.97.8-.97.8l-.07,1.28Zm-12.32-38.83c1.37.44,3.13.8,5.4,1.01,6.92.65,9.74-2.57,9.74-2.57,0,0-2.68,1.45-7.42,1.63-2.51.1-4.83-.41-6.82-1.49l-.9,1.42Zm21.04,38.52c.88-.19,1.97-.64,1.97-.64,0,0-.14-1.62-.26-2.98-.12-1.36-.17-2.42-.47-3.52-.28-1.1-.92-1.73-1.73-1.81-.81-.08-1.18.42-1.78,1.91-.59,1.48-.66,3.65-.33,5.21.17.83.47,1.31.85,1.59.5.23,1.07.32,1.75.24Zm18.12.87s-.66-.38-1.18-.38-1.99.21-1.99.21c0,0-.26,1.31-.59,2.11-.33.8-.73,1.45-.33,2.19.43.75,1.26,1.76,1.92,1.32.69-.44,2.16-2.22,2.3-2.77.12-.55-.12-2.68-.12-2.68Zm3.7,14l4.57-3.62-5.12,2.35,6.21-5.21,5.47-3.62,1.94-2.59,1.78-5.99,2.51-10.28-4.17,8.07.62-6.46,1.26-7.77-3.89,9.06.26,7.42-1.82,6.78-.21-3.92s0,.32-2.16,3.36c-.5.69-1.11,1.86-1.94,2.41-.85.56-2.63.94-3.17.21-.5-.67-2.2,1.92-2.94,2.15-1.02.31-2.08-1.38-2.68-.91-1.33,1.03-1.61,1.76-2.25,2.01-1.42.56-1.97-1.58-2.84-.78-.64.6-1.26,1.01-1.78,1.3l4.79,4.08,2.42.78,3.15,1.16Zm-44.38-56.55c-.76-.69-1.42-1.5-2.04-2.41-2.54-3.88-3.74-11.52,2.18-13.59.28-.09.54-.16.85-.22l-.95-3.91c-.71-.06-1.3-.05-1.68.05-4.36,1.1-6.02,4.29-6.02,4.29,0,0,.71,10.31-1.47,13.22-2.18,2.91-3.39,5.09-3.39,5.09,0,0-.62,5.22.36,7.28.88,1.85,4.64,5.05,5.45,5.7l-.31-2.33-2.82-4.39,2.89,3.23,2.75-4.39,1.8.08.76-2.46c-.69-.28-1.3-.62-1.66-1.02-1.35-1-2.39-2.37-2.8-2.92-.76-.99,1.23-8.24,1.23-8.24,0,0,.83,4.72,1.56,6.46.38.87,1.35,1.79,2.23,2.49.12.07.24.14.36.21l.71-2.24Zm19.57-3.33c-.12.06-.14.03-.24.09-.02.01-.05.04-.05.06-.47.69-2.18,2.5-6.23,3.44-2.37.55-3.51.52-4.36.45-5-.41-8.77-4.69-8.77-4.7-.09-.03-.19-.03-.26-.06,0,.08-.05.14-.05.22,0,.03.66,1.05,1.42,1.88,3.67,4.04,7.61,4.62,10.28,4.05,2.63-.55,4.26-1.47,4.43-1.55,3.17-1.68,3.89-3.67,3.89-3.67-.02-.07-.05-.14-.07-.22Zm-3.96,36.36s-.62.76-.71,1.65c-.09.89-.21,2.03,0,2.86.21.82,1.66,2.74,2.16,3.03.52.3,2.32-.34,2.32-.34,0,0-.14-1.7-.5-2.69-.33-1-1.09-5.07-1.52-5.28-.43-.21-1.75.77-1.75.77Zm30.73,8.7s-.5-.51-1.14-.49c-.64.02-1.45-.16-1.45-.16,0,0-.14.98-.97,1.21-.81.23-1.14.31-1.14.31,0,0-.28,2.17.57,3.11.85.94,1.3,1.24,2.37.53,1.07-.71,1.68-2.22,1.82-3,.12-.78-.07-1.51-.07-1.51Zm-3.65-.28c.38-.27.69-.76.85-1.59.36-1.57.26-3.73-.33-5.21-.59-1.49-.97-1.99-1.78-1.91-.81.09-1.45.71-1.73,1.81-.31,1.1-.33,2.16-.47,3.52-.12,1.36-.26,2.98-.26,2.98,0,0,1.09.45,1.97.64.69.08,1.26,0,1.75-.24Zm-31.46-105.18c-1.14.46-2.2.97-3.2,1.54-10.5,5.95-15.97,11.92-19.29,25.1-2.61,10.32,2.72,13.59,2.72,13.59-.97-7.8-1.14-17.05,2.72-21.29-1.26,7.77-2.2,14.39.09,16.78l-.14,5.27s1.21-1.32,5.31-.46c.52.11,1.11.28,1.71.5l3.77-2.95,3.06-3.77,2.84-.27,1.59-5.57,1.56-2.84.57-3-1.21-2.92,1.04-.83-1.04-6.37-3.2-1.86,1.85-4.55-1.66-2.38.9-3.7Zm16.09,106.94s.43,2.72.88,3.66c.45.94,1.33,2,2.18,2,.85,0,.64-.97.78-1.61.17-.64.19-4.09.19-4.09,0,0-1.02.12-1.78.18-.76.06-2.25-.13-2.25-.13Zm-14.4-11.4s-.43,1.31-.54,1.99c-.14.68-.21,4.41-.21,4.41l1.09,1.1,1.54-.97s-.78-1.31-.59-3.01c.17-1.7-.09-2.59-.09-2.59l-1.18-.92Zm4.19,9.92s-.21.72-.07,1.51c.14.79.73,2.3,1.82,3,1.07.71,1.52.41,2.37-.53.85-.94.5-3.11.5-3.11,0,0-.26-.07-1.09-.31-.81-.23-.95-1.21-.95-1.21,0,0-.81.18-1.45.16s-1.14.49-1.14.49Zm5.66.83s-.24,2.13-.12,2.68c.14.55,1.61,2.33,2.27,2.77.69.44,1.52-.58,1.94-1.32.4-.75-.21-1.63-.54-2.43-.33-.8-.38-1.87-.38-1.87,0,0-1.47-.21-1.99-.21s-1.18.38-1.18.38Zm25.11-9.53s-1.33-.98-1.75-.77c-.4.21-1.18,4.28-1.52,5.28-.33,1-.5,2.69-.5,2.69,0,0,1.8.63,2.32.34.5-.3,1.94-2.21,2.16-3.03.21-.83.09-1.97,0-2.86-.07-.89-.71-1.65-.71-1.65Zm2.04,8.96l-.05-1.28s-.54-1.15-1-1.13c-.47.02-1.14.73-1.14.73l-.73.99s.26,1.02.26,1.58-.4,2.08.07,2.18,1.3-.32,1.3-.32c0,0,1.16-1.24,1.21-1.62.02-.39.07-1.14.07-1.14Zm-13.86,1.17s-1.42.23-2.18.18c-.78-.06-1.68-.11-1.68-.11,0,0,.02,3.45.17,4.09.17.64-.17,1.54.71,1.55.85,0,1.71-1.07,2.18-2,.45-.93.81-3.7.81-3.7Zm14.48.69s1.21-1.47,1.21-2.69.09-1.9.09-1.9c-.09.18-.76.62-1.35.71,0,0,.21.6.28,1.34.09.74-.24,2.54-.24,2.54Z"/>
  </g>
</svg>