<?xml version="1.0" encoding="UTF-8"?>
<svg id="Layer_1" data-name="Layer 1" xmlns="http://www.w3.org/2000/svg" width="200" height="200" viewBox="0 0 200 200">
  <defs>
    <style>
      .cls-1 {
        fill: #c54e08;
      }

      .cls-1, .cls-2 {
        fill-rule: evenodd;
        stroke-width: 0px;
      }

      .cls-2 {
        fill: #fff;
      }
    </style>
  </defs>
  <path class="cls-2" d="m63.32,86.23c-.43-.7-.93-1.33-1.49-1.8-.98-.83-2.71-1.44-4.23-1.93-1.3-.41-2.16-1.65-2.08-3.01.07-1.36,1.05-2.5,2.39-2.78,1.83-.38,3.92-.71,5.67-.81-2.11-.94-4.05-2.12-5.09-4.03-1.33-2.44-3.07-7.41-4.37-11.47-.18-.56-.43-1.01-.71-1.37-.82-1.04-.86-2.48-.11-3.57.75-1.08,2.12-1.55,3.38-1.15,1.02.33,2.02.84,2.88,1.58,2.59,2.25,5.91,4.99,8.17,6.22,1.7.92,4.45.86,7.13.88,3.33.02,6.59.13,8.51,1.09.19-.83.29-1.65.22-2.4-.11-1.29-.91-2.96-1.65-4.38-.63-1.21-.36-2.69.64-3.6,1.01-.92,2.5-1.04,3.65-.3,1.77,1.14,3.75,2.58,5.09,3.86-.84-2.18-1.39-4.4-.77-6.5.79-2.66,3.07-7.41,5.02-11.2.27-.52.41-1.02.47-1.47.15-1.31,1.14-2.37,2.44-2.6,1.3-.24,2.6.4,3.2,1.58.49.95.84,2.02.92,3.15.24,3.43.65,7.7,1.38,10.17.55,1.85,2.54,3.75,4.42,5.66,2.4,2.44,4.69,4.88,5.3,6.96.02.07.04.14.06.21,1.32-.54,2.5-1.21,3.24-2.07.84-.97,1.48-2.69,1.99-4.2.43-1.29,1.68-2.13,3.04-2.04,1.36.09,2.49,1.09,2.75,2.43.22,1.15.42,2.41.56,3.62.71-1.07,1.58-1.98,2.69-2.59,2.44-1.33,7.41-3.07,11.47-4.37.56-.18,1.01-.43,1.37-.71,1.03-.82,2.48-.86,3.57-.11,1.09.75,1.55,2.12,1.15,3.38-.33,1.02-.84,2.02-1.58,2.88-2.25,2.59-4.99,5.91-6.22,8.17-.93,1.7-.86,4.45-.88,7.13-.02,3.26-.13,6.45-1.03,8.39,1.41.62,2.82,1.04,4.04.96,1.28-.09,2.95-.85,4.38-1.55,1.22-.6,2.7-.31,3.59.72.89,1.03.98,2.53.21,3.66-.76,1.12-1.65,2.32-2.53,3.39,1.25-.25,2.49-.27,3.69.08,2.66.79,7.41,3.07,11.2,5.02.52.27,1.02.41,1.47.47,1.31.15,2.37,1.14,2.6,2.44.24,1.3-.4,2.6-1.58,3.2-.95.49-2.02.84-3.15.92-3.43.24-7.7.65-10.17,1.38-1.85.55-3.75,2.54-5.66,4.42-1.97,1.94-3.94,3.8-5.72,4.77.51,1.08,1.12,2.02,1.86,2.65.98.83,2.71,1.44,4.23,1.93,1.3.41,2.15,1.65,2.08,3.01-.07,1.36-1.05,2.5-2.39,2.78-2.34.48-5.12.89-7.04.83,1.94.91,3.68,2.05,4.64,3.82,1.33,2.44,3.07,7.41,4.37,11.47.18.56.43,1.01.71,1.37.82,1.03.86,2.48.11,3.57-.75,1.08-2.12,1.55-3.38,1.15-1.02-.33-2.02-.84-2.88-1.58-2.59-2.25-5.91-4.99-8.17-6.22-1.7-.92-4.45-.86-7.13-.88-2.95-.02-5.85-.11-7.81-.8-.33,1.04-.52,2.04-.44,2.93.11,1.3.91,2.96,1.65,4.38.63,1.21.36,2.69-.64,3.6-1.01.92-2.5,1.04-3.65.3-1.89-1.22-4.02-2.77-5.36-4.12.74,2.03,1.18,4.09.6,6.05-.79,2.66-3.07,7.41-5.02,11.2-.27.52-.41,1.02-.47,1.47-.15,1.31-1.14,2.37-2.44,2.6-1.3.24-2.6-.4-3.2-1.58-.49-.95-.84-2.02-.92-3.15-.24-3.43-.65-7.7-1.38-10.17-.55-1.85-2.54-3.75-4.42-5.66-2.24-2.27-4.38-4.55-5.15-6.54-.77.44-1.45.96-1.96,1.55-.84.97-1.48,2.69-1.99,4.2-.43,1.29-1.68,2.13-3.04,2.04-1.36-.09-2.49-1.09-2.75-2.43-.44-2.31-.81-5.04-.73-6.96-.99,2.34-2.2,4.55-4.29,5.69-2.44,1.33-7.41,3.07-11.47,4.37-.56.18-1.01.43-1.37.71-1.03.82-2.48.86-3.57.11-1.09-.75-1.55-2.12-1.15-3.38.33-1.02.84-2.02,1.58-2.88,2.25-2.59,4.99-5.91,6.22-8.17.92-1.7.86-4.45.88-7.13.02-3.42.14-6.76,1.17-8.67.04-.07.08-.14.12-.21-.81-.21-1.61-.32-2.36-.27-1.28.09-2.95.85-4.38,1.55-1.22.6-2.7.31-3.59-.72-.89-1.03-.98-2.53-.22-3.66,1.04-1.52,2.29-3.19,3.47-4.47-2.16.83-4.36,1.36-6.44.75-2.66-.79-7.41-3.07-11.2-5.02-.52-.27-1.02-.41-1.47-.47-1.31-.15-2.37-1.14-2.6-2.44-.24-1.3.4-2.6,1.58-3.2.95-.49,2.02-.84,3.15-.92,3.43-.24,7.7-.65,10.17-1.38,1.85-.55,3.75-2.54,5.66-4.42,2.44-2.4,4.88-4.69,6.96-5.3.1-.03.21-.06.32-.09Z"/>
  <path class="cls-1" d="m100,68.5c17.39,0,31.5,14.11,31.5,31.5s-14.12,31.5-31.5,31.5-31.5-14.11-31.5-31.5,14.11-31.5,31.5-31.5Zm-31.16,46.32s-.02,0-.03-.01c-2.3-1.1-4.89-1.93-7.1-1.79-1.61.11-3.73.97-5.51,1.86,1.35-1.98,3.08-4.29,4.41-5.28,1.91-1.42,3.83-2.82,5.35-3.91.53,3.21,1.51,6.28,2.87,9.13Zm10.61,12.89c-.8.26-1.52.54-2.06.84-1.85,1.01-2.82,3.25-3.77,5.59-.77,1.88-1.51,3.84-3.18,4.75-2.33,1.27-7.08,2.91-10.95,4.15-.95.3-1.71.74-2.31,1.22.21-.65.52-1.28.99-1.82,2.39-2.76,5.28-6.3,6.59-8.7,1.11-2.04,1.22-5.32,1.24-8.55.02-2.86-.06-5.67.81-7.25.48-.88,1.31-1.83,2.23-2.72,2.44,4.95,6.03,9.24,10.42,12.5Zm25.73,6.41c-.36.76-.65,1.46-.82,2.06-.59,2.02.3,4.3,1.28,6.62.79,1.87,1.65,3.78,1.11,5.61-.75,2.54-2.95,7.06-4.81,10.68-.46.89-.69,1.73-.78,2.5-.31-.6-.54-1.27-.59-1.99-.26-3.64-.72-8.19-1.49-10.81-.66-2.23-2.9-4.63-5.16-6.92-2.01-2.03-4.05-3.97-4.56-5.7-.25-.83-.38-1.9-.45-3-.08.03-.16.06-.24.08-2.4.86-4.82,2.1-6.27,3.77-1.06,1.21-1.93,3.33-2.57,5.21-.45-2.35-.87-5.21-.63-6.85.37-2.58.77-5.14,1.08-7.06,5.59,3.9,12.39,6.19,19.71,6.19,1.76,0,3.49-.13,5.18-.39Zm22.6-13.66c.28.79.58,1.5.88,2.05,1.01,1.85,3.25,2.82,5.59,3.77,1.88.77,3.84,1.51,4.75,3.18,1.27,2.33,2.91,7.08,4.15,10.95.31.95.74,1.71,1.21,2.31-.64-.21-1.28-.52-1.82-.99-2.76-2.39-6.3-5.28-8.7-6.59-2.04-1.11-5.32-1.22-8.55-1.24-2.86-.02-5.67.06-7.25-.81-.62-.34-1.29-.83-1.97-1.39l-.02.04c-1.26,2.55-2.21,5.35-2.02,7.56.14,1.62,1.06,3.73,1.98,5.5-2-1.29-4.34-2.96-5.35-4.26-1.76-2.26-3.14-4.86-4-6.67,8.62-1.69,16.09-6.59,21.12-13.41Zm6.33-25.63c.76.36,1.46.65,2.06.82,2.02.59,4.3-.3,6.62-1.28,1.87-.79,3.78-1.65,5.61-1.11,2.54.75,7.06,2.95,10.68,4.81.89.46,1.73.69,2.49.78-.6.31-1.27.54-1.99.59-3.64.26-8.19.72-10.81,1.49-2.23.66-4.63,2.9-6.92,5.16-2.03,2.01-3.97,4.05-5.7,4.56-.55.16-1.19.28-1.88.36.02.06.04.11.06.17.88,2.69,2.16,5.33,3.85,6.76,1.23,1.04,3.36,1.89,5.25,2.49-2.34.49-5.2.94-6.84.73-3.01-.39-5.99-1.34-7.87-2.03,3.66-5.48,5.79-12.05,5.79-19.13,0-1.76-.13-3.49-.39-5.18Zm-39.16-28.95c.38-.75.69-1.45.86-2.04.59-2.02-.3-4.3-1.29-6.62-.79-1.87-1.65-3.78-1.11-5.61.75-2.54,2.95-7.06,4.81-10.68.46-.89.69-1.73.78-2.5.31.6.54,1.27.59,1.99.26,3.64.72,8.19,1.49,10.81.66,2.23,2.9,4.63,5.16,6.92,2.01,2.03,4.05,3.97,4.56,5.7.27.93.36,2.14.35,3.38.42-.11.85-.24,1.28-.37,2.7-.84,5.36-2.08,6.82-3.75,1.06-1.21,1.93-3.33,2.57-5.21.45,2.35.87,5.21.63,6.85-.4,2.82-1.3,5.59-2,7.47.79-.28,1.5-.58,2.04-.88,1.85-1.01,2.82-3.25,3.77-5.59.76-1.88,1.51-3.84,3.18-4.75,2.33-1.27,7.08-2.91,10.96-4.15.95-.31,1.71-.74,2.31-1.21-.21.64-.52,1.28-.99,1.82-2.39,2.75-5.28,6.3-6.59,8.7-1.11,2.04-1.22,5.32-1.24,8.55-.02,2.86.06,5.67-.81,7.25-.39.71-.97,1.49-1.64,2.26.39.22.78.44,1.19.66,2.5,1.32,5.26,2.34,7.47,2.19,1.61-.11,3.73-.97,5.51-1.86-1.35,1.98-3.08,4.29-4.41,5.28-2.47,1.84-5.3,3.23-7.13,4.04-2.63-16.44-16.89-29.03-34.07-29.03-1.72,0-3.4.13-5.05.37Zm-22.65,13.58c-.26-.8-.54-1.52-.84-2.06-1.01-1.85-3.25-2.82-5.59-3.77-1.88-.76-3.84-1.51-4.75-3.18-1.27-2.33-2.91-7.08-4.15-10.96-.31-.95-.74-1.71-1.22-2.31.65.21,1.28.52,1.82.99,2.76,2.39,6.3,5.28,8.7,6.59,2.04,1.11,5.32,1.22,8.55,1.24,2.86.02,5.67-.06,7.25.81.87.47,1.8,1.29,2.68,2.19.06-.13.12-.26.18-.39,1.04-2.35,1.82-4.97,1.63-7.18-.14-1.62-1.06-3.73-1.98-5.5,2,1.29,4.34,2.96,5.35,4.26,1.63,2.1,3.23,4.23,4.4,5.78-9,1.49-16.82,6.46-22.04,13.48Zm-4.73,8.76c-.89-2.34-2.15-4.68-3.81-6.07-1.23-1.04-3.36-1.89-5.25-2.49,2.34-.49,5.2-.94,6.84-.73,2.4.31,4.8.65,6.66.92-1.84,2.55-3.35,5.37-4.44,8.37Zm-1.7,16.84c-.75-.38-1.45-.69-2.04-.86-2.02-.59-4.3.3-6.62,1.29-1.87.79-3.78,1.65-5.6,1.11-2.54-.75-7.06-2.95-10.68-4.81-.89-.46-1.73-.69-2.5-.78.6-.31,1.27-.54,1.99-.59,3.64-.26,8.19-.72,10.81-1.49,2.23-.66,4.63-2.9,6.92-5.16,2.03-2.01,3.97-4.05,5.7-4.56.96-.28,2.22-.37,3.5-.35-1.2,3.5-1.85,7.25-1.85,11.16,0,1.72.13,3.4.37,5.05Z"/>
</svg>