<?xml version="1.0" encoding="UTF-8"?>
<svg id="Layer_1" data-name="Layer 1" xmlns="http://www.w3.org/2000/svg" width="200" height="200" viewBox="0 0 200 200">
  <defs>
    <style>
      .cls-1 {
        fill: #101010;
      }

      .cls-1, .cls-2 {
        fill-rule: evenodd;
        stroke-width: 0px;
      }

      .cls-2 {
        fill: #fff;
      }
    </style>
  </defs>
  <path class="cls-2" d="m88.36,100.25l-7.5-7.5c-.13-.13-.25-.28-.35-.44l-2.58,3.32c-.42.54-1.06.88-1.75.93-.69.04-1.36-.21-1.85-.7l-4.82-4.82c-.83-.83-.94-2.15-.25-3.11l3.8-5.23-17.12-17.12c-1.19.18-2.45-.18-3.36-1.1l-2.12-2.12c-1.52-1.52-1.52-3.99,0-5.52l6.37-6.37c1.52-1.52,4-1.52,5.52,0l2.12,2.12c1.04,1.04,1.37,2.51.99,3.83l16.94,16.94,5.23-3.8c.96-.69,2.27-.59,3.11.24l4.82,4.82c.49.49.74,1.16.7,1.85-.04.69-.38,1.32-.93,1.75l-3.32,2.57c.15.09.3.21.43.34l7.55,7.47,7.55-7.47c.13-.13.28-.24.43-.34l-3.32-2.57c-.55-.42-.88-1.06-.93-1.75-.04-.69.21-1.36.7-1.85l4.82-4.82c.83-.83,2.15-.94,3.11-.24l5.24,3.8,16.94-16.94c-.37-1.32-.04-2.79.99-3.83l2.12-2.12c1.52-1.52,3.99-1.52,5.52,0l6.37,6.37c1.52,1.52,1.52,4,0,5.52l-2.12,2.12c-.92.91-2.17,1.28-3.36,1.1l-17.12,17.12,3.8,5.23c.69.96.59,2.27-.24,3.11l-4.82,4.82c-.49.49-1.16.74-1.85.7-.69-.04-1.32-.38-1.75-.93l-2.58-3.32c-.1.15-.21.3-.35.44l-7.43,7.43,34.28,33.92c.27.27.48.61.6.98l3.96,12.46c.27.85.05,1.79-.59,2.42-.63.63-1.57.86-2.42.59l-12.46-3.97c-.36-.12-.7-.32-.97-.59l-34.18-34.18c-.11.2-.25.39-.42.56l-33.61,33.61c-.27.27-.6.47-.97.59l-12.46,3.97c-.85.27-1.79.04-2.42-.59-.63-.63-.86-1.57-.59-2.42l3.97-12.46c.12-.37.32-.71.6-.98l33.79-33.44c.17-.17.36-.3.56-.41Z"/>
  <path class="cls-1" d="m143.23,56.21l-2.83-2.83-1.98,1.98,2.83,2.83,1.98-1.98Zm-6.02.21c-.59-.59-.59-1.54,0-2.12l2.12-2.12c.59-.59,1.54-.59,2.12,0l6.37,6.37c.59.59.59,1.54,0,2.12l-2.12,2.12c-.59.59-1.54.59-2.12,0l-6.37-6.37Zm-9.04,11.45l2.69.71,1.27-1.27-2.69-.71-1.27,1.27Zm-6,6l2.69.71,1.27-1.27-2.69-.71-1.27,1.27Zm-3,3l2.69.71,1.27-1.27-2.69-.71-1.27,1.27Zm15.01-15.01l2.69.71,1.27-1.27-2.69-.71-1.27,1.27Zm-9.01,9.01l2.69.71,1.27-1.27-2.69-.71-1.27,1.27Zm-5.44,9.41l-8.82-6.47-2.27,2.27,8.82,6.47,2.27-2.27Zm11.45-15.41l2.69.71,1.27-1.27-2.69-.71-1.27,1.27Zm-7.39,17.59l5,6.89-4.81,4.81-7.79-10.06-10.06-7.79,4.82-4.81,6.89,5,18.6-18.6,5.95,5.95-18.6,18.6Zm-22.08,7.84l7.54-7.46,4.91,3.21,3.3,5-7.5,7.5-4.17-4.17,7.21-7.18-3.54-2.32-6.62,6.55-1.13-1.13Zm-3.88,20.39l-33.61,33.61-12.46,3.97,3.97-12.46,33.79-33.44,1.13,1.13-33.52,33.16-2.9,9.12,39.42-39.29,4.19,4.19Zm-41.04-54.48l1.98,1.98,2.83-2.83-1.98-1.98-2.83,2.83Zm6.02.21l-6.37,6.37c-.59.59-1.54.59-2.12,0l-2.12-2.12c-.59-.59-.59-1.54,0-2.12l6.37-6.37c.59-.59,1.54-.59,2.12,0l2.12,2.12c.59.59.59,1.54,0,2.12Zm17.49,23.86l2.27,2.27,8.82-6.47-2.27-2.27-8.82,6.47Zm-8.45-12.41l-1.27-1.27-2.69.71,1.27,1.27,2.69-.71Zm-3-3l-1.27-1.27-2.69.71,1.27,1.27,2.69-.71Zm12.01,12.01l-1.27-1.27-2.69.71,1.27,1.27,2.69-.71Zm-3-3l-1.27-1.27-2.69.71,1.27,1.27,2.69-.71Zm-12.01-12.01l-1.27-1.27-2.69.71,1.27,1.27,2.69-.71Zm9.01,9.01l-1.27-1.27-2.69.71,1.27,1.27,2.69-.71Zm1.38,11.58l-18.6-18.6,5.95-5.95,18.6,18.6,6.89-5,4.82,4.81-10.06,7.79-7.79,10.06-4.82-4.81,5-6.89Zm14.33,2.43l-3.55,2.32,58.79,58.59-2.91-9.14-52.33-51.78Zm.21-2.05l53.54,52.97,3.97,12.46-12.46-3.97-53.25-53.25,3.3-5,4.91-3.21Z"/>
</svg>