<?xml version="1.0" encoding="UTF-8"?>
<svg id="Layer_1" data-name="Layer 1" xmlns="http://www.w3.org/2000/svg" width="200" height="200" viewBox="0 0 200 200">
  <defs>
    <style>
      .cls-1, .cls-2, .cls-3, .cls-4, .cls-5, .cls-6 {
        fill-rule: evenodd;
        stroke-width: 0px;
      }

      .cls-2 {
        fill: #faefd3;
      }

      .cls-3 {
        fill: #de8d3c;
      }

      .cls-4 {
        fill: #fb7818;
      }

      .cls-5 {
        fill: #f4dea7;
      }

      .cls-6 {
        fill: #b35124;
      }
    </style>
  </defs>
  <g id="tiger_head">
    <path class="cls-2" d="m99.81,159.86c-.21.04-.41.14-.56.3.11-.11.28-.26.56-.3Zm.19-.05c-1.73-.53-9.16-4.78-9.16-4.78-.23-.13-.5-.16-.76-.09-.26.07-.47.24-.6.48l-.4.71c-1.18-.51-3.44-1.65-4.97-3.5-1.6-1.94-2.99-5.53-3.97-7.71-1.49-3.3-5.95-9.59-5.95-9.59-.21-.3-.56-.46-.92-.42-.36.04-.67.27-.81.6,0,0-.69,1.61-.86,3.32-.05.51-.42,1.17-.81,1.8-.16.26-.33.52-.49.76-.91-1.97-2.5-5.38-3.62-7.51-1.91-3.62-4.86-4.07-4.86-4.07-.52-.09-1.03.25-1.15.76,0,0-.56,2.46-.88,4.75-.08.55-.2,1.04-.35,1.47-1.23-2.85-3.53-8.07-5.12-11.06-2.18-4.08-2.78-8.24-2.78-8.24-.06-.41-.36-.73-.76-.83-.4-.1-.81.06-1.05.39,0,0-1.53,2.17-2.04,4.61-.19.91-.34,2.12-.46,3.26-1.05-2.28-2.2-5.84-1.94-10.09.26-4.4,2.61-9.11,2.61-9.11.17-.33.13-.73-.09-1.04-.22-.3-.59-.46-.95-.4-1.42.21-2.68.42-3.77.43-.86,0-1.61-.12-2.23-.56.79-.36,1.96-1.02,3.67-2.18,1.72-1.17,3.03-2.86,4.07-4.85,1.47-2.82,2.42-6.25,3.35-9.56.61-2.17,1.77-4.12,2.89-5.65.11-.15.18-.33.19-.52.07-1.05.13-2.16.13-2.77,0-.52-.17-1.15-.44-1.77-.53-1.23-1.42-2.43-1.42-2.43-.02-.02-.04-.05-.06-.07,0,0-4.46-5.01-5.44-10.19-.69-3.62-.48-7.45.32-10.39.49-1.82,1.19-3.29,2.1-4.08.17-.15.47-.16.83-.17.91-.02,2.12.19,3.49.52,5.63,1.39,13.58,4.98,13.58,4.98.22.1.46.11.69.05,0,0,8.87-2.55,15.59-5.09,6.37-2.41,14.9,1.35,14.9,1.35.13.06.26.08.4.08h.62c.14,0,.28-.03.4-.08,0,0,8.53-3.77,14.9-1.35,6.72,2.55,15.59,5.09,15.59,5.09.23.07.47.05.69-.05,0,0,7.95-3.58,13.58-4.98,1.36-.34,2.57-.55,3.48-.52.36.01.66.02.83.17.9.79,1.6,2.26,2.1,4.08.8,2.94,1,6.77.32,10.39-.98,5.17-5.44,10.19-5.44,10.19-.02.02-.04.05-.06.07,0,0-.89,1.21-1.42,2.43-.27.62-.44,1.25-.44,1.77,0,.61.06,1.72.13,2.77.01.19.08.37.19.52,1.12,1.53,2.27,3.48,2.89,5.65.93,3.31,1.88,6.74,3.35,9.56,1.04,1.99,2.35,3.68,4.07,4.85,1.71,1.16,2.88,1.82,3.67,2.18-.62.44-1.37.57-2.23.56-1.1,0-2.35-.22-3.77-.43-.37-.06-.74.1-.96.4-.22.3-.25.7-.09,1.04,0,0,2.35,4.7,2.61,9.11.25,4.24-.9,7.8-1.94,10.09-.11-1.14-.27-2.35-.46-3.26-.51-2.45-2.04-4.61-2.04-4.61-.24-.33-.65-.49-1.05-.39-.4.09-.7.42-.76.83,0,0-.6,4.16-2.78,8.24-1.6,2.99-3.89,8.21-5.12,11.06-.14-.43-.27-.92-.35-1.47-.32-2.29-.88-4.75-.88-4.75-.12-.52-.62-.86-1.14-.76,0,0-2.95.45-4.86,4.07-1.12,2.13-2.71,5.54-3.62,7.51-.16-.24-.33-.49-.49-.76-.39-.63-.75-1.29-.81-1.8-.17-1.71-.86-3.32-.86-3.32-.14-.33-.45-.56-.81-.6-.36-.04-.71.12-.92.42,0,0-4.46,6.29-5.95,9.59-.99,2.18-2.37,5.77-3.97,7.71-1.53,1.85-3.8,2.99-4.97,3.5l-.4-.71c-.13-.23-.35-.4-.6-.48-.26-.07-.53-.04-.76.09,0,0-7.43,4.25-9.16,4.78Zm.19.05c.28.04.45.19.56.3-.15-.16-.34-.26-.56-.3Z"/>
    <path class="cls-4" d="m79.6,87.2l2.13.87c2.13.86,4.72,3.94,4.72,3.94,0,0-.17,1.95-4.37.65-2.32-.72-2.48-5.46-2.48-5.46Zm43.48,0s-.17,4.74-2.49,5.46c-4.2,1.3-4.34.15-4.34.15,0,0,.5-3.88,2.63-4.74,2.13-.87,4.2-.87,4.2-.87Z"/>
    <path class="cls-3" d="m85.63,97.93l-12.23,12.64c-9.65,2.64-13.39-9.48-9.49-23.36.29-1.04-4.82,13.99-4.24,7.36.24-2.76,1.16-9.27-7.7-1.46-5.61,4.94,9.49-23.49,10.87-27.78,1.38-4.29-3.75-12.37-3.75-12.37,0,0,4.73,2.03,9.47,2.03s10.45-2.29,15.59-4.34c5.12-2.06,15.69.57,15.69.57h.46s10.54-2.63,15.69-.57c5.12,2.06,10.85,4.34,15.56,4.34s9.49-2.03,9.49-2.03c0,0-5.49,8.09-4.13,12.38,1.39,4.29,16.83,32.71,11.25,27.77-8.88-7.81-7.95-1.3-7.7,1.46.59,6.63-4.53-8.4-4.25-7.36,3.91,13.88.15,26.01-9.49,23.36l-12.23-12.64c-.12-.27-.25-.54-.37-.82,2.37.12,5.95.11,9.71-2.68,1.23-.91,1.33.05,2.43-1.19,1.88-2.08,3.17-5.25,3.2-10.01.06-6.22.22-10.34-7.86-16.5-9.4-7.15-3.54,3.65-3.54,3.65,0,0-7.64-1.26-5.45.56,6.9,5.71.34,7.88-1.23,6.5-1.91-1.65-4.75-2.75-10.14-4.22,0,0,.15,4.28,2.06,6.23,1.23,1.25,2.03,9.74,3.08,11.24,1.11,1.61,5.73-3.89,5.73-2.52s.46,5.45,2,8.95c-.15,0-.31-.01-.43-.02l.8.84c.65,1.27,1.42,2.4,2.4,3.21,1.6,1.33,3.7,3.93,2.8,3.44-2.59-1.36-6.41,1.73-7.64,7.98l-3.45-1.9-8.81,1.59-8.81-1.64-3.02,1.79c-2.74-7.65-5.52-9.17-8.08-7.81-.91.48,1.76-2.11,3.36-3.44.99-.81,1.79-1.94,2.4-3.21l.83-.84c-.15,0-.28.02-.43.02,1.51-3.49,2-7.65,2-8.95,0-1.37,4.59,4.13,5.7,2.52,1.05-1.5,1.88-9.99,3.11-11.24,1.91-1.94,2.03-6.23,2.03-6.23-5.18,1.41-7.98,2.48-9.89,4.03-1.73,1.41-8.38-.6-1.48-6.31,2.22-1.82-4.47-.81-4.47-.81.74-1.15,5.55-10.71-5-2.4-5.75,4.54-7.34,7.84-7.37,15.5-.02,4.76,1.33,7.92,3.2,10.01,1.12,1.24,1.2.28,2.43,1.19,3.75,2.78,7.35,2.79,9.72,2.68-.12.28-.25.55-.4.82Z"/>
    <path class="cls-6" d="m88.59,112.01l1.9,4.02,3.89-.2,2.79,5.81,2.6,1.15,3.7-1.62,1.62-5.54,4.48.14,2.09-3.41-2.67-1.47-8.38,1.68h-2.01l-7.03-1.84-2.98,1.29Z"/>
    <path class="cls-5" d="m83.03,127.44l7.17,18.04,19.27.34,5.77-18.18-6.42-.88-19.66-.27c-3.88-.29-5.54.15-6.13.95Z"/>
    <path class="cls-1" d="m99.95,160.84c-1.42-.29-9.6-4.93-9.6-4.93l-.82,1.48s-3.88-1.32-6.19-4.11c-1.65-2-3.1-5.69-4.11-7.93-1.47-3.25-5.85-9.43-5.85-9.43,0,0-.63,1.47-.78,3.03s-2.5,4.41-2.5,4.41c0,0-2.66-5.88-4.3-9-1.64-3.12-4.14-3.55-4.14-3.55,0,0-.55,2.42-.86,4.67-.31,2.25-1.41,3.72-1.41,3.72,0,0-3.67-8.74-5.94-12.98-2.27-4.24-2.89-8.57-2.89-8.57,0,0-1.41,1.99-1.88,4.24-.47,2.25-.7,6.4-.7,6.4,0,0-4.14-5.62-3.67-13.5.27-4.59,2.71-9.49,2.71-9.49-3.67.54-6.32,1.08-7.9-1.61,0,0,.89.19,4.86-2.52,3.97-2.7,5.49-8.45,7.02-13.86.65-2.29,1.86-4.35,3.04-5.97.07-1.03.13-2.11.13-2.7,0-1.35-1.66-3.61-1.66-3.61,0,0-4.65-5.25-5.68-10.66-1.19-6.29.2-13.2,2.74-15.41,2.54-2.22,18.96,5.17,18.96,5.17,0,0,8.82-2.53,15.51-5.07,6.69-2.53,15.65,1.37,15.65,1.37h.62s8.96-3.91,15.66-1.37c6.69,2.53,15.51,5.07,15.51,5.07,0,0,16.43-7.39,18.96-5.17,2.53,2.22,3.93,9.12,2.74,15.41-1.03,5.41-5.68,10.66-5.68,10.66,0,0-1.66,2.26-1.66,3.61,0,.59.06,1.67.13,2.7,1.18,1.61,2.4,3.68,3.04,5.97,1.53,5.41,3.05,11.15,7.02,13.86,3.97,2.71,4.86,2.52,4.86,2.52-1.58,2.69-4.23,2.16-7.9,1.61,0,0,2.44,4.9,2.71,9.49.47,7.87-3.67,13.5-3.67,13.5,0,0-.24-4.15-.7-6.4-.47-2.25-1.88-4.24-1.88-4.24,0,0-.63,4.33-2.89,8.57-2.27,4.24-5.94,12.98-5.94,12.98,0,0-1.09-1.47-1.41-3.72-.31-2.25-.86-4.67-.86-4.67,0,0-2.5.43-4.14,3.55s-4.3,9-4.3,9c0,0-2.34-2.86-2.5-4.41s-.78-3.03-.78-3.03c0,0-4.39,6.18-5.85,9.43-1.02,2.25-2.46,5.93-4.11,7.93-2.31,2.79-6.19,4.11-6.19,4.11l-.83-1.48s-8.19,4.64-9.6,4.93v.02s-.02,0-.03,0c0,0-.01,0-.02,0s-.01,0-.02,0c0,0-.02,0-.03,0v-.02Zm.05-106.65c-.19.23-.43.31-.43.31,0,0-2.27-.54-5.26-1.01-2.99-.47-6.49-.61-6.49-.61,0,0,5-.47,6.75-.47,1.36,0,3.68-.33,4.85.07v-.04c-.43-.21-1.5-.63-3.96-1.27-3.63-.95-9.99-.2-13.38,1.28l-9.98,3.24s1.23.2,4.8.74c3.57.54,7.59.27,7.59.27,0,0-6.29,1.89-11.55,1.08-5.26-.81-11.36-3.45-11.36-3.45,0,0,1.62,1.82,4.48,6.62,2.86,4.8,6.49,4.73,6.49,4.73,0,0-.84.95-2.4.95s-2.47-.95-2.47-.95c0,0-.06,1.08.58,2.43.65,1.35,3.11,1.55,3.11,1.55,0,0-3.83,2.84-7.91,4.12-2.53.79-4.44,2.47-5.52,3.63,3.53-1.62,6.53-1.88,7.24-1.19l-8.63,5.51,4.49.22s-7.68,4.31-8.46,11.92c-.66,6.35-6.68,8.81-6.68,8.81l6.93-1.38c-3.49,4.08-4.72,10.25-4,13.53l4.98-8.11c.1,5.02-1.39,6.64,2.63,13.51,1.5,2.57,1.94,8.39,1.94,8.39l2.85-6.61c2.59,2.58,5.03,4.77,8.02,12.58l1.28-7.21c3.23,2.84,6.15,7.51,9.19,13.89,1.12-1.27-1.34-13.06-8.03-23.08-.89-.89-2.61,7.13-2.56,6.04.18-4.08-3.61-9.95-4.27-10.22-3.97-1.69-5.47,3.8-5.47,3.8,0,0,.3-2.2-.92-6.42-1.22-4.22.92-8.11.92-8.11l-3.97,4.39s1.83-13.35,5.34-20.79c1.49-3.16,4.37-6.57,7.18-9.44,2.23-4.3,8.58-9.03,8.58-9.03,0,0-5.17,10.34-3.65,13.2,1.52,2.85,1.42,3.06,5.98,4.54,2.66.86,5.01,2.41,6.5,3.55l-1.39-5.87c-.1-.14-.2-.28-.3-.42-2.01-2.91-3.65-6.45-1.59-9.42,2.06-2.97,4.17-4.31,7.93-4.58,3.76-.27,3.66-.01,5.22-.89,1.56-.88,1.95-.41,1.95-.41,0,0-2.08,4.59-5.58,4.93-3.5.34-5.04.36-6.75,3.22-1.01,1.68-.47,5.02.32,7.58,2.13,2.01,5.93,5.4,7.97,6.21,2.94,1.16,4.04-.65,4.04-.65,0,0-.69,2.13-2.57,3.19-1.87,1.06-4.01.21-4.01.21,0,0,4.46,1.9,5.78,4.54,1.32,2.64-1.22,9.4-1.22,9.4,0,0-.3-6.44-1.52-8.78-1.22-2.34-3.85-2.73-3.85-2.73l-.64,1.48s1.25.63,2.37,2.11c1.11,1.48,1.22,3.59,1.22,3.59,0,0-1.52-1.8-3.81-3.06-2.29-1.27-3.99.84-3.99.84,1.48-1.39,7.8,6.72,4.22,3.69-1.92-1.62-4.32-1.79-6.76-1.58-2.43.21-2.84,6.44-2.74,10.24.1,3.8,11.05,7.92,11.05,7.92,0,0-7.4-1.9-11.15-4.22-3.63-2.25-2.61-5.69-2.08-8.88-1.22,1.76-2.41,3.68-3.13,5.39-.44,1.05-.52,2.25-.38,3.47.57.96,1.53,2.08,3.16,3.15,4.14,2.7,10.87,3.04,10.87,3.04,0,0-3.9,2.09-7.38,1.96,1.3.43,3.08.95,4.97,1.32,3.83.74,9.02,0,11.81-.74.76-.2,1.29-.49,1.66-.81v-1.26l-2.98-.8s-.06-2.65-1.87-4.11c-1.81-1.45-2.93-1.9-2.93-1.33s-.06,1.77-.06,1.77c0,0-2.53-3.85-3.22-5.81-.35-1-.1-5.81-.1-5.81,0,0,1.58,3.39,4.39,3.43,3.81.06,5.41,1.05,6.6,1.43.38.12.76.17,1.1.18.35-.01.73-.06,1.1-.18,1.19-.38,2.79-1.37,6.6-1.43,2.81-.04,4.39-3.43,4.39-3.43,0,0,.25,4.81-.1,5.81-.69,1.96-3.22,5.81-3.22,5.81,0,0-.06-1.2-.06-1.77s-1.12-.13-2.93,1.33c-1.81,1.45-1.87,4.11-1.87,4.11l-2.98.8v1.26c.37.32.9.61,1.66.81,2.79.74,7.98,1.49,11.81.74,1.9-.37,3.67-.89,4.98-1.32-3.48.13-7.38-1.96-7.38-1.96,0,0,6.73-.34,10.87-3.04,1.63-1.07,2.6-2.19,3.16-3.15.14-1.22.06-2.42-.38-3.47-.72-1.71-1.91-3.64-3.13-5.39.53,3.19,1.56,6.63-2.08,8.88-3.75,2.32-11.15,4.22-11.15,4.22,0,0,10.95-4.12,11.05-7.92.1-3.8-.3-10.03-2.74-10.24-2.43-.21-4.84-.04-6.76,1.58-3.57,3.03,2.74-5.08,4.22-3.69,0,0-1.7-2.11-3.99-.84-2.29,1.27-3.81,3.06-3.81,3.06,0,0,.1-2.11,1.22-3.59,1.12-1.48,2.37-2.11,2.37-2.11l-.64-1.48s-2.64.39-3.85,2.73c-1.22,2.34-1.52,8.78-1.52,8.78,0,0-2.53-6.76-1.22-9.4,1.32-2.64,5.78-4.54,5.78-4.54,0,0-2.13.85-4.01-.21-1.87-1.06-2.57-3.19-2.57-3.19,0,0,1.1,1.81,4.04.65,2.04-.8,5.83-4.2,7.97-6.21.79-2.56,1.33-5.89.32-7.58-1.71-2.85-3.24-2.88-6.75-3.22-3.5-.34-5.58-4.93-5.58-4.93,0,0,.39-.47,1.95.41,1.56.88,1.45.62,5.22.89,3.76.27,5.88,1.61,7.94,4.58,2.06,2.97.42,6.51-1.59,9.42-.1.14-.2.28-.3.42l-1.39,5.87c1.49-1.14,3.84-2.68,6.5-3.55,4.56-1.48,4.46-1.69,5.98-4.54,1.52-2.85-3.65-13.2-3.65-13.2,0,0,6.35,4.72,8.58,9.03,2.81,2.87,5.68,6.28,7.17,9.44,3.51,7.44,5.34,20.79,5.34,20.79l-3.97-4.39s2.14,3.89.92,8.11c-1.22,4.22-.92,6.42-.92,6.42,0,0-1.51-5.49-5.47-3.8-.66.28-4.45,6.14-4.27,10.22.05,1.1-1.67-6.93-2.56-6.04-6.68,10.01-9.15,21.8-8.03,23.08,3.03-6.38,5.96-11.05,9.19-13.89l1.27,7.21c2.99-7.81,5.43-10,8.02-12.58l2.85,6.61s.44-5.82,1.94-8.39c4.02-6.87,2.53-8.5,2.63-13.51l4.98,8.11c.72-3.28-.51-9.45-4-13.53l6.93,1.38s-6.03-2.46-6.68-8.81c-.79-7.61-8.46-11.92-8.46-11.92l4.49-.22-8.63-5.51c.71-.69,3.71-.43,7.24,1.19-1.09-1.16-2.99-2.83-5.52-3.63-4.09-1.28-7.92-4.12-7.92-4.12,0,0,2.47-.2,3.11-1.55.65-1.35.58-2.43.58-2.43,0,0-.91.95-2.47.95s-2.4-.95-2.4-.95c0,0,3.63.07,6.49-4.73,2.86-4.8,4.48-6.62,4.48-6.62,0,0-6.1,2.64-11.35,3.45-5.26.81-11.55-1.08-11.55-1.08,0,0,4.02.27,7.59-.27,3.57-.54,4.8-.74,4.8-.74l-9.98-3.24c-3.39-1.49-9.75-2.23-13.38-1.28-2.45.64-3.52,1.06-3.96,1.27v.04c1.17-.4,3.48-.07,4.85-.07,1.75,0,6.75.47,6.75.47,0,0-3.5.13-6.49.61-2.99.47-5.26,1.01-5.26,1.01,0,0-.24-.08-.43-.31Zm0,58.92c-.46,0-.89-.04-1.3-.13-.68-.1-1.43-.27-2.18-.57-2.37-.95-4.35-1.46-5.35-1.08-1,.38-1.83.7-1.46,1.46.37.76.69,1.89.69,1.89,0,0,.12-1.64,1.62-1.58,1.5.06,4.44,1.14,4.93,2.91.5,1.77.12,4.49.12,4.49,0,0,2.21.65,2.91.96.7-.31,2.91-.96,2.91-.96,0,0-.37-2.72.12-4.49.5-1.77,3.44-2.84,4.93-2.91,1.5-.06,1.62,1.58,1.62,1.58,0,0,.31-1.13.69-1.89.38-.76-.46-1.08-1.46-1.46-1-.38-2.98.13-5.35,1.08-.75.3-1.5.47-2.18.57-.41.09-.84.13-1.3.13Zm-.05,14.76c-3.66,0-7.71.07-7.67.2.37,1.14.89,1.9,1.55,2.49.22-.91.51-1.68.9-2.28.26.72.65,1.18,1.12,1.5.04-.13.71-.98,1.01-1.63.26.8.67,1.3,1.16,1.63.04-.13.7-.96,1.01-1.62.27.59.84,1.33.98,1.56.14-.24.7-.97.98-1.56.3.66.96,1.48,1.01,1.62.49-.33.9-.83,1.16-1.63.3.66.97,1.5,1.01,1.63.47-.32.86-.78,1.12-1.5.39.6.68,1.38.9,2.28.66-.59,1.18-1.35,1.55-2.49.04-.13-4.01-.2-7.67-.2h-.1Zm.05,13.05c-.22.35-.52.84-.7,1.2,0,.02-.01.03-.02.05,0-.01-.01-.03-.02-.05-.31-.62-.98-1.65-.98-1.65,0,0-.66.98-.79,1.61-.32-.62-.96-1.61-.96-1.61,0,0-.73,1.09-.81,1.71-.05-.05-.12-.11-.2-.18-.42-.34-.91-1.62-.91-1.62,0,0-.93,2.04-.43,2.51.5.47,1.41.33,1.56-.09.03-.07.05-.14.07-.19.18.39.48.59.92.42.34-.13.71-.21.83-.43.18.4.48.6.92.43.32-.12.66-.2.8-.4.13.18.43.26.72.36.29-.11.59-.19.72-.36.14.19.49.27.8.4.45.17.74-.04.92-.43.12.22.49.3.83.43.44.17.74-.04.92-.42.02.05.04.12.07.19.15.42,1.06.56,1.56.09.5-.47-.43-2.51-.43-2.51,0,0-.49,1.28-.91,1.62-.09.07-.15.13-.2.18-.07-.62-.81-1.71-.81-1.71,0,0-.64.99-.96,1.61-.13-.63-.79-1.61-.79-1.61,0,0-.67,1.03-.98,1.65,0,.02-.02.03-.02.05,0-.01-.01-.03-.02-.05-.18-.35-.48-.84-.7-1.2Zm.06,5.04h-.12s-5.19.41-7.33,1.28c-2.14.88-3.44.47-6.1-2.3-2.66-2.77-2.27-9.6-2.27-9.6-.98.63-1.98,7.81-.38,11.73,1.74,4.26,4,5.65,4,5.65l1.59-2.76c-.24.41,4.35,5.56,4.35,5.56,0,0-.35-3.91.4-3.38.55.38,2.44,4.41,2.96,4.72,1.1.64,2.09,1.08,2.8,1.12h0s.03,0,.04,0,.03,0,.04,0c0,0,0,0,0,0h0c.7-.04,1.7-.47,2.8-1.12.52-.31,2.41-4.34,2.96-4.72.75-.52.4,3.38.4,3.38,0,0,4.59-5.15,4.35-5.56l1.59,2.76s2.27-1.39,4-5.65c1.59-3.91.59-11.1-.38-11.73,0,0,.39,6.82-2.27,9.6-2.66,2.77-3.96,3.18-6.1,2.3-2.14-.88-7.33-1.28-7.33-1.28Zm-.06-65.66c-.08.18-.18.28-.31.29-1.53.16-2.25.92-2.72,2.7-.47,1.78-1.19,4.22-1.87,5.08-.68.86-1.14,1.03-1.14,1.03,0,0,.99-1.73.52-4.38-.47-2.65-1.04-3.35-.21-4.97.83-1.62,2.13-4.92,2.13-4.92,0,0-.73-.32-2.23.92-1.5,1.24-2.34,3.89-3.11,5.35-.78,1.46-2.13,2.05-2.13,2.05,0,0,.57-3.08,1.97-5.73,1.4-2.65,2.8-3.68,4.05-4.05,1.25-.38,2.23-1.51,3.01-3.41.78-1.89,1.45-3.3,1.45-3.3,0,0,.33,2.46.59,5.3.26-2.83.59-5.3.59-5.3,0,0,.68,1.41,1.45,3.3.78,1.89,1.76,3.03,3.01,3.41,1.25.38,2.65,1.4,4.05,4.05,1.4,2.65,1.97,5.73,1.97,5.73,0,0-1.35-.59-2.13-2.05-.78-1.46-1.61-4.11-3.11-5.35-1.51-1.24-2.23-.92-2.23-.92,0,0,1.3,3.3,2.13,4.92.83,1.62.26,2.32-.21,4.97-.47,2.65.52,4.38.52,4.38,0,0-.47-.16-1.14-1.03-.67-.86-1.4-3.3-1.87-5.08-.47-1.78-1.19-2.54-2.72-2.7-.12-.01-.23-.12-.31-.29Zm-18.55,4.73s-5.51-2.77-6.49-4.39c-.97-1.62,1.97-6.35,1.97-6.35,0,0-.09.94-.47,2.91-.38,1.96,1.16,3.11,2.2,4.32,1.04,1.22,2.79,3.51,2.79,3.51Zm37.1,0s1.75-2.3,2.79-3.51c1.04-1.22,2.59-2.36,2.2-4.32-.38-1.96-.47-2.91-.47-2.91,0,0,2.94,4.73,1.97,6.35-.97,1.62-6.49,4.39-6.49,4.39Zm-18.55-20.28c-.71.01-2.04.12-4.32.5-4.02.68-13.24,1.72-13.24,1.72,0,0,2.53-2.8,7.4-4.02,4.87-1.22,7.91-2.23,9.41-.88.31.28.56.57.75.84.2-.27.44-.55.75-.84,1.49-1.35,4.54-.34,9.41.88,4.87,1.22,7.4,4.02,7.4,4.02,0,0-9.21-1.05-13.24-1.72-2.29-.38-3.61-.48-4.32-.5Zm0-6.34c-.43.16-.98.28-1.66.35-2.6.27-4.09,1.69-5.84,1.49-1.75-.2-1.43-1.08-3.37-.88-1.95.2-4.87,1.35-4.87,1.35,0,0,4.22-2.84,7.85-3.51,2.29-.43,5.26-1.26,7.2-1.47.19-.04.42-.06.69-.05.27,0,.5.01.69.05,1.94.21,4.91,1.05,7.2,1.47,3.63.68,7.85,3.51,7.85,3.51,0,0-2.92-1.15-4.87-1.35-1.95-.2-1.62.67-3.37.88-1.75.2-3.24-1.22-5.84-1.49-.68-.07-1.23-.19-1.66-.35Zm-15.8,69.65c-.18-.58.99,3.56,1.52,4.62.42.84,1.21,2.13,1.75,2.89.1.14.26.05.24-.17-.07-.66-.18-2.19-.17-2.85.05-2.7.5-3.9.83-4.48.27-.49-.02-.72-.25-.85-1.22-.71-3.21-.46-3.82.04-.09.08-.27.21-.09.81Zm-28.77-51.62l1.37-2.49s-4.78-5.78-5.61-10.27c-.83-4.49-.47-6.27-.47-6.27,0,0,1.09,3.84,3.94,4.43,2.86.6,6.38,1.89,6.38,1.89,0,0-1.76-3.84-3.68-4.6-1.92-.75-2.96-1.24-3.48-2.65-.52-1.4-.31-1.35-.31-1.35,0,0,1.66.97,3.06,1.57s4.88,1.95,4.88,1.95c0,0-4.15-5.89-6.69-6.65-2.54-.76-4.67-1.57-5.45.32-.78,1.89-1.61,12.49.05,15.14,1.66,2.65,5.4,6.82,5.4,6.82l.61,2.15Zm34.13,62.07s-.45,2.63.8,4.86c.31.55,1.57.63,2.32.57s1.02-1.39,1.02-1.39c0,0-.72-.34-1.66-1.08-.94-.74-2.48-2.96-2.48-2.96Zm-4.27-46.85c-.62-.76-1.37-1.56-2.2-2.23-.13,0-.31.03-.49.22-.35.36-.37,1.44-.37,1.44,0,0-.96-1.69-1.28-2.38-.14-.31-.56-.56-.97-.75,0,0,0,0-.01,0-.65-.07-1.21-.1-1.69-.1.06.42.16,1.01.3,1.83.42,2.33,3.11,3.14,5.19,2.76.92-.17,1.33-.48,1.5-.79Zm-5.65,11.63c1.98-2.51,4.81-5.28,6.12-7.14-.26-.59-.78-1.47-1.72-1.75-1.45-.43-3.37-.43-5.29-1.51-1.43-.8-2-3.56-2.19-4.91-1.03.11-1.77.16-3.1-.5-.1.02-.2.05-.31.07-1.25.35-1.62.91-1.62.91,0,0,2.04.74,2.7,2.47.67,1.73,1.87,3.28,2.45,3.67.58.39-.5.56-2.08-.22-1.58-.78-1.66-1.9-1.66-1.9,0,0-.07,1.96,1.08,4.28.71,1.43,2.53,2.59,3.94,2.59s2.53-.13,2.53-.13c0,0-5.31,2.38-8.39-.04-3.07-2.42-3.99-6.1-3.44-9.08.39-2.1,1.32-3.73,1.83-4.51-1.21-.96-2.36-2.18-2.92-3.61-.09.18-.17.35-.25.53-2.44,5.41-3.97,7.94-3.82,16.73.15,8.79,8.55,11.83,8.55,11.83,0,0,1.22-1.35,3.05-3.72,1.01-1.3,2.97-2.89,4.52-4.05Zm36.17,24.77c.18-.6,0-.73-.09-.81-.61-.5-2.6-.75-3.82-.04-.23.13-.52.37-.25.85.32.58.78,1.79.83,4.48,0,.66-.1,2.19-.17,2.85-.02.22.14.31.24.17.54-.76,1.33-2.05,1.75-2.89.53-1.06,1.7-5.2,1.52-4.62Zm4.56-24.77c1.55,1.16,3.51,2.75,4.52,4.05,1.83,2.36,3.05,3.72,3.05,3.72,0,0,8.4-3.04,8.55-11.83.15-8.79-1.37-11.32-3.82-16.73-.08-.18-.16-.35-.25-.53-.56,1.43-1.71,2.65-2.92,3.61.52.78,1.45,2.41,1.84,4.51.55,2.98-.37,6.66-3.44,9.08-3.07,2.42-8.39.04-8.39.04,0,0,1.12.13,2.53.13s3.24-1.17,3.94-2.59c1.15-2.32,1.08-4.28,1.08-4.28,0,0-.08,1.12-1.66,1.9-1.58.78-2.66.61-2.08.22.58-.39,1.79-1.95,2.45-3.67.66-1.73,2.7-2.47,2.7-2.47,0,0-.37-.56-1.62-.91-.1-.03-.21-.05-.31-.07-1.33.66-2.07.61-3.1.5-.2,1.35-.76,4.11-2.19,4.91-1.92,1.08-3.84,1.08-5.29,1.51-.93.28-1.46,1.16-1.72,1.75,1.31,1.86,4.14,4.63,6.12,7.14Zm24.21-26.85l.61-2.15s3.74-4.17,5.4-6.82c1.66-2.65.83-13.24.05-15.14-.78-1.89-2.91-1.08-5.45-.32-2.54.76-6.7,6.65-6.7,6.65,0,0,3.48-1.35,4.88-1.95s3.06-1.57,3.06-1.57c0,0,.21-.05-.31,1.35-.52,1.41-1.56,1.89-3.48,2.65-1.92.76-3.69,4.6-3.69,4.6,0,0,3.53-1.3,6.38-1.89,2.86-.59,3.94-4.43,3.94-4.43,0,0,.36,1.78-.47,6.27-.83,4.48-5.61,10.27-5.61,10.27l1.37,2.49Zm-29.86,15.22c.17.3.58.62,1.5.79,2.08.38,4.78-.43,5.19-2.76.15-.82.24-1.41.3-1.83-.48,0-1.03.02-1.69.1,0,0,0,0-.01,0-.41.19-.83.44-.97.75-.32.69-1.28,2.38-1.28,2.38,0,0-.03-1.08-.37-1.44-.18-.19-.36-.22-.49-.22-.83.67-1.58,1.47-2.2,2.23Zm-4.27,46.85s-1.53,2.22-2.48,2.96c-.94.74-1.66,1.08-1.66,1.08,0,0,.26,1.33,1.02,1.39s2.02-.02,2.32-.57c1.25-2.24.8-4.86.8-4.86Z"/>
    <path class="cls-6" d="m100.07,139.59c-3.1.35-4.88.28-6.12-1.38l-1.34-6.92s4.5.88,5.84,1.98c.61.5,1.14,1.09,1.54,1.58.38-.49.89-1.08,1.49-1.58,1.31-1.09,5.78-1.98,5.78-1.98l-1.12,6.92c-1.19,1.66-2.96,1.74-6.07,1.38Z"/>
  </g>
</svg>