<?xml version="1.0" encoding="UTF-8"?>
<svg id="Layer_1" data-name="Layer 1" xmlns="http://www.w3.org/2000/svg" width="200" height="200" viewBox="0 0 200 200">
  <defs>
    <style>
      .cls-1 {
        fill: #fff;
      }

      .cls-1, .cls-2 {
        fill-rule: evenodd;
        stroke-width: 0px;
      }

      .cls-2 {
        fill: #10376f;
      }
    </style>
  </defs>
  <path class="cls-1" d="m75.2,111.56l-38.85-8.63c-1.37-.31-2.35-1.52-2.35-2.93s.98-2.62,2.35-2.93l38.85-8.63-15.91-25.01c-.75-1.19-.58-2.74.41-3.73.99-.99,2.55-1.17,3.73-.41l25.01,15.91,8.63-38.85c.31-1.37,1.52-2.35,2.93-2.35s2.62.98,2.93,2.35l8.63,38.85,25.01-15.91c1.19-.76,2.74-.58,3.73.41.99.99,1.17,2.55.41,3.73l-15.91,25.01,38.85,8.63c1.37.31,2.35,1.52,2.35,2.93s-.98,2.62-2.35,2.93l-38.85,8.63,15.91,25.01c.76,1.19.58,2.74-.41,3.73-.99.99-2.55,1.16-3.73.41l-25.01-15.91-8.63,38.85c-.31,1.37-1.52,2.35-2.93,2.35s-2.62-.98-2.93-2.35l-8.63-38.85-25.01,15.91c-1.19.75-2.74.58-3.73-.41-.99-.99-1.16-2.55-.41-3.73l15.91-25.01Z"/>
  <path class="cls-2" d="m100,100l9.55-9.55-9.55-42.95v52.5Zm0,0l-9.55-9.55-42.95,9.55h52.5Zm0,0l-9.55,9.55,9.55,42.95v-52.5Zm0,0l9.55,9.55,42.95-9.55h-52.5Zm11.45,11.45l-1.45,6.54,21.98,13.98-20.52-20.52Zm-22.91,0l-6.54-1.45-13.98,21.98,20.52-20.52Zm22.91-22.91l6.54,1.45,13.98-21.98-20.52,20.52Zm-22.91,0l1.45-6.54-21.98-13.98,20.52,20.52Zm-8.51,21.02l-43.03-9.56,43.03-9.56-18.21-28.62,28.62,18.21,9.56-43.03,9.56,43.03,28.62-18.21-18.21,28.62,43.03,9.56-43.03,9.56,18.21,28.62-28.62-18.21-9.56,43.03-9.56-43.03-28.62,18.21,18.21-28.62Z"/>
</svg>