<svg xmlns="http://www.w3.org/2000/svg" width="200" height="200" viewBox="0 0 200 200">
  <defs>
    <style>
      .cls-1 {
        fill: #fff;
      }

      .cls-2 {
        fill: #1e1e1e;
      }
    </style>
  </defs>
  <g id="Layer_3" data-name="Layer 3">
    <g>
      <g>
        <g>
          <polygon class="cls-1" points="57.453 164.118 31.5 164.118 31.5 62.521 44.477 39.299 44.477 39.299 57.453 62.521 57.453 164.118"/>
          <path class="cls-2" d="M57.453,165.46523H31.50027a1.34782,1.34782,0,0,1-1.34779-1.34779V62.521a1.35211,1.35211,0,0,1,.1706-.65777L43.29942,38.64179a1.34917,1.34917,0,0,1,2.3544,0L58.63017,61.86324a1.35221,1.35221,0,0,1,.17059.65777V164.11744A1.34782,1.34782,0,0,1,57.453,165.46523Zm-24.6049-2.69559h23.2571V62.87239L44.47662,42.063,32.84807,62.87239Z"/>
        </g>
        <g>
          <polygon class="cls-1" points="85.867 164.118 59.914 164.118 59.914 62.521 72.891 39.299 72.891 39.299 85.867 62.521 85.867 164.118"/>
          <path class="cls-2" d="M85.867,165.46523H59.91431a1.34782,1.34782,0,0,1-1.3478-1.34779V62.521a1.35222,1.35222,0,0,1,.1706-.65777L71.71346,38.64179a1.34917,1.34917,0,0,1,2.35439,0L87.0442,61.86324a1.35222,1.35222,0,0,1,.1706.65777V164.11744A1.34783,1.34783,0,0,1,85.867,165.46523Zm-24.6049-2.69559H84.51921V62.87239L72.89065,42.063,61.2621,62.87239Z"/>
        </g>
        <g>
          <polygon class="cls-1" points="114.281 164.118 88.328 164.118 88.328 62.521 101.305 39.299 101.305 39.299 114.281 62.521 114.281 164.118"/>
          <path class="cls-2" d="M114.281,165.46523H88.32834a1.34782,1.34782,0,0,1-1.34779-1.34779V62.521a1.35221,1.35221,0,0,1,.17059-.65777l12.97635-23.22145a1.34917,1.34917,0,0,1,2.3544,0l12.97634,23.22145a1.35211,1.35211,0,0,1,.1706.65777V164.11744A1.34782,1.34782,0,0,1,114.281,165.46523Zm-24.60489-2.69559h23.2571V62.87239L101.30469,42.063,89.67614,62.87239Z"/>
        </g>
        <g>
          <polygon class="cls-1" points="142.695 164.118 116.742 164.118 116.742 62.521 129.719 39.299 129.719 39.299 142.695 62.521 142.695 164.118"/>
          <path class="cls-2" d="M142.69507,165.46523h-25.9527a1.34782,1.34782,0,0,1-1.34779-1.34779V62.521a1.35221,1.35221,0,0,1,.17059-.65777l12.97635-23.22145a1.34917,1.34917,0,0,1,2.3544,0l12.97635,23.22145a1.35221,1.35221,0,0,1,.17059.65777V164.11744A1.34782,1.34782,0,0,1,142.69507,165.46523Zm-24.6049-2.69559h23.2571V62.87239L129.71872,42.063,118.09017,62.87239Z"/>
        </g>
        <g>
          <polygon class="cls-1" points="171.109 164.118 145.156 164.118 145.156 62.521 158.132 39.299 158.132 39.299 171.109 62.521 171.109 164.118"/>
          <path class="cls-2" d="M171.1091,165.46523H145.15556a1.34782,1.34782,0,0,1-1.3478-1.34779V62.521a1.34381,1.34381,0,0,1,.17145-.65777L156.9564,38.64179a1.34845,1.34845,0,0,1,2.35355,0L172.2863,61.86324a1.35222,1.35222,0,0,1,.1706.65777V164.11744A1.34783,1.34783,0,0,1,171.1091,165.46523Zm-24.60575-2.69559h23.258V62.87239L158.13275,42.063l-11.6294,20.80934Z"/>
        </g>
      </g>
      <g>
        <rect class="cls-1" x="25.95702" y="134.18164" width="150.69518" height="10.14782"/>
        <path class="cls-2" d="M176.6522,145.67692H25.95717a1.34783,1.34783,0,0,1-1.34779-1.3478v-10.1475a1.34782,1.34782,0,0,1,1.34779-1.3478h150.695A1.34782,1.34782,0,0,1,178,134.18162v10.1475A1.34783,1.34783,0,0,1,176.6522,145.67692ZM27.305,142.98133H175.30441v-7.45192H27.305Z"/>
      </g>
      <rect class="cls-2" x="29.99714" y="144.83685" width="142.06953" height="7.61087"/>
      <g>
        <rect class="cls-1" x="25.95702" y="76.84643" width="150.69518" height="10.14782"/>
        <path class="cls-2" d="M176.6522,88.34215H25.95717a1.34782,1.34782,0,0,1-1.34779-1.34779V76.84685a1.34782,1.34782,0,0,1,1.34779-1.34779h150.695A1.34782,1.34782,0,0,1,178,76.84685V86.99436A1.34782,1.34782,0,0,1,176.6522,88.34215ZM27.305,85.64656H175.30441V78.19465H27.305Z"/>
      </g>
      <rect class="cls-2" x="29.99714" y="87.50165" width="142.06953" height="7.61087"/>
    </g>
  </g>
</svg>
