<svg width="30" height="30" viewBox="0 0 30 30" fill="none" xmlns="http://www.w3.org/2000/svg">
<path fill-rule="evenodd" clip-rule="evenodd" d="M16.5 30L30 16.5V13.5L16.5 0H13.5L0 13.5V16.5L13.5 30L16.5 30ZM29 16V14L16 1L14 0.999999L1 14V16L14 29L16 29L29 16ZM29.9995 23V30H22.9995V24.5L24.4995 23H29.9995ZM27.9993 29H26.9993L25.9993 29L24.9993 29H23.9993V28H24.9993V25L23.9993 25L24.9993 24H25.9993H26.9993H27.9993H28.9993V25H27.9993V28H28.9993V29L27.9993 29ZM26.9993 25L25.9993 25V28H26.9993V25ZM19 14C21.2091 14 23 12.2091 23 10C23 7.79086 21.2091 6 19 6C16.7909 6 15 7.79086 15 10C15 12.2091 16.7909 14 19 14ZM18.5 12.5V10.5H16.5V9.5H18.5V7.5H19.5V9.5H21.5V10.5H19.5V12.5H18.5ZM19.6596 14.9569L22 19.0527H18.6315L20.3157 22H7.6845L9.36863 19.0527H6L12.3156 8.00006L13.9999 10.9477L14.0001 10.9474L14.0002 10.9475L14.0683 10.8282C14.2458 11.8934 14.7601 12.8446 15.498 13.5687L17.7895 17.579H19.5177L17.965 14.8928C18.2989 14.963 18.6452 15 19 15C19.2236 15 19.4438 14.9853 19.6596 14.9569ZM13.1628 12.4128L10.2107 17.579H8.48259L12.3158 10.9474L13.1628 12.4128ZM11.0188 19.0527L10.167 20.5264H17.8334L16.9815 19.0527H11.0188ZM11.8707 17.579L14.0002 13.8948L16.1297 17.579H11.8707Z" fill="white"/>
</svg>
