<svg width="30" height="30" viewBox="0 0 30 30" fill="none" xmlns="http://www.w3.org/2000/svg">
<path d="M21.6995 22H9.09985L10.3596 19.9004H20.4397L21.6995 22ZM14.0549 9.25879C14.019 9.50061 14.0002 9.74818 14.0002 10C14.0002 10.3677 14.0401 10.7262 14.1155 11.0713L9.6604 18.5H7.00024L13.3 8L14.0549 9.25879ZM14.7346 12.6094C15.3279 13.5771 16.2414 14.3263 17.3274 14.7119L19.6008 18.5H11.2004L14.7346 12.6094ZM23.8 18.5H21.1409L19.0393 14.998C19.8735 14.9917 20.6585 14.7815 21.3479 14.4141L23.8 18.5ZM19.0002 6C21.2094 6 23.0002 7.79086 23.0002 10C23.0002 12.2091 21.2094 14 19.0002 14C16.7911 14 15.0002 12.2091 15.0002 10C15.0002 7.79086 16.7911 6 19.0002 6ZM18.5002 9.5H16.5002V10.5H18.5002V12.5H19.5002V10.5H21.5002V9.5H19.5002V7.5H18.5002V9.5Z" fill="white"/>
<path fill-rule="evenodd" clip-rule="evenodd" d="M16.5003 -0.000488281L30.0002 13.4995V16.5005L16.5003 30.0005L13.4999 29.9998L0 16.4998V13.5001L13.4999 0.000202253L16.5003 -0.000488281ZM0.999893 14.0001V15.9999L13.9999 28.9999H15.9997L28.9997 15.9999V14.0001L15.9997 1.0001H13.9999L0.999893 14.0001Z" fill="white"/>
</svg>
