<svg width="30" height="30" viewBox="0 0 30 30" fill="none" xmlns="http://www.w3.org/2000/svg">
<path d="M30 13.499V16.501L16.5 30H13.5L0 16.5V13.5L13.5 0H16.5L30 13.499ZM30 26H27V29H30V30H23V29H26V26H23L24 25H30V26ZM1 14V16L14 29H15.999L28.999 16V14L15.999 1H14L1 14ZM21.75 22H8.25L9.59961 19.75H20.4004L21.75 22ZM14.0654 9.19238C14.0414 9.34035 14.0244 9.49055 14.0137 9.64258L8.84961 18.25H6L12.75 7L14.0654 9.19238ZM14.3486 11.834C14.8851 13.1935 15.9994 14.2606 17.3896 14.7334L19.5 18.25H10.5L14.3486 11.834ZM24.001 18.25H21.1504L19.1963 14.9941C20.0786 14.9601 20.9019 14.6985 21.6094 14.2646L24.001 18.25ZM19 6C21.2091 6 23 7.79086 23 10C23 12.2091 21.2091 14 19 14C16.7909 14 15 12.2091 15 10C15 7.79086 16.7909 6 19 6ZM18.5 9.5H16.5V10.5H18.5V12.5H19.5V10.5H21.5V9.5H19.5V7.5H18.5V9.5Z" fill="white"/>
</svg>
