<svg width="30" height="30" viewBox="0 0 30 30" fill="none" xmlns="http://www.w3.org/2000/svg">
<path fill-rule="evenodd" clip-rule="evenodd" d="M16.5 30L30 16.5V13.5L16.5 0H13.5L0 13.5V16.5L13.5 30L16.5 30ZM29 16V14L16 1L14 0.999999L1 14V16L14 29L16 29L29 16ZM29.9995 30.0001V23.0001H24.4995L22.9995 24.5001V30.0001H29.9995ZM28.9995 28.0001V25.0001H28.9993V24.0001H24.9993L23.9995 25.0001V28.0001H23.9993V29.0001L28.9993 29.0001V28.0001H28.9995ZM24.9995 28.0001V25.0001H25.9995V28.0001H24.9995ZM26.9995 28.0001V25.0001H27.9995V28.0001H26.9995ZM19 14C21.2091 14 23 12.2091 23 10C23 7.79086 21.2091 6 19 6C16.7909 6 15 7.79086 15 10C15 12.2091 16.7909 14 19 14ZM18.5 12.5V10.5H16.5V9.5H18.5V7.5H19.5V9.5H21.5V10.5H19.5V12.5H18.5ZM19.6596 14.9569L22 19.0527H18.6315L20.3157 22H7.68449L9.36863 19.0527H6L12.3156 8.00006L13.9999 10.9477L14.0001 10.9474L14.0002 10.9475L14.0683 10.8282C14.2458 11.8934 14.7601 12.8446 15.498 13.5687L17.7895 17.579H19.5177L17.965 14.8928C18.2989 14.963 18.6452 15 19 15C19.2236 15 19.4438 14.9853 19.6596 14.9569ZM13.1628 12.4128L10.2107 17.579H8.4826L12.3158 10.9474L13.1628 12.4128ZM11.0188 19.0527L10.167 20.5264H17.8334L16.9815 19.0527H11.0188ZM11.8707 17.579L14.0002 13.8948L16.1297 17.579H11.8707Z" fill="white"/>
</svg>
