<svg width="30" height="30" viewBox="0 0 30 30" fill="none" xmlns="http://www.w3.org/2000/svg">
<path fill-rule="evenodd" clip-rule="evenodd" d="M16.5 30L19.5 27L27 26.9999V19.5L30 16.5V13.5L27 10.5V3.00017L19.5001 3.00013L16.5 0L13.5 3.8147e-06L10.4999 3.00009L2.99998 3.00005V10.5L0 13.5V16.5L3 19.5L3.00002 27.0001L10.5 27L13.5 30H16.5ZM16 29L18.0001 27L19.0001 26L26 19.0001L27 18.0001L29 16V14L27 12.0001L26 11L19 4.00013L18.0001 3.00013L16 1H14L11.9999 3.0001L10.9999 4.00009L3.99998 11L2.99998 12L1 14V16L14 29H16ZM26 25.9999L20.5 26L26 20.5V25.9999ZM26 4.00016V9.49998L20.5001 4.00013L26 4.00016ZM3.99998 4.00005L9.49992 4.00008L3.99998 9.50002V4.00005ZM4.00002 26.0001L4 20.5L9.50002 26L4.00002 26.0001ZM15 6C10.0294 6.00002 6 10.0294 6 15C6 19.9706 10.0294 24 15 24C19.9706 24 24 19.9706 24 15V14.5H15.5V6H15ZM14.5 14.5V13.063C13.7972 13.2439 13.2439 13.7972 13.063 14.5H14.5ZM13.063 15.5H14.5V16.937C13.7972 16.7561 13.2439 16.2028 13.063 15.5ZM12.0415 14.5C12.2522 13.2437 13.2437 12.2522 14.5 12.0415V11.0309C12.6906 11.2566 11.2566 12.6906 11.0309 14.5H12.0415ZM11.0309 15.5H12.0415C12.2522 16.7563 13.2437 17.7478 14.5 17.9585V18.9691C12.6906 18.7434 11.2566 17.3094 11.0309 15.5ZM10.0247 14.5C10.2592 12.1378 12.1378 10.2592 14.5 10.0247V9.02054C11.5851 9.26101 9.26102 11.5851 9.02054 14.5H10.0247ZM9.02054 15.5H10.0247C10.2592 17.8622 12.1378 19.7408 14.5 19.9753V20.9795C11.5851 20.739 9.26102 18.4149 9.02054 15.5ZM8.01758 14.5C8.2623 11.0325 11.0325 8.2623 14.5 8.01758V7.01537C10.48 7.26327 7.26328 10.48 7.01537 14.5H8.01758ZM7.01537 15.5H8.01758C8.2623 18.9675 11.0325 21.7377 14.5 21.9824V22.9846C10.48 22.7367 7.26328 19.52 7.01537 15.5ZM15.5 15.5H16.937C16.7561 16.2028 16.2028 16.7561 15.5 16.937V15.5ZM17.9585 15.5C17.7478 16.7563 16.7563 17.7478 15.5 17.9585V18.9691C17.3094 18.7434 18.7434 17.3094 18.9691 15.5H17.9585ZM19.9753 15.5C19.7408 17.8622 17.8622 19.7408 15.5 19.9753V20.9795C18.4149 20.739 20.739 18.4149 20.9795 15.5H19.9753ZM21.9824 15.5C21.7377 18.9675 18.9675 21.7377 15.5 21.9824V22.9846C19.52 22.7367 22.7367 19.52 22.9846 15.5H21.9824ZM20 7.97392L19.1578 6.5L16 12.0263H17.6844L16.8423 13.5H23.1579L22.3158 12.0263H24L20.8422 6.5L20 7.97392ZM19.5814 8.7065L18.1055 11.2894H17.2412L19.1578 7.97364L19.5814 8.7065ZM20 9.44742L18.9353 11.2894H21.0647L20 9.44742ZM21.8948 11.2894L20.4187 8.70628L20.8422 7.97364L22.7588 11.2894H21.8948ZM21.9166 12.7632L21.4906 12.0263H18.5094L18.0834 12.7632H21.9166Z" fill="white"/>
</svg>
