<svg width="30" height="30" viewBox="0 0 30 30" fill="none" xmlns="http://www.w3.org/2000/svg">
<path fill-rule="evenodd" clip-rule="evenodd" d="M16.5 30L19.5 27L27 26.9999V19.5L30 16.5L30 13.5L27 10.5V3.00017L19.5001 3.00013L16.5 0L13.5 3.12157e-06L10.4999 3.00009L2.99998 3.00005L2.99999 10.5L0 13.5V16.5L3 19.5L3.00001 27.0001L10.5 27L13.5 30L16.5 30ZM16 29L18.0001 27L19.0001 26L26 19.0001L27 18.0001L29 16V14L27 12V12.0001L26 11.0001V11L19.0001 4.00013H19.0001L18.0001 3.00013H18.0001L16 1L14 1L11.9999 3.0001H11.9999L10.9999 4.00009H10.9999L3.99999 11V11L2.99999 12V12L1 14L1 16L14 29H16ZM26 25.9999L20.5 26L26 20.5V25.9999ZM26 4.00016V9.49998L20.5001 4.00013L26 4.00016ZM3.99998 4.00005L9.49992 4.00008L3.99999 9.50002L3.99998 4.00005ZM4.00001 26.0001L4 20.5L9.50002 26L4.00001 26.0001ZM15.7774 8.85714L11.6266 13.1025C11.5496 12.9732 11.4867 12.835 11.4396 12.6904L11.2379 12.0714L10.5703 12.7542L10.7383 13.3614C10.7827 13.5217 10.846 13.6751 10.9266 13.8184L8.79355 16C7.78232 17.0342 7.18674 17.8765 6.89264 18.3415L6.69838 18.1429L6 19L8 21L8.79353 20.2857L8.60423 20.0921C8.76404 19.8404 9.05395 19.4639 9.57987 18.926C10.2573 18.2331 10.8036 17.8072 11.1439 17.5712C11.3812 17.4065 11.5634 17.1603 11.6204 16.8728C11.6867 16.5385 11.9222 16.2657 12.2384 16.1571L12.8959 15.9311L13.6719 16.7248L14.3806 16L13.6822 15.2857L18.5709 10.2857C19.438 9.39918 20.1238 7.86564 19.9811 6.56566L19.9677 6L19.2693 6.71429C18.897 7.09504 18.0483 7.66947 17.5233 7.78571C16.9984 7.90196 16.1497 8.47639 15.7774 8.85714ZM12 20.9999H10L9.00005 21.9999H12.5L15 18.9999L14 24.9999L18 20.9999V21.9999H21L22 20.9999H19L19.5 17.9999L15.5 21.9999L16.5 15.4999L12 20.9999Z" fill="white"/>
</svg>
