<svg width="30" height="30" viewBox="0 0 30 30" fill="none" xmlns="http://www.w3.org/2000/svg">
<path fill-rule="evenodd" clip-rule="evenodd" d="M16.5 30L30 16.5V13.5L16.5 0H13.5L0 13.5V16.5L13.5 30L16.5 30ZM29 16V14L16 1L14 0.999999L1 14V16L14 29L16 29L29 16ZM29.9995 23V30H22.9995V24.5L24.4995 23H29.9995ZM27.9993 29H26.9993L25.9993 29L24.9993 29H23.9993V28H24.9993V25L23.9993 25L24.9993 24H25.9993H26.9993H27.9993H28.9993V25H27.9993V28H28.9993V29L27.9993 29ZM26.9993 25L25.9993 25V28H26.9993V25ZM15 7L8.5 8L7 9.5V14V19L15 27L23 19V14V9.5L21.5 8L15 7ZM15 8L9 9L8 10V18.5L15 25.5L22 18.5V10L21 9L15 8ZM11.138 15.5486L11.5669 17.5151L12.6646 17.8354L14.081 21.8945L16.1077 20.7597C16.191 20.7033 16.1359 20.6218 16.1359 20.6218L15.9974 20.5968L15.2669 18.6207L17.2666 17.2666L16.6335 14.9984L19.723 12.8949L19.3038 12.276L19.6133 12.0664L19.3486 11.6755L19.6581 11.4659L19.0845 10.6189L18.775 10.8285L18.5765 10.5353L18.267 10.7449L18.0464 10.4191L17.4275 10.8382L17.3386 11.3736L13.6138 13.8721L13.933 15.0101L13.6236 15.2196L13.3044 14.0816L12.9949 14.2912L13.3141 15.4292L13.0046 15.6388L12.6854 14.5008L12.3759 14.7103L12.6951 15.8483L12.3857 16.0579L12.0664 14.9199L11.138 15.5486ZM16.0092 15.4097L16.538 16.8572L14.9906 17.905L14.365 16.5345L14.6149 16.3653L14.951 16.9973C15.0761 17.2327 15.3023 17.3977 15.5646 17.4451C15.2838 17.0305 15.1928 16.516 15.3144 16.0302L15.3595 15.8496L16.0092 15.4097Z" fill="white"/>
</svg>
