<svg width="30" height="30" viewBox="0 0 30 30" fill="none" xmlns="http://www.w3.org/2000/svg">
<path d="M30 13.499V16.501L16.5 30H13.5L0 16.5V13.5L13.5 0H16.5L30 13.499ZM30 26H27V29H30V30H23V29H26V26H23L24 25H30V26ZM1 14V16L14 29H15.999L28.999 16V14L15.999 1H14L1 14ZM21.5 8L23 9.5V19L15 27L7 19V9.5L8.5 8L15 7L21.5 8ZM9 9L8 10V18.5L15 25.5L22 18.5V10L21 9L15 8L9 9ZM18.2666 10.7451L18.5762 10.5352L18.7754 10.8281L19.085 10.6191L19.6582 11.4658L19.3486 11.6758L19.6133 12.0664L19.3037 12.2764L19.7227 12.8945L16.6338 14.998L17.2666 17.2666L15.2666 18.6211L15.9971 20.5967L16.1357 20.6221C16.1381 20.6256 16.1889 20.7046 16.1074 20.7598L14.0811 21.8945L12.665 17.835L11.5664 17.5146L11.1377 15.5488L12.0664 14.9199L12.3857 16.0576L12.6953 15.8486L12.376 14.71L12.6855 14.501L13.0049 15.6387L13.3145 15.4287L12.9951 14.291L13.3047 14.082L13.624 15.2197L13.9326 15.0098L13.6143 13.8721L17.3389 11.374L17.4277 10.8379L18.0469 10.4189L18.2666 10.7451ZM15.3594 15.8496L15.3145 16.0303C15.1929 16.516 15.2837 17.0307 15.5645 17.4453C15.3022 17.3979 15.0763 17.2324 14.9512 16.9971L14.6152 16.3652L14.3652 16.5342L14.9902 17.9053L16.5381 16.8574L16.0088 15.4102L15.3594 15.8496Z" fill="white"/>
</svg>
