<svg width="30" height="30" viewBox="0 0 30 30" fill="none" xmlns="http://www.w3.org/2000/svg">
<path d="M21.5002 8L23.0002 9.5V19L15.0002 27L7.00024 19V9.5L8.50024 8L15.0002 7L21.5002 8ZM9.00024 9L8.00024 10V18.5L15.0002 25.5L22.0002 18.5V10L21.0002 9L15.0002 8L9.00024 9ZM19.7229 12.8945L16.634 14.998L17.2668 17.2666L15.2668 18.6211L15.9973 20.5967L16.136 20.6221C16.1383 20.6256 16.1891 20.7046 16.1077 20.7598L14.0813 21.8945L12.6653 17.835L11.5667 17.5146L19.304 12.2764L19.7229 12.8945ZM15.3596 15.8496L15.3147 16.0303C15.1932 16.516 15.284 17.0307 15.5647 17.4453C15.3024 17.3979 15.0765 17.2324 14.9514 16.9971L14.6155 16.3652L14.3655 16.5342L14.9905 17.9053L16.5383 16.8574L16.009 15.4102L15.3596 15.8496ZM18.2668 10.7451L18.5764 10.5352L18.7747 10.8281L19.0852 10.6191L19.6584 11.4658L19.3479 11.6748L19.6135 12.0664L11.5667 17.5146L11.1379 15.5488L12.0667 14.9199L12.386 16.0576L12.6956 15.8486L12.3762 14.71L12.6858 14.501L13.0051 15.6387L13.3147 15.4287L12.9954 14.291L13.3049 14.082L13.6243 15.2197L13.9329 15.0098L13.6145 13.8721L17.3391 11.374L17.428 10.8379L18.0471 10.4189L18.2668 10.7451Z" fill="white"/>
<path fill-rule="evenodd" clip-rule="evenodd" d="M16.5003 -0.000488281L30.0002 13.4995V16.5005L16.5003 30.0005L13.4999 29.9998L0 16.4998V13.5001L13.4999 0.000202253L16.5003 -0.000488281ZM0.999893 14.0001V15.9999L13.9999 28.9999H15.9997L28.9997 15.9999V14.0001L15.9997 1.0001H13.9999L0.999893 14.0001Z" fill="white"/>
</svg>
