<svg width="30" height="30" viewBox="0 0 30 30" fill="none" xmlns="http://www.w3.org/2000/svg">
<path fill-rule="evenodd" clip-rule="evenodd" d="M16.5 30L30 16.5L30 13.5L16.5 0H13.5L0 13.5V16.5L13.5 30L16.5 30ZM29 16V14L16 1L14 0.999999L1 14L1 16L14 29L16 29L29 16ZM30 30.0001V23.0001H24.5L23 24.5001V30.0001L30 30.0001ZM26.0001 29.0001H27.0001L29.0001 29.0001V28.0001H27.0001V25.0001H29.0001V24.0001H27.0001H26.0001H25.0001L24.0001 25.0001L26.0001 25.0001V28.0001H24.0001V29.0001H26.0001ZM15 7L8.5 8L7 9.5V14V19L15 27L23 19V14V9.5L21.5 8L15 7ZM15 8L9 9L8 10V18.5L15 25.5L22 18.5V10L21 9L15 8ZM11.138 15.5486L11.5669 17.5151L12.6646 17.8354L14.081 21.8945L16.1077 20.7597C16.191 20.7033 16.1359 20.6218 16.1359 20.6218L15.9974 20.5968L15.2669 18.6207L17.2666 17.2666L16.6335 14.9984L19.723 12.8949L19.3038 12.276L19.6133 12.0664L19.3486 11.6755L19.6581 11.4659L19.0845 10.6189L18.775 10.8285L18.5765 10.5353L18.267 10.7449L18.0464 10.4191L17.4275 10.8382L17.3386 11.3736L13.6138 13.8721L13.933 15.0101L13.6236 15.2196L13.3043 14.0816L12.9949 14.2912L13.3141 15.4292L13.0046 15.6388L12.6854 14.5008L12.3759 14.7103L12.6951 15.8483L12.3857 16.0579L12.0664 14.9199L11.138 15.5486ZM16.0092 15.4097L16.538 16.8572L14.9906 17.905L14.365 16.5345L14.6149 16.3653L14.951 16.9973C15.0761 17.2327 15.3023 17.3977 15.5646 17.4451C15.2838 17.0305 15.1928 16.516 15.3144 16.0302L15.3595 15.8496L16.0092 15.4097Z" fill="white"/>
</svg>
