<svg width="30" height="30" viewBox="0 0 30 30" fill="none" xmlns="http://www.w3.org/2000/svg">
<path d="M15.5002 23V26H14.5002V23L15.0002 22L15.5002 23ZM16.5002 6.12695C20.2632 6.76092 23.2392 9.73671 23.8733 13.5H22.8567C22.5968 12.1356 21.9888 10.8938 21.1301 9.86914L9.87036 21.1289C10.8949 21.9877 12.1359 22.5965 13.5002 22.8564V23.8721C9.73742 23.2379 6.76128 20.2629 6.1272 16.5H7.1438C7.40366 17.8639 8.01198 19.1046 8.87036 20.1289L20.1301 8.86914C19.1058 8.0104 17.8644 7.40241 16.5002 7.14258V6.12695ZM23.8733 16.5C23.2392 20.2631 20.2631 23.238 16.5002 23.8721V22.8564C19.7105 22.2449 22.2451 19.7105 22.8567 16.5H23.8733ZM15.5002 19H17.0002L15.0002 21L13.0002 19H14.5002V17L15.5002 16V19ZM11.0002 14.5H14.0002L13.0002 15.5H11.0002V17L9.00024 15L11.0002 13V14.5ZM21.0002 15L19.0002 17V15.5H16.0002L17.0002 14.5H19.0002V13L21.0002 15ZM8.00024 15L7.00024 15.5H4.00024V14.5H7.00024L8.00024 15ZM26.0002 15.5H23.0002L22.0002 15L23.0002 14.5H26.0002V15.5ZM17.0002 11H15.5002V13L14.5002 14V11H13.0002L15.0002 9L17.0002 11ZM13.5002 7.14258C10.2898 7.75418 7.75544 10.2894 7.1438 13.5H6.1272C6.76126 9.73684 9.73731 6.76107 13.5002 6.12695V7.14258ZM15.5002 7L15.0002 8L14.5002 7V4H15.5002V7Z" fill="white"/>
<path fill-rule="evenodd" clip-rule="evenodd" d="M16.5003 -0.000488281L30.0002 13.4995V16.5005L16.5003 30.0005L13.4999 29.9998L0 16.4998V13.5001L13.4999 0.000202253L16.5003 -0.000488281ZM0.999893 14.0001V15.9999L13.9999 28.9999H15.9997L28.9997 15.9999V14.0001L15.9997 1.0001H13.9999L0.999893 14.0001Z" fill="white"/>
</svg>
