<svg width="30" height="30" viewBox="0 0 30 30" fill="none" xmlns="http://www.w3.org/2000/svg">
<path d="M30 13.499V16.501L16.5 30H13.5L0 16.5V13.5L13.5 0H16.5L30 13.499ZM30 26H27V29H30V30H23V29H26V26H23L24 25H30V26ZM1 14V16L14 29H15.999L28.999 16V14L15.999 1H14L1 14ZM15 8.00098C15.9512 8.00097 16.7456 8.66573 16.9482 9.55566L15.5 12.2305V10.001C15.5 9.72484 15.2761 9.50098 15 9.50098V13.1533L14 15L15 16.8457V23.5C14.9997 24.3282 14.3283 25.001 13.5 25.001V16.001C13.5 15.8271 13.5 15.501 13 15.501C12.5001 15.501 12.5 15.8271 12.5 16.001V25.001C11.6717 25.001 11.0003 24.3282 11 23.5V9.50098C10.7239 9.50098 10.5 9.72483 10.5 10.001V16.001C9.67191 16.001 9.00054 15.3289 9 14.501V10.001C9 8.89641 9.89543 8.00098 11 8.00098H15ZM23.6045 10.4668L22.7979 11.8838L23.9111 11.5918L24.1582 12.4814L22.1592 13.0059L21.7734 13.6797C21.8917 13.7959 21.9954 13.9282 22.0801 14.0723C22.1658 14.2186 22.2312 14.3753 22.2744 14.5361L23.0557 14.5439L24.5078 13.085L25.1631 13.7412L24.3525 14.5547L25.9912 14.5684L26 15.4883L24.3613 15.4746L25.1885 16.3037L24.5459 16.9482L23.0635 15.4639L22.2852 15.457C22.2052 15.7821 22.0374 16.0767 21.8018 16.3096L22.1953 16.9834L24.2021 17.54L23.9736 18.4268L22.8535 18.1162L23.6865 19.5469L22.8965 20L22.0635 18.5684L21.7744 19.6855L20.8857 19.4395L21.4043 17.4365L21.0137 16.7656C20.848 16.8109 20.6745 16.8302 20.5 16.8271C20.3259 16.8302 20.1536 16.8107 19.9883 16.7656L19.5967 17.4365L20.1143 19.4395L19.2266 19.6855L18.9375 18.5684L18.1045 20L17.3145 19.5469L18.1475 18.1162L17.0283 18.4268L16.7979 17.54L18.8066 16.9834L19.1992 16.3096C18.9635 16.0767 18.7958 15.7821 18.7158 15.457L17.9375 15.4639L16.4551 16.9482L15.8125 16.3037L16.6396 15.4746L15 15.4883L15.0098 14.5684L16.6484 14.5547L15.8369 13.7412L16.4922 13.085L17.9453 14.5439L18.7266 14.5361C18.7698 14.3751 18.835 14.2188 18.9209 14.0723C19.0057 13.9281 19.1091 13.7959 19.2275 13.6797L18.8418 13.0059L16.8418 12.4814L17.0889 11.5918L18.2021 11.8838L17.3965 10.4668L18.1953 10L19.002 11.417L19.3125 10.2891L20.1973 10.5186L19.6406 12.5381L20.0264 13.2129C20.1807 13.1687 20.34 13.1437 20.5 13.1406C20.66 13.1437 20.8193 13.1687 20.9736 13.2129L21.3604 12.5381L20.8027 10.5186L21.6875 10.2891L21.999 11.417L22.8047 10L23.6045 10.4668ZM20.5 14.0615C20.3434 14.0647 20.1882 14.108 20.0498 14.1885C19.9094 14.2705 19.7916 14.387 19.709 14.5273C19.5949 14.7221 19.5549 14.9513 19.5957 15.1709C19.6367 15.3904 19.756 15.5873 19.9316 15.7227C20.094 15.8475 20.2945 15.9116 20.5 15.9082C20.7058 15.9116 20.9069 15.8478 21.0693 15.7227C21.245 15.5873 21.3633 15.3904 21.4043 15.1709C21.4451 14.9513 21.4051 14.7221 21.291 14.5273C21.2084 14.387 21.0906 14.2705 20.9502 14.1885C20.8118 14.108 20.6566 14.0647 20.5 14.0615ZM13 4C13.8284 4 14.5 4.67157 14.5 5.5C14.5 6.32843 13.8284 7 13 7C12.1716 7 11.5 6.32843 11.5 5.5C11.5 4.67157 12.1716 4 13 4Z" fill="white"/>
</svg>
