<svg width="30" height="30" viewBox="0 0 30 30" fill="none" xmlns="http://www.w3.org/2000/svg">
<path fill-rule="evenodd" clip-rule="evenodd" d="M16.5 30L19.5 27L27 26.9999V19.5L30 16.5L30 13.5L27 10.5V3.00017L19.5001 3.00013L16.5 0L13.5 3.12157e-06L10.4999 3.00009L2.99998 3.00005L2.99999 10.5L0 13.5V16.5L3 19.5L3.00001 27.0001L10.5 27L13.5 30L16.5 30ZM16 29L18.0001 27L19.0001 26L26 19.0001L27 18.0001L29 16V14L27 12V12.0001L26 11.0001V11L19.0001 4.00013H19.0001L18.0001 3.00013H18.0001L16 1L14 1L11.9999 3.0001H11.9999L10.9999 4.00009H10.9999L3.99999 11V11L2.99999 12V12L1 14L1 16L14 29H16ZM26 25.9999L20.5 26L26 20.5V25.9999ZM26 4.00016V9.49998L20.5001 4.00013L26 4.00016ZM3.99998 4.00005L9.49992 4.00008L3.99999 9.50002L3.99998 4.00005ZM4.00001 26.0001L4 20.5L9.50002 26L4.00001 26.0001ZM8 8C8 7.44772 8.44772 7 9 7H19C19.5523 7 20 7.44772 20 8V22C20 22.5523 19.5523 23 19 23H18L17.331 18.6491L15.5103 16.1185L16.75 12.3341C16.25 11.2928 14.6276 11.1162 14.6276 11.1162L11.3724 11.2928C11.3724 11.2928 10.4711 13.396 10.0483 14.5295C9.62548 15.6631 10.6 15.942 10.6 15.942L12.2552 12.9406H13.5241L11.4276 18.3548L8 18.7341V8ZM15.7862 19.4141L17 23H9C8.44771 23 8 22.5523 8 22V20.0615H12.531L14.0131 17.7412L15.7862 19.4141ZM19 15.0005V16.5005L17.25 16.0675L16.5586 15.0003L17.25 13.4008L17.9931 14.8238L19 15.0005ZM16.5 11C17.3284 11 18 10.3284 18 9.5C18 8.67157 17.3284 8 16.5 8C15.6716 8 15 8.67157 15 9.5C15 10.3284 15.6716 11 16.5 11ZM23 11L27 15L23 19L24 16L21 16V14H24L23 11Z" fill="white"/>
</svg>
