<svg width="30" height="30" viewBox="0 0 30 30" fill="none" xmlns="http://www.w3.org/2000/svg">
<path fill-rule="evenodd" clip-rule="evenodd" d="M28.9995 2.99994L29.9995 3.99993L29.9995 0H25.9996L26.9996 0.99999H28.9995V2.99994ZM3.00012 1.00008L4.00011 9.35243e-05L0.000181069 9.34607e-05V4.00002L1.00017 3.00003V1.00008L3.00012 1.00008ZM0.00012207 25.9997L1.00011 26.9997L1.00011 28.9997H3.00006L4.00005 29.9996H0.00012207V25.9997ZM26.9996 28.9996L25.9996 29.9996H29.9996V25.9997L28.9996 26.9997V28.9996H26.9996ZM22 6.45406C22 7.42755 21.9014 8.363 21.7065 9.2354C21.5182 10.0788 21.2342 10.892 20.8625 11.655C20.2829 12.8406 19.5014 13.9121 18.4205 15.0004C18.6736 15.2547 18.9067 15.5044 19.1266 15.7572C20.2475 17.0438 21.0174 18.4041 21.4812 19.9161C21.8252 21.0323 22 22.2539 22 23.5452V26H18V24.2632H12V26H8V23.5452C8 22.5733 8.0986 21.6378 8.29348 20.7646C8.48027 19.9275 8.7642 19.1151 9.13663 18.3489C9.70936 17.1755 10.5105 16.0782 11.5802 15.0005C11.3271 14.7461 11.093 14.4957 10.8734 14.2437C9.75253 12.9562 8.9822 11.5959 8.51841 10.0839C8.17443 8.96189 8 7.74109 8 6.45406V4H12V5.73684H18V4H22L22 5.15789V6.45406ZM10.8643 23.5452C10.8643 23.3799 10.8678 23.2172 10.8763 23.0596H18.1053C18.0848 22.6505 18.0375 22.2645 17.9597 21.8945H11.0034C11.0607 21.5645 11.1351 21.2537 11.2272 20.9586C11.3289 20.6286 11.4498 20.3151 11.59 20.0173H17.263C17.0415 19.6249 16.7716 19.2413 16.4418 18.8513H12.2653C12.4525 18.5832 12.6559 18.3261 12.875 18.0733C13.2725 17.6168 13.7201 17.1817 14.2035 16.753C14.2035 16.753 13.2248 15.9644 12.8947 15.685C12.771 15.7948 12.6497 15.9089 12.5303 16.0236C11.5997 16.9176 10.7627 17.9225 10.1618 19.1527C9.86288 19.7676 9.62217 20.437 9.4596 21.1667C9.29708 21.896 9.21039 22.6873 9.21039 23.5452V24.8421H10.8643V23.5452ZM20.7904 23.5452C20.7904 22.4008 20.6359 21.3768 20.352 20.4562C19.9284 19.0743 19.2161 17.9362 18.3649 16.9591C17.7409 16.2427 17.0461 15.6071 16.3227 15.0004C16.0546 14.7762 15.7834 14.5568 15.5119 14.3389C15.3385 14.2001 15.1679 14.063 15 13.925C14.5281 13.5366 14.0786 13.1498 13.6653 12.7524C13.1346 12.2422 12.6627 11.7162 12.2652 11.148C12.0318 10.8156 11.8238 10.4668 11.6447 10.0992C11.6274 10.064 11.6116 10.0297 11.5955 9.99473L11.59 9.98279C11.3709 9.51642 11.1964 9.014 11.0727 8.46025C11.0477 8.34459 11.023 8.22586 11.0034 8.10555C10.9379 7.74185 10.8951 7.35504 10.8763 6.9396C10.8678 6.78207 10.8643 6.62055 10.8643 6.45401V5.15789H9.21035V6.45401C9.21035 7.5992 9.36518 8.62326 9.6475 9.54383C10.0716 10.9257 10.7842 12.0638 11.6358 13.0412C12.259 13.7565 12.9539 14.3921 13.6788 15.0004C13.9469 15.2242 15.0015 16.0743 15.0015 16.0743C15.4733 16.4634 15.9213 16.8502 16.3346 17.2476C16.8669 17.7579 17.3372 18.283 17.7347 18.8513C17.9689 19.1848 18.1757 19.5332 18.3572 19.9008C18.376 19.9392 18.3941 19.9784 18.4115 20.0173C18.6291 20.4832 18.8036 20.9856 18.9272 21.5398C18.9527 21.655 18.9769 21.7742 18.9969 21.8945C19.0621 22.2585 19.1056 22.6458 19.1245 23.0596C19.1262 23.0974 19.1282 23.1354 19.1302 23.1737C19.1364 23.2952 19.1429 23.4195 19.1429 23.5452V24.8421H20.7904V23.5452ZM20.5404 8.83331C20.7037 8.10392 20.7904 7.31266 20.7904 6.45401L20.7904 5.23325H19.1357V6.45406C19.1357 6.6206 19.1318 6.78207 19.1245 6.9396H11.8955C11.9159 7.34957 11.9641 7.7348 12.0399 8.10555H18.9985C18.9399 8.43555 18.8649 8.74673 18.7728 9.04141C18.6711 9.37182 18.5509 9.68499 18.4107 9.98279H12.7378C12.9593 10.3751 13.2285 10.7588 13.5598 11.148H17.7363C17.5487 11.416 17.3442 11.6739 17.125 11.9259C16.7283 12.3848 16.2803 12.8199 15.7966 13.2478C15.7966 13.2478 16.7749 14.0356 17.1062 14.315C17.2298 14.2056 17.3515 14.0912 17.4713 13.9756C18.4003 13.0824 19.2373 12.0775 19.8382 10.8477C20.1382 10.2324 20.3778 9.56305 20.5404 8.83331Z" fill="white"/>
</svg>
