<svg width="30" height="30" viewBox="0 0 30 30" fill="none" xmlns="http://www.w3.org/2000/svg">
<path d="M30 13.499V16.501L16.5 30H13.5L0 16.5V13.5L13.5 0H16.5L30 13.499ZM30.001 26H29.002V29H30V30H23V29H24V26H23.001L24.001 25H30.001V26ZM1 14V16L5.62012 20.6201L8.33789 19.7979L9.50293 17L11.0029 19L10.0068 20.5C9.62817 21.1311 9.50227 21.258 8.36621 21.6367L7.04785 22.0479L8.15039 23.1504C8.29761 22.666 8.60462 22.1301 9.24414 22L13.1797 21.1943L9.92578 16.293C9.53184 15.5991 9.48213 14.7479 9.80371 14.1064C10.0899 13.5357 10.5276 13.2921 11.1221 13.1523C12.0388 14.2796 13.4367 14.9999 15.0029 15C17.051 15 18.8121 13.7687 19.585 12.0059C20.456 11.9716 21.5556 12.0629 22.0928 13.0088C22.4636 13.6619 22.3098 14.2782 22.0088 14.9434C22.0088 14.9434 19.5538 18.8382 19.5264 18.8789L22.5029 22C22.502 22.0018 22.2393 22.5 21.5029 22.5C20.7652 22.5 20.4947 22.4827 20.0029 22L17.582 19.7383C17.2551 19.356 17.249 18.9482 17.4258 18.584L19.0498 16.3613L12.8564 16.707L15.5195 21.3965C15.8417 21.9641 15.6654 22.9318 15.0928 23.0176L8.87988 23.8799L14 29H15.999L28.999 16V14L15.999 1H14L1 14ZM25 29H26V26H25V29ZM27 29H28.002V26H27V29ZM24.0029 14C25.1075 14 26.0029 14.8954 26.0029 16C26.0029 17.1046 25.1075 18 24.0029 18C22.8984 18 22.0029 17.1046 22.0029 16C22.0029 14.8954 22.8984 14 24.0029 14ZM15.0029 6C17.2121 6 19.0029 7.79086 19.0029 10C19.0029 12.2091 17.2121 14 15.0029 14C12.7938 13.9999 11.0029 12.2091 11.0029 10C11.0029 7.79089 12.7938 6.00005 15.0029 6ZM14.5029 10C14.5029 10.2761 14.7268 10.5 15.0029 10.5H18.0029V9.5H15.5029V8H14.5029V10Z" fill="white"/>
</svg>
