<svg width="30" height="30" viewBox="0 0 30 30" fill="none" xmlns="http://www.w3.org/2000/svg">
<path d="M19.5833 12.0068C20.4543 11.9724 21.5554 12.062 22.093 13.0078C22.4638 13.6608 22.31 14.2783 22.009 14.9434C21.9965 14.9632 19.5572 18.8333 19.5266 18.8789L22.5032 22C22.4958 22.0137 22.2304 22.5 21.5032 22.5C20.7656 22.5 20.4948 22.4825 20.0032 22L17.5823 19.7383C17.2555 19.3561 17.2494 18.9481 17.426 18.584L19.05 16.3613L12.8567 16.7061L15.5198 21.3955C15.842 21.9631 15.6655 22.9307 15.093 23.0166L8.01489 24C8.01499 23.9698 8.02588 22.2479 9.24438 22L13.1799 21.1943L9.92603 16.293C9.53214 15.5991 9.48237 14.7469 9.80396 14.1055C10.0905 13.5346 10.5301 13.295 11.1252 13.1553C12.042 14.2807 13.4385 14.9999 15.0032 15C17.0506 15 18.81 13.7688 19.5833 12.0068ZM11.0032 19L10.0071 20.5C9.62858 21.1308 9.50205 21.2572 8.36646 21.6357L5.90454 22.4043L4.65259 21.1523C4.81413 20.9884 5.01542 20.8414 5.26587 20.7275L8.33813 19.7979L9.50317 17L11.0032 19ZM24.0032 14C25.1076 14 26.003 14.8956 26.0032 16C26.003 17.1044 25.1076 18 24.0032 18C22.8988 18 22.0034 17.1044 22.0032 16C22.0034 14.8956 22.8988 14 24.0032 14ZM15.0032 6C17.2123 6 19.0032 7.79086 19.0032 10C19.0032 12.2091 17.2123 14 15.0032 14C12.7941 14 11.0032 12.2091 11.0032 10C11.0032 7.79088 12.7941 6.00003 15.0032 6ZM14.5032 10L14.5129 10.1006C14.5595 10.3285 14.7615 10.5 15.0032 10.5H18.0032V9.5H15.5032V8H14.5032V10Z" fill="white"/>
<path fill-rule="evenodd" clip-rule="evenodd" d="M16.5003 -0.000488281L30.0002 13.4995V16.5005L16.5003 30.0005L13.4999 29.9998L0 16.4998V13.5001L13.4999 0.000202253L16.5003 -0.000488281ZM0.999893 14.0001V15.9999L13.9999 28.9999H15.9997L28.9997 15.9999V14.0001L15.9997 1.0001H13.9999L0.999893 14.0001Z" fill="white"/>
</svg>
