<svg width="30" height="30" viewBox="0 0 30 30" fill="none" xmlns="http://www.w3.org/2000/svg">
<path fill-rule="evenodd" clip-rule="evenodd" d="M16.5 30L30 16.5L30 13.5L16.5 0H13.5L0 13.5V16.5L13.5 30L16.5 30ZM29 16V14L16 1L14 0.999999L1 14L1 16L5.62024 20.6202L8.33785 19.7978L9.50297 17L11.003 19L10.0072 20.5C9.62842 21.1312 9.50217 21.2575 8.36594 21.6362L7.04818 22.0481L8.15055 23.1505C8.29777 22.6661 8.60464 22.1301 9.24429 22L13.1795 21.1944L9.92607 16.2932C9.53196 15.5992 9.48169 14.7477 9.80338 14.1061C10.0896 13.5354 10.5276 13.2921 11.1221 13.1524C12.0388 14.2797 13.437 15 15.0033 15C17.0514 15 18.8119 13.7686 19.5847 12.0058C20.4558 11.9715 21.556 12.0624 22.0932 13.0084C22.4642 13.6616 22.3096 14.2782 22.0085 14.9434C22.0085 14.9434 19.5359 18.8667 19.5262 18.8792L22.5029 22C22.5029 22 22.2406 22.5 21.5029 22.5C20.7652 22.5 20.4947 22.4827 20.0029 22L17.5822 19.7386C17.2551 19.3562 17.2494 18.9485 17.4262 18.5842L19.0497 16.3614L12.8568 16.7066L15.5199 21.3961C15.8422 21.9637 15.6653 22.9317 15.0926 23.0173L8.87992 23.8799L14 29L16 29L29 16ZM30 30.0001V23.0001H24.5L23 24.5001V30.0001L30 30.0001ZM26.0001 29.0001H27.0001L29.0001 29.0001V28.0001H27.0001V25.0001H29.0001V24.0001H27.0001H26.0001H25.0001L24.0001 25.0001L26.0001 25.0001V28.0001H24.0001V29.0001H26.0001ZM19.003 10C19.003 12.2091 17.2122 14 15.003 14C12.7939 14 11.003 12.2091 11.003 10C11.003 7.79086 12.7939 6 15.003 6C17.2122 6 19.003 7.79086 19.003 10ZM15.503 9.50003H18.003V10.5H15.003C14.7268 10.5 14.503 10.2762 14.503 10L14.503 9.99389V8H15.503L15.503 9.50003ZM24.003 18C25.1075 18 26.003 17.1046 26.003 16C26.003 14.8954 25.1075 14 24.003 14C22.8984 14 22.003 14.8954 22.003 16C22.003 17.1046 22.8984 18 24.003 18Z" fill="white"/>
</svg>
