<svg width="30" height="30" viewBox="0 0 30 30" fill="none" xmlns="http://www.w3.org/2000/svg">
<path fill-rule="evenodd" clip-rule="evenodd" d="M16.5 30L19.5 27L27 26.9999V19.5L30 16.5L30 13.5L27 10.5V3.00017L19.5001 3.00013L16.5 0L13.5 3.12157e-06L10.4999 3.00009L2.99998 3.00005L2.99999 10.5L0 13.5V16.5L3 19.5L3.00001 27.0001L10.5 27L13.5 30L16.5 30ZM16 29L18.0001 27L19.0001 26L26 19.0001L27 18.0001L29 16V14L27 12V12.0001L26 11.0001V11L19.0001 4.00013H19.0001L18.0001 3.00013H18.0001L16 1L14 1L11.9999 3.0001H11.9999L10.9999 4.00009H10.9999L3.99999 11V11L2.99999 12V12L1 14L1 16L14 29H16ZM26 25.9999L20.5 26L26 20.5V25.9999ZM26 4.00016V9.49998L20.5001 4.00013L26 4.00016ZM3.99998 4.00005L9.49992 4.00008L3.99999 9.50002L3.99998 4.00005ZM4.00001 26.0001L4 20.5L9.50002 26L4.00001 26.0001ZM4.99999 13.4445L6.09999 15.9075L7.67956 16.05L10.6737 21.0001L13.1372 19.0065C13.2359 18.9118 13.1394 18.8192 13.1394 18.8192L12.9442 18.8213L11.4308 16.4217L13.8 14.1482L12.3426 11.3423L16 7.8149L15.2667 7.1112L15.6333 6.75935L15.1702 6.3149L15.5368 5.96305L14.5333 5.00009L14.1666 5.35194L13.8193 5.01861L13.4526 5.37046L13.0667 5.00009L12.3333 5.70379L12.3526 6.42601L7.93332 10.6297L8.66665 12.0371L8.29998 12.389L7.56665 10.9816L7.19998 11.3334L7.93332 12.7408L7.56665 13.0927L6.83332 11.6853L6.46665 12.0371L7.19999 13.4445L6.83332 13.7964L6.09999 12.389L4.99999 13.4445ZM11.6 12.0371L12.7 13.7964L10.8667 15.5556L9.65489 13.9214L9.95105 13.6372L10.5746 14.3789C10.8068 14.6551 11.1582 14.814 11.528 14.8099C11.0368 14.3385 10.7779 13.6888 10.8161 13.0232L10.8302 12.7758L11.6 12.0371ZM25 16.5555L23.9 14.0926L22.3204 13.9501L19.3263 8.99996L16.8628 10.9936C16.7641 11.0883 16.8606 11.1809 16.8606 11.1809L17.0558 11.1787L18.5692 13.5783L16.2 15.8518L17.6574 18.6577L14 22.1851L14.7333 22.8889L14.3667 23.2407L14.8298 23.6851L14.4631 24.037L15.4667 25L15.8333 24.6481L16.1807 24.9814L16.5474 24.6296L16.9333 25L17.6667 24.2963L17.6474 23.574L22.0667 19.3703L21.3333 17.9629L21.7 17.6111L22.4333 19.0185L22.8 18.6666L22.0667 17.2592L22.4333 16.9074L23.1667 18.3148L23.5333 17.9629L22.8 16.5555L23.1667 16.2037L23.9 17.6111L25 16.5555ZM18.4 17.9629L17.3 16.2037L19.1333 14.4444L20.3451 16.0786L20.0489 16.3628L19.4253 15.6211C19.1931 15.3449 18.8418 15.1861 18.472 15.1901C18.9632 15.6615 19.2221 16.3112 19.1839 16.9769L19.1697 17.2243L18.4 17.9629Z" fill="white"/>
</svg>
