<svg width="30" height="30" viewBox="0 0 30 30" fill="none" xmlns="http://www.w3.org/2000/svg">
<path d="M12.0002 9C12.7168 9 13.4046 9.12596 14.0422 9.35742C14.0152 9.56785 14.0002 9.78223 14.0002 10C14.0002 10.1438 14.0069 10.2861 14.0188 10.4268C13.401 10.153 12.7183 10 12.0002 10C9.2433 10.0001 7.00024 12.2428 7.00024 15C7.00024 17.757 9.2433 19.9999 12.0002 20C14.7571 20 17.0002 17.7571 17.0002 15C17.0002 14.8566 16.9926 14.7146 16.9807 14.5742C17.3032 14.7168 17.6433 14.8263 17.9973 14.8984C17.9979 14.9322 18.0002 14.9661 18.0002 15C18.0002 16.3849 17.5267 17.6602 16.7356 18.6768L19.7004 20.9004C20.2039 21.2781 20.5252 21.873 20.4827 22.501C20.4326 23.2399 20.2402 23.4323 19.5012 23.4824C18.8733 23.525 18.2784 23.2036 17.9006 22.7002L15.677 19.7354C14.6604 20.5264 13.3851 21 12.0002 21C8.69192 20.9999 6.00024 18.3084 6.00024 15C6.00024 11.6914 8.69192 9.0001 12.0002 9ZM19.0002 6C21.2094 6 23.0002 7.79086 23.0002 10C23.0002 12.2091 21.2094 14 19.0002 14C16.7911 14 15.0002 12.2091 15.0002 10C15.0002 7.79086 16.7911 6 19.0002 6ZM18.5002 10L18.51 10.1006C18.5565 10.3286 18.7585 10.5 19.0002 10.5H22.0002V9.5H19.5002V8H18.5002V10Z" fill="white"/>
<path fill-rule="evenodd" clip-rule="evenodd" d="M16.5003 -0.000488281L30.0002 13.4995V16.5005L16.5003 30.0005L13.4999 29.9998L0 16.4998V13.5001L13.4999 0.000202253L16.5003 -0.000488281ZM0.999893 14.0001V15.9999L13.9999 28.9999H15.9997L28.9997 15.9999V14.0001L15.9997 1.0001H13.9999L0.999893 14.0001Z" fill="white"/>
</svg>
