<svg width="30" height="30" viewBox="0 0 30 30" fill="none" xmlns="http://www.w3.org/2000/svg">
<path d="M21.6399 19.4629C21.9238 19.6415 22.2346 19.7805 22.5657 19.8721C21.1267 22.102 18.7305 23.6548 15.9573 23.9482C15.7458 25.1148 14.7278 26 13.5002 26C12.1195 26 11.0002 24.8807 11.0002 23.5C11.0002 22.1193 12.1195 21 13.5002 21C14.6898 21 15.6829 21.8313 15.9358 22.9443C18.3105 22.6676 20.3675 21.3521 21.6399 19.4629ZM13.5002 22C12.6718 22 12.0002 22.6716 12.0002 23.5C12.0002 24.3284 12.6718 25 13.5002 25C14.3287 25 15.0002 24.3284 15.0002 23.5C15.0002 22.6716 14.3287 22 13.5002 22ZM6.50024 11C7.88096 11 9.00024 12.1193 9.00024 13.5C9.00024 14.6899 8.1684 15.683 7.05493 15.9355C7.33168 18.31 8.64835 20.3663 10.5374 21.6387C10.3587 21.9225 10.2198 22.2335 10.1282 22.5645C7.89846 21.1254 6.3445 18.73 6.05103 15.957C4.88494 15.7452 4.00024 14.7272 4.00024 13.5C4.00024 12.1193 5.11953 11 6.50024 11ZM14.3752 10C14.5626 10 14.7158 10.0841 14.8264 10.1758C14.9832 10.3057 15.0547 10.5053 15.1028 10.7031L15.9417 14.1543C16.0132 14.3362 16.2654 14.3117 16.3333 14.1436L16.593 10.498C16.6064 10.3817 16.7579 10.1785 17.0491 10.2207C17.34 10.263 17.5074 10.5745 17.4768 10.6953L17.3928 14.2979C17.4519 14.6171 17.7033 14.6645 17.8987 14.4863L19.1672 12.5C19.3131 12.14 19.9512 12.0488 19.9963 12.4346C19.9987 12.4551 20.0002 12.477 20.0002 12.5C20 12.9167 18.9787 14.2769 18.7502 15.1865C18.4517 16.3762 18.8545 17.2805 18.5383 18.4297C18.0934 20.0461 17.7372 20.0019 15.0002 19.999C13.9976 19.9981 12.5006 19.1657 11.6672 18.749C10.834 18.3324 10.0005 18.775 10.0002 18.333C10.0002 17.8907 10.4169 17.5 11.2502 17.5L12.9172 17.6582C13.3336 17.6582 13.6942 17.8562 13.7083 17.2803C13.7009 16.4279 13.6156 15.7735 13.1829 15.0811L11.5022 12.459C11.4018 12.2502 11.3786 11.8942 11.6692 11.7354C11.9597 11.5766 12.2899 11.8129 12.4026 12.0186L14.2795 14.5713C14.4798 14.7578 14.836 14.7941 14.8059 14.3975L13.9778 10.5967C13.9263 10.3268 14.0629 10.0001 14.3752 10ZM19.8733 7.43457C22.1026 8.87346 23.6548 11.2694 23.9485 14.042C25.1151 14.2534 26.0002 15.2724 26.0002 16.5C26.0002 17.8807 24.881 19 23.5002 19C22.1195 19 21.0002 17.8807 21.0002 16.5C21.0002 15.3104 21.8315 14.3163 22.9446 14.0635C22.6677 11.6894 21.3527 9.63257 19.4641 8.36035C19.6427 8.0765 19.7818 7.76554 19.8733 7.43457ZM23.5002 15C22.6718 15 22.0002 15.6716 22.0002 16.5C22.0002 17.3284 22.6718 18 23.5002 18C24.3287 18 25.0002 17.3284 25.0002 16.5C25.0002 15.6716 24.3287 15 23.5002 15ZM6.50024 12C5.67182 12 5.00024 12.6716 5.00024 13.5C5.00024 14.3284 5.67182 15 6.50024 15C7.32867 15 8.00024 14.3284 8.00024 13.5C8.00024 12.6716 7.32867 12 6.50024 12ZM16.5002 4C17.881 4 19.0002 5.11929 19.0002 6.5C19.0002 7.88071 17.881 9 16.5002 9C15.3103 9 14.3162 8.16826 14.0637 7.05469C11.6899 7.33161 9.63384 8.64776 8.36157 10.5361C8.07778 10.3575 7.76672 10.2185 7.43579 10.127C8.87475 7.89788 11.2697 6.34434 14.0422 6.05078C14.254 4.88461 15.273 4 16.5002 4ZM16.5002 5C15.6718 5 15.0002 5.67157 15.0002 6.5C15.0002 7.32843 15.6718 8 16.5002 8C17.3287 8 18.0002 7.32843 18.0002 6.5C18.0002 5.67157 17.3287 5 16.5002 5Z" fill="white"/>
<path fill-rule="evenodd" clip-rule="evenodd" d="M16.5003 -0.000488281L30.0002 13.4995V16.5005L16.5003 30.0005L13.4999 29.9998L0 16.4998V13.5001L13.4999 0.000202253L16.5003 -0.000488281ZM0.999893 14.0001V15.9999L13.9999 28.9999H15.9997L28.9997 15.9999V14.0001L15.9997 1.0001H13.9999L0.999893 14.0001Z" fill="white"/>
</svg>
