<svg width="30" height="30" viewBox="0 0 30 30" fill="none" xmlns="http://www.w3.org/2000/svg">
<path fill-rule="evenodd" clip-rule="evenodd" d="M16.5 30L30 16.5L30 13.5L16.5 0H13.5L0 13.5V16.5L13.5 30L16.5 30ZM29 16V14L16 1L14 0.999999L1 14L1 16L14 29L16 29L29 16ZM29.9995 30.0001V23.0001H24.4995L22.9995 24.5001V30.0001H29.9995ZM28.9995 28.0001V25.0001H28.9993V24.0001H24.9993L23.9993 25.0001H23.9995V28.0001H23.9993V29.0001L28.9993 29.0001V28.0001H28.9995ZM24.9995 28.0001V25.0001H25.9995V28.0001H24.9995ZM26.9995 28.0001V25.0001H27.9995V28.0001H26.9995ZM19 6.5C19 7.88071 17.8807 9 16.5 9C15.3099 9 14.3139 8.16836 14.0617 7.0545C11.6887 7.33173 9.6329 8.64748 8.36091 10.5351C8.07653 10.3563 7.76461 10.2172 7.43295 10.1257C8.87161 7.89692 11.2681 6.34449 14.0403 6.05063C14.252 4.88438 15.2727 4 16.5 4C17.8807 4 19 5.11929 19 6.5ZM15 6.5C15 7.32843 15.6716 8 16.5 8C17.3284 8 18 7.32843 18 6.5C18 5.67157 17.3284 5 16.5 5C15.6716 5 15 5.67157 15 6.5ZM23.9494 14.0403C23.6556 11.2681 22.1031 8.87161 19.8743 7.43297C19.7828 7.76462 19.6437 8.07654 19.4648 8.36091C21.3525 9.63288 22.6683 11.6887 22.9456 14.0617C21.8317 14.3139 21 15.3098 21 16.5C21 17.8807 22.1193 19 23.5 19C24.8807 19 26 17.8807 26 16.5C26 15.2727 25.1157 14.252 23.9494 14.0403ZM23.5012 15L23.5 15H23.4988C22.6709 15.0007 22 15.672 22 16.5C22 17.3284 22.6716 18 23.5 18C24.3284 18 25 17.3284 25 16.5C25 15.672 24.3291 15.0007 23.5012 15ZM21.6392 19.4649C21.9235 19.6437 22.2355 19.7828 22.5671 19.8743C21.1285 22.1032 18.7319 23.6556 15.9597 23.9495C15.748 25.1157 14.7273 26 13.5 26C12.1193 26 11 24.8807 11 23.5C11 22.1193 12.1193 21 13.5 21C14.6902 21 15.6861 21.8317 15.9383 22.9456C18.3114 22.6684 20.3672 21.3526 21.6392 19.4649ZM13.5 22C14.3284 22 15 22.6716 15 23.5C15 24.3284 14.3284 25 13.5 25C12.6716 25 12 24.3284 12 23.5C12 22.6716 12.6716 22 13.5 22ZM9 13.5C9 14.6902 8.16833 15.6861 7.05444 15.9383C7.33165 18.3113 8.64742 20.3672 10.5351 21.6392C10.3563 21.9236 10.2172 22.2355 10.1257 22.5671C7.89686 21.1285 6.3444 18.7319 6.05056 15.9597C4.88434 15.748 4 14.7273 4 13.5C4 12.1193 5.11929 11 6.5 11C7.88071 11 9 12.1193 9 13.5ZM8 13.5C8 14.3284 7.32843 15 6.5 15C5.67157 15 5 14.3284 5 13.5C5 12.6716 5.67157 12 6.5 12C7.32843 12 8 12.6716 8 13.5ZM19.5007 13.5871L19.5007 13.5871L19.5006 13.5871C19.2066 14.1105 18.8695 14.7106 18.75 15.187C18.6024 15.7753 18.6262 16.2937 18.6498 16.8065C18.6739 17.3307 18.6977 17.849 18.5377 18.4301C18.1045 20.0039 17.7558 20.0034 15.2117 19.9997L15 19.9994C14.1145 19.9986 12.8431 19.3493 11.984 18.9105C11.8704 18.8525 11.764 18.7982 11.6666 18.7495C11.254 18.5432 10.8415 18.5475 10.5301 18.5507H10.5301C10.2124 18.554 10 18.5562 10 18.3328C10 17.8905 10.4166 17.4996 11.2499 17.4996L12.9169 17.6582C13.0073 17.6582 13.095 17.6675 13.1771 17.6763H13.1771C13.4733 17.7079 13.6965 17.7316 13.7075 17.2807C13.7002 16.4281 13.6159 15.7733 13.1831 15.0808L11.5024 12.4588C11.4021 12.2501 11.3782 11.8942 11.6687 11.7353C11.9593 11.5764 12.2894 11.8126 12.4022 12.0182L14.2795 14.5716C14.4798 14.7581 14.8365 14.7941 14.8061 14.397L13.9772 10.5969C13.9255 10.3269 14.0626 10 14.3751 10C14.5624 10 14.7151 10.0843 14.8258 10.176C14.9826 10.3059 15.054 10.5051 15.1021 10.703L15.941 14.1538C16.0122 14.3363 16.2648 14.312 16.3328 14.1436L16.5924 10.4976C16.6057 10.3813 16.7575 10.1786 17.0487 10.2208C17.3398 10.263 17.5077 10.5749 17.4769 10.6956L17.3926 14.2982C17.4518 14.6175 17.7028 14.6641 17.8982 14.4859L19.1666 12.4999C19.3125 12.1398 19.9512 12.0488 19.9963 12.4346C19.9987 12.4551 20 12.4769 20 12.4999C20 12.6983 19.7681 13.111 19.5007 13.5871Z" fill="white"/>
</svg>
