<svg width="30" height="30" viewBox="0 0 30 30" fill="none" xmlns="http://www.w3.org/2000/svg">
<path fill-rule="evenodd" clip-rule="evenodd" d="M16.5 30L30 16.5L30 13.5L16.5 0H13.5L0 13.5V16.5L13.5 30L16.5 30ZM29 16V14L16 1L14 0.999999L1 14L1 16L14 29L16 29L29 16ZM30 30.0001V23.0001H24.5L23 24.5001V30.0001L30 30.0001ZM26.0001 29.0001H27.0001L29.0001 29.0001V28.0001H27.0001V25.0001H29.0001V24.0001H27.0001H26.0001H25.0001L24.0001 25.0001L26.0001 25.0001V28.0001H24.0001V29.0001H26.0001ZM18 14C20.2091 14 22 12.2091 22 10C22 7.79086 20.2091 6 18 6C15.7909 6 14 7.79086 14 10C14 12.2091 15.7909 14 18 14ZM21 9.50003H18.5V8H17.5V9.99389L17.5 10C17.5 10.2762 17.7238 10.5 18 10.5H21V9.50003ZM17 15C17 14.9665 16.9997 14.9331 16.9992 14.8998C16.6452 14.8279 16.3047 14.7186 15.9822 14.5761C15.994 14.7159 16 14.8573 16 15C16 17.7571 13.757 20 11.0002 20C8.24314 20 6 17.7571 6 15C6 12.2427 8.24314 10 11.0002 10C11.7177 10 12.4004 10.1519 13.0178 10.4253C13.006 10.2851 13 10.1433 13 10C13 9.78224 13.0139 9.56774 13.0409 9.35732C12.4036 9.12612 11.7163 9 11.0002 9C7.69177 9 5 11.6913 5 15C5 18.3085 7.69177 21 11.0002 21C12.3849 21 13.6616 20.5284 14.6781 19.7375L16.9 22.7C17.2777 23.2036 17.8727 23.5249 18.5008 23.4824C19.24 23.4323 19.4323 23.24 19.4824 22.5008C19.5249 21.8727 19.2036 21.2777 18.7 20.9L15.7375 18.6781C16.5284 17.6616 17 16.3848 17 15Z" fill="white"/>
</svg>
