<svg width="30" height="30" viewBox="0 0 30 30" fill="none" xmlns="http://www.w3.org/2000/svg">
<path d="M30 13.499V16.501L16.5 30H13.5L0 16.5V13.5L13.5 0H16.5L30 13.499ZM29.999 26H27.999V29H29.999V30H23L22.999 29H24.999V26H22.999L23.999 25H29.999V26ZM1 14V16L14 29H15.999L28.999 16V14L15.999 1H14L1 14ZM25.999 29H26.999V26H25.999V29ZM21.6396 19.4648C21.9239 19.6436 22.2359 19.7826 22.5674 19.874C21.1288 22.1028 18.7321 23.6553 15.96 23.9492C15.7482 25.1154 14.7273 26 13.5 26C12.1193 26 11 24.8807 11 23.5C11 22.1193 12.1193 21 13.5 21C14.6901 21 15.6862 21.8315 15.9385 22.9453C18.3114 22.668 20.3677 21.3525 21.6396 19.4648ZM13.5 22C12.6716 22 12 22.6716 12 23.5C12 24.3284 12.6716 25 13.5 25C14.3284 25 15 24.3284 15 23.5C15 22.6716 14.3284 22 13.5 22ZM6.5 11C7.88071 11 9 12.1193 9 13.5C9 14.6901 8.16848 15.6862 7.05469 15.9385C7.33196 18.3114 8.64752 20.3677 10.5352 21.6396C10.3564 21.9239 10.2174 22.2358 10.126 22.5674C7.89721 21.1288 6.34469 18.7321 6.05078 15.96C4.88457 15.7483 4 14.7273 4 13.5C4 12.1193 5.11929 11 6.5 11ZM14.375 10C14.5623 10 14.7155 10.0841 14.8262 10.1758C14.9829 10.3057 15.0544 10.5053 15.1025 10.7031L15.9414 14.1543C16.0129 14.3362 16.2651 14.3117 16.333 14.1436L16.5928 10.498C16.6061 10.3817 16.7576 10.1785 17.0488 10.2207C17.3397 10.263 17.5071 10.5745 17.4766 10.6953L17.3926 14.2979C17.4517 14.6171 17.7031 14.6645 17.8984 14.4863L19.167 12.5C19.3129 12.14 19.9509 12.0488 19.9961 12.4346C19.9985 12.4551 20 12.477 20 12.5C19.9999 12.6488 19.8694 12.918 19.6914 13.2441L19.2764 13.9912C19.052 14.4029 18.8397 14.8294 18.75 15.1865C18.6024 15.7749 18.6258 16.2939 18.6494 16.8066C18.6735 17.3307 18.6979 17.8489 18.5381 18.4297C18.1049 20.0034 17.7559 20.0037 15.2119 20C15.143 19.9999 15.0722 19.9991 15 19.999C14.1145 19.9982 12.8434 19.3489 11.9844 18.9102C11.8708 18.8521 11.7643 18.7977 11.667 18.749C11.2545 18.5428 10.8417 18.5476 10.5303 18.5508C10.2127 18.5541 10.0001 18.5562 10 18.333C10 17.8907 10.4167 17.5 11.25 17.5L12.917 17.6582C13.0072 17.6582 13.0948 17.668 13.1768 17.6768C13.473 17.7083 13.697 17.7313 13.708 17.2803C13.7006 16.4279 13.6154 15.7735 13.1826 15.0811L11.502 12.459C11.4016 12.2502 11.3784 11.8942 11.6689 11.7354C11.9595 11.5766 12.2896 11.8129 12.4023 12.0186L14.2793 14.5713C14.4796 14.7578 14.8358 14.7941 14.8057 14.3975L13.9775 10.5967C13.926 10.3268 14.0626 10.0001 14.375 10ZM19.874 7.43262C22.1028 8.87121 23.6553 11.268 23.9492 14.04C25.1154 14.2517 26 15.2727 26 16.5C26 17.8807 24.8807 19 23.5 19C22.1193 19 21 17.8807 21 16.5C21 15.3099 21.8315 14.3138 22.9453 14.0615C22.668 11.6887 21.3524 9.63328 19.4648 8.36133C19.6437 8.07696 19.7825 7.76427 19.874 7.43262ZM23.5 15C22.6716 15 22 15.6716 22 16.5C22 17.3284 22.6716 18 23.5 18C24.3284 18 25 17.3284 25 16.5C25 15.6716 24.3284 15 23.5 15ZM6.5 12C5.67157 12 5 12.6716 5 13.5C5 14.3284 5.67157 15 6.5 15C7.32843 15 8 14.3284 8 13.5C8 12.6716 7.32843 12 6.5 12ZM16.5 4C17.8807 4 19 5.11929 19 6.5C19 7.88071 17.8807 9 16.5 9C15.3099 9 14.3138 8.16848 14.0615 7.05469C11.6887 7.33196 9.63329 8.64765 8.36133 10.5352C8.07695 10.3563 7.76428 10.2175 7.43262 10.126C8.87123 7.89725 11.268 6.34471 14.04 6.05078C14.2517 4.88453 15.2727 4 16.5 4ZM16.5 5C15.6716 5 15 5.67157 15 6.5C15 7.32843 15.6716 8 16.5 8C17.3284 8 18 7.32843 18 6.5C18 5.67157 17.3284 5 16.5 5Z" fill="white"/>
</svg>
