<svg width="30" height="30" viewBox="0 0 30 30" fill="none" xmlns="http://www.w3.org/2000/svg">
<path d="M30 13.499V16.501L16.5 30H13.5L0 16.5V13.5L13.5 0H16.5L30 13.499ZM29.999 26H27.999V29H29.999V30H23L22.999 29H24.999V26H22.999L23.999 25H29.999V26ZM1 14V16L14 29H15.999L28.999 16V14L15.999 1H14L1 14ZM25.999 29H26.999V26H25.999V29ZM11 9C11.7162 9 12.4037 9.12622 13.041 9.35742C13.014 9.56781 13 9.78227 13 10C13 10.1433 13.0058 10.2856 13.0176 10.4258C12.4002 10.1524 11.7175 10 11 10C8.24306 10.0001 6 12.2428 6 15C6 17.757 8.24306 19.9999 11 20C13.7569 20 16 17.7571 16 15C16 14.8573 15.9942 14.7159 15.9824 14.5762C16.3048 14.7185 16.6452 14.8275 16.999 14.8994C16.9996 14.9327 17 14.9665 17 15C17 16.3848 16.5282 17.6612 15.7373 18.6777L18.7002 20.9004C19.2036 21.2781 19.525 21.873 19.4824 22.501C19.4323 23.2399 19.2399 23.4323 18.501 23.4824C17.873 23.525 17.2781 23.2036 16.9004 22.7002L14.6777 19.7373C13.6613 20.5282 12.3847 21 11 21C7.69167 20.9999 5 18.3084 5 15C5 11.6914 7.69167 9.0001 11 9ZM18 6C20.2091 6 22 7.79086 22 10C22 12.2091 20.2091 14 18 14C15.7909 14 14 12.2091 14 10C14 7.79086 15.7909 6 18 6ZM17.5 8V10C17.5 10.2761 17.7239 10.5 18 10.5H21V9.5H18.5V8H17.5Z" fill="white"/>
</svg>
