<svg width="30" height="30" viewBox="0 0 30 30" fill="none" xmlns="http://www.w3.org/2000/svg">
<path fill-rule="evenodd" clip-rule="evenodd" d="M16.5 30L30 16.5L30 13.5L16.5 0H13.5L0 13.5V16.5L13.5 30L16.5 30ZM29 16V14L16 1L14 0.999999L1 14L1 16L14 29L16 29L29 16ZM29.9995 30.0001V23.0001H24.4995L22.9995 24.5001V30.0001H29.9995ZM28.9995 28.0001V25.0001H28.9993V24.0001H24.9993L23.9993 25.0001H23.9995V28.0001H23.9993V29.0001L28.9993 29.0001V28.0001H28.9995ZM24.9995 28.0001V25.0001H25.9995V28.0001H24.9995ZM26.9995 28.0001V25.0001H27.9995V28.0001H26.9995ZM8 12L12 8L16 12L13 11L13 22L11 20V11L8 12ZM19 19L22 18L18 22L14 18L17 19L17 8L19 10V19Z" fill="white"/>
</svg>
