<svg width="30" height="30" viewBox="0 0 30 30" fill="none" xmlns="http://www.w3.org/2000/svg">
<path fill-rule="evenodd" clip-rule="evenodd" d="M16.5 30L19.5 27L27 26.9999V19.5L30 16.5V13.5L27 10.5V3.00017L19.5001 3.00013L16.5 0L13.5 3.8147e-06L10.4999 3.00009L2.99998 3.00005L2.99999 10.5L0 13.5V16.5L3 19.5L3.00002 27.0001L10.5 27L13.5 30H16.5ZM16 29L18.0001 27L19.0001 26L26 19.0001L27 18.0001L29 16V14L27 12.0001L26 11L19 4.00013L18.0001 3.00013L16 1H14L11.9999 3.0001L10.9999 4.00009L3.99999 11L2.99999 12L1 14V16L14 29H16ZM26 25.9999L20.5 26L26 20.5V25.9999ZM26 4.00016V9.49998L20.5001 4.00013L26 4.00016ZM3.99998 4.00005L9.49992 4.00008L3.99998 9.50002L3.99998 4.00005ZM4.00001 26.0001L4 20.5L9.50002 26L4.00001 26.0001ZM10.5 13H16.4435C16.4081 13.1456 16.3564 13.2873 16.2889 13.4223L16 14H16.956L17.2607 13.4547C17.3411 13.3107 17.4031 13.158 17.4458 13H20.5C21.948 13 22.964 12.8368 23.5 12.7218V13H24.5V10L23.5 10V10.2711C23.2095 10.3328 22.7383 10.3889 21.9853 10.3889C21.0153 10.3889 20.3259 10.2959 19.9172 10.2175C19.632 10.1628 19.3292 10.2048 19.0872 10.3652C18.8057 10.5517 18.4461 10.5741 18.1437 10.4238L17.5148 10.1111V9H16.5V10H9.50005C8.25868 9.99979 6.69426 10.5823 5.88638 11.5944L5.50005 12H6.50005C7.0331 12 8.04286 12.2056 8.50005 12.5C8.95723 12.7944 9.967 13 10.5 13ZM19.5 17H13.5565C13.5919 16.8543 13.6437 16.7126 13.7112 16.5777L14 16H13.0441L12.7394 16.5452C12.6589 16.6892 12.5969 16.842 12.5543 16.9999H9.50003C8.05206 16.9999 7.03608 17.1631 6.5 17.2781V17H5.5V20L6.5 19.9999V19.7289C6.79058 19.6671 7.26174 19.6111 8.01479 19.6111C8.98474 19.6111 9.6741 19.7041 10.0829 19.7824C10.3681 19.8371 10.6708 19.7952 10.9129 19.6348C11.1944 19.4482 11.554 19.4259 11.8564 19.5762L12.4853 19.8888V21H13.5V20H20.5C21.7414 20.0002 23.3058 19.4176 24.1137 18.4056L24.5 18H23.5C22.9669 18 21.9572 17.7944 21.5 17.5C21.0428 17.2055 20.0331 17 19.5 17Z" fill="white"/>
</svg>
