<svg width="30" height="30" viewBox="0 0 30 30" fill="none" xmlns="http://www.w3.org/2000/svg">
<path fill-rule="evenodd" clip-rule="evenodd" d="M16.5 30L19.5 27L27 26.9999V19.5L30 16.5L30 13.5L27 10.5V3.00017L19.5001 3.00013L16.5 0L13.5 3.12157e-06L10.4999 3.00009L2.99998 3.00005L2.99999 10.5L0 13.5V16.5L3 19.5L3.00001 27.0001L10.5 27L13.5 30L16.5 30ZM16 29L18.0001 27L19.0001 26L26 19.0001L27 18.0001L29 16V14L27 12V12.0001L26 11.0001V11L19.0001 4.00013H19.0001L18.0001 3.00013H18.0001L16 1L14 1L11.9999 3.0001H11.9999L10.9999 4.00009H10.9999L3.99999 11V11L2.99999 12V12L1 14L1 16L14 29H16ZM26 25.9999L20.5 26L26 20.5V25.9999ZM26 4.00016V9.49998L20.5001 4.00013L26 4.00016ZM3.99998 4.00005L9.49992 4.00008L3.99999 9.50002L3.99998 4.00005ZM4.00001 26.0001L4 20.5L9.50002 26L4.00001 26.0001ZM8 10.5C8 9.5 9.5 8 10 8H12C12.4419 8 12.7862 8.29296 13.0328 8.61994C13.4119 9.12252 13.8515 9.61716 14.4487 9.81623L15 10V8.5L14 7.5L14.3553 7.32233C14.7403 7.12984 15.2053 7.20529 15.5097 7.50965L16 8V10.5L19.5 12.5L20.2031 11.4453C20.3886 11.1671 20.7008 11 21.0352 11H22.5L23 10L23.2764 10.5528C23.6088 11.2177 23.1253 12 22.382 12H21.7208C21.2903 12 20.9082 12.2754 20.7721 12.6838L20.5 13.5L22.1213 15.1213C22.6839 15.6839 23 16.447 23 17.2426V18.7574C23 19.553 22.6839 20.3161 22.1213 20.8787L21.9573 21.0427C21.3486 21.6514 20.5079 21.9692 19.6488 21.9156L13.3912 21.5244C13.1315 21.5082 12.8708 21.5258 12.6157 21.5769L11.1419 21.8716C10.8186 21.9363 10.6453 22.2906 10.7928 22.5855L12 25L9.9026 22.9026C9.64482 22.6448 9.5 22.2952 9.5 21.9306C9.5 21.3686 9.8422 20.8631 10.3641 20.6544L11.4636 20.2146C11.8179 20.0728 12.1961 20 12.5777 20H18.2929C18.7456 20 19.1799 19.8201 19.5 19.5C19.8201 19.1799 20 18.7456 20 18.2929V18.1689C20 17.7347 19.8592 17.3122 19.5987 16.9649L18.5 15.5L17.6751 16.0499C17.2817 16.3122 17.1257 16.8143 17.3013 17.2534L17.4514 17.6286C17.7142 18.2855 17.2304 19 16.523 19H16L16.5 18L15.9547 17.1821C15.6903 16.7855 15.7426 16.2574 16.0797 15.9203L17.5 14.5L15.5 13L14 15H13.118C12.7393 15 12.393 14.786 12.2236 14.4472L12 14H13.5L14.5 12.5C13.9477 12.2239 13.2735 12.4921 12.7382 12.7998C12.5334 12.9174 12.2873 13 12 13H10C9.5 13 8 11.5 8 10.5Z" fill="white"/>
</svg>
