<svg width="30" height="30" viewBox="0 0 30 30" fill="none" xmlns="http://www.w3.org/2000/svg">
<path fill-rule="evenodd" clip-rule="evenodd" d="M16.5 30L30 16.5L30 13.5L16.5 0H13.5L0 13.5V16.5L13.5 30L16.5 30ZM29 16V14L16 1L14 0.999999L1 14L1 16L14 29L16 29L29 16ZM30 30.0001V23.0001H24.5L23 24.5001V30.0001L30 30.0001ZM26.0001 29.0001H27.0001L29.0001 29.0001V28.0001H27.0001V25.0001H29.0001V24.0001H27.0001H26.0001H25.0001L24.0001 25.0001L26.0001 25.0001V28.0001H24.0001V29.0001H26.0001ZM11 6L8 9H10V12H12V9H14L11 6ZM15 12L9 14.5L15 17L21 14.5L15 12ZM9 21.5V15.5L14.5 17.8V23.7917L9 21.5ZM21 21.5L15.5 23.7917V17.8L21 15.5V21.5ZM16 9L19 6L22 9H20V12H18V9H16Z" fill="white"/>
</svg>
