<svg width="30" height="30" viewBox="0 0 30 30" fill="none" xmlns="http://www.w3.org/2000/svg">
<path d="M14.5002 17.7998V23.791L9.00024 21.5V15.5L14.5002 17.7998ZM21.0002 21.5L15.5002 23.791V17.7998L21.0002 15.5V21.5ZM21.0002 14.5L15.0002 17L9.00024 14.5L15.0002 12L21.0002 14.5ZM14.0002 9H12.0002V12H10.0002V9H8.00024L11.0002 6L14.0002 9ZM22.0002 9H20.0002V12H18.0002V9H16.0002L19.0002 6L22.0002 9Z" fill="white"/>
<path fill-rule="evenodd" clip-rule="evenodd" d="M16.5003 -0.000488281L30.0002 13.4995V16.5005L16.5003 30.0005L13.4999 29.9998L0 16.4998V13.5001L13.4999 0.000202253L16.5003 -0.000488281ZM0.999893 14.0001V15.9999L13.9999 28.9999H15.9997L28.9997 15.9999V14.0001L15.9997 1.0001H13.9999L0.999893 14.0001Z" fill="white"/>
</svg>
