<svg width="30" height="30" viewBox="0 0 30 30" fill="none" xmlns="http://www.w3.org/2000/svg">
<path fill-rule="evenodd" clip-rule="evenodd" d="M16.5 30L30 16.5V13.5L16.5 0H13.5L0 13.5V16.5L13.5 30L16.5 30ZM29 16V14L16 1L14 0.999999L1 14V16L14 29L16 29L29 16ZM29.9995 23V30H22.9995V24.5L24.4995 23H29.9995ZM27.9993 29H26.9993L25.9993 29L24.9993 29H23.9993V28H24.9993V25L23.9993 25L24.9993 24H25.9993H26.9993H27.9993H28.9993V25H27.9993V28H28.9993V29L27.9993 29ZM26.9993 25L25.9993 25V28H26.9993V25ZM15 7L8.5 8L7 9.5V14V19L15 27L23 19V14V9.5L21.5 8L15 7ZM15 8L9 9L8 10V18.5L15 25.5L22 18.5V10L21 9L15 8ZM17.6822 12.0952L14.4209 15.2085C14.3604 15.1137 14.311 15.0123 14.274 14.9063L14.1155 14.4524L13.5909 14.9531L13.7229 15.3983C13.7578 15.5159 13.8076 15.6284 13.8709 15.7335L12.1949 17.3333C11.4004 18.0918 10.9324 18.7094 10.7014 19.0505L10.5487 18.9048L10 19.4286L11.6462 21L12.1949 20.4762L12.0462 20.3342C12.1717 20.1497 12.3995 19.8735 12.8128 19.479C13.345 18.971 13.7743 18.6586 14.0416 18.4855C14.2281 18.3648 14.3712 18.1842 14.416 17.9734C14.4681 17.7282 14.6532 17.5282 14.9016 17.4485L15.4182 17.2828L16.028 17.8649L16.5848 17.3333L16.036 16.8095L19.8772 13.1429C20.5584 12.4927 21.0972 11.3681 20.9852 10.4148L20.9746 10L20.4259 10.5238C20.1334 10.803 19.4665 11.2243 19.0541 11.3095C18.6416 11.3948 17.9747 11.816 17.6822 12.0952Z" fill="white"/>
</svg>
