<svg width="30" height="30" viewBox="0 0 30 30" fill="none" xmlns="http://www.w3.org/2000/svg">
<path fill-rule="evenodd" clip-rule="evenodd" d="M30 16.5L16.5 30L13.5 30L0 16.5V13.5L13.5 0H16.5L30 13.5L30 16.5ZM29 14V16L16 29L14 29L1 16L1 14L14 0.999999L16 1L29 14ZM29.9995 30V23H24.4995L22.9995 24.5V30H29.9995ZM26.9993 29H27.9993V29L28.9993 29V28H27.9993V25H28.9993V24H27.9993H26.9993H25.9993H24.9993L23.9993 25L24.9993 25V28H23.9993V29H24.9993L25.9993 29L26.9993 29ZM25.9993 25L26.9993 25V28H25.9993V25Z" fill="white"/>
<path fill-rule="evenodd" clip-rule="evenodd" d="M8.5 22L7 20.5L7.5 20H8L10 18L9 17V16L9.5 15.5L10 16.5L10.5 17L13.5 14L9 9.5L8.5 7.5L10.5 8L15 12.5L19.5 8L21.5 7.5L21 9.5L16.5 14L19.5 17L20 16.5L20.5 15.5L21 16V17L20 18L22 20H22.5L23 20.5L21.5 22L21 21.5V21L19 19L18 20H17L16.5 19.5L17.5 19L18 18.5L15 15.5L12 18.5L12.5 19L13.5 19.5L13 20H12L11 19L9 21V21.5L8.5 22Z" fill="white"/>
</svg>
