<svg width="30" height="30" viewBox="0 0 30 30" fill="none" xmlns="http://www.w3.org/2000/svg">
<path fill-rule="evenodd" clip-rule="evenodd" d="M8.5 22L7 20.5L7.5 20H8L10 18L9 17V16L9.5 15.5L10 16.5L10.5 17L13.5 14L9 9.5L8.5 7.5L10.5 8L15 12.5L19.5 8L21.5 7.5L21 9.5L16.5 14L19.5 17L20 16.5L20.5 15.5L21 16V17L20 18L22 20H22.5L23 20.5L21.5 22L21 21.5V21L19 19L18 20H17L16.5 19.5L17.5 19L18 18.5L15 15.5L12 18.5L12.5 19L13.5 19.5L13 20H12L11 19L9 21V21.5L8.5 22Z" fill="white"/>
<path d="M30 13.499V16.501L16.5 30H13.5L0 16.5V13.5L13.5 0H16.5L30 13.499ZM29.999 26H27.999V29H29.999V30H23L22.999 29H24.999V26H22.999L23.999 25H29.999V26ZM1 14V16L14 29H15.999L28.999 16V14L15.999 1H14L1 14ZM25.999 26V29H26.999V26H25.999Z" fill="white"/>
</svg>
