<svg width="30" height="30" viewBox="0 0 30 30" fill="none" xmlns="http://www.w3.org/2000/svg">
<path fill-rule="evenodd" clip-rule="evenodd" d="M30 16.5L16.5 30L13.5 30L0 16.5V13.5L13.5 0H16.5L30 13.5L30 16.5ZM29 14V16L16 29L14 29L1 16L1 14L14 0.999999L16 1L29 14ZM30 23.0001V30.0001L23 30.0001V24.5001L24.5 23.0001H30ZM27.0001 29.0001H26.0001H24.0001V28.0001H26.0001V25.0001L24.0001 25.0001L25.0001 24.0001H26.0001H27.0001H29.0001V25.0001H27.0001V28.0001H29.0001V29.0001L27.0001 29.0001Z" fill="white"/>
<path fill-rule="evenodd" clip-rule="evenodd" d="M8.5 22L7 20.5L7.5 20H8L10 18L9 17V16L9.5 15.5L10 16.5L10.5 17L13.5 14L9 9.5L8.5 7.5L10.5 8L15 12.5L19.5 8L21.5 7.5L21 9.5L16.5 14L19.5 17L20 16.5L20.5 15.5L21 16V17L20 18L22 20H22.5L23 20.5L21.5 22L21 21.5V21L19 19L18 20H17L16.5 19.5L17.5 19L18 18.5L15 15.5L12 18.5L12.5 19L13.5 19.5L13 20H12L11 19L9 21V21.5L8.5 22Z" fill="white"/>
</svg>
