<svg width="30" height="30" viewBox="0 0 30 30" fill="none" xmlns="http://www.w3.org/2000/svg">
<path d="M30 13.499V16.501L16.5 30H13.5L0 16.5V13.5L13.5 0H16.5L30 13.499ZM30.001 26H29.002V29H30V30H23V29H24V26H23.001L24.001 25H30.001V26ZM1 14V16L14 29H15.999L28.999 16V14L15.999 1H14L1 14ZM25 29H26V26H25V29ZM27 29H28.002V26H27V29ZM21.5 8L23 9.5V19L15 27L7 19V9.5L8.5 8L15 7L21.5 8ZM9 9L8 10V18.5L15 25.5L22 18.5V10L21 9L15 8L9 9ZM20.9854 10.415C21.0973 11.3683 20.5582 12.4925 19.877 13.1426L16.0361 16.8096L16.585 17.333L16.0283 17.8652L15.418 17.2832L14.9014 17.4482C14.653 17.5279 14.4681 17.7285 14.416 17.9736C14.3712 18.1842 14.2282 18.3647 14.042 18.4854C13.7747 18.6584 13.3447 18.9714 12.8125 19.4795C12.3995 19.8737 12.1714 20.1495 12.0459 20.334L12.1953 20.4766L11.6465 21L10 19.4287L10.5488 18.9043L10.7012 19.0508C10.9323 18.7098 11.4008 18.0915 12.1953 17.333L13.8711 15.7334C13.8078 15.6283 13.7575 15.516 13.7227 15.3984L13.5908 14.9531L14.1152 14.4521L14.2744 14.9062C14.3114 15.0121 14.3605 15.1133 14.4209 15.208L17.6826 12.0957C17.975 11.8166 18.6412 11.395 19.0537 11.3096C19.4662 11.2243 20.1333 10.8027 20.4258 10.5234L20.9746 10L20.9854 10.415Z" fill="white"/>
</svg>
