<svg width="30" height="30" viewBox="0 0 30 30" fill="none" xmlns="http://www.w3.org/2000/svg">
<path d="M21.0002 9.5L16.5002 14L19.5002 17L20.0002 16.5L20.5002 15.5L21.0002 16V17L20.0002 18L22.0002 20H22.5002L23.0002 20.5L21.5002 22L21.0002 21.5V21L19.0002 19L18.0002 20H17.0002L16.5002 19.5L17.5002 19L18.0002 18.5L15.0002 15.5L12.0002 18.5L12.5002 19L13.5002 19.5L13.0002 20H12.0002L11.0002 19L9.00024 21V21.5L8.50024 22L7.00024 20.5L7.50024 20H8.00024L10.0002 18L9.00024 17V16L9.50024 15.5L10.0002 16.5L10.5002 17L13.5002 14L9.00024 9.5L8.50024 7.5L10.5002 8L15.0002 12.5L19.5002 8L21.5002 7.5L21.0002 9.5Z" fill="white"/>
<path fill-rule="evenodd" clip-rule="evenodd" d="M16.5003 -0.000488281L30.0002 13.4995V16.5005L16.5003 30.0005L13.4999 29.9998L0 16.4998V13.5001L13.4999 0.000202253L16.5003 -0.000488281ZM0.999893 14.0001V15.9999L13.9999 28.9999H15.9997L28.9997 15.9999V14.0001L15.9997 1.0001H13.9999L0.999893 14.0001Z" fill="white"/>
</svg>
