<svg width="30" height="30" viewBox="0 0 30 30" fill="none" xmlns="http://www.w3.org/2000/svg">
<path d="M21.5002 8L23.0002 9.5V19L15.0002 27L7.00024 19V9.5L8.50024 8L15.0002 7L21.5002 8ZM9.00024 9L8.00024 10V18.5L15.0002 25.5L22.0002 18.5V10L21.0002 9L15.0002 8L9.00024 9ZM20.9856 10.415C21.0975 11.3683 20.5584 12.4925 19.8772 13.1426L16.0364 16.8096L16.5852 17.333L16.0286 17.8652L15.4182 17.2832L14.9016 17.4482C14.6533 17.5279 14.4683 17.7285 14.4163 17.9736C14.3714 18.1842 14.2285 18.3647 14.0422 18.4854C13.7749 18.6584 13.345 18.9714 12.8127 19.4795C12.3998 19.8737 12.1717 20.1495 12.0461 20.334L12.1956 20.4766L11.6467 21L10.0002 19.4287L10.5491 18.9043L10.7014 19.0508C10.9325 18.7098 11.401 18.0915 12.1956 17.333L13.8713 15.7334C13.808 15.6283 13.7578 15.516 13.7229 15.3984L13.5911 14.9531L14.1155 14.4521L14.2747 14.9062C14.3116 15.0121 14.3608 15.1133 14.4211 15.208L17.6829 12.0957C17.9753 11.8166 18.6415 11.395 19.054 11.3096C19.4664 11.2243 20.1335 10.8027 20.426 10.5234L20.9749 10L20.9856 10.415Z" fill="white"/>
<path fill-rule="evenodd" clip-rule="evenodd" d="M16.5003 -0.000488281L30.0002 13.4995V16.5005L16.5003 30.0005L13.4999 29.9998L0 16.4998V13.5001L13.4999 0.000202253L16.5003 -0.000488281ZM0.999893 14.0001V15.9999L13.9999 28.9999H15.9997L28.9997 15.9999V14.0001L15.9997 1.0001H13.9999L0.999893 14.0001Z" fill="white"/>
</svg>
