<svg width="30" height="30" viewBox="0 0 30 30" fill="none" xmlns="http://www.w3.org/2000/svg">
<path fill-rule="evenodd" clip-rule="evenodd" d="M16.5 30L19.5 27L27 26.9999V19.5L30 16.5L30 13.5L27 10.5V3.00017L19.5001 3.00013L16.5 0L13.5 3.12157e-06L10.4999 3.00009L2.99998 3.00005L2.99999 10.5L0 13.5V16.5L3 19.5L3.00001 27.0001L10.5 27L13.5 30L16.5 30ZM16 29L18.0001 27L19.0001 26L26 19.0001L27 18.0001L29 16V14L27 12V12.0001L26 11.0001V11L19.0001 4.00013H19.0001L18.0001 3.00013H18.0001L16 1L14 1L11.9999 3.0001H11.9999L10.9999 4.00009H10.9999L3.99999 11V11L2.99999 12V12L1 14L1 16L7.83203 22.832L9.21429 19.7143L9.22842 19.7117L9.10332 19.1786L7.99998 17.5V14.2221L6.25868 13.8214L8.06899 13.2857L7.99998 13.2142V13.2142L6.00018 11.143L11.1724 14.3571H9.00002V17L10.2857 18.9871V19.5193L11.59 19.2819L8.00001 23L14 29H16ZM26 25.9999L20.5 26L26 20.5V25.9999ZM26 4.00016V9.49998L20.5001 4.00013L26 4.00016ZM3.99998 4.00005L9.49992 4.00008L3.99999 9.50002L3.99998 4.00005ZM4.00001 26.0001L4 20.5L9.50002 26L4.00001 26.0001ZM18.9999 14C21.209 14 22.9999 12.2091 22.9999 10C22.9999 7.79086 21.209 6 18.9999 6C16.7908 6 14.9999 7.79086 14.9999 10C14.9999 12.2091 16.7908 14 18.9999 14ZM18.5287 11.368H19.4727L19.6087 7.4H18.3927L18.5287 11.368ZM18.3607 12.464C18.3607 12.824 18.6327 13.104 19.0007 13.104C19.3687 13.104 19.6407 12.824 19.6407 12.464C19.6407 12.104 19.3687 11.824 19.0007 11.824C18.6327 11.824 18.3607 12.104 18.3607 12.464ZM14.1 9H13.7585H11L9.91447 10.0855L8.10584 9.28412L9.85709 11.8752L12.25 12.75L10.71 10.79L11.5 10L13.7588 9.96877L14.0001 9.97152C14.0019 9.63899 14.0363 9.31415 14.1 9ZM19 15C19.1611 15 19.3204 14.9924 19.4776 14.9775L19.5 17.5L19.1578 18.0288L18.3276 17.752L18.4999 17.4948V14.9753C18.6644 14.9916 18.8312 15 19 15ZM11.6715 19.5199L11.4713 22.3414L13.7588 23L17 22L17.3689 19.7771L15.8277 19.1785L17.25 19L16.3449 17.8392L16.8623 18.1071L16.8622 18.1072L21 20.2499L18.2663 20.0761L17.7857 23L13.7585 24L10.0806 23.0214L11.6715 19.5199ZM6.00003 11.1428L6.00003 11.1428L6 11.1428L6.00003 11.1428ZM9.75001 15.6169C9.75001 15.0377 12.9643 15.9275 12.9643 16.4982C12.9643 17.0393 12.2076 17.0372 11.6 17.0355L11.5015 17.0354C10.2601 17.0354 9.75001 16.1961 9.75001 15.6169ZM17.7856 15.6208C17.7856 15.0432 14.5714 15.9307 14.5714 16.4999C14.5714 17.0396 15.3281 17.0375 15.9356 17.0358L16.0341 17.0356C17.2755 17.0356 17.7856 16.1985 17.7856 15.6208Z" fill="white"/>
</svg>
