<svg width="30" height="30" viewBox="0 0 30 30" fill="none" xmlns="http://www.w3.org/2000/svg">
<path fill-rule="evenodd" clip-rule="evenodd" d="M16.5 30L19.5 27L27 26.9999V19.5L30 16.5L30 13.5L27 10.5V3.00017L19.5001 3.00013L16.5 0L13.5 3.12157e-06L10.4999 3.00009L2.99998 3.00005L2.99999 10.5L0 13.5V16.5L3 19.5L3.00001 27.0001L10.5 27L13.5 30L16.5 30ZM16 29L18.0001 27L19.0001 26L26 19.0001L27 18.0001L29 16V14L27 12V12.0001L26 11.0001V11L19.0001 4.00013H19.0001L18.0001 3.00013H18.0001L16 1L14 1L11.9999 3.0001H11.9999L10.9999 4.00009H10.9999L3.99999 11V11L2.99999 12V12L1 14L1 16L14 29H16ZM26 25.9999L20.5 26L26 20.5V25.9999ZM26 4.00016V9.49998L20.5001 4.00013L26 4.00016ZM3.99998 4.00005L9.49992 4.00008L3.99999 9.50002L3.99998 4.00005ZM4.00001 26.0001L4 20.5L9.50002 26L4.00001 26.0001ZM18.9998 14C21.2089 14 22.9998 12.2091 22.9998 10C22.9998 7.79086 21.2089 6 18.9998 6C16.7906 6 14.9998 7.79086 14.9998 10C14.9998 12.2091 16.7906 14 18.9998 14ZM18.5286 11.368H19.4726L19.6086 7.4H18.3926L18.5286 11.368ZM18.3606 12.464C18.3606 12.824 18.6326 13.104 19.0006 13.104C19.3686 13.104 19.6406 12.824 19.6406 12.464C19.6406 12.104 19.3686 11.824 19.0006 11.824C18.6326 11.824 18.3606 12.104 18.3606 12.464ZM14.0999 9H12H9.5L6.5 11.5L6 13.5L5 15.5V17H5.5L6 16L8 15H12H16L18 16L18.5 17H19V15.5L18.7469 14.9937C17.7186 14.9425 16.7722 14.5806 15.9994 14H12V10L13.9999 10C13.9999 9.65753 14.0343 9.32311 14.0999 9ZM7.49992 12L9.99992 10H11.9999V14H7.50004L5.99992 15L6.99992 14L7.49992 12ZM16 15.5L17 16L17.5 17V18.5L15.5 20.5L15.5 20.5V21L15 22.5L13 24H11L8.99998 22.5L8.49998 21V20.5L6.50001 18.5V17L7.00001 16L8.00001 15.5H12L16 15.5ZM12 19L14.5 20.25V21L14 22L12.5 23H11.5L9.99998 22L9.49998 21V20.25L12 19ZM12 18H11.5L8.83333 19.3333L7.49998 18V17L7.99998 16.5H12V18ZM15.1667 19.3333L12.5 18H12V16.5H16L16.5 17V18L15.1667 19.3333ZM9 18.5L11 17.5V17H8.5V18L9 18.5ZM13 17.5L15 18.5L15.5 18V17H13V17.5Z" fill="white"/>
</svg>
