<svg width="30" height="30" viewBox="0 0 30 30" fill="none" xmlns="http://www.w3.org/2000/svg">
<path fill-rule="evenodd" clip-rule="evenodd" d="M16.5 30L19.5 27L27 26.9999V19.5L30 16.5L30 13.5L27 10.5V3.00017L19.5001 3.00013L16.5 0L13.5 3.12157e-06L10.4999 3.00009L2.99998 3.00005L2.99999 10.5L0 13.5V16.5L3 19.5L3.00001 27.0001L10.5 27L13.5 30L16.5 30ZM16 29L18.0001 27L19.0001 26L26 19.0001L27 18.0001L29 16V14L27 12V12.0001L26 11.0001V11L19.0001 4.00013H19.0001L18.0001 3.00013H18.0001L16 1L14 1L11.9999 3.0001H11.9999L10.9999 4.00009H10.9999L3.99999 11V11L2.99999 12V12L1 14L1 16L14 29H16ZM26 25.9999L20.5 26L26 20.5V25.9999ZM26 4.00016V9.49998L20.5001 4.00013L26 4.00016ZM3.99998 4.00005L9.49992 4.00008L3.99999 9.50002L3.99998 4.00005ZM4.00001 26.0001L4 20.5L9.50002 26L4.00001 26.0001ZM6 10V16C6 20.9706 10.0294 25 15 25C19.9706 25 24 20.9706 24 16V10L21 7L22.5 11L22.5027 11.0274L22.4633 10.9685L19 8H11L7.5367 10.9685L7.49726 11.0274L7.5 11L9 7L6 10ZM14 17V15.5C14 13.567 12.433 12 10.5 12C8.567 12 7 13.567 7 15.5V16C7 20.4183 10.5817 24 15 24C19.4183 24 23 20.4183 23 16V15.5C23 13.567 21.433 12 19.5 12C17.567 12 16 13.567 16 15.5V17V19L15 22L14 19V17ZM13 15.5C13 16.8807 11.8807 18 10.5 18C9.11929 18 8 16.8807 8 15.5C8 14.1193 9.11929 13 10.5 13C11.8807 13 13 14.1193 13 15.5ZM19.5 18C20.8807 18 22 16.8807 22 15.5C22 14.1193 20.8807 13 19.5 13C18.1193 13 17 14.1193 17 15.5C17 16.8807 18.1193 18 19.5 18Z" fill="white"/>
</svg>
