<svg width="30" height="30" viewBox="0 0 30 30" fill="none" xmlns="http://www.w3.org/2000/svg">
<path d="M30 13.499V16.501L16.5 30H13.5L0 16.5V13.5L13.5 0H16.5L30 13.499ZM1 14V16L14 29H15.999L28.999 16V14L15.999 1H14L1 14ZM12 8H18V6H19L22 9V10L17.2373 14.999L22 20V21L19 24H18V22H12V24H11L8 21V20L12.7617 15L8 10V9L11 6H12V8ZM9 20.5L11 22.5V21H18V20.5L17.5234 20H11L14.2607 16.5742L13.499 15.7744L9 20.5ZM9 9.5L19 20V22.5L21 20.5L11 10V7.5L9 9.5ZM13.4287 19H16.5713L15 17.3496L13.4287 19ZM19 9H12V9.5L12.4766 10H19L15.7373 13.4238L16.499 14.2246L21 9.5L19 7.5V9ZM15.3535 13.0215L15 12.6494L16.5713 11H13.4287L15.3535 13.0215Z" fill="white"/>
</svg>
