<svg width="30" height="30" viewBox="0 0 30 30" fill="none" xmlns="http://www.w3.org/2000/svg">
<path fill-rule="evenodd" clip-rule="evenodd" d="M16.5 30L19.5 27L27 26.9999V19.5L30 16.5L30 13.5L27 10.5V3.00017L19.5001 3.00013L16.5 0L13.5 3.12157e-06L10.4999 3.00009L2.99998 3.00005L2.99999 10.5L0 13.5V16.5L3 19.5L3.00001 27.0001L10.5 27L13.5 30L16.5 30ZM16 29L18.0001 27L19.0001 26L26 19.0001L27 18.0001L29 16V14L27 12V12.0001L26 11.0001V11L19.0001 4.00013H19.0001L18.0001 3.00013H18.0001L16 1L14 1L11.9999 3.0001H11.9999L10.9999 4.00009H10.9999L3.99999 11V11L2.99999 12V12L1 14L1 16L14 29H16ZM26 25.9999L20.5 26L26 20.5V25.9999ZM26 4.00016V9.49998L20.5001 4.00013L26 4.00016ZM3.99998 4.00005L9.49992 4.00008L3.99999 9.50002L3.99998 4.00005ZM4.00001 26.0001L4 20.5L9.50002 26L4.00001 26.0001ZM15.5 4H14.5V8L15 9L15.5 8V4ZM4 15.5V14.5H8L9 15L8 15.5H4ZM26 15.5H22L21 15L22 14.5H26V15.5ZM14.5 26V22L15 21L15.5 22V26H14.5ZM13.5001 6.12498C9.7368 6.75895 6.75889 9.7365 6.12492 13.5H7.14094C7.75244 10.2891 10.2893 7.75249 13.5001 7.141V6.12498ZM16.5001 7.14097C19.7107 7.7524 22.2475 10.289 22.8589 13.5H23.875C23.241 9.73643 20.2632 6.75883 16.5001 6.12495V7.14097ZM13.5001 22.8589V23.875C9.73683 23.2409 6.75893 20.2633 6.12493 16.5H7.14095C7.75248 19.7107 10.2893 22.2474 13.5001 22.8589ZM16.5001 22.859V23.875C20.2632 23.2411 23.241 20.2634 23.8749 16.5H22.8589C22.2474 19.7108 19.7107 22.2475 16.5001 22.859ZM10 12.066L15 9.98264L20 12.066L15 14.1493L10 12.066ZM10 12.9999V17.8993L14.5 19.7743V15L10 13L10 12.9999ZM15.5 19.7743L20 17.8993V13L15.5 15V19.7743Z" fill="white"/>
</svg>
