<svg width="30" height="30" viewBox="0 0 30 30" fill="none" xmlns="http://www.w3.org/2000/svg">
<path fill-rule="evenodd" clip-rule="evenodd" d="M16.5 30L19.5 27L27 26.9999V19.5L30 16.5V13.5L27 10.5V3.00017L19.5001 3.00013L16.5 0L13.5 3.12157e-06L10.4999 3.00009L2.99998 3.00005L2.99999 10.5L0 13.5V16.5L3 19.5L3.00002 27.0001L10.5 27L13.5 30L16.5 30ZM16.3856 28.6144L18.0001 27L19.0001 26L26 19.0001L27 18.0001L29 16V14L27 12.0001L26 11.0001V11L19.0001 4.00013H19.0001L18.0001 3.00013L16 1L14 1L11.9999 3.0001L10.9999 4.00009L3.99999 11L2.99999 12L1 14V16L11.9999 27V18H17.9999V27L16.3856 28.6144ZM16.0001 29H14.0001L12.0689 27.0689L14 29H16L16.0001 29ZM26 25.9999L20.5 26L26 20.5V25.9999ZM26 4.00016V9.49998L20.5001 4.00013L26 4.00016ZM3.99998 4.00005L9.49992 4.00008L3.99998 9.50002L3.99998 4.00005ZM4.00001 26.0001L4 20.5L9.50002 26L4.00001 26.0001ZM18.3333 5.83333C18.3333 6.56971 17.7363 7.16667 17 7.16667C16.2636 7.16667 15.6666 6.56971 15.6666 5.83333C15.6666 5.09695 16.2636 4.5 17 4.5C17.7363 4.5 18.3333 5.09695 18.3333 5.83333ZM10.7824 8.21761L9.29057 9.70939C8.81845 10.1815 8.70141 10.9028 9 11.5L11.393 9.10701C11.4628 9.03721 11.5517 8.98963 11.6485 8.97027L14.0002 8.49996L13 12L10.7462 14.7046C10.5877 14.8947 10.3644 15.0193 10.1194 15.0543L7.88523 15.3735C7.32195 15.454 6.8196 15.7706 6.50397 16.244L6 17L11.1927 16.0558C11.3928 16.0195 11.577 15.9229 11.7209 15.7791L14.0002 13.5H18L16.8835 14.8956C16.3805 15.5243 16.4307 16.4307 17 17L19.696 13.4053C19.8704 13.1727 19.8473 12.8473 19.6417 12.6417C19.5499 12.5498 19.43 12.4912 19.3011 12.4751L15.5 12L17 8.99996L19 9.49996L17.5 12L18.6491 11.6169C18.8755 11.5415 19.0675 11.3874 19.1903 11.1828L20.1793 9.53444C20.3439 9.26015 20.2121 8.90401 19.9087 8.80285L17.5 7.99996L16.8718 7.70736C16.3428 7.461 15.7664 7.33334 15.1829 7.33334H14.5944C14.5316 7.33334 14.469 7.33925 14.4073 7.351L11.3024 7.94237C11.1053 7.9799 10.9242 8.07579 10.7824 8.21761Z" fill="white"/>
</svg>
