<svg width="30" height="30" viewBox="0 0 30 30" fill="none" xmlns="http://www.w3.org/2000/svg">
<path d="M11.5002 16L12.5002 13.5H14.0002L13.5002 15H14.0002L14.5002 13.5H15.0002L14.5002 15H15.0002L15.5002 13.5H16.0002L15.5002 15H16.0002L16.5002 13.5L22.5002 13.5264L23.0002 13H24.0002V13.5264H24.5002V14H25.0002V15.3682H24.5002V16H24.0002V17L19.0002 17.0127L18.0002 20H14.7698L14.0959 22.7373L14.2307 22.8682C14.2307 22.8682 14.2306 23 14.0959 23L11.0002 22.7373L12.4758 17.1777L11.5002 16ZM16.9504 17L16.7649 17.166C16.266 17.6129 15.9808 18.2511 15.9807 18.9209C15.7259 18.6717 15.5991 18.3193 15.637 17.9648L15.7395 17.0127H15.3352L15.0002 19H17.5002L18.0002 17H16.9504ZM10.0002 10H18.0002L16.0002 12H10.0002L11.0002 15L7.00024 11L11.0002 7L10.0002 10Z" fill="white"/>
<path fill-rule="evenodd" clip-rule="evenodd" d="M16.5003 -0.000488281L30.0002 13.4995V16.5005L16.5003 30.0005L13.4999 29.9998L0 16.4998V13.5001L13.4999 0.000202253L16.5003 -0.000488281ZM0.999893 14.0001V15.9999L13.9999 28.9999H15.9997L28.9997 15.9999V14.0001L15.9997 1.0001H13.9999L0.999893 14.0001Z" fill="white"/>
</svg>
