<svg width="30" height="30" viewBox="0 0 30 30" fill="none" xmlns="http://www.w3.org/2000/svg">
<path fill-rule="evenodd" clip-rule="evenodd" d="M16.5 30L19.5001 27L27 26.9999V19.5L30 16.5V13.5L27 10.5V3.00017L19.5001 3.00013L16.5 0L13.5 3.8147e-06L10.4999 3.00009L2.99997 3.00005L3 10.5L0 13.5V16.5L3 19.5V27.0001L10.5 27L13.5 30H16.5ZM16 29L18.0001 27L19.0001 26L26 19.0001L27 18.0001L29 16V14L27 12.0001L26 11L19.0001 4.00013L18.0001 3.00013L16 1H14L11.9999 3.0001L10.9999 4.00009L4 11L3 12L1 14V16L14 29H16ZM26 25.9999L20.5001 26L26 20.5V25.9999ZM26 4.00016V9.49998L20.5001 4.00013L26 4.00016ZM3.99997 4.00005L9.49991 4.00008L4 9.50002L3.99997 4.00005ZM4 26.0001V20.5L9.50003 26L4 26.0001ZM12.5546 7.5C12.5546 7.22386 12.7784 7 13.0546 7H16.9456C17.2218 7 17.4456 7.22386 17.4456 7.5V10.6697L20.1156 9.09382C20.3566 8.95156 20.6674 9.03484 20.8051 9.27853L22.7588 12.7378C22.8927 12.975 22.8121 13.2758 22.5775 13.4143L19.8909 14.9999L22.5775 16.5856C22.8121 16.7241 22.8927 17.0249 22.7588 17.2621L20.8051 20.7213C20.6674 20.965 20.3566 21.0483 20.1156 20.906L17.4456 19.3302V22.5C17.4456 22.7761 17.2218 23 16.9456 23H13.0546C12.7784 23 12.5546 22.7761 12.5546 22.5V19.3299L9.8844 20.9059C9.64337 21.0481 9.33252 20.9649 9.19489 20.7212L7.24124 17.2619C7.10727 17.0247 7.18784 16.7239 7.42245 16.5854L10.1088 14.9999L7.42245 13.4144C7.18784 13.2759 7.10727 12.9751 7.24124 12.7379L9.19489 9.27871C9.33252 9.03501 9.64337 8.95174 9.8844 9.09399L12.5546 10.6699V7.5ZM16 12H14V14H12V16H14V18H16V16H18V14H16V12Z" fill="white"/>
</svg>
