<svg width="30" height="30" viewBox="0 0 30 30" fill="none" xmlns="http://www.w3.org/2000/svg">
<path d="M30 13.499V16.501L16.5 30H13.5L0 16.5V13.5L13.5 0H16.5L30 13.499ZM30.001 26H29.002V29H30V30H23V29H24V26H23.001L24.001 25H30.001V26ZM1 14V16L4.43848 19.4385C4.62592 19.2168 4.90306 19.084 5.20117 19.084H6.90234C7.27023 19.084 7.60879 18.8815 7.7832 18.5576L11.583 11.5L9.92676 11.0264C9.70186 10.9621 9.46162 11.0623 9.34961 11.2676L7.79199 14.125C7.43503 13.5896 7.41406 12.8977 7.73828 12.3418L8.87207 10.3984C9.09614 10.0143 9.54709 9.82378 9.97852 9.93164L12.3506 10.5254C13.3552 10.7766 14.2235 11.4071 14.7725 12.2852L15.1875 12.9502C15.2998 13.1299 15.5139 13.2188 15.7207 13.1729L18 12.667L17.8428 12.9814C17.5734 13.5201 17.0752 13.9094 16.4873 14.04L15.4609 14.2686C15.0579 14.3581 14.6412 14.1901 14.4121 13.8467L13.625 12.667L12.167 15.583L14.959 16.8525C15.2232 16.9727 15.4219 17.202 15.5039 17.4805L16.834 22L16.0371 21.6025C15.8001 21.484 15.6201 21.2758 15.5361 21.0244L14.6631 18.4053C14.561 18.0989 14.3165 17.8606 14.0078 17.7656L10.708 16.75L8.38379 19.8506C8.19493 20.1024 7.89776 20.25 7.58301 20.25H5.25L14 29H15.999L28.999 16V14L15.999 1H14L1 14ZM25 29H26V26H25V29ZM27 29H28.002V26H27V29ZM26 15L22 19L23 16H17L19 14H23L22 11L26 15ZM14.5 8C15.1444 8 15.667 8.52264 15.667 9.16699C15.6668 9.81121 15.1443 10.333 14.5 10.333C13.8559 10.3329 13.3341 9.81113 13.334 9.16699C13.334 8.52272 13.8558 8.00012 14.5 8Z" fill="white"/>
</svg>
