<svg width="30" height="30" viewBox="0 0 30 30" fill="none" xmlns="http://www.w3.org/2000/svg">
<path fill-rule="evenodd" clip-rule="evenodd" d="M16.5 30L30 16.5L30 13.5L16.5 0H13.5L0 13.5V16.5L13.5 30L16.5 30ZM29 16V14L16 1L14 0.999999L1 14L1 16L4.43778 19.4378C4.62523 19.2161 4.90324 19.0835 5.20138 19.0835H6.9028C7.27069 19.0835 7.60886 18.8815 7.78327 18.5576L11.5835 11.5L9.92654 11.0265C9.70163 10.9623 9.46223 11.0625 9.35023 11.2679L7.79177 14.125C7.43479 13.5896 7.41405 12.8975 7.73832 12.3416L8.87197 10.3982C9.09604 10.0141 9.54686 9.8241 9.97828 9.93196L12.3507 10.5251C13.3555 10.7763 14.2237 11.4074 14.7726 12.2856L15.188 12.9502C15.3002 13.1299 15.5136 13.2193 15.7204 13.1733L18.0004 12.6667L17.8428 12.9819C17.5734 13.5206 17.0757 13.9092 16.4878 14.0399L15.4609 14.2681C15.0577 14.3577 14.641 14.1902 14.4119 13.8466L13.6253 12.6667L12.1669 15.5834L14.9588 16.8525C15.2233 16.9727 15.4224 17.202 15.5044 17.4807L16.8337 22.0003L16.0375 21.6022C15.8003 21.4835 15.6199 21.2756 15.536 21.024L14.663 18.405C14.5609 18.0986 14.3171 17.8604 14.0084 17.7655L10.7085 16.7501L8.38345 19.8502C8.19459 20.102 7.8982 20.2502 7.58345 20.2502H5.25021L14 29L16 29L29 16ZM29.9995 30.0001V23.0001H24.4995L22.9995 24.5001V30.0001H29.9995ZM28.9995 28.0001V25.0001H28.9993V24.0001H24.9993L23.9993 25.0001H23.9995V28.0001H23.9993V29.0001L28.9993 29.0001V28.0001H28.9995ZM24.9995 28.0001V25.0001H25.9995V28.0001H24.9995ZM26.9995 28.0001V25.0001H27.9995V28.0001H26.9995ZM15.6671 9.1667C15.6671 9.81105 15.1447 10.3334 14.5004 10.3334C13.856 10.3334 13.3337 9.81105 13.3337 9.1667C13.3337 8.52235 13.856 8 14.5004 8C15.1447 8 15.6671 8.52235 15.6671 9.1667ZM22.0001 11L26.0001 15L22.0001 19L23.0001 16H17.0001L19.0001 14H23.0001L22.0001 11Z" fill="white"/>
</svg>
