<svg width="30" height="30" viewBox="0 0 30 30" fill="none" xmlns="http://www.w3.org/2000/svg">
<path fill-rule="evenodd" clip-rule="evenodd" d="M16.5 30L30 16.5L30 13.5L16.5 0H13.5L0 13.5V16.5L13.5 30L16.5 30ZM29 16V14L16 1L14 0.999999L1 14L1 16L5.0834 20.0834L5.30696 19.6363C5.47635 19.2975 5.82261 19.0835 6.20138 19.0835H7.9028C8.27069 19.0835 8.60886 18.8815 8.78327 18.5576L12.5835 11.5L10.9265 11.0265C10.7016 10.9623 10.4622 11.0625 10.3502 11.2679L8.79177 14.125C8.43479 13.5896 8.41405 12.8975 8.73832 12.3416L9.87197 10.3982C10.096 10.0141 10.5469 9.8241 10.9783 9.93196L13.3507 10.5251C14.3555 10.7763 15.2237 11.4074 15.7726 12.2856L16.188 12.9502C16.3002 13.1299 16.5136 13.2193 16.7204 13.1733L19.0004 12.6667L18.8428 12.9819C18.5734 13.5206 18.0757 13.9092 17.4878 14.0399L16.4609 14.2681C16.0577 14.3577 15.641 14.1902 15.4119 13.8466L14.6253 12.6667L13.1669 15.5834L15.9588 16.8525C16.2233 16.9727 16.4224 17.202 16.5044 17.4807L17.8337 22.0003L17.0375 21.6022C16.8003 21.4835 16.6199 21.2756 16.536 21.024L15.663 18.405C15.5609 18.0986 15.3171 17.8604 15.0084 17.7655L11.7085 16.7501L9.38345 19.8502C9.19459 20.102 8.8982 20.2502 8.58345 20.2502H5.25021L14 29L16 29L29 16ZM30 30.0001V23.0001H24.5L23 24.5001V30.0001L30 30.0001ZM26.0001 29.0001H27.0001L29.0001 29.0001V28.0001H27.0001V25.0001H29.0001V24.0001H27.0001H26.0001H25.0001L24.0001 25.0001L26.0001 25.0001V28.0001H24.0001V29.0001H26.0001ZM16.6671 9.1667C16.6671 9.81105 16.1447 10.3334 15.5004 10.3334C14.856 10.3334 14.3337 9.81105 14.3337 9.1667C14.3337 8.52235 14.856 8 15.5004 8C16.1447 8 16.6671 8.52235 16.6671 9.1667ZM23 11L27 15L23 19L24 16H18L20 14H24L23 11Z" fill="white"/>
</svg>
