<svg width="30" height="30" viewBox="0 0 30 30" fill="none" xmlns="http://www.w3.org/2000/svg">
<path d="M30 13.499V16.501L16.5 30H13.5L0 16.5V13.5L13.5 0H16.5L30 13.499ZM30 26H27V29H30V30H23V29H26V26H23L24 25H30V26ZM1 14V16L5.08301 20.083L5.30664 19.6367C5.47602 19.298 5.82243 19.084 6.20117 19.084H7.90234C8.27023 19.084 8.60879 18.8815 8.7832 18.5576L12.583 11.5L10.9268 11.0264C10.7019 10.9621 10.4616 11.0623 10.3496 11.2676L8.79199 14.125C8.43503 13.5896 8.41406 12.8977 8.73828 12.3418L9.87207 10.3984C10.0961 10.0143 10.5471 9.82378 10.9785 9.93164L13.3506 10.5254C14.3552 10.7766 15.2235 11.4071 15.7725 12.2852L16.1875 12.9502C16.2998 13.1299 16.5139 13.2188 16.7207 13.1729L19 12.667L18.8428 12.9814C18.5734 13.5201 18.0752 13.9094 17.4873 14.04L16.4609 14.2686C16.0579 14.3581 15.6412 14.1901 15.4121 13.8467L14.625 12.667L13.167 15.583L15.959 16.8525C16.2232 16.9727 16.4219 17.202 16.5039 17.4805L17.834 22L17.0371 21.6025C16.8001 21.484 16.6201 21.2758 16.5361 21.0244L15.6631 18.4053C15.561 18.0989 15.3165 17.8606 15.0078 17.7656L11.708 16.75L9.38379 19.8506C9.19493 20.1024 8.89776 20.25 8.58301 20.25H5.25L14 29H15.999L28.999 16V14L15.999 1H14L1 14ZM27 15L23 19L24 16H18L20 14H24L23 11L27 15ZM15.5 8C16.1444 8 16.667 8.52264 16.667 9.16699C16.6668 9.81121 16.1443 10.333 15.5 10.333C14.8559 10.3329 14.3341 9.81113 14.334 9.16699C14.334 8.52272 14.8558 8.00012 15.5 8Z" fill="white"/>
</svg>
