<svg width="30" height="30" viewBox="0 0 30 30" fill="none" xmlns="http://www.w3.org/2000/svg">
<path d="M15.9999 17.0003V22.5003L18.9999 21.5003L14.9999 25.5003L10.9999 21.5003L13.9999 22.5003V16.0003L15.9999 17.0003ZM17.4354 7.56568C17.4297 8.06433 17.2273 8.54108 16.8719 8.89576L15.9354 9.83131C15.6511 10.1147 15.2847 10.3043 14.8866 10.3733L13.9354 10.5383L14.7147 12.092L16.121 11.0169C16.8204 10.4822 17.7979 10.4789 18.5009 11.009L20.9999 12.8948L20.1278 13.1253C19.8379 13.2018 19.5286 13.1424 19.2889 12.9641L18.077 12.0628C17.7315 11.8057 17.2554 11.8043 16.9081 12.0588L15.0712 13.4065L16.8778 14.0081C17.2358 14.1275 17.5512 14.3471 17.785 14.6399L19.6688 17.0003L18.7821 16.9993C18.5513 16.9992 18.3273 16.9189 18.1512 16.7717L16.4442 15.344C16.3315 15.2498 16.1987 15.1819 16.0555 15.1458L14.4266 14.7346C13.5392 14.511 12.8091 13.8907 12.454 13.0579L11.6835 11.2512C11.4073 10.6023 11.5525 9.85283 12.0516 9.34986C12.3852 9.01396 12.8425 8.82457 13.3192 8.82447H15.0302C15.3262 8.82442 15.6069 8.69214 15.7919 8.46412L17.4491 6.42017L17.4354 7.56568ZM11.1669 6.61256C11.5095 6.02727 12.2677 5.82666 12.8612 6.16431C13.4548 6.50233 13.6589 7.25072 13.3163 7.83619C12.9736 8.42166 12.2145 8.62148 11.621 8.28346C11.0277 7.9454 10.8245 7.19789 11.1669 6.61256Z" fill="white"/>
<path fill-rule="evenodd" clip-rule="evenodd" d="M16.5003 -0.000488281L30.0002 13.4995V16.5005L16.5003 30.0005L13.4999 29.9998L0 16.4998V13.5001L13.4999 0.000202253L16.5003 -0.000488281ZM0.999893 14.0001V15.9999L13.9999 28.9999H15.9997L28.9997 15.9999V14.0001L15.9997 1.0001H13.9999L0.999893 14.0001Z" fill="white"/>
</svg>
