<svg width="30" height="30" viewBox="0 0 30 30" fill="none" xmlns="http://www.w3.org/2000/svg">
<path fill-rule="evenodd" clip-rule="evenodd" d="M16.5 30L19.5 27L27 26.9999V19.5L30 16.5L30 13.5L27 10.5V3.00017L19.5001 3.00013L16.5 0L13.5 3.12157e-06L10.4999 3.00009L2.99998 3.00005L2.99999 10.5L0 13.5V16.5L3 19.5L3.00001 27.0001L10.5 27L13.5 30L16.5 30ZM16 29L18.0001 27L19.0001 26L26 19.0001L27 18.0001L29 16V14L27 12V12.0001L26 11.0001V11L19.0001 4.00013H19.0001L18.0001 3.00013H18.0001L16 1L14 1L11.9999 3.0001H11.9999L10.9999 4.00009H10.9999L3.99999 11V11L2.99999 12V12L1 14L1 16L14 29H16ZM26 25.9999L20.5 26L26 20.5V25.9999ZM26 4.00016V9.49998L20.5001 4.00013L26 4.00016ZM3.99998 4.00005L9.49992 4.00008L3.99999 9.50002L3.99998 4.00005ZM4.00001 26.0001L4 20.5L9.50002 26L4.00001 26.0001ZM21 22V20L23.5 15V10.5L21.5 8L19 6H13L9.5 8L8 10V14L8.5 15L7 18L8.5 19L9 22L10.5 23.5L13 23L15 27H16L21 22ZM20 21.5V19.5L22.5 15V11L20.5 8.5L18.5 7H13.5L10 9L9 10.5V13.5L9.5 15L8.5 17.5L9.5 18.5L10 21.5L11 22.5L13.5 22L15.5 26L20 21.5ZM20.5 16.5L21.5 15V11.5L20 9.5L18 8H13.5L11 9.5L10 11V13L11 15H15L17 16L19 17L20.5 16.5ZM12.6111 10.4996H13.8888C13.9503 10.4996 14 10.4661 14 10.4247V10.3497C14 10.3497 14 9 13.25 9C12.5 9 12.5 10.3497 12.5 10.3497V10.4247C12.5 10.4661 12.5497 10.4996 12.6111 10.4996ZM13.9998 10.7496V13.2489C13.9998 13.295 13.8189 13.3323 13.7498 13.3323V13.4985C13.8189 13.4985 13.9998 13.5357 13.9998 13.5818V13.915C13.9998 13.961 13.9439 13.9983 13.8748 13.9983H12.625C12.5559 13.9983 12.5 13.961 12.5 13.915V13.5817C12.5 13.5357 12.6806 13.4984 12.7497 13.4984V13.3322C12.6806 13.3322 12.5 13.295 12.5 13.2489V10.7496C12.5 10.7035 12.5559 10.6663 12.625 10.6663H13.8748C13.9439 10.6663 13.9998 10.7035 13.9998 10.7496ZM16.3888 10.4996H15.1111C15.0497 10.4996 15 10.4661 15 10.4247V10.3497C15 10.3497 15 9 15.75 9C16.5 9 16.5 10.3497 16.5 10.3497V10.4247C16.5 10.4661 16.4503 10.4996 16.3888 10.4996ZM16.4998 13.2489V10.7496C16.4998 10.7035 16.4439 10.6663 16.3748 10.6663H15.125C15.0559 10.6663 15 10.7035 15 10.7496V13.2489C15 13.295 15.1806 13.3322 15.2497 13.3322V13.4984C15.1806 13.4984 15 13.5357 15 13.5817V13.915C15 13.961 15.0559 13.9983 15.125 13.9983H16.3748C16.4439 13.9983 16.4998 13.961 16.4998 13.915V13.5818C16.4998 13.5357 16.3189 13.4985 16.2498 13.4985V13.3323C16.3189 13.3323 16.4998 13.295 16.4998 13.2489ZM18.8888 10.4996H17.6111C17.5497 10.4996 17.5 10.4661 17.5 10.4247V10.3497C17.5 10.3497 17.5 9 18.25 9C19 9 19 10.3497 19 10.3497V10.4247C19 10.4661 18.9503 10.4996 18.8888 10.4996ZM18.9998 13.2489V10.7496C18.9998 10.7035 18.9439 10.6663 18.8748 10.6663H17.625C17.5559 10.6663 17.5 10.7035 17.5 10.7496V13.2489C17.5 13.295 17.6806 13.3322 17.7497 13.3322V13.4984C17.6806 13.4984 17.5 13.5357 17.5 13.5817V13.915C17.5 13.961 17.5559 13.9983 17.625 13.9983H18.8748C18.9439 13.9983 18.9998 13.961 18.9998 13.915V13.5818C18.9998 13.5357 18.8189 13.4985 18.7498 13.4985V13.3323C18.8189 13.3323 18.9998 13.295 18.9998 13.2489Z" fill="white"/>
</svg>
