<svg width="30" height="30" viewBox="0 0 30 30" fill="none" xmlns="http://www.w3.org/2000/svg">
<path d="M11.761 8.33301C12.5875 8.33301 13.3694 8.70952 13.885 9.35547C13.9605 9.45011 14.0095 9.56374 14.0266 9.68359L14.4885 12.9199C14.4961 12.9729 14.5125 13.0243 14.5364 13.0723L16.0002 16C15.3798 16 14.8048 15.6746 14.4856 15.1426L13.6135 13.6885C13.5392 13.5646 13.4925 13.4258 13.4768 13.2822L13.3372 12L12.8469 15L15.3235 18.0967C15.447 18.2511 15.5224 18.4387 15.5393 18.6357L16.0002 24L15.5217 23.7607C14.8592 23.4295 14.4345 22.7591 14.4172 22.0186L14.3547 19.3594C14.3493 19.1272 14.2635 18.9042 14.1116 18.7285L11.7502 16L11.0266 19.8623C11.0095 19.9536 10.9792 20.042 10.9377 20.125L9.00024 24L8.98071 23.9805C8.39125 23.391 8.2286 22.4972 8.57349 21.7383L9.60571 19.4688C9.64651 19.3789 9.67393 19.2834 9.68677 19.1855L10.8469 10.333L9.11938 12.3594C9.04229 12.4498 9.00024 12.5657 9.00024 12.6846V16C8.38738 15.6936 8.00024 15.067 8.00024 14.3818V12.3428C8.00024 12.1208 8.07409 11.9049 8.21021 11.7295L10.5706 8.68945C10.7448 8.46494 11.0129 8.33306 11.2971 8.33301H11.761ZM23.0002 19.5L20.2307 17.7686L23.0002 15V19.5ZM25.0002 12L18.0002 19L17.5002 18.5L24.5002 11.5L25.0002 12ZM23.0002 12L18.0002 17H17.0002V13H19.0002L23.0002 10.5V12ZM13.3333 5C14.0695 5 14.6671 5.59678 14.6672 6.33301C14.6672 7.06939 14.0696 7.66699 13.3333 7.66699C12.597 7.66678 12.0002 7.06926 12.0002 6.33301C12.0004 5.59691 12.5972 5.00021 13.3333 5Z" fill="white"/>
<path fill-rule="evenodd" clip-rule="evenodd" d="M16.5003 -0.000488281L30.0002 13.4995V16.5005L16.5003 30.0005L13.4999 29.9998L0 16.4998V13.5001L13.4999 0.000202253L16.5003 -0.000488281ZM0.999893 14.0001V15.9999L13.9999 28.9999H15.9997L28.9997 15.9999V14.0001L15.9997 1.0001H13.9999L0.999893 14.0001Z" fill="white"/>
</svg>
