<svg width="30" height="30" viewBox="0 0 30 30" fill="none" xmlns="http://www.w3.org/2000/svg">
<path fill-rule="evenodd" clip-rule="evenodd" d="M16.5 30L19.5 27L27 26.9999V19.5L30 16.5V13.5L27 10.5V3.00017L19.5001 3.00013L16.5 0L13.5 3.12157e-06L10.4999 3.00009L2.99998 3.00005L2.99999 10.5L0 13.5V16.5L3 19.5L3.00002 27.0001L10.5 27L13.5 30L16.5 30ZM16 29L18.0001 27L19.0001 26L26 19.0001L27 18.0001L29 16V14L27 12.0001L26 11L19 4.00013L18.0001 3.00013L16 1L14 1L11.9999 3.0001L10.9999 4.00009L3.99999 11L2.99999 12L1 14V16L7.40111 22.4011C7.41967 22.176 7.4766 21.9518 7.57368 21.7382L8.6051 19.4692C8.64606 19.3791 8.6734 19.2835 8.68626 19.1854L9.84644 10.3333L8.11945 12.3599C8.04234 12.4503 8 12.5653 8 12.6842V16C7.38713 15.6936 7 15.0672 7 14.382V12.3426C7 12.1206 7.07391 11.9048 7.21008 11.7294L9.57011 8.68928C9.74445 8.46472 10.0128 8.33333 10.2971 8.33333H10.761C11.5875 8.33333 12.369 8.7095 12.8846 9.35545C12.9602 9.45011 13.009 9.56324 13.0262 9.68314L13.4885 12.9197C13.4961 12.9729 13.5123 13.0245 13.5363 13.0726L15 16C14.3796 16 13.8047 15.6745 13.4855 15.1425L12.6129 13.6881C12.5385 13.5642 12.4919 13.4256 12.4762 13.2819L12.3366 12L11.8464 15L14.3236 18.0965C14.4471 18.2509 14.5221 18.4385 14.539 18.6355L15.0001 24L14.5216 23.7607C13.859 23.4294 13.4338 22.759 13.4165 22.0184L13.3547 19.3594C13.3493 19.1271 13.2632 18.9039 13.1112 18.7282L10.7502 16L10.026 19.8624C10.0089 19.9537 9.97913 20.0422 9.93756 20.1253L8.33344 23.3334L14 29H16ZM26 25.9999L20.5 26L26 20.5V25.9999ZM26 4.00016V9.49998L20.5001 4.00013L26 4.00016ZM3.99998 4.00005L9.49992 4.00008L3.99998 9.50002L3.99998 4.00005ZM4.00001 26.0001L4 20.5L9.50002 26L4.00001 26.0001ZM13.6667 6.33333C13.6667 7.06971 13.0698 7.66667 12.3334 7.66667C11.597 7.66667 11.0001 7.06971 11.0001 6.33333C11.0001 5.59695 11.597 5 12.3334 5C13.0698 5 13.6667 5.59695 13.6667 6.33333ZM16 13V17L17 16.9999L22 11.9999V10.5L18 13H16ZM22 19.5L19.2307 17.7692L22 14.9999V19.5ZM16.5 18.5L17 19L24 12L23.5 11.5L16.5 18.5Z" fill="white"/>
</svg>
