<svg width="30" height="30" viewBox="0 0 30 30" fill="none" xmlns="http://www.w3.org/2000/svg">
<path d="M30 13.499V16.501L16.5 30H13.5L0 16.5V13.5L13.5 0H16.5L30 13.499ZM29.999 26H27.999V29H29.999V30H23L22.999 29H24.999V26H22.999L23.999 25H29.999V26ZM1 14V16L14 29H15.999L28.999 16V14L15.999 1H14L1 14ZM25.999 29H26.999V26H25.999V29ZM15 11.5V18L17 20H21.3525L15 26L6 17.5V11.5L9.5 9H12.5L15 11.5ZM21.5 10H22.5L24 11.5V17.5L22.5 19H17.5L16 17.5V11.5L17.5 10H18.5V9H21.5V10ZM18 11L17 12V17L18 18H22L23 17V12L22 11H18ZM22 17H18V16H22V17ZM22 14V15H18V14H22Z" fill="white"/>
</svg>
