<svg width="30" height="30" viewBox="0 0 30 30" fill="none" xmlns="http://www.w3.org/2000/svg">
<path fill-rule="evenodd" clip-rule="evenodd" d="M16.5 30L30 16.5V13.5L16.5 0H13.5L0 13.5V16.5L13.5 30L16.5 30ZM29 16V14L16 1L14 0.999999L1 14V16L14 29L16 29L29 16ZM29.9995 23V30H22.9995V24.5L24.4995 23H29.9995ZM27.9993 29H26.9993L25.9993 29L24.9993 29H23.9993V28H24.9993V25L23.9993 25L24.9993 24H25.9993H26.9993H27.9993H28.9993V25H27.9993V28H28.9993V29L27.9993 29ZM26.9993 25L25.9993 25V28H26.9993V25ZM15 25L8 18H13L13.8333 15.75L15.5833 22L17 17.5L17.5 18H22L15 25ZM12.375 17H7V12L10 9H13L15 11L17 9H20L23 12V17H18.2083L16.75 15.125L15.5833 18.25L13.8333 12L12.375 17Z" fill="white"/>
</svg>
