<svg width="30" height="30" viewBox="0 0 30 30" fill="none" xmlns="http://www.w3.org/2000/svg">
<path fill-rule="evenodd" clip-rule="evenodd" d="M16.5 30L30 16.5L30 13.5L16.5 0H13.5L0 13.5V16.5L13.5 30L16.5 30ZM29 16V14L16 1L14 0.999999L1 14L1 16L14 29L16 29L29 16ZM29.9995 23V30H22.9995V24.5L24.4995 23H29.9995ZM27.9993 29H26.9993L25.9993 29L24.9993 29H23.9993V28H24.9993V25L23.9993 25L24.9993 24H25.9993H26.9993H27.9993H28.9993V25H27.9993V28H28.9993V29L27.9993 29V29ZM26.9993 25L25.9993 25V28H26.9993V25ZM15 11.5L12.5 9H9.5L6 11.5V15V17.5L15 26L21.3529 20H17L15 18V11.5ZM21.5 9H18.5V10H17.5L16 11.5V17.5L17.5 19H22.5L24 17.5V11.5L22.5 10H21.5V9ZM18.5 11H18L17 12V17L18 18H22L23 17V12L22 11H21.5H18.5ZM22 16.0002H18V17.0002H22V16.0002ZM18 14.0002H22V15.0002H18V14.0002Z" fill="white"/>
</svg>
