<svg width="30" height="30" viewBox="0 0 30 30" fill="none" xmlns="http://www.w3.org/2000/svg">
<path d="M30 13.499V16.501L16.5 30H13.5L0 16.5V13.5L13.5 0H16.5L30 13.499ZM30.001 26H29.002V29H30V30H23V29H24V26H23.001L24.001 25H30.001V26ZM1 14V16L14 29H15.999L28.999 16V14L15.999 1H14L1 14ZM25 29H26V26H25V29ZM27 29H28.002V26H27V29ZM15.583 22L17 17.5L17.5 18H22L15 25L8 18H13L13.833 15.75L15.583 22ZM13 9L15 11L17 9H20L23 12V17H18.208L16.75 15.125L15.583 18.25L13.833 12L12.375 17H7V12L10 9H13Z" fill="white"/>
</svg>
