<svg width="30" height="30" viewBox="0 0 30 30" fill="none" xmlns="http://www.w3.org/2000/svg">
<path d="M15.0002 11.5V18L17.0002 20H21.3528L15.0002 26L6.00024 17.5V11.5L9.50024 9H12.5002L15.0002 11.5ZM21.5002 10H22.5002L24.0002 11.5V17.5L22.5002 19H17.5002L16.0002 17.5V11.5L17.5002 10H18.5002V9H21.5002V10ZM17.0002 12V17L18.0002 18H22.0002L23.0002 17V12L22.0002 11H18.0002L17.0002 12ZM22.0002 17H18.0002V16H22.0002V17ZM22.0002 15H18.0002V14H22.0002V15Z" fill="white"/>
<path fill-rule="evenodd" clip-rule="evenodd" d="M16.5003 -0.000488281L30.0002 13.4995V16.5005L16.5003 30.0005L13.4999 29.9998L0 16.4998V13.5001L13.4999 0.000202253L16.5003 -0.000488281ZM0.999893 14.0001V15.9999L13.9999 28.9999H15.9997L28.9997 15.9999V14.0001L15.9997 1.0001H13.9999L0.999893 14.0001Z" fill="white"/>
</svg>
