<svg width="30" height="30" viewBox="0 0 30 30" fill="none" xmlns="http://www.w3.org/2000/svg">
<path d="M15.5833 22L17.0002 17.5L17.5002 18H22.0002L15.0002 25L8.00024 18H13.0002L13.8333 15.75L15.5833 22ZM15.0002 11L17.0002 9H20.0002L23.0002 12V17H18.2083L16.7502 15.125L15.5833 18.25L13.8333 12L12.3752 17H7.00024V12L10.0002 9H13.0002L15.0002 11Z" fill="white"/>
<path fill-rule="evenodd" clip-rule="evenodd" d="M16.5003 -0.000488281L30.0002 13.4995V16.5005L16.5003 30.0005L13.4999 29.9998L0 16.4998V13.5001L13.4999 0.000202253L16.5003 -0.000488281ZM0.999893 14.0001V15.9999L13.9999 28.9999H15.9997L28.9997 15.9999V14.0001L15.9997 1.0001H13.9999L0.999893 14.0001Z" fill="white"/>
</svg>
