<svg width="30" height="30" viewBox="0 0 30 30" fill="none" xmlns="http://www.w3.org/2000/svg">
<path fill-rule="evenodd" clip-rule="evenodd" d="M16.5 30L30 16.5V13.5L16.5 0H13.5L0 13.5V16.5L13.5 30L16.5 30ZM29 16V14L16 1L14 0.999999L1 14V16L14 29L16 29L29 16ZM29.9995 30.0001V23.0001H24.4995L22.9995 24.5001V30.0001H29.9995ZM28.9995 28.0001V25.0001H28.9993V24.0001H24.9993L23.9995 25.0001V28.0001H23.9993V29.0001L28.9993 29.0001V28.0001H28.9995ZM24.9995 28.0001V25.0001H25.9995V28.0001H24.9995ZM26.9995 28.0001V25.0001H27.9995V28.0001H26.9995ZM15 25L8 18H13L13.8333 15.75L15.5833 22L17 17.5L17.5 18H22L15 25ZM12.375 17H7V12L10 9H13L15 11L17 9H20L23 12V17H18.2083L16.75 15.125L15.5833 18.25L13.8333 12L12.375 17Z" fill="white"/>
</svg>
