<svg width="30" height="30" viewBox="0 0 30 30" fill="none" xmlns="http://www.w3.org/2000/svg">
<path d="M21.0002 20.0001L24.0002 19.0001L20.0002 23.0001L16.0002 19.0001L19.0002 20.0001V15.5001L21.0002 14.5001V20.0001ZM9.23071 11.834C9.65414 11.2764 10.3768 11.0362 11.05 11.2286C11.7199 11.4201 12.2053 12.0011 12.2737 12.6944L12.3577 13.5538C12.4265 14.2513 13.1731 14.6631 13.8 14.3497L14.5002 14.0001L14.2141 14.5733C14.0752 14.851 13.8541 15.0793 13.5813 15.2276C12.8117 15.6458 11.8485 15.3277 11.4797 14.5333L11.0002 13.5001L10.0002 15.0001L11.6897 15.6905C12.5297 16.0339 13.0333 16.9 12.9163 17.7999L12.5002 21.0001L11.845 20.3448C11.6274 20.1271 11.5222 19.8212 11.5598 19.5157L11.7502 17.9708C11.8046 17.5302 11.562 17.1068 11.1545 16.9307L9.00024 16.0001L9.18188 16.9083C9.36739 17.8356 8.87824 18.7671 8.00903 19.1397L6.00024 20.0001L6.34204 18.9747C6.44159 18.6761 6.67629 18.4414 6.97485 18.3419L7.09595 18.3018C7.60209 18.1331 7.88748 17.5958 7.74341 17.0821L7.47192 16.1182C7.21815 15.2138 7.40317 14.2425 7.97095 13.4942L9.23071 11.834ZM24.0002 11.0001L21.0002 10.0001V13.5001L19.0002 14.5001V10.0001L16.0002 11.0001L20.0002 7.00006L24.0002 11.0001ZM13.1145 9.00006C13.8173 9.00006 14.3878 9.56974 14.3879 10.2725C14.3879 10.9754 13.8174 11.546 13.1145 11.546C12.4118 11.5457 11.8421 10.9752 11.842 10.2725C11.8422 9.56988 12.4119 9.00029 13.1145 9.00006Z" fill="white"/>
<path fill-rule="evenodd" clip-rule="evenodd" d="M16.5003 -0.000488281L30.0002 13.4995V16.5005L16.5003 30.0005L13.4999 29.9998L0 16.4998V13.5001L13.4999 0.000202253L16.5003 -0.000488281ZM0.999893 14.0001V15.9999L13.9999 28.9999H15.9997L28.9997 15.9999V14.0001L15.9997 1.0001H13.9999L0.999893 14.0001Z" fill="white"/>
</svg>
