<svg width="30" height="30" viewBox="0 0 30 30" fill="none" xmlns="http://www.w3.org/2000/svg">
<path fill-rule="evenodd" clip-rule="evenodd" d="M16.5 30L19.5001 27L27 26.9999V19.5L30 16.5V13.5L27 10.5V3.00017L19.5001 3.00013L16.5 0L13.5 3.12157e-06L10.4999 3.00009L2.99998 3.00005V10.5L0 13.5V16.5L3 19.5L3.00002 27.0001L10.5 27L13.5 30L16.5 30ZM16 29L18.0001 27L19.0001 26L26 19.0001L27 18.0001L29 16V14L27 12.0001L26 11L19.0001 4.00013L18.0001 3.00013L16 1L14 1L11.9999 3.0001L10.9999 4.00009L3.99998 11L2.99998 12L1 14V16L14 29H16ZM26 25.9999L20.5001 26L26 20.5V25.9999ZM26 4.00016V9.49998L20.5001 4.00013L26 4.00016ZM3.99998 4.00005L9.49992 4.00008L3.99998 9.50002V4.00005ZM4.00002 26.0001L4 20.5L9.50002 26L4.00002 26.0001ZM11.0001 6H14H16.9999L21 10V12L20 14L21 16L20.1405 17.7191L19.6249 17.2035C19.4396 17.0182 19.227 16.8769 19 16.7795V15L18 14.5L15 15V16L17.2115 16.8846C17.0631 16.9703 16.9234 17.0766 16.7965 17.2035L14.2035 19.7965C13.6307 20.3693 13.478 21.2031 13.7453 21.9151L11 21V19L9 19.5L8 19V18L7 16L8 14L7 12V10L11.0001 6ZM10 14.5L13 15V16L10.5 17.5L9 17V15L10 14.5ZM14 19L15 18.5L14 16.5L13 18.5L14 19ZM14.7071 20.5076C14.3166 20.8981 14.3166 21.5313 14.7071 21.9218L17.5355 24.7502C17.9261 25.1407 18.5592 25.1407 18.9497 24.7502L21.7502 21.9497C22.1407 21.5592 22.1407 20.926 21.7502 20.5355L18.9218 17.7071C18.5313 17.3166 17.8981 17.3166 17.5076 17.7071L14.7071 20.5076ZM15.8856 21.6861C15.6253 21.4257 15.6253 21.0036 15.8856 20.7433C16.146 20.4829 16.5681 20.4829 16.8284 20.7433C17.0888 21.0036 17.0888 21.4257 16.8284 21.6861C16.5681 21.9464 16.146 21.9464 15.8856 21.6861ZM17.7712 18.8577C17.5109 19.118 17.5109 19.5401 17.7712 19.8005C18.0316 20.0608 18.4537 20.0608 18.7141 19.8005C18.9744 19.5401 18.9744 19.118 18.7141 18.8577C18.4537 18.5973 18.0316 18.5973 17.7712 18.8577ZM17.7712 20.7433C17.5109 21.0036 17.5109 21.4257 17.7712 21.6861C18.0316 21.9464 18.4537 21.9464 18.7141 21.6861C18.9744 21.4257 18.9744 21.0036 18.7141 20.7433C18.4537 20.4829 18.0316 20.4829 17.7712 20.7433ZM17.7712 22.6289C17.5109 22.8893 17.5109 23.3114 17.7712 23.5717C18.0316 23.8321 18.4537 23.8321 18.7141 23.5717C18.9744 23.3114 18.9744 22.8893 18.7141 22.6289C18.4537 22.3686 18.0316 22.3686 17.7712 22.6289ZM19.6569 21.6861C19.3965 21.4257 19.3965 21.0036 19.6569 20.7433C19.9172 20.4829 20.3393 20.4829 20.5997 20.7433C20.86 21.0036 20.86 21.4257 20.5997 21.6861C20.3393 21.9464 19.9172 21.9464 19.6569 21.6861Z" fill="white"/>
</svg>
