<svg width="30" height="30" viewBox="0 0 30 30" fill="none" xmlns="http://www.w3.org/2000/svg">
<path fill-rule="evenodd" clip-rule="evenodd" d="M16.5 30L19.5 27L27 26.9999V19.5L30 16.5L30 13.5L27 10.5V3.00017L19.5001 3.00013L16.5 0L13.5 3.12157e-06L10.4999 3.00009L2.99998 3.00005L2.99999 10.5L0 13.5V16.5L3 19.5L3.00001 27.0001L10.5 27L13.5 30L16.5 30ZM16 29L18.0001 27L19.0001 26L26 19.0001L27 18.0001L29 16V14L27 12V12.0001L26 11.0001V11L19.0001 4.00013H19.0001L18.0001 3.00013H18.0001L16 1L14 1L11.9999 3.0001H11.9999L10.9999 4.00009H10.9999L3.99999 11V11L2.99999 12V12L1 14L1 16L14 29H16ZM26 25.9999L20.5 26L26 20.5V25.9999ZM26 4.00016V9.49998L20.5001 4.00013L26 4.00016ZM3.99998 4.00005L9.49992 4.00008L3.99999 9.50002L3.99998 4.00005ZM4.00001 26.0001L4 20.5L9.50002 26L4.00001 26.0001ZM19 14C21.2091 14 23 12.2091 23 10C23 7.79086 21.2091 6 19 6C16.7909 6 15 7.79086 15 10C15 12.2091 16.7909 14 19 14ZM18.5288 11.368H19.4728L19.6088 7.4H18.3928L18.5288 11.368ZM18.3608 12.464C18.3608 12.824 18.6328 13.104 19.0008 13.104C19.3688 13.104 19.6408 12.824 19.6408 12.464C19.6408 12.104 19.3688 11.824 19.0008 11.824C18.6328 11.824 18.3608 12.104 18.3608 12.464ZM20 20L19 17.5L18 20L17 18L16 20L15 18.5L14 20L13 19L12 20L11.9545 20.0228C11.9844 20.1772 12 20.3368 12 20.5C12 21.0628 11.814 21.5822 11.5002 22H21L22 20L21 17L20 20ZM10 18L9.97725 18.0455C9.82276 18.0156 9.66321 18 9.5 18C8.9372 18 8.41783 18.186 8 18.4998L8 9L10 8L13 9L10 10L12.5 11L10 12L12 13L10 14L11.5 15L10 16L11 17L10 18ZM8 20.5C8 21.3284 8.67157 22 9.5 22C10.3284 22 11 21.3284 11 20.5C11 19.6716 10.3284 19 9.5 19C8.67157 19 8 19.6716 8 20.5Z" fill="white"/>
</svg>
