<svg width="30" height="30" viewBox="0 0 30 30" fill="none" xmlns="http://www.w3.org/2000/svg">
<path fill-rule="evenodd" clip-rule="evenodd" d="M16.5 30L19.5 27L27 26.9999V19.5L30 16.5L30 13.5L27 10.5V3.00017L19.5001 3.00013L16.5 0L13.5 3.12157e-06L10.4999 3.00009L2.99998 3.00005L2.99999 10.5L0 13.5V16.5L3 19.5L3.00001 27.0001L10.5 27L13.5 30L16.5 30ZM16 29L18.0001 27L19.0001 26L26 19.0001L27 18.0001L29 16V14L27 12V12.0001L26 11.0001V11L19.0001 4.00013H19.0001L18.0001 3.00013H18.0001L16 1L14 1L11.9999 3.0001H11.9999L10.9999 4.00009H10.9999L3.99999 11V11L2.99999 12V12L1 14L1 16L14 29H16ZM26 25.9999L20.5 26L26 20.5V25.9999ZM26 4.00016V9.49998L20.5001 4.00013L26 4.00016ZM3.99998 4.00005L9.49992 4.00008L3.99999 9.50002L3.99998 4.00005ZM4.00001 26.0001L4 20.5L9.50002 26L4.00001 26.0001ZM12 5.5L14.5 8L14 6L15 6C19.9706 6 24 10.0294 24 15V16L22 15.5L24.5 18L27 15.5L25 16L25 15C25 9.47715 20.5228 5 15 5L14 5L14.5 3L12 5.5ZM15 25C9.47715 25 5 20.5228 5 15L5 14L3 14.5L5.5 12L8 14.5L6 14V15C6 19.9706 10.0294 24 15 24L16 24L15.5 22L18 24.5L15.5 27L16 25H15ZM9.5 10.5L8.5 13L9.47575 14.1782L8 19.7368L11.0962 20C11.2308 20 11.2308 19.8684 11.2308 19.8684L11.0962 19.7368L11.7692 17H15L16 14.0126L21 14V13H21.5V12.3684H22V11H21.5V10.5263H21V10H20L19.5 10.5263L13.5 10.5L13 12H12.5L13 10.5H12.5L12 12H11.5L12 10.5H11.5L11 12H10.5L11 10.5H9.5ZM14.5 16H12L12.335 14.0126H12.7388L12.637 14.9648C12.5991 15.3194 12.7258 15.6718 12.9808 15.9211C12.9808 15.2512 13.2659 14.613 13.7649 14.1661L13.9504 14H15L14.5 16Z" fill="white"/>
</svg>
