<?xml version="1.0" encoding="UTF-8"?>
<svg id="Layer_1" data-name="Layer 1" xmlns="http://www.w3.org/2000/svg" width="173.23294" height="401.23198" viewBox="0 0 173.23294 401.23198">
  <defs>
    <style>
      .cls-1 {
        fill: #fff;
        fill-rule: evenodd;
      }
    </style>
  </defs>
  <path class="cls-1" d="M155.53327,83.26768L173.18927,2.25186c.25877-1.18737-.6663-2.29453-1.88074-2.25059-7.04723,.25498-18.64858-.52226-27.35507,3.67536-10.46008,5.05005-34.10999,28-36,48-1.89001,20.01001,3.08997,20.18994,3,26-.08997,5.82007-6.90002,28.43994-10,42-3.08997,13.57007-4.27002,34.98999-7,40-2.71997,5.02002-13.47998,21.8999-19,35-5.51001,13.11011-8.67004,45.45996-14,61-3.25,9.51001-7.85999,20.23999-12,30-1,2.39014-4.05994,8.47998-5.76001,10.71997-2.45996,3.23022-9.29993,5.06006-13.06995,10.31006-3.77002,5.23999-10.41003,11.11011-12.17004,14.96997-1.75,3.86011-5.33997,9.82007-8,12-2.65002,2.18994-3.51001,3.61011-7.80994,6.38013-4.30005,2.76978-1.56006,5.57007,3.18994,5.55005s6.35999-2.74023,9.81006-4.55005c3.45996-1.82007,8.12988-6.71021,9.61987-6.71021,1.5,.01025,1.55005,1.76025,1.29004,2.89014-.27002,1.12988-2.80005,8.01001-3.82996,12.33008-1.02002,4.31982-2.91003,7.54004-4.27002,12.10986-1.31995,4.5-2.77991,10.32007-4,14-1.19006,3.62012-2.02991,7.34009-2.21008,10.1001-.17993,2.75,4.52002,6.20996,6.9801,2.04004,2.45996-4.16016,1.95996-6.63013,3.22998-9.14014s4.22009-8.8999,6-13c1.78992-4.1001,3.02002-5.92993,4.09998-8.02002,1.08008-2.08984,2.3501-1.08008,2.09009,.80005-.26001,1.88989-3.21008,8.33008-3.92004,11.34009-.71008,3.01001-3.57996,15.58984-4.23999,18.48999-.66003,2.8999-1.62,5.67993-2.12,9.25-.46997,3.46997,5.54004,5.53003,7.16992,1.32007,1.62012-4.22021,3.11011-7.65015,4.01001-10.44019,.89001-2.78979,4.08008-11.92993,4.91003-14.73999,.82996-2.7998,2.87-9.72998,3.63-11.10986,.75-1.38013,2.39001-1.37012,2.09009,.7998-.31006,2.18018-1.18018,5.40015-2.12012,9.25-.93994,3.86011-2.60999,12.68018-3.43994,16.41016-.82007,3.72998-.78003,3.85986-1.20996,8.1499-.43005,4.30005,4.06995,5.80005,6.15991,1.41992,2.09009-4.38989,2.63-6.45996,3.20996-8.34985,.58008-1.88989,4.67004-12.8501,5.52002-15.61011,.8501-2.75,2.04004-10.0498,2.82007-12.32983,.79004-2.28003,3.31995-1.38013,3.08997,.80005-.22998,2.18994-.26001,2.44995-.51001,5.07983-.25,2.63013-.70996,5.13013-1.31995,7.15991-.61011,2.02002-.94995,3.30005-1.41003,6.16016-.46008,2.87012,3.43005,4.25,5.17004,1.51001s2.32996-3.79004,3.3999-6.36011c1.07007-2.56006,1.63013-5.58008,2.21997-8.25,.59009-2.65991,1.71008-7.88989,2.82007-12.33008,1.12-4.43994,2.31006-7.12988,2.72998-13.31982,.76001-11.20996,1.69995-19.91016,1.57007-25.27002-.19006-7.81006,.23999-10.92993,.72998-13.14014,.71997-3.19995,3.80005-7.97998,4.84998-9.66992,4.52002-7.21997,35.30994-48.90991,39-58,3.70007-9.08984,11.01001-33.58984,12-42,1-8.40991,4.32996-13.10986,6-19,1.68005-5.87988,.5-9.08008,2-14,1.5-4.90991,9.64001-26.01001,13-35,3.37-8.98999,3.34998-23.77002,3-32-.2755-6.63108-1.02515-8.92438-.04353-10.19491,.28287-.36612,.52483-.76198,.62335-1.21404Z"/>
</svg>