<?xml version="1.0" encoding="UTF-8"?>
<svg id="Layer_1" data-name="Layer 1" xmlns="http://www.w3.org/2000/svg" width="494.32625" height="970.93525" viewBox="0 0 494.32625 970.93525">
  <defs>
    <style>
      .cls-1 {
        fill: #fff;
        fill-rule: evenodd;
      }
    </style>
  </defs>
  <path class="cls-1" d="M232.43043,902.27553c-1.00134-1.0426-1.68384-1.72095-3-2.5,.34827-1.9386,1.9082-1.70093,2.75-3,.41656-1.5,.83337-3.00024,1.25-4.5,.75659-3.36597-1.60645-4.60132-2.5-6.25-.46661-.86096-.5213-1.47119-1.25-4.75-.7287-3.27905-2.78033-16.94196-3.75-33.75006-.96973-16.80811-.66162-51.10352-.5-67.75,.16156-16.64648,.70679-41.81189-.75-48.5v-7.25c-1.67914-7.56482-.61389-16.72211,3-21.25-.12689-3.65961-3.16882-5.54211-5.5-7,.47986-.74542,2.02905-.53479,2.75-1,3.08337-1.0553,4.69885-12.47119,5.75-16.25,.55756-2.00452,.10547-6.34772-.75-7.25-.87262-2.28632-3.92841-1.4577-5.75-2.75-.76129-.5401-.97815-1.68048-1.5-2.5-1.60632-2.52209-4.1153-4.32642-4.75-7.5s-3.27612-16.52429-4.25-26.75c-.6759-7.09698-6.53253-34.2276-10.25-60.25-3.71753-26.0224-7.76453-48.48279-7.75-62.5,.00806-7.80493,6.48767-11.565,.25-17.5,.14441-4.2475,2.23309-6.48859,3.5-9.5,1.6524-3.92767,2.57849-7.12183,4.5-10.5,4.60266-.99139,4.71649-2.01031,7.75-4,1.07495-8.67419-2.716-13.56592-6.5-18.75-1.33875-1.83398-4.573-5.3175-8.25-3.75-2.36115,1.00647-3.80261,3.00861-4.5,5.75-.40521,1.59308-.09601,2.52191-.75,3.75-1.03174,1.93732-3.54041,3.16083-5,4.75-3.90161-.12042-6.46033-3.62402-9.5-3.25-6.34351,.7804-7.40161,6.16809-9.5,11.25-.74854,1.81268-2.28839,5.14917-1.5,8.25,1.52429,5.995,5.24255,9.2381,7.25,14.75,1.13391,3.1134,1.06628,6.22498,2,9.5,1.68817,5.92157,4.1933,12.0954,5,18.25,5.51068,42.04291,6.13428,35.2691,8.5,58.25,2.36566,22.9809,3.315,27.82788,5,58.25,0,13.16919,.90405,22.73016-1,26.75-1.90411,4.01978-5.81873,8.28522-7.25,13.5-.44244,1.61188,.52325,2.6225,.75,3.5,.3103,1.20129-.77863,3.81146-.75,6,1.88361,1.96118,4.45825,4.26196,6.75,5.75v.5c-2.06293,1.85107-5.03442,3.38428-7.5,4.75-.34503,1.84888-.87079,12.3197-.25,14.25,.78137,2.42981,3.23798,4.22308,4.5,6.25,2.41357,3.87659,4.83789,8.34589,5,14.75s2.31647,35.12457,4,51.5c1.68347,16.37537,5.36609,54.98438,7.75,72.75,.60278,4.49261,1.00256,9.77039,1.75,15.75,.74738,5.97955,3.84637,27.32086,3.5,28.75006-.04962,.73608,.41669,1.08325,.5,1.25,.776,.01636,1.57758,.0354,2-.25,.77191,.01196,1.28131,.08691,1.75,.25-.24274,2.26318-3.45032,3.021-5.25,3.75-1.41754,3.52454-2.49762,6.55566-4.5,9.5-1.1665,1.08313-2.33344,2.16675-3.5,3.25-2.3299,3.12781-5.00299,5.93823-7.25,9-1.37604,1.87476-2.36871,3.86108-3.75,5.75-.5553,.75928-1.60919,1.08057-2.25,1.75-1.04114,1.0874-1.35541,3.04541-2.25,4.25-.99994,.9165-2.00012,1.83325-3,2.75-.94952,1.39966-1.21442,3.005-2.25,4.25,.15045,.96338,.38019,1.11084,.75,1.75,1.95001-.1499,1.62769-1.01697,2.75-1.75,.75391-.49243,1.7171-.31555,2.25-1,1.21136-1.55615,1.93518-4.13965,3.75-5,.81335-.38574,1.87006-.25269,2.5-.5,.375-.94653,.18616-3.24121,.75-4.25,3.05316-5.46387,8.14838-9.55664,11.5-14.75,.5766,.0813,.62109,.11597,1,.25-.20312,1.81274-4.81671,7.81348-6,9.5-2.30573,3.28601-4.18634,6.71948-6.5,10-.36133,.51221-1.13983,.98706-1.5,1.5-.61841,.88037-.82422,1.91943-1.5,2.75-.44751,.5498-1.44244,.78491-1.75,1.5v1.75c-.47333,1.36072-2.01404,1.93213-2.75,3-.55304,.80225-.6651,1.76001-1.25,2.5,.1925,1.26538,.58661,1.30383,1.25,2,1.55249-.19214,6.33057-4.65576,7.75-5.75-.01654-.77612-.03552-1.57764,.25-2,.0174-2.60156,2.1225-2.42651,3.75-3.25,.19086-1.03711-.32312-2.45801,0-3.5,.35516-1.14551,1.84399-2.30713,2.5-3.25,1.74017-2.50146,2.9848-5.03662,4.75-7.5,.65088-.90845,1.58716-1.36499,2.25-2.25,1.15259-1.53918,2.2226-3.85962,4.5-4.25-.21851,2.3739-1.75452,3.86597-2.75,5.5-2.53802,4.16577-4.10834,8.60522-6.75,12.75-.69202,1.08569-2.08319,1.67944-2.75,2.75-.86053,1.3811-.00079,3.30225-.75,4.5-.45673,1.33447-1.86279,1.65662-3,2.25,.17737,4.15442-1.04132,3.7019-2.75,6.25-.47461,.70764-.48779,1.61743-1,2.25,.15045,.96338,.38019,1.11084,.75,1.75,3.19861-.20142,4.11066-3.40039,6.25-4.75,.89368-.56396,1.96051-.78784,2.75-1.25,.72369-1.8269-.00641-3.9303,.75-5.75,.5495-1.32202,1.84088-2.54041,2.5-3.75,.58569-1.0752,.47845-2.26685,1-3.5,1.53436-3.62891,4.23138-7.17969,6.25-10.5,1.11035-1.82666,2.7326-7.26636,4.75-7.75-.12469,2.92883-1.578,4.81396-2.5,7-2.39343,5.67407-4.20349,12.94189-8.75,16.5,.08325,1.33313,.16669,2.66675,.25,4-.69843,2.72119-2.69159,4.84448-3.5,7.5-.51782,1.70081,.33685,4.11951-.5,5.5-.02429,1.65662,.19208,2.11401,.75,3,2.78845-.31738,2.16467-2.7793,3.5-4.5,.83325-.41675,1.66681-.8335,2.5-1.25,.24939-.25391,.25336-.7489,.5-1-.12573-2.46948-2.10144-3.8595-1.25-6.5,.77966-2.41846,4.13397-3.6156,4.75-6,.2641-1.02246-.86841-1.25989-.5-2.5,.49097-1.65283,2.03979-3.63025,2.75-5.25,1.94757-4.44214,3.64331-8.91724,6-12.75h.5c1.48517,4.50415-.42841,10.60791-1.5,14.5-.16663,1.1665-.33331,2.33325-.5,3.5-.54492,1.22974-2.00543,1.62085-2.5,3-1.32104,2.04321,1.03027,4.14209,.25,6.75-.55731,1.86255-2.47003,2.8512-3,4.5-.67792,2.10889,1.30231,3.53003,.75,5.75-.27985,1.12451-1.508,3.73132-.75,5,.27936,.86646,.93561,1.45947,1.75,1,1.58441-.5957,1.66016-2.3988,2.5-3.75,1.35199-2.17529,3.37-3.82849,5-5.75-.09393-2.08423-1.10089-2.69409-1.5-4-1.07159-3.50647,2.85919-4.79065,3.5-6.75-.08331-2.49976-.16675-5.00037-.25-7.5,.00061-4.02808,.51166-7.04041,1.25-10.25,.08325-1.08325,.16669-2.16687,.25-3.25,.52747-1.70361,1.92017-2.66992,2.75-4,.54907-.88037,1.23346-2.32568,1.5-3.25,.08325-.91675,.16669-1.8335,.25-2.75,.30371-.6145,1.2688-1.2793,1.5-2,.49146-1.53235-.5083-3.21765-.75-4.25-.85712-3.6604-.21991-6.98535-.25-11Zm-17.75-53.25006c-.25714,.20178-.81152,.09229-1.25,.25-.78363-3.63812-1.63824-6.89862-2.0531-9.91229-3.32294-24.13605-3.6521-28.40143-4.4469-35.33771-2.23474-19.50262-2.16895-25.50934-2.25-37.75-.08112-12.24072-.25-16.50879-.25-24.25,0-7.09131-1.04443-13.17493-1-20.5h.75c1.54968,3.34827,2.61646,6.98309,3.75,11,1.63599,5.7973,2.02039,12.28528,2.75,19.5,.72955,7.21466,3.29688,31.30469,3.75,56,.16211,8.836,1.1908,24.61731,1,32.25,0,2.73511,.46149,7.01709-.75,8.75Z"/>
  <path class="cls-1" d="M326.70045,467.27547c-2.09839-5.08191-3.15649-10.4696-9.5-11.25-3.03973-.37402-5.59839,3.12958-9.5,3.25-1.45959-1.58917-3.96832-2.81268-5-4.75-.65399-1.22809-.34479-2.15692-.75-3.75-.69739-2.74139-2.13892-4.74353-4.5-5.75-3.677-1.5675-6.91132,1.91602-8.25,3.75-3.784,5.18408-7.57501,10.07581-6.5,18.75,3.03351,1.98969,3.14728,3.00861,7.75,4,1.92151,3.37817,2.8476,6.57233,4.5,10.5,1.26691,3.01141,3.35559,5.2525,3.5,9.5-6.23773,5.935,.24188,9.69507,.25,17.5,.01447,14.01721-4.03253,36.4776-7.75,62.5-3.71753,26.0224-9.5741,53.15302-10.25,60.25-.97388,10.22571-3.6153,23.57642-4.25,26.75s-3.14368,4.97791-4.75,7.5c-.52191,.81952-.73871,1.9599-1.5,2.5-1.82159,1.2923-4.87738,.46368-5.75,2.75-.85553,.90228-1.30762,5.24548-.75,7.25,1.05109,3.77881,2.66663,15.1947,5.75,16.25,.72089,.46521,2.27008,.25458,2.75,1-2.33118,1.45789-5.37311,3.34039-5.5,7,3.61389,4.52789,4.67908,13.68518,3,21.25v7.25c-1.45679,6.68811-.91162,31.85352-.75,48.5s.46967,50.94189-.5,67.75c-.96973,16.80811-3.0213,30.47101-3.75,33.75006-.7287,3.27881-.78339,3.88904-1.25,4.75-.89362,1.64868-3.25659,2.88403-2.5,6.25,.41663,1.49976,.83337,3,1.25,4.5,.8418,1.29907,2.40167,1.0614,2.75,3-1.31622,.77905-1.99872,1.4574-3,2.5-.03009,4.01465,.60712,7.3396-.25,11-.2417,1.03235-1.24152,2.71765-.75,4.25,.2312,.7207,1.19629,1.3855,1.5,2,.08331,.9165,.16669,1.83325,.25,2.75,.26648,.92432,.95087,2.36963,1.5,3.25,.82977,1.33008,2.22247,2.29639,2.75,4,.08331,1.08313,.16669,2.16675,.25,3.25,.73828,3.20959,1.24939,6.22192,1.25,10.25-.08331,2.49963-.16669,5.00024-.25,7.5,.64081,1.95935,4.57159,3.24353,3.5,6.75-.39911,1.30591-1.40613,1.91577-1.5,4,1.63,1.92151,3.64801,3.57471,5,5.75,.83978,1.3512,.91559,3.1543,2.5,3.75,.81439,.45947,1.47058-.13354,1.75-1,.758-1.26868-.47021-3.87549-.75-5-.55231-2.21997,1.42792-3.64111,.75-5.75-.53003-1.6488-2.44269-2.63745-3-4.5-.78033-2.60791,1.57098-4.70679,.25-6.75-.49463-1.37915-1.95508-1.77026-2.5-3-.16669-1.16675-.33337-2.3335-.5-3.5-1.07159-3.89209-2.98523-9.99585-1.5-14.5h.5c2.35669,3.83276,4.05237,8.30786,6,12.75,.71021,1.61975,2.25897,3.59717,2.75,5.25,.36841,1.24011-.7641,1.47754-.5,2.5,.61597,2.3844,3.97028,3.58154,4.75,6,.85138,2.6405-1.12433,4.03052-1.25,6.5,.24658,.2511,.25061,.74609,.5,1,.83319,.4165,1.66669,.83325,2.5,1.25,1.33527,1.7207,.71149,4.18262,3.5,4.5,.55792-.88599,.77429-1.34338,.75-3-.83691-1.38049,.01782-3.79919-.5-5.5-.80841-2.65552-2.80157-4.77881-3.5-7.5,.08331-1.33325,.16669-2.66687,.25-4-4.54651-3.55811-6.35663-10.82593-8.75-16.5-.922-2.18604-2.37531-4.07117-2.5-7,2.0174,.48364,3.63959,5.92334,4.75,7.75,2.01862,3.32031,4.71558,6.87109,6.25,10.5,.52148,1.23315,.41431,2.4248,1,3.5,.65912,1.20959,1.9505,2.42798,2.5,3.75,.75641,1.8197,.02631,3.9231,.75,5.75,.78949,.46216,1.85632,.68604,2.75,1.25,2.13928,1.34961,3.05139,4.54858,6.25,4.75,.36981-.63916,.59949-.78662,.75-1.75-.51221-.63257-.52539-1.54236-1-2.25-1.70868-2.5481-2.92743-2.09558-2.75-6.25-1.13721-.59338-2.54333-.91553-3-2.25-.74921-1.19775,.11047-3.1189-.75-4.5-.66681-1.07056-2.05798-1.66431-2.75-2.75-2.64172-4.14478-4.21198-8.58423-6.75-12.75-.99548-1.63403-2.53149-3.1261-2.75-5.5,2.2774,.39038,3.34741,2.71082,4.5,4.25,.66278,.88501,1.59912,1.34155,2.25,2.25,1.7652,2.46338,3.00977,4.99854,4.75,7.5,.65601,.94287,2.14478,2.10449,2.5,3.25,.32312,1.04199-.19092,2.46289,0,3.5,1.6275,.82349,3.7326,.64844,3.75,3.25,.28552,.42236,.26648,1.22388,.25,2,1.41937,1.09424,6.19751,5.55786,7.75,5.75,.66339-.69617,1.0575-.73462,1.25-2-.5849-.73999-.69702-1.69775-1.25-2.5-.73602-1.06787-2.27673-1.63928-2.75-3v-1.75c-.30762-.71509-1.30249-.9502-1.75-1.5-.67578-.83057-.88159-1.86963-1.5-2.75-.36023-.51294-1.13873-.98779-1.5-1.5-2.31372-3.28052-4.19427-6.71399-6.5-10-1.18329-1.68652-5.79688-7.68726-6-9.5,.37891-.13403,.4234-.1687,1-.25,3.35162,5.19336,8.44678,9.28613,11.5,14.75,.56378,1.00879,.375,3.30347,.75,4.25,.62988,.24731,1.68658,.11426,2.5,.5,1.81482,.86035,2.53857,3.44385,3.75,5,.5329,.68445,1.49609,.50757,2.25,1,1.12231,.73303,.79999,1.6001,2.75,1.75,.36981-.63916,.59949-.78662,.75-1.75-1.03558-1.245-1.30048-2.85034-2.25-4.25-.99988-.91675-2.00012-1.8335-3-2.75-.89459-1.20459-1.20892-3.1626-2.25-4.25-.64081-.66943-1.6947-.99072-2.25-1.75-1.38129-1.88892-2.37402-3.87524-3.75-5.75-2.24701-3.06177-4.9201-5.87219-7.25-9-1.16663-1.08325-2.3335-2.16687-3.5-3.25-2.00238-2.94434-3.08252-5.97546-4.5-9.5-1.79968-.729-5.00732-1.48682-5.25-3.75,.46869-.16309,.97809-.23804,1.75-.25,.42242,.2854,1.224,.26636,2,.25,.08331-.16675,.54962-.51392,.5-1.25-.34637-1.4292,2.75262-22.77051,3.5-28.75006,.74738-5.97961,1.14722-11.25739,1.75-15.75,2.38391-17.76562,6.06647-56.37463,7.75-72.75,1.68347-16.37543,3.83789-45.09589,4-51.5s2.58636-10.87341,5-14.75c1.26202-2.02692,3.71857-3.82019,4.5-6.25,.62079-1.9303,.09497-12.40112-.25-14.25-2.46558-1.36572-5.43713-2.89893-7.5-4.75v-.5c2.29169-1.48804,4.86639-3.78882,6.75-5.75,.02856-2.18854-1.0603-4.79871-.75-6,.22668-.8775,1.19238-1.88812,.75-3.5-1.43134-5.21478-5.34589-9.48022-7.25-13.5-1.90411-4.01984-1-13.58081-1-26.75,1.685-30.42212,2.63428-35.2691,5-58.25s2.98932-16.20709,8.5-58.25c.8067-6.1546,3.31177-12.32843,5-18.25,.93372-3.27502,.86609-6.3866,2-9.5,2.00739-5.5119,5.72571-8.755,7.25-14.75,.78839-3.10083-.75153-6.43732-1.5-8.25Zm-36.75,274.75c0,7.74121-.16888,12.00928-.25,24.25-.08112,12.24066-.01532,18.24738-2.25,37.75-.7948,6.93628-1.12402,11.20166-4.4469,35.33771-.41492,3.01367-1.26953,6.27417-2.0531,9.91229-.43848-.15771-.99292-.04822-1.25-.25-1.21149-1.73291-.75-6.01489-.75-8.75-.1908-7.63269,.83789-23.414,1-32.25,.45312-24.69531,3.02039-48.78534,3.75-56,.72961-7.21472,1.11401-13.7027,2.75-19.5,1.13348-4.01691,2.20032-7.65173,3.75-11h.75c.04437,7.32507-1,13.40869-1,20.5Z"/>
  <path class="cls-1" d="M238.36143,153.14123c-1.24414,.79639-4.45215,.68823-6,1.25-4.95435,1.79834-10.21899,3.38477-14.5,6-1.71753,1.04932-3.51123,2.44385-5.25,3.5-1.66455,1.01123-3.4707,1.40259-5,2.5-3.53442,2.53687-6.51538,6.229-11.25,7.5-2.11499,.56787-7.45898-1.60254-9.25-2.25-8.05322-2.91016-22.95752-2.44678-31.5,.25-3.5498,1.12061-9.16943,1.53418-7.75,7.25,1.11719,4.49951,4.63354,8.21753,6.25,13,.64551,1.9104,1.29492,3.90088,1.75,5.75,.62061,2.52197-1.39258,4.84888,0,6.75,.67554,1.79761,7.06567,3.98877,8.75,6.25,3.396,4.55981,5.02222,11.32812,6.5,17.75,.46069,2.0022-.57153,3.19995-1,4.25-.80908,1.9834-2.13721,8.03223-1.25,11.25,.36377,1.31982,1.60693,2.7373,2,4,.59521,1.91211-2.47827,6.99854-3,9.25-.36987,1.59668-.23291,5.05176,.25,6.25,.43335,1.07593,2.08203,2.32129,1.5,4.25-1.04736,3.47144-5.08643,6.78857-3.75,12.5,.66943,2.8606,2.76025,4.37988,3.5,6.75,.37036,1.18677-.34009,2.33325-.5,3v12.25c.56592,2.2959,2.15942,4.30273,2.75,6.25,.47827,1.57715-.71387,3.45508-1,4.75-1.33594,6.04541,2.07349,14.79395,5,16.75,.05225,1.68188-1.25537,3.43311-.75,5.75,.14893,.68311,.20215,2.27051,.5,3,.46729,1.14502,1.62256,2.01855,2,3.25,.76733,2.50391-.34814,5.85938,1.5,7.75,.55762,.5708,1.63672,.74146,2.25,1.25,.79199-.14111,.72705-.21948,1.25-.5-.18286-1.24902-.49512-2.83252,.25-3.75,.08325-.25,.16675-.5,.25-.75,2.67432,.14258,3.58789,1.80151,5.75,2.5,4.37817,1.41504,9.52808-.43018,11.75-2.75h.5c-.70435,3.51636-4.47412,5.02295-5.5,8.25h-.25c.18555,.58008,.25952,.55859,.5,1,4.69067-.33545,7.9126-7.18872,10-10.5,5.48633-8.70215,13.66406-15.34229,20.5-22.75,1.3938,.06909,2.79907,.58472,3.75,1.25h3.5c.72363,.34668,1.58716,8.36279,1,9.25-.08325,.25-.16675,.5-.25,.75-2.94727,.54492-4.84985-.32178-7,1,.09326,1.81763,.81104,2.5769,1.5,3.75,1.30225,.24609,4.36475,.04541,5.5,.75h.5c.23584,1.06519,.38184,2.41748-.25,3.25,.03101,1.71973,.0481,3.46802-.5,4.5-2.46143,.56616-6.33984,.83618-8.25,2,.11255,1.43921,.7019,2.49194,1.5,3.25,1.08691,.78711,4.78223-.25195,6,.25,.4314,.16138,.24463,.04907,.5,.25,.55884,.68066,.93213,4.02954,.25,5,.01611,1.14673,.01953,2.46826-.25,3.25-1.80688,.3374-5.51343-.17285-7,.75-.25,.0835-.5,.16699-.75,.25,.02051,2.27148,.65967,3.17969,1.5,4.5,1.56494-.04663,3.96167-.67651,5,0,1.71167,.62305,1.12891,2.33228,2,3.75-.02637,3.77588-1.74951,1.7959-3,3.75-.25,.91675-.5,1.8335-.75,2.75-.08325,.16675-.16675,.3335-.25,.5-1.84985-.43164-3.38599-1.55591-4.5-2.75-2.18457,.12109-1.69971,1.8501-2.75,3,.28979,3.15015,5.52881,4.4502,7.75,5.75,.16113,.43164,.04883,.24487,.25,.5,.01953,1.82666,.22827,4.34033-.25,5.75-.83325,.0835-1.66675,.16675-2.5,.25-1.88257-1.81616-3.65845-3.64648-5.25-5.75-1.78369,.66138-2.80396,4.3833-1.75,6,2.23438,3.42749,7,7.21948,10.75,9.25-.03784,4.35352-1.90161,6.10059-3.75,8.5h-2c-1.2002-1.28101-2.67822-2.61523-3.5-4.25-1.52539-3.03418-1.72974-6.09546-3.5-8.75-1.14648-1.71875-2.70117-3.50415-4-5.25-1.13086-1.51978-2.93896-2.38135-4.5-3.5-5.24658-3.75928-8.7915-6.927-17.75-5-3.59766,.77393-6.61475-.27271-9.5,1-3.93457,1.73584-8.97949,6.85278-10.75,10.75-2.71509,5.97705-1.41968,14.04102,0,20.5,.08325,2.49976,.16675,5.00049,.25,7.5,.78418,2.81982,3.42041,3.70508,5.5,5.25,2.45361,1.823,4.55664,5.43726,6.25,8,1.06812,1.61694,2.32031,3.71558,3,5.5,.5874,1.54248,.44189,2.96069,1.25,4.25,1.02441,1.63477,4.37451,4.10059,6.75,9,2.37549,4.89966,4.39844,7.63965,9,18,2.99023,6.73291,1.91797,19.00391,9.25,21.75,3.56006,1.3335,4.95215,.86377,10.75,1.25,5.79785,.38672,12.81543-9.66357,18.25-14,1.00171-.79907,7.13599-.79907,8.1377,0,5.43457,4.33643,12.45215,14.38672,18.25,14,5.79785-.38623,7.18994,.0835,10.75-1.25,7.33203-2.74609,6.25952-15.01709,9.25-21.75,4.60132-10.36035,6.62451-13.10034,9-18,2.37549-4.89941,5.72559-7.36523,6.75-9,.80811-1.28931,.66235-2.70752,1.25-4.25,.67969-1.78442,1.93164-3.88306,3-5.5,1.69312-2.56274,3.79639-6.177,6.25-8,2.07959-1.54492,4.71582-2.43018,5.5-5.25,.08325-2.49951,.1665-5.00024,.25-7.5,1.41943-6.45898,2.71484-14.52295,0-20.5-1.77051-3.89722-6.81567-9.01416-10.75-10.75-2.88525-1.27271-5.90234-.22607-9.5-1-8.9585-1.927-12.50342,1.24072-17.75,5-1.56128,1.11865-3.36914,1.98022-4.5,3.5-1.29883,1.74585-2.85352,3.53125-4,5.25-1.77051,2.65454-1.97485,5.71582-3.5,8.75-.82178,1.63477-2.2998,2.96899-3.5,4.25h-2c-1.84863-2.39941-3.7124-4.14648-3.75-8.5,3.75-2.03052,8.51562-5.82251,10.75-9.25,1.05396-1.6167,.03369-5.33862-1.75-6-1.5918,2.10352-3.36743,3.93384-5.25,5.75-.8335-.08325-1.66699-.1665-2.5-.25-.47827-1.40967-.26978-3.92334-.25-5.75,.20093-.25513,.08862-.06836,.25-.5,2.22095-1.2998,7.45996-2.59985,7.75-5.75-1.05054-1.1499-.56567-2.87891-2.75-3-1.11426,1.19409-2.65039,2.31836-4.5,2.75-.0835-.1665-.16675-.33325-.25-.5-.25-.9165-.5-1.83325-.75-2.75-1.25049-1.9541-2.97363,.02588-3-3.75,.87109-1.41772,.28809-3.12695,2-3.75,1.03833-.67651,3.43506-.04663,5,0,.84033-1.32031,1.47949-2.22852,1.5-4.5-.25-.08301-.5-.1665-.75-.25-1.48657-.92285-5.19312-.4126-7-.75-.26978-.78174-.26636-2.10327-.25-3.25-.68213-.97046-.30884-4.31934,.25-5,.25513-.20093,.06836-.08862,.5-.25,1.21777-.50195,4.91309,.53711,6-.25,.7981-.75806,1.38745-1.81079,1.5-3.25-1.91016-1.16382-5.78882-1.43384-8.25-2-.54834-1.03198-.53125-2.78027-.5-4.5-.63184-.83252-.48584-2.18481-.25-3.25h.5c1.13525-.70459,4.19775-.50391,5.5-.75,.68872-1.1731,1.40674-1.93237,1.5-3.75-2.15039-1.32178-4.05298-.45508-7-1-.0835-.25-.16675-.5-.25-.75-.5874-.88721,.27637-8.90332,1-9.25h3.5c.95093-.66528,2.35596-1.18091,3.75-1.25,6.83594,7.40771,15.01367,14.04785,20.5,22.75,2.0874,3.31128,5.30933,10.16455,10,10.5,.24023-.44141,.31421-.41992,.5-1h-.25c-1.02588-3.22705-4.79565-4.73364-5.5-8.25h.5c2.22192,2.31982,7.37183,4.16504,11.75,2.75,2.16187-.69849,3.07544-2.35742,5.75-2.5,.08325,.25,.1665,.5,.25,.75,.74512,.91748,.43286,2.50098,.25,3.75,.52271,.28052,.45801,.35889,1.25,.5,.61328-.50854,1.69214-.6792,2.25-1.25,1.84814-1.89063,.73242-5.24609,1.5-7.75,.37744-1.23145,1.53271-2.10498,2-3.25,.29785-.72949,.35107-2.31689,.5-3,.50537-2.31689-.80249-4.06812-.75-5.75,2.92627-1.95605,6.33569-10.70459,5-16.75-.28638-1.29492-1.47852-3.17285-1-4.75,.59058-1.94727,2.18408-3.9541,2.75-6.25v-12.25c-.15991-.66675-.87036-1.81323-.5-3,.7395-2.37012,2.83057-3.8894,3.5-6.75,1.33643-5.71143-2.70264-9.02856-3.75-12.5-.58203-1.92871,1.06641-3.17407,1.5-4.25,.48267-1.19824,.61987-4.65332,.25-6.25-.52173-2.25146-3.59546-7.33789-3-9.25,.39307-1.2627,1.63623-2.68018,2-4,.88696-3.21777-.44092-9.2666-1.25-11.25-.42871-1.05005-1.46094-2.2478-1-4.25,1.47754-6.42188,3.104-13.19019,6.5-17.75,1.68433-2.26123,8.07422-4.45239,8.75-6.25,1.39233-1.90112-.62061-4.22803,0-6.75,.45483-1.84912,1.10425-3.8396,1.75-5.75,1.61646-4.78247,5.13281-8.50049,6.25-13,1.41919-5.71582-4.20044-6.12939-7.75-7.25-8.54248-2.69678-23.44702-3.16016-31.5-.25-1.79102,.64746-7.13525,2.81787-9.25,2.25-4.73486-1.271-7.71558-4.96313-11.25-7.5-1.5293-1.09741-3.33569-1.48877-5-2.5-1.73877-1.05615-3.53271-2.45068-5.25-3.5-4.28125-2.61523-9.54565-4.20166-14.5-6-1.54785-.56177-4.75586-.45361-6-1.25-2.83325,.0835-14.80469,.0835-17.6377,0Zm-1.75,132.25c.28394,1.36035,.72095,8.14136,0,9.25-.63159,3.27344-8.55786,5.15771-11,7.25-3.74927-.12354-1.79175-3.77515-.75-5.25,3.18604-4.5105,7.46631-7.39258,11.25-11.25h.5Zm-6.75-68c1.7085,1.19165,3.98511,1.99951,5.75,3-.20361,1.04395-.54028,1.05273-1,1.75h-4.75c-1.24927-.34546-4.7356-2.12402-6.5-1-2.12012,.03101-4.88672,.21753-6.25-.5,.06641-1.6665,.69849-6.82642,1.5-7.75,.22876-.53906,.2168-.36328,.5-.75,5.58667,.14355,7.47729,2.96777,10.75,5.25Zm-8.75-19c3.37354,.16943,6.0874,2.40137,8.75,3.5,1.92505,.79468,3.88379,.90186,5.5,1.75-.05664,.57983-.04932,.70532-.25,1-.08325,.25-.16675,.5-.25,.75-2.57471,.00806-13.22852-.16162-14.5-1.25h-.5c-.23169-2.20874,.30713-4.13281,1.25-5.75Zm13.75,35c-.38013,1.92822-1.89551,1.33252-3.5,2-3.36279,1.39917-8.23755,2.02344-12.25,3-1.11816,.27246-5.20801,.66162-5.5,.5h-.5c.12622-1.93408,2.1499-7.63623,3-9.25,6.36646,.56006,13.84546,1.60791,18.75,3.75Zm-4.25-70.5c1.26147-.02979,2.33325-.0332,3,.5,1.11377,.75073,1.14771,2.01831,2,3-.08984,4.60327-5.36646,.96484-6.75,.25-1.11157-.57373-2.41895-.67114-3.25-1.5-.2019-.25684-.09229-.06128-.25-.5,1.4668-.67676,3.8457-.84009,5.25-1.75Zm-6,8.25c2.96582,.90576,3.95581,2.71777,8.25,3.25,.03418,.7522,.18604,.69629,0,1-.51538,4.43555-8.57129,1.66211-11.5,1-1.71094-.38647-3.7251-.18018-5.25-.5-1.47729-.30957-3.67773,.43237-4.75-.25-.26953-.22852-.02295,.021-.25-.25,2.96436-2.27588,7.31494-6.13892,13.5-4.25Zm-17.75,80.5c2.71094-.7124,6.79443-.6123,9.75-1.5,3.27246-.98242,5.74854-2.69336,8.25-4.25,1.18237-.7356,2.75415-.85083,3.75-1.75,3.03662,.00244,2.68921,3.34058,4.25,5-.05664,.57983-.04932,.70532-.25,1-.81152,1.99927-4.6875,2.40576-6.5,3.5-2.87915,1.73877-6.03711,3.18433-9,5-1.50928,.92505-3.49951,2.4541-5.25,3-1.88745,.58887-3.33838-.7832-4.25-1.25-.99854-.51099-2.18286-.62842-2.75-1.5-.94214-1.44727,1.41602-6.13477,2-7.25Zm-9,64.5c-2.16943,.68677-4.03345-1.08472-5.5-1.5-.16138-.4314-.04883-.24463-.25-.5,.37695-1.9375,2.39282-2.51904,3.75-3.5,1.57153-1.13574,2.8877-2.91943,4.75-3.75,3.33545-1.4873,7.19482-2.17041,10-4.25,.6333,.02661,.92627,.03076,1.25,.25,1.0415,.0498,1.14551,.17456,1.75,.5-.84424,4.74023-11.23413,11.3208-15.75,12.75Zm10.25,3c-.28833,1.73242-1.43311,2.13159-2.25,3.25-1.66968,2.28638-2.98706,4.85059-5.25,6.5-.96216,.70166-2.07861,1.01172-3,1.75-1.15723,.04321-1.9856,.09375-2.5-.5-.625-.63647,2.23901-2.67407,2.75-3.25,1.93457-2.18018,6.84473-7.49561,10.25-7.75Zm-12.75-35c-.55566,2.80713-8.3562,5.8999-10.5,8-2.8584-.48779-5.03979-3.35693-7.25-4.75,.24536-2.18237,5.00708-3.80518,6.5-5.25,1.30322,.00732,8.57495,1.08228,9.25,1.5,1.12402,.021,1.3645,.15723,2,.5Zm-2-7c2.24731-2.0127,5.57227-2.61816,8.25-4.25,1.85645-1.1311,4.13086-3.05957,6.25-3.75h5.25c2.56006-.60596,5.90747-1.52808,7.75-3,.25,.0835,.5,.16699,.75,.25-.23047,2.74341-3.38696,3.5708-5.25,4.75-1.37891,.87305-2.86279,2.14209-4.25,3-1.75439,1.08545-3.75,1.43115-5.5,2.5-1.20093,.73389-2.47559,1.8252-4,2.25-2.03271,.56665-4.21143-.43823-5.5-.75-1.25488-.30347-2.60059,.10107-3.5-.5-.2019-.25684-.09229-.06128-.25-.5Zm-.25,20c-.08325-.25-.16675-.5-.25-.75,2.72778-2.60425,5.41992-4.95679,8.5-7.25,1.55469-1.15723,3.05737-3.02173,5-3.75,1.36792-.5127,3.11133,.10791,4.75-.25,2.4458-.53394,9.01904-1.19189,10.75-2.25,.33325,.0835,.66675,.16699,1,.25-.82275,2.3772-4.55176,4.3457-6.5,5.75-5.20361,3.75073-14.99854,12.58667-23.25,8.25Zm0-31c2.89185,.62646,5.89795-2.50977,8-.75h.5c-.39355,2.08252-2.68433,2.3269-4.25,3.25-1.5293,.9021-3.4082,1.5105-5,2.5-2.48413,1.54443-4.59277,4.14746-8,4-1.48364-1.552-3.7041-2.52368-5-4.25-.79834-1.06323-1.33691-2.30542-2.25-3.25,.25464-2.88062,2.9314-3.8811,4.5-5.5,4.31689,.11548,7.51221,3.13647,11.5,4Zm-19-28.25c2.59473,.50635,2.9668,5.27222,4.5,7v1.5c-.43164,.16138-.24463,.04907-.5,.25-3.06494-.27271-5.15967-5.75537-4-8.75Zm.25,19.25c1.13745,.32031,1.63916,.95264,2.5,1.5-.052,1.62256-1.01807,2.62036-2.25,3-.25708,.2019-.06152,.09253-.5,.25-.21875-.29419-.20215-.28296-.5-.5-.02783-1.94678,.12476-3.13037,.75-4.25Zm-.75,25.25c-3.28979-1.29443-1.58179-6.99072-.25-9,2.354,1.15942,3.55347,3.60791,5.75,5-.09961,.51367-.06201,.48193-.25,.75-.60425,1.6189-3.33423,2.3313-4.5,3.5-.51367-.09961-.48193-.06201-.75-.25Zm4,34.75h-1.25c-.04297-1.15698-.09351-1.98535,.5-2.5,.25708-.20166,.06152-.09229,.5-.25,1.01147,1.11377,1.0769,1.41357,.25,2.75Zm-2.25-17.5c-.25708,.2019-.06152,.09253-.5,.25-.52002-1.41821-.646-4.90283,0-6.75h1c.65894,.86426,2.04272,1.70801,3,2.25-.22925,1.53418-2.23828,3.77344-3.5,4.25Zm11.75,1.5c2.41357,.07129,3.2832,1.28247,4.75,2.25-.91943,2.6062-6.25195,5.20898-8.25,7.25-2.01807-.05078-2.52588-.75928-3.75-1.5,.3501-3.74927,5.07764-5.8269,7.25-8Zm-6,24.75c.6001-2.50098,3.61646-4.76025,5-6.75,.51367-.09961,.48193-.06201,.75-.25,1.96191,.29102,3.30615,1.25928,5,1.75,.16138,.43164,.04883,.24487,.25,.5-.33203,2.57959-4.28003,5.60791-5.5,8-1.93384,.38794-6.125-.64453-5.5-3.25Zm50.25-13.5c-2.71045,1.13696-5.56689,2.64526-8,4.25-3.88306,2.56152-8.20874,7.49072-11,11.25-2.09229,2.81787-5.78125,4.28638-8.25,6.75-2.25024,2.24585-6.62183,7.01123-9.5,8.25-.75317,.32422-2.91064,.54736-4,.25-1.62842-.44434-3.05273-1.75244-4.5-2.5,.30322-7.29004,11.3186-2.66382,16-5.75,6.15918-4.06006,10.61206-11.18945,14.5-17.5,1.31689-2.13721,1.67847-5.08081,3.25-7,.73242-.89404,1.89014-.91992,3-1.5,1.07495-.56128,2.1001-1.74512,3.25-2.25,2.20361-.9668,4.4104-1.23364,6-2.75,1.323,.52539,.63086,1.05713,1.25,2.25,.53418,1.02954,2.04126,2.3479,3,3-.19336,2.75269-2.948,2.3894-5,3.25Zm-2.5,171c-.99536,.72485-2.45923,.78247-3.5,1.5-1.64307,.03491-2.7854-.10059-3.75-.75-2.24805-1.51318-5.41919-11.18091-3.75-15.25,.52197-1.27222,1.56567-1.65674,2.5-2.5,4.20728,.34131,9.59668,3.89258,11.5,6.5,.65967,.90405,.87988,1.82422,1.75,2.5-.05322,2.19385-3.42749,7.03711-4.75,8Zm12-21c-.08325,.25-.16675,.5-.25,.75-1.37476-.07886-2.62891-.44702-4,0-1.68945,.55127-3.86719,2.72656-6.25,2.25-1.82715-.36523-3.16382-1.85059-4.5-2.75-.17407-.71826-.59985-1.43701-.75-2-.49878-1.86914,.73755-3.72363,0-5.5-.68799-1.65674-2.50024-2.41919-3.5-3.75-2.21094-2.94287-4.61768-5.82544-6.75-8.75-.80811-1.10791-3.12769-5.18848-2-7,.20117-4.29443,5.61279-4.35547,8.25-6.25h2.5c.66675,.68896,1.80225,1.11182,2.25,2,1.59717,3.17041,.40942,8.53857,2.25,11.5,.95703,1.54004,6.86816,5.00317,8.75,5.75,1.25073,.49658,2.5293,.4812,3.5,1,.05664,.57983,.04932,.70532,.25,1,.08447,4.13794-1.0105,2.06616-2.75,3.75-.34448,.3335-.3855,.92139-.75,1.25,.04639,3.14746,1.93652,3.22852,3.5,4.75,.41602,.49194,.68408,1.37378,.25,2Zm79.8877-201c-.29785,.21704-.28125,.20581-.5,.5-.43848-.15747-.24292-.0481-.5-.25-1.23218-.37964-2.19824-1.37744-2.25-3,.8606-.54736,1.3623-1.17969,2.5-1.5,.62524,1.11963,.77783,2.30322,.75,4.25Zm-5-16.5c1.5332-1.72778,1.90527-6.49365,4.5-7,1.15967,2.99463-.93506,8.47729-4,8.75-.25537-.20093-.0686-.08862-.5-.25v-1.5Zm-22.5,20.5c2.10181-1.75977,5.10815,1.37646,8,.75,3.98755-.86353,7.18311-3.88452,11.5-4,1.56836,1.6189,4.24512,2.61938,4.5,5.5-.91309,.94458-1.45166,2.18677-2.25,3.25-1.29614,1.72632-3.5166,2.698-5,4.25-3.40723,.14746-5.51611-2.45557-8-4-1.5918-.9895-3.4707-1.5979-5-2.5-1.56567-.9231-3.85645-1.16748-4.25-3.25h.5Zm7.75,11.75c-.15771,.43872-.04834,.24316-.25,.5-.89941,.60107-2.24512,.19653-3.5,.5-1.28857,.31177-3.46729,1.31665-5.5,.75-1.52466-.4248-2.79907-1.51611-4-2.25-1.75-1.06885-3.74585-1.41455-5.5-2.5-1.38721-.85791-2.87109-2.12695-4.25-3-1.86328-1.1792-5.01953-2.00659-5.25-4.75,.25-.08301,.5-.1665,.75-.25,1.84229,1.47192,5.18994,2.39404,7.75,3h5.25c2.1189,.69043,4.39355,2.6189,6.25,3.75,2.67773,1.63184,6.00244,2.2373,8.25,4.25Zm-4.5,39c-4.51587-1.4292-14.90576-8.00977-15.75-12.75,.60425-.32544,.70825-.4502,1.75-.5,.32373-.21924,.6167-.22339,1.25-.25,2.80518,2.07959,6.66455,2.7627,10,4.25,1.86206,.83057,3.17822,2.61426,4.75,3.75,1.35718,.98096,3.37305,1.5625,3.75,3.5-.20117,.25537-.08887,.0686-.25,.5-1.46655,.41528-3.33081,2.18677-5.5,1.5Zm2.75,14c-.51465,.59375-1.34277,.54321-2.5,.5-.92163-.73828-2.03809-1.04834-3-1.75-2.26294-1.64941-3.58032-4.21362-5.25-6.5-.81689-1.11841-1.96191-1.51758-2.25-3.25,3.40503,.25439,8.31543,5.56982,10.25,7.75,.51074,.57593,3.375,2.61353,2.75,3.25Zm2-33c-8.25146,4.33667-18.04639-4.49927-23.25-8.25-1.94849-1.4043-5.67749-3.3728-6.5-5.75,.33325-.08301,.6665-.1665,1-.25,1.73096,1.05811,8.3042,1.71606,10.75,2.25,1.63867,.35791,3.38208-.2627,4.75,.25,1.94238,.72827,3.44531,2.59277,5,3.75,3.07983,2.29321,5.77197,4.64575,8.5,7.25-.0835,.25-.16675,.5-.25,.75Zm-13.75-45.5c.58374,1.11523,2.94214,5.80273,2,7.25-.56738,.87158-1.75171,.98901-2.75,1.5-.91162,.4668-2.36279,1.83887-4.25,1.25-1.75049-.5459-3.74097-2.07495-5.25-3-2.96289-1.81567-6.12085-3.26123-9-5-1.8125-1.09424-5.68848-1.50073-6.5-3.5-.20068-.29468-.19336-.42017-.25-1,1.56079-1.65942,1.21338-4.99756,4.25-5,.99585,.89917,2.56738,1.0144,3.75,1.75,2.50122,1.55664,4.97754,3.26758,8.25,4.25,2.95557,.8877,7.03906,.7876,9.75,1.5Zm-28-18.25c4.9043-2.14209,12.3833-3.18994,18.75-3.75,.84985,1.61377,2.87354,7.31592,3,9.25h-.5c-.29224,.16162-4.38208-.22754-5.5-.5-4.01245-.97656-8.88721-1.60083-12.25-3-1.60449-.66748-3.12012-.07178-3.5-2Zm23.75-58c-.22729,.271,.01953,.02148-.25,.25-1.07227,.68237-3.27295-.05957-4.75,.25-1.52515,.31982-3.53931,.11353-5.25,.5-2.92871,.66211-10.98486,3.43555-11.5-1-.18628-.30371-.03418-.2478,0-1,4.29395-.53223,5.28418-2.34424,8.25-3.25,6.18506-1.88892,10.53564,1.97412,13.5,4.25Zm-8.75,28.75h-.5c-1.27148,1.08838-11.92554,1.25806-14.5,1.25-.0835-.25-.16675-.5-.25-.75-.20068-.29468-.19336-.42017-.25-1,1.61621-.84814,3.57471-.95532,5.5-1.75,2.6626-1.09863,5.37622-3.33057,8.75-3.5,.94287,1.61719,1.48169,3.54126,1.25,5.75Zm-13.75-40.75c.6665-.5332,1.73853-.52979,3-.5,1.40405,.90991,3.7832,1.07324,5.25,1.75-.15771,.43872-.04834,.24316-.25,.5-.83105,.82886-2.13867,.92627-3.25,1.5-1.38379,.71484-6.66016,4.35327-6.75-.25,.85205-.98169,.88623-2.24927,2-3Zm3.75,54c3.27246-2.28223,5.16309-5.10645,10.75-5.25,.2832,.38672,.271,.21094,.5,.75,.80127,.92358,1.43335,6.0835,1.5,7.75-1.36353,.71753-4.12988,.53101-6.25,.5-1.76465-1.12402-5.25098,.65454-6.5,1h-4.75c-.45996-.69727-.79639-.70605-1-1.75,1.76489-1.00049,4.04126-1.80835,5.75-3Zm-6.75,68h.5c3.78369,3.85742,8.06396,6.7395,11.25,11.25,1.0415,1.47485,2.99902,5.12646-.75,5.25-2.44214-2.09229-10.36865-3.97656-11-7.25-.72095-1.10864-.28394-7.88965,0-9.25Zm15,198.75c-.96484,.64941-2.10718,.78491-3.75,.75-1.04077-.71753-2.50488-.77515-3.5-1.5-1.32275-.96289-4.69702-5.80615-4.75-8,.87012-.67578,1.09009-1.59595,1.75-2.5,1.90332-2.60742,7.29248-6.15869,11.5-6.5,.93408,.84326,1.97803,1.22778,2.5,2.5,1.66895,4.06909-1.50195,13.73682-3.75,15.25Zm-6.5-41.25c1.84058-2.96143,.65259-8.32959,2.25-11.5,.44751-.88818,1.58301-1.31104,2.25-2h2.5c2.63721,1.89453,8.04883,1.95557,8.25,6.25,1.12769,1.81152-1.19214,5.89209-2,7-2.13257,2.92456-4.53931,5.80713-6.75,8.75-.99976,1.33081-2.81201,2.09326-3.5,3.75-.73779,1.77637,.49878,3.63086,0,5.5-.15015,.56299-.57617,1.28174-.75,2-1.33643,.89941-2.67285,2.38477-4.5,2.75-2.38281,.47656-4.56055-1.69873-6.25-2.25-1.37109-.44702-2.62549-.07886-4,0-.0835-.25-.16675-.5-.25-.75-.43408-.62622-.16626-1.50806,.25-2,1.56348-1.52148,3.45361-1.60254,3.5-4.75-.3645-.32861-.40552-.9165-.75-1.25-1.7395-1.68384-2.83472,.38794-2.75-3.75,.20068-.29468,.19336-.42017,.25-1,.9707-.5188,2.24902-.50342,3.5-1,1.88184-.74683,7.79297-4.20996,8.75-5.75Zm37.5-99.75c-1.08936,.29736-3.24683,.07422-4-.25-2.87842-1.23877-7.24976-6.00415-9.5-8.25-2.46875-2.46362-6.15796-3.93213-8.25-6.75-2.7915-3.75928-7.11694-8.68848-11-11.25-2.43335-1.60474-5.28955-3.11304-8-4.25-2.05225-.8606-4.80664-.49731-5-3.25,.95874-.6521,2.46582-1.97046,3-3,.6189-1.19287-.073-1.72461,1.25-2.25,1.5896,1.51636,3.79639,1.7832,6,2.75,1.1499,.50488,2.1748,1.68872,3.25,2.25,1.10986,.58008,2.26758,.60596,3,1.5,1.57129,1.91919,1.93311,4.86279,3.25,7,3.88794,6.31055,8.34082,13.43994,14.5,17.5,4.68115,3.08618,15.69653-1.54004,16,5.75-1.44751,.74756-2.87158,2.05566-4.5,2.5Zm4-14c-1.22021-2.39209-5.16821-5.42041-5.5-8,.20093-.25513,.08862-.06836,.25-.5,1.6936-.49072,3.03809-1.45898,5-1.75,.26807,.18799,.23633,.15039,.75,.25,1.3833,1.98975,4.3999,4.24902,5,6.75,.625,2.60547-3.56641,3.63794-5.5,3.25Zm3-18.5c-1.99805-2.04102-7.33057-4.6438-8.25-7.25,1.4668-.96753,2.33643-2.17871,4.75-2.25,2.17236,2.1731,6.8999,4.25073,7.25,8-1.22412,.74072-1.73193,1.44922-3.75,1.5Zm-1.25-18.5c-2.1438-2.1001-9.94434-5.19287-10.5-8,.6355-.34277,.87598-.479,2-.5,.6748-.41772,7.94678-1.49268,9.25-1.5,1.49268,1.44482,6.25439,3.06763,6.5,5.25-2.21045,1.39307-4.3916,4.26221-7.25,4.75Zm8.5,25h-1.25c-.8269-1.33643-.76147-1.63623,.25-2.75,.43848,.15771,.24268,.04834,.5,.25,.59326,.51465,.54297,1.34302,.5,2.5Zm1.5-17.25c-.43848-.15747-.24292-.0481-.5-.25-1.26172-.47656-3.27075-2.71582-3.5-4.25,.95703-.54199,2.34106-1.38574,3-2.25h1c.64575,1.84717,.52002,5.33179,0,6.75Zm1.25-17.5c-.26831,.18799-.23657,.15039-.75,.25-1.16602-1.1687-3.896-1.8811-4.5-3.5-.18799-.26807-.15039-.23633-.25-.75,2.19653-1.39209,3.39575-3.84058,5.75-5,1.33179,2.00928,3.03979,7.70557-.25,9Z"/>
  <path class="cls-1" d="M228.76848,96.39785c-.81812-.11279-1.69263-.33667-2.25-.75-.25-.08325-.5-.16675-.75-.25,.16675-2.24976,.3335-4.50024,.5-6.75,1.13428-1.0498,2.64673-2.19556,3.5-3.5,.64917,.0498,.84912,.1106,1.25,.25,.85205,4.42871-.65186,8.21313-2.25,11Zm3.25-93.5c-12.25537,4.77795-23.0376,16.49487-25,29.25-1.96216,12.75488-.77222,12.92554,2.75,26.25,.39258,1.48462-.28027,3.12964-.5,4-.08325,2.66626-.16675,5.3335-.25,8-.42212,1.71802-1.41406,3.5061-.75,5.75,.97876,3.30713,3.98535,9.55225,6.5,11.25,1.35815,.91675,4.66113,.88525,5.25,2.5v13c-.26294,1.2251-.52124,3.58911,.25,4.5,.55127,1.32837,5.36572,4.48999,6.75,5.5,2.45483,1.79102,4.16602,4.8252,6.75,6.5-.35718,1.76123-1.05444,1.6311-2.25,2.5-1.03345,.75098-2.10083,2.10229-3,3,.05493,1.28955,.30444,1.48926,.75,2.25,1.42896,.57544,6.38354,.19775,7.75-.75,.79199,.14136,.72729,.21948,1.25,.5-.41455,2.52808-2.77832,3.2627-4.5,4.5-1.74097,1.25122-3.10449,2.63403-4.5,4.25,.09302,2.02173,.94482,2.31226,1.75,3.5,2.21387,.25928,4.2981,.01685,6.75,0-.32544,2.93115-4.21411,2.98291-6.25,4.25-1.05371,.65576-1.89233,2.91382-2.75,3.75,.10791,3.40088,3.3501,1.75269,5.5,3-.1665,1.6665-.33325,3.8335-.5,5.5,.37134,.34546,.72974,.81055,1,1.25,1-.08325,2.00024-.16675,3-.25,1.99902,.56177,4.5647,1.64111,6.75,2,1.42358,.23364,3.90007,.2336,5.32341-.00004,2.1853-.35889,4.75098-1.43823,6.75-2,1,.08325,2.00024,.16675,3,.25,.27051-.43945,.62891-.90442,1-1.25-.1665-1.6665-.33325-3.8335-.5-5.5,2.1499-1.24744,5.39233,.401,5.5-3-.85767-.83618-1.69629-3.09424-2.75-3.75-2.03564-1.26709-5.92432-1.31873-6.25-4.25,2.4519,.01697,4.53638,.2594,6.75,0,.80518-1.18774,1.65723-1.47827,1.75-3.5-1.39526-1.61597-2.75879-2.99878-4.5-4.25-1.72144-1.2373-4.08545-1.9718-4.5-4.5,.52295-.2804,.45801-.35864,1.25-.5,1.36646,.94788,6.32129,1.32556,7.75,.75,.44556-.76074,.69531-.96045,.75-2.25-.89893-.89746-1.96655-2.2489-3-3-1.19531-.8689-1.89258-.73877-2.25-2.5,2.58423-1.6748,4.29517-4.70898,6.75-6.5,1.38452-1.01001,6.19873-4.17163,6.75-5.5,.77148-.91089,.51318-3.2749,.25-4.5v-13c.58887-1.61462,3.89209-1.58313,5.25-2.5,2.51465-1.69775,5.52124-7.94287,6.5-11.25,.66406-2.2439-.32764-4.03198-.75-5.75-.08325-2.6665-.1665-5.33362-.25-8-.21948-.87036-.89233-2.51538-.5-4,3.52222-13.32446,4.7124-13.495,2.75-26.25-1.96216-12.755-12.74463-24.47192-25-29.25-9.91016-3.86377-20.41301-3.86373-30.32341,.00004Zm35.82341,92.74996c-.55713,.41333-1.43164,.63721-2.25,.75-1.59814-2.78674-3.10205-6.57129-2.25-11,.40088-.1394,.60107-.2002,1.25-.25,.85352,1.30444,2.36572,2.4502,3.5,3.5,.16675,2.24976,.3335,4.50024,.5,6.75-.25,.08325-.5,.16675-.75,.25Z"/>
  <path class="cls-1" d="M157.25001,185.6913c-2.55273-1.0708-6.51642-.25903-8.75,.25-2.33313-.25-4.66693-.5-7-.75-2.79462,.73029-4.0722,3.633-5,6.25-.90491,2.55249-.0744,6.49249,1,8,.43311,.60767,1.48181,.98279,1.75,1.75,.77161,2.20746-1.27972,2.99438-1,7.75,.27966,4.75555-.02161,8.36499-3,24.25-1.67853,8.95178-2.66034,16.33398-12,46-2.68292,8.52167-6.5979,16.76105-10,24.5-2.00751,4.56647-3.12079,9.32056-5.75,13.25-.48914,.73096-1.49323,1.30115-2,2-1.65869,2.28705-3.01672,5.32556-5.25,7-2.09149,1.56805-5.97589,2.42694-6.75,5.25-2.81201,3.79675,2.1601,8.04138,4.25,9v.75c-4.44012,.82898-3.93793,2.04596-6,5,.16449,1.94336,2.68567,5.68524,3.75,6.99994-.10034,3.57532-3.45294,6.70691-5,9.25-1.04553,1.71875-1.36353,3.07404-2.5,4.75-7.78119,11.47491-11.0434,20.06842-14.25,29.25-5.01849,14.36951-6.03143,18.67426-12.25,32.25-6.12549,13.37274-4.73743,9.91223-7,14.25-.91809,1.76025-1.83173,3.98993-2.75,5.75-1.08374,2.07703-2.16559,2.84442-3.25,5-.79102,1.57245-.82971,3.09583-1.75,4.5-2.22089,3.38861-5.77399,5.59192-8.5,8.5,.1106,1.47626,.69537,3.37024,1.5,4.25-.0567,.57971-.04932,.70514-.25,1-.73352,.44922-2.51453-.84814-4-.5-1.47809,.34656-2.90662,1.18683-4,2-3.31854,2.4682-5.29724,7.39221-7.75,10.75-.90692,1.24164-3.75702,2.26984-4.25,3-.37769,.55945-.00409,1.22931-.25,2-.4184,1.31165-1.45081,3.28503-2.25,4.5-.69104,1.0506-2.20624,3.04346-3.25,3.75-1.09979,.74451-2.67609,.7392-3.75,1.5-1.88641,1.33643-1.83313,2.92535-3,4.75-.95068,1.48676-5.34253,4.021-7,5,.04987,.64911,.1106,.84912,.25,1.25,1.91638-.13708,2.72339-.93805,4-1.5,2.65051-1.16656,6.09631-2.24677,8.75-3,.16669-.99988,.33337-2.00006,.5-3,.10938-.21478,5.41479-5.53369,5.75-5.75,1.24988-.41656,2.50006-.83337,3.75-1.25,1.70886-1.15607,1.90619-4.2038,3-6,1.55731-2.5575,3.94958-4.23297,5.25-7,2.73456-.06329,2.86078,.59174,4,2-.0954,3.6402-3.65259,9.81232-5,13-1.85962,4.39941-2.8609,8.55853-4.75,13-.5799,1.36353-1.78729,3.28516-2.25,4.75-.49609,1.57074,.56897,2.72845,0,4.25-.86542,2.31421-2.96271,4.43884-3.75,6.75-.08331,1.08325-.16669,2.16681-.25,3.25-.5293,1.94031-.95764,4.51935-1.75,6.5-.79529,1.98792-2.82904,3.82135-3.5,6-.91882,2.98352,.22406,6.71173-1.5,8.75-.0097,.9541,.03748,1.88794,.25,2.5,2.93939-.33008,2.37921-3.85388,3.5-6,.79706-1.52625,2.91968-2.53796,3.5-4.25,.56689-1.67236-.08081-3.25189,.5-4.75,.44366-1.14459,1.24658-3.37445,2-4.5,.48529-.72485,1.68701-1.3714,2-2.25v-3.25c.52399-2.31726,1.08667-4.72998,2.25-6.5,1.12897-1.7179,3.32306-3.15704,4.25-5,.68878-1.36945-.21063-3.55957,.25-5.25,.90259-3.3125,1.04706-3.92896,2.5-7.25,1.45288-3.32098,3.95929-7.09076,5.75-9.5,.9104-1.22485,2.27802-2.0387,3-3.5,.43146-.16125,.24469-.04889,.5-.25,.71198,.0274,1.06891,.10022,1.5,.25-.02869,4.89081-1.3877,7.71271-2.75,11-1.63312,3.94086-2.60883,7.07092-3.75,10.25-1.14124,3.17914-1.27942,2.84131-2,4.5-.74994,1.08325-1.50012,2.16681-2.25,3.25-.62659,1.65564,.5592,3.80371,0,6-.40009,1.57153-.8443,3.74963-1.25,5.5v2.75c-.43372,1.50232-1.8313,2.52783-2.25,4,.08331,.83325,.16669,1.66675,.25,2.5-.17242,.87061-.62152,2.01251-1,3-.92273,2.4071-2.53253,5.28815-3.25,7.75,.08331,2.08313,.16669,4.16693,.25,6.25-.33881,1.39575-1.47382,4.37671-.25,5.75v.5h1c.12189-5.15839,3.16809-7.18097,4.25-11,.6178-2.18066,.05859-4.44995,.75-6.5,.50177-1.48785,1.25848-4.47168,2.25-5.75,.66656-.41656,1.33337-.83337,2-1.25,.60608-1.03198-.15973-2.68597,.25-4,.2464-.79028,.60126-1.92365,1-3,.82489-2.22717,1.6709-5.53479,3-7.5,.5-.41656,1.00006-.83337,1.5-1.25,.81476-1.70197-.45612-3.25879,0-5,1.6488-6.29419,3.89447-13.22668,7-18.25,1.1189-1.80988,1.55536-4.27966,3.25-5.5v-.25h.25v.25h.25c-1.37244,6.7865-2.16083,14.01611-3.75,20.5-.63489,2.59064-.09631,5.80481-1,8.25-.30029,.8125-1.4975,1.5827-1.75,2.5-.224,.81354,.39331,1.51904,.5,2-.16663,1.74982-.33331,3.50024-.5,5.25-.2298,.87415-1.53119,5.24451-2,6-.23981,.38654-1.04834,.8241-1.25,1.25-.78351,1.65405,1.09149,3.5545,.5,6-.66211,2.73761-2.47363,5.2923-4.25,7,.0744,1.9505,1.54248,2.41425,1,4.75-.42419,1.82623-2.763,5.55182-.25,6.5,1.47742-1.83258,2.21338-4.18439,3.5-6.25,.47852-.76825,1.4696-1.56689,1.75-2.5v-4.75c.2832-1.1781,.50348-2.69397,1-4,.66357-1.74536,2.2821-3.26056,2.75-5.25-.08331-.66656-.16669-1.33337-.25-2,.3877-1.9776,.76379-4.04456,1.5-6,.34357-.91235,.90796-2.75409,1.5-3.75,.4707-.79187,1.5238-1.44305,1.75-2.5,.3208-1.49878-.43994-3.45587,0-5.25,1.07361-4.37927,1.69617-9.9928,3-14.25,.88678-2.89545,.55646-5.42505,3-6.75,.21881,.29443,.20221,.28314,.5,.5-.0141,3.28082,.42761,5.81384,1,8-.08331,1.6665-.16669,3.3335-.25,5,.258,1.22052,.7854,4.6781,.25,6.25-.27631,.81104-1.48761,1.46075-1.75,2.25-.52972,1.59344,.74469,2.43433,1,3.25,.08331,2.49976,.16669,5.00031,.25,7.5-.45142,1.79541-2.0976,2.7478-2.5,4.25,.08331,1.6665,.16669,3.3335,.25,5-.27924,1.14331-1.4975,3.23651-.75,4.5v.5h.5c1.38879-2.32117,2.26398-5.10699,3.75-7.5,.49707-.80048,1.47968-1.44189,1.75-2.5,.24426-.95636-.36163-2.09277-.5-2.75,.16669-1.83319,.33337-3.66687,.5-5.5,.54059-2.12909,1.94891-3.75256,2.5-5.5,.56396-1.78845-.86102-2.56299-.5-4.25,.44989-2.10217,.43298-4.84729,1-7.25,1.00256-4.24866,2.09418-14.6897,1-19.75-.25-2.49969-.5-5.00024-.75-7.5-.83783-3.17786-2.48743-4.6098-2.5-8.75,2.05139-1.92487,1.06256-.59827,3.75-1.5,.88519-.297,1.71686-1.27277,2.5-1.75,.57227-2.26099,.19128-6.461,.75-9v-3.75c.55048-1.96356,2.20428-3.68335,3-5.5,.66656-1.99976,1.33337-4.00018,2-6,18.55481-43.65485,32.85486-69.88507,36.25-75.5,3.39508-5.61487,5.42389-7.30206,8-9.25,1.59827-1.20856,3.81451-2.4079,5-4,.62347-.83728,.85938-1.92065,1.5-2.75-.21564-3.27307-1.82611-6.05676-2.25-9.25,4.43329,.03235,9.23938-7.05615,7.75-12.49994-.20874-.76294-1.02502-1.62695-1.25-2.25-1.69183-4.6842-.88251-17.90063-.25-22.75,1.56677-12.01276,5.914-31.28375,10.25-46.25,4.336-14.96631,12.69879-33.28741,18.75-49.75,.33331-1.83313,.66669-3.66693,1-5.5,.99829-2.38135,3.04248-4.26221,3.75-7v-4c-1.0459-4.20624-3.85352-11.9704-7.5-13.5Zm-56.25,188.49994c-2.80884,6.18744-5.76349,11.57422-8.75,17.25-5.52374,10.49774-13.36609,33.30701-16.5,40.75-3.13391,7.44305-4.29993,9.55573-8.75,17-1.59961,2.6759-4.6554,6.78955-5.5,7.75-.8446,.96051-.93384,.19562-1-.5-.06622-.69556,2.78259-7.80756,4-11,2.37598-6.23035,4.00922-11.57056,6.5-17.5,2.87378-6.84106,4.39929-13.77118,7.25-20.5,4.66846-11.01965,9.8689-21.12439,16-30.5,2.86871-4.38666,7.28119-12.42706,8.25-12.75,.96881-.32288,1.36249,.10413,1.75,.75,.38751,.64594-1.96912,6.42841-3.25,9.25Z"/>
  <path class="cls-1" d="M487.32624,503.44124c-1.16687-1.82465-1.11359-3.41357-3-4.75-1.07391-.7608-2.65021-.75549-3.75-1.5-1.04376-.70654-2.55902-2.6994-3.25-3.75-.79919-1.21497-1.8316-3.18835-2.25-4.5-.24591-.77069,.12769-1.44055-.25-2-.49298-.73016-3.34308-1.75836-4.25-3-2.45282-3.35779-4.43152-8.2818-7.75-10.75-1.09338-.81317-2.52191-1.65344-4-2-1.48547-.34814-3.26648,.94922-4,.5-.20068-.29486-.1933-.42029-.25-1,.80463-.87976,1.3894-2.77374,1.5-4.25-2.72601-2.90808-6.27911-5.11139-8.5-8.5-.92029-1.40417-.95898-2.92755-1.75-4.5-1.08441-2.15558-2.16632-2.92297-3.25-5-.91827-1.76007-1.83191-3.98975-2.75-5.75-2.26257-4.33777-.87451-.87726-7-14.25-6.21857-13.57574-7.23151-17.88049-12.25-32.25-3.2066-9.18158-6.46881-17.77509-14.25-29.25-1.13647-1.67596-1.45447-3.03125-2.5-4.75-1.54712-2.54309-4.89972-5.67468-5-9.25,1.06433-1.3147,3.58551-5.05658,3.75-6.99994-2.06207-2.95404-1.55988-4.17102-6-5v-.75c2.0899-.95862,7.06201-5.20325,4.25-9-.77411-2.82306-4.65851-3.68195-6.75-5.25-2.23328-1.67444-3.59131-4.71295-5.25-7-.50677-.69885-1.51086-1.26904-2-2-2.62921-3.92944-3.74249-8.68353-5.75-13.25-3.4021-7.73895-7.31708-15.97833-10-24.5-9.33966-29.66602-10.32147-37.04822-12-46-2.97839-15.88501-3.27966-19.49445-3-24.25,.27972-4.75562-1.77161-5.54254-1-7.75,.26819-.76721,1.31689-1.14233,1.75-1.75,1.0744-1.50751,1.90491-5.44751,1-8-.9278-2.617-2.20538-5.51971-5-6.25-2.33307,.25-4.66687,.5-7,.75-2.23358-.50903-6.19727-1.3208-8.75-.25-3.64648,1.5296-6.4541,9.29376-7.5,13.5v4c.70752,2.73779,2.75171,4.61865,3.75,7,.33331,1.83307,.66669,3.66687,1,5.5,6.05121,16.46259,14.414,34.78369,18.75,49.75,4.336,14.96625,8.68323,34.23724,10.25,46.25,.63251,4.84937,1.44183,18.0658-.25,22.75-.22498,.62305-1.04126,1.48706-1.25,2.25-1.48938,5.44379,3.31671,12.53229,7.75,12.49994-.42389,3.19324-2.03436,5.97693-2.25,9.25,.64062,.82935,.87653,1.91272,1.5,2.75,1.18549,1.5921,3.40173,2.79144,5,4,2.57611,1.94794,4.60492,3.63513,8,9.25,3.39508,5.61493,17.69519,31.84515,36.25,75.5,.66663,1.99982,1.33344,4.00024,2,6,.79572,1.81665,2.44952,3.53644,3,5.5v3.75c.55872,2.539,.17773,6.73901,.75,9,.78308,.47723,1.61481,1.453,2.5,1.75,2.68744,.90173,1.69861-.42487,3.75,1.5-.01257,4.1402-1.66217,5.57214-2.5,8.75-.25,2.49976-.5,5.00031-.75,7.5-1.09418,5.0603-.00256,15.50134,1,19.75,.56702,2.40271,.55011,5.14783,1,7.25,.36102,1.68701-1.06396,2.46155-.5,4.25,.55109,1.74744,1.95941,3.37091,2.5,5.5,.16663,1.83313,.33331,3.66681,.5,5.5-.13837,.65723-.74426,1.79364-.5,2.75,.27032,1.05811,1.25293,1.69952,1.75,2.5,1.48602,2.39301,2.36121,5.17883,3.75,7.5h.5v-.5c.7475-1.26349-.47076-3.35669-.75-4.5,.08331-1.6665,.16669-3.3335,.25-5-.4024-1.5022-2.04858-2.45459-2.5-4.25,.08331-2.49969,.16669-5.00024,.25-7.5,.25531-.81567,1.52972-1.65656,1-3.25-.26239-.78925-1.47369-1.43896-1.75-2.25-.5354-1.5719-.008-5.02948,.25-6.25-.08331-1.6665-.16669-3.3335-.25-5,.57239-2.18616,1.0141-4.71918,1-8,.29779-.21686,.28119-.20557,.5-.5,2.44348,1.32495,2.11322,3.85455,3,6.75,1.30383,4.2572,1.92639,9.87073,3,14.25,.43988,1.79413-.3208,3.75122,0,5.25,.2262,1.05695,1.2793,1.70813,1.75,2.5,.59198,.99591,1.15643,2.83765,1.5,3.75,.73621,1.95544,1.1123,4.0224,1.5,6-.08331,.66663-.16669,1.33344-.25,2,.4679,1.98944,2.08643,3.50464,2.75,5.25,.49652,1.30603,.7168,2.8219,1,4v4.75c.2804,.93311,1.27148,1.73175,1.75,2.5,1.28662,2.06561,2.02258,4.41742,3.5,6.25,2.513-.94818,.17419-4.67377-.25-6.5-.54248-2.33575,.9256-2.7995,1-4.75-1.77637-1.7077-3.58789-4.26239-4.25-7-.59149-2.4455,1.28351-4.34595,.5-6-.20172-.4259-1.01019-.86346-1.25-1.25-.46881-.75549-1.7702-5.12585-2-6-.16669-1.74976-.33337-3.50018-.5-5.25,.10669-.48096,.724-1.18646,.5-2-.2525-.9173-1.44971-1.6875-1.75-2.5-.90369-2.44519-.36511-5.65936-1-8.25-1.58917-6.48389-2.37756-13.7135-3.75-20.5h.25v-.25h.25v.25c1.69458,1.22034,2.1311,3.69012,3.25,5.5,3.10553,5.02332,5.3512,11.95581,7,18.25,.45612,1.74121-.81482,3.29803,0,5,.49994,.41663,1,.83344,1.5,1.25,1.3291,1.96521,2.17511,5.27283,3,7.5,.39868,1.07635,.7536,2.20972,1,3,.40973,1.31403-.35608,2.96802,.25,4,.66663,.41663,1.33344,.83344,2,1.25,.99152,1.27832,1.74823,4.26215,2.25,5.75,.69141,2.05005,.1322,4.31934,.75,6.5,1.08191,3.81903,4.12811,5.84161,4.25,11h1v-.5c1.22382-1.37329,.08881-4.35425-.25-5.75,.08331-2.08307,.16669-4.16687,.25-6.25-.71747-2.46185-2.32727-5.3429-3.25-7.75-.37848-.98749-.82758-2.12939-1-3,.08331-.83325,.16669-1.66675,.25-2.5-.4187-1.47217-1.81628-2.49768-2.25-4v-2.75c-.4057-1.75037-.84991-3.92847-1.25-5.5-.5592-2.19629,.62659-4.34436,0-6-.74988-1.08319-1.50006-2.16675-2.25-3.25-.72058-1.65869-.85876-1.32086-2-4.5-1.14117-3.17908-2.11688-6.30914-3.75-10.25-1.3623-3.28729-2.72131-6.10919-2.75-11,.43109-.14978,.78802-.2226,1.5-.25,.25531,.20111,.06848,.08875,.5,.25,.72198,1.4613,2.0896,2.27515,3,3.5,1.79071,2.40924,4.29712,6.17902,5.75,9.5,1.45288,3.32104,1.59741,3.9375,2.5,7.25,.46063,1.69043-.43878,3.88055,.25,5.25,.92688,1.84296,3.12103,3.2821,4.25,5,1.16333,1.77002,1.72601,4.18274,2.25,6.5v3.25c.31299,.8786,1.51471,1.52515,2,2.25,.75342,1.12555,1.55634,3.35541,2,4.5,.58081,1.49811-.06689,3.07764,.5,4.75,.58032,1.71204,2.70288,2.72375,3.5,4.25,1.12079,2.14612,.56061,5.66992,3.5,6,.21252-.61206,.2597-1.5459,.25-2.5-1.72412-2.03827-.58118-5.76648-1.5-8.75-.67102-2.17865-2.70471-4.01208-3.5-6-.79242-1.98065-1.2207-4.55969-1.75-6.5-.08331-1.08319-.16669-2.16675-.25-3.25-.78729-2.31116-2.88458-4.43579-3.75-6.75-.56897-1.52155,.49609-2.67926,0-4.25-.46271-1.46484-1.6701-3.38647-2.25-4.75-1.8891-4.44147-2.89038-8.60059-4.75-13-1.34741-3.18768-4.9046-9.3598-5-13,1.13922-1.40826,1.26538-2.06329,4-2,1.30042,2.76703,3.69269,4.4425,5.25,7,1.09381,1.7962,1.29114,4.84393,3,6,1.24994,.41663,2.50012,.83344,3.75,1.25,.33521,.21631,5.64062,5.53522,5.75,5.75,.16663,.99994,.33331,2.00012,.5,3,2.65369,.75323,6.09949,1.83344,8.75,3,1.27661,.56195,2.08362,1.36292,4,1.5,.1394-.40088,.20013-.60089,.25-1.25-1.65747-.979-6.04932-3.51324-7-5Zm-54.5-46.5c-.8446-.96045-3.90039-5.0741-5.5-7.75-4.45007-7.44427-5.61609-9.55695-8.75-17-3.13391-7.44299-10.97632-30.25226-16.5-40.75-2.98651-5.67578-5.94116-11.06256-8.75-17.25-1.28088-2.82159-3.63751-8.60406-3.25-9.25,.38751-.64587,.78119-1.07288,1.75-.75,.96881,.32294,5.38129,8.36334,8.25,12.75,6.1311,9.37561,11.33148,19.48035,16,30.5,2.85071,6.72882,4.37622,13.65894,7.25,20.5,2.49078,5.92944,4.12402,11.26965,6.5,17.5,1.21741,3.19244,4.06622,10.30444,4,11-.06616,.69562-.1554,1.46051-1,.5Z"/>
</svg>