<?xml version="1.0" encoding="UTF-8"?>
<svg id="Layer_1" data-name="Layer 1" xmlns="http://www.w3.org/2000/svg" width="173.23294" height="401.23198" viewBox="0 0 173.23294 401.23198">
  <defs>
    <style>
      .cls-1 {
        fill: #fff;
        fill-rule: evenodd;
      }
    </style>
  </defs>
  <path class="cls-1" d="M18.32302,84.48172c.98162,1.27052,.23197,3.56383-.04353,10.19491-.34998,8.22998-.37,23.01001,3,32,3.35999,8.98999,11.5,30.09009,13,35,1.5,4.91992,.31995,8.12012,2,14,1.67004,5.89014,5,10.59009,6,19,.98999,8.41016,8.29993,32.91016,12,42,3.69006,9.09009,34.47998,50.78003,39,58,1.04993,1.68994,4.13,6.46997,4.84998,9.66992,.48999,2.21021,.92004,5.33008,.72998,13.14014-.12988,5.35986,.81006,14.06006,1.57007,25.27002,.41992,6.18994,1.60999,8.87988,2.72998,13.31982,1.10999,4.44019,2.22998,9.67017,2.82007,12.33008,.58984,2.66992,1.1499,5.68994,2.21997,8.25,1.06995,2.57007,1.65991,3.62012,3.3999,6.36011s5.63013,1.36011,5.17004-1.51001c-.46008-2.86011-.79993-4.14014-1.41003-6.16016-.60999-2.02979-1.06995-4.52979-1.31995-7.15991-.25-2.62988-.28003-2.88989-.51001-5.07983-.22998-2.18018,2.29993-3.08008,3.08997-.80005,.78003,2.28003,1.96997,9.57983,2.82007,12.32983,.84998,2.76001,4.93994,13.72021,5.52002,15.61011,.57996,1.88989,1.11987,3.95996,3.20996,8.34985,2.08997,4.38013,6.58997,2.88013,6.15991-1.41992-.42993-4.29004-.38989-4.41992-1.20996-8.1499-.82996-3.72998-2.5-12.55005-3.43994-16.41016-.93994-3.84985-1.81006-7.06982-2.12012-9.25-.29993-2.16992,1.34009-2.17993,2.09009-.7998,.76001,1.37988,2.80005,8.31006,3.63,11.10986,.82996,2.81006,4.02002,11.9502,4.91003,14.73999,.8999,2.79004,2.38989,6.21997,4.01001,10.44019,1.62988,4.20996,7.63989,2.1499,7.16992-1.32007-.5-3.57007-1.45996-6.3501-2.12-9.25-.66003-2.90015-3.52991-15.47998-4.23999-18.48999-.70996-3.01001-3.66003-9.4502-3.92004-11.34009-.26001-1.88013,1.01001-2.88989,2.09009-.80005,1.07996,2.09009,2.31006,3.91992,4.09998,8.02002,1.77991,4.1001,4.72998,10.48999,6,13s.77002,4.97998,3.22998,9.14014c2.46008,4.16992,7.16003,.70996,6.9801-2.04004-.18018-2.76001-1.02002-6.47998-2.21008-10.1001-1.22009-3.67993-2.68005-9.5-4-14-1.35999-4.56982-3.25-7.79004-4.27002-12.10986-1.02991-4.32007-3.55994-11.2002-3.82996-12.33008-.26001-1.12988-.20996-2.87988,1.29004-2.89014,1.48999,0,6.15991,4.89014,9.61987,6.71021,3.45007,1.80981,5.06006,4.53003,9.81006,4.55005s7.48999-2.78027,3.18994-5.55005c-4.29993-2.77002-5.15991-4.19019-7.80994-6.38013-2.66003-2.17993-6.25-8.13989-8-12-1.76001-3.85986-8.40002-9.72998-12.17004-14.96997-3.77002-5.25-10.60999-7.07983-13.06995-10.31006-1.70007-2.23999-4.76001-8.32983-5.76001-10.71997-4.14001-9.76001-8.75-20.48999-12-30-5.32996-15.54004-8.48999-47.88989-14-61-5.52002-13.1001-16.28003-29.97998-19-35-2.72998-5.01001-3.91003-26.42993-7-40-3.09998-13.56006-9.91003-36.17993-10-42-.08997-5.81006,4.89001-5.98999,3-26C63.38947,31.67663,39.73957,8.72668,29.27948,3.67663,20.57299-.521,8.97165,.25625,1.92441,.00127,.70997-.04268-.2151,1.06449,.04367,2.25186L17.69966,83.26768c.09852,.45206,.34048,.84792,.62335,1.21404Z"/>
</svg>