<?xml version="1.0" encoding="UTF-8"?>
<svg id="Layer_1" data-name="Layer 1" xmlns="http://www.w3.org/2000/svg" width="90.75105" height="471.30384" viewBox="0 0 90.75105 471.30384">
  <defs>
    <style>
      .cls-1 {
        fill: #fff;
        fill-rule: evenodd;
      }
    </style>
  </defs>
  <path class="cls-1" d="M90.67256,25.38981c-.09556-1.33761-.35862-2.18376-.6541-2.75261-.16563-.31887-.45642-.55032-.80471-.6387L2.76095,.06072C1.56328-.24319,.38752,.63028,.3449,1.86517-.28768,20.19472-.14254,41.30335,1.56257,55.7399c2.85999,24.08008,12.47009,52.21997,16,76,2.13,14.30005,8.27002,22.8501,10,29,1.73999,6.16016,.09998,14.27002,0,23-.08997,8.72998,2.10999,8.81006,1,17-1.10999,8.2002-5.41003,17.3501-8,32-2.57996,14.66016,.27002,32.81006,7,56,6.73999,23.18994,13.28003,39.36011,18,55,4.72998,15.6499,7.66003,32.30005,9,39,1.27002,6.31006,2.48999,17.79004,.37,20.01001-2.71997,2.8501-9.80005,12.69019-11.88,16.13989-4.92004,8.21021-9.57996,10.17017-11.34998,15.34009-1.63,4.76001-6.32007,7.34009-3.55005,10.12012,2.26001,2.26001,4.55005,.68994,4.71997,.57007-.17993,.30981-3.30994,5.75977,.13013,7.71973,3.98999,2.26025,6.69995-.94971,6.98999-1.2998-.27002,.43994-3.59009,6.08984,.54993,8.37988,4.38,2.41992,7.9801-2.71997,8.59998-3.65991-.47998,1.09985-3.33997,7.97998,1.16003,9.71997,4.57996,1.78003,8.13-5.41992,8.75-6.73999-.45996,1.36011-2.83997,9.16992,3.44006,11.56006,10.70996,4.07007,11.53003-10.75,12.77002-12.83008,1.23999-2.07983,4.16992-4.86987,5.29993-10.03003,1.14001-5.1499,.78992-11.46997,.78992-16.91992,0-10.41016,5.59009-8.5,1.21008-28.08008-1.27002-5.68994-.59998-5.31982,0-9,.60999-3.66992,1.28992-7.62988,0-12-1.27991-4.35986-.87-3.8501-2-10-1.12-6.13989-1.58997-47.28003,0-59,1.59998-11.71997,6.10999-31.48999,6-46-.09998-14.5-7.02991-39.31982-8.25-47.67993-1.26001-8.65991-3.02002-14.13013-1.75-20.32007,1.28003-6.17993,1.22009-9.13989,3-14,1.51001-4.08008,3.02002-14.1499,1-25-3.37-18.12988,3.83997-42.1499,6.64001-61.16992,2.82007-19.25,2.80005-41.27002,2.34998-54.12012-.45007-12.84985,1.62-12.52979,1.12-19.06006Z"/>
</svg>