<?xml version="1.0" encoding="UTF-8"?>
<svg id="Layer_1" data-name="Layer 1" xmlns="http://www.w3.org/2000/svg" width="509.18191" height="989.82715" viewBox="0 0 509.18191 989.82715">
  <defs>
    <style>
      .cls-1 {
        fill: #fff;
        fill-rule: evenodd;
      }
    </style>
  </defs>
  <path class="cls-1" d="M282.87041,989.82715c-10.4707,.00098-13.31152-11.31836-14.38086-15.58008-.08048-.32111-.17924-.71599-.2619-1.02408-.03191-.11895-.07981-.22135-.15091-.32191-.16331-.23097-.35915-.49703-.55106-.75851-1.60254-2.17969-4.02441-5.47461-5.14941-10.59082-1.06934-4.86719-1.00781-10.3418-.95312-15.17188,.01172-1.03418,.02344-2.05176,.02344-3.04004,0-2.77051-.47754-4.17871-1.1377-6.12695-1.75-5.16602-2.85645-10.1582,.07227-23.25781,.68945-3.08398,.64453-3.28125,.39941-4.37598-.12598-.56348-.2998-1.33496-.46484-2.3457l-.02539-.15625c-.65039-3.95996-1.45996-8.8877,.18945-14.50391,.72168-2.45703,.80273-2.98242,1.07129-4.72559,.16211-1.05176,.37598-2.43555,.7832-4.66309,.92188-5.04102,1.57812-45.22852-.04297-57.11035-.44824-3.28906-1.15625-7.36621-1.90723-11.68262-1.88281-10.84082-4.22754-24.33203-4.14746-35.17188,.0791-10.62109,3.48535-25.94727,5.97266-37.13867,1.07031-4.81836,1.99512-8.97949,2.34277-11.36523,.33105-2.26562,.69629-4.33691,1.01953-6.16504,.91113-5.1582,1.5127-8.56641,.78906-12.07422-.4707-2.28125-.76758-4.12891-1.02832-5.75879-.45996-2.86719-.76367-4.76172-1.72754-7.38477-2.08105-5.66406-3.36523-16.89453-1.2666-28.16797,2.26367-12.16016-.77734-27.73438-3.71875-42.7959-1.12305-5.74902-2.18262-11.17871-2.9502-16.40625-.0119-.0812-.02375-.16244-.03556-.24372-.17589-1.21126-1.90925-1.21126-2.08514,0-.0118,.08128-.02365,.16252-.03556,.24372-.76758,5.22949-1.82812,10.66113-2.95117,16.41211-2.94043,15.05957-5.98145,30.63184-3.71777,42.79004,2.09863,11.27344,.81445,22.50391-1.2666,28.16797-.96289,2.62109-1.2666,4.51465-1.72559,7.37988-.26172,1.63086-.55859,3.48047-1.03027,5.76465-.72363,3.50684-.12207,6.91504,.78906,12.07324,.32324,1.82812,.68848,3.89941,1.01953,6.16504,.34766,2.38574,1.27246,6.54688,2.34375,11.36426,2.4873,11.19141,5.89355,26.51758,5.97168,37.13965,.08008,10.83984-2.26465,24.33105-4.14746,35.17188-.75098,4.31641-1.45898,8.39355-1.90723,11.68262-1.62012,11.88379-.96484,52.07129-.04297,57.10938,.40723,2.22852,.62109,3.6123,.7832,4.66406,.26855,1.74316,.34961,2.26855,1.07129,4.72559,1.64941,5.61621,.83984,10.54395,.18945,14.50391l-.02539,.1582c-.16504,1.00879-.33887,1.78027-.46484,2.34375-.24512,1.09473-.29004,1.29199,.39941,4.37598,2.92871,13.09961,1.82227,18.0918,.07227,23.25781-.66016,1.94824-1.1377,3.35645-1.1377,6.12695,0,.98828,.01172,2.00586,.02344,3.04004,.05469,4.83008,.11621,10.30469-.95312,15.17188-1.125,5.11621-3.54688,8.41113-5.14941,10.59082-.19175,.26127-.38743,.52711-.55066,.75795-.07136,.10092-.11933,.2038-.15123,.32321-.08206,.30714-.18079,.70086-.26198,1.02235-1.06934,4.26074-3.91016,15.58008-14.37891,15.58105-1.78418,.00098-3.6582-.36719-5.57129-1.09473-2.25079-.85503-4.10602-2.21057-5.47542-3.9822-.24881-.32189-.64955-.46634-1.04751-.38181-.66206,.14062-1.35475,.21753-2.07765,.21753-1.2334,0-2.4541-.23145-3.63086-.6875-2.22172-.86265-3.99373-2.42915-5.08244-4.46891-.17803-.33355-.50539-.54717-.88257-.57335-1.56467-.10859-3.08467-.56509-4.52816-1.36203-2.20783-1.2193-3.82225-3.12416-4.60889-5.41649-.11095-.32332-.35865-.57184-.68351-.67819-.7793-.25513-1.54784-.59697-2.30135-1.02446-2.15723-1.22461-3.69043-3.20996-4.31836-5.59082-.16987-.64536-.26704-1.29194-.30668-1.929-.01947-.31287-.16951-.59376-.41796-.78492-.37638-.28958-.73985-.60923-1.08884-.95894-5.30566-5.30664-1.23145-11.07324,.30273-13.24414,.75586-1.07031,1.4707-2.08203,1.80469-3.05762,1.32422-3.86816,3.67773-6.4082,5.9541-8.86523,1.90137-2.05176,3.86719-4.17285,5.93457-7.61719,2.03031-3.38354,8.41096-12.313,11.83437-16.26175,.13249-.15282,.21831-.32828,.24366-.52894,.32499-2.57195-.11415-9.17563-1.30362-15.09016-.2002-1-.43555-2.2168-.70605-3.61621-1.5752-8.14648-4.21191-21.78125-8.1543-34.83105-1.96289-6.49609-4.29492-13.23633-6.76465-20.37207-3.43066-9.91406-7.31934-21.15137-11.25391-34.68848-7.53125-25.91992-9.73633-44.02832-7.14746-58.71582,1.44824-8.21289,3.44629-14.875,5.05176-20.22852,1.32031-4.40332,2.46094-8.20605,2.91211-11.53516,.47949-3.54395,.22656-4.85352-.19238-7.02148-.40527-2.10156-.91113-4.7168-.8623-9.23926,.03418-3.05176,.23828-5.93848,.43555-8.72949,.34473-4.86328,.66992-9.45605-.20996-12.5752-.44824-1.58691-1.41992-3.70117-2.5459-6.14844-2.56055-5.56641-6.06738-13.19043-7.61426-23.59863-1.60156-10.77734-4.45312-22.3457-7.47168-34.59375-3.43262-13.92676-6.98242-28.32812-8.55176-41.58301-2.90625-24.54199-1.40039-67.73242,.87109-85.53125,1.2832-10.05371,4.28125-20.85742,6.92578-30.3877,2.35059-8.47266,4.57129-16.47559,5.19434-22.41309,.94336-8.99121,1.4873-13.72949,2.06348-18.74707,.28711-2.50293,.58203-5.07715,.94043-8.29102,.49609-4.45508,1.30566-7.61523,2.02051-10.40332,.94922-3.70605,1.76953-6.90625,1.94238-13.1084,.5166-18.53711-6.40723-41.88867-11.46289-58.93848-.83703-2.8228-1.60983-5.42979-2.28597-7.8035-.27784-.9754-1.63755-1.02778-1.99706-.07943-.00396,.01045-.00793,.02091-.01189,.03137-3.56543,9.39648-8.44922,22.26465-9.50391,25.71875-.51172,1.67676-.57812,3.07324-.66992,5.00684-.11035,2.31836-.24707,5.20312-1.29883,8.8877-.69141,2.4248-1.59375,4.59961-2.46484,6.70312-1.44141,3.47656-2.80273,6.76074-3.34668,11.35547-1.09863,9.29199-8.64355,34.30371-12.39844,43.55176-2.56934,6.32715-14.69824,23.67871-29.09863,44.01855-4.84473,6.84375-9.02832,12.75391-10.37402,14.90527l-.20801,.33203c-2.27051,3.61816-3.57422,6.13184-3.875,7.47168-.38965,1.73438-.76465,4.47754-.59277,11.6748,.09473,3.96973-.32129,9.28027-.84863,16.00293-.23535,3.00391-.49316,6.28418-.73242,9.81641-.35938,5.2998-1.25391,8.46484-2.11914,11.52539-.25488,.90137-.51758,1.82812-.77539,2.85547-.92383,3.68164-1.86035,7.95117-2.47949,10.77637l-.56445,2.58789c-.54199,2.52246-1.15527,5.38086-2.27441,8.06543-1.22656,2.93945-2.00586,4.32617-3.87793,7.26953-1.69727,2.66699-4.54102,4.25879-7.60645,4.25977-1.11282,0-2.19671-.20638-3.20185-.59588-.55508-.2151-1.17643,.06804-1.3748,.62931-.24468,.69234-.42661,1.21978-.50343,1.47145l-.16602,.54785c-.57324,1.90137-1.28711,4.2666-3.36426,8.62402-1.80859,3.79297-5.08691,6.05664-8.77051,6.05762-2.41895,0-4.74902-1.04102-6.39258-2.85645-.1377-.15234-.27051-.30859-.39746-.46973-1.77051,2.08789-4.33984,3.30078-7.2207,3.30176-2.9082,0-5.7627-1.2832-7.63574-3.43359-1.7334-1.98828-2.49219-4.49512-2.1377-7.05957,.05957-.43555,.12598-.85938,.19629-1.27344-.75391,.20312-1.54004,.30859-2.34863,.30859-2.69238,.00098-5.36328-1.20215-7.32812-3.2998-1.875-2.00098-2.85547-4.57812-2.69238-7.07129,.20996-3.19629,1.09961-7.30859,2.50684-11.57812,.67578-2.0498,1.4834-4.99316,2.26367-7.83984,.56543-2.05859,1.13379-4.12891,1.67969-5.98047,.69531-2.35449,1.51172-4.37891,2.23242-6.16504,.80371-1.99414,1.49805-3.71484,1.95508-5.63574,.07715-.32617,.16113-.66309,.25098-1.00684-.25684,.18066-.52148,.37402-.80078,.57715-2.22266,1.61914-5.26758,3.83691-10.47949,3.85938-5.64844,0-9.85156-2.52734-11.04883-6.59668-.4082-1.38965-1.28613-6.21875,4.58203-9.99805,2.42188-1.55957,3.43945-2.51367,4.72754-3.72168,.70215-.6582,1.49805-1.4043,2.52637-2.24902,1.50488-1.2373,4.64941-6.11523,6.34863-9.84961,1.38867-3.05371,4.15137-6.09961,7.35059-9.625,1.95898-2.16016,3.98438-4.39258,5.40332-6.36816,2.85156-3.96973,6.68848-6.27832,9.77148-8.13281,1.18848-.71582,2.9834-1.7959,3.39355-2.30957,1.19629-1.57422,4.00293-7.02539,5.0166-9.41895l.91992-2.1709c3.92383-9.25488,7.98145-18.8252,10.92871-27.43359,2.36621-6.90625,4.38379-17.90723,6.33496-28.5459,2.3877-13.01465,4.64258-25.30762,7.81152-32.83789,4.30371-10.22559,11.65723-22.62402,16.0498-30.03223,1.38672-2.33887,2.58496-4.3584,3.20996-5.50684,1.00586-1.96094,2.17871-10.86426,3.03418-17.36523,.91504-6.94531,1.95215-14.81738,3.38672-21.10352,1.15918-5.07617,2.82812-11.39551,4.44238-17.50781,2.38867-9.04492,5.3623-20.30176,5.4082-23.25,.00977-.65332-.11621-1.0332-.71094-2.5127-1.45996-3.63281-3.66504-9.12305-2.26367-23.95898,2.21191-23.39648,28.5957-47.64258,39.36621-52.83887,8.38672-4.04688,18.45801-4.13672,25.81152-4.20215,2.75977-.02441,5.36719-.04785,6.70703-.29492,2.79395-.51562,7.36816-4.10645,11.40332-7.27539,2-1.57031,4.06934-3.19434,6.21094-4.71582,4.83203-3.43262,11.59863-6.94922,17.03711-9.77441,2.3627-1.22816,5.0278-2.61334,5.89745-3.1819,.07314-.04782,.13107-.09297,.18939-.15804,.8192-.91391,2.23118-4.47432,2.35651-7.26455,.08977-1.96931-.30234-6.32429-.68262-9.68582-.02502-.22121-.11333-.41475-.26347-.57912-1.81624-1.98852-4.61392-5.3152-6.37618-8.68233-2.06536-3.94803-3.03345-11.26584-3.43871-15.50641-.02471-.25853-.13729-.4856-.32808-.66179-1.88952-1.74485-4.72685-4.5031-7.47344-7.7107-5.62891-6.57422-7.49219-14.89453-5.24609-23.42969,.99646-3.78267,2.9103-5.80092,4.77359-6.87158,.35702-.20515,.53992-.60703,.47951-1.01434-1.09518-7.38359-1.8443-17.97555,.83089-26.40315,4.46777-14.07129,16.58594-27.53809,29.46973-32.74707,5.99023-2.42188,12.87012-3.70117,19.89453-3.70117s13.9043,1.2793,19.89355,3.70117c12.88477,5.20898,25.00293,18.6748,29.4707,32.74707,2.67519,8.42759,1.92607,19.01954,.83089,26.40313-.06042,.40734,.12252,.80924,.47959,1.01437,1.86342,1.07052,3.77794,3.08805,4.7735,6.87156,2.24609,8.53613,.38281,16.85645-5.24609,23.42969-2.74659,3.2076-5.58393,5.96585-7.47344,7.7107-.1908,.17619-.30338,.40327-.32808,.66179-.40526,4.24057-1.37335,11.55838-3.43871,15.50641-1.76226,3.36713-4.55994,6.69291-6.37618,8.68221-.15013,.16444-.23841,.35807-.26336,.57934-.3794,3.36432-.77156,7.72109-.68273,9.68571,.12445,2.76429,1.51226,6.28495,2.40333,7.29135,.06275,.07087,.12721,.1214,.20707,.17222,.93072,.59236,3.52561,1.94188,5.83296,3.14092,5.43848,2.8252,12.20508,6.3418,17.03711,9.77441,2.1416,1.52148,4.21094,3.14551,6.21094,4.71582,4.03516,3.16895,8.60938,6.75977,11.40332,7.27539,1.33984,.24707,3.94727,.27051,6.70703,.29492,7.35352,.06543,17.4248,.15527,25.81152,4.20117,10.77148,5.19824,37.15625,29.44434,39.36621,52.83984,1.40137,14.83594-.80371,20.32617-2.26367,23.95898-.59473,1.48047-.7207,1.85938-.71094,2.51172,.0459,2.94824,3.01758,14.19824,5.40527,23.23926,1.61523,6.11523,3.28613,12.44043,4.44531,17.51953,1.43457,6.28613,2.47168,14.1582,3.38672,21.10449,.85547,6.50098,2.02832,15.40332,3.03809,17.37012,.62012,1.14062,1.81543,3.15625,3.19922,5.49023,4.39551,7.41016,11.75098,19.8125,16.05664,30.04199,3.16992,7.53125,5.4248,19.82617,7.8125,32.84277,1.95117,10.6377,3.96875,21.63672,6.33398,28.54102,2.95117,8.61719,7.01172,18.19629,10.93945,27.45996l.90918,2.14453c1.01367,2.39453,3.82031,7.8457,5.01855,9.42188,.4082,.51172,2.20312,1.5918,3.3916,2.30762,3.08301,1.85449,6.91992,4.16309,9.77148,8.13184,1.41895,1.97656,3.44434,4.20898,5.40332,6.36914,3.19922,3.52539,5.96191,6.57129,7.35059,9.625,1.69922,3.73438,4.84375,8.6123,6.34766,9.84766,1.0293,.84668,1.8252,1.59277,2.52734,2.25098,1.28809,1.20801,2.30566,2.16211,4.72754,3.72168,5.86816,3.7793,4.99023,8.60742,4.58105,9.99805-1.19629,4.06836-5.39844,6.59668-10.9668,6.59668-5.29297-.02246-8.33789-2.24023-10.56055-3.85938-.27832-.20312-.54395-.39648-.80078-.57715,.08984,.34375,.17383,.67969,.25098,1.00586,.45703,1.9209,1.15137,3.6416,1.95508,5.63477,.71973,1.78711,1.53613,3.8125,2.23145,6.16602,.54688,1.85254,1.11523,3.92285,1.68066,5.98145,.78027,2.84668,1.58789,5.79004,2.26367,7.83984,1.40625,4.26855,2.29688,8.37891,2.50781,11.57617,.16309,2.49512-.81738,5.07129-2.69141,7.07227-1.96484,2.09766-4.63574,3.30078-7.3291,3.30078-.80762,0-1.59473-.10449-2.34863-.30859,.07031,.41406,.13672,.83887,.19629,1.27441,.35352,2.56445-.40527,5.07031-2.1377,7.05859-1.87305,2.14941-4.72754,3.43262-7.63477,3.43359-2.88184,0-5.45215-1.21387-7.22266-3.30176-.12695,.16016-.25977,.31641-.39746,.46875-1.64258,1.81543-3.97266,2.85645-6.3916,2.85742-3.68359,0-6.96289-2.26465-8.77148-6.05762-2.07715-4.35742-2.79102-6.72266-3.36426-8.62402l-.16602-.54883c-.07681-.25095-.25867-.77845-.50328-1.47049-.19839-.56129-.81981-.84441-1.37489-.62926-1.00484,.38947-2.08815,.59584-3.20093,.59584-3.06641,0-5.91016-1.5918-7.60645-4.25977-1.87305-2.94336-2.65234-4.33008-3.87793-7.26953-1.12012-2.68457-1.7334-5.54297-2.27539-8.06543l-.56445-2.58789c-.61914-2.8252-1.55566-7.09473-2.47949-10.77734-.25879-1.02832-.52148-1.95703-.77637-2.85938-.86426-3.05957-1.75781-6.22266-2.11816-11.51953-.23926-3.5332-.49707-6.81348-.73242-9.81738-.52734-6.72266-.94336-12.0332-.84863-16.00195,.17188-7.19824-.20312-9.94141-.59277-11.67383-.30078-1.3418-1.60449-3.85547-3.875-7.47363l-.20996-.33496c-1.34473-2.15039-5.53223-8.06543-10.38086-14.91406-14.39551-20.33496-26.52148-37.68164-29.08984-44.00781-3.75488-9.24707-11.2998-34.25879-12.39941-43.55176-.54297-4.59375-1.9043-7.87793-3.3457-11.35449-.87109-2.10352-1.77344-4.27832-2.46484-6.7041-1.05176-3.68359-1.18848-6.56836-1.29883-8.88672-.0918-1.93359-.1582-3.33008-.66992-5.00781-1.05469-3.45312-5.93652-16.31738-9.50098-25.71094-.00485-.0128-.0097-.02559-.01455-.03838-.3594-.94834-1.71915-.89577-1.997,.07958-.67656,2.37496-1.45002,4.98349-2.28728,7.80841-5.05469,17.04883-11.97852,40.39746-11.46191,58.93457,.17285,6.20117,.99316,9.40137,1.94238,13.10645,.71484,2.78906,1.52441,5.94922,2.02051,10.4043,.3584,3.21387,.65332,5.78809,.94043,8.29102,.57617,5.01758,1.12012,9.75586,2.06348,18.74707,.62305,5.9375,2.84375,13.94043,5.19434,22.41309,2.64453,9.53027,5.64258,20.33398,6.92578,30.3877,2.27148,17.80078,3.77832,60.99316,.87109,85.53125-1.57031,13.25684-5.11914,27.65918-8.55273,41.58691-3.01758,12.24707-5.86914,23.81445-7.4707,34.58887-1.54688,10.40918-5.05371,18.0332-7.61426,23.59961-1.12598,2.44727-2.09766,4.56152-2.5459,6.14844-.87988,3.11914-.55469,7.71191-.20996,12.5752,.19727,2.79102,.40137,5.67773,.43555,8.72949,.04883,4.52246-.45703,7.1377-.8623,9.23926-.41895,2.16797-.67188,3.47754-.19238,7.02051,.45117,3.33008,1.5918,7.13281,2.91211,11.53613,1.60547,5.35352,3.60352,12.01562,5.05176,20.22852,2.58887,14.6875,.38379,32.7959-7.14746,58.71484-3.93457,13.53809-7.82324,24.77539-11.25391,34.68945-2.46973,7.13574-4.80176,13.87598-6.76465,20.37207-3.94238,13.0498-6.5791,26.68457-8.1543,34.83105-.27051,1.39941-.50586,2.61621-.70605,3.61523-1.18947,5.91546-1.62861,12.51917-1.30362,15.09113,.02536,.20067,.11118,.37614,.24368,.52896,3.42428,3.94961,9.80403,12.87818,11.83436,16.26077,2.06738,3.44531,4.0332,5.56641,5.93457,7.61816,2.27637,2.45703,4.62988,4.99707,5.9541,8.86426,.33398,.97559,1.04883,1.9873,1.80469,3.05762,1.53418,2.1709,5.60938,7.93945,.30273,13.24609-.34866,.34866-.71179,.66786-1.0878,.95678-.24901,.19134-.39926,.47273-.41864,.78616-.03943,.63736-.13721,1.28376-.30703,1.92893-.62793,2.38086-2.16113,4.36621-4.31738,5.58984-.75431,.4283-1.52301,.77029-2.30234,1.02544-.32485,.10636-.57255,.35487-.68349,.67818-.78664,2.29234-2.40099,4.19719-4.60792,5.4165-1.44435,.79694-2.96445,1.25344-4.52914,1.36203-.37718,.02618-.70454,.2398-.88257,.57335-1.08871,2.03976-2.8608,3.60626-5.08341,4.46892-1.17383,.45605-2.39551,.6875-3.62793,.6875-.72363,0-1.4165-.0769-2.07903-.21753-.39833-.08455-.79939,.06009-1.04844,.38226-1.36936,1.77142-3.22447,3.1268-5.47508,3.98176-1.91211,.72656-3.78516,1.09473-5.56934,1.09473Z"/>
</svg>