<?xml version="1.0" encoding="UTF-8"?>
<svg id="Layer_1" data-name="Layer 1" xmlns="http://www.w3.org/2000/svg" width="90.75105" height="471.30384" viewBox="0 0 90.75105 471.30384">
  <defs>
    <style>
      .cls-1 {
        fill: #fff;
        fill-rule: evenodd;
      }
    </style>
  </defs>
  <path class="cls-1" d="M1.19848,44.44986c-.45007,12.8501-.47009,34.87012,2.34998,54.12012,2.80005,19.02002,10.01001,43.04004,6.64001,61.16992-2.02002,10.8501-.51001,20.91992,1,25,1.77991,4.86011,1.71997,7.82007,3,14,1.27002,6.18994-.48999,11.66016-1.75,20.32007-1.22009,8.36011-8.15002,33.17993-8.25,47.67993-.10999,14.51001,4.40002,34.28003,6,46,1.58997,11.71997,1.12,52.86011,0,59-1.13,6.1499-.72009,5.64014-2,10-1.28992,4.37012-.60999,8.33008,0,12,.59998,3.68018,1.27002,3.31006,0,9-4.38,19.58008,1.21008,17.66992,1.21008,28.08008,0,5.44995-.3501,11.77002,.78992,16.91992,1.13,5.16016,4.05994,7.9502,5.29993,10.03003,1.23999,2.08008,2.06006,16.90015,12.77002,12.83008,6.28003-2.39014,3.90002-10.19995,3.44006-11.56006,.62,1.32007,4.17004,8.52002,8.75,6.73999,4.5-1.73999,1.64001-8.62012,1.16003-9.71997,.61987,.93994,4.21997,6.07983,8.59998,3.65991,4.14001-2.29004,.81995-7.93994,.54993-8.37988,.29004,.3501,3,3.56006,6.98999,1.2998,3.44006-1.95996,.31006-7.40991,.13013-7.71973,.16992,.11987,2.45996,1.68994,4.71997-.57007,2.77002-2.78003-1.92004-5.36011-3.55005-10.12012-1.77002-5.16992-6.42993-7.12988-11.34998-15.34009-2.07996-3.44971-9.16003-13.28979-11.88-16.13989-2.12-2.21997-.90002-13.69995,.37-20.01001,1.33997-6.69995,4.27002-23.3501,9-39,4.71997-15.63989,11.26001-31.81006,18-55,6.72998-23.18994,9.57996-41.33984,7-56-2.58997-14.6499-6.89001-23.7998-8-32-1.10999-8.18994,1.08997-8.27002,1-17-.09998-8.72998-1.73999-16.83984,0-23,1.72998-6.1499,7.87-14.69995,10-29,3.52991-23.78003,13.14001-51.91992,16-76,1.70511-14.43655,1.85025-35.54518,1.21767-53.87474-.04262-1.23489-1.21838-2.10836-2.41605-1.80445L1.5373,21.9985c-.34829,.08838-.63907,.31982-.80471,.6387-.29548,.56885-.55855,1.415-.6541,2.75261-.5,6.53027,1.57007,6.21021,1.12,19.06006Z"/>
</svg>