<?xml version="1.0" encoding="UTF-8"?>
<svg id="Layer_1" data-name="Layer 1" xmlns="http://www.w3.org/2000/svg" width="100.76524" height="134.69265" viewBox="0 0 100.76524 134.69265">
  <defs>
    <style>
      .cls-1 {
        fill: #fff;
        fill-rule: evenodd;
      }
    </style>
  </defs>
  <path class="cls-1" d="M32.73351,3.26248C21.9735,7.62259,10.76354,19.58255,6.73351,32.26248c-4.02002,12.68994,1,32,1,32,0,0-5.23999-4.65991-7,2-1.75,6.66016-.34998,12.91992,4,18,4.35999,5.08008,9,9,9,9,0,0,.73999,11.66992,3,16,2.27002,4.33008,7,9,7,9,0,0,1.18005,9.11011,1,13-.01347,.34761-.0429,.7123-.08714,1.08984-.14544,1.2414,.80678,2.34032,2.05667,2.34032h47.35916c1.24989,0,2.20212-1.09892,2.05667-2.34032-.04423-.37755-.07367-.74223-.08714-1.08984-.18005-3.88989,1-13,1-13,0,0,4.72998-4.66992,7-9,2.26001-4.33008,3-16,3-16,0,0,4.64001-3.91992,9-9,4.34998-5.08008,5.75-11.33984,4-18-1.76001-6.65991-7-2-7-2,0,0,5.02002-19.31006,1-32-4.03003-12.67993-15.23999-24.63989-26-29-10.77002-4.34998-24.52821-4.34998-35.29822,0Z"/>
</svg>