<?xml version="1.0" encoding="UTF-8"?>
<svg id="Layer_1" data-name="Layer 1" xmlns="http://www.w3.org/2000/svg" width="187.14558" height="390.7066" viewBox="0 0 187.14558 390.7066">
  <defs>
    <style>
      .cls-1 {
        fill: #fff;
        fill-rule: evenodd;
      }
    </style>
  </defs>
  <path class="cls-1" d="M97.63076,390.07196c.29456-.11136,.51198-.1739,.89107-.28217l86.1509-21.87275c1.51177-.38382,2.54275-1.78283,2.46915-3.34083-.44028-9.32127-1.07755-17.49509-1.78997-23.06645-2.3501-18.44995-10.71997-39.47998-12.13-52.93994-1.42004-13.44995-1.93005-17.3501-3-27-1.07996-9.63989-3.67004-12.18994-4-24.01001-.78003-27.97998,14.35999-65.72998,16.29993-78.05981,1.94006-12.33008,1.79004-25.3501,1.70007-32.93018-.06995-4.94995,.87531-7.9559,.57996-9.43994v-.01001l-18.07819-82.96211c-.23522-1.07945-1.00688-1.94119-2.02903-2.36042-5.3042-2.17545-11.26959-7.80822-17.47273-12.22753-7.22009-5.11987-20.19006-11.03003-23-13-1.26077-.88321-2.36187-2.59848-3.20452-4.57796C120.50343,.78453,119.31833,0,118.00616,0h-48.86674c-1.31217,0-2.49727,.78453-3.01122,1.99186-.84265,1.97948-1.94375,3.69475-3.20452,4.57796-2.80994,1.96997-15.77991,7.88013-23,13-6.20314,4.4193-12.16853,10.05207-17.47273,12.22753-1.02215,.41922-1.79381,1.28097-2.02903,2.36042L2.34372,117.11987v.01001c-.29536,1.48404,.6499,4.48999,.57996,9.43994-.08997,7.58008-.23999,20.6001,1.70007,32.93018,1.93994,12.32983,17.07996,50.07983,16.29993,78.05981-.32996,11.82007-2.92004,14.37012-4,24.01001-1.06995,9.6499-1.57996,13.55005-3,27-1.41003,13.45996-9.77991,34.48999-12.13,52.93994-.71242,5.57136-1.34969,13.74519-1.78997,23.06645-.07359,1.55799,.95739,2.95701,2.46915,3.34083l86.1509,21.87275c.37909,.10827,.59652,.17081,.89107,.28217,2.23831,.84618,5.87762,.84618,8.11593,0Z"/>
</svg>