<?xml version="1.0" encoding="UTF-8" standalone="no"?>
<svg
   id="Layer_1"
   data-name="Layer 1"
   width="90"
   height="90"
   viewBox="0 0 90 90"
   version="1.1"
   sodipodi:docname="active_matter_balance_icon.svg"
   inkscape:export-filename="active_matter_balance_icon.svg"
   inkscape:export-xdpi="96"
   inkscape:export-ydpi="96"
   inkscape:version="1.1.2 (b8e25be833, 2022-02-05)"
   xmlns:inkscape="http://www.inkscape.org/namespaces/inkscape"
   xmlns:sodipodi="http://sodipodi.sourceforge.net/DTD/sodipodi-0.dtd"
   xmlns="http://www.w3.org/2000/svg"
   xmlns:svg="http://www.w3.org/2000/svg">
  <sodipodi:namedview
     id="namedview12"
     pagecolor="#ffffff"
     bordercolor="#000000"
     borderopacity="0.25"
     inkscape:showpageshadow="2"
     inkscape:pageopacity="0.0"
     inkscape:pagecheckerboard="true"
     inkscape:deskcolor="#d1d1d1"
     inkscape:pageshadow="2"
     showgrid="false"
     inkscape:zoom="9.7"
     inkscape:cx="63.608247"
     inkscape:cy="61.649485"
     inkscape:window-width="3840"
     inkscape:window-height="2066"
     inkscape:window-x="-11"
     inkscape:window-y="-11"
     inkscape:window-maximized="1"
     inkscape:current-layer="Layer_1" />
  <defs
     id="defs1">
    <style
       id="style1">
      .cls-1 {
        fill: #231f20;
        stroke-width: 0px;
      }
    </style>
  </defs>
  <path
     class="cls-1"
     d="M 63.350243,58.483877 H 26.340371 c -0.262381,0 -0.426259,-0.284025 -0.295068,-0.511201 L 44.561945,25.933689 c 0.13119,-0.227044 0.45899,-0.227044 0.590048,1.76e-4 l 18.49323,32.038987 c 0.131191,0.227044 -0.03092,0.511025 -0.295068,0.511025 z M 2.4649883,57.97272 32.772021,5.5137677 c 0.131191,-0.2270436 0.458991,-0.2270436 0.590093,8.83e-5 l 5.781307,10.014963 c 0.06096,0.105571 0.06096,0.235437 0,0.340566 l -24.50174,42.444033 c -0.06087,0.10557 -0.173331,0.170503 -0.295069,0.170503 H 2.7600125 c -0.262337,0 -0.4262148,-0.284025 -0.2950242,-0.511157 z M 14.254911,78.392905 20.03613,68.378075 c 0.06087,-0.105571 0.173331,-0.170504 0.295069,-0.170504 H 69.35908 c 0.121915,0 0.234111,0.06493 0.295069,0.170504 l 5.781218,10.01483 c 0.131191,0.227044 -0.03092,0.511025 -0.295068,0.511025 H 14.550024 c -0.262249,0 -0.426171,-0.284025 -0.295068,-0.511025 z M 50.571179,15.528819 56.352354,5.5140769 c 0.13119,-0.2270436 0.45899,-0.2270436 0.590136,0 L 87.225556,57.972852 c 0.13119,0.227044 -0.03092,0.511025 -0.295069,0.511025 H 75.368005 c -0.121914,0 -0.234111,-0.06493 -0.295068,-0.170504 L 50.571179,15.869341 c -0.06096,-0.105571 -0.06096,-0.235437 0,-0.340566 z"
     id="path30"
     style="fill:#ffffff;stroke-width:0px" />
</svg>
