<svg width="16" height="29" viewBox="0 0 16 29" fill="none" xmlns="http://www.w3.org/2000/svg">
<path fill-rule="evenodd" clip-rule="evenodd" d="M1 26L8 29L15 26L16 18L13 7V16L10 14L8 0L6 14L3 16V7L0 18L1 26ZM14 18.0416L8 15L2 18.0416V24.9584L8 28L14 24.9584V18.0416ZM2.85714 24.1V18.9L7.57143 21.502V26.7L2.85714 24.1ZM8.42857 26.7V21.502L10.3571 20.4167V22.8L11.2143 22.3667V19.9833L13.1429 18.9V24.5333L8.42857 26.7ZM10.7857 19.1167L12.5 18.25L8 15.8667L6.28571 16.7333L10.7857 19.1167ZM9.71429 19.7667L5.21429 17.3833L3.5 18.25L8 20.6333L9.71429 19.7667Z" fill="white"/>
</svg>
