<?xml version="1.0" encoding="UTF-8"?>
<svg id="Layer_1" data-name="Layer 1" xmlns="http://www.w3.org/2000/svg" width="90" height="16.65322" viewBox="0 0 90 16.65322">
  <defs>
    <style>
      .cls-1 {
        fill: #fff;
        stroke-width: 0px;
      }
    </style>
  </defs>
  <g>
    <path class="cls-1" d="M5.24093,12.00847h-1.18936l-.40434-1.14161H1.55413l-.40434,1.14161H0l2.06944-5.54977h1.11021l2.06127,5.54977ZM3.27472,9.82031l-.67404-1.95072-.67404,1.95072h1.34808Z"/>
    <path class="cls-1" d="M15.14014,12.00847h-1.13387v-4.45591h-1.60962v-1.09387h4.35267v1.09387h-1.60918v4.45591Z"/>
    <path class="cls-1" d="M19.82134,12.00847h-1.13387v-5.54977h1.13387v5.54977Z"/>
    <path class="cls-1" d="M24.01271,10.45435l1.36357-3.99565h1.15796l-1.97438,5.54977h-1.14979l-1.96621-5.54977h1.20528l1.36357,3.99565Z"/>
    <path class="cls-1" d="M29.26591,9.70116v1.22893h2.74306v1.07838h-3.87693v-5.54977h3.87693v1.07795h-2.74306v1.11796h2.3628v1.04655h-2.3628Z"/>
    <path class="cls-1" d="M60.8932,10.37484l1.81566-3.9165h1.00698v5.54977h-1.0943v-3.20331l-1.49046,3.20331h-.56306l-1.47455-3.17148v3.17148h-1.0943v-5.54977h1.07838l1.81566,3.9165Z"/>
    <path class="cls-1" d="M70.17486,12.00812h-1.18936l-.40434-1.14161h-2.0931l-.40434,1.14161h-1.14979l2.06944-5.54977h1.11021l2.06127,5.54977ZM68.20866,9.81995l-.67404-1.95072-.67404,1.95072h1.34808Z"/>
    <polygon class="cls-1" points="78.83498 6.45798 78.83498 7.5527 77.22565 7.5527 77.22565 12.00852 76.09115 12.00852 76.09115 7.5527 72.91869 7.5527 72.91869 12.00852 71.7842 12.00852 71.7842 7.5527 70.17486 7.5527 70.17486 6.45798 78.83498 6.45798"/>
    <path class="cls-1" d="M81.49202,9.7008v1.22893h2.74306v1.07838h-3.87693v-5.54977h3.87693v1.07795h-2.74306v1.11796h2.3628v1.04655h-2.3628Z"/>
    <path class="cls-1" d="M88.69192,12.00812l-1.11021-1.99804h-.73727v1.99804h-1.13387v-5.54977h2.25183c.35401,0,.67404.07657.95923.2297.28562.15356.51016.36606.67404.63834s.24561.58027.24561.92353c0,.35444-.10281.67275-.30928.95536-.20604.28304-.48607.49295-.84008.6306l1.30808,2.17225h-1.30808ZM86.84443,7.5363v1.44315h1.08612c.22196,0,.40692-.06753.55489-.20217s.22239-.30799.22239-.51919c0-.21163-.07442-.38455-.22239-.51962-.14797-.13464-.33293-.20217-.55489-.20217h-1.08612Z"/>
    <path class="cls-1" d="M8.92798,10.99597c-.97272,0-1.76346-.79074-1.76346-1.76346s.79074-1.76346,1.76346-1.76346c.48828,0,.93172.19993,1.25083.52161l.79971-.79458c-.52416-.52801-1.25082-.85482-2.05054-.85482-1.59429,0-2.89126,1.29696-2.89126,2.89126s1.29696,2.89126,2.89126,2.89126c.79972,0,1.52637-.32681,2.05054-.85482l-.79971-.79458c-.31911.32167-.76254.5216-1.25083.5216Z"/>
  </g>
  <path class="cls-1" d="M49.1873,12.03036h-8.3786c-.05939,0-.0965-.06431-.06678-.11573l4.19195-7.25325c.02971-.0514.10391-.05138.13358.00004l4.18665,7.25325c.02968.05142-.00743.11569-.0668.11569ZM35.40359,11.91464L42.26475.03855c.0297-.05141.10391-.05139.13359.00002l1.30882,2.26727c.01378.02386.01377.05326,0,.07712l-5.54691,9.60883c-.01378.02387-.03924.03857-.0668.03857h-2.62307c-.05939,0-.09649-.0643-.06679-.11572ZM38.07269,16.53753l1.3088-2.26724c.01378-.02387.03924-.03857.0668-.03857h11.09934c.02756,0,.05302.0147.0668.03857l1.3088,2.26724c.02968.05142-.00743.11569-.0668.11569h-13.71693c-.05937,0-.09648-.06427-.0668-.11569ZM46.29427,2.30584L47.60306.03862c.02969-.05143.10391-.05143.1336,0l6.85573,11.87605c.02968.05142-.00743.11569-.0668.11569h-2.61761c-.02756,0-.05302-.0147-.0668-.03857l-5.54691-9.60883c-.01378-.02386-.01378-.05326,0-.07712Z"/>
</svg>