<svg xmlns="http://www.w3.org/2000/svg" width="128" height="128" viewBox="0 0 128 128">
  <defs>
    <style>
      .cls-1 {
        fill: #e0e0e0;
        fill-rule: evenodd;
      }
    </style>
  </defs>
  <path id="ammunition" class="cls-1" d="M3.921,120.036V39.042A14.983,14.983,0,0,1,18.887,24.076H29.424V17.605a9.652,9.652,0,0,1,9.642-9.642h49.87a9.652,9.652,0,0,1,9.641,9.642v6.471h10.537a14.983,14.983,0,0,1,14.966,14.966v80.994H3.921ZM92.576,17.605a3.645,3.645,0,0,0-3.641-3.642H39.065a3.646,3.646,0,0,0-3.642,3.642v5.446H92.576V17.605Zm25.5,21.437a8.976,8.976,0,0,0-8.966-8.966H18.887a8.977,8.977,0,0,0-8.966,8.966v65.015H118.079V39.042ZM39.458,65.462V78.219H17.022V65.462c0-14.148,11.218-27.928,11.218-27.928S39.458,51.5,39.458,65.462Zm0,33.51H17.022V84.784H39.458V98.972Zm35.76-33.51V78.219H52.782V65.462C52.782,51.314,64,37.534,64,37.534S75.218,51.5,75.218,65.462Zm0,33.51H52.782V84.784H75.218V98.972ZM99.76,37.534s11.218,13.97,11.218,27.928V78.219H88.542V65.462c0-14.148,11.218-27.928,11.218-27.928h0Zm11.218,61.438H88.542V84.784h22.436V98.972Z"/>
</svg>
