<svg xmlns="http://www.w3.org/2000/svg" width="128" height="128" viewBox="0 0 128 128">
  <defs>
    <style>
      .cls-1 {
        fill: #e0e0e0;
        fill-rule: evenodd;
      }
    </style>
  </defs>
  <path id="armor_" data-name="armor " class="cls-1" d="M57.117,123.482c-24.812,0-52.177-5.439-52.177-5.439v-58.8c9.517-.68,11.73-7.818,11.73-7.818L20.408,4.018H40.8s-0.68,17.835,5.1,28.031S61.706,41.4,61.706,41.4h4.589S76.321,42.247,82.1,32.05,87.2,4.018,87.2,4.018h20.394l3.738,47.406s2.213,7.138,11.73,7.818v58.8s-27.365,5.439-52.177,5.439H57.117Zm42.927-43.847a380.692,380.692,0,0,1-72.023,0q0-8.668,0-17.335a380.658,380.658,0,0,0,72.023,0V79.635Zm0,28.551a380.542,380.542,0,0,1-72.023,0q0-8.667,0-17.334a380.692,380.692,0,0,0,72.023,0v17.334Z"/>
</svg>
