<svg width="52" height="52" viewBox="0 0 52 52" fill="none" xmlns="http://www.w3.org/2000/svg">
<g clip-path="url(#clip0_1538_104308)">
<path fill-rule="evenodd" clip-rule="evenodd" d="M14.5075 9.99126L11.9742 4.78248C11.8409 4.51168 11.8323 4.21125 11.9269 3.94891C12.0172 3.6908 12.2065 3.46654 12.4817 3.33113L15.7591 1.76131L15.7677 1.75708C16.043 1.63014 16.3441 1.6259 16.6151 1.71476C16.8817 1.80362 17.1097 1.9898 17.2387 2.25214L17.243 2.26061L19.5656 7.07587C18.4473 7.44823 16.5075 8.26064 14.5075 9.99126ZM41.7548 3.3269C41.6946 3.1915 41.6086 3.08149 41.5011 2.99686C41.2344 2.51449 40.8215 2.10405 40.2839 1.85017L37.0065 0.280339L36.9806 0.267645C36.2968 -0.0497057 35.5398 -0.0708624 34.8731 0.153399C34.2022 0.381891 33.6172 0.860032 33.2817 1.53282V1.53705L33.2774 1.54551L33.2688 1.5582L30.843 6.58503C29.2989 6.15767 27.6731 5.92918 25.9957 5.92918C24.3269 5.92918 22.7097 6.15344 21.1742 6.57657L18.7527 1.55397L18.7398 1.52858C18.4043 0.851569 17.8194 0.37766 17.1484 0.149167C16.4817 -0.0750938 15.7247 -0.0539371 15.0409 0.263413L15.0151 0.276107L11.7376 1.84593C11.2043 2.10405 10.7914 2.51025 10.5247 2.99263C10.3914 3.09841 10.2839 3.25074 10.2366 3.42846C9.74624 5.20985 9.49247 7.31706 9.49247 9.44542C9.49247 11.4257 9.71183 13.4398 10.1677 15.2297C8.7871 17.7346 8 20.595 8 23.6331V47.9421C8 49.0592 8.46452 50.0705 9.2129 50.811C9.95699 51.543 10.9849 52 12.1204 52H39.8581C40.9978 52 42.0344 51.5388 42.7828 50.8025C43.5355 50.0663 44 49.0465 44 47.9252V23.6373C44 20.6119 43.2215 17.76 41.8495 15.2635C42.3527 13.1902 42.6624 10.8968 42.6624 8.74725C42.6624 6.74582 42.3914 4.84595 41.7548 3.3269ZM13.2258 11.1887C12.5892 11.8192 12 12.4962 11.4667 13.2155C11.2731 12.0054 11.1785 10.7233 11.1742 9.44542C11.1742 8.68378 11.2086 7.92214 11.2774 7.18165L13.2258 11.1887ZM40.9763 8.74725C40.9763 10.224 40.8215 11.7684 40.5548 13.2494C40.0172 12.5258 39.428 11.8404 38.7914 11.2057L40.886 6.89392C40.9462 7.49054 40.9763 8.10832 40.9763 8.74725ZM40.0559 4.78248L37.5226 9.99126C35.5226 8.26064 33.5828 7.44823 32.4688 7.0801L34.7914 2.26484V2.26061L34.7957 2.25637C34.9247 1.99403 35.1527 1.80785 35.4194 1.71899C35.6903 1.6259 35.9957 1.63437 36.2667 1.76131L36.2753 1.76554L39.5527 3.33537C39.8237 3.46654 40.0129 3.6908 40.1032 3.94891C40.1978 4.21125 40.1892 4.51168 40.0559 4.78248ZM13.5942 23.0974C13.4741 23.5754 13.0152 23.8557 12.5692 23.727C12.1231 23.5938 11.8572 23.102 11.9816 22.6241C13.2682 17.6193 15.8415 14.2552 18.9552 12.3204C21.3227 10.8498 23.9989 10.2156 26.6537 10.3213C29.2999 10.427 31.9246 11.2726 34.2063 12.757C37.4229 14.8573 39.9619 18.2397 40.9054 22.647C41.0084 23.1296 40.7253 23.6121 40.275 23.7224C39.8246 23.8327 39.3743 23.5294 39.2714 23.0469C38.4351 19.1497 36.1877 16.1533 33.3314 14.2874C31.2942 12.9592 28.9525 12.2055 26.5936 12.109C24.2433 12.0171 21.8802 12.5732 19.7958 13.8692C17.0381 15.5834 14.7479 18.5936 13.5942 23.0974ZM35.3376 27.2376H16.6626C15.4875 27.2376 14.4173 27.7355 13.6441 28.541C12.8709 29.3421 12.3903 30.4509 12.3903 31.6684V43.5396C12.3903 44.7571 12.8709 45.8659 13.6441 46.667C14.4173 47.4681 15.4875 47.9659 16.6626 47.9659H35.3376C36.5127 47.9659 37.5829 47.4681 38.3561 46.667C39.1293 45.8659 39.6099 44.7571 39.6099 43.5396V31.6639C39.6099 30.4464 39.1293 29.3376 38.3561 28.5365C37.5829 27.7355 36.5127 27.2376 35.3376 27.2376ZM35.7827 37.2004V35.6004H37.7392V43.6004C37.7392 44.3336 37.6197 44.9161 37.1523 45.4004C36.6849 45.8846 35.7034 46.2054 35.0001 46.2054H17.0001C16.2924 46.2054 15.3172 45.9066 14.8498 45.4224C14.3823 44.9381 14.261 44.329 14.261 43.6004V35.6004H33.4349V37.2004C33.4349 38.0004 33.8262 38.4004 34.6088 38.4004C35.3914 38.4004 35.7827 38.0004 35.7827 37.2004Z" fill="white"/>
</g>
<defs>
<clipPath id="clip0_1538_104308">
<rect width="52" height="52" fill="white"/>
</clipPath>
</defs>
</svg>
