<svg xmlns="http://www.w3.org/2000/svg" width="128" height="128" viewBox="0 0 128 128">
  <defs>
    <style>
      .cls-1 {
        fill: #e6e6e6;
        fill-rule: evenodd;
      }
    </style>
  </defs>
  <path id="backpack2_" data-name="backpack2 " class="cls-1" d="M108.487,124a9.221,9.221,0,0,0,3.407-7.21v-45.8h7.117V114.6S117.022,122.714,108.487,124Zm-10.432,0H29.887a8,8,0,0,1-8-8V53.882H58V106a3,3,0,0,0,3,3h6a3,3,0,0,0,3-3V53.882h36.055V116A8,8,0,0,1,98.055,124Zm2.995-78.051H92V39.006H80.012v6.943H47V39.006H35.012v6.943h-8a4,4,0,0,1-4-4V20.028H105.05v21.92A4,4,0,0,1,101.05,45.949ZM63.5,9.958a11.316,11.316,0,0,0-7.133,3.064H44.857c2.58-5.644,8.2-9.994,14.786-9.994h7.714c6.591,0,12.206,4.35,14.786,9.994H70.633A11.316,11.316,0,0,0,63.5,9.958ZM8.989,114.607V71.02h6.947V116.8A9.053,9.053,0,0,0,19.514,124,12.386,12.386,0,0,1,8.989,114.607Z"/>
</svg>
