<svg width="30" height="30" viewBox="0 0 30 30" fill="none" xmlns="http://www.w3.org/2000/svg">
<g clip-path="url(#clip0_3775_17512)">
<path d="M15 15C17.3999 15 20.9997 15.9624 21 19.0244C21 22.0853 15.0057 22.0001 15 22C14.9943 22.0001 9 22.0853 9 19.0244C9.00033 15.9624 12.6001 15 15 15ZM15 8C16.6569 8 18 9.34315 18 11C18 12.6569 16.6569 14 15 14C13.3431 14 12 12.6569 12 11C12 9.34315 13.3431 8 15 8Z" fill="white"/>
<path d="M26 22C26 25.3137 23.3137 28 20 28L10 28C6.68629 28 4 25.3137 4 22L4 20L-7.86805e-07 20L7 13L7 22C7 23.6569 8.34315 25 10 25L20 25C21.6569 25 23 23.6569 23 22L23 21L26 18L26 22ZM23 17L23 8C23 6.34315 21.6569 5 20 5L10 5C8.34315 5 7 6.34315 7 8L7 9L4 12L4 8C4 4.68629 6.68629 2 10 2L20 2C23.3137 2 26 4.68629 26 8L26 10L30 10L23 17Z" fill="white"/>
</g>
<defs>
<clipPath id="clip0_3775_17512">
<rect width="30" height="30" fill="white"/>
</clipPath>
</defs>
</svg>
