<svg width="50" height="50" viewBox="0 0 50 50" fill="none" xmlns="http://www.w3.org/2000/svg">
<path d="M1.39453 46.957L4.6123 48.4258L5.20215 48.2148L5.63184 49.3701L3.8623 50L0.643555 48.5312L0 46.7998L1.17969 46.3799L1.39453 46.957ZM50 46.7998L49.3564 48.5312L46.1377 50L44.3682 49.3701L44.7979 48.2148L45.3877 48.4258L48.6055 46.957L48.8203 46.3799L50 46.7998ZM7.96191 40.3682L8.17578 40.9463L4.9873 47.6377L4.39746 47.8477L1.98438 46.7471L1.76953 46.1699L4.95801 39.4775L5.54785 39.2676L7.96191 40.3682ZM45.042 39.4775L48.2305 46.1699L48.0156 46.7471L45.6025 47.8477L45.0127 47.6377L41.8242 40.9463L42.0381 40.3682L44.4521 39.2676L45.042 39.4775ZM15.0898 25.4092L8.14941 39.9746L5.73535 38.874L12.6758 24.3086L15.0898 25.4092ZM44.2646 38.874L41.8506 39.9746L34.9102 25.4092L37.3242 24.3086L44.2646 38.874ZM31.5791 0.876953V3.07031L31.1406 3.94727H30.2627V3.50879H28.5088V2.63184H27.6318V5.2627H28.0703V4.38574H28.9473V7.45605L29.3857 8.77148V9.23926L30.4111 8.77148L36.4131 21.3691L37.1367 23.9141L34.7227 25.0156L33.1953 22.8379L27.1934 10.2402L28.2002 9.7793L25.877 7.45605H24.123L21.7988 9.7793L22.8066 10.2402L16.8047 22.8379L15.2773 25.0156L12.8633 23.9141L13.5869 21.3691L19.5889 8.77148L20.6143 9.23926V8.77148L21.0527 7.45605V4.38574H21.9297V5.2627H22.3682V0.438477H23.6846L23.2461 1.31543H26.7539L26.3154 0.438477H27.6318V1.31543H28.5088V0.438477H30.2627V0H31.1406L31.5791 0.876953ZM16.1309 12.9453L15.9434 13.3389L16.1582 13.916L16.5605 14.0996L16.1855 14.8867L15.7832 14.7031L15.1934 14.9131L15.0059 15.3066L14.2012 14.9404L15.3271 12.5781L16.1309 12.9453ZM35.7988 14.9404L34.9941 15.3066L34.8066 14.9131L34.2168 14.7031L33.8145 14.8867L33.4395 14.0996L33.8418 13.916L34.0566 13.3389L33.8691 12.9453L34.6729 12.5781L35.7988 14.9404Z" fill="white"/>
</svg>
