<svg width="49" height="49" viewBox="0 0 49 49" fill="none" xmlns="http://www.w3.org/2000/svg">
<path d="M30.7354 33.6094C30.7354 42.0843 23.8647 48.9548 15.3897 48.9551C6.91458 48.9549 0.0439555 42.0843 0.0439558 33.6094C0.0444571 25.1348 6.91489 18.2638 15.3897 18.2637C18.1401 18.2637 20.7217 18.9886 22.9541 20.2558L20.4043 22.8066C19.2333 23.9779 19.2338 25.8773 20.4043 27.0488L21.9492 28.5937C23.1208 29.7653 25.0208 29.7652 26.1924 28.5937L28.7412 26.043C30.0094 28.2758 30.7352 30.858 30.7354 33.6094ZM25.6201 33.6084C25.6201 39.2583 21.0397 43.8387 15.3897 43.8389C9.73978 43.8385 5.15919 39.2582 5.15919 33.6084L3.11329 33.6084C3.11329 40.3882 8.60974 45.8844 15.3897 45.8848C22.1697 45.8846 27.667 40.3884 27.667 33.6084L25.6201 33.6084ZM13.3438 33.6084C13.3435 31.349 12.4276 29.517 11.2979 29.5166C10.1681 29.517 9.25123 31.349 9.25099 33.6084C9.25099 35.8682 10.168 37.7008 11.2979 37.7012C12.4277 37.7008 13.3438 35.8682 13.3438 33.6084ZM21.5283 33.6084C21.5281 31.3488 20.6113 29.5166 19.4815 29.5166C18.3519 29.5173 17.4358 31.3492 17.4356 33.6084C17.4356 35.868 18.3517 37.7005 19.4815 37.7012C20.6115 37.7012 21.5283 35.8684 21.5283 33.6084ZM33.5078 15.5576C34.2887 16.3386 34.2888 17.6047 33.5078 18.3857L25.4854 26.4082C24.7043 27.1889 23.4372 27.189 22.6563 26.4082L22.5908 26.3428C21.8104 25.5619 21.8105 24.2956 22.5908 23.5146L30.6143 15.4922C31.3952 14.7113 32.6613 14.7115 33.4424 15.4922L33.5078 15.5576ZM46.5781 8.37206C48.5305 10.3246 48.5304 13.4898 46.5781 15.4424L37.7344 24.2861C35.7818 26.2387 32.6158 26.2385 30.6631 24.2861L30.582 24.2051L33.4756 21.3115L33.4912 21.3271C33.8817 21.7176 34.5147 21.7174 34.9053 21.3271L43.6192 12.6142C44.0092 12.2237 44.0095 11.5896 43.6192 11.1992L37.7998 5.37987C37.4095 4.99008 36.7762 4.99014 36.3858 5.37987L27.6709 14.0937C27.2812 14.4841 27.2813 15.1174 27.6709 15.5078L27.6875 15.5244L24.7949 18.418L24.7129 18.3359C22.7609 16.3834 22.7607 13.2181 24.7129 11.2656L33.5567 2.42186C35.5092 0.469545 38.6753 0.469588 40.6279 2.42187L46.5781 8.37206Z" fill="white"/>
</svg>
