<svg width="49" height="76" viewBox="0 0 49 76" fill="none" xmlns="http://www.w3.org/2000/svg">
<path d="M47.9727 18.0859C48.6548 15.0722 48.9998 11.8406 48.9998 8.47766V4C49 -2.38419e-07 49 7.3151e-10 45 7.3151e-10H39C35 7.3151e-10 35 -2.38419e-07 35 4V6H14V4C14 -2.38419e-07 14 7.3151e-10 10 7.3151e-10H4C0 -8.11751e-07 0 -2.38419e-07 0 4V8.47766C0 12.9237 0.610522 17.1411 1.81445 21.0172C3.43769 26.2405 6.13385 30.9397 10.0568 35.3872C10.8254 36.2578 11.6449 37.1228 12.5306 38.0016C8.78692 41.7247 5.98278 45.5155 3.9782 49.5689C2.67469 52.2158 1.68096 55.0223 1.02718 57.9142C0.345091 60.9305 0 64.1624 0 67.5199V72C0 76 0 76 4 76H10C14 76 14 76 14 72V70H35V72C35 74 35 76 39 76H45C49 76 49 76 49 72V67.5199C49 63.0588 48.3881 58.8389 47.1841 54.983C45.5611 49.7597 42.8661 45.0605 38.943 40.6156C38.1733 39.7423 37.3576 38.88 36.4718 38.0014C40.2548 34.2417 42.99 30.5402 45.0188 26.4447C46.3199 23.8088 47.3136 20.9994 47.9727 18.0859ZM10.067 65.8424C10.0373 66.3866 10.0251 66.9486 10.0251 67.5199V71C10.0251 71.5523 9.57743 72 9.02514 72H5.23638C4.6841 72 4.23638 71.5523 4.23638 71V67.5199C4.23638 64.5563 4.53978 61.8227 5.1086 59.3031C5.67758 56.7823 6.52009 54.4698 7.56625 52.3456C9.66932 48.0958 12.5989 44.6244 15.8559 41.5362C16.274 41.1397 16.6986 40.7456 17.1314 40.3664C18.2868 41.3317 21.7122 44.0558 21.7122 44.0558C20.0203 45.5369 18.4539 47.0397 17.0626 48.617C16.2956 49.4903 15.5838 50.3784 14.9286 51.3045H29.5463C30.7004 52.6517 31.6453 53.977 32.4206 55.3323H12.5649C12.0744 56.3611 11.651 57.4442 11.295 58.5844C10.9728 59.6037 10.7125 60.6773 10.5118 61.8173H34.859C35.1312 63.0955 35.2969 64.4289 35.3685 65.8424H10.067ZM43.2322 56.8486C44.2258 60.0289 44.7663 63.5664 44.7663 67.5199V71C44.7663 71.5523 44.3185 72 43.7663 72H40C39.4477 72 39 71.5523 39 71V67.5199C39 66.9486 38.9612 66.3866 38.9356 65.8424C38.8695 64.4127 38.7172 63.075 38.4893 61.8173C38.4193 61.4017 38.3343 60.9902 38.2453 60.592C37.8125 58.6777 37.2018 56.942 36.4402 55.3323C36.3795 55.1983 36.316 55.0628 36.2501 54.9302C35.6151 53.6602 34.8912 52.4566 34.0714 51.3045C32.6801 49.3414 31.034 47.5272 29.171 45.7645C27.7245 44.3917 26.1567 43.0555 24.5053 41.7111C24.5053 41.7111 20.814 38.7745 19.8757 38.0014C17.3385 35.9002 14.9065 33.7042 12.7254 31.2333C9.74462 27.8567 7.25056 23.9252 5.76627 19.1514C4.77814 15.9713 4.23623 12.4336 4.23623 8.4775V5C4.23623 4.44772 4.68394 4 5.23623 4H9.02514C9.57743 4 10.0251 4.44772 10.0251 5V8.4775C10.0251 9.05281 10.0373 9.61078 10.067 10.155C10.133 11.5902 10.2826 12.9264 10.5118 14.1828C10.5806 14.5984 10.6668 15.0086 10.7545 15.4081C11.1874 17.3211 11.7981 19.0567 12.5649 20.6678C12.6283 20.8033 12.6891 20.9345 12.7565 21.07C13.3833 22.34 14.1113 23.5448 14.9283 24.693C16.3196 26.6561 17.971 28.473 19.8287 30.2356C21.2752 31.6084 22.8484 32.9447 24.4998 34.2864C25.0876 34.763 25.6848 35.2367 26.2916 35.7161C27.2421 36.4689 28.1911 37.227 29.1295 38.0014C31.6612 40.0972 34.0933 42.2931 36.2771 44.768C39.2565 48.1431 41.7493 52.0747 43.2322 56.8486ZM44.7663 8.4775C44.7663 11.4437 44.4629 14.1772 43.8912 16.6969C43.3224 19.2178 42.4838 21.5302 41.4338 23.6558C39.3305 27.9042 36.4011 31.3756 33.1495 34.4611C32.7302 34.8605 32.3042 35.2558 31.8715 35.6336C30.7121 34.6683 27.288 31.947 27.288 31.947C28.9811 30.4686 30.5491 28.9658 31.9375 27.3803C32.7047 26.5098 33.4206 25.6189 34.077 24.693H19.4593C18.2999 23.3484 17.3575 22.0231 16.5823 20.6678H36.4375C36.9283 19.6391 37.349 18.5572 37.7048 17.4158C38.027 16.3978 38.2898 15.3228 38.4947 14.1828H14.1398C13.8742 12.902 13.7057 11.5712 13.6343 10.155H38.9358C38.9613 9.61078 38.9749 9.05297 38.9749 8.47766V5.26031C38.9749 4.70803 39.4226 4.26031 39.9749 4.26031H43.7664C44.3187 4.26031 44.7664 4.70805 44.7664 5.26035L44.7663 8.4775Z" fill="white"/>
</svg>
