<?xml version="1.0" encoding="UTF-8" standalone="no"?>
<!DOCTYPE svg PUBLIC "-//W3C//DTD SVG 20010904//EN"
              "http://www.w3.org/TR/2001/REC-SVG-20010904/DTD/svg10.dtd">

<svg xmlns="http://www.w3.org/2000/svg"
     width="8.88889in" height="8.88889in"
     viewBox="0 0 800 800">
  <path id="Selection"
        fill="white" stroke="white" stroke-width="1"
        d="M 10.00,0.72
           C 15.55,-0.59 25.89,0.00 32.00,0.00
             32.00,0.00 73.00,0.00 73.00,0.00
             73.00,0.00 203.00,0.00 203.00,0.00
             203.00,0.00 618.00,0.00 618.00,0.00
             618.00,0.00 758.00,0.00 758.00,0.00
             758.00,0.00 779.00,0.00 779.00,0.00
             782.04,0.00 787.27,-0.26 790.00,0.72
             793.76,2.09 797.91,6.24 799.28,10.00
             800.13,12.37 800.00,15.49 800.00,18.00
             800.00,18.00 800.00,618.00 800.00,618.00
             800.00,618.00 800.00,758.00 800.00,758.00
             800.00,758.00 800.00,779.00 800.00,779.00
             800.00,782.04 800.26,787.27 799.28,790.00
             797.83,794.00 794.00,797.83 790.00,799.28
             787.63,800.13 784.51,800.00 782.00,800.00
             782.00,800.00 182.00,800.00 182.00,800.00
             182.00,800.00 42.00,800.00 42.00,800.00
             42.00,800.00 21.00,800.00 21.00,800.00
             17.96,800.00 12.73,800.26 10.00,799.28
             6.18,797.89 2.11,793.82 0.72,790.00
             -0.13,787.63 0.00,784.51 0.00,782.00
             0.00,782.00 0.00,189.00 0.00,189.00
             0.00,189.00 0.00,48.00 0.00,48.00
             0.00,48.00 0.00,23.00 0.00,23.00
             0.00,19.68 -0.31,12.87 0.72,10.00
             2.30,5.64 5.99,2.69 10.00,0.72 Z
           M 758.00,42.00
           C 758.00,42.00 42.00,42.00 42.00,42.00
             42.00,42.00 42.00,758.00 42.00,758.00
             42.00,758.00 758.00,758.00 758.00,758.00
             758.00,758.00 758.00,42.00 758.00,42.00 Z" />
</svg>
