<?xml version="1.0" encoding="UTF-8" standalone="no"?>
<!DOCTYPE svg PUBLIC "-//W3C//DTD SVG 20010904//EN"
              "http://www.w3.org/TR/2001/REC-SVG-20010904/DTD/svg10.dtd">

<svg xmlns="http://www.w3.org/2000/svg"
     width="2.5in" height="2.5in"
     viewBox="0 0 225 225">
  <path id="Selection"
        fill="#FFFFFF" stroke="#FFFFFF" stroke-width="1"
        d="M 82.00,7.00
           C 82.00,7.00 104.00,7.00 104.00,7.00
             104.00,7.00 104.00,35.00 104.00,35.00
             104.00,35.00 121.00,35.00 121.00,35.00
             121.00,35.00 121.00,7.00 121.00,7.00
             121.00,7.00 143.00,7.00 143.00,7.00
             143.00,7.00 143.00,33.00 143.00,33.00
             143.03,46.28 145.94,39.34 160.96,55.00
             169.67,64.07 177.93,79.31 179.00,92.00
             175.37,92.00 161.89,92.65 159.51,90.98
             157.74,89.74 155.41,83.33 154.24,81.00
             151.29,75.10 147.99,70.37 143.00,66.00
             143.00,66.00 143.00,161.00 143.00,161.00
             148.32,155.41 150.80,151.89 154.24,145.00
             155.41,142.67 157.74,136.26 159.51,135.02
             161.89,133.35 175.37,134.00 179.00,134.00
             177.88,147.29 169.16,162.59 159.96,171.99
             147.76,184.45 143.08,180.13 143.00,192.00
             143.00,192.00 143.00,217.00 143.00,217.00
             143.00,217.00 121.00,217.00 121.00,217.00
             121.00,217.00 121.00,191.00 121.00,191.00
             121.00,191.00 104.00,191.00 104.00,191.00
             104.00,191.00 104.00,217.00 104.00,217.00
             104.00,217.00 82.00,217.00 82.00,217.00
             82.00,217.00 82.00,193.00 82.00,193.00
             82.00,190.61 82.21,187.31 80.98,185.21
             79.62,182.89 74.39,179.91 72.00,178.10
             67.50,174.70 62.13,169.51 58.76,165.00
             47.05,149.33 41.78,130.43 42.00,111.00
             42.22,92.70 48.34,74.39 59.67,60.00
             63.19,55.53 67.47,51.33 72.00,47.90
             74.39,46.09 79.62,43.11 80.98,40.79
             82.21,38.69 82.00,35.39 82.00,33.00
             82.00,33.00 82.00,7.00 82.00,7.00 Z
           M 121.00,54.00
           C 117.71,54.00 106.98,53.12 105.02,55.60
             103.77,57.19 104.00,61.01 104.00,63.00
             104.00,63.00 104.00,142.00 104.00,142.00
             104.00,142.00 104.00,164.00 104.00,164.00
             104.01,165.82 103.85,168.92 105.02,170.40
             106.59,172.38 110.70,172.00 113.00,172.00
             113.00,172.00 121.00,172.00 121.00,172.00
             121.00,172.00 121.00,54.00 121.00,54.00 Z
           M 82.00,66.00
           C 75.83,70.63 72.02,77.11 68.78,84.00
             58.35,106.19 61.28,144.44 82.00,160.00
             82.00,160.00 82.00,66.00 82.00,66.00 Z" />
</svg>
