<svg height='100px' width='100px'  fill="#FFFFFF" xmlns="http://www.w3.org/2000/svg" viewBox="0 0 32 32" x="0px" y="0px"><title>Artboard 28</title><g data-name="01"><path d="M5,22a1,1,0,0,0-1,1v4a3.0033,3.0033,0,0,0,3,3H24a3.0033,3.0033,0,0,0,3-3V3a1,1,0,0,0-1-1H8A1,1,0,0,0,7,3v8.667L4.2,15.4A.9969.9969,0,0,0,4,16v3a1,1,0,0,0,1,1H7v2Zm3-4H6V16.333L8.8,12.6A.9969.9969,0,0,0,9,12V4h3V7a1,1,0,0,0,2,0V4h2V7a1,1,0,0,0,2,0V4h2V7a1,1,0,0,0,2,0V4h3V27a1.0006,1.0006,0,0,1-1,1H7a1.0006,1.0006,0,0,1-1-1V24H8a1,1,0,0,0,1-1V19A1,1,0,0,0,8,18Z"></path></g></svg>