<svg width="200" height="200" viewBox="0 0 200 200" fill="none" xmlns="http://www.w3.org/2000/svg">
<path fill-rule="evenodd" clip-rule="evenodd" d="M200 0V125.449C200 148.106 181.951 158.975 159.898 158.975C137.846 158.975 119.796 148.106 119.796 125.449C119.796 102.793 137.786 91.9238 159.848 91.9238C167.116 91.9238 170.051 93.9225 180.034 97.4097V23.5254L80.2037 48.5254V166.475C80.2037 189.131 62.1543 200 40.1018 200C18.0493 200 0 189.131 0 166.475C0 143.818 15.5093 133.77 37.5519 132.949C46 132.949 53.2195 136.566 60.2376 140.935V32.5L200 0Z" fill="white"/>
</svg>
