<?xml version="1.0" encoding="UTF-8"?>
<svg width="1200pt" height="1200pt" version="1.1" viewBox="0 0 1200 1200" xmlns="http://www.w3.org/2000/svg">
 <path d="m600 62.5c-296.65 0-537.5 240.85-537.5 537.5s240.85 537.5 537.5 537.5 537.5-240.85 537.5-537.5-240.85-537.5-537.5-537.5zm-242.2 775.25c-3.75 14.75-0.5 30.398 8.8008 42.449 9.3516 12 23.699 19.051 38.898 19.051 96.199 0.75 292.8 0.75 389 0.75 15.449 0 30.051-7.1484 39.5-19.352 9.5-12.199 12.801-28.102 8.9492-43.102-28.449-107.7-126.45-187.55-242.95-187.55s-214.5 79.852-242.2 187.75zm521.45-321.3-82.898-41.449 82.898-41.449c18.551-9.25 26.051-31.801 16.801-50.301-9.25-18.551-31.801-26.051-50.301-16.801l-150 75c-12.699 6.3516-20.75 19.352-20.75 33.551s8.0508 27.199 20.75 33.551l150 75c18.5 9.25 41.051 1.75 50.301-16.801 9.25-18.5 1.75-41.051-16.801-50.301zm-525 67.102 150-75c12.699-6.3516 20.75-19.352 20.75-33.551s-8.0508-27.199-20.75-33.551l-150-75c-18.5-9.25-41.051-1.75-50.301 16.801-9.25 18.5-1.75 41.051 16.801 50.301l82.898 41.449-82.898 41.449c-18.551 9.25-26.051 31.801-16.801 50.301 9.25 18.551 31.801 26.051 50.301 16.801z" fill="#fff" fill-rule="evenodd"/>
</svg>
