<svg width="52" height="52" viewBox="0 0 52 52" fill="none" xmlns="http://www.w3.org/2000/svg">
<path fill-rule="evenodd" clip-rule="evenodd" d="M7.62628 12H44.3763C46.1263 12 47.0013 12.8926 47 14.677L47 17.9183C47 18.1822 46.8556 18.4259 46.623 18.5528L28.6848 28.8768C27.844 29.338 26.9224 29.5686 26 29.5686C25.0775 29.5686 24.1566 29.338 23.3151 28.8768L5.377 18.5528C5.14441 18.4259 5 18.1822 5 17.9183L5 14.677C5 12.8926 5.87628 12 7.62628 12ZM22 22.9999C22 20.794 23.7939 19 26 19C28.2061 19 30 20.7941 30 23.0001C30 25.206 28.2061 27 26 27C23.7939 27 22 25.2059 22 22.9999ZM26 20C24.3454 20 23 21.3455 23 23C23 24.6544 24.3454 26 26 26C27.6546 26 29 24.6545 29 23C29 21.3456 27.6546 20 26 20ZM46 21.0007L29.3797 30.2668C28.3433 30.8417 27.1738 31.1456 26.0001 31.1456C24.827 31.1456 23.6575 30.8417 22.6205 30.2668L6.00001 21L6 37.3723C6 39.1241 6.87084 39.9995 8.60997 39.9995L43.3926 40C45.1317 40 46 39.1241 46 37.3723L46 21.0007Z" fill="white"/>
</svg>
