<svg width="190" height="320" viewBox="0 0 190 320" fill="none" xmlns="http://www.w3.org/2000/svg">
<rect y="-0.00195312" width="190" height="320" fill="url(#paint0_linear_3633_17479)" fill-opacity="0.8"/>
<path d="M185.979 229.447C185.979 229.194 186.046 229.067 186.114 229.193C186.183 229.288 186.388 234.255 186.57 240.233C186.979 254.911 188.116 274.745 189.434 290.783C189.823 295.37 189.91 297.375 189.966 320H179.991C182.117 290.653 183.395 271.214 184.842 246.37C185.228 239.759 185.637 233.338 185.751 232.136C185.865 230.903 185.979 229.701 185.979 229.447Z" fill="url(#paint1_linear_3633_17479)" fill-opacity="0.5"/>
<path d="M171.334 7.54004C171.448 6.74931 171.515 6.68585 171.697 7.16016C171.834 7.50812 171.902 17.1245 171.857 33.3838C171.72 79.2203 171.856 159.411 172.107 169.471C173.266 219.672 174.062 243.935 175.177 262.472C176.154 278.921 176.268 283.571 176.132 302.741C176.076 310.261 176.016 315.575 175.913 320H169.287C169.109 313.899 168.893 307.584 168.627 300.59C167.468 270.791 167.4 268.577 167.105 253.14C166.968 246.465 166.65 238.778 166.308 233.369C165.581 222.234 165.398 212.302 165.694 201.578C165.944 192.784 165.717 165.041 165.285 153.97C165.171 150.838 164.944 141.949 164.807 134.199C164.557 121.957 164.58 118.003 164.921 103.831C165.376 84.9463 165.467 83.1114 167.559 55.1162C168.423 43.5385 169.401 30.5057 169.719 26.1719C170.311 18.2322 171.084 9.24867 171.334 7.54004Z" fill="url(#paint2_linear_3633_17479)" fill-opacity="0.5"/>
<path d="M147.899 0C148.309 5.3601 148.785 11.3126 149.367 18.4219C149.731 23.0404 150.345 31.9924 150.732 38.3506C151.118 44.7087 151.778 55.1474 152.21 61.6006C152.642 68.022 153.506 81.1183 154.143 90.7031C154.779 100.256 155.575 112.594 155.962 118.066C156.689 128.948 157.28 139.703 158.008 155.077C158.394 163.175 158.486 168.142 158.486 181.649C158.463 196.359 158.395 199.617 157.872 209.961C157.349 220.178 157.258 224.259 157.167 241.91C157.076 256.05 157.121 263.579 157.326 266.9C157.576 271.39 158.099 276.796 158.326 277.086C158.69 277.592 159.122 271.329 159.372 261.997C160.009 237.704 160.259 233.18 161.146 230.681C161.897 228.593 162.42 228.403 163.102 230.048C163.557 231.123 163.579 231.598 163.602 245.39C163.602 257.094 163.67 260.194 163.989 262.788C166.212 281.532 167.442 299.323 167.838 320H159.739C159.158 314.771 158.377 308.498 157.326 300.115C154.052 274.05 153.029 262.724 152.278 244.599C152.005 237.923 151.891 208.916 152.073 192.562C152.164 184.211 152.21 184.876 150.163 152.705C148.935 133.219 148.685 127.335 148.003 99.7188C147.525 80.4226 146.957 60.304 146.753 54.7998C146.457 47.3985 146.184 41.6102 146.025 40.249L145.866 38.8252L145.706 40.8809C145.615 42.0197 145.388 54.0407 145.183 67.6113C144.41 121.767 144.365 123.222 143.364 141.158C142.182 162.099 141.931 171.273 141.75 201.42C141.681 213.251 141.454 229.478 141.294 237.481C141.112 245.485 140.862 257.569 140.726 264.37C140.476 276.833 140.18 285.501 139.361 302.488C139.067 308.58 138.861 314.064 138.72 320H133.86C133.379 303.484 133.445 286.276 134.132 273.069C134.632 263.706 135.95 237.452 136.2 231.946C136.587 223.785 136.587 201.673 136.2 179.751C135.837 158.367 135.973 129.644 136.496 117.275C136.883 108.513 137.588 93.8036 138.111 84.0605C138.975 68.0859 139.157 61.6327 139.361 40.4072C139.563 19.3118 139.659 14.983 140.645 0H147.899Z" fill="url(#paint3_linear_3633_17479)" fill-opacity="0.5"/>
<path d="M146.57 160.139C146.729 159.158 146.752 159.253 146.911 161.245C147.002 162.447 147.23 168.648 147.434 175.006C147.616 181.364 147.98 190.189 148.207 194.618C149.003 208.79 149.345 217.015 149.595 226.252C149.959 240.202 150.436 249.977 151.436 263.579C152.327 276.081 153.545 294.067 155.237 320H147.335C146.241 300.8 145.532 284.321 145.046 267.217C144.932 262.503 144.592 251.274 144.342 242.227C144.092 233.179 143.865 219.798 143.842 212.491L143.796 199.205L144.774 185.445C145.297 177.885 145.888 169.343 146.07 166.465C146.274 163.587 146.502 160.74 146.57 160.139Z" fill="url(#paint4_linear_3633_17479)" fill-opacity="0.5"/>
<path d="M133.324 0C133.361 14.8762 133.409 37.9898 133.449 63.8154C133.563 123.158 133.677 148.022 133.904 156.88C134.154 166.781 134.177 171.147 133.95 181.396C133.791 188.228 133.563 195.251 133.449 196.991C133.108 202.053 132.13 221.095 131.653 232.262C130.777 252.39 130.773 282.766 131.623 320H124.442C124.411 316.023 124.381 311.73 124.353 307.296C124.103 268.672 124.263 254.658 125.286 226.252C125.968 206.608 125.968 206.133 126.173 153.653C126.378 100.352 126.537 86.4642 127.242 65.7129C127.469 58.8485 127.628 48.0935 127.628 38.667C127.651 24.8116 127.56 20.9206 126.923 4.81934C126.856 3.17423 126.789 1.5574 126.726 0H133.324Z" fill="url(#paint5_linear_3633_17479)" fill-opacity="0.5"/>
<path d="M118.418 21.4268C118.578 -7.58041 118.555 -0.454453 119.715 7.48535C122.352 25.5795 123.853 51.4784 123.262 77.4492C123.012 88.1096 122.762 93.9618 121.398 120.28C120.533 137.267 120.419 140.842 120.396 153.97C120.374 161.277 120.51 174.785 120.692 184.021C120.92 195.504 120.965 207.304 120.874 221.507C120.738 243.903 120.624 246.908 118.896 280.345C118.008 297.331 117.783 303.427 117.601 320H111.43C111.568 314.628 111.705 306.104 111.847 294.105C112.37 251.116 112.619 240.392 113.415 227.518C114.598 208.727 114.985 194.903 115.258 160.297C115.371 145.683 115.621 127.019 115.826 118.857C116.008 110.665 116.258 99.4347 116.395 93.8672C116.622 84.4405 116.986 74.9817 117.531 64.4795C118.145 52.9651 118.282 46.1005 118.418 21.4268Z" fill="url(#paint6_linear_3633_17479)" fill-opacity="0.5"/>
<path d="M95.474 2.28906C95.474 32.182 95.61 34.017 99.5667 65.7129C102.25 87.2551 103.455 98.8968 104.092 110.158C104.933 124.52 105.23 143.025 104.934 160.139C104.593 178.96 104.569 178.328 106.616 211.068C108.026 233.369 108.208 237.925 108.89 265.161C109.553 291.837 110.123 310.547 110.541 320H105.715C105.392 314.836 105.04 309.306 104.797 305.651C104.433 300.179 103.546 287.083 102.864 276.549C102.159 266.015 101.34 253.646 101.022 249.027C100.317 238.683 99.7486 228.434 98.9982 212.902C98.498 202.59 98.4297 198.762 98.4297 184.749C98.4297 170.451 98.4987 167.129 99.0217 156.817C99.5674 146.473 99.635 142.645 99.7259 123.761C99.8169 105.761 99.7715 101.585 99.4759 97.0615C99.1121 91.9384 98.7255 88.7753 98.4981 89.0898C98.157 89.5327 97.725 96.8404 97.5204 105.097C96.9974 127.177 96.6561 132.903 95.7466 135.465C94.9735 137.647 94.4279 137.774 93.7686 135.939C93.3365 134.737 93.3134 134.041 93.3134 120.28L93.2909 105.888L92.5633 99.7188C91.2444 88.4891 90.0165 72.5146 89.3116 56.8564C88.9913 49.8929 88.9715 18.7211 89.1768 0H95.4711C95.4723 0.746732 95.474 1.51087 95.474 2.28906Z" fill="url(#paint7_linear_3633_17479)" fill-opacity="0.5"/>
<path d="M99.2258 272.151C99.294 271.899 99.4076 271.804 99.4759 271.898C99.8397 272.405 100.25 282.781 100.477 297.11C100.677 310.155 100.795 315.335 101.215 320H98.1289C98.0949 318.016 98.046 316.302 97.9755 314.983C97.3388 303.058 97.498 295.56 98.7032 281.452C98.9761 278.32 99.1802 275.03 99.1574 274.176C99.1347 273.29 99.1803 272.404 99.2258 272.151Z" fill="url(#paint8_linear_3633_17479)" fill-opacity="0.5"/>
<path d="M84.4678 72.5146C84.7634 75.3933 85.468 82.0676 86.0365 87.3818C87.2644 98.8962 87.492 101.649 88.538 115.693C89.5385 129.043 90.4482 140.842 91.608 155.394C93.1998 175.449 94.7689 200.629 95.8149 223.722C96.3379 234.888 96.4739 247.73 96.1783 253.298C96.0191 255.892 95.8153 261.807 95.7016 266.426C95.5197 273.575 95.3373 276.612 94.3595 287.146C93.2303 299.264 92.8526 304.716 92.2106 320H83.9208C84.0059 317.57 84.0696 316.03 84.1034 315.773C85.104 308.213 87.9243 282.653 88.6747 274.492C89.1295 269.305 89.1521 268.292 89.0156 247.288C88.9019 226.727 88.6521 214.864 87.8562 192.562C87.6743 187.343 87.3788 177.79 87.1969 171.368C86.7876 157.671 86.8325 158.652 85.6956 140.368C84.6496 123.539 84.6498 123.254 84.2177 109.209C84.0131 102.787 83.8993 91.9053 83.8993 82.7949L83.9218 67.2949L84.4678 72.5146Z" fill="url(#paint9_linear_3633_17479)" fill-opacity="0.5"/>
<path d="M67.4134 131.479C67.5725 129.707 67.6179 129.992 68.3227 136.888C68.7093 140.873 69.4593 148.086 69.9823 152.895C70.4826 157.703 71.3242 167.098 71.8245 173.772C73.4162 194.714 74.3258 206.418 75.2353 218.027C77.623 247.984 79.3737 279.838 80.1241 307.391C80.238 311.16 80.3807 315.793 80.5158 320H72.7319C72.6878 316.623 72.6543 312.759 72.6205 308.182C72.5068 289.297 72.2106 276.201 71.3693 252.033C71.1192 244.884 70.8239 235.299 70.6875 230.681C70.4146 220.558 70.4145 220.779 69.323 203.001C68.3907 188.165 68.1181 182.187 67.7543 168.68C67.4132 156.944 67.2087 133.661 67.4134 131.479Z" fill="url(#paint10_linear_3633_17479)" fill-opacity="0.5"/>
<path d="M70.1874 272.753C70.2553 272.756 70.2323 274.083 70.1415 275.663C70.0505 277.277 69.9823 289.55 69.9823 302.962C69.9823 309.217 69.9993 314.737 70.0409 320H65.5477C65.8081 317.179 66.0918 313.587 66.4806 308.34C67.4584 295.054 68.9596 279.522 69.6873 275.03C69.9147 273.797 70.1192 272.753 70.1874 272.753Z" fill="url(#paint11_linear_3633_17479)" fill-opacity="0.5"/>
<path d="M64.611 0C64.7692 4.63291 64.943 10.0401 65.116 15.8906C65.8437 39.394 65.9803 111.676 65.3436 124.045C65.2754 125.374 64.9343 134.199 64.6159 143.689C64.0929 159.063 64.0248 164.346 63.9566 192.246C63.7747 255.196 63.547 279.174 62.8421 300.432C62.638 306.586 62.4883 313.467 62.4025 320H56.5956C56.5928 314.498 56.5888 308.8 56.5888 302.994C56.5888 252.824 56.4982 228.783 56.3163 221.665C55.907 207.051 55.9973 180.637 56.4521 172.476C58.3167 139.957 58.8176 126.481 58.9995 105.413C59.1814 80.0116 58.8628 57.9313 57.7258 20.7939C57.4886 12.7823 57.2923 5.72737 57.1465 0H64.611Z" fill="url(#paint12_linear_3633_17479)" fill-opacity="0.5"/>
<path d="M52.9269 0C53.1988 1.94265 53.4791 4.16995 53.7239 6.40137C55.1565 19.4658 55.9744 33.6377 56.3837 52.8389C56.7702 70.6482 56.4751 81.3088 54.5649 118.225C53.6781 134.99 53.564 139.293 53.5413 152.863C53.5185 160.424 53.6553 175.038 53.8372 185.287C54.2011 206.893 54.0643 234.793 53.5413 247.604C53.3366 252.128 52.8139 262.947 52.3818 271.646C51.0661 297.654 50.9209 301.071 50.7223 320H44.4514C44.5619 315.141 44.7143 306.499 44.8549 297.11C45.628 243.271 45.6965 240.898 46.697 223.405C47.834 203.666 48.1073 193.1 48.2892 162.827C48.3574 150.996 48.5842 134.896 48.7434 127.082C48.9253 119.237 49.1754 107.279 49.3119 100.51C49.5393 88.1729 49.835 79.9164 50.6764 62.3916C51.3586 47.8088 51.5858 36.3574 51.5858 14.1826C51.5858 8.03992 51.6011 3.32699 51.6297 0H52.9269Z" fill="url(#paint13_linear_3633_17479)" fill-opacity="0.5"/>
<path d="M28.619 1.94043C28.619 23.6407 28.8921 32.2768 29.8927 41.5137C30.0973 43.3484 31.0971 51.7317 32.1432 60.1777C36.1681 92.5382 36.9874 101.332 37.7606 120.28C38.0334 127.208 38.1466 155.267 37.9647 172.317C37.8738 180.289 38.1926 186.932 39.8753 212.017C40.9441 228.023 41.3755 238.463 42.0349 265.161C42.5125 284.457 43.0815 304.576 43.2862 310.08C43.4414 313.968 43.5913 317.41 43.7208 320H38.9034C38.5035 313.584 38.0647 306.667 37.828 303.12C37.5096 298.691 36.6463 285.658 35.8959 274.176C35.1455 262.693 34.3263 250.388 34.0762 246.813C33.485 238.304 32.8481 226.948 32.1432 212.175C31.6202 201.704 31.5522 198.003 31.5522 183.547C31.5522 171.843 31.6657 164.852 31.8931 159.822C32.8027 141.538 32.9392 136.35 32.9392 118.857C32.9392 105.761 32.8485 99.8138 32.5983 96.0811C32.189 90.0392 31.8478 87.3506 31.5522 88.0781C31.1884 88.9963 30.6878 98.7072 30.4377 109.778C30.0511 127.113 29.6878 132.396 28.7782 134.674C28.096 136.35 27.5047 136.35 26.9135 134.674C26.4815 133.472 26.4586 132.744 26.4359 119.174V104.938L25.7082 98.7383C24.3438 87.0341 23.1617 71.7238 22.4341 56.2236C22.2749 52.7123 22.1608 43.1586 22.1381 33.1309C22.1381 23.6868 22.2296 10.4357 22.3442 0H28.618C28.6182 0.622169 28.619 1.26866 28.619 1.94043Z" fill="url(#paint14_linear_3633_17479)" fill-opacity="0.5"/>
<path d="M28.7557 236.438C28.9149 234.951 29.2099 235.457 29.6192 237.893C30.4151 242.827 32.9394 264.939 33.7353 274.018C34.5532 283.343 35.2027 296.846 35.9369 320H31.9625C31.2663 292.623 31.0923 292.131 29.4834 276.074C28.4146 265.351 28.3005 263.864 28.3005 258.201C28.2778 251.653 28.5738 238.177 28.7557 236.438Z" fill="url(#paint15_linear_3633_17479)" fill-opacity="0.5"/>
<path d="M25.0489 298.85C25.0262 297.427 25.0487 297.364 25.2306 298.218C25.4136 299.061 25.712 310.765 25.8342 320H24.2499C24.282 315.273 24.4176 311.548 24.6845 307.075C24.8892 303.406 25.0489 299.704 25.0489 298.85Z" fill="url(#paint16_linear_3633_17479)" fill-opacity="0.5"/>
<path d="M20.038 0C20.1609 24.8608 20.5307 41.0665 21.4104 64.29C22.5929 94.9738 22.6613 96.6506 22.9342 111.581C23.0706 118.572 23.3664 125.912 23.7302 131.511C24.4579 142.582 24.6393 152.167 24.3437 163.144C24.0935 172.064 24.3436 200.281 24.7529 211.068C24.8666 214.106 25.0714 222.931 25.2306 230.681C25.4807 242.923 25.4583 246.846 25.1173 260.891C24.9126 269.748 24.6393 278.858 24.5029 281.136C24.2349 285.951 22.9743 303.217 21.7044 320H18.2046C18.2921 272.772 18.1618 204.863 17.9312 195.093C17.8175 189.336 17.6124 181.08 17.476 176.746C17.3623 172.381 17.1582 164.567 17.0218 159.348C16.3623 132.966 15.7935 117.719 14.8612 102.408C13.8834 86.1172 13.7694 80.9289 13.9059 61.9492C14.0423 43.2856 14.1792 39.0464 15.0888 25.2227C15.3844 20.5094 15.7023 15.3218 15.7705 13.6768C15.9369 10.273 16.261 5.08768 16.6086 0H20.038Z" fill="url(#paint17_linear_3633_17479)" fill-opacity="0.5"/>
<path d="M9.79075 101.522C10.1091 100.7 10.4499 100.984 10.791 102.376C11.4277 104.875 13.3153 125.879 13.9293 137.204C15.5211 165.737 15.7936 192.404 14.7703 215.496C14.5202 221.158 14.0879 232.168 13.815 240.013C13.2238 257.411 13.2921 265.699 14.2927 290.151C14.4064 293.378 14.679 302.552 14.8836 310.555C14.971 314.218 15.0325 317.277 15.0663 320H8.83351C8.88468 317.047 8.90384 313.385 8.90384 308.656C8.90384 300.464 8.78951 290.215 8.63034 285.881C8.31199 275.916 8.31226 241.973 8.60788 231.123C8.74432 226.631 9.10806 215.37 9.42641 206.165C10.4042 178.296 10.3818 147.359 9.40395 122.59C8.83546 108.45 8.90395 103.8 9.79075 101.522Z" fill="url(#paint18_linear_3633_17479)" fill-opacity="0.5"/>
<path d="M0.0806709 136.255C0.17163 136.571 0.876141 147.58 1.33094 155.235C1.55834 159.632 2.46789 179.593 3.03638 193.354C3.21829 197.972 3.42333 203.001 3.49155 204.583C3.62799 207.588 3.90105 216.129 4.28762 228.466C4.40132 232.547 4.69638 241.088 4.90103 247.446C5.19665 256.525 5.28756 266.236 5.3103 292.682C5.31888 305.339 5.33693 313.98 5.3943 320H1.45694C1.45175 318.445 1.44827 316.728 1.44522 314.825C1.44522 303.247 1.30785 294.168 1.03498 287.146C0.830324 281.388 0.534835 273.291 0.375656 269.115C0.193738 263.801 0.0799688 242.701 0.0572284 198.731C0.0117813 164.213 0.0352563 136.106 0.0806709 136.255Z" fill="url(#paint19_linear_3633_17479)" fill-opacity="0.5"/>
<path fill-rule="evenodd" clip-rule="evenodd" d="M82.2622 23.3877C82.2622 45.4649 82.2169 63.3362 82.1714 63.1826C81.944 62.3602 80.3063 44.6138 80.1016 40.7861C80.0107 39.078 79.8741 37.7813 79.7832 37.9395C79.4421 38.4484 78.8735 52.9982 78.7371 64.6064C78.5552 79.3789 78.6232 80.9295 81.261 118.857C82.7391 139.957 83.9449 162.195 85.1046 189.083C85.6504 201.451 85.8778 207.399 86.4008 222.772C86.7646 234.066 86.924 264.18 86.6284 272.025C86.3783 278.984 85.9006 285.153 85.4231 287.937C84.9456 290.657 82.8079 295.749 82.3755 295.149C82.2391 294.96 82.0575 289.044 81.3753 262.472C81.1252 252.286 80.7161 241.562 80.466 237.798C80.2158 234.128 79.6928 226.03 79.329 219.767C78.9424 213.503 78.1693 201.261 77.6235 192.562C77.0778 183.864 76.4637 173.109 76.259 168.68C76.0543 164.251 75.7131 156.976 75.4629 152.547C73.9166 124.457 72.7794 83.2061 73.2115 71.0273C73.3252 68.37 73.5982 63.0241 73.8483 59.165C75.0476 41.0486 75.9143 19.2225 76.2356 0H82.2749L82.2622 23.3877ZM79.9424 34.3018C79.8742 34.0171 79.8288 34.3334 79.8516 35.0293C79.8516 35.7251 79.8969 35.9776 79.9424 35.5664C79.9878 35.1869 79.9878 34.618 79.9424 34.3018Z" fill="url(#paint20_linear_3633_17479)" fill-opacity="0.5"/>
<path d="M186.118 0C186.754 9.81421 187.404 18.7493 188.07 26.8047C188.525 32.2454 188.571 34.4282 188.593 49.8965C188.593 61.3477 188.73 70.427 189.003 77.418C189.207 83.1435 189.503 91.336 189.662 95.6064C189.867 101.079 189.958 121.894 189.98 166.148C190.026 228.528 190.026 228.909 189.594 223.405C188.707 211.543 187.092 176.556 186.205 150.648C184.773 108.387 184.75 107.501 184.727 72.1982C184.705 34.6831 184.546 29.5254 183.409 29.2402C181.59 28.7341 180.657 44.4557 181.203 66.9785C181.362 73.5899 181.544 88.9638 181.589 101.143C181.703 122.969 181.612 129.518 180.861 151.914C179.975 178.422 179.839 184.022 179.839 196.358C179.839 211.922 180.157 229.383 180.635 242.068C181.135 254.816 181.134 259.814 180.611 261.997C180.111 264.053 179.656 264.212 179.247 262.535C178.974 261.459 177.519 247.351 176.905 240.013C175.768 226.157 174.904 204.235 174.699 182.914C174.562 169.28 174.654 163.776 175.382 146.694C175.586 142.329 175.95 132.459 176.223 124.709C176.814 107.501 176.746 99.1492 175.745 74.7285C175.631 71.5017 175.358 62.2963 175.177 54.2617C174.79 38.5404 174.858 34.7127 175.745 18.4219C176.206 9.89272 176.442 5.10255 176.596 0H186.118Z" fill="url(#paint21_linear_3633_17479)" fill-opacity="0.5"/>
<path d="M39.8245 0C40.517 9.85956 41.3548 22.2206 41.9216 31.0752C43.2405 51.9847 44.4231 77.4179 44.9916 97.5049C45.1053 101.934 45.424 113.037 45.6968 122.179C45.947 131.321 46.1742 144.828 46.1969 152.23L46.2419 165.674L45.2641 179.435C44.7411 186.995 44.1501 195.6 43.9455 198.573C43.7636 201.515 43.5139 204.361 43.4229 204.899C43.1955 206.133 43.036 203.381 42.7177 191.771C42.5812 186.995 42.1261 176.176 41.694 167.73C40.6707 147.96 40.7166 148.529 40.4438 138.153C40.0344 122.558 39.5796 113.986 38.2607 96.5557C37.9651 92.475 36.4871 70.4584 35.009 47.6826L32.3258 6.24316L32.3756 0H39.8245Z" fill="url(#paint22_linear_3633_17479)" fill-opacity="0.5"/>
<path d="M107.278 0C108.002 10.434 108.842 22.7998 109.232 28.8604C110.278 45.5943 110.983 59.7034 111.847 81.8467C112.597 101.681 113.461 137.014 113.506 150.174L113.552 163.46L112.597 176.904C112.074 184.306 111.46 192.847 111.278 195.884C111.074 198.921 110.823 201.926 110.732 202.527C110.573 203.508 110.527 203.349 110.414 201.262C110.323 199.965 110.209 196.39 110.141 193.354C109.937 185.034 109.641 177.884 109.027 165.99C108.14 149.32 108.003 146.093 107.753 136.255C107.321 119.933 106.912 111.993 105.593 94.3418C104.957 86.1172 103.569 65.3333 101.181 28.3857L99.5901 4.02832L99.638 0H107.278Z" fill="url(#paint23_linear_3633_17479)" fill-opacity="0.5"/>
<path d="M1.39052 0C1.58127 4.33206 1.76647 8.83788 1.89942 12.5693C2.08134 17.947 2.35392 24.4322 2.49036 26.9629C3.08121 38.6912 3.35451 43.1532 3.44565 43.2852C3.58208 43.475 3.74128 41.988 4.17334 36.6104C5.10455 25.0574 5.57276 11.9799 5.5164 0H12.6283C12.1716 13.7813 11.6759 22.5479 10.2909 41.5137C8.13057 71.2489 6.42494 97.0304 5.19699 118.541C4.67436 127.74 4.10615 135.485 3.96919 135.686C3.81002 135.907 3.62741 131.669 3.37727 122.021C3.05892 109.715 1.6724 86.0537 0.489938 72.6729C0.148841 68.7503 0.102982 63.499 0.0347627 25.7607C0.0095594 14.5941 -0.00291119 6.22261 0.000575729 0H1.39052Z" fill="url(#paint24_linear_3633_17479)" fill-opacity="0.5"/>
<path d="M157.439 3.14258C157.462 17.1876 157.599 29.1136 157.849 37.7178C158.053 44.9301 158.349 54.8316 158.463 59.7031C158.736 69.6042 158.941 72.7043 160.396 87.2236C161.897 102.502 161.965 103.325 161.806 109.842C161.715 113.068 161.601 118.319 161.533 121.546C161.26 133.282 160.964 132.428 158.713 113.321C156.007 90.6403 155.416 82.5422 154.484 55.5908C154.302 50.1819 154.097 44.7729 154.029 43.5703C153.96 42.3366 153.801 36.5792 153.688 30.7588C153.495 22.0295 153.044 10.2995 152.531 0H157.435C157.436 0.994543 157.438 2.04118 157.439 3.14258Z" fill="url(#paint25_linear_3633_17479)" fill-opacity="0.5"/>
<path d="M72.1185 0C72.4889 18.8192 72.6691 48.6936 72.3021 58.4375C71.8473 70.7422 71.4147 75.8039 71.0509 73.4639C70.9372 72.7047 70.6195 65.1124 70.3466 56.2236C69.6169 32.7419 68.837 16.9981 67.5169 0H72.1185Z" fill="url(#paint26_linear_3633_17479)" fill-opacity="0.5"/>
<path d="M166.146 0C165.578 9.72365 165.472 17.3625 165.672 28.8604C165.899 43.7595 165.853 48.916 165.376 57.5518C165.148 61.3471 164.99 65.0794 164.99 65.8711C165.013 67.1997 164.989 67.2314 164.807 66.3457C164.58 65.2671 164.171 48.0292 164.148 38.8564C164.148 33.9851 164.011 31.3279 163.352 24.1475C162.428 13.8719 162.034 8.05161 161.84 0H166.146Z" fill="url(#paint27_linear_3633_17479)" fill-opacity="0.5"/>
<path d="M114.917 2.7002C114.757 27.2475 114.37 52.6807 114.143 52.9971C114.052 53.1193 113.848 50.1153 113.689 46.3535C113.079 31.2186 112.187 12.9897 111.454 0H114.931C114.926 0.853763 114.923 1.75315 114.917 2.7002Z" fill="url(#paint28_linear_3633_17479)" fill-opacity="0.5"/>
<path d="M47.2558 0C46.88 7.23737 46.4473 15.046 46.2194 18.2637C45.5145 28.9239 45.3557 29.2084 45.1284 20.2246C44.9595 13.0147 44.7276 6.46732 44.4241 0H47.2558Z" fill="url(#paint29_linear_3633_17479)" fill-opacity="0.5"/>
<defs>
<linearGradient id="paint0_linear_3633_17479" x1="95" y1="-0.00195313" x2="95" y2="319.998" gradientUnits="userSpaceOnUse">
<stop stop-color="white" stop-opacity="0"/>
<stop offset="1" stop-color="white"/>
</linearGradient>
<linearGradient id="paint1_linear_3633_17479" x1="95" y1="0" x2="95" y2="320" gradientUnits="userSpaceOnUse">
<stop stop-color="white" stop-opacity="0"/>
<stop offset="1" stop-color="white"/>
</linearGradient>
<linearGradient id="paint2_linear_3633_17479" x1="95" y1="0" x2="95" y2="320" gradientUnits="userSpaceOnUse">
<stop stop-color="white" stop-opacity="0"/>
<stop offset="1" stop-color="white"/>
</linearGradient>
<linearGradient id="paint3_linear_3633_17479" x1="95" y1="0" x2="95" y2="320" gradientUnits="userSpaceOnUse">
<stop stop-color="white" stop-opacity="0"/>
<stop offset="1" stop-color="white"/>
</linearGradient>
<linearGradient id="paint4_linear_3633_17479" x1="95" y1="0" x2="95" y2="320" gradientUnits="userSpaceOnUse">
<stop stop-color="white" stop-opacity="0"/>
<stop offset="1" stop-color="white"/>
</linearGradient>
<linearGradient id="paint5_linear_3633_17479" x1="95" y1="0" x2="95" y2="320" gradientUnits="userSpaceOnUse">
<stop stop-color="white" stop-opacity="0"/>
<stop offset="1" stop-color="white"/>
</linearGradient>
<linearGradient id="paint6_linear_3633_17479" x1="95" y1="0" x2="95" y2="320" gradientUnits="userSpaceOnUse">
<stop stop-color="white" stop-opacity="0"/>
<stop offset="1" stop-color="white"/>
</linearGradient>
<linearGradient id="paint7_linear_3633_17479" x1="95" y1="0" x2="95" y2="320" gradientUnits="userSpaceOnUse">
<stop stop-color="white" stop-opacity="0"/>
<stop offset="1" stop-color="white"/>
</linearGradient>
<linearGradient id="paint8_linear_3633_17479" x1="95" y1="0" x2="95" y2="320" gradientUnits="userSpaceOnUse">
<stop stop-color="white" stop-opacity="0"/>
<stop offset="1" stop-color="white"/>
</linearGradient>
<linearGradient id="paint9_linear_3633_17479" x1="95" y1="0" x2="95" y2="320" gradientUnits="userSpaceOnUse">
<stop stop-color="white" stop-opacity="0"/>
<stop offset="1" stop-color="white"/>
</linearGradient>
<linearGradient id="paint10_linear_3633_17479" x1="95" y1="0" x2="95" y2="320" gradientUnits="userSpaceOnUse">
<stop stop-color="white" stop-opacity="0"/>
<stop offset="1" stop-color="white"/>
</linearGradient>
<linearGradient id="paint11_linear_3633_17479" x1="95" y1="0" x2="95" y2="320" gradientUnits="userSpaceOnUse">
<stop stop-color="white" stop-opacity="0"/>
<stop offset="1" stop-color="white"/>
</linearGradient>
<linearGradient id="paint12_linear_3633_17479" x1="95" y1="0" x2="95" y2="320" gradientUnits="userSpaceOnUse">
<stop stop-color="white" stop-opacity="0"/>
<stop offset="1" stop-color="white"/>
</linearGradient>
<linearGradient id="paint13_linear_3633_17479" x1="95" y1="0" x2="95" y2="320" gradientUnits="userSpaceOnUse">
<stop stop-color="white" stop-opacity="0"/>
<stop offset="1" stop-color="white"/>
</linearGradient>
<linearGradient id="paint14_linear_3633_17479" x1="95" y1="0" x2="95" y2="320" gradientUnits="userSpaceOnUse">
<stop stop-color="white" stop-opacity="0"/>
<stop offset="1" stop-color="white"/>
</linearGradient>
<linearGradient id="paint15_linear_3633_17479" x1="95" y1="0" x2="95" y2="320" gradientUnits="userSpaceOnUse">
<stop stop-color="white" stop-opacity="0"/>
<stop offset="1" stop-color="white"/>
</linearGradient>
<linearGradient id="paint16_linear_3633_17479" x1="95" y1="0" x2="95" y2="320" gradientUnits="userSpaceOnUse">
<stop stop-color="white" stop-opacity="0"/>
<stop offset="1" stop-color="white"/>
</linearGradient>
<linearGradient id="paint17_linear_3633_17479" x1="95" y1="0" x2="95" y2="320" gradientUnits="userSpaceOnUse">
<stop stop-color="white" stop-opacity="0"/>
<stop offset="1" stop-color="white"/>
</linearGradient>
<linearGradient id="paint18_linear_3633_17479" x1="95" y1="0" x2="95" y2="320" gradientUnits="userSpaceOnUse">
<stop stop-color="white" stop-opacity="0"/>
<stop offset="1" stop-color="white"/>
</linearGradient>
<linearGradient id="paint19_linear_3633_17479" x1="95" y1="0" x2="95" y2="320" gradientUnits="userSpaceOnUse">
<stop stop-color="white" stop-opacity="0"/>
<stop offset="1" stop-color="white"/>
</linearGradient>
<linearGradient id="paint20_linear_3633_17479" x1="95" y1="0" x2="95" y2="320" gradientUnits="userSpaceOnUse">
<stop stop-color="white" stop-opacity="0"/>
<stop offset="1" stop-color="white"/>
</linearGradient>
<linearGradient id="paint21_linear_3633_17479" x1="95" y1="0" x2="95" y2="320" gradientUnits="userSpaceOnUse">
<stop stop-color="white" stop-opacity="0"/>
<stop offset="1" stop-color="white"/>
</linearGradient>
<linearGradient id="paint22_linear_3633_17479" x1="95" y1="0" x2="95" y2="320" gradientUnits="userSpaceOnUse">
<stop stop-color="white" stop-opacity="0"/>
<stop offset="1" stop-color="white"/>
</linearGradient>
<linearGradient id="paint23_linear_3633_17479" x1="95" y1="0" x2="95" y2="320" gradientUnits="userSpaceOnUse">
<stop stop-color="white" stop-opacity="0"/>
<stop offset="1" stop-color="white"/>
</linearGradient>
<linearGradient id="paint24_linear_3633_17479" x1="95" y1="0" x2="95" y2="320" gradientUnits="userSpaceOnUse">
<stop stop-color="white" stop-opacity="0"/>
<stop offset="1" stop-color="white"/>
</linearGradient>
<linearGradient id="paint25_linear_3633_17479" x1="95" y1="0" x2="95" y2="320" gradientUnits="userSpaceOnUse">
<stop stop-color="white" stop-opacity="0"/>
<stop offset="1" stop-color="white"/>
</linearGradient>
<linearGradient id="paint26_linear_3633_17479" x1="95" y1="0" x2="95" y2="320" gradientUnits="userSpaceOnUse">
<stop stop-color="white" stop-opacity="0"/>
<stop offset="1" stop-color="white"/>
</linearGradient>
<linearGradient id="paint27_linear_3633_17479" x1="95" y1="0" x2="95" y2="320" gradientUnits="userSpaceOnUse">
<stop stop-color="white" stop-opacity="0"/>
<stop offset="1" stop-color="white"/>
</linearGradient>
<linearGradient id="paint28_linear_3633_17479" x1="95" y1="0" x2="95" y2="320" gradientUnits="userSpaceOnUse">
<stop stop-color="white" stop-opacity="0"/>
<stop offset="1" stop-color="white"/>
</linearGradient>
<linearGradient id="paint29_linear_3633_17479" x1="95" y1="0" x2="95" y2="320" gradientUnits="userSpaceOnUse">
<stop stop-color="white" stop-opacity="0"/>
<stop offset="1" stop-color="white"/>
</linearGradient>
</defs>
</svg>
