<svg width="23" height="30" viewBox="0 0 23 30" fill="none" xmlns="http://www.w3.org/2000/svg">
<path fill-rule="evenodd" clip-rule="evenodd" d="M16.8071 5.99319C12.4026 5.99319 12.7278 0 16.5376 0C20.4218 0 20.5193 5.99319 16.8071 5.99319ZM23 13.8897V16.4071L18.5 15.9036L17.1172 13.8889L18.5 10.8689L19.9862 13.5556L23 13.8897ZM0 20.9383L6.85517 20.2222L11.0483 10H8.51035L5.2 15.6667C5.2 15.6667 3.25096 15.1401 4.09655 13C4.94214 10.8599 6.74483 6.88889 6.74483 6.88889L13.2552 6.55556C13.2552 6.55556 16.5 6.88889 17.5 8.85502L15.0207 16L18.6621 20.7778L20.4276 30H17.669L15.5724 22.2222L12.0263 19.0637L9.06207 23.4444H0V20.9383Z" fill="white"/>
</svg>
