<svg height='100px' width='100px'  fill="#ffffff" xmlns="http://www.w3.org/2000/svg" xmlns:xlink="http://www.w3.org/1999/xlink" version="1.1" x="0px" y="0px" viewBox="0 0 64 64" style="enable-background:new 0 0 64 64;" xml:space="preserve"><g><path d="M11,32v11H4c-1.654,0-3,1.346-3,3s1.346,3,3,3h6c1.654,0,3-1.346,3-3V32c0-0.551,0.448-1,1-1h3v-2h-3   C12.346,29,11,30.346,11,32z"></path><path d="M36.205,47h7.589c0.422-0.614,0.735-1.287,0.934-2h-9.458C35.47,45.713,35.784,46.386,36.205,47z"></path><path d="M41.088,36.873C41.504,39.213,43.542,41,46,41h2.438C49.851,41,51,39.851,51,38.438v-0.877C51,36.149,49.851,35,48.438,35   c-0.209,0-0.418,0.026-0.622,0.077l-5.663,1.416C41.816,36.655,41.463,36.789,41.088,36.873z"></path><path d="M40,39.587c-1.057,1.762-2.863,3.018-4.978,3.33c-0.001,0.028-0.006,0.056-0.006,0.083h9.968   c-0.001-0.028-0.005-0.056-0.007-0.083C42.863,42.605,41.057,41.348,40,39.587z"></path><path d="M39.128,50.592c0.432,0.519,1.312,0.519,1.745,0L42.199,49h-4.397L39.128,50.592z"></path><path d="M23.581,57.581C24.263,59.626,26.169,61,28.324,61h23.352c2.155,0,4.062-1.374,4.743-3.418L56.613,57H23.387L23.581,57.581   z"></path><circle cx="40" cy="32" r="3"></circle><path d="M51.964,5.051C51.554,3.824,50.41,3,49.117,3H30.883c-1.293,0-2.437,0.824-2.847,2.051L27.387,7h25.227L51.964,5.051z"></path><path d="M19,28v4c0,0.551,0.448,1,1,1h1v-6h-1C19.448,27,19,27.449,19,28z"></path><path d="M23,55h34V21H23V55z M55,53h-2v-2h2V53z M55,49h-2v-2h2V49z M55,45h-2v-2h2V45z M31.562,33   c0.373,0,0.745,0.046,1.106,0.136l2.683,0.671C35.131,33.245,35,32.639,35,32c0-1.854,1.026-3.457,2.529-4.32l-2.326-3.077   l1.596-1.206l2.758,3.648C39.705,27.031,39.848,27,40,27s0.295,0.031,0.444,0.045l2.758-3.648l1.596,1.206l-2.326,3.077   C43.974,28.543,45,30.146,45,32c0,0.639-0.132,1.245-0.351,1.807l2.683-0.671C47.693,33.046,48.065,33,48.438,33   C50.954,33,53,35.046,53,37.562v0.877C53,40.954,50.954,43,48.438,43h-1.454C46.986,43.067,47,43.135,47,43.202   c0,2.038-0.719,4.022-2.022,5.588l-2.568,3.082C41.811,52.589,40.933,53,40,53s-1.811-0.411-2.408-1.127l-2.569-3.083   C33.719,47.224,33,45.24,33,43.202c0-0.067,0.014-0.135,0.016-0.202h-1.454C29.046,43,27,40.954,27,38.438v-0.877   C27,35.046,29.046,33,31.562,33z M25,23h2v2h-2V23z M25,27h2v2h-2V27z M25,31h2v2h-2V31z"></path><path d="M31.562,41H34c2.458,0,4.496-1.787,4.912-4.127c-0.375-0.084-0.729-0.218-1.067-0.381l-5.661-1.415   C31.979,35.026,31.771,35,31.562,35C30.149,35,29,36.149,29,37.562v0.877C29,39.851,30.149,41,31.562,41z"></path><path d="M60,9H20c-0.552,0-1,0.449-1,1v2c0,0.551,0.448,1,1,1h40c0.552,0,1-0.449,1-1v-2C61,9.449,60.552,9,60,9z"></path><rect x="23" y="15" width="34" height="4"></rect></g></svg>