<?xml version="1.0" encoding="UTF-8" standalone="no"?>
<svg
   width="36"
   height="36"
   viewBox="0 0 36 36"
   fill="none"
   version="1.1"
   id="svg1"
   sodipodi:docname="extraction_point.svg"
   xmlns:inkscape="http://www.inkscape.org/namespaces/inkscape"
   xmlns:sodipodi="http://sodipodi.sourceforge.net/DTD/sodipodi-0.dtd"
   xmlns="http://www.w3.org/2000/svg"
   xmlns:svg="http://www.w3.org/2000/svg">
  <sodipodi:namedview
     id="namedview1"
     pagecolor="#ffffff"
     bordercolor="#000000"
     borderopacity="0.25"
     inkscape:showpageshadow="2"
     inkscape:pageopacity="0.0"
     inkscape:pagecheckerboard="0"
     inkscape:deskcolor="#d1d1d1" />
  <defs
     id="defs1" />
  <rect
     style="fill:#000000;fill-opacity:0.8"
     id="rect1"
     width="28.504658"
     height="35.657917"
     x="3.9017777"
     y="0.21676582" />
  <path
     fill-rule="evenodd"
     clip-rule="evenodd"
     d="m 7.2362405,2.1202371 c -0.552285,0 -1,0.447715 -1,1 V 25.120237 l 6.8551705,-0.7112 4.19313,-10.1517 h -2.53795 l -3.31035,5.6276 c 0,0 -1.9490405,-0.523 -1.10345,-2.6483 0.84559,-2.1253 2.64828,-6.06897 2.64828,-6.06897 l 6.51037,-0.33103 c 0,0 3.2448,0.33103 4.2448,2.2836 l -2.4793,7.0957 3.6414,4.7448 1.7655,9.1587 h -2.7586 l -2.0966,-7.7242 -3.5461,-3.1367 -2.96423,4.3505 H 6.2362405 v 5.5112 c 0,0.5523 0.447716,1 1,1 H 29.236241 c 0.5523,0 1,-0.4477 1,-1 V 3.1202371 c 0,-0.552285 -0.4477,-1 -1,-1 z M 23.043341,10.278147 c -4.4045,0 -4.0793,-5.9518599 -0.2695,-5.9518599 3.8842,0 3.9817,5.9518599 0.2695,5.9518599 z m 6.1929,10.34209 v -2.5 l -3.0138,-0.3319 -1.4862,-2.6681 -1.3828,2.9992 1.3828,2.0008 z"
     fill="#f0f0f0"
     id="path1" />
</svg>
