<!DOCTYPE svg PUBLIC "-//W3C//DTD SVG 1.1//EN" "http://www.w3.org/Graphics/SVG/1.1/DTD/svg11.dtd">
<!-- Uploaded to: SVG Repo, www.svgrepo.com, Transformed by: SVG Repo Mixer Tools -->
<svg fill="#ffffff" height="800px" width="800px" version="1.1" id="Capa_1" xmlns="http://www.w3.org/2000/svg" xmlns:xlink="http://www.w3.org/1999/xlink" viewBox="0 0 296 296" xml:space="preserve" stroke="#ffffff">
<g id="SVGRepo_bgCarrier" stroke-width="0"/>
<g id="SVGRepo_tracerCarrier" stroke-linecap="round" stroke-linejoin="round"/>
<g id="SVGRepo_iconCarrier"> <g> <path d="M139.339,63.1c-16.687,0-30.22,13.532-30.22,30.223c0,16.689,13.532,30.222,30.22,30.222 c16.693,0,30.225-13.532,30.225-30.222C169.563,76.632,156.032,63.1,139.339,63.1z M139.339,103.39 c-5.55,0-10.065-4.516-10.065-10.067c0-5.552,4.516-10.068,10.065-10.068c5.553,0,10.07,4.517,10.07,10.068 C149.409,98.874,144.892,103.39,139.339,103.39z"/> <path d="M253,93.681v-0.72c0-10.729-9-19.424-20-19.424V47.493C233,21.256,212.128,0,185.891,0H91.352 C65.115,0,43,21.256,43,47.493v201.014C43,274.744,65.115,296,91.352,296h94.538C212.128,296,233,274.744,233,248.507v-20.646 c11,0,20-8.695,20-19.426v-36.69c0-10.73-9-19.427-20-19.427v-39.213C244,113.105,253,104.408,253,93.681z M173,240h-70v-20h70V240 z M139.339,164.55c-39.337,0-71.226-31.89-71.226-71.228c0-39.34,31.889-71.23,71.226-71.23c39.344,0,71.23,31.891,71.23,71.23 C210.569,132.66,178.683,164.55,139.339,164.55z"/> </g> </g>
</svg>