<svg width="52" height="52" viewBox="0 0 52 52" fill="none" xmlns="http://www.w3.org/2000/svg">
<path fill-rule="evenodd" clip-rule="evenodd" d="M26 5C29.5843 4.99865 32.8464 6.39589 35.1924 8.64684C37.541 10.8951 39.0013 14.018 39 17.4513C39.0014 20.3751 37.942 24.0029 36.1746 26.1258C35.9849 26.3534 35.8052 26.567 35.636 26.7681L35.6354 26.7687C35.1044 27.3997 34.6767 27.9079 34.3687 28.3411C33.9595 28.9176 33.7501 29.3293 33.6069 29.8835C33.5146 30.2542 33.458 30.7068 33.458 31.3163C33.458 31.8362 33.3919 32.3415 33.2156 32.8349C33.0407 33.3257 32.739 33.8073 32.3092 34.182C32.0254 34.4327 31.692 34.6279 31.3504 34.7586C30.893 34.934 30.426 35 29.9866 35H22.0148C21.5202 35 20.9899 34.9168 20.4815 34.6886C19.9718 34.463 19.5076 34.0816 19.1949 33.6277C18.9827 33.3269 18.8326 32.9997 18.732 32.6698C18.5969 32.2279 18.5432 31.778 18.5432 31.3162C18.5419 30.6301 18.4717 30.1446 18.3573 29.7461C18.2402 29.349 18.0818 29.0178 17.8215 28.6167C17.6479 28.3502 17.4289 28.0573 17.1588 27.7221C16.9461 27.4574 16.7015 27.1669 16.4293 26.8437C16.2416 26.6207 16.0407 26.3821 15.8281 26.1257C14.0594 24.0027 12.9986 20.3763 13 17.4512C12.9987 14.018 14.4588 10.8951 16.8076 8.64684C19.1536 6.39589 22.4156 4.99865 26 5ZM29 44C29 45.6576 27.6561 47 26 47C24.344 47 23.0001 45.6576 23 44H29ZM30.5631 36H21.4369C20.6426 36 20 36.6711 20 37.4993C20 38.3288 20.6425 39 21.4369 39H30.5631C31.3561 39 32 38.3289 32 37.4993C32 36.6711 31.3561 36 30.5631 36ZM21.4369 40H30.5631C31.3561 40 32 40.6711 32 41.4993C32 42.3289 31.3561 43 30.5631 43H21.4369C20.6425 43 20 42.3288 20 41.4993C20 40.6711 20.6426 40 21.4369 40Z" fill="white"/>
</svg>
