<svg width="16" height="16" viewBox="0 0 16 16" fill="none" xmlns="http://www.w3.org/2000/svg">
<path d="M10.9897 8.24242C12.6649 7.1558 13.7221 6.84399 16 7.27273V15.7576C16 15.7576 15.6421 16 14.0913 16C13.2379 16 12.3123 15.7064 11.6524 15.4422C11.0722 15.21 10.4165 15.1815 9.81908 15.3648C8.90534 15.6452 7.37842 16 5.50233 16C3.60566 16 2.31319 14.9517 0.681553 12.7928C0.227866 12.1925 0.00205154 11.4988 0.215416 10.7772C0.385803 10.201 0.685743 9.32623 1.20783 8C2.41201 4.94108 5.13564 1.71061 5.97028 0.761773C6.12898 0.581359 6.34948 0.470013 6.58825 0.443057L8.968 0.174384C9.87664 0.0717977 10.7391 0.598537 11.0629 1.45374L11.4585 2.49893C11.605 2.88609 11.4798 3.32354 11.1505 3.57446C10.9347 3.73895 10.6246 3.68589 10.4757 3.45899L10.4332 3.39423C10.3346 3.24382 10.3227 3.05246 10.4022 2.89105L10.4661 2.76118C10.4954 2.70158 10.4954 2.63175 10.4661 2.57215C10.3876 2.41275 10.1604 2.41275 10.0819 2.57215L10.0085 2.72127C9.87643 2.98976 9.8885 3.30675 10.0406 3.56442L10.3207 4.03863C10.4285 4.2213 10.3757 4.45635 10.2001 4.57532C9.95226 4.7432 9.63182 4.75892 9.36334 4.62654C8.79877 4.3482 7.84345 3.91674 7.5 4C7 4.12121 6.5 6 6.5 6L5.79514 8.75757C5.75941 8.89733 5.69387 9.02771 5.60301 9.13976L4.5 10.5C6.11423 8.84036 7.15176 8.49998 9.08108 8.48485C10.7841 8.51717 11.6535 8.88604 13 9.5C12.4342 8.8702 11.8992 8.57315 10.9897 8.24242Z" fill="white"/>
</svg>
