<svg xmlns="http://www.w3.org/2000/svg" width="128" height="128" viewBox="0 0 128 128">
  <defs>
    <style>
      .cls-1 {
        fill: #e6e6e6;
        fill-rule: evenodd;
      }
    </style>
  </defs>
  <path class="cls-1" d="M42.408,10.984a30.486,30.486,0,0,1,16.669,5.034L64,19.228l4.922-3.21a30.485,30.485,0,0,1,16.67-5.034h0.094a32.883,32.883,0,0,1,21.265,8.079L107,19.1l0.045,0.038A28.079,28.079,0,0,1,117,40.367c0,10.953-5.078,21.727-14.685,31.158l-0.116.113-0.111.117L64,111.932,25.861,71.7l-0.108-.114-0.112-.11C16.063,62.06,11,51.3,11,40.376a28.078,28.078,0,0,1,9.965-21.24l0.045-.038,0.044-.039a32.883,32.883,0,0,1,21.259-8.076h0.1m0-8.984H42.266A41.89,41.89,0,0,0,15.127,12.3,37.082,37.082,0,0,0,2,40.334v0.035c0,13.7,6.236,26.606,17.324,37.512L64,125l44.625-47.071C119.746,67.014,126,54.088,126,40.367V40.334A37.086,37.086,0,0,0,112.879,12.3,41.887,41.887,0,0,0,85.734,2H85.592A39.534,39.534,0,0,0,64,8.5,39.536,39.536,0,0,0,42.408,2h0ZM42.346,20.967a22.818,22.818,0,0,0-14.707,5.606l-0.122.105A18.16,18.16,0,0,0,21,40.423c0,8.147,4.032,16.443,11.659,23.945l0.472,0.482L64,97.408l31.3-33c7.651-7.511,11.7-15.824,11.7-24.039a18.081,18.081,0,0,0-6.448-13.632L100.4,26.6A22.893,22.893,0,0,0,85.63,20.967a20.57,20.57,0,0,0-11.237,3.408L64,31.153,53.608,24.375a20.5,20.5,0,0,0-11.2-3.408H42.346Z"/>
</svg>
