<svg width="52" height="52" viewBox="0 0 52 52" fill="none" xmlns="http://www.w3.org/2000/svg">
<path fill-rule="evenodd" clip-rule="evenodd" d="M3.12 21.6386C2.64 23.2246 2 31.3929 2 31.3929H3.44C3.44 31.3929 4.95999 31.3929 5.35999 30.7585C5.52054 30.5038 5.83574 29.7254 6.2073 28.8078L6.20732 28.8077L6.20733 28.8077C6.69281 27.6087 7.2745 26.1721 7.73322 25.3556C7.68583 28.1977 7.69172 32.4132 8.95168 33.7906C10.5077 35.4916 11.7395 35.83 13.2086 36.2334L13.255 36.2462C14.7446 36.6554 15.655 37.5558 15.655 37.5558C15.655 37.5558 19.2127 33.7906 25.9987 33.7906C32.7853 33.7906 36.3442 37.5558 36.3442 37.5558C36.3442 37.5558 37.2546 36.6554 38.7443 36.2462L38.7907 36.2334C40.2599 35.8299 41.4919 35.4916 43.048 33.7906C44.3081 32.4132 44.314 28.1975 44.2666 25.3554C44.7253 26.1718 45.3071 27.6084 45.7926 28.8074L45.7927 28.8077L45.7927 28.8077L45.7927 28.8078L45.7928 28.808C46.1643 29.7255 46.4795 30.5038 46.64 30.7585C47.04 31.3929 48.56 31.3929 48.56 31.3929H50C50 31.3929 49.36 23.2246 48.88 21.6386C48.6547 20.894 48.1473 20.3242 47.6641 19.7815C47.1178 19.1681 46.6025 18.5894 46.56 17.832C46.48 16.4045 45.9553 9.35782 40.88 4.75821C36 0.335599 30.6399 0 25.9999 0C21.36 0 16 0.335599 11.12 4.75822C6.04469 9.35783 5.51999 16.4045 5.43999 17.832C5.39755 18.5894 4.88216 19.1682 4.33595 19.7816C3.8527 20.3243 3.34532 20.894 3.12 21.6386ZM42.216 21.7238C44.0981 22.1226 45.0995 22.7866 45.84 23.7798C46.7768 25.0362 47.372 26.6689 47.887 28.0818L47.8871 28.0819L47.8872 28.0822C48.1198 28.7202 48.336 29.3134 48.56 29.8068C49.28 31.3929 50 31.3929 50 31.3929C50 31.3929 47.44 22.9074 45.52 21.242C43.6 19.5767 41.36 18.7043 35.28 18.7043L25.9999 18.7043H16.72C10.64 18.7043 8.39998 19.5767 6.47999 21.2421C4.55999 22.9074 2 31.3929 2 31.3929C2 31.3929 2.72 31.3929 3.44 29.8068C3.66403 29.3133 3.88031 28.72 4.11295 28.0818C4.62798 26.6689 5.22316 25.0362 6.15999 23.7798C6.90033 22.7868 7.90145 22.1229 9.78281 21.7241C11.5218 21.1852 13.7516 21.1852 13.7516 21.1852H25.9987H38.2477C38.2477 21.1852 40.4769 21.1852 42.216 21.7238ZM23.0179 28.881C23.0179 32.0455 20.4243 34.6108 17.225 34.6108L17.2199 34.6108L15.7354 35.5897C11.432 32.8067 11.432 30.1874 11.432 29.0414L11.4344 29.0476C11.4328 28.9923 11.432 28.9367 11.432 28.881C11.432 25.7166 14.0256 23.1513 17.225 23.1513C20.4243 23.1513 23.0179 25.7166 23.0179 28.881ZM28.9806 28.881C28.9806 32.0455 31.5744 34.6108 34.774 34.6108H34.7791L36.2637 35.5896C40.5674 32.8066 40.5674 30.1873 40.5674 29.0414L40.565 29.0476C40.5666 28.9922 40.5674 28.9367 40.5674 28.881C40.5674 25.7166 37.9736 23.1513 34.774 23.1513C31.5744 23.1513 28.9806 25.7166 28.9806 28.881ZM34.7722 33.9537C31.9383 33.9537 29.6409 31.6816 29.6409 28.8788C29.6409 26.076 31.9383 23.8039 34.7722 23.8039C37.6062 23.8039 39.9036 26.076 39.9036 28.8788C39.9036 31.6816 37.6062 33.9537 34.7722 33.9537ZM34.7729 33.1371C32.396 33.1371 30.4692 31.2314 30.4692 28.8807C30.4692 26.53 32.396 24.6244 34.7729 24.6244C37.1498 24.6244 39.0766 26.53 39.0766 28.8807C39.0766 31.2314 37.1498 33.1371 34.7729 33.1371ZM36.592 38.7012C36.2609 38.0464 32.2883 34.2812 25.9982 34.2812C19.7098 34.2819 15.7382 38.0465 15.4072 38.7012L17.7244 40.9931V49.5059C19.4186 51.1217 23.6623 52 26 52V52C28.3383 51.9995 32.5807 51.1213 34.2746 49.5058V40.9931L36.592 38.7012ZM38.9117 42.4043V38.2102C38.9117 38.2102 37.5875 38.5376 37.0081 39.1106L35.1046 40.9932V48.1963C37.4142 47.2032 38.9117 44.925 38.9117 42.4043ZM22.3577 28.8788C22.3577 31.6816 20.0605 33.9537 17.2268 33.9537C14.393 33.9537 12.0958 31.6816 12.0958 28.8788C12.0958 26.076 14.393 23.8039 17.2268 23.8039C20.0605 23.8039 22.3577 26.076 22.3577 28.8788ZM21.5294 28.8807C21.5294 31.2315 19.6028 33.1371 17.2261 33.1371C14.8494 33.1371 12.9228 31.2315 12.9228 28.8807C12.9228 26.53 14.8494 24.6244 17.2261 24.6244C19.6028 24.6244 21.5294 26.53 21.5294 28.8807ZM13.0876 42.4043V38.2103C13.0876 38.2103 14.4117 38.5377 14.991 39.1106L16.8944 40.9933V48.1963C14.585 47.2032 13.0876 44.925 13.0876 42.4043Z" fill="white"/>
</svg>
