<svg width="35" height="35" viewBox="0 0 35 35" fill="none" xmlns="http://www.w3.org/2000/svg">
<path d="M31.5 30.7575V25.4981C31.5 23.9333 30.8 22.2293 29.4 21.3252C28 20.4211 23.775 19.2039 23 18.9605C22.225 18.7171 22 18.0216 22 17.5C22 16.9784 22.225 16.5263 23 16.0395C23.775 15.5526 29.4 11.7274 29.4 11.7274C30.8 10.6842 31.5 9.11936 31.5 7.55451V4.24248C33.6 3.02538 35 4.17293 35 1.73872C35 0.695488 34.3 0 33.25 0H1.75C0.7 0 0 0.695488 0 1.73872C0 4.3468 1.4 3.02538 3.5 4.24248V7.55451C3.5 9.11936 4.2 10.6842 5.6 11.7274C5.6 11.7274 11.225 15.5526 12 16.0395C12.775 16.5263 13 16.9784 13 17.5C13 18.0216 12.775 18.4737 12 18.9605C11.225 19.4474 7 20.4211 5.6 21.3252C4.2 22.2293 3.5 23.9333 3.5 25.4981V30.7575C1.4 31.9746 0 30.8271 0 33.2613C0 34.3045 0.7 35 1.75 35H33.25C34.3 35 35 34.3045 35 33.2613C35 30.6532 33.6 31.9746 31.5 30.7575ZM11.2 11.8665C10.5 11.5188 10.325 10.6494 10.5 9.95395C10.85 9.25846 11.55 8.73684 12.25 8.73684H22.75C23.45 8.73684 24.15 9.25846 24.5 9.95395C24.675 10.6494 24.5 11.5188 23.8 11.8665L18.55 14.8571C18.2 15.031 17.85 15.2049 17.5 15.2049C17.15 15.2049 16.8 15.031 16.45 14.8571L11.2 11.8665ZM16.275 23.516C16.975 22.8205 18.025 22.8205 18.725 23.516L27.95 30.688H7.05L16.275 23.516Z" fill="white"/>
</svg>
