<svg width="20" height="20" viewBox="0 0 20 20" fill="none" xmlns="http://www.w3.org/2000/svg">
<path d="M10 2C12.281 2.48346 14.6713 2.89815 17 3V12.0017C17 14 12.5968 16.9892 10 18C7.42178 17.008 3 14 3 12.0017V3C4.80909 2.91039 7.58718 2.56059 10 2ZM9.99999 0C6.10475 1.00031 1 1.00031 1 1.00031V11.9954C0.995866 16.9949 9.99999 20 9.99999 20C9.99999 20 19 17.0011 19 12.0017V1.00031C19 1.00031 13.9799 1.00031 10.002 0H9.99999Z" fill="white"/>
<path d="M9.95966 8C8.39717 8.0002 6.84905 8.66085 7.0118 9.98097L7.4107 12.8504C7.48071 13.3553 7.82755 14.1627 8.34552 14.1627H8.38242L8.80664 18.6076C8.82499 18.8242 8.98455 19 9.20554 19H10.8011C11.0221 19 11.1817 18.8242 11.2 18.6076L11.6243 14.1627H11.6614C12.1793 14.1627 12.526 13.3553 12.5962 12.8504L12.9951 9.98097C13.0996 8.65967 11.5223 7.99961 9.95966 8Z" fill="white"/>
<path d="M10 7C11.1046 7 12 6.10457 12 5C12 3.89543 11.1046 3 10 3C8.89543 3 8 3.89543 8 5C8 6.10457 8.89543 7 10 7Z" fill="white"/>
</svg>
