<svg xmlns="http://www.w3.org/2000/svg" width="38" height="38" viewBox="0 0 38 38">
  <defs>
    <style>
      .cls-1 {
        fill: #fff;
        fill-rule: evenodd;
      }
    </style>
  </defs>
  <path class="cls-1" d="M35,22H27v2a3,3,0,0,1-3,3H14a3,3,0,0,1-3-3V22H1V18H3V13a2,2,0,0,1,2-2H8a2,2,0,0,1,2,2v5h1V10H27v8h1V13a2,2,0,0,1,2-2h3a2,2,0,0,1,2,2v5h2v4H35ZM23,12H15v2h8V12Zm0,4H15v2h8V16Zm0,4H15v2h8V20ZM13.866,1.013H24.127L27.007,9H10.986ZM3.512,32.444a3.7,3.7,0,0,1,3.834.138c1.128,0.832.483,4.816,0.107,5.266,0,0-.934-1.836-1.471-1.767s-2.041,1.906-2.041,1.906S2.116,33.033,3.512,32.444ZM3,29V26h7v3a1,1,0,0,1-1,1H4A1,1,0,0,1,3,29Zm32,0a1,1,0,0,1-1,1H29a1,1,0,0,1-1-1V26h7v3Zm-4.974,3.514a3.683,3.683,0,0,1,3.809-.137c1.389,0.583-.427,5.486-0.427,5.486s-0.5-1.817-1.03-1.886-2.458,1.749-2.458,1.749C29.545,37.279,28.9,33.336,30.026,32.514Z"/>
</svg>
