<?xml version="1.0" encoding="UTF-8" standalone="no"?>
<!DOCTYPE svg PUBLIC "-//W3C//DTD SVG 20010904//EN"
              "http://www.w3.org/TR/2001/REC-SVG-20010904/DTD/svg10.dtd">

<svg xmlns="http://www.w3.org/2000/svg"
     width="2.37778in" height="2.37778in"
     viewBox="0 0 214 214">
  <path id="Selection #2"
        fill="#FFFFFF" stroke="#FFFFFF" stroke-width="1"
        d="M 27.00,29.00
           C 27.00,29.00 44.00,26.87 44.00,26.87
             56.56,25.11 68.06,21.84 80.00,17.66
             84.24,16.17 92.08,12.80 96.00,10.69
             98.55,9.32 103.27,5.99 106.00,5.99
             108.72,5.99 113.46,9.32 116.00,10.69
             122.39,14.15 128.20,16.35 135.00,18.78
             155.51,26.12 166.37,26.28 187.00,29.00
             187.00,76.89 192.08,121.46 164.95,164.00
             160.01,171.74 155.47,176.60 149.00,183.00
             140.76,191.14 129.47,199.18 119.00,204.22
             116.25,205.54 109.85,208.53 107.00,208.61
             103.10,208.71 96.45,205.06 93.00,203.14
             82.45,197.29 73.69,191.48 65.00,182.99
             41.14,159.67 27.05,123.32 27.00,90.00
             27.00,90.00 27.00,29.00 27.00,29.00 Z
           M 92.00,45.00
           C 92.00,45.00 74.00,45.00 74.00,45.00
             74.00,45.00 74.00,157.00 74.00,157.00
             74.00,157.00 143.00,157.00 143.00,157.00
             143.00,157.00 143.00,141.00 143.00,141.00
             143.00,141.00 92.00,141.00 92.00,141.00
             92.00,141.00 92.00,45.00 92.00,45.00 Z" />
</svg>
