<?xml version="1.0" encoding="UTF-8" standalone="no"?>
<!-- Generator: Adobe Illustrator 26.1.0, SVG Export Plug-In . SVG Version: 6.00 Build 0)  -->

<svg
   version="1.1"
   id="Layer_1"
   x="0px"
   y="0px"
   viewBox="0 0 100 100"
   style="enable-background:new 0 0 100 100;"
   xml:space="preserve"
   sodipodi:docname="lock.svg"
   inkscape:version="1.1 (c68e22c387, 2021-05-23)"
   xmlns:inkscape="http://www.inkscape.org/namespaces/inkscape"
   xmlns:sodipodi="http://sodipodi.sourceforge.net/DTD/sodipodi-0.dtd"
   xmlns="http://www.w3.org/2000/svg"
   xmlns:svg="http://www.w3.org/2000/svg"><defs
   id="defs11" /><sodipodi:namedview
   id="namedview9"
   pagecolor="#ffffff"
   bordercolor="#666666"
   borderopacity="1.0"
   inkscape:pageshadow="2"
   inkscape:pageopacity="0.0"
   inkscape:pagecheckerboard="0"
   showgrid="false"
   inkscape:zoom="7.53"
   inkscape:cx="50"
   inkscape:cy="50"
   inkscape:window-width="1920"
   inkscape:window-height="1137"
   inkscape:window-x="1192"
   inkscape:window-y="709"
   inkscape:window-maximized="1"
   inkscape:current-layer="Layer_1" />
<style
   type="text/css"
   id="style2">
	.st0{fill:#FFFFFF;}
</style>
<g
   id="g6"
   style="fill:#ffffff">
	<path
   class="st0"
   d="M82,45.8h-3.3V33.7C78.7,17.9,65.8,5,50,5S21.3,17.9,21.3,33.7v12.1H18c-2.2,0-4.1,1.8-4.1,4.1v41   c0,2.2,1.8,4.1,4.1,4.1h64c2.2,0,4.1-1.8,4.1-4.1v-41C86.1,47.7,84.3,45.8,82,45.8z M32.9,33.7c0-9.4,7.7-17.1,17.1-17.1   s17.1,7.7,17.1,17.1v12.1H32.9V33.7z M54.2,72v8.7c0,2.3-1.9,4.2-4.2,4.2s-4.2-1.9-4.2-4.2V72c-1.9-1.3-3.2-3.6-3.2-6.1   c0-4.1,3.3-7.4,7.4-7.4s7.4,3.3,7.4,7.4C57.4,68.5,56.1,70.7,54.2,72z"
   id="path4"
   style="fill:#ffffff" />
</g>
</svg>
