<svg height='100px' width='100px'  fill="#ffffff" xmlns="http://www.w3.org/2000/svg" viewBox="0 0 64 64" x="0px" y="0px"><title>glyph speaker on</title><g data-name="speaker on"><path d="M35,8.53a2,2,0,0,0-1,.29L17,19H9a2,2,0,0,0-2,2V43a2,2,0,0,0,2,2h8L34,55.18a2,2,0,0,0,1,.29,2,2,0,0,0,2-2V10.53A2,2,0,0,0,35,8.53ZM11,40V38h2v2Zm2-4H11V28h2Z"></path><polygon points="41.3 25.86 43.05 22.86 41.29 19.64 42.78 16.99 41.03 16.01 39 19.63 40.76 22.83 38.99 25.84 40.75 28.98 38.99 31.98 40.75 35.13 39 38.1 40.76 41.35 38.99 44.37 41.03 47.97 42.77 46.99 41.3 44.38 43.05 41.38 41.29 38.15 43.06 35.16 41.3 32 43.06 29.01 41.3 25.86"></polygon><polygon points="46.3 25.86 48.05 22.86 46.29 19.64 47.78 16.99 46.03 16.01 44 19.63 45.76 22.83 43.99 25.84 45.75 28.98 43.99 31.98 45.75 35.13 44 38.1 45.76 41.35 43.99 44.37 46.03 47.97 47.77 46.99 46.3 44.38 48.05 41.38 46.29 38.15 48.06 35.16 46.3 32 48.06 29.01 46.3 25.86"></polygon><polygon points="51.3 32 53.06 29.01 51.3 25.86 53.05 22.86 51.29 19.64 52.78 16.99 51.03 16.01 49 19.63 50.76 22.83 48.99 25.84 50.75 28.98 48.99 31.98 50.75 35.13 49 38.1 50.76 41.35 48.99 44.37 51.03 47.97 52.77 46.99 51.3 44.38 53.05 41.38 51.29 38.15 53.06 35.16 51.3 32"></polygon></g></svg>