<svg width="22" height="22" viewBox="0 0 22 22" fill="none" xmlns="http://www.w3.org/2000/svg">
<path d="M13.762 5.64978C11.987 5.64978 12 4.92757 12 4V1C12 0.352141 12 0 11 0C10 0 10 0.352141 10 1V4C10 4.92757 10.013 5.64978 8.23748 5.64978C8.10847 5.64978 8 5.73741 8 5.84569V7.8041C8 7.91238 8.10942 8 8.23843 8C10 8 10.2235 7.52675 11 7C11.7767 7.52675 12 8 13.762 8C13.8911 8 14 7.91238 14 7.8041V5.84569C14 5.73741 13.8911 5.64978 13.762 5.64978Z" fill="white"/>
<path d="M9.7329 11.6474C9.58884 10.3477 9.44038 9.00327 9.44038 7.7007C9.44038 4.39481 9.08042 1 5.97086 1C2.19019 1 0.000218707 10.0909 0.000218707 16.4272C-0.00124708 16.6271 -0.0244902 20.3413 1.25975 21.6426C1.49385 21.8796 1.76063 22 2.05316 22C2.82604 22 3.21029 21.7032 3.74237 21.2929C4.40993 20.7778 4.32374 20.0722 6.64282 19.4001C10.5745 18.2605 10.1659 15.5628 9.7329 11.6474Z" fill="white"/>
<path d="M21.9998 16.4288C21.9998 10.0911 19.8098 1 16.0291 1C12.9189 1 12.5595 4.3948 12.5595 7.7007C12.5595 9.00327 12.4109 10.3475 12.2672 11.6473C11.8341 15.5628 11.4252 18.2605 15.3575 19.4001C17.6763 20.0722 17.5904 20.7778 18.2578 21.2925C18.7899 21.7032 19.1742 22 19.9471 22C20.2394 22 20.5062 21.8796 20.7404 21.6426C22.0245 20.3413 22.0014 16.6273 21.9998 16.4288Z" fill="white"/>
</svg>
