<svg width="66" height="80" viewBox="0 0 66 80" fill="none" xmlns="http://www.w3.org/2000/svg">
<path d="M9.66809 9.70616C22.556 -3.23528 43.4512 -3.23549 56.337 9.70616C69.2238 22.6449 69.2236 43.6267 56.337 56.5704C50.7546 62.1742 33.0672 79.9376 33.005 80.0001C33.005 80.0001 15.6075 62.5307 9.66809 56.5704C-3.21978 43.6267 -3.21978 22.6439 9.66809 9.70616ZM52.0939 14.0079C41.5509 3.33097 24.4549 3.33097 13.9103 14.0079C3.36571 24.6816 3.36568 41.9924 13.9103 52.671C18.7643 57.5827 32.972 71.9676 33.004 72.0001C33.004 72.0001 47.5181 57.3025 52.0939 52.671C62.6377 41.9924 62.6377 24.6824 52.0939 14.0079Z" fill="white"/>
</svg>
