<svg xmlns="http://www.w3.org/2000/svg" width="128" height="128" viewBox="0 0 128 128">
  <defs>
    <style>
      .cls-1 {
        fill: #e0e0e0;
        fill-rule: evenodd;
      }
    </style>
  </defs>
  <path class="cls-1" d="M118.033,71.092A57.79,57.79,0,0,0,119.438,58.4C119.438,27.046,94.4,1.63,63.5,1.63S7.57,27.046,7.57,58.4A57.583,57.583,0,0,0,9.664,73.832l-0.009.007c5.1,35.06,24.088,33.2,24.088,33.2l4.864-3.483a47.9,47.9,0,0,1-4.1-11.806q-1.59-.3-3.3-0.767a55.9,55.9,0,0,1-8.433-3.079,10.763,10.763,0,0,1-5.115-4.169c-2.967-4.115-4.771-10.47-5.361-18.888-1.4-20.027,6.655-28.727,7-29.087l0.3-.314,0.379-.211q0.346-.193.7-0.38A48.209,48.209,0,0,1,27.28,25.6a84.976,84.976,0,0,1,36.559-7.95A84.974,84.974,0,0,1,100.4,25.6a48.158,48.158,0,0,1,6.891,9.777l0.125,0.07,0.3,0.314c0.344,0.361,8.4,9.061,7,29.087-0.59,8.418-2.394,14.773-5.361,18.888a10.766,10.766,0,0,1-5.115,4.169A55.922,55.922,0,0,1,95.8,90.984q-1.711.468-3.3,0.768a47.911,47.911,0,0,1-4.1,11.8l4.329,3.1c-0.069.094-.137,0.188-0.208,0.281,0.107-.066.213-0.134,0.32-0.2l0.423,0.3a14.486,14.486,0,0,0,6.8-1.492c-3.343,6.6-4.7,7.855-5,8.071-3.313,2.373-10.373,3.529-16.758,4.05l0.081-.192a3.489,3.489,0,0,0-2.914-4.834l-11.506-.971a10.258,10.258,0,0,0-6.883,1.858,7.7,7.7,0,0,0-3.26,4.947,5.163,5.163,0,0,0,1.025,4.041,10.092,10.092,0,0,0,3.909,3.15,4.765,4.765,0,0,1-.738-2.509c0-3.672,4.474-6.648,9.992-6.648a14.731,14.731,0,0,1,2.723.252c-5.523.765-9.674,4.021-9.674,7.923a5.519,5.519,0,0,0,.261,1.673c0.133,0.011.208,0.011,0.208,0.011l10.164-.681a5.409,5.409,0,0,0,4.441-2.914c1.052-.061,2.161-0.14,3.3-0.239,8.813-.77,15.035-2.417,18.494-4.893,0.981-.7,3.588-2.57,11.331-20.078l0.158-.358A47.145,47.145,0,0,0,115.774,82c0.247-.62.384-0.972,0.39-0.988l-0.176.1q0.181-.773.353-1.577A4.8,4.8,0,0,0,120.43,75,4.544,4.544,0,0,0,118.033,71.092ZM24.912,82.469l0.141,0.172c3.651,1.768,14.25,5.753,19.364,2.994C50.966,82.1,55.589,73.644,56.228,72.125a8.8,8.8,0,0,1,6.938-5.08L63.5,67l0.338,0.04a8.8,8.8,0,0,1,6.938,5.08c0.639,1.519,5.262,9.978,11.811,13.511,5.114,2.759,15.713-1.227,19.365-3l0.455-.22h0.125c0.7-.335,5.426-3.131,6.466-17.973,0.635-9.058-.887-15.313-2.276-18.965A21.377,21.377,0,0,0,103.8,40c-13.3-7.155-34.138-7.447-40.26-7.364H63.465c-6.124-.083-26.957.209-40.26,7.364a21.384,21.384,0,0,0-2.924,5.479C18.892,49.133,17.37,55.388,18,64.446c1.048,14.957,5.836,17.68,6.482,17.98Z"/>
</svg>
