<?xml version="1.0" encoding="UTF-8" standalone="no"?>
<!-- Created with Inkscape (http://www.inkscape.org/) -->

<svg
   version="1.1"
   id="svg1145"
   width="256"
   height="256"
   viewBox="0 0 256 256"
   sodipodi:docname="ms_second.svg"
   inkscape:version="1.1.2 (b8e25be833, 2022-02-05)"
   xmlns:inkscape="http://www.inkscape.org/namespaces/inkscape"
   xmlns:sodipodi="http://sodipodi.sourceforge.net/DTD/sodipodi-0.dtd"
   xmlns="http://www.w3.org/2000/svg"
   xmlns:svg="http://www.w3.org/2000/svg">
  <defs
     id="defs1149" />
  <sodipodi:namedview
     id="namedview1147"
     pagecolor="#ffffff"
     bordercolor="#666666"
     borderopacity="1.0"
     inkscape:pageshadow="2"
     inkscape:pageopacity="0.0"
     inkscape:pagecheckerboard="true"
     showgrid="false"
     width="156px"
     inkscape:zoom="11.849353"
     inkscape:cx="147.34982"
     inkscape:cy="146.4215"
     inkscape:window-width="3840"
     inkscape:window-height="2066"
     inkscape:window-x="-11"
     inkscape:window-y="-11"
     inkscape:window-maximized="1"
     inkscape:current-layer="layer1" />
  <g
     inkscape:groupmode="layer"
     inkscape:label="Image"
     id="g1151" />
  <g
     inkscape:groupmode="layer"
     id="layer1"
     inkscape:label="Image 1">
    <path
       style="fill:#ffffff;fill-opacity:1;stroke-width:0.395018"
       d="M 70.367448,249.58985 C 68.87343,234.78255 67.461861,224.17326 65.663312,214.2337 l -0.911712,-5.03853 0.822575,0.5389 c 0.452423,0.29638 2.637463,1.72799 4.855651,3.18132 23.928254,15.67752 54.848514,20.51604 83.068384,12.99889 10.80602,-2.8785 22.98269,-8.54207 32.16293,-14.95952 1.38119,-0.96552 2.60738,-1.75548 2.72488,-1.75548 0.11751,0 0.0524,0.56217 -0.14466,1.24927 -1.39856,4.87646 -5.51183,35.03586 -5.51183,40.41388 v 1.39378 H 126.68301 70.636482 Z M 113.79889,223.21529 C 92.057369,220.17614 72.931589,210.7576 57.676376,195.57762 49.370644,187.31285 44.147721,180.21106 39.078937,170.29001 27.105613,146.85482 25.111828,118.98599 33.631379,94.144817 c 2.743215,-7.99864 6.050224,-14.77662 10.742077,-22.016761 1.196723,-1.846707 2.2982,-3.446528 2.447714,-3.555161 0.14952,-0.108626 0.816668,-0.997416 1.482559,-1.975088 0.665891,-0.977666 2.559043,-3.318643 4.207013,-5.202162 15.059564,-17.212151 35.257938,-28.589486 57.366188,-32.31322 23.02429,-3.878027 46.68042,0.400221 66.13731,11.961046 4.07221,2.419625 8.91684,5.639722 9.82698,6.531737 0.36715,0.359849 1.44799,1.187543 2.40185,1.839321 2.92623,1.999516 12.74786,12.017874 15.92269,16.241641 7.60566,10.118473 12.22891,18.888676 15.8017,29.975461 1.59323,4.943929 1.61062,5.009269 2.66892,10.021279 2.35889,11.17157 2.6434,24.95972 0.75092,36.39332 -3.36353,20.32125 -13.2292,39.18318 -28.16798,53.85362 -14.60845,14.34603 -32.62004,23.41359 -53.57165,26.96947 -5.23156,0.8879 -22.44229,1.10172 -27.84878,0.34597 z m 25.87369,-9.27257 c 14.93684,-2.27062 28.77932,-8.11043 41.0529,-17.31926 3.84195,-2.88258 10.82947,-9.61534 14.37621,-13.85202 7.67511,-9.16819 14.14432,-21.43284 17.20986,-32.62734 2.73997,-10.00561 3.77172,-19.5662 3.18499,-29.51336 -0.59169,-10.03099 -2.62738,-19.08007 -6.36443,-28.291029 -2.56065,-6.311425 -4.38536,-9.778569 -8.08966,-15.371166 -14.5954,-22.03549 -36.46227,-35.764905 -63.14746,-39.648009 -5.0512,-0.735029 -17.4759,-0.647281 -23.30606,0.164596 -39.702448,5.52876 -70.148151,35.739531 -76.313649,75.724788 -1.066144,6.91428 -0.95565,19.86828 0.226869,26.59779 2.064002,11.74587 5.554103,21.44808 11.194959,31.12111 8.293975,14.22262 21.25126,26.5212 35.858017,34.03514 16.741454,8.61204 35.765964,11.76844 54.117454,8.97876 z M 64.697428,109.78401 c -0.717376,-0.35355 -1.564958,-1.14684 -1.883524,-1.76287 -0.603231,-1.16653 -1.086688,-1.35882 -4.242075,-1.68733 -3.921879,-0.40833 -8.760384,-3.73523 -10.918713,-7.507594 -1.404039,-2.454 -1.497353,-3.399879 -0.43064,-4.365238 1.168816,-1.057773 2.531029,-0.510428 3.70184,1.48741 2.051953,3.501392 6.785029,6.596052 10.088239,6.596052 0.926965,0 1.175201,-0.23211 1.548285,-1.44774 0.496755,-1.61858 0.350375,-2.107277 -0.631347,-2.107734 -1.016746,-3.51e-4 -5.517471,-2.233538 -7.22096,-3.582724 -3.565214,-2.823707 -5.578642,-8.496446 -3.372422,-9.501665 1.325983,-0.604157 2.360684,0.05904 3.38124,2.167216 1.314775,2.715972 4.127882,5.232413 6.89323,6.16628 1.304578,0.440566 2.497751,0.801031 2.651486,0.801031 0.15374,0 0.632736,-0.557866 1.064441,-1.239691 l 0.784912,-1.239682 -1.832418,-0.968508 c -1.007837,-0.532678 -2.405261,-1.40222 -3.105404,-1.932306 -2.628331,-1.989952 -4.847755,-6.430904 -4.301549,-8.607172 0.222974,-0.888387 0.465835,-1.02333 1.841786,-1.02333 1.162843,0 1.643159,0.184097 1.803541,0.691283 1.140752,3.607391 3.069043,5.884517 6.022417,7.111885 l 1.941092,0.806682 1.920448,-1.949771 c 2.846412,-2.889868 7.335866,-5.650778 11.598632,-7.132896 3.528642,-1.226871 4.071022,-1.30471 9.085411,-1.303896 4.085572,0.0011 5.802562,0.164714 7.34163,0.701458 1.104893,0.385319 2.398734,0.775657 2.875214,0.867423 0.47648,0.09176 2.23672,0.931531 3.91166,1.866165 4.04323,2.256155 8.46566,6.673164 10.56012,10.547153 0.86904,1.607411 1.56049,3.029472 1.53656,3.160143 -0.0239,0.130671 0.29436,1.215253 0.70728,2.410179 0.97833,2.831027 1.50099,6.670167 1.06518,7.824367 -0.2964,0.78509 -0.57591,0.89469 -2.01471,0.79005 l -1.67054,-0.12153 -0.92885,-3.55517 c -1.28364,-4.913154 -2.4967,-6.997269 -6.22355,-10.692535 -4.38572,-4.348583 -8.16879,-6.071805 -14.038672,-6.394767 -9.353232,-0.514616 -18.14211,5.948124 -20.551585,15.112222 -0.399859,1.52081 -0.730069,3.3368 -0.733789,4.03552 -0.02272,4.26087 -4.357891,6.8869 -8.223896,4.98163 z M 181.26903,109.556 c -1.4739,-1.04645 -2.48697,-2.97547 -2.49645,-4.75362 -0.004,-0.69872 -0.33393,-2.51471 -0.73379,-4.03552 -2.40948,-9.164098 -11.19835,-15.626838 -20.55159,-15.112222 -5.86989,0.322962 -9.65294,2.046184 -14.03869,6.394767 -3.72683,3.695266 -4.93988,5.779381 -6.22354,10.692535 l -0.92883,3.55517 -1.67056,0.12153 c -1.43877,0.10464 -1.7183,-0.005 -2.01472,-0.79005 -0.44683,-1.18349 0.0943,-5.01478 1.13314,-8.021873 0.4503,-1.303565 0.80742,-2.458984 0.7936,-2.567613 -0.0138,-0.10864 0.64704,-1.441819 1.4686,-2.962637 2.00379,-3.70921 6.50684,-8.176106 10.47383,-10.389719 1.67493,-0.934634 3.43517,-1.774404 3.91165,-1.866165 0.47647,-0.09177 1.77032,-0.482104 2.87521,-0.867423 1.54249,-0.537935 3.24701,-0.699739 7.34163,-0.696923 4.95915,0.0038 5.59565,0.09269 9.08541,1.274487 4.16451,1.410292 8.93677,4.375661 11.79494,7.329072 l 1.72199,1.779358 1.94217,-0.807124 c 2.95444,-1.227815 4.88262,-3.504531 6.02349,-7.112332 0.16038,-0.507186 0.6407,-0.691283 1.80354,-0.691283 1.37596,0 1.61883,0.134943 1.84178,1.02333 0.54622,2.176268 -1.6732,6.61722 -4.30153,8.607172 -0.70014,0.530086 -2.09757,1.399628 -3.10541,1.932306 l -1.83242,0.968508 0.78491,1.239682 c 0.4317,0.681825 0.9107,1.239691 1.06444,1.239691 0.15374,0 1.36538,-0.366703 2.69254,-0.814889 1.88183,-0.635509 2.85928,-1.286749 4.44031,-2.958455 1.11501,-1.178964 2.28536,-2.761192 2.60077,-3.516066 0.72067,-1.724814 1.7543,-2.32375 3.11651,-1.805841 0.86284,0.328051 1.01341,0.6285 1.01341,2.022231 0,2.041974 -2.12429,5.709039 -4.31,7.440158 -1.70348,1.349186 -6.20421,3.582256 -7.22097,3.582724 -0.98172,3.5e-4 -1.1281,0.489154 -0.63134,2.107734 0.37309,1.21563 0.62131,1.44774 1.54828,1.44774 3.30321,0 8.03629,-3.09466 10.08824,-6.596052 1.17081,-1.997838 2.53303,-2.545183 3.70184,-1.48741 1.06672,0.965359 0.97341,1.911238 -0.43063,4.365238 -2.15833,3.772364 -6.99683,7.099264 -10.91872,7.507594 -3.15712,0.32869 -3.63887,0.52085 -4.24518,1.69334 -1.21076,2.34136 -5.30468,3.16406 -7.60786,1.52885 z m 27.83737,80.8648 -3.05196,-1.77843 1.70317,-2.26337 c 4.23439,-5.62716 7.87002,-11.74401 10.88324,-18.31073 1.62065,-3.53188 2.25545,-4.54927 2.74999,-4.40742 1.09218,0.31326 5.28984,3.03857 5.69957,3.70042 0.39019,0.63031 -7.8e-4,1.38452 -6.6423,12.80419 -6.82455,11.73485 -7.03314,12.0545 -7.8572,12.0409 -0.23789,-0.004 -1.80594,-0.80742 -3.48451,-1.78556 z M 219.62135,85.664814 c -2.80366,-6.662946 -7.11772,-14.066344 -11.84242,-20.322872 -1.24202,-1.644708 -1.56893,-2.343159 -1.22497,-2.617207 1.24645,-0.993101 5.89495,-3.276558 6.44413,-3.165516 0.34211,0.06918 1.60613,1.814477 2.80892,3.878448 6.73894,11.563794 11.30033,19.592381 11.44445,20.143531 0.20905,0.79935 -0.6334,1.517377 -3.88627,3.312318 l -2.61878,1.44505 z M 64.873435,40.543767 c 1.36645,-5.915695 3.477195,-20.2504 5.077449,-34.4824499 l 0.255388,-2.2713558 h 56.459138 56.45913 v 1.1268296 c 0,3.630179 3.68723,29.3609861 5.1234,35.7528991 0.19934,0.8872 0.3086,1.666943 0.24278,1.732759 -0.0658,0.06581 -1.78896,-1.012387 -3.82921,-2.395995 C 169.3259,29.606541 152.53001,23.843594 133.25798,22.369077 119.92317,21.348813 103.9343,23.65895 90.776485,28.506964 84.726788,30.735983 74.753215,35.81431 69.332374,39.425847 l -4.964747,3.307665 z"
       id="path1248"
       sodipodi:nodetypes="sscssssssscccsssssssscssssssssssssssssssssssssssssssssscsssssscsssscscsscsssssccccsssscsscsssscsssscssscsscssscsscsssssssscssssssssscssssccssssscsscssscccssssssscs" />
    <circle
       style="fill:#ffffff;fill-opacity:1"
       id="path2496"
       cx="125.53429"
       cy="-132.03253"
       r="3.8398724"
       transform="scale(1,-1)" />
  </g>
</svg>
