<svg width="30" height="30" viewBox="0 0 30 30" fill="none" xmlns="http://www.w3.org/2000/svg">
<path fill-rule="evenodd" clip-rule="evenodd" d="M12 6H15L8 0V4H6C2.68629 4 0 6.68629 0 10V20C0 23.3137 2.68629 26 6 26H12V24H6C3.79086 24 2 22.2091 2 20V10C2 7.79086 3.79086 6 6 6H8H12ZM24 24H22H18H15L22 30V26H24C27.3137 26 30 23.3137 30 20V10C30 6.68629 27.3137 4 24 4H18V6H24C26.2091 6 28 7.79086 28 10V20C28 22.2091 26.2091 24 24 24ZM15.1528 9.8L12.1768 11.88L13.2487 13.624L14.6248 12.648V21H16.9128V9.8H15.1528Z" fill="white"/>
</svg>
