<svg height='100px' width='100px'  fill="#FFFFFF" xmlns="http://www.w3.org/2000/svg" xmlns:xlink="http://www.w3.org/1999/xlink" version="1.1" x="0px" y="0px" viewBox="0 0 66 66" enable-background="new 0 0 66 66" xml:space="preserve"><g><g><path d="M63.5,52.9c-0.8-0.8-5.4-4.8-10.1-8.4c2.5-4.9,1.6-10.9-2.4-14.9c-4-4-10-4.7-14.7-2.4c-7.8,3.8-9.6,14.3-3.4,20.5    c4.1,4.1,10.2,4.7,14.9,2.3c2.7,3.4,8.1,9.7,8.4,10.1c2,2,5.2,2,7.2,0C65.5,58.1,65.5,54.8,63.5,52.9z M49.6,46.3    c0,0-0.1,0.1-0.1,0.1c0,0-0.1,0-0.1,0.1c-4.1,4-10.9,4-15-0.1C29,41,30.6,32.2,37.2,29c4-2,9-1.4,12.4,2    C53.8,35.2,53.9,41.9,49.6,46.3z"></path></g><g><path d="M18,49.7c0,2-1.6,3.5-3.5,3.5c-1.9,0-3.5-1.6-3.5-3.5C11,45,18,45,18,49.7z"></path></g><g><path d="M28.4,56.9c0,2-1.6,3.5-3.5,3.5c-1.9,0-3.5-1.6-3.5-3.5c0-1.9,1.6-3.5,3.5-3.5C26.9,53.4,28.4,55,28.4,56.9z"></path></g><g><g><path d="M52.6,5.3c0,1.8-1.2,3.3-2.9,3.8v2.3c0,0.6-0.5,1-1,1H37.6v-2h10.1V9c-1.7-0.4-2.9-2-2.9-3.8c0-2.2,1.8-3.9,3.9-3.9     C50.9,1.4,52.6,3.1,52.6,5.3z"></path></g><g><path d="M12.7,17h7.1v2h-7.1c-0.4,1.7-2,2.9-3.8,2.9C6.8,21.9,5,20.1,5,18s1.8-3.9,3.9-3.9C10.7,14.1,12.2,15.3,12.7,17z"></path></g><g><path d="M19.8,10.3v2H8.2c-0.6,0-1-0.4-1-1V9c-1.7-0.4-2.9-2-2.9-3.8c0-2.2,1.8-3.9,3.9-3.9s3.9,1.7,3.9,3.9     c0,1.8-1.2,3.3-2.9,3.8v1.3H19.8z"></path></g><g><path d="M51.9,18c0,2.2-1.8,3.9-3.9,3.9c-1.8,0-3.3-1.2-3.8-2.9h-6.7v-2h6.7c0.4-1.7,2-2.9,3.8-2.9C50.2,14.1,51.9,15.8,51.9,18z     "></path></g></g><g><g><g><path d="M2.2,52.6"></path><path d="M53.6,60c-1,1.8-2.7,3-4.8,3H8.5c-4.3,0-6.8-5-4.8-9c0-0.1,0.1-0.1,0.1-0.1c0-0.1,8.8-12.6,8.9-12.7h14.7      c-1.2-7,2.9-13.6,8.5-16l-0.4-0.5V3h1.5c0.6,0,1-0.5,1-1s-0.4-1-1-1H20.3c-0.6,0-1,0.5-1,1s0.4,1,1,1h1.5v21.6      C21.7,24.7,2.3,52.7,2.2,52.7c0,0,0,0.1-0.1,0.1l0,0C-1,59,3.2,65,8.5,65h40.3c2.2,0,4.6-1.1,6.2-3.4      C54.8,61.4,53.8,60.3,53.6,60z M28.7,12.5c1.9,0,3.5,1.6,3.5,3.5s-1.6,3.5-3.5,3.5S25.1,18,25.1,16S26.7,12.5,28.7,12.5z       M24,29.9c1.9,0,3.5,1.6,3.5,3.5S25.9,37,24,37s-3.5-1.6-3.5-3.5S22,29.9,24,29.9z"></path></g></g></g></g></svg>