<svg height='100px' width='100px'  fill="#FFFFFF" xmlns="http://www.w3.org/2000/svg" xmlns:xlink="http://www.w3.org/1999/xlink" version="1.1" x="0px" y="0px" viewBox="0 0 100 100" enable-background="new 0 0 100 100" xml:space="preserve"><path d="M20,95h60c4.1,0,7.5-3.4,7.5-7.5v-10v-65C87.5,8.4,84.1,5,80,5H20c-4.1,0-7.5,3.4-7.5,7.5v65v10C12.5,91.6,15.9,95,20,95z   M40,90h-2.5v-5H40V90z M47.5,90H45v-5h2.5V90z M55,90h-2.5v-5H55V90z M62.5,90H60v-5h2.5V90z M82.5,87.5c0,1.4-1.1,2.5-2.5,2.5  H67.5v-5H80c0.9,0,1.7-0.2,2.5-0.4V87.5z M17.5,12.5c0-1.4,1.1-2.5,2.5-2.5h60c1.4,0,2.5,1.1,2.5,2.5v65c0,1.4-1.1,2.5-2.5,2.5H20  c-1.4,0-2.5-1.1-2.5-2.5V12.5z M17.5,84.6c0.8,0.3,1.6,0.4,2.5,0.4h12.5v5H20c-1.4,0-2.5-1.1-2.5-2.5V84.6z"></path><circle cx="25" cy="17.5" r="2.5"></circle><circle cx="75" cy="17.5" r="2.5"></circle><circle cx="75" cy="72.5" r="2.5"></circle><circle cx="25" cy="72.5" r="2.5"></circle><path d="M70,37.5h-7.5C62.5,30.6,56.9,25,50,25s-12.5,5.6-12.5,12.5H30V65h40V37.5z M50,30c4.1,0,7.5,3.4,7.5,7.5h-15  C42.5,33.4,45.9,30,50,30z M65,60H35V42.5h30V60z"></path><circle cx="50" cy="51.3" r="2.5"></circle></svg>