<svg width="30" height="30" viewBox="0 0 30 30" fill="none" xmlns="http://www.w3.org/2000/svg">
<g clip-path="url(#clip0_2194_28373)">
<path fill-rule="evenodd" clip-rule="evenodd" d="M13.7308 2.36478L27.6437 16.1921C29.2129 17.769 30.0009 19.8444 30 21.911C30.0009 23.9775 29.2127 26.0538 27.6433 27.6316C26.0746 29.2084 24.0102 30.0008 21.9542 30C19.8983 30.0008 17.8339 29.2084 16.2652 27.6312L16.2689 27.6352L2.35652 13.8082C0.787148 12.2314 -0.00105363 10.1555 1.05704e-06 8.08847C-0.00105363 6.02153 0.787148 3.94604 2.35646 2.36884C3.92478 0.79152 5.98985 -0.00135106 8.04567 1.88204e-06C10.1015 -0.00140996 12.1664 0.79152 13.7346 2.36878L13.7308 2.36478ZM21.9541 28.0731C23.5261 28.0727 25.089 27.4739 26.2882 26.2693C27.4874 25.0628 28.0825 23.4913 28.0839 21.9108C28.0825 20.3304 27.4869 18.7594 26.2887 17.5534L26.2858 17.5512L19.2426 10.5452C17.2079 10.6601 15.5662 11.4188 14.2281 12.4801C12.8836 13.5481 11.8665 14.9334 11.1914 16.2111C10.7408 17.0614 10.2057 18.8938 10.2057 18.8938L17.6162 26.2648L17.6167 26.2657L17.6198 26.2688C18.8191 27.4739 20.3823 28.0727 21.9541 28.0731ZM3.88723 8.59741C4.96065 8.59741 5.83084 7.72259 5.83084 6.64345C5.83084 5.5643 4.96065 4.68948 3.88723 4.68948C2.8138 4.68948 1.94362 5.5643 1.94362 6.64345C1.94362 7.72259 2.8138 8.59741 3.88723 8.59741Z" fill="white"/>
</g>
<defs>
<clipPath id="clip0_2194_28373">
<rect width="30" height="30" fill="white"/>
</clipPath>
</defs>
</svg>
