<svg width="116" height="80" viewBox="0 0 116 80" fill="none" xmlns="http://www.w3.org/2000/svg">
<path d="M73 60H59V80H54V56H62L49 43L36 56H44V80H39V60H25L49 36L73 60ZM111 32.5L116 35.5L112 43L91.5 53L84.5 50.5L81.25 46.5L79.5459 45.7705L76 47.5L69 45L65.5 41L63.6729 40.4521L61.5078 41.5078L60.8398 40.8398L80.25 31.75L85 25L81 32L64.6602 39.9707L66.25 40.5L92.4043 27.5479L76.9502 22.1084L74.25 28L79.25 31.25L73 29.25L57.4463 37.4463L53.5918 33.5918L76.8516 22.0742L61.4326 16.6475L58.75 22.5L63.75 25.75L57.5 23.75L39 33.5L43.125 34.875L42.4209 35.5781L38 34L34.5 30L32.3633 29.3594L29 31L22 28.5L18.5 24.5L16.3633 23.8594L13 25.5L3.5 22L0 18L4.5 10.5L22 0L111 32.5ZM105.25 39L110.25 42.25L104 40.25L85.5 50L91.5 52L111.25 42.75L115 35.5L107.985 33.0322L105.25 39ZM89.75 33.5L94.75 36.75L88.5 34.75L70 44.5L76 46.5L95.75 37.25L100.5 30.5L96.5 37.5L80.3457 45.3799L82 46L107.957 33.0215L92.4678 27.5703L89.75 33.5ZM65.5 26.5L52.7295 32.7295L52.1504 32.1504L64.75 26.25L69.5 19.5L65.5 26.5ZM42.75 17L47.75 20.25L41.5 18.25L23 28L29 30L48.75 20.75L53.5 14L49.5 21L33.3633 28.8721L35.25 29.5L61.2988 16.5996L45.4844 11.0342L42.75 17ZM22.75 10L31 14.5L21.5 11.25L4.5 21.5L13 24.5L32.75 15.25L37.5 8.5L33.5 15.5L17.3633 23.3721L19.25 24L45.4531 11.0234L25.5 4L22.75 10Z" fill="white"/>
</svg>
