<svg width="116" height="80" viewBox="0 0 116 80" fill="none" xmlns="http://www.w3.org/2000/svg">
<path d="M112 37L116 44.5L111 47.5L22 80L4.5 69.5L0 62L3.5 58L13 54.5L16.3633 56.1406L18.5 55.5L22 51.5L29 49L32.3633 50.6406L34.5 50L38 46L42.4209 44.4209L43.125 45.125L39 46.5L57.5 56.25L63.75 54.25L58.75 57.5L61.4326 63.3525L76.8516 57.9258L53.5918 46.4072L57.4463 42.5527L73 50.75L79.25 48.75L74.25 52L76.9502 57.8916L92.4043 52.4521L66.25 39.5L64.6602 40.0293L81 48L85 55L80.25 48.25L60.8398 39.1592L61.5078 38.4912L63.6729 39.5479L65.5 39L69 35L76 32.5L79.5459 34.2295L81.25 33.5L84.5 29.5L91.5 27L112 37ZM4.5 58.5L21.5 68.75L31 65.5L22.75 70L25.5 76L45.4531 68.9766L19.25 56L17.3633 56.6279L33.5 64.5L37.5 71.5L32.75 64.75L13 55.5L4.5 58.5ZM23 52L41.5 61.75L47.75 59.75L42.75 63L45.4844 68.9658L61.2988 63.4004L35.25 50.5L33.3633 51.1279L49.5 59L53.5 66L48.75 59.25L29 50L23 52ZM65.5 53.5L69.5 60.5L64.75 53.75L52.1504 47.8486L52.7295 47.2695L65.5 53.5ZM70 35.5L88.5 45.25L94.75 43.25L89.75 46.5L92.4678 52.4297L107.957 46.9785L82 34L80.3457 34.6201L96.5 42.5L100.5 49.5L95.75 42.75L76 33.5L70 35.5ZM85.5 30L104 39.75L110.25 37.75L105.25 41L107.985 46.9678L115 44.5L111.25 37.25L91.5 28L85.5 30ZM44 25H36L49 38L62 25H54V0H59V21H73L49 45L25 21H39V0H44V25Z" fill="white"/>
</svg>
