<svg width="54" height="60" viewBox="0 0 54 60" fill="none" xmlns="http://www.w3.org/2000/svg">
<path d="M52.082 4.99316L50.8896 22.0586L46.6406 25.668L44.999 25.9922L45 15L43.2637 16.7363L44.0596 4.27246L39.7441 7.93652L42.6973 12.999L42.374 17.627L41.8447 18.1553L42.2539 13.3926L39.7305 7.94824L34.8672 12.0791L37.5684 15.8828L41.5537 13.8545L37.9111 17.1631L37.7129 22.2871L33.7852 26.2158L34.6768 12.2393L30.3457 15.918L33.3125 21.0029L32.8857 27.1143L32.3311 27.6699L32.8691 21.3965L30.334 15.9277L25.4668 20.0615L28.1826 23.8877L32.1689 21.8594L28.5254 25.1689L28.2734 31.7275L24.3057 35.6953L25.2949 20.207L20.6953 24.1133L23.7393 29.333L23.2197 36.7803L22.6416 37.3584L23.2959 29.7266L20.6953 24.1133L15.8057 28.2666L18.6113 32.2178L22.5967 30.1885L18.9541 33.498L18.3496 49.1709L21.8984 46.0234L22.0654 44.0664L22.668 44.6689L22.5479 46.3994L18.2988 50.0068L14.3887 50.7812L13.1709 51.9277L12.9756 54.7285L7.13965 59.5859L3 60L0 54.5V39L45.1768 1.62207L48.5 0L52.082 4.99316ZM42 33.5H54V37.25H39V31.25L29.25 41L39 50.75V44.75H54V48.5H42V59L24 41L42 23V33.5ZM3.69824 38.5469L6.56445 42.582L12.5811 38.9121L6.90723 43.8633L7.18945 58.749L12.3262 54.3535L13.7246 38.0557L11.1211 32.4395L14.168 37.6631L13.2295 51.0957L14.3447 50.1064L15.7363 28.3252L3.69824 38.5469ZM44.2676 4.0957L46.9531 7.87793L50.9395 5.84863L47.2959 9.1582L46.6914 24.8311L50.2402 21.6846L51.5 5.50098L48 1L44.2676 4.0957Z" fill="white"/>
</svg>
