<svg width="30" height="30" viewBox="0 0 30 30" fill="none" xmlns="http://www.w3.org/2000/svg">
<g clip-path="url(#clip0_2194_28375)">
<path fill-rule="evenodd" clip-rule="evenodd" d="M24 7.98288C23.998 9.21346 23.6418 10.4186 22.9723 11.4599C22.7319 11.8323 22.5434 12.2343 22.4117 12.6555C22.3412 12.9354 22.3859 13.2312 22.5362 13.479C22.6785 13.6713 22.777 13.8913 22.825 14.1241C22.873 14.3569 22.8695 14.597 22.8145 14.8283C22.7596 15.0597 22.6547 15.2767 22.5067 15.4649C22.3588 15.6531 22.1713 15.8079 21.957 15.919C21.5817 16.0931 21.1756 16.1946 20.761 16.2179C20.0011 16.2911 19.2661 16.5717 19.4281 17.6027C19.4717 17.8833 19.0668 18.0053 19.0668 18.0053C19.0668 18.0053 18.3723 18.0419 18.2882 18.1151C18.2516 18.1469 18.2416 18.2872 18.2304 18.4436C18.2158 18.6468 18.1992 18.8773 18.12 18.9325C17.9799 19.0301 17.0829 19.0026 16.9988 18.9691C16.953 18.9508 16.9738 18.7274 16.9931 18.5203C17.0093 18.3475 17.0243 18.186 16.9988 18.1639C16.9428 18.1151 16.5504 18.1639 16.5504 18.1639C16.5504 18.1639 16.5461 18.8675 16.513 18.963C16.513 18.963 15.4853 18.9752 15.3731 18.9325C15.3092 18.9081 15.3222 18.6775 15.3337 18.4747C15.3423 18.3218 15.3501 18.1848 15.3233 18.1639C15.2829 18.1322 15.2207 18.1416 15.151 18.1521L15.151 18.1521C15.1133 18.1578 15.0734 18.1639 15.0337 18.1639H14.744C14.7374 18.2502 14.7406 18.3617 14.7436 18.4716C14.7493 18.6722 14.7548 18.8672 14.7004 18.8928C14.6163 18.9325 13.6633 19.0026 13.5792 18.9752C13.4952 18.9477 13.5792 18.1639 13.5792 18.1639C13.5792 18.1639 13.2149 18.0419 13.1308 18.1639C13.0883 18.2254 13.0959 18.4097 13.1029 18.5827C13.1099 18.7524 13.1164 18.9113 13.0747 18.9325C12.9906 18.9752 11.9816 18.9691 11.8414 18.9325C11.7675 18.9132 11.7715 18.6995 11.7754 18.4952C11.7789 18.3122 11.7823 18.1367 11.7293 18.1151C11.6765 18.0935 11.5894 18.0908 11.469 18.0869C11.3336 18.0827 11.1561 18.077 10.9382 18.0419C10.8638 18.0179 10.7965 17.9765 10.7422 17.9212C10.688 17.8659 10.6483 17.7984 10.6268 17.7247C10.5458 16.5839 10.2904 16.3399 9.08206 16.2789C8.61372 16.2909 8.15788 16.1301 7.80487 15.8284C7.45186 15.5268 7.22743 15.1063 7.17605 14.6502C7.19652 14.3054 7.27875 13.9668 7.41897 13.6498C7.54385 13.3832 7.61371 13.0951 7.62452 12.8019C7.53436 12.3492 7.35905 11.9169 7.10753 11.527C4.7842 8.09879 6.11093 2.24274 11.1376 0.662834C14.3765 -0.368073 17.5408 -0.264372 20.5119 1.45584C23.0283 2.88935 24 5.23177 24 7.98288ZM10.8056 12.478C11.2974 12.5332 11.7956 12.4727 12.2587 12.3017C12.7138 12.1976 13.1235 11.955 13.429 11.6087C13.7345 11.2624 13.9201 10.8302 13.9592 10.3741C14.0634 10.0085 14.0167 9.61748 13.8291 9.28536C13.6415 8.95325 13.328 8.70672 12.9564 8.59899C12.2801 8.35307 11.5661 8.22107 10.8448 8.20859C10.3744 8.19633 9.91012 8.31476 9.50562 8.55019C8.40312 9.23949 8.38444 11.222 9.43087 11.9845C9.84257 12.2537 10.3138 12.4228 10.8056 12.478ZM16.0458 15.2968C16.2114 15.2857 16.3758 15.1909 16.4943 15.0772C16.6319 14.8586 16.6788 14.6477 16.6376 14.394C16.591 14.1419 16.4981 13.9001 16.3635 13.6803C16.2606 13.4686 16.118 13.2237 15.9856 12.9963C15.8777 12.8109 15.7766 12.6373 15.7095 12.503C15.56 12.2041 15.3538 12.0629 15.0368 12.0577C14.7116 12.0524 14.4201 12.3627 14.3392 12.503C13.9332 13.1722 13.4671 14.0341 13.355 14.3635C13.2429 14.6929 13.2429 14.8576 13.355 15.0223C13.4671 15.187 13.7474 15.2419 13.9156 15.2419C14.0838 15.2419 14.1715 15.2276 14.3392 15.187C14.4491 15.1605 14.5379 15.1136 14.6222 15.0691C14.7314 15.0116 14.8328 14.9581 14.962 14.9581C15.102 14.9581 15.2113 15.0141 15.3314 15.0757C15.4079 15.1149 15.4888 15.1563 15.5849 15.187C15.6275 15.2007 15.6666 15.2146 15.7036 15.2279L15.7036 15.2279L15.7037 15.228C15.8222 15.2704 15.9197 15.3054 16.0458 15.2968ZM18.8301 12.503C19.8329 12.4603 20.6365 12.2224 21.0787 11.3562C21.2799 10.9571 21.3598 10.5099 21.309 10.0676C21.2582 9.62532 21.0788 9.20663 20.7922 8.86129C20.6055 8.60309 20.3321 8.41739 20.0198 8.33669C18.9259 8.09351 17.7797 8.22708 16.7746 8.71489C16.5131 8.82829 16.2961 9.02139 16.1558 9.26542C16.0155 9.50945 15.9594 9.79135 15.996 10.0691C16.059 10.5614 16.2221 11.0364 16.4756 11.466C16.9757 12.2746 17.8449 12.3815 18.6575 12.4815C18.7154 12.4886 18.773 12.4957 18.8301 12.503ZM3.16161 25.1739C3.02409 25.4727 2.97283 25.8039 3.01362 26.1302C3.0661 26.5651 3.27328 26.9666 3.59731 27.2613C3.70867 27.3312 3.79435 27.4354 3.84149 27.5582C3.88863 27.681 3.89468 27.8158 3.85875 27.9423C3.80824 28.1574 3.80215 28.3805 3.84083 28.5979C3.87951 28.8154 3.96216 29.0227 4.08371 29.2072C4.26384 29.4827 4.51795 29.7018 4.81691 29.8395C5.11587 29.9771 5.44757 30.0278 5.77397 29.9855C6.02931 29.951 6.27369 29.8597 6.48917 29.7184C6.70466 29.5771 6.8858 29.3894 7.01931 29.169C7.15282 28.9486 7.23532 28.7011 7.26076 28.4446C7.28619 28.1882 7.25392 27.9293 7.16631 27.6869L10.0179 26.6471L20.7857 22.7188L23.6737 21.6486C23.7638 21.897 23.9101 22.1211 24.1012 22.3036C24.2922 22.4861 24.5228 22.622 24.775 22.7006C25.0272 22.7793 25.2942 22.7986 25.5551 22.757C25.816 22.7155 26.0637 22.6142 26.279 22.4611C26.4943 22.308 26.6713 22.1072 26.7962 21.8744C26.9211 21.6416 26.9906 21.383 26.9991 21.119C27.0076 20.8549 26.955 20.5924 26.8454 20.352C26.7358 20.1116 26.5721 19.8998 26.3672 19.7331C26.2558 19.6632 26.1701 19.559 26.123 19.4362C26.0759 19.3134 26.0698 19.1786 26.1057 19.0521C26.1562 18.837 26.1623 18.6139 26.1237 18.3964C26.085 18.179 26.0023 17.9717 25.8808 17.7872C25.6999 17.5129 25.4454 17.2949 25.1465 17.1584C24.8476 17.0218 24.5163 16.9721 24.1905 17.015C23.935 17.0504 23.6905 17.1424 23.4751 17.2843C23.2596 17.4263 23.0785 17.6145 22.9451 17.8354C22.8117 18.0562 22.7293 18.3041 22.7038 18.5609C22.6784 18.8177 22.7106 19.0769 22.7982 19.3196L19.9405 20.3534L9.17882 24.2816L6.32118 25.3154C6.23405 25.074 6.09403 24.8551 5.91138 24.6749C5.72874 24.4946 5.50809 24.3575 5.26559 24.2735C5.0231 24.1895 4.7649 24.1609 4.5099 24.1897C4.25491 24.2184 4.00957 24.3039 3.79187 24.4397C3.51744 24.6209 3.29914 24.8752 3.16161 25.1739ZM26.2547 24.6905C26.0435 24.5598 25.8054 24.4775 25.5579 24.4499C25.3105 24.4222 25.0599 24.4497 24.8246 24.5305C24.5893 24.6113 24.3751 24.7433 24.1979 24.9168C24.0206 25.0902 23.8848 25.3008 23.8002 25.5332L19.611 24L16 25.2757L22.927 27.7744C22.7873 28.1585 22.7951 28.5802 22.9489 28.959C23.1028 29.3378 23.3919 29.6472 23.761 29.8281C24.1302 30.009 24.5536 30.0487 24.9504 29.9397C25.3472 29.8308 25.6897 29.5807 25.9125 29.2373C26.0328 29.0608 26.1148 28.8616 26.1534 28.652C26.192 28.4425 26.1863 28.2274 26.1367 28.0201C26.1013 27.899 26.1063 27.7697 26.1509 27.6516C26.1956 27.5335 26.2775 27.4329 26.3845 27.3647C26.7112 27.1001 26.9225 26.7207 26.9746 26.3056C27.0312 25.9958 26.9928 25.6764 26.8645 25.3885C26.7362 25.1006 26.5238 24.8575 26.2547 24.6905ZM4.46194 22.5672C4.21439 22.5395 3.97622 22.4572 3.76486 22.3263C3.49318 22.1591 3.27752 21.9157 3.14515 21.6269C3.01278 21.3381 2.96962 21.0169 3.02113 20.7037C3.07465 20.2869 3.28562 19.9059 3.6114 19.6376C3.71845 19.5693 3.80042 19.4686 3.84509 19.3504C3.88977 19.2322 3.89475 19.1028 3.85931 18.9815C3.81007 18.774 3.80457 18.5587 3.84317 18.349C3.88177 18.1394 3.96363 17.9399 4.08361 17.7631C4.25802 17.4987 4.50376 17.2882 4.79283 17.1556C5.08191 17.023 5.40269 16.9737 5.71863 17.0133C5.96674 17.0474 6.20404 17.136 6.41321 17.2727C6.62239 17.4095 6.79816 17.5908 6.92769 17.8036C7.05722 18.0163 7.13725 18.2551 7.16192 18.5025C7.1866 18.7498 7.15531 18.9996 7.07033 19.2334L14 21.723L10.4112 23L6.22035 21.4828C6.13576 21.7154 5.99983 21.9262 5.82252 22.0998C5.6452 22.2735 5.43099 22.4056 5.19558 22.4865C4.96016 22.5674 4.7095 22.595 4.46194 22.5672Z" fill="white"/>
</g>
<defs>
<clipPath id="clip0_2194_28375">
<rect width="30" height="30" fill="white"/>
</clipPath>
</defs>
</svg>
