<svg width="30" height="30" viewBox="0 0 30 30" fill="none" xmlns="http://www.w3.org/2000/svg">
<path fill-rule="evenodd" clip-rule="evenodd" d="M1.72337 20.5362C2.12216 23.7555 3.4499 26.9899 5.57288 29.8997C5.69251 30.0645 5.67609 30.0519 5.2773 29.6663C4.89962 29.301 4.15834 28.4917 3.83227 28.0858C1.592 25.3004 0.353398 22.1953 0.041402 18.5854C-0.00786051 18.0045 -0.0148966 16.4596 0.0296742 15.9598C0.17277 14.3565 0.482422 12.9562 0.998505 11.5762C1.74682 9.58223 2.76491 7.91553 4.16068 6.40612C5.29137 5.18845 6.37749 4.34369 7.76388 3.61562C10.0511 2.41316 12.5705 2.00473 15.1392 2.4157C17.0909 2.72773 18.9464 3.59278 20.4337 4.88149C21.3697 5.69327 22.2236 6.7765 22.81 7.89778C23.427 9.0774 23.861 10.5006 24.0181 11.8628C24.1472 12.9638 24.1425 13.943 24.0064 14.8309C23.563 17.7153 21.7591 20.3079 19.4578 21.3709C18.5219 21.8046 17.6234 21.9822 16.5514 21.9518C15.6764 21.9264 14.9398 21.7869 14.2501 21.5154C12.6549 20.8889 11.5219 19.6509 11.0035 17.974C10.8393 17.4438 10.6034 15.6418 10.5682 15C10.0685 15.1015 9.58938 16.7466 9.54546 17.974C9.48228 19.7396 10.1449 20.8711 11.292 22.1471C12.5588 23.5525 14.2689 24.4709 16.1971 24.7803C16.5209 24.8311 16.6452 24.8387 17.3349 24.8362C18.1606 24.8362 18.3623 24.8184 19.0286 24.6839C19.4438 24.6028 19.8074 24.5013 20.232 24.3542C21.9303 23.7656 23.434 22.7585 24.7594 21.3252C26.1083 19.869 27.1029 18.1313 27.7128 16.1577C28.1703 14.6838 28.365 13.4306 28.3884 11.7943C28.4072 10.5158 28.3392 9.67355 28.1233 8.47617C27.6073 5.6121 26.2842 2.62879 24.4099 0.0919664C24.3278 -0.0196539 24.3278 -0.0196539 24.3958 0.0386931C24.7148 0.302523 25.7165 1.37306 26.1575 1.91848C28.1914 4.43247 29.4511 7.35489 29.8593 10.5056C29.9719 11.3808 30 11.8299 30 12.8395C30 13.8162 29.9765 14.184 29.871 14.9704C29.4933 17.7914 28.3579 20.4906 26.6173 22.7204C26.3053 23.1187 25.4467 24.0497 25.0761 24.3947C23.7531 25.6175 22.247 26.5358 20.6308 27.1041C17.5507 28.1898 14.0437 27.9082 11.299 26.3582C9.71795 25.4653 8.43948 24.2248 7.50818 22.6748C6.44318 20.9041 5.89894 18.867 5.89425 16.6321C5.8919 15.6072 6.01858 14.7624 6.32119 13.8035C7.26891 10.7999 9.47633 8.62838 12.0614 8.1616C13.6613 7.87241 15.4066 8.17683 16.6898 8.97085C17.2012 9.28796 17.7829 9.82576 18.1278 10.2976C18.8339 11.2641 19.3851 13.6555 19.4578 15C19.9599 14.8985 20.0822 13.3677 20.1136 12.2727C20.2143 8.7625 17.8134 6.1017 14.3768 5.34827C11.5313 4.72167 8.3996 5.71103 5.89894 8.02208C5.55411 8.34172 4.91838 9.02666 4.62281 9.40211C3.03468 11.4113 2.0424 13.8517 1.71164 16.5636C1.56619 17.7559 1.57089 19.2907 1.72337 20.5362ZM8.28334 18.8801C8.46461 20.3434 9.06812 21.8136 10.0331 23.1362C10.0875 23.2111 10.08 23.2054 9.89876 23.0301C9.72709 22.8641 9.39014 22.4962 9.24193 22.3117C8.22362 21.0456 7.66062 19.6342 7.51881 17.9934C7.49642 17.7293 7.49322 17.0271 7.51348 16.7999C7.52149 16.7101 7.52732 16.6048 7.53394 16.4854C7.58105 15.6349 7.66795 14.0662 8.86363 12.2727C10.2273 10.2273 11.5909 9.20453 13.6364 9.20453C15.5102 9.20453 16.2445 9.85735 16.8743 10.4173C16.9319 10.4685 16.9887 10.519 17.0454 10.5682C17.4709 10.9372 18.4091 12.2727 18.4091 14.3182C18.4091 16.3636 17.3782 17.7273 16.0613 17.7273C14.7444 17.7273 14.1009 17.114 13.8652 16.3518C13.7906 16.1108 13.7436 15.7315 13.7277 15.4397C13.5005 15.4858 13.2915 15.8491 13.251 16.3553C13.202 16.9757 13.5204 17.9829 13.8652 18.3665C13.882 18.3851 13.899 18.4042 13.9163 18.4235C14.2555 18.803 14.7103 19.3118 15.5441 19.4456C15.6913 19.4687 15.7478 19.4721 16.0613 19.471C16.4366 19.471 16.5283 19.4629 16.8312 19.4018C17.0199 19.3649 17.1852 19.3188 17.3782 19.2519C18.1501 18.9844 18.8336 18.5266 19.4361 17.8751C20.0492 17.2132 21.1364 15.6818 21.1364 12.9545C21.1364 10.2273 20.1292 8.01307 19.2772 6.85997C19.2565 6.83183 19.2473 6.8193 19.2485 6.81824C19.2494 6.81739 19.257 6.82394 19.2708 6.83576C19.2882 6.85016 19.3087 6.86577 19.3324 6.88386C19.5063 7.01637 19.8546 7.28193 20.4545 8.1818C21.1364 9.20453 21.8182 10.2273 21.8182 12.9545C21.8182 15.6818 21.0718 17.4957 20.2806 18.5093C20.1388 18.6903 19.7485 19.1135 19.58 19.2703C18.9787 19.8261 18.2941 20.2435 17.5594 20.5018C16.1594 20.9954 15.2471 20.8674 13.9996 20.1628C13.2809 19.7569 12.6998 19.1931 12.2764 18.4885C11.7923 17.6837 11.5909 16.7045 11.5909 15C11.5909 13.2954 12.6359 12.2727 13.9996 12.2727C15.3632 12.2727 15.6818 14.9866 15.6818 14.9866C15.91 14.9404 16.3636 14.2336 16.3636 13.5429C16.3636 12.8522 16.2788 10.9553 14.7167 10.6128C13.4233 10.328 11.9998 10.7777 10.8631 11.8282C10.7064 11.9735 10.4174 12.2848 10.2831 12.4555C9.56121 13.3687 8.53268 14.9866 8.278 17.0743C8.21189 17.6163 8.21403 18.3139 8.28334 18.8801Z" fill="white"/>
</svg>
