<svg width="52" height="52" viewBox="0 0 52 52" fill="none" xmlns="http://www.w3.org/2000/svg">
<path fill-rule="evenodd" clip-rule="evenodd" d="M15.8004 10C15.2481 10 14.8004 10.4477 14.8004 11V30.7539C14.8004 30.7539 14.8004 33.9234 18.8004 33.9234C22.8003 33.9234 22.8003 30.7539 22.8003 30.7539V11C22.8003 10.4477 22.3526 10 21.8003 10H15.8004ZM16.3999 29.169C16.3999 27.8581 17.4763 26.7919 18.7999 26.7919C20.1236 26.7919 21.1999 27.8581 21.1999 29.1691C21.1999 30.48 20.1236 31.5462 18.7999 31.5462C17.4763 31.5462 16.3999 30.4799 16.3999 29.169ZM24.4007 11.7366H27.5997V28.3768L24.4007 28.3766V11.7366ZM45.655 18.5927C45.655 18.5927 42.1922 21.0724 38.7996 23.4576V11.7366H43.6009C45.2009 11.7366 46.0009 12.5294 45.9997 14.1142V18.0291C45.9997 18.2636 45.8677 18.48 45.655 18.5927ZM13.2007 11.7366H8.40115C6.80117 11.7366 6 12.5294 6 14.1142V18.0291C6 18.2636 6.13203 18.48 6.34468 18.5927C6.34468 18.5927 9.80789 21.0727 13.2007 23.4581V11.7366ZM24.4005 29.9618H27.5995V31.1504C27.5995 31.1504 27.5995 35.5084 33.1995 35.5084C38.7995 35.5084 38.7995 31.1504 38.7995 31.1504V24.8911L45.2001 20.4535V39.6229C45.2001 41.2076 44.4013 42 42.8013 42L9.20157 41.9996C7.60158 41.9996 6.80042 41.2076 6.80042 39.6229V20.4528L13.2006 24.8905V31.1504C13.2006 31.1504 13.2006 35.5084 18.8006 35.5084C24.4005 35.5084 24.4005 31.1504 24.4005 31.1504V29.9618ZM29.1991 11C29.1991 10.4477 29.6468 10 30.1991 10H36.199C36.7513 10 37.199 10.4477 37.199 11V30.7539C37.199 30.7539 37.199 33.9234 33.1991 33.9234C29.1991 33.9234 29.1991 30.7539 29.1991 30.7539V11ZM33.2003 26.7919C31.8766 26.7919 30.8003 27.8581 30.8003 29.169C30.8003 30.4799 31.8766 31.5462 33.2003 31.5462C34.5239 31.5462 35.6003 30.48 35.6003 29.1691C35.6003 27.8581 34.5239 26.7919 33.2003 26.7919Z" fill="white"/>
</svg>
