<?xml version="1.0" encoding="UTF-8" standalone="no"?>
<!DOCTYPE svg PUBLIC "-//W3C//DTD SVG 20010904//EN"
              "http://www.w3.org/TR/2001/REC-SVG-20010904/DTD/svg10.dtd">

<svg xmlns="http://www.w3.org/2000/svg"
     width="1in" height="1in"
     viewBox="0 0 300 300">
  <path id="Selection"
        fill="#FFFFFF" stroke="#000000" stroke-width="1"
        d="M 71.00,107.00
           C 71.00,93.27 70.72,82.66 73.89,69.00
             79.76,43.63 95.95,22.44 119.00,10.32
             129.35,4.87 139.54,2.98 151.00,1.83
             154.53,1.48 156.17,0.88 160.00,1.09
             173.45,1.85 187.01,4.53 199.00,10.89
             223.91,24.10 237.86,46.47 241.15,74.00
             241.64,78.09 242.13,79.61 241.96,84.00
             241.23,102.78 236.09,121.05 224.33,136.00
             211.66,152.12 191.00,167.49 182.37,185.00
             175.99,197.95 177.00,213.00 177.00,227.00
             177.00,227.00 132.00,227.00 132.00,227.00
             132.00,200.71 133.38,174.96 149.90,153.00
             165.93,131.69 196.67,114.08 197.00,85.00
             197.10,75.57 195.85,67.87 190.21,60.00
             178.09,43.07 153.12,38.59 136.00,50.79
             115.16,65.63 116.00,84.45 116.00,107.00
             116.00,107.00 71.00,107.00 71.00,107.00 Z
           M 147.00,242.53
           C 150.53,241.95 153.44,241.96 157.00,242.00
             178.45,242.26 190.70,266.99 180.47,285.00
             174.03,296.33 165.13,299.14 153.00,299.00
             121.71,298.62 115.15,252.03 147.00,242.53 Z" />
</svg>
