<svg height='100px' width='100px'  fill="#ffffff" xmlns="http://www.w3.org/2000/svg" xmlns:xlink="http://www.w3.org/1999/xlink" version="1.1" x="0px" y="0px" viewBox="0 0 100 100" enable-background="new 0 0 100 100" xml:space="preserve"><path fill="#ffffff" stroke="#ffffff" stroke-miterlimit="10" d="M58.919,38.223l-4.701,7.417c1.154,1.141,1.869,2.723,1.869,4.474  c0,3.475-2.817,6.292-6.292,6.292c-3.475,0-6.292-2.817-6.292-6.292s2.817-6.292,6.292-6.292c0.685,0,1.344,0.111,1.961,0.313  l4.717-7.443c-2.011-1.003-4.278-1.57-6.678-1.57c-8.279,0-14.99,6.711-14.99,14.99s6.711,14.991,14.99,14.991  s14.99-6.711,14.99-14.991C64.785,45.268,62.485,40.963,58.919,38.223z"></path><path fill="#ffffff" stroke="#ffffff" stroke-miterlimit="10" d="M66.628,26.059l-6.626,10.455  c4.127,3.102,6.796,8.038,6.796,13.599c0,9.39-7.612,17.003-17.003,17.003s-17.003-7.612-17.003-17.003  c0-9.39,7.612-17.003,17.003-17.003c2.796,0,5.433,0.679,7.76,1.875l6.632-10.465c-4.253-2.397-9.162-3.766-14.392-3.766  c-0.909,0-1.807,0.044-2.694,0.124c-0.065,2.385-2.015,4.3-4.416,4.3c-1.672,0-3.126-0.928-3.878-2.297  c-10.77,4.35-18.37,14.902-18.37,27.23c0,16.214,13.144,29.358,29.358,29.358s29.358-13.144,29.358-29.358  C79.153,40.162,74.201,31.369,66.628,26.059z"></path><path fill="#ffffff" stroke="#ffffff" stroke-miterlimit="10" d="M74.812,13.145l-7.135,11.258  c8.12,5.658,13.435,15.063,13.435,25.71c0,17.296-14.021,31.317-31.317,31.317S18.478,67.409,18.478,50.113  c0-13.228,8.201-24.54,19.796-29.129c-0.004-0.075-0.011-0.15-0.011-0.226c0-2.442,1.98-4.422,4.422-4.422  c1.796,0,3.339,1.073,4.031,2.611c1.013-0.099,2.04-0.151,3.079-0.151c5.616,0,10.885,1.479,15.442,4.068l7.135-11.258  C65.748,7.714,58.033,5.48,49.795,5.48c-24.651,0-44.634,19.983-44.634,44.634c0,24.651,19.983,44.634,44.634,44.634  c24.651,0,44.634-19.983,44.634-44.634C94.429,34.734,86.65,21.172,74.812,13.145z"></path></svg>