<svg width="50" height="50" viewBox="0 0 50 50" fill="none" xmlns="http://www.w3.org/2000/svg">
<path fill-rule="evenodd" clip-rule="evenodd" d="M0.618809 0H49.3812C49.723 0 50 0.277027 50 0.618919V7.7673C50 8.10905 49.723 8.38622 49.3812 8.38622H0.618809C0.277054 8.38622 2.28882e-05 8.10905 2.28882e-05 7.7673V0.618919C2.28882e-05 0.277027 0.277054 0 0.618809 0ZM49.3812 40.0856H42.2329C41.8911 40.0856 41.6139 39.8084 41.6139 39.4669V10.5333C41.6139 10.1915 41.8911 9.91447 42.2329 9.91447H49.3812C49.723 9.91461 50 10.1915 50 10.5333V39.4666C50 39.8085 49.723 40.0856 49.3812 40.0856ZM39.0211 31.0742C39.1401 31.1977 39.3019 31.2636 39.4668 31.2636C39.5446 31.2636 39.6232 31.2488 39.6982 31.2186C39.9322 31.1242 40.0855 30.8971 40.0855 30.6446V10.5333C40.0855 10.1915 39.8085 9.91447 39.4668 9.91447H31.7785C31.4368 9.91447 31.1597 10.1915 31.1597 10.5333V22.6673C31.1597 22.8278 31.2218 22.9815 31.3328 23.0968L39.0211 31.0742ZM29.0128 20.416C28.848 20.416 28.6861 20.35 28.567 20.2265L20.5415 11.8991C20.4308 11.7838 20.3685 11.6299 20.3685 11.4698V10.5335C20.3685 10.1918 20.6454 9.91474 20.9872 9.91474H29.0127C29.3545 9.91474 29.6315 10.1918 29.6315 10.5335V19.7973C29.6315 20.0496 29.4782 20.2767 29.2443 20.3711C29.1693 20.4013 29.0907 20.416 29.0128 20.416ZM10.9789 18.9259L18.6675 26.9033C18.7783 27.0186 18.8404 27.1725 18.8404 27.3329V39.4669C18.8404 39.8084 18.5634 40.0855 18.2216 40.0855H10.5333C10.1915 40.0855 9.91448 39.8084 9.91448 39.4669V19.3554C9.91448 19.1029 10.0679 18.8759 10.3018 18.7815C10.5358 18.6871 10.8035 18.7443 10.9789 18.9259ZM39.4668 40.0856C39.8085 40.0856 40.0855 39.8084 40.0855 39.4669V34.6198C40.0855 34.4595 40.0234 34.3057 39.9122 34.1903L16.7742 10.1038C16.6574 9.98285 16.4965 9.91447 16.3285 9.91447H10.5333C10.1915 9.91447 9.91447 10.1915 9.91447 10.5333V15.3724C9.91447 15.5325 9.97663 15.6863 10.0878 15.8017L33.2261 39.8961C33.3427 40.017 33.5037 40.0856 33.6717 40.0856H39.4668ZM0.618809 41.6138H49.3812C49.723 41.6138 50 41.8911 50 42.2327V49.3811C50 49.7228 49.723 50 49.3812 50H0.618809C0.277054 50 2.28882e-05 49.7228 2.28882e-05 49.3812V42.2328C2.28882e-05 41.8911 0.277054 41.6138 0.618809 41.6138ZM29.4587 38.1008L21.433 29.7734C21.2577 29.5917 20.9896 29.5346 20.7558 29.6293C20.5218 29.7235 20.3687 29.9508 20.3687 30.2031V39.4669C20.3687 39.8084 20.6456 40.0855 20.9876 40.0855H29.013C29.3548 40.0855 29.6318 39.8084 29.6318 39.4669V38.5305C29.6318 38.37 29.5696 38.2162 29.4587 38.1008ZM7.76703 9.91459H0.618782C0.277027 9.91459 0 10.1915 0 10.5332V39.4667C0 39.8084 0.277027 40.0855 0.618782 40.0855H7.76703C8.10878 40.0855 8.38594 39.8084 8.38594 39.4667V10.5334C8.38594 10.1916 8.10878 9.91459 7.76703 9.91459Z" fill="white"/>
</svg>
