<svg width="30" height="30" viewBox="0 0 30 30" fill="none" xmlns="http://www.w3.org/2000/svg">
<g clip-path="url(#clip0_2194_28411)">
<path fill-rule="evenodd" clip-rule="evenodd" d="M18 7C18 6.44772 17.5523 6 17 6H13C12.4477 6 12 6.44772 12 7V12L7 12C6.44772 12 6 12.4477 6 13L6 17C6 17.5523 6.44772 18 7 18L12 18V23C12 23.5523 12.4477 24 13 24H17C17.5523 24 18 23.5523 18 23V18L23 18C23.5523 18 24 17.5523 24 17V13C24 12.4477 23.5523 12 23 12L18 12V7Z" fill="white"/>
<path fill-rule="evenodd" clip-rule="evenodd" d="M15 30.0001V30L13.0791 27.695L10 24V26.6529C5.27011 24.4059 2 19.5849 2 14.0001C2 6.43259 7.49556 0.258911 15 0C6.71573 0 0 6.71579 0 15.0001C0 23.2844 6.71573 30.0001 15 30.0001Z" fill="white"/>
<path fill-rule="evenodd" clip-rule="evenodd" d="M15 2.99216e-05L15 0.000123382L16.9209 2.30515L20 6.00012L20 3.34726C24.7299 5.59419 28 10.4152 28 16C28 23.5675 22.5044 29.7412 15 30.0001C23.2843 30.0001 30 23.2843 30 15C30 6.71572 23.2843 2.91973e-05 15 2.99216e-05Z" fill="white"/>
</g>
<defs>
<clipPath id="clip0_2194_28411">
<rect width="30" height="30" fill="white"/>
</clipPath>
</defs>
</svg>
