<svg width="40" height="40" viewBox="0 0 40 40" fill="none" xmlns="http://www.w3.org/2000/svg">
<mask id="path-1-inside-1_1454_22126" fill="white">
<path fill-rule="evenodd" clip-rule="evenodd" d="M0 14.0001L11 14.0001L17 6.0001L11 6.0001L10 9.85702e-05L0 14.0001ZM40 25.9999H29L23 33.9999H29L30 39.9999L40 25.9999ZM40 24.9998H7L0 14.9998H33L40 24.9998Z"/>
</mask>
<path fill-rule="evenodd" clip-rule="evenodd" d="M0 14.0001L11 14.0001L17 6.0001L11 6.0001L10 9.85702e-05L0 14.0001ZM40 25.9999H29L23 33.9999H29L30 39.9999L40 25.9999ZM40 24.9998H7L0 14.9998H33L40 24.9998Z" fill="#D9C17F"/>
<path d="M11 14.0001L11 15.0001L11.5 15.0001L11.8 14.6001L11 14.0001ZM0 14.0001L-0.813733 13.4189L-1.94319 15.0001L-8.66977e-08 15.0001L0 14.0001ZM17 6.0001L17.8 6.6001L19 5.0001L17 5.0001L17 6.0001ZM11 6.0001L10.0136 6.1645L10.1529 7.0001L11 7.0001L11 6.0001ZM10 9.85702e-05L10.9864 -0.1643L10.5895 -2.54567L9.18627 -0.58114L10 9.85702e-05ZM29 25.9999V24.9999H28.5L28.2 25.3999L29 25.9999ZM40 25.9999L40.8138 26.5811L41.9432 24.9999H40V25.9999ZM23 33.9999L22.2 33.3999L21 34.9999H23V33.9999ZM29 33.9999L29.9864 33.8355L29.8472 32.9999H29V33.9999ZM30 39.9999L29.0137 40.1643L29.4105 42.5457L30.8138 40.5811L30 39.9999ZM7 24.9998L6.18077 25.5733L6.47934 25.9998H7V24.9998ZM40 24.9998V25.9998H41.9207L40.8192 24.4263L40 24.9998ZM0 14.9998V13.9998H-1.92066L-0.819232 15.5733L0 14.9998ZM33 14.9998L33.8192 14.4263L33.5207 13.9998H33V14.9998ZM11 13.0001L8.66977e-08 13.0001L-8.66977e-08 15.0001L11 15.0001L11 13.0001ZM16.2 5.4001L10.2 13.4001L11.8 14.6001L17.8 6.6001L16.2 5.4001ZM11 7.0001L17 7.0001L17 5.0001L11 5.0001L11 7.0001ZM9.01361 0.164498L10.0136 6.1645L11.9864 5.8357L10.9864 -0.1643L9.01361 0.164498ZM0.813733 14.5813L10.8137 0.581337L9.18627 -0.58114L-0.813733 13.4189L0.813733 14.5813ZM29 26.9999H40V24.9999H29V26.9999ZM23.8 34.5999L29.8 26.5999L28.2 25.3999L22.2 33.3999L23.8 34.5999ZM29 32.9999H23V34.9999H29V32.9999ZM30.9864 39.8355L29.9864 33.8355L28.0137 34.1643L29.0137 40.1643L30.9864 39.8355ZM39.1863 25.4187L29.1863 39.4187L30.8138 40.5811L40.8138 26.5811L39.1863 25.4187ZM7 25.9998H40V23.9998H7V25.9998ZM-0.819232 15.5733L6.18077 25.5733L7.81923 24.4263L0.819232 14.4263L-0.819232 15.5733ZM33 13.9998H0V15.9998H33V13.9998ZM40.8192 24.4263L33.8192 14.4263L32.1808 15.5733L39.1808 25.5733L40.8192 24.4263Z" fill="#988759" mask="url(#path-1-inside-1_1454_22126)"/>
</svg>
