<svg width="24" height="24" viewBox="0 0 24 24" fill="none" xmlns="http://www.w3.org/2000/svg">
<path d="M4 14.5C4 15.8807 5.11929 17 6.5 17L3 19L7 24H5L0 19L4 14.5ZM16 14.5C16 15.8807 17.1193 17 18.5 17L15 19L19 24H17L12 19L16 14.5ZM6.5 13C7.32843 13 8 13.6716 8 14.5C8 15.3284 7.32843 16 6.5 16C5.67157 16 5 15.3284 5 14.5C5 13.6716 5.67157 13 6.5 13ZM18.5 13C19.3284 13 20 13.6716 20 14.5C20 15.3284 19.3284 16 18.5 16C17.6716 16 17 15.3284 17 14.5C17 13.6716 17.6716 13 18.5 13ZM24 6V13L23 14H20.9502C20.7186 12.8589 19.7095 12 18.5 12C17.2905 12 16.2814 12.8589 16.0498 14H8.9502C8.71858 12.8589 7.70949 12 6.5 12C5.29051 12 4.28142 12.8589 4.0498 14H1L0 13V10L1 9H2V11H21V6L22 5H23L24 6ZM20 2V10H3V2L5 0H18L20 2Z" fill="white"/>
</svg>
