<?xml version="1.0" encoding="UTF-8" standalone="no"?>
<!-- Created with Inkscape (http://www.inkscape.org/) -->

<svg
   width="95.488281"
   height="95.488297"
   viewBox="0 0 25.264607 25.264611"
   version="1.1"
   id="svg3686"
   inkscape:version="0.92.1 r15371"
   sodipodi:docname="round_border.svg"
   inkscape:export-filename="round_border_2.svg"
   inkscape:export-xdpi="96"
   inkscape:export-ydpi="96"
   xmlns:inkscape="http://www.inkscape.org/namespaces/inkscape"
   xmlns:sodipodi="http://sodipodi.sourceforge.net/DTD/sodipodi-0.dtd"
   xmlns="http://www.w3.org/2000/svg"
   xmlns:svg="http://www.w3.org/2000/svg"
   xmlns:rdf="http://www.w3.org/1999/02/22-rdf-syntax-ns#"
   xmlns:cc="http://creativecommons.org/ns#"
   xmlns:dc="http://purl.org/dc/elements/1.1/">
  <defs
     id="defs3680" />
  <sodipodi:namedview
     id="base"
     pagecolor="#ffffff"
     bordercolor="#666666"
     borderopacity="1.0"
     inkscape:pageopacity="0.0"
     inkscape:pageshadow="2"
     inkscape:zoom="7.9195959"
     inkscape:cx="127.07519"
     inkscape:cy="61.674204"
     inkscape:document-units="mm"
     inkscape:current-layer="layer1"
     showgrid="false"
     units="px"
     inkscape:pagecheckerboard="true"
     inkscape:window-width="3840"
     inkscape:window-height="2055"
     inkscape:window-x="-13"
     inkscape:window-y="47"
     inkscape:window-maximized="1"
     inkscape:showpageshadow="2"
     inkscape:deskcolor="#d1d1d1" />
  <metadata
     id="metadata3683">
    <rdf:RDF>
      <cc:Work
         rdf:about="">
        <dc:format>image/svg+xml</dc:format>
        <dc:type
           rdf:resource="http://purl.org/dc/dcmitype/StillImage" />
        <dc:title />
      </cc:Work>
    </rdf:RDF>
  </metadata>
  <g
     inkscape:label="Layer 1"
     inkscape:groupmode="layer"
     id="layer1"
     transform="translate(0,-263.13334)">
    <path
       id="rect1"
       style="fill:#ffffff;stroke:#ffffff;stroke-width:0.264583"
       d="m 1.6324584,263.26563 c -0.8309984,0 -1.5001669,0.66917 -1.5001669,1.50017 v 21.99969 c 0,0.831 0.6691685,1.50017 1.5001669,1.50017 H 23.632149 c 0.830998,0 1.500167,-0.66917 1.500167,-1.50017 V 264.7658 c 0,-0.831 -0.669169,-1.50017 -1.500167,-1.50017 h -4.030762 v 1.50017 h 3.030823 c 0.553998,0 0.999939,0.44594 0.999939,0.99994 v 19.99981 c 0,0.554 -0.445941,0.99994 -0.999939,0.99994 H 2.6323973 c -0.5539988,0 -0.9999389,-0.44594 -0.9999389,-0.99994 v -19.99981 c 0,-0.554 0.4459401,-0.99994 0.9999389,-0.99994 h 3.0308228 v -1.50017 z" />
  </g>
</svg>
