<svg xmlns="http://www.w3.org/2000/svg" width="128" height="128" viewBox="0 0 128 128">
  <defs>
    <style>
      .cls-1 {
        fill: #e6e6e6;
        fill-rule: evenodd;
      }
    </style>
  </defs>
  <path id="aim2" class="cls-1" d="M121.958,45.872l-8.786,5.652a15.293,15.293,0,0,0,.162-11.007,14.96,14.96,0,0,0-8.7-9.17l9.014-2.6a7.206,7.206,0,0,1,.795-0.338c4.268-1.516,9.157,1.279,10.92,6.245C126.964,39.157,125.441,43.9,121.958,45.872Zm-11.366-4.245c2.109,5.941-.121,12.209-4.987,14.412,0.32-2.949.037-6.415-.831-8.35-1.365-3.042-3.509-3.315-3.509-3.315l-7.134-.507V35.411a8.955,8.955,0,0,1,2.786-1.6C102.262,31.908,108.384,35.409,110.592,41.627ZM94.78,53.453c-0.354,4.086.359,7.484,1.593,7.591l-4.933-.428c-1.233-.107-1.946-3.506-1.592-7.591s1.641-7.311,2.874-7.2l4.933,0.428C96.42,46.142,95.134,49.367,94.78,53.453ZM84.17,45.583c-4.468,0-8.089-1-8.089-2.242V38.388c0,1.238,3.622,2.242,8.089,2.242s8.089-1,8.089-2.242v4.953C92.26,44.579,88.638,45.583,84.17,45.583Zm0-9.242c-4.468,0-8.089-1-8.089-2.242s3.622-2.242,8.089-2.242,8.089,1,8.089,2.242S88.638,36.341,84.17,36.341ZM69.219,48.9l-4.288-.507a9.025,9.025,0,0,1,4.405-6.122L73.2,42.775S70.233,44.062,69.219,48.9ZM68.275,72.865C64.1,81.628,51.792,88.756,44.707,92.271c3.779-5.916,4.734-14.186,1.89-22.2-3.133-8.825-10.042-14.987-17.513-16.593C51.66,45.93,60.028,49.86,60.028,49.86l0.061,0.148c3.37,0.734,6.933,4.509,8.8,9.777C70.749,65.013,70.384,70.151,68.275,72.865ZM42.608,71.727c4.579,12.9-.418,26.449-11.163,30.266A17.483,17.483,0,0,1,25.575,103C16.509,103,7.459,96.142,3.7,85.549c-4.579-12.9.419-26.448,11.163-30.265a17.476,17.476,0,0,1,5.869-1.008C29.8,54.276,38.847,61.135,42.608,71.727ZM15.465,61.605C7.716,64.358,4.306,74.678,7.849,84.655s12.7,15.834,20.444,13.082,11.159-13.072,7.616-23.05S23.214,58.853,15.465,61.605Zm13,17.949c-3.318,1.179-7.237-1.329-8.754-5.6s-0.057-8.691,3.261-9.87,7.237,1.329,8.754,5.6S31.785,78.376,28.467,79.555Zm38.85-28.842,9.137-3.761a5.949,5.949,0,0,1,1.439-.755c3.572-1.269,7.664,1.071,9.139,5.226s-0.224,8.553-3.8,9.822a5.966,5.966,0,0,1-.766.211l-8.956,3.686a13.724,13.724,0,0,0-.56-7.361A13.38,13.38,0,0,0,67.316,50.713Zm33.642-4.368c1.488,0.129,2.408,3.546,2.054,7.631s-1.848,7.293-3.336,7.164-2.408-3.546-2.054-7.631S99.469,46.216,100.958,46.345Zm4.673,28.77-1.689,1.267A1.839,1.839,0,0,1,101,74.911V65.8l7-5.292v9.872A5.924,5.924,0,0,1,105.631,75.115Zm-0.181-5.678a2.044,2.044,0,1,0,.646,2.244A1.706,1.706,0,0,0,105.45,69.437ZM77.159,92.469l-0.8.6A2.1,2.1,0,0,1,73,91.4V74.255l7-4V86.786A7.1,7.1,0,0,1,77.159,92.469Zm0.291-7.032a2.044,2.044,0,0,0-1.233,3.63A2.044,2.044,0,0,0,77.45,85.437Z"/>
</svg>
