<!DOCTYPE svg PUBLIC "-//W3C//DTD SVG 1.1//EN" "http://www.w3.org/Graphics/SVG/1.1/DTD/svg11.dtd">
<!-- Uploaded to: SVG Repo, www.svgrepo.com, Transformed by: SVG Repo Mixer Tools -->
<svg height="800px" width="800px" version="1.1" id="Layer_1" xmlns="http://www.w3.org/2000/svg" xmlns:xlink="http://www.w3.org/1999/xlink" viewBox="0 0 511.998 511.998" xml:space="preserve" fill="#ffffff" stroke="#ffffff">
<g id="SVGRepo_bgCarrier" stroke-width="0"/>
<g id="SVGRepo_tracerCarrier" stroke-linecap="round" stroke-linejoin="round"/>
<g id="SVGRepo_iconCarrier"> <path style="fill:#ffffff;" d="M468.483,80.447c-12.137-7.007-23.131-7.658-31.07-3.045L15.715,323.115 c0.025-0.015,0.052-0.026,0.077-0.041c-7.882,4.536-12.774,14.238-12.814,28.05C2.9,378.832,22.381,412.582,46.5,426.507 c12.483,7.207,23.749,7.672,31.733,2.615c-0.224,0.141-0.44,0.294-0.669,0.426l421.697-245.714 c7.839-4.555,12.699-14.242,12.737-28.009C512.079,128.112,492.596,94.368,468.483,80.447z"/> <g> <path style="fill:#ffffff;" d="M15.715,323.115L437.411,77.402c7.939-4.613,18.934-3.962,31.07,3.045L46.785,326.16 C34.648,319.152,23.654,318.501,15.715,323.115z"/> </g> <path style="fill:#ffffff;" d="M405.142,117.48c-12.137-7.007-23.131-7.658-31.07-3.045L15.715,323.115 c0.025-0.015,0.052-0.026,0.077-0.041c-7.882,4.536-12.774,14.238-12.814,28.05C2.9,378.832,22.381,412.582,46.5,426.507 c12.483,7.207,23.749,7.672,31.733,2.615c-0.224,0.141-0.44,0.294-0.669,0.426l358.357-208.68 c7.839-4.555,12.699-14.242,12.737-28.009C448.738,165.146,429.257,131.403,405.142,117.48z"/> <g> <path style="fill:#ffffff;" d="M15.715,323.115l358.357-208.68c7.939-4.613,18.934-3.962,31.07,3.045L46.785,326.16 C34.648,319.152,23.654,318.501,15.715,323.115z"/> </g> <path style="fill:#ffffff;" d="M200.055,230.971c-13.371-7.72-25.484-8.436-34.232-3.352L14.037,317.013 c0.027-0.016,0.055-0.03,0.083-0.046c-8.685,5-14.075,15.691-14.119,30.91c-0.087,30.534,21.382,67.724,47.954,83.065 c13.42,7.748,25.573,8.438,34.329,3.294c-0.031,0.019-0.062,0.041-0.093,0.059L233.978,344.9 c8.637-5.02,13.992-15.692,14.036-30.861C248.101,283.505,226.628,246.313,200.055,230.971z"/> <g> <path style="fill:#ffffff;" d="M14.037,317.013l151.787-89.394c8.748-5.083,20.862-4.368,34.232,3.352L48.269,320.366 C34.898,312.646,22.785,311.93,14.037,317.013z"/> <path style="fill:#ffffff;" d="M48.269,320.366c26.573,15.341,48.046,52.534,47.959,83.068 c-0.087,30.534-21.7,42.851-48.273,27.509C21.382,415.601-0.086,378.411,0,347.877C0.087,317.344,21.696,305.024,48.269,320.366z"/> <path style="fill:#ffffff;" d="M46.707,340.889c17.342,10.012,31.356,34.286,31.299,54.213 c-0.056,19.927-14.162,27.965-31.504,17.953c-17.342-10.012-31.353-34.284-31.296-54.211 C15.262,338.917,29.364,330.876,46.707,340.889z"/> </g> </g>
</svg>