<svg width="84" height="60" viewBox="0 0 84 60" fill="none" xmlns="http://www.w3.org/2000/svg">
<path fill-rule="evenodd" clip-rule="evenodd" d="M13.025 46.2574C16.3113 51.965 16.6682 57.9276 13.8222 59.5752C10.9762 61.2229 6.0049 57.9316 2.71857 52.224C-0.567751 46.5165 -0.924671 40.5539 1.92137 38.9062C4.76741 37.2586 9.73868 40.5498 13.025 46.2574ZM8.73066 48.7435C7.90908 47.3166 6.66626 46.4938 5.95475 46.9057C5.24324 47.3176 5.33247 48.8083 6.15405 50.2352C6.97563 51.6621 8.21845 52.4849 8.92996 52.073C9.64147 51.6611 9.55224 50.1704 8.73066 48.7435Z" fill="white"/>
<path d="M81.7345 6.47996C84.4731 11.2363 84.7706 16.2051 82.3989 17.5781L41.4449 41.2873C41.2552 42.8477 40.6417 44.0488 39.5883 44.6587L16.1371 58.2351C17.3358 55.2896 16.5642 50.4153 13.8839 45.7602C11.2036 41.1051 7.37953 37.9979 4.23629 37.5661L27.6874 23.9897C28.7409 23.3798 30.085 23.4476 31.5275 24.0631L72.4815 0.353977C74.8532 -1.01905 78.9959 1.72364 81.7345 6.47996Z" fill="white"/>
</svg>
