<svg width="52" height="52" viewBox="0 0 52 52" fill="none" xmlns="http://www.w3.org/2000/svg">
<path fill-rule="evenodd" clip-rule="evenodd" d="M3 0H49L49 18.087C49 40.6957 26 52 26 52C26 52 3.00002 40.6957 3.00002 18.087H3V0ZM16.5515 28.044C16.7675 32.832 20.3675 36.468 26.2355 36.468C32.0315 36.468 35.2715 33.228 35.2715 29.052C35.2715 23.8648 30.9197 22.4749 27.2526 21.3037C24.5826 20.451 22.2755 19.7141 22.2755 17.712C22.2755 16.164 23.5355 14.94 25.9115 14.94C28.2515 14.94 29.6555 16.488 29.7995 18.54H34.9475C34.7315 13.932 31.2035 10.332 25.9115 10.332C20.3675 10.332 17.1275 13.5 17.1275 17.64C17.1275 22.9199 21.4948 24.3648 25.166 25.5794C27.8277 26.46 30.1235 27.2196 30.1235 29.232C30.1235 30.636 28.8995 31.86 26.2355 31.86C23.4275 31.86 21.9875 30.168 21.6995 28.044H16.5515Z" fill="white"/>
</svg>
