<svg width="54" height="34" viewBox="0 0 54 34" fill="none" xmlns="http://www.w3.org/2000/svg">
<path d="M54 2V7L53 8V9.92969C53 10.5984 52.6658 11.2228 52.1094 11.5938L50 13L47.5996 16.2002C47.2219 16.7036 46.6294 17 46 17H45L40.3574 18.8574C40.1214 18.9518 39.8694 18.9999 39.6152 19H37L36.293 19.707C36.1055 19.8945 35.8511 20 35.5859 20H35.4141C35.1489 20 34.8945 19.8945 34.707 19.707L34 19H29L12.5674 33.5C12.2021 33.8223 11.7313 33.9999 11.2441 34H4C3 34 2 32 2 30C2 21 2 13 0 5C2.11934e-07 2 2 0 3 0H53L54 2ZM15.8281 14C15.2978 14.0001 14.7891 14.2109 14.4141 14.5859L12.5859 16.4141C12.2109 16.7891 12.0001 17.2978 12 17.8281V28L26 16H24C23 16 24 14 23 14H15.8281ZM9 18V26.5H10V18H9ZM17 25.5L18 26L24 21L23.5 20L17 25.5ZM16 11.5V13H23V11.5H16Z" fill="white"/>
</svg>
