<svg width="75" height="58" viewBox="0 0 75 58" fill="none" xmlns="http://www.w3.org/2000/svg">
<path d="M5.32324 8.57422C-2.61786 9.85402 2.50003 23.9997 3.01758 25.9795L4 30.5C4.25617 31.7798 7 32 7 32L11.2148 35.9619C11.7271 36.3458 13.5197 36.4737 14.0322 35.9619C14.0322 35.9619 16.9785 33.4024 18.6436 33.4023C20.3083 33.4023 43.4826 38.2638 44.2598 38.7773C45.0283 39.2893 50.9209 50.5523 50.9209 51.5762C50.9206 52.5966 49.9033 55.9014 49.8955 55.9268C49.7674 56.4387 53.738 58.2303 55.5312 57.9746L67.0586 56.4385C67.0586 56.4385 69 55.5 69.5 54C70 52.5 71.9998 47 73.5 39C75.0002 31 75 23 75 23V7.55078C75 3.71136 68.9802 -0.128032 67.5713 0.12793L65.3936 0.511719L63.7285 0L5.32324 8.57422ZM59.374 31.6113C59.3794 31.6754 59.8867 37.7658 59.8867 39.8027C59.8862 41.8413 58.1104 46.4143 58.0938 46.457L53.4824 37.499L59.374 31.6113ZM38.8809 33.4033L44.7725 34.6826C45.2841 34.8111 45.0285 36.0901 44.5166 35.9629L38.625 34.6826C38.1127 34.5547 38.3686 33.2757 38.8809 33.4033ZM52.458 25.9805L53.4824 27.2598L47.8467 32.8916L35.5508 30.0752C35.0386 29.9472 34.271 29.5633 34.2705 29.0518V25.9805C34.2705 25.4686 34.9104 25.0841 35.5508 24.9561L52.458 21.6289V25.9805ZM4.80957 10.1104C7.62728 10.1104 10.1896 15.3577 10.1895 19.5811C10.1891 23.7719 8.17121 25.1907 8.14062 25.2119L7.88379 29.3076L4.80957 28.7959L4 24.501C4 24.501 2.52698 22.6518 1.86426 18.3008C0.96792 12.4147 3.0165 10.111 4.80957 10.1104ZM67.999 2C69.4989 2 72.9488 5.00016 72.9492 8V12L21.999 21L11.2129 16.5098C10.7006 14.2062 10.1881 12.9255 8.7793 11.0059L67.999 2Z" fill="white"/>
</svg>
