<svg width="30" height="30" viewBox="0 0 30 30" fill="none" xmlns="http://www.w3.org/2000/svg">
<path fill-rule="evenodd" clip-rule="evenodd" d="M25.1613 7.5L12.5806 0L0 7.5V22.5L12.5806 30L15.1219 28.485C13.7951 26.8514 13 24.7686 13 22.5C13 22.3264 13.0047 22.1539 13.0138 21.9827C12.8441 21.9942 12.6727 22 12.5 22C8.35786 22 5 18.6421 5 14.5C5 10.3579 8.35786 7 12.5 7C16.2533 7 19.3627 9.75705 19.9134 13.3564C20.7357 13.1242 21.6034 13 22.5 13C23.4238 13 24.3169 13.1319 25.1613 13.3778V7.5ZM19.4301 13.507C18.9479 10.1113 16.0289 7.5 12.5 7.5C8.63401 7.5 5.5 10.634 5.5 14.5C5.5 18.366 8.63401 21.5 12.5 21.5C12.6866 21.5 12.8714 21.4927 13.0543 21.4784C13.1108 20.9496 13.2107 20.4338 13.3504 19.9347C13.0732 19.9777 12.7892 20 12.5 20C9.46243 20 7 17.5376 7 14.5C7 11.4624 9.46243 9 12.5 9C15.4158 9 17.8017 11.269 17.9883 14.1376C18.4474 13.8894 18.9293 13.6779 19.4301 13.507Z" fill="white"/>
<path fill-rule="evenodd" clip-rule="evenodd" d="M30 22.5C30 26.6421 26.6421 30 22.5 30C18.3579 30 15 26.6421 15 22.5C15 18.3579 18.3579 15 22.5 15C26.6421 15 30 18.3579 30 22.5ZM28 22.5C28 25.5376 25.5376 28 22.5 28C19.4624 28 17 25.5376 17 22.5C17 19.4624 19.4624 17 22.5 17C25.5376 17 28 19.4624 28 22.5ZM22 23V18H23V22.5L25.5 24.8L24.7 25.5L22 23Z" fill="white"/>
</svg>
