<svg width="50" height="50" viewBox="0 0 50 50" fill="none" xmlns="http://www.w3.org/2000/svg">
<path d="M3.04982 28.0354L21.5979 38.1136L24.9219 28.0469L6.40628 18.5156L3.04982 28.0354ZM25.3125 28.0469L28.4714 38.0241L47.6811 27.9459L43.9063 18.5156L25.3125 28.0469ZM3.05176e-05 10.4346L6.40628 18.5156L24.8438 8.35938L18.8789 0L3.05176e-05 10.4346ZM50 10.6119L31.5335 0L25.3125 8.35938L43.9063 18.5156L50 10.6119ZM5.26562 30.5562L5.20253 40.2333L24.5302 50V32.5838L22.1265 39.8079L5.26562 30.5562ZM25.7032 32.5838V50L44.9499 40.2317V30.6208L27.8828 39.8261L25.7032 32.5838Z" fill="white"/>
</svg>
