<?xml version="1.0" encoding="UTF-8"?>
<svg width="1200pt" height="1200pt" version="1.1" viewBox="0 0 1200 1200" xmlns="http://www.w3.org/2000/svg">
 <g fill="#fff">
  <path d="m823.64 887.27c10.91 0 18.184-7.2734 18.184-18.184l-0.003906-320c0-81.816-45.453-158.18-118.18-196.36-7.2734-3.6367-16.363-1.8164-21.816 3.6367l-101.82 101.82-101.82-101.82c-5.4531-5.4531-14.547-7.2734-21.816-3.6367-72.727 38.184-120 112.73-120 196.36v320c0 10.91 9.0898 18.184 18.184 18.184h76.363l-9.0977 276.36c0 5.4531 1.8164 9.0898 5.4531 12.727s9.0898 5.4531 12.727 5.4531h81.816c9.0898 0 16.363-5.4531 18.184-14.547l40.004-185.45 40 187.27c1.8164 9.0898 9.0898 14.547 18.184 14.547h81.816c5.4531 0 9.0898-1.8164 12.727-5.4531 3.6367-3.6367 5.4531-9.0898 5.4531-12.727l-10.91-276.36 76.367-0.003906z"/>
  <path d="m600 334.55c87.273 0 158.18-70.91 158.18-158.18 0-87.273-70.91-158.18-158.18-158.18s-158.18 70.91-158.18 158.18c0 87.27 70.91 158.18 158.18 158.18z"/>
  <path d="m321.82 845.45v-187.27c-129.09 14.543-260 41.816-260 94.543 0 52.727 130.91 80 260 92.727z"/>
  <path d="m321.82 585.45v-36.363c0-58.184 20-112.73 54.547-156.36-138.18 10.91-314.55 36.363-314.55 98.184 0 52.727 130.91 80 260 94.543z"/>
  <path d="m878.18 658.18v187.27c129.09-14.547 260-40 260-94.547 0-50.91-130.91-78.184-260-92.727z"/>
  <path d="m878.18 585.45c129.09-14.547 260-40 260-94.547 0-61.816-176.36-87.273-314.55-98.184 34.547 43.637 52.727 98.184 52.727 156.36v36.367z"/>
  <path d="m847.27 916.36c-18.184 9.0898-30.91 5.4531-63.637 5.4531l7.2734 192.73c134.55-9.0898 347.27-34.547 347.27-101.82 0-56.363-158.18-83.637-290.91-96.363z"/>
  <path d="m352.73 916.36c-130.91 12.727-290.91 38.184-290.91 96.363 0 67.273 212.73 92.727 347.27 101.82l7.2734-192.73c-32.727 0-45.453 3.6367-63.637-5.4531z"/>
 </g>
</svg>
