<svg width="20" height="20" viewBox="0 0 20 20" fill="none" xmlns="http://www.w3.org/2000/svg">
<path d="M9.99994 16C11.1045 16 11.9999 16.8954 11.9999 18C11.9999 19.1046 11.1045 20 9.99994 20C8.8954 20 7.99994 19.1045 7.99994 18C7.99994 16.8955 8.8954 16 9.99994 16ZM9.99994 8C11.1045 8 11.9999 8.89543 11.9999 10C11.9999 11.1046 11.1045 12 9.99994 12C8.8954 12 7.99994 11.1045 7.99994 10C7.99994 8.89545 8.8954 8.00003 9.99994 8ZM9.99994 0C11.1045 -5.73256e-09 11.9999 0.895431 11.9999 2C11.9999 3.10457 11.1045 4 9.99994 4C8.8954 3.99997 7.99994 3.10455 7.99994 2C7.99994 0.895451 8.8954 3.29911e-05 9.99994 0Z" fill="white"/>
</svg>
