<svg width="130" height="200" viewBox="0 0 130 200" fill="none" xmlns="http://www.w3.org/2000/svg">
<path fill-rule="evenodd" clip-rule="evenodd" d="M125 132C125 93 65 12 65 12C65 12 5 93 5 132C5 165.137 31.8629 192 65 192C98.1371 192 125 165.137 125 132Z" fill="white"/>
<path d="M65 12L69.0178 9.02386L65 3.59985L60.9822 9.02386L65 12ZM65 12C60.9822 14.9761 60.9821 14.976 60.9822 14.9762C60.9826 14.9766 60.9829 14.9771 60.9836 14.978C60.985 14.9799 60.9873 14.983 60.9904 14.9873C60.9968 14.9959 61.0068 15.0094 61.0203 15.0277C61.0473 15.0643 61.0885 15.1201 61.1434 15.1948C61.2531 15.3442 61.4178 15.5687 61.6335 15.8647C62.0651 16.4567 62.7014 17.3344 63.513 18.4677C65.1364 20.7347 67.4604 24.0231 70.2514 28.0933C75.8366 36.2384 83.2757 47.4908 90.7069 59.938C98.1474 72.401 105.527 85.9738 111.032 98.7724C116.594 111.706 120 123.307 120 132H130C130 121.193 125.906 108.044 120.218 94.8213C114.473 81.4637 106.853 67.474 99.2931 54.812C91.7243 42.1342 84.1634 30.6991 78.4986 22.438C75.6646 18.305 73.3011 14.9606 71.6433 12.6455C70.8143 11.4879 70.1614 10.5872 69.7141 9.97366C69.4904 9.66687 69.3181 9.43183 69.2009 9.27228C69.1422 9.19251 69.0974 9.13161 69.0667 9.09005C69.0514 9.06927 69.0396 9.05333 69.0314 9.04227C69.0273 9.03675 69.0241 9.03245 69.0219 9.02938C69.0207 9.02784 69.0197 9.02646 69.0191 9.02569C69.0184 9.02462 69.0178 9.02386 65 12ZM10 132C10 123.307 13.4055 111.706 18.9682 98.7724C24.473 85.9738 31.8526 72.401 39.2931 59.938C46.7243 47.4908 54.1634 36.2384 59.7486 28.0933C62.5396 24.0231 64.8636 20.7347 66.487 18.4677C67.2986 17.3344 67.9349 16.4567 68.3665 15.8647C68.5822 15.5687 68.7469 15.3442 68.8566 15.1948C68.9115 15.1201 68.9527 15.0643 68.9797 15.0277C68.9932 15.0094 69.0032 14.9959 69.0096 14.9873C69.0127 14.983 69.015 14.9799 69.0164 14.978C69.0171 14.9771 69.0174 14.9766 69.0178 14.9762C69.0179 14.976 69.0178 14.9761 65 12C60.9822 9.02386 60.9816 9.02462 60.9809 9.02569C60.9803 9.02646 60.9793 9.02784 60.9781 9.02938C60.9759 9.03245 60.9727 9.03675 60.9686 9.04227C60.9604 9.05333 60.9486 9.06927 60.9333 9.09005C60.9026 9.13161 60.8578 9.19251 60.7991 9.27228C60.6819 9.43183 60.5096 9.66687 60.2859 9.97366C59.8386 10.5872 59.1857 11.4879 58.3567 12.6455C56.6989 14.9606 54.3354 18.305 51.5014 22.438C45.8366 30.6991 38.2757 42.1342 30.7069 54.812C23.1474 67.474 15.527 81.4637 9.78183 94.8213C4.09449 108.044 0 121.193 0 132H10ZM0 132C0 167.899 29.1015 197 65 197V187C34.6243 187 10 162.376 10 132H0ZM65 197C100.899 197 130 167.899 130 132H120C120 162.376 95.3757 187 65 187V197Z" fill="black"/>
</svg>
