<svg width="15" height="16" viewBox="0 0 15 16" fill="none" xmlns="http://www.w3.org/2000/svg">
<path fill-rule="evenodd" clip-rule="evenodd" d="M6 3C6 2 5 0 3.5 0C2 0 1 2 1 3C1 3.46482 1.21605 3.82161 1.3971 4.12058C1.60555 4.46482 1.76759 4.73241 1.5 5C1.36254 5.13746 1.18729 5.23713 1.00542 5.34056C0.525745 5.61337 0 5.91238 0 7V14C0 15 1 16 2 16L5 16C6 16 7 15 7 14V12H15V7L7 7C7 5.91238 6.47426 5.61337 5.99458 5.34056C5.81271 5.23713 5.63746 5.13746 5.5 5C5.23241 4.73241 5.39445 4.46482 5.6029 4.12058C5.78395 3.82161 6 3.46482 6 3Z" fill="black"/>
<path d="M1 14C1 13.5 1 8 1 7C1 6 2.5 5.5 2.5 5C2.5 4.5 2 4 2 3C2 2 3 1 3.5 1C4 1 5 2 5 3C5 4 4.5 4.5 4.5 5C4.5 5.5 6 6 6 7L4 6.99999V12H6C6 12 6 13.5 6 14C6 14.5 5.5 15 5 15C4.5 15 2.5 15 2 15C1.5 15 1 14.5 1 14Z" fill="white"/>
<path d="M8 11H5V7.99999H8H11H14V11H11H8Z" fill="white"/>
</svg>
