<svg width="20" height="30" viewBox="0 0 20 30" fill="none" xmlns="http://www.w3.org/2000/svg">
<path fill-rule="evenodd" clip-rule="evenodd" d="M2 0C0.895431 0 0 0.89543 0 2V30H20V0H2ZM14.4126 18.49C14.4126 16.852 13.5126 15.898 12.4686 15.412C13.4586 14.854 14.1246 13.936 14.1246 12.784C14.1246 10.894 12.4326 9.166 9.8406 9.166C7.3026 9.166 5.5746 10.948 5.4306 12.91H8.0046C8.1126 12.226 8.7426 11.542 9.8766 11.542C10.9026 11.542 11.5506 12.19 11.5506 13.036C11.5506 13.882 10.9206 14.512 9.7326 14.512H8.8146V16.636H9.8226C11.1546 16.636 11.8386 17.284 11.8386 18.238C11.8386 19.174 11.1546 19.858 9.9126 19.858C8.6526 19.858 7.9686 19.03 7.8966 18.382H5.3226C5.4846 20.434 7.1046 22.234 9.9306 22.234C12.6846 22.234 14.4126 20.47 14.4126 18.49Z" fill="white"/>
</svg>
