<svg width="20" height="30" viewBox="0 0 20 30" fill="none" xmlns="http://www.w3.org/2000/svg">
<path fill-rule="evenodd" clip-rule="evenodd" d="M2 0C0.895431 0 0 0.89543 0 2V30H20V0H2ZM9.52413 19.516L11.6301 17.428C13.1061 15.952 14.2041 14.746 14.2041 12.928C14.2041 10.822 12.5121 9.166 9.86613 9.166C7.38212 9.166 5.51013 10.966 5.51013 13.36H7.97613C7.97613 12.262 8.76813 11.542 9.86613 11.542C10.8921 11.542 11.6301 12.154 11.6301 13.054C11.6301 14.008 11.1801 14.53 9.77612 15.934L5.67212 20.074V22H14.1681V19.516H9.52413Z" fill="white"/>
</svg>
