<svg width="30" height="30" viewBox="0 0 30 30" fill="none" xmlns="http://www.w3.org/2000/svg">
<path fill-rule="evenodd" clip-rule="evenodd" d="M15 30C23.2843 30 30 23.2843 30 15C30 6.71573 23.2843 0 15 0C6.71573 0 0 6.71573 0 15C0 23.2843 6.71573 30 15 30ZM15 27.75C22.0416 27.75 27.75 22.0416 27.75 15C27.75 7.95837 22.0416 2.25 15 2.25C7.95837 2.25 2.25 7.95837 2.25 15C2.25 22.0416 7.95837 27.75 15 27.75ZM13.5 8.25C13.5 7.42157 14.1716 6.75 15 6.75C15.8284 6.75 16.5 7.42157 16.5 8.25V14.4052C16.5637 14.4514 16.6246 14.5032 16.682 14.5606L18.8034 16.6819C19.3891 17.2677 19.3891 18.2174 18.8034 18.8032C18.2176 19.389 17.2678 19.389 16.682 18.8032L14.5607 16.6819C14.4526 16.5738 14.3645 16.4533 14.2963 16.325C13.8225 16.0729 13.5 15.5741 13.5 15V8.25Z" fill="#FFFFFF"/>
</svg>
