<?xml version="1.0" encoding="UTF-8"?>
<!DOCTYPE svg PUBLIC "-//W3C//DTD SVG 1.0//EN" "http://www.w3.org/TR/2001/REC-SVG-20010904/DTD/svg10.dtd">
<!-- Creator: CorelDRAW -->
<svg xmlns="http://www.w3.org/2000/svg" xml:space="preserve" width="82mm" height="82mm" version="1.0" shape-rendering="geometricPrecision" text-rendering="geometricPrecision" image-rendering="optimizeQuality" fill-rule="evenodd" clip-rule="evenodd"
viewBox="0 0 8200 8200"
 xmlns:xlink="http://www.w3.org/1999/xlink"
 xmlns:xodm="http://www.corel.com/coreldraw/odm/2003">
 <g id="layer_1">
  <metadata id="CorelCorpID_0Corel-Layer"/>
  <polygon fill="none" stroke="white" stroke-width="75" stroke-linecap="round" stroke-linejoin="round" stroke-miterlimit="22.9256" points="1936.16,5578.45 1936.16,6461.39 2566.72,6698.96 2566.72,5816.03 "/>
  <path fill="none" stroke="white" stroke-width="75" stroke-linecap="round" stroke-linejoin="round" stroke-miterlimit="22.9256" d="M6379.88 3856.82c955.85,0 1730.72,774.89 1730.72,1730.72 0,955.85 -774.87,1730.74 -1730.72,1730.74 -955.84,0 -1730.72,-774.89 -1730.72,-1730.74 0,-955.83 774.88,-1730.72 1730.72,-1730.72z"/>
  <line fill="none" stroke="white" stroke-width="75" stroke-linecap="round" stroke-linejoin="round" stroke-miterlimit="22.9256" x1="4047.53" y1="3135.82" x2="7026.97" y2= "2013.28" />
  <line fill="none" stroke="white" stroke-width="75" stroke-linecap="round" stroke-linejoin="round" stroke-miterlimit="22.9256" x1="3939.01" y1="7038.3" x2="3939.01" y2= "3313.64" />
  <path fill="none" stroke="white" stroke-width="75" stroke-linecap="round" stroke-linejoin="round" stroke-miterlimit="22.9256" d="M1916.31 2448l0 807.76 630.55 237.58 0 -807.76c0,-46.12 27.19,-85.39 70.34,-101.68l3210.93 -1212.04 -630.56 -237.57 -3210.92 1212.03c-43.13,16.28 -70.34,55.59 -70.34,101.68z"/>
  <path fill="none" stroke="white" stroke-width="75" stroke-linecap="round" stroke-linejoin="round" stroke-miterlimit="22.9256" d="M6744.74 4650.41c114.08,48.64 213.5,150.32 318.3,278.73 5.89,7.21 8.37,15.53 7.41,24.77 -0.97,9.25 -5.12,16.87 -12.37,22.7 -19.81,15.95 -38.41,30.98 -42.71,34.73 -112.87,98.69 -113.67,229.3 36.25,293.71 144.97,62.29 517.82,253.96 603.46,399.58 7.24,12.32 24.59,34.47 6.65,53.04l-381.51 394.82c-32.72,33.85 -54.73,21.11 -75.38,3.13l-424.54 -369.49c-59.69,-51.95 -102.65,-36.48 -160,1.43l-328.76 217.32c-69.33,45.83 -177.93,76.33 -250.55,-29.52l-70.56 -102.83c-34.09,-49.67 -102.57,-61.79 -152.56,-28.28 -139.83,93.73 -321.22,215.24 -461,309.02 -15.39,10.32 -36.34,6.2 -46.66,-9.19l-235.71 -351.33c-10.32,-15.38 -6.2,-36.35 9.19,-46.67l1629.13 -1092.67c9.73,-6.53 21.15,-7.6 31.92,-3zm-456.53 867.75c100.92,-67.42 281.79,105.06 127.59,208.59l-74.3 49.84 -88.92 59.66c-35.89,24.06 -64.25,44.33 -99.53,-7.94l-58.04 -85.95c-24.19,-35.86 -14.46,-84.89 21.46,-108.99l171.74 -115.21z"/>
  <path fill="none" stroke="white" stroke-width="75" stroke-linecap="round" stroke-linejoin="round" stroke-miterlimit="22.9256" d="M4936.93 6859.68l-953.35 359.18c-25.69,9.68 -50.92,9.68 -76.62,0l-3152.76 -1187.83c-43.15,-16.26 -70.34,-55.56 -70.34,-101.68l0 -3962.92c0,-46.12 27.19,-85.42 70.34,-101.68l3152.76 -1187.83c25.7,-9.68 50.93,-9.68 76.62,0l3152.76 1187.83c43.16,16.26 70.34,55.56 70.34,101.68l0 1883.69"/>
  <path fill="none" stroke="white" stroke-width="75" stroke-linecap="round" stroke-linejoin="round" stroke-miterlimit="22.9256" d="M3832.1 3131.7l-1279.39 -482.02m-630.54 -237.57l-1056.71 -398.12"/>
 </g>
</svg>
