<?xml version="1.0" encoding="UTF-8"?>
<!DOCTYPE svg PUBLIC "-//W3C//DTD SVG 1.0//EN" "http://www.w3.org/TR/2001/REC-SVG-20010904/DTD/svg10.dtd">
<!-- Creator: CorelDRAW -->
<svg xmlns="http://www.w3.org/2000/svg" xml:space="preserve" width="82mm" height="82mm" version="1.0" shape-rendering="geometricPrecision" text-rendering="geometricPrecision" image-rendering="optimizeQuality" fill-rule="evenodd" clip-rule="evenodd"
viewBox="0 0 8200 8200"
 xmlns:xlink="http://www.w3.org/1999/xlink"
 xmlns:xodm="http://www.corel.com/coreldraw/odm/2003">
 <g id="layer_1">
  <metadata id="CorelCorpID_0Corel-Layer"/>
  <path fill="none" stroke="white" stroke-width="75" stroke-linecap="round" stroke-linejoin="round" stroke-miterlimit="22.9256" d="M4937.86 6858.75l-953.35 359.18c-25.69,9.68 -50.92,9.68 -76.62,0l-3152.76 -1187.83c-43.15,-16.26 -70.34,-55.56 -70.34,-101.68l0 -3962.92c0,-46.12 27.19,-85.42 70.34,-101.68l3152.76 -1187.83c25.7,-9.68 50.93,-9.68 76.62,0l3152.76 1187.83c43.16,16.26 70.34,55.56 70.34,101.68l0 1883.7"/>
  <polygon fill="none" stroke="white" stroke-width="75" stroke-linecap="round" stroke-linejoin="round" stroke-miterlimit="22.9256" points="1937.09,5577.52 1937.09,6460.46 2567.65,6698.03 2567.65,5815.1 "/>
  <path fill="none" stroke="white" stroke-width="75" stroke-linecap="round" stroke-linejoin="round" stroke-miterlimit="22.9256" d="M6380.81 3855.89c955.85,0 1730.72,774.89 1730.72,1730.72 0,955.85 -774.87,1730.74 -1730.72,1730.74 -955.84,0 -1730.72,-774.89 -1730.72,-1730.74 0,-955.83 774.88,-1730.72 1730.72,-1730.72z"/>
  <path fill="none" stroke="white" stroke-width="75" stroke-linecap="round" stroke-linejoin="round" stroke-miterlimit="22.9256" d="M6404.02 4693.15c-596.98,0 -914.84,234.14 -1012.89,661.94 -26.58,115.96 -44.22,201.77 -73.79,272.26 -14.62,34.88 -44.12,55.07 -80.65,64.86 -60.16,16.12 -82.57,243.44 54.59,240.87l665.54 -12.41c50.18,-0.94 93.49,17.33 129.83,51.91l240.56 229c36.32,34.59 79.62,51.92 129.82,51.92 11.89,0 591.75,0.09 603.38,-0.03 122.04,-1.29 364.02,12.67 443.98,-69.25 21.22,-21.73 34.52,-48.42 30.87,-78.52 -4.64,-38.33 -9.33,-81.83 -14.26,-128.44 -0.99,-9.36 -34.73,-24.67 -35.74,-34.27 -20.37,-192.03 -46.15,-427.59 -94.65,-573.05 -148.22,-444.42 -440.16,-676.79 -986.59,-676.79z"/>
  <path fill="none" stroke="white" stroke-width="75" stroke-linecap="round" stroke-linejoin="round" stroke-miterlimit="22.9256" d="M6254.41 5649.74c44.09,-77.49 99.15,-151.04 218.62,-151.04l437.64 0c200.37,0 247.43,136.82 271.25,205.23l78.05 260.35"/>
  <ellipse fill="none" stroke="white" stroke-width="75" stroke-linecap="round" stroke-linejoin="round" stroke-miterlimit="22.9256" cx="6220.06" cy="5322.31" rx="68.51" ry="73.49"/>
  <line fill="none" stroke="white" stroke-width="75" stroke-linecap="round" stroke-linejoin="round" stroke-miterlimit="22.9256" x1="5420.52" y1="5714.58" x2="6054.87" y2= "5714.58" />
  <line fill="none" stroke="white" stroke-width="75" stroke-linecap="round" stroke-linejoin="round" stroke-miterlimit="22.9256" x1="4048.46" y1="3134.89" x2="7027.9" y2= "2012.35" />
  <path fill="none" stroke="white" stroke-width="75" stroke-linecap="round" stroke-linejoin="round" stroke-miterlimit="22.9256" d="M3833.03 3130.77l-1279.39 -482.02m-630.54 -237.57l-1056.71 -398.12"/>
  <line fill="none" stroke="white" stroke-width="75" stroke-linecap="round" stroke-linejoin="round" stroke-miterlimit="22.9256" x1="3939.94" y1="7037.37" x2="3939.94" y2= "3312.71" />
  <path fill="none" stroke="white" stroke-width="75" stroke-linecap="round" stroke-linejoin="round" stroke-miterlimit="22.9256" d="M1917.24 2447.07l0 807.76 630.55 237.58 0 -807.76c0,-46.12 27.19,-85.39 70.34,-101.68l3210.93 -1212.04 -630.56 -237.57 -3210.92 1212.03c-43.13,16.28 -70.34,55.59 -70.34,101.68z"/>
 </g>
</svg>
