<?xml version="1.0" encoding="UTF-8"?>
<!DOCTYPE svg PUBLIC "-//W3C//DTD SVG 1.0//EN" "http://www.w3.org/TR/2001/REC-SVG-20010904/DTD/svg10.dtd">
<!-- Creator: CorelDRAW -->
<svg xmlns="http://www.w3.org/2000/svg" xml:space="preserve" width="82mm" height="82mm" version="1.0" shape-rendering="geometricPrecision" text-rendering="geometricPrecision" image-rendering="optimizeQuality" fill-rule="evenodd" clip-rule="evenodd"
viewBox="0 0 8200 8200"
 xmlns:xlink="http://www.w3.org/1999/xlink"
 xmlns:xodm="http://www.corel.com/coreldraw/odm/2003">
 <g id="layer_1">
  <metadata id="CorelCorpID_0Corel-Layer"/>
  <path fill="none" stroke="white" stroke-width="75" stroke-linecap="round" stroke-linejoin="round" stroke-miterlimit="22.9256" d="M4936.93 6859.68l-953.35 359.18c-25.69,9.68 -50.92,9.68 -76.62,0l-3152.76 -1187.83c-43.15,-16.26 -70.34,-55.56 -70.34,-101.68l0 -3962.92c0,-46.12 27.19,-85.42 70.34,-101.68l3152.76 -1187.83c25.7,-9.68 50.93,-9.68 76.62,0l3152.76 1187.83c43.16,16.26 70.34,55.56 70.34,101.68l0 1883.7"/>
  <polygon fill="none" stroke="white" stroke-width="75" stroke-linecap="round" stroke-linejoin="round" stroke-miterlimit="22.9256" points="1936.16,5578.45 1936.16,6461.39 2566.72,6698.96 2566.72,5816.03 "/>
  <path fill="none" stroke="white" stroke-width="75" stroke-linecap="round" stroke-linejoin="round" stroke-miterlimit="22.9256" d="M6379.88 3856.82c955.85,0 1730.72,774.89 1730.72,1730.72 0,955.85 -774.87,1730.74 -1730.72,1730.74 -955.84,0 -1730.72,-774.89 -1730.72,-1730.74 0,-955.83 774.88,-1730.72 1730.72,-1730.72z"/>
  <line fill="none" stroke="white" stroke-width="75" stroke-linecap="round" stroke-linejoin="round" stroke-miterlimit="22.9256" x1="4047.53" y1="3135.82" x2="7026.97" y2= "2013.28" />
  <path fill="none" stroke="white" stroke-width="75" stroke-linecap="round" stroke-linejoin="round" stroke-miterlimit="22.9256" d="M3832.1 3131.7l-1279.39 -482.02m-630.54 -237.57l-1056.71 -398.12"/>
  <line fill="none" stroke="white" stroke-width="75" stroke-linecap="round" stroke-linejoin="round" stroke-miterlimit="22.9256" x1="3939.01" y1="7038.3" x2="3939.01" y2= "3313.64" />
  <path fill="none" stroke="white" stroke-width="75" stroke-linecap="round" stroke-linejoin="round" stroke-miterlimit="22.9256" d="M1916.31 2448l0 807.76 630.55 237.58 0 -807.76c0,-46.12 27.19,-85.39 70.34,-101.68l3210.93 -1212.04 -630.56 -237.57 -3210.92 1212.03c-43.13,16.28 -70.34,55.59 -70.34,101.68z"/>
  <path fill="none" stroke="white" stroke-width="75" stroke-linecap="round" stroke-linejoin="round" stroke-miterlimit="22.9256" d="M6565.43 6532.43l-371.1 0c-75.91,0 -137.83,-61.91 -137.83,-137.83l0 -345.83c0,-75.91 -61.91,-137.83 -137.83,-137.83l-345.84 0c-75.92,0 -137.83,-61.91 -137.83,-137.83l0 -371.11c0,-75.91 61.91,-137.83 137.83,-137.83l345.84 0c75.92,0 137.83,-61.91 137.83,-137.84l0 -345.82c0,-75.93 61.92,-137.83 137.83,-137.83l371.1 0c75.91,0 137.83,61.9 137.83,137.83l0 345.82c0,75.93 61.91,137.84 137.83,137.84l345.84 0c75.92,0 137.83,61.92 137.83,137.83l0 371.11c0,75.92 -61.91,137.83 -137.83,137.83l-345.84 0c-75.92,0 -137.83,61.92 -137.83,137.83l0 345.83c0,75.92 -61.92,137.83 -137.83,137.83z"/>
 </g>
</svg>
