<?xml version="1.0" encoding="UTF-8" standalone="no"?>
<svg
   width="400"
   height="200"
   viewBox="0 0 400 200"
   version="1.1"
   id="svg11"
   sodipodi:docname="guided_rocket.svg"
   inkscape:version="1.2 (dc2aedaf03, 2022-05-15)"
   xmlns:inkscape="http://www.inkscape.org/namespaces/inkscape"
   xmlns:sodipodi="http://sodipodi.sourceforge.net/DTD/sodipodi-0.dtd"
   xmlns="http://www.w3.org/2000/svg"
   xmlns:svg="http://www.w3.org/2000/svg"
   xmlns:rdf="http://www.w3.org/1999/02/22-rdf-syntax-ns#"
   xmlns:x="adobe:ns:meta/">
  <sodipodi:namedview
     id="namedview13"
     pagecolor="#ffffff"
     bordercolor="#666666"
     borderopacity="1.0"
     inkscape:showpageshadow="2"
     inkscape:pageopacity="0.0"
     inkscape:pagecheckerboard="0"
     inkscape:deskcolor="#d1d1d1"
     showgrid="false"
     inkscape:zoom="5.7063518"
     inkscape:cx="208.80241"
     inkscape:cy="52.660616"
     inkscape:window-width="3440"
     inkscape:window-height="1361"
     inkscape:window-x="-9"
     inkscape:window-y="-9"
     inkscape:window-maximized="1"
     inkscape:current-layer="svg11" />
  <metadata
     id="metadata2">
<?xpacket begin="﻿" id="W5M0MpCehiHzreSzNTczkc9d"?>    <x:xmpmeta
       x:xmptk="Adobe XMP Core 5.6-c138 79.159824, 2016/09/14-01:09:01        ">
      <rdf:RDF>
        <rdf:Description
           rdf:about="" />
      </rdf:RDF>
    </x:xmpmeta>
<?xpacket end="w"?>  </metadata>
  <defs
     id="defs6">
    <style
       id="style4">
      .cls-1 {
        fill: #27292c;
      }

      .cls-1, .cls-2 {
        fill-rule: evenodd;
      }

      .cls-2 {
        fill: #e8e8e8;
      }
    </style>
  </defs>
  <path
     class="cls-1"
     d="m 366.87112,133 v 20 H 320.08674 L 302,125 H 57.492913 c -1.121719,0 0.893368,8.36764 -0.575317,9.09607 -2.783389,1.38048 -9.247747,-4.44423 -11.251866,-4.539 -0.413646,-0.0196 -1.630879,-4.81126 -2.040755,-4.83366 C 18.081693,123.33041 3.1024143,116.48802 3.149938,100 c 0,-16.563275 16.73388,-23.089984 41.519965,-24.625055 0.298451,-0.01848 -0.118419,-4.193918 0.361637,-4.567893 C 47.946066,68.53657 56.21713,64.747604 58.101295,64.694851 60.237615,64.635038 56.400316,75 58.602305,75 68.714305,74.751 139,75 139,75 h 163 l 18.08674,-28 h 47.28005 v 20 l 24.36431,17 v 32 z"
     id="path8"
     sodipodi:nodetypes="ccccsssscsssccccccccc" />
  <path
     id="Rectangle_2_copy_3"
     data-name="Rectangle 2 copy 3"
     class="cls-2"
     d="M 166.66667,74.584882 171.49938,70 H 300 l 17.96283,-28 h 54.65179 v 28 l 19.40768,0.130112 v 15.460966 c 0,0 4.80871,3.187868 5.87113,5.700124 2.26138,5.347357 2.26138,12.070238 0,17.417598 -1.06242,2.51225 -5.87113,5.70012 -5.87113,5.70012 v 15.7088 L 372.61462,130 v 28 H 317.96283 L 300,130 H 171.37547 l -4.52293,-4.58488 H 58.364312 l 4.399009,13.03198 -6.255921,0.009 -13.818429,-7.86865 0.0074,-5.17257 C 11.666407,125.41512 -0.05214376,118.09091 0,100 0,80.777467 11.542491,74.584882 42.572491,74.584882 l 0.02259,-5.607786 13.874483,-8.005559 6.270952,-0.03545 -4.470041,13.321299 M 36.88228,80 c -19.902049,0 -31.5291202,2.874699 -31.5291202,20 0,17.37722 11.6701302,19.94026 31.5291202,20 l 6.052662,-0.024 -8.02e-4,-2.24859 3.68242,0.0125 0.02696,1.55984 -1.598484,0.0105 0.207492,9.29 10.817175,4.64112 -4.143097,-15.51023 4.365047,0.006 0.540035,2.32929 L 133,120.28913 V 93.205692 h -11.878 c -49.794,0 -75.489,3.396308 -94.644,6.065308 -6.8,1.615 -6.412,-0.26 -2.544,-1.717 33.482,-12.608 97.489,-9.429637 97.489,-9.429637 H 133 v -8.4135 l -76.133564,0.145953 -0.869798,2.321825 -4.088558,-0.0067 5.002247,-16.050045 -11.652947,5.192671 -0.262852,9.341192 1.682696,5.03e-4 0.0156,1.534091 -4.231204,0.01939 -0.02723,-2.286416 c 0,0 -4.410272,0.04848 -5.552114,0.07659 z M 295,75.668698 175.37371,75.389041 170.38421,79.764524 142,79.710863 V 88.12521 L 259.521,85.983 c 47.885,0.022 -18.71,5.819 -50.131,6 L 142,93.208233 v 27.080897 l 27.26874,-0.0515 5.11365,4.37508 L 295,124.33092 Z m 67.61462,4.077275 V 52 H 321.96283 L 304,80 v 16 h 78.0223 L 381.52664,80 Z M 382.0223,120 V 104 H 304 v 16 l 17.96283,28 h 40.65179 v -28.11772 z"
     sodipodi:nodetypes="ccccccccaaccccccccccccccscccccssccccccccccccscccccccccccccccccccccccccccccccccccccccccccccc" />
</svg>
