<svg width="20" height="20" viewBox="0 0 20 20" fill="none" xmlns="http://www.w3.org/2000/svg">
<path fill-rule="evenodd" clip-rule="evenodd" d="M15.3333 0H4.66667V2H0V4C0 9.18535 3.94668 13.4489 9 13.9506V17.0415C6.16229 17.2795 4 18.5135 4 20H9H11H16C16 18.5135 13.8377 17.2795 11 17.0415V13.9506C16.0533 13.4489 20 9.18535 20 4V2H15.3333V0ZM4.66667 9.96295C3.03 8.4981 2 6.36933 2 4H4.66667V9.96295ZM18 4C18 6.36933 16.97 8.49809 15.3333 9.96295V4H18ZM6 11.3333H14V9.33333H12.6667V10H7.66667L10.3333 6.66667L7.66667 3.33333H12.6667V4H14V2H6V3.33333L8.66667 6.66667L6 10V11.3333Z" fill="#C0C0C0"/>
</svg>
