<svg width="20" height="20" viewBox="0 0 20 20" fill="none" xmlns="http://www.w3.org/2000/svg">
<path fill-rule="evenodd" clip-rule="evenodd" d="M14 0H10.6667L5.87319 3.49016C5.46313 3.80083 5.343 4.34849 5.5588 4.79331C5.58963 4.85686 5.62732 4.9183 5.67199 4.97666C5.98643 5.38742 6.54254 5.50871 6.99233 5.29344C7.05659 5.2627 7.11867 5.22507 7.17755 5.18044L9.26727 3.59724C9.50006 3.44347 9.59717 3.37932 9.70367 3.35256C9.77991 3.3334 9.86095 3.3334 10 3.3334H15C15.2187 3.3334 15.5111 3.51319 15.6667 3.66673L19.6667 8.00007C20.0967 6.35576 19.6747 3.74309 18.6667 2.3334C17.9979 1.39814 17.3333 1.00265 15.7232 0.397265L15.7223 0.396961C14.6667 6.40622e-05 14.6665 0 14 0ZM4.76433 12.4655L4.77901 12.4511C5.15518 12.0622 5.15045 11.4438 4.76482 11.0607C4.3744 10.6727 3.74141 10.6727 3.35098 11.0607L2.27089 12.1338C1.88046 12.5218 1.88046 13.1507 2.27089 13.5386C2.65645 13.9217 3.2786 13.9265 3.67005 13.5529L3.68423 13.5387L4.76433 12.4655ZM4.45659 14.3347C4.08044 14.7237 4.08517 15.342 4.47079 15.7251C4.86122 16.113 5.49422 16.113 5.88464 15.7251L6.96473 14.6519C7.35518 14.2639 7.35518 13.635 6.96473 13.2471C6.91654 13.1992 6.86464 13.1572 6.80997 13.1212C6.42723 12.8687 5.90807 12.9059 5.56555 13.2328L5.55138 13.247L4.47128 14.3203L4.45659 14.3347ZM2.12013 10.7203C2.51055 10.3324 2.51055 9.70347 2.12013 9.31549C1.72971 8.92762 1.0967 8.92762 0.706292 9.31549L0.333374 9.66676C-0.0570479 10.0546 -0.0570479 10.6836 0.333374 11.0715C0.723797 11.4594 1.35679 11.4594 1.74721 11.0715L2.12013 10.7203ZM9.16526 15.4334C9.55569 15.8214 9.55569 16.4503 9.16526 16.8382L8.08514 17.9114C8.00497 17.991 7.91471 18.0543 7.81836 18.1012C7.44523 18.283 6.98161 18.2197 6.67128 17.9114C6.36095 17.6031 6.29729 17.1425 6.48029 16.7717L6.48169 16.7688C6.52878 16.6742 6.59198 16.5854 6.67128 16.5067L7.75138 15.4334C8.1418 15.0455 8.77484 15.0455 9.16526 15.4334ZM8.00001 9.56591e-06C5.33334 9.56468e-06 3.22619 0.712293 1.94643 2.02283L1.92362 2.04619C0.658748 3.34138 0 4.01592 0 6.66671C0 8.00007 0.119507 8.35877 0.119507 8.35877C0.948042 7.71928 2.14559 7.77763 2.90674 8.53397C3.24705 8.87205 3.44695 9.29696 3.50646 9.73684C4.21226 9.54789 4.99744 9.72863 5.55143 10.2792C5.98681 10.7117 6.19237 11.2862 6.16815 11.8527C6.73818 11.8288 7.31609 12.033 7.75131 12.4655C8.18675 12.8981 8.39233 13.4725 8.36805 14.0391C8.93832 14.015 9.51647 14.2192 9.9518 14.6519C10.7767 15.4714 10.7767 16.8001 9.9518 17.6198L9.36977 18.1982L10.9572 19.7069C11.3761 20.105 12.036 20.0966 12.4447 19.688C12.8577 19.275 12.8607 18.6072 12.4538 18.1904L12.2116 17.9482C11.9952 17.7317 11.9952 17.3806 12.2116 17.1642C12.3478 17.0279 12.5372 16.9774 12.7129 17.0126C12.8166 17.0332 12.9155 17.0838 12.9958 17.1642L13.2288 17.397L13.2417 17.4102L13.2429 17.4114C13.6511 17.8196 14.3129 17.8196 14.721 17.4114C15.1292 17.0033 15.1292 16.3415 14.721 15.9334L13.8289 15.0564C13.7175 14.9449 13.6635 14.7979 13.6667 14.6519C13.6639 14.5064 13.7179 14.36 13.829 14.249C14.0455 14.0325 14.3965 14.0325 14.6131 14.249L15.4452 15.066C15.8864 15.5073 16.602 15.5073 17.0433 15.066C17.4845 14.6247 17.4845 13.9093 17.0433 13.468L15.5775 12.0119C15.3609 11.7954 15.3609 11.4443 15.5775 11.2279C15.7941 11.0113 16.145 11.0113 16.3616 11.2279L17.3333 12.0001C17.6667 12.3334 18.6667 13.0001 19.3334 12.3334C19.3604 12.2998 19.3936 12.262 19.4304 12.22C19.6492 11.9705 20 11.5706 20 11.0001C20 10.3334 19.3334 9.66674 19.3334 9.66674L18.6175 8.97196C18.6033 8.95777 18.59 8.94291 18.5776 8.92761L14.6667 5.00007H10L8.1821 6.50616C6.98123 7.41595 5.26709 7.18393 4.35134 5.98767C3.43359 4.78883 3.66541 3.07616 4.86881 2.16442L8.00001 9.56591e-06Z" fill="#C0C0C0"/>
</svg>
