<svg width="18" height="20" viewBox="0 0 18 20" fill="none" xmlns="http://www.w3.org/2000/svg">
<path fill-rule="evenodd" clip-rule="evenodd" d="M5.06478 19.9995H12.9352C12.9352 19.9995 12.9855 20.0571 12.9352 18.9495C12.9223 18.6648 12.895 18.4088 12.8713 18.1864C12.8215 17.7194 12.7875 17.4003 12.9352 17.2746C13.156 17.0866 13.574 17.2584 14.057 17.457C14.6502 17.7009 15.3415 17.9851 15.8866 17.6932C16.3366 17.4523 16.3593 17.2066 16.3905 16.8702C16.42 16.552 16.457 16.1527 16.8704 15.5996C16.9408 15.5054 17.0035 15.4224 17.06 15.3476L17.0606 15.3468C17.4718 14.8024 17.5522 14.696 17.8543 13.9246C18.1804 13.0918 17.7606 12.4139 17.3728 11.7878C17.1145 11.3707 16.8704 10.9765 16.8704 10.5747C16.8704 10.0264 17.1516 9.55783 17.4685 9.02976C17.8776 8.34804 18 7.56713 18 6.38732C18 4.29363 14.9028 0 9 0C3.09717 0 0 4.29363 0 6.38732C0 7.56713 0.122445 8.34804 0.531525 9.02976C0.848396 9.55783 1.12956 10.0264 1.12956 10.5747C1.12956 10.9765 0.885457 11.3707 0.627163 11.7878C0.239397 12.4139 -0.180365 13.0918 0.145749 13.9246C0.447795 14.696 0.528201 14.8024 0.939414 15.3468C0.996041 15.4218 1.05894 15.5051 1.12956 15.5996C1.54303 16.1527 1.58003 16.552 1.60951 16.8702C1.64067 17.2066 1.66343 17.4523 2.11336 17.6932C2.65848 17.9851 3.34981 17.7009 3.94296 17.457C4.42603 17.2584 4.84398 17.0866 5.06478 17.2746C5.2125 17.4003 5.17849 17.7194 5.12871 18.1864C5.105 18.4088 5.07771 18.6648 5.06478 18.9495C5.01447 20.0571 5.06478 19.9995 5.06478 19.9995ZM9 13.9245C8.6693 13.9246 8.5782 14.3234 8.39602 15.121C8.3142 15.4792 8.214 15.9178 8.06547 16.4369C7.70678 17.6905 8.14003 17.5368 8.58165 17.3801C8.73007 17.3274 8.87944 17.2744 9 17.2744C9.12058 17.2744 9.27006 17.3274 9.41852 17.3801C9.86016 17.5368 10.2934 17.6905 9.9347 16.4369C9.78612 15.9177 9.68591 15.479 9.60407 15.1208C9.42191 14.3233 9.33075 13.9245 9 13.9245ZM3.06053 11.4937C2.10629 11.9043 1.79622 12.9789 2.10629 13.9572C2.38362 14.8323 3.06047 15.5995 4.01477 15.5996C4.96906 15.5996 7.83179 13.9572 7.83173 13.1361C7.83168 12.3149 4.01477 11.0832 3.06053 11.4937ZM14.9395 11.4937C15.8937 11.9043 16.2038 12.9789 15.8937 13.9572C15.6164 14.8323 14.9395 15.5995 13.9852 15.5996C13.0309 15.5996 10.1682 13.9572 10.1683 13.1361C10.1683 12.3149 13.9852 11.0832 14.9395 11.4937Z" fill="#C0C0C0"/>
</svg>
