<svg width="20" height="20" viewBox="0 0 20 20" fill="none" xmlns="http://www.w3.org/2000/svg">
<path d="M10.5 1.01367C15.0652 1.26486 18.7342 4.93419 18.9854 9.5H20V10.5H18.9854C18.7341 15.0655 15.0652 18.7341 10.5 18.9854V20H9.5V18.9854C4.93471 18.734 1.2659 15.0654 1.01465 10.5H0V9.5H1.01465C1.26585 4.93427 4.93465 1.26498 9.5 1.01367V0H10.5V1.01367ZM10.5 3H9.5V2.0166C5.48629 2.26543 2.26632 5.48597 2.01758 9.5H3V10.5H2.01758C2.26637 14.5137 5.48635 17.7336 9.5 17.9824V17H10.5V17.9824C14.5136 17.7337 17.7336 14.5138 17.9824 10.5H17V9.5H17.9824C17.7337 5.4859 14.5136 2.26533 10.5 2.0166V3ZM8.06445 9.00098C8.19858 9.34793 8.31737 9.75518 8.5 10C8.68377 10.2489 8.70272 10.4486 8.71582 10.5918C8.72972 10.7431 8.80013 10.8916 9 11C9.10693 11.058 9.5 11 9.5 11C9.5 11 9.90187 10.9154 10 11C10.0657 11.0566 10 11 10 11.5V12H10.8975C10.8764 12.0556 10.8526 12.1088 10.8232 12.1602C10.7176 12.345 10.624 12.5093 10.624 12.7012C10.624 12.8418 10.7049 12.98 10.791 13.126C10.9203 13.3451 11.0609 13.5826 10.9521 13.874C10.8516 14.1436 10.8243 14.1809 10.6875 14.3711V14.3721C10.6687 14.3982 10.6475 14.427 10.624 14.46C10.4863 14.6534 10.4737 14.793 10.4639 14.9043C10.4535 15.022 10.4457 15.1081 10.2959 15.1924C10.1142 15.2945 9.88327 15.1957 9.68555 15.1104C9.5246 15.0409 9.38509 14.9801 9.31152 15.0459C9.26245 15.09 9.27444 15.202 9.29102 15.3652C9.29892 15.4431 9.30721 15.5332 9.31152 15.6328C9.32826 16.02 9.31152 16 9.31152 16H6.68848C6.6879 16.0006 6.67204 16.013 6.68848 15.6328C6.69279 15.5332 6.70206 15.4431 6.70996 15.3652C6.72655 15.2018 6.73772 15.0899 6.68848 15.0459C6.61486 14.9802 6.47545 15.0409 6.31445 15.1104C6.11674 15.1957 5.88579 15.2945 5.7041 15.1924C5.55452 15.1081 5.54651 15.0219 5.53613 14.9043C5.52631 14.793 5.51447 14.6532 5.37695 14.46C5.35341 14.4269 5.33235 14.3973 5.31348 14.3711C5.17651 14.1807 5.14938 14.1436 5.04883 13.874C4.94015 13.5826 5.07976 13.3451 5.20898 13.126C5.29509 12.98 5.37695 12.8418 5.37695 12.7012C5.37695 12.5093 5.28239 12.345 5.17676 12.1602C5.04057 11.9216 5 11.6481 5 11.2354C5.00021 10.5025 6.03258 9.00009 8 9C8.02154 9 8.04314 9.00062 8.06445 9.00098ZM8 13.874C7.88995 13.8742 7.85947 14.0132 7.79883 14.292C7.77155 14.4174 7.73799 14.5712 7.68848 14.7529C7.569 15.1913 7.71325 15.1378 7.86035 15.083C7.90975 15.0646 7.95984 15.046 8 15.0459C8.04018 15.0459 8.09018 15.0646 8.13965 15.083C8.28687 15.1378 8.43111 15.1917 8.31152 14.7529C8.26201 14.5712 8.22845 14.4174 8.20117 14.292C8.1405 14.0131 8.11021 13.874 8 13.874ZM7.61035 13.5977C7.61033 13.3104 6.3392 12.8793 6.02051 13.0225C5.70249 13.1661 5.59892 13.5424 5.70215 13.8848C5.79455 14.1909 6.02001 14.4597 6.33789 14.46C6.656 14.46 7.61033 13.8851 7.61035 13.5977ZM9.98047 13.0225C9.66237 12.8788 8.38967 13.3103 8.38965 13.5977C8.38966 13.8851 9.344 14.46 9.66211 14.46C9.98018 14.4599 10.2054 14.191 10.2979 13.8848C10.4011 13.5424 10.2984 13.1662 9.98047 13.0225ZM12 4C13.9675 4 14.9998 5.50248 15 6.23535C15 6.64815 14.9595 6.92161 14.8232 7.16016C14.7176 7.34498 14.624 7.50926 14.624 7.70117C14.624 7.84179 14.7049 7.97999 14.791 8.12598C14.9203 8.34512 15.0609 8.58256 14.9521 8.87402C14.8516 9.14363 14.8243 9.1809 14.6875 9.37109V9.37207C14.6687 9.39823 14.6475 9.42703 14.624 9.45996C14.4863 9.65337 14.4737 9.79296 14.4639 9.9043C14.4535 10.022 14.4457 10.1081 14.2959 10.1924C14.1142 10.2945 13.8833 10.1957 13.6855 10.1104C13.5246 10.0409 13.3851 9.98013 13.3115 10.0459C13.2625 10.09 13.2744 10.202 13.291 10.3652C13.2989 10.4431 13.3072 10.5332 13.3115 10.6328C13.3283 11.02 13.3115 11 13.3115 11H10.6885C10.6879 11.0006 10.672 11.013 10.6885 10.6328C10.6928 10.5332 10.7021 10.4431 10.71 10.3652C10.7266 10.2018 10.7377 10.0899 10.6885 10.0459C10.6149 9.98017 10.4755 10.0409 10.3145 10.1104C10.1167 10.1957 9.88579 10.2945 9.7041 10.1924C9.55452 10.1081 9.54651 10.0219 9.53613 9.9043C9.52631 9.79302 9.51447 9.65322 9.37695 9.45996C9.35341 9.4269 9.33235 9.39733 9.31348 9.37109C9.17651 9.1807 9.14938 9.14359 9.04883 8.87402C8.94015 8.58263 9.07976 8.34508 9.20898 8.12598C9.29509 7.97999 9.37695 7.84179 9.37695 7.70117C9.37695 7.50926 9.28239 7.34498 9.17676 7.16016C9.04057 6.92164 9 6.64806 9 6.23535C9.00021 5.5025 10.0326 4.00009 12 4ZM12 8.87402C11.89 8.8742 11.8595 9.01323 11.7988 9.29199C11.7716 9.41737 11.738 9.57125 11.6885 9.75293C11.569 10.1913 11.7132 10.1378 11.8604 10.083C11.9098 10.0646 11.9598 10.046 12 10.0459C12.0402 10.0459 12.0902 10.0646 12.1396 10.083C12.2869 10.1378 12.4311 10.1917 12.3115 9.75293C12.262 9.57125 12.2284 9.41736 12.2012 9.29199C12.1405 9.01311 12.1102 8.87402 12 8.87402ZM11.6104 8.59766C11.6103 8.31036 10.3392 7.87926 10.0205 8.02246C9.70249 8.16611 9.59892 8.5424 9.70215 8.88477C9.79455 9.1909 10.02 9.4597 10.3379 9.45996C10.656 9.45997 11.6103 8.88507 11.6104 8.59766ZM13.9805 8.02246C13.6624 7.87877 12.3897 8.31025 12.3896 8.59766C12.3897 8.88507 13.344 9.45997 13.6621 9.45996C13.9802 9.45991 14.2054 9.19102 14.2979 8.88477C14.4011 8.54243 14.2984 8.16618 13.9805 8.02246Z" fill="white"/>
</svg>
