<svg width="20" height="20" viewBox="0 0 20 20" fill="none" xmlns="http://www.w3.org/2000/svg">
<path fill-rule="evenodd" clip-rule="evenodd" d="M20 0H0V1C0 1.55228 0.447716 2 1 2H1.33333L8.96 10L1.33333 18H1C0.447715 18 0 18.4477 0 19V20H20V19C20 18.4477 19.5523 18 19 18H18.6667L11.04 10L18.6667 2H19C19.5523 2 20 1.55228 20 1V0ZM10 9.46667L2.72 2H17.28L10 9.46667ZM4 18H2.72L10 10.5333L17.28 18H16L10.6667 15.3333C10.1435 15.1212 9.83719 15.0988 9.2549 15.3333L4 18ZM6.66667 5.33333L9.64706 8.33333C9.82353 8.5 9.91176 8.58333 10 8.58333C10.0882 8.58333 10.1765 8.5 10.3529 8.33333L15.3333 3.33333L6.66667 5.33333Z" fill="#C0C0C0"/>
</svg>
