<svg width="20" height="20" viewBox="0 0 20 20" fill="none" xmlns="http://www.w3.org/2000/svg">
<path d="M10 4C14.4308 4 18 7 18 11V14C18 15.1454 17.1692 16 16 16C15.6308 16 15 16.5177 15 17V18.5C15 19 15 19.25 14 19.5C12 20 11.4769 20 10 20C8.52308 20 8 20 6 19.5C5 19.25 5.07692 19 5 18.5V17C5 16.5177 4.36923 16 4 16C2.83077 16 2 15.0567 2 14V11C2 7 5.56923 4 10 4ZM10 15C9.5 15 9.26667 15.4769 9 16C8.73333 16.5231 8.5 17.5 9 17.5H11C11.5 17.5 11.2667 16.5231 11 16C10.7333 15.4769 10.5 15 10 15ZM6.55371 10.8369C5.38454 10.837 4.46191 11.7414 4.46191 12.8867V13.0068C4.46191 13.6097 4.76943 14.2125 5.2002 14.5742C5.63092 14.8756 6.1076 15 6.55371 15C6.99361 15 7.70286 14.8794 7.72266 14.876C8.46103 14.6951 9.13853 14.1527 9.32324 13.3691C9.50786 12.7663 9.32333 12.1024 8.9541 11.6201C8.52335 11.1379 7.96886 10.8369 7.29199 10.8369H6.55371ZM12.708 10.8369C12.0312 10.8369 11.4151 11.1379 11.0459 11.6201C10.6767 12.1024 10.4921 12.7663 10.6768 13.3691C10.8615 14.1527 11.4774 14.6951 12.2773 14.876C12.2965 14.8795 12.9611 15 13.4463 15C13.9386 15 14.4306 14.8756 14.7998 14.5742C15.2306 14.2125 15.5381 13.6097 15.5381 13.0068V12.8867C15.5381 11.7414 14.6155 10.837 13.4463 10.8369H12.708ZM11 1H14V2H11L11.2305 2.00781C12.5877 2.08336 16.8987 2.76636 18.3994 5.29883C20.0001 8 20 8.00019 20 11C20 11 20 13 20 14C20 14.9982 19.0036 15 19 15V11C19 8.5001 19.0004 7.99965 17.5996 5.82812C16.1987 3.65667 12 3 11 3H9V2H7.76758C7.21665 2.58134 5.73923 3 4 3C1.79086 3 0 2.32843 0 1.5C0 0.671573 1.79086 0 4 0C5.73923 0 7.21665 0.418661 7.76758 1H9V0H11V1ZM4 0.5C2.34315 0.5 1 0.947715 1 1.5C1 2.05228 2.34315 2.5 4 2.5C5.65685 2.5 7 2.05228 7 1.5C7 0.947715 5.65685 0.5 4 0.5Z" fill="white"/>
</svg>
