<svg width="20" height="20" viewBox="0 0 20 20" fill="none" xmlns="http://www.w3.org/2000/svg">
<path d="M18.5703 10C19.1615 11.2476 19.9999 11.7048 20 13C19.9998 13.9997 18.9999 14.0003 18 17C17.0047 19.9855 13.038 19.9999 13 20L11 19.25V14.8232C13.3845 14.2596 15.2597 12.3845 15.8232 10H18.5703ZM3.17578 10C3.73936 12.3846 5.61536 14.2597 8 14.8232V18.125L5 17C4.99992 13.621 2.8589 13.096 2.19434 10H3.17578ZM10 3.02344C12.6385 3.26128 14.7388 5.36149 14.9766 8H19V9H14.9766C14.7386 11.6384 12.6384 13.7378 10 13.9756V18H9V13.9756C6.36162 13.7378 4.26135 11.6384 4.02344 9H0V8H4.02344C4.26125 5.36149 6.36151 3.26128 9 3.02344V0H10V3.02344ZM10 5H9V4.02832C6.91428 4.25897 5.25893 5.91425 5.02832 8H6V9H5.02832C5.25903 11.0856 6.91438 12.7401 9 12.9707V12H10V12.9707C12.0856 12.7401 13.741 11.0856 13.9717 9H13V8H13.9717C13.7411 5.91425 12.0857 4.25897 10 4.02832V5ZM9.5 7C10.3283 7 10.9999 7.67169 11 8.5C10.9999 9.32831 10.3283 10 9.5 10C8.67165 10 8.00013 9.32831 8 8.5C8.00013 7.67169 8.67165 7 9.5 7ZM8 2.1748C5.61504 2.73826 3.73929 4.61507 3.17578 7H2.04102C2.38834 2.70873 4.99182 0.745451 8 0.180664V2.1748ZM11 0.0429688C14.6401 0.35566 17.9999 2.41792 18 7H15.8232C15.2597 4.61527 13.3847 2.73833 11 2.1748V0.0429688Z" fill="white"/>
</svg>
