<svg width="20" height="20" viewBox="0 0 20 20" fill="none" xmlns="http://www.w3.org/2000/svg">
<path fill-rule="evenodd" clip-rule="evenodd" d="M10.5 0V1.01367C15.0654 1.26473 18.7351 4.9341 18.9863 9.50004H20V10.5H18.9863C18.735 15.0657 15.0653 18.7352 10.5 18.9863V20H9.50001V18.9862C4.93469 18.7349 1.26496 15.0655 1.01372 10.5H0V9.50004H1.01371C1.26486 4.93427 4.93462 1.26499 9.50001 1.01369V0H10.5ZM2.01544 10.5H3V9.50004H2.01543C2.26409 5.4859 5.48621 2.26421 9.50001 2.01542V3H10.5V2.01539C14.5138 2.26398 17.7359 5.48576 17.9846 9.50004H17V10.5H17.9845C17.7358 14.514 14.5137 17.7359 10.5 17.9845V17H9.50001V17.9845C5.48627 17.7357 2.26419 14.5139 2.01544 10.5ZM12.1862 15.9997H7.81377C7.81377 15.9997 7.78582 16.0343 7.81377 15.3697C7.82095 15.1989 7.8361 15.0454 7.84927 14.9119L7.84927 14.9119L7.84928 14.9119L7.84928 14.9119L7.84928 14.9118L7.84928 14.9118C7.87694 14.6316 7.89584 14.4402 7.81377 14.3647C7.6911 14.252 7.45891 14.3551 7.19053 14.4742C6.86101 14.6205 6.47693 14.7911 6.17409 14.6159C5.92413 14.4714 5.91148 14.3239 5.89417 14.1221C5.87779 13.9312 5.85724 13.6916 5.62753 13.3597C5.5883 13.3031 5.55336 13.2531 5.5219 13.2081C5.29344 12.8814 5.24878 12.8176 5.08097 12.3548C4.8998 11.8551 5.133 11.4484 5.34842 11.0727C5.49192 10.8224 5.62753 10.5859 5.62753 10.3448C5.62753 10.0158 5.47133 9.7347 5.29529 9.41786C5.06803 9.00883 5 8.54028 5 7.83239C5 6.57618 6.72065 4 10 4C13.2794 4 15 6.57618 15 7.83239C15 8.54028 14.932 9.00883 14.7047 9.41786C14.5287 9.7347 14.3725 10.0158 14.3725 10.3448C14.3725 10.5859 14.5081 10.8224 14.6516 11.0727C14.867 11.4484 15.1002 11.8551 14.919 12.3548C14.7512 12.8176 14.7066 12.8814 14.4781 13.2081L14.4778 13.2086L14.4772 13.2094C14.446 13.2541 14.4113 13.3036 14.3725 13.3597C14.1428 13.6916 14.1222 13.9312 14.1058 14.1221C14.0885 14.3239 14.0759 14.4714 13.8259 14.6159C13.5231 14.7911 13.139 14.6205 12.8095 14.4742C12.5411 14.3551 12.3089 14.252 12.1862 14.3647C12.1042 14.4402 12.1231 14.6316 12.1507 14.9118V14.9118L12.1507 14.9119C12.1639 15.0453 12.1791 15.1989 12.1862 15.3697C12.2142 16.0343 12.1862 15.9997 12.1862 15.9997ZM9.66446 13.0726C9.76567 12.594 9.81628 12.3547 10 12.3547C10.1837 12.3547 10.2344 12.594 10.3356 13.0725C10.3811 13.2874 10.4367 13.5506 10.5193 13.8622C10.7186 14.6143 10.4779 14.5221 10.2325 14.4281C10.15 14.3964 10.067 14.3646 10 14.3646C9.93302 14.3647 9.85004 14.3965 9.76759 14.4281C9.52224 14.5221 9.28155 14.6143 9.48082 13.8622C9.56333 13.5507 9.61899 13.2875 9.66445 13.0726L9.66446 13.0726ZM6.17016 12.3743C5.9979 11.7873 6.17016 11.1426 6.70029 10.8962C7.23043 10.6499 9.35093 11.3889 9.35096 11.8816C9.351 12.3743 7.76059 13.3597 7.23043 13.3597C6.70026 13.3597 6.32423 12.8994 6.17016 12.3743ZM13.8298 12.3743C14.0021 11.7873 13.8298 11.1426 13.2997 10.8962C12.7696 10.6499 10.6491 11.3889 10.649 11.8816C10.649 12.3743 12.2394 13.3597 12.7696 13.3597C13.2997 13.3597 13.6758 12.8994 13.8298 12.3743Z" fill="#C0C0C0"/>
</svg>
