<svg width="20" height="20" viewBox="0 0 20 20" fill="none" xmlns="http://www.w3.org/2000/svg">
<path d="M4 7.00024C7 7.00024 8 8.87811 8 11.0002C7.99994 11.6216 7.76161 12.4802 7.5 13.0002L4 20.0002L0.5 13.0002C0.237998 12.48 6.22657e-05 11.6221 0 11.0002C0 8.87811 1 7.00024 4 7.00024ZM4 8.00024C2.03239 8.00024 1 9.5028 1 10.2356C1 10.6484 1.04049 10.9218 1.17676 11.1604C1.28238 11.3452 1.37695 11.5095 1.37695 11.7014C1.37685 11.8418 1.29496 11.9795 1.20898 12.1252C1.07976 12.3444 0.940263 12.5819 1.04883 12.8733C1.14951 13.1433 1.17641 13.1808 1.31348 13.3713C1.33233 13.3975 1.35345 13.4272 1.37695 13.4602C1.51432 13.6532 1.52437 13.7105 1.53418 13.8215C1.54456 13.9392 1.55228 14.0253 1.70215 14.1096C1.88371 14.2117 2.11391 14.1129 2.31152 14.0276C2.47255 13.9581 2.61488 13.9803 2.68848 14.0461C2.73755 14.0902 2.72654 14.2022 2.70996 14.3655C2.70207 14.4432 2.69279 14.5326 2.68848 14.6321C2.67232 15.0055 2.68736 15.0011 2.68848 15.0002H5.31152C5.31264 15.0011 5.32768 15.0055 5.31152 14.6321C5.30721 14.5326 5.29793 14.4432 5.29004 14.3655C5.27346 14.2022 5.26245 14.0902 5.31152 14.0461C5.38512 13.9803 5.50108 13.9581 5.66211 14.0276C5.85973 14.1129 6.08991 14.2117 6.27148 14.1096C6.42141 14.0253 6.42907 13.9392 6.43945 13.8215C6.44932 13.7105 6.48563 13.6532 6.62305 13.4602C6.64651 13.4273 6.6677 13.3975 6.68652 13.3713C6.82351 13.1809 6.85051 13.1432 6.95117 12.8733C7.05974 12.5819 6.92024 12.3444 6.79102 12.1252C6.70504 11.9795 6.62315 11.8418 6.62305 11.7014C6.62305 11.5095 6.71762 11.3452 6.82324 11.1604C6.95951 10.9218 7 10.6484 7 10.2356C7 9.5028 5.96761 8.00024 4 8.00024ZM4 12.8733C4.11024 12.8733 4.14046 13.0132 4.20117 13.2922C4.22845 13.4176 4.262 13.5715 4.31152 13.7532C4.43094 14.1915 4.28677 14.1381 4.13965 14.0833C4.09016 14.0648 4.04019 14.0461 4 14.0461C3.95981 14.0462 3.90982 14.0648 3.86035 14.0833C3.71326 14.1381 3.5691 14.1914 3.68848 13.7532C3.73799 13.5715 3.77155 13.4176 3.79883 13.2922C3.85954 13.0132 3.88978 12.8733 4 12.8733ZM2.02051 12.0227C2.33903 11.8794 3.49998 12.2129 3.5 12.5002C3.49954 12.7878 2.6559 13.4602 2.33789 13.4602C2.01999 13.46 1.79456 13.1912 1.70215 12.885C1.59879 12.5426 1.70243 12.1664 2.02051 12.0227ZM4.5 12.5002C4.50002 12.2129 5.66097 11.8794 5.97949 12.0227C6.29757 12.1664 6.40121 12.5426 6.29785 12.885C6.20544 13.1912 5.98001 13.46 5.66211 13.4602C5.3441 13.4602 4.50046 12.7878 4.5 12.5002Z" fill="white"/>
<path d="M18 0C19.1026 0 19.9999 0.883194 20 2C20 2.327 19.9226 2.66181 19.7861 2.93555L18 7L16.2139 2.93652C16.0772 2.66259 16 2.32731 16 2C16.0001 0.88324 16.8973 0 18 0ZM18 1C17.4478 1 17.0002 1.44786 17 2C17 2.55228 17.4477 3 18 3C18.5523 2.99999 19 2.55228 19 2C18.9998 1.44787 18.5522 1.00001 18 1Z" fill="white"/>
<path d="M16 13C16 11 14 10 14 9C14 8 15.5 7.49992 17.5 6.99984L17.3333 6.6665C16 6.66642 12 6.66663 12 8.99987C12 10 12.3722 10.2402 12.5413 10.7644C12.6228 11.017 12.6934 11.2718 12.7366 11.5299C12.7553 11.6462 12.7667 11.7631 12.7792 11.8799L12.7787 11.8779C12.7792 11.8812 12.7905 12.2481 12.7692 12.407C12.7022 12.9045 12.6057 13.4071 12.3302 13.8635C12.074 14.2878 11.6875 14.6568 11.2094 14.9484C10.1164 15.6151 8.66818 15.8816 7.3017 15.9888C7.23664 15.994 7.06506 15.9957 7 16L5 20C6.20385 19.943 7.16183 19.7195 8.33332 19.5C9.71196 19.2416 10.9649 18.7828 12.1688 18.2043C13.3716 17.6265 14.3114 16.9518 15 16C15.7204 15.0044 16 14 16 13Z" fill="white"/>
</svg>
