<svg width="20" height="20" viewBox="0 0 20 20" fill="none" xmlns="http://www.w3.org/2000/svg">
<path d="M12.001 3.99995C16.5911 4.00029 19.0006 7.4343 19.001 9.10933C19.001 10.053 18.905 10.6783 18.587 11.2236C18.3405 11.646 18.1221 12.0213 18.1221 12.4599C18.1222 12.7811 18.312 13.0962 18.5127 13.4296C18.8143 13.9305 19.1403 14.4735 18.8868 15.1396C18.6519 15.7564 18.5892 15.842 18.2696 16.2773V16.2783C18.2257 16.338 18.1767 16.4043 18.1221 16.4794C17.8006 16.9219 17.772 17.2415 17.7491 17.496C17.7248 17.765 17.7061 17.9616 17.3565 18.1542C16.9327 18.3875 16.3948 18.1608 15.9336 17.9658C15.5583 17.807 15.2334 17.6696 15.0616 17.8193C14.9467 17.9199 14.9731 18.1753 15.0118 18.5488C15.0302 18.7266 15.0515 18.9316 15.0616 19.1591C15.0986 19.9977 15.0652 20.001 15.0616 19.999H8.94047C8.94047 19.999 8.90134 20.0452 8.94047 19.1591C8.95053 18.9315 8.97184 18.7266 8.99027 18.5488C9.02894 18.1757 9.05497 17.9201 8.94047 17.8193C8.7688 17.669 8.44297 17.8069 8.06742 17.9658C7.60629 18.1608 7.06839 18.3874 6.64457 18.1542C6.29483 17.9615 6.2772 17.765 6.25297 17.496C6.23005 17.2415 6.20126 16.9217 5.87992 16.4794C5.82507 16.404 5.77549 16.3372 5.73148 16.2773C5.41176 15.8419 5.34914 15.7565 5.1143 15.1396C4.86066 14.4733 5.18673 13.9306 5.48832 13.4296C5.68908 13.0962 5.87982 12.7811 5.87992 12.4599C5.87992 12.0213 5.6605 11.6459 5.4141 11.2236C5.09605 10.6783 5.00102 10.053 5.00102 9.10933C5.00113 8.64825 5.18366 8.05385 5.54398 7.43452C11.3178 12.8004 15.001 10.5 15.001 10.5C15.001 10.5 11.2473 6.72969 9.04789 4.53315C9.90156 4.203 10.8872 3.99995 12.001 3.99995ZM12.001 15.1396C11.7438 15.1396 11.673 15.4587 11.5313 16.0966C11.4677 16.3832 11.389 16.7341 11.2735 17.1494C10.9945 18.1521 11.3324 18.0296 11.6758 17.9042C11.791 17.8622 11.9074 17.8193 12.001 17.8193C12.0947 17.8195 12.211 17.8622 12.3262 17.9042C12.6695 18.0295 13.0064 18.1517 12.7276 17.1494C12.6121 16.7342 12.5344 16.3832 12.4707 16.0966C12.3292 15.4592 12.2577 15.1402 12.001 15.1396ZM11.0918 14.5087C11.0918 13.8519 8.1237 12.8673 7.3809 13.1953C6.63914 13.5239 6.39761 14.3835 6.63871 15.166C6.85442 15.8658 7.3812 16.4792 8.12309 16.4794C8.86574 16.4789 11.0919 15.1655 11.0918 14.5087ZM16.6202 13.1953C15.878 12.8668 12.9093 13.8518 12.9092 14.5087C12.9092 15.1656 15.1357 16.4794 15.878 16.4794C16.6198 16.4792 17.1466 15.8658 17.3623 15.166C17.6034 14.3835 17.3619 13.5238 16.6202 13.1953ZM1.32035 0.0341301C1.84731 -0.10744 2.11518 0.229401 2.25199 0.351513C5.05097 2.85771 4.80176 2.49719 5.54105 3.16401C5.83404 3.42443 12.9611 9.93701 13 9.97261C13 9.97261 10.6928 10.6082 5.22465 5.71186C5.89449 4.49232 4.5857 4.10302 4.36527 4.05073C4.16034 3.86692 2.80073 2.49985 2.09574 1.78901C1.83352 1.52483 1.32417 1.60181 1.10453 1.30073C1.09175 1.2832 1.0815 1.26279 1.07523 1.23921C1.0721 1.22737 0.796468 0.176223 1.32035 0.0341301Z" fill="white"/>
</svg>
