<svg width="20" height="20" viewBox="0 0 20 20" fill="none" xmlns="http://www.w3.org/2000/svg">
<path d="M10.5 1.01367C15.0652 1.26486 18.7342 4.93419 18.9854 9.5H20V10.5H18.9854C18.7341 15.0655 15.0652 18.7341 10.5 18.9854V20H9.5V18.9854C4.93471 18.734 1.2659 15.0654 1.01465 10.5H0V9.5H1.01465C1.26585 4.93427 4.93465 1.26498 9.5 1.01367V0H10.5V1.01367ZM10.5 3H9.5V2.0166C5.48629 2.26543 2.26632 5.48597 2.01758 9.5H3V10.5H2.01758C2.26637 14.5137 5.48635 17.7336 9.5 17.9824V17H10.5V17.9824C14.5136 17.7337 17.7336 14.5138 17.9824 10.5H17V9.5H17.9824C17.7337 5.4859 14.5136 2.26533 10.5 2.0166V3ZM13.2041 12.0107C14.2128 12.113 15 12.9643 15 14C15 15.0357 14.2128 15.887 13.2041 15.9893L13 16C11 16 10.5 15 10 14.5C10 14.5 9 16 7 16C5.89543 16 5 15.1046 5 14C5 12.8954 5.89543 12 7 12C9.00003 12 9.5 13 10 13.5C10 13.5 11 12 13 12L13.2041 12.0107ZM7 13C6.44772 13 6 13.4477 6 14C6 14.5177 6.39333 14.9438 6.89746 14.9951L7 15C8.5 15 9 14.5 9.5 14C9.5 14 8.5 13 7 13ZM13 13C11.5 13 11 13.5 10.5 14C10.5 14 11.5 15 13 15C13.5523 15 14 14.5523 14 14C14 13.4823 13.6067 13.0562 13.1025 13.0049L13 13ZM10 4C11.9673 4 12.9998 5.50248 13 6.23535C13 6.64807 12.9594 6.92164 12.8232 7.16016C12.7176 7.34498 12.623 7.50926 12.623 7.70117C12.6231 7.84179 12.7049 7.98 12.791 8.12598C12.9202 8.34508 13.0598 8.58263 12.9512 8.87402C12.8506 9.14359 12.8235 9.18068 12.6865 9.37109V9.37207C12.6678 9.39815 12.6464 9.42715 12.623 9.45996C12.4856 9.65321 12.4737 9.79302 12.4639 9.9043C12.4535 10.0219 12.4455 10.1081 12.2959 10.1924C12.1142 10.2945 11.8833 10.1957 11.6855 10.1104C11.5245 10.0408 11.3851 9.98011 11.3115 10.0459C11.2623 10.0899 11.2735 10.2019 11.29 10.3652C11.2979 10.4431 11.3072 10.5332 11.3115 10.6328C11.3283 11.02 11.3115 11 11.3115 11H8.68848C8.68743 11.0008 8.67231 11.0067 8.68848 10.6328C8.69279 10.5332 8.70206 10.4431 8.70996 10.3652C8.72655 10.2018 8.73771 10.0899 8.68848 10.0459C8.61486 9.98024 8.4754 10.0409 8.31445 10.1104C8.11686 10.1957 7.88669 10.2943 7.70508 10.1924C7.55511 10.1081 7.54749 10.022 7.53711 9.9043C7.52729 9.79299 7.51456 9.65331 7.37695 9.45996C7.35342 9.4269 7.33235 9.39733 7.31348 9.37109C7.17658 9.18077 7.14937 9.14361 7.04883 8.87402C6.94018 8.58268 7.07979 8.34505 7.20898 8.12598C7.29508 7.98 7.37695 7.84179 7.37695 7.70117C7.37695 7.50926 7.28335 7.34498 7.17773 7.16016C7.04142 6.92157 7 6.64824 7 6.23535C7.0002 5.50249 8.03276 4.00007 10 4ZM10 8.87402C9.88992 8.87416 9.85948 9.01318 9.79883 9.29199C9.77156 9.41737 9.73798 9.57125 9.68848 9.75293C9.56901 10.1914 9.71325 10.1378 9.86035 10.083C9.90977 10.0646 9.95984 10.0459 10 10.0459C10.0402 10.0459 10.0902 10.0646 10.1396 10.083C10.2869 10.1378 10.4311 10.1917 10.3115 9.75293C10.262 9.57124 10.2284 9.41737 10.2012 9.29199C10.1405 9.0131 10.1102 8.87402 10 8.87402ZM9.61035 8.59766C9.61033 8.31032 8.33895 7.87908 8.02051 8.02246C7.70254 8.16611 7.59895 8.54242 7.70215 8.88477C7.79459 9.19104 8.02078 9.45995 8.33887 9.45996C8.65735 9.45948 9.61032 8.88495 9.61035 8.59766ZM11.9795 8.02246C11.6607 7.87937 10.3897 8.31039 10.3896 8.59766C10.3897 8.88507 11.344 9.45997 11.6621 9.45996C11.98 9.45978 12.2054 9.19094 12.2979 8.88477C12.4011 8.5424 12.2975 8.16612 11.9795 8.02246Z" fill="white"/>
</svg>
