<svg width="20" height="20" viewBox="0 0 20 20" fill="none" xmlns="http://www.w3.org/2000/svg">
<path fill-rule="evenodd" clip-rule="evenodd" d="M10 20V20L9.99987 19.9998L7.33333 16L6.95355 17.8989C6.42007 17.6674 5.91246 17.3874 5.43625 17.0646C4.79261 16.3189 4.26033 15.5184 3.92189 14.6834C3.6714 14.0627 3.45713 13.2727 3.36747 12.6384C3.16353 11.1957 3.33785 9.80152 3.87865 8.54725C3.9791 8.31303 4.21205 7.87242 4.34557 7.66016C5.31481 6.12441 6.79156 5.18244 8.34395 5.11245C10.2184 5.02621 11.8225 6.06553 12.2552 7.88777C12.3902 8.4562 12.5384 9.26171 12.2938 9.38329C12.0708 8.70068 11.4567 7.54485 10.9595 7.14439C10.7167 6.94891 10.3428 6.75216 10.0356 6.65939C9.26492 6.42747 8.32379 6.51156 7.53952 6.88138C6.2722 7.47869 5.43477 8.90208 5.36115 10.5802C5.33762 11.116 5.38898 11.5687 5.53165 12.0963C5.84258 13.2471 6.40414 14.2214 7.19721 14.9865C7.89094 15.6565 8.7208 16.1191 9.65858 16.3609C11.2865 16.7805 13.132 16.4415 14.5689 15.4569C15.3231 14.9411 15.9722 14.2601 16.485 13.4476C16.6283 13.2187 16.9421 12.6205 17.0478 12.3723C17.6367 10.9833 17.849 9.43604 17.6542 7.93066C17.6 7.51095 17.5613 7.31822 17.4265 6.81507C17.2872 6.29493 17.2107 6.0675 17.0319 5.63217C16.9394 5.40757 16.8385 5.1878 16.7295 4.9731C17.9442 6.54873 18.6667 8.52333 18.6667 10.6667C18.6667 15.7117 15.003 19.8275 10 20.0001C15.5228 20.0001 20 15.5229 20 10C20 4.47715 15.5228 2.28981e-05 10 2.33809e-05L10 8.63234e-05L12.6667 4L13.0464 2.10115C13.5922 2.33805 14.1109 2.62559 14.5966 2.95783C15.1123 3.55115 15.5533 4.18045 15.8574 4.82629C16.1339 5.41335 16.2852 5.83784 16.452 6.49909C16.6658 7.34527 16.7385 8.01774 16.7063 8.84018C16.6645 9.94112 16.392 10.9736 15.8981 11.91C15.4132 12.8313 14.7775 13.5577 13.9838 14.0953C13.7854 14.2298 13.6121 14.3322 13.4094 14.4314C13.0848 14.5926 12.9833 14.6296 12.5579 14.7436C12.203 14.8401 12.1379 14.8533 11.9641 14.8719C10.928 14.9786 9.92024 14.7416 9.07366 14.1924C8.30657 13.6934 7.80902 13.2019 7.59786 12.2837C7.45106 11.6453 7.4708 10.7316 7.7142 10.6104C7.82093 10.9362 8.1912 11.832 8.34898 12.0824C8.84752 12.8747 9.6021 13.3561 10.5104 13.4587C10.9031 13.5033 11.3019 13.4735 11.7561 13.3658C12.3126 13.2335 12.7509 13.018 13.1732 12.6653C14.212 11.8001 14.7835 10.2154 14.6137 8.66831C14.5613 8.19212 14.4285 7.68702 14.2101 7.13764C13.9411 6.45755 13.521 5.78429 13.0404 5.26176C12.5835 4.76507 11.9941 4.3249 11.3998 4.0359C10.4558 3.57731 9.38043 3.3878 8.3319 3.49646C6.95188 3.63932 5.71035 4.1975 4.69806 5.13268C4.08435 5.69913 3.64143 6.28424 3.22702 7.06762C2.71633 8.03788 2.42192 9.03703 2.31165 10.1675C2.23628 10.9497 2.27005 11.7139 2.41765 12.5596C2.46367 12.8232 2.68055 13.6181 2.78612 13.9106C2.92583 14.2957 3.08386 14.6633 3.26082 15.0144C2.05196 13.4408 1.33333 11.471 1.33333 9.3334C1.33333 4.28839 4.99704 0.172607 10 0C4.47715 0 0 4.4772 0 10.0001C0 15.5229 4.47715 20.0001 10 20.0001L10 20Z" fill="#C0C0C0"/>
</svg>
