<svg width="20" height="20" viewBox="0 0 20 20" fill="none" xmlns="http://www.w3.org/2000/svg">
<path fill-rule="evenodd" clip-rule="evenodd" d="M0.0669014 3.71525C2.00673 2.29993 4.16303 1.41477 6.30918 1.14891C7.13957 1.04726 8.16275 1.04413 8.95763 1.14109C10.7655 1.3616 12.3925 2.02312 13.7319 3.08187C13.8951 3.21036 14.1461 3.43527 14.36 3.63996L15.4637 2.53623C14.5277 1.72636 13.496 1.12108 12.2826 0.665671C11.3625 0.321616 10.429 0.11518 9.36014 0.0197833C9.02697 -0.00993052 7.99702 -0.00523945 7.60973 0.0276022C5.20313 0.235599 3.13308 1.06133 1.27612 2.55484C1.00553 2.77222 0.466028 3.26641 0.222493 3.5182C-0.0345722 3.78406 -0.0430277 3.79501 0.0669014 3.71525ZM14.0194 11.1265C14.4912 10.3642 14.7037 9.35711 14.6079 8.39207L12.5 10.5L9.11218 7.14026C8.67084 7.19941 8.21348 7.27489 8.01731 7.33565C6.89942 7.68126 6.0741 8.43662 5.65637 9.50007C5.47541 9.95985 5.38239 10.4509 5.36548 11.0342C5.34519 11.7489 5.46357 12.3479 5.75277 12.9719C6.46139 14.5061 8.18981 15.7087 10.1127 16.0043C10.7047 16.095 11.3575 16.0981 12.0914 16.0121C12.9996 15.9073 13.9484 15.618 14.7348 15.2067C15.4823 14.8157 16.2045 14.2465 16.7457 13.6225C17.6048 12.631 18.1815 11.3939 18.3895 10.0928C18.6543 8.43817 18.409 6.81422 17.669 5.33096L16.2895 6.71046C16.5844 7.66595 16.6406 8.64846 16.4345 9.58451C15.9322 11.8756 14.1583 13.4762 11.8182 13.4091C11.0882 13.3881 10.0677 13.3066 10 12.9719C10.8964 12.9234 12.4906 12.5559 13.1349 12.0852C13.4495 11.8553 13.808 11.4674 14.0194 11.1265ZM4.88349 5.00546C5.7963 4.45643 6.8153 4.115 7.91937 3.98696L6.95402 5.00001L8.35574 6.3901C8.24005 6.37657 8.12621 6.36754 8.01731 6.36364C6.84029 6.32152 6.08594 6.76326 5.23526 7.52801C4.29832 8.3725 3.6861 9.51258 3.47977 10.7981C3.44595 11.0139 3.44088 11.0968 3.44257 11.5566C3.44257 12.1071 3.4544 12.2416 3.54404 12.6857C3.59816 12.9625 3.66581 13.2049 3.7639 13.488C4.15626 14.6202 4.82767 15.6227 5.78321 16.5063C6.75397 17.4055 7.91245 18.0686 9.22822 18.4752C10.2108 18.7802 11.0463 18.91 12.1371 18.9256C12.9895 18.9381 13.551 18.8928 14.3492 18.7489C16.2586 18.4048 18.2475 17.5228 19.9387 16.2733L19.9388 16.2732C19.98 16.2429 19.9983 16.2294 19.9999 16.2311C20.0011 16.2325 19.9916 16.2437 19.9743 16.2638L19.9742 16.2639C19.7983 16.4766 19.0846 17.1443 18.721 17.4384C17.045 18.7942 15.0967 19.6341 12.9963 19.9062C12.4128 19.9812 12.1134 20 11.4403 20C10.7892 20 10.544 19.9844 10.0197 19.914C8.13908 19.6622 6.33962 18.9053 4.85304 17.7449C4.58752 17.5369 3.96684 16.9645 3.73684 16.7174C2.92167 15.8354 2.30945 14.8314 1.93062 13.7538C1.20678 11.7005 1.39451 9.36244 2.42784 7.53269C3.02315 6.47864 3.85015 5.62632 4.88349 5.00546ZM20 2.00004L12.5 9.50004L8.00001 5.00004L9.50001 3.50004L12.5 6.50004L18.5 0.500044L20 2.00004Z" fill="#C0C0C0"/>
</svg>
