<svg width="20" height="20" viewBox="0 0 20 20" fill="none" xmlns="http://www.w3.org/2000/svg">
<path fill-rule="evenodd" clip-rule="evenodd" d="M2.75754 6.22474C6.63989 12.1173 8.94751 12.1058 8.94751 12.1058C8.94751 12.1058 3.89333 4.26316 3.68427 3.94837C3.50301 3.67108 3.40157 3.53715 3.26411 3.35566C3.00425 3.01258 2.61566 2.49956 1.31581 0.526765C1.30522 0.510746 1.29381 0.491975 1.2812 0.471242C1.17814 0.301679 0.995306 0.00088145 0.526324 0.000366211C0 0.000944448 0 1.05359 0 1.05359C0 1.07699 0.00416116 1.09831 0.0117435 1.11773C0.0804241 1.29367 0.250482 1.39229 0.422048 1.49178C0.575472 1.58076 0.730101 1.67043 0.814513 1.81672C1.29538 2.65006 2.22322 4.25391 2.36846 4.4747C2.56067 4.57792 3.68427 5.26418 2.75754 6.22474ZM20.0001 5.26414C20.0001 7.29891 18.3506 8.94841 16.3159 8.94841C14.2811 8.94841 12.6316 7.29891 12.6316 5.26414C12.6316 3.22938 14.2811 1.57987 16.3159 1.57987C18.3506 1.57987 20.0001 3.22938 20.0001 5.26414ZM4.34104 9.95089C7.61397 13.6023 10.2633 12.8958 10.2633 12.8958C10.2633 12.8958 8.5348 9.85344 7.05765 7.26413C8.29565 6.41841 9.52163 6.06566 10.5264 6.31677C13.3921 7.03293 14.2107 12.6327 13.2492 19.2553L13.0701 19.9714H1.08574V20.0012C0.996189 18.8077 1.08574 17.5842 1.38425 16.3309C2.00724 13.8053 3.08619 11.6291 4.34104 9.95089Z" fill="#C0C0C0"/>
</svg>
