<svg width="20" height="20" viewBox="0 0 20 20" fill="none" xmlns="http://www.w3.org/2000/svg">
<path d="M10.5 1.01367C15.0652 1.26486 18.7342 4.93419 18.9854 9.5H20V10.5H18.9854C18.7341 15.0655 15.0652 18.7341 10.5 18.9854V20H9.5V18.9854C4.93471 18.734 1.2659 15.0654 1.01465 10.5H0V9.5H1.01465C1.26585 4.93427 4.93465 1.26498 9.5 1.01367V0H10.5V1.01367ZM10.5 3H9.5V2.0166C5.48629 2.26543 2.26632 5.48597 2.01758 9.5H3V10.5H2.01758C2.26637 14.5137 5.48635 17.7336 9.5 17.9824V17H10.5V17.9824C14.5136 17.7337 17.7336 14.5138 17.9824 10.5H17V9.5H17.9824C17.7337 5.4859 14.5136 2.26533 10.5 2.0166V3ZM6.10547 9.1123C6.22335 9.43197 6.33656 9.78091 6.5 10C6.68377 10.2489 6.70272 10.4486 6.71582 10.5918C6.72972 10.7431 6.80013 10.8916 7 11C7.10693 11.058 7.5 11 7.5 11C7.5 11 7.90187 10.9154 8 11C8.06565 11.0566 8 11 8 11.5V12H9.89746C9.87644 12.0556 9.85255 12.1088 9.82324 12.1602C9.71761 12.345 9.62402 12.5093 9.62402 12.7012C9.62403 12.8418 9.70491 12.98 9.79102 13.126C9.92027 13.3451 10.0609 13.5826 9.95215 13.874C9.85159 14.1436 9.82432 14.1809 9.6875 14.3711V14.3721C9.66869 14.3982 9.64747 14.427 9.62402 14.46C9.48632 14.6534 9.47369 14.793 9.46387 14.9043C9.45348 15.022 9.44574 15.1081 9.2959 15.1924C9.11418 15.2945 8.88327 15.1957 8.68555 15.1104C8.5246 15.0409 8.38509 14.9801 8.31152 15.0459C8.26245 15.09 8.27444 15.202 8.29102 15.3652C8.29892 15.4431 8.30721 15.5332 8.31152 15.6328C8.32826 16.02 8.31152 16 8.31152 16H5.68848C5.6879 16.0006 5.67204 16.013 5.68848 15.6328C5.69279 15.5332 5.70206 15.4431 5.70996 15.3652C5.72655 15.2018 5.73772 15.0899 5.68848 15.0459C5.61486 14.9802 5.47545 15.0409 5.31445 15.1104C5.11674 15.1957 4.88579 15.2945 4.7041 15.1924C4.55452 15.1081 4.54651 15.0219 4.53613 14.9043C4.52631 14.793 4.51447 14.6532 4.37695 14.46C4.35341 14.4269 4.33235 14.3973 4.31348 14.3711C4.17651 14.1807 4.14938 14.1436 4.04883 13.874C3.94015 13.5826 4.07976 13.3451 4.20898 13.126C4.29509 12.98 4.37695 12.8418 4.37695 12.7012C4.37695 12.5093 4.28239 12.345 4.17676 12.1602C4.04057 11.9216 4 11.6481 4 11.2354C4.00017 10.6231 4.72095 9.47399 6.10547 9.1123ZM13.8936 9.1123C15.279 9.4737 16 10.6239 16 11.2363C16 11.6488 15.9595 11.9227 15.8232 12.1611C15.7178 12.3456 15.6242 12.5096 15.624 12.7012C15.6242 12.8416 15.7051 12.9802 15.791 13.126C15.9202 13.345 16.0598 13.5827 15.9512 13.874C15.8507 14.1435 15.8244 14.1817 15.6875 14.3721H15.6865C15.6679 14.398 15.6472 14.4274 15.624 14.46C15.4864 14.6534 15.4737 14.794 15.4639 14.9053C15.4535 15.0226 15.4455 15.1092 15.2959 15.1934C15.1143 15.2953 14.8832 15.1957 14.6855 15.1104C14.5246 15.0409 14.3851 14.9811 14.3115 15.0469C14.2629 15.0912 14.2735 15.2034 14.29 15.3662C14.2979 15.4439 14.3072 15.5336 14.3115 15.6328C14.3273 15.9982 14.3132 16.0009 14.3115 16H11.6885C11.6866 16.0008 11.6728 15.9947 11.6885 15.6328C11.6928 15.5336 11.7021 15.4438 11.71 15.3662C11.7265 15.2033 11.7371 15.0912 11.6885 15.0469C11.6149 14.9811 11.4754 15.0409 11.3145 15.1104C11.1168 15.1957 10.8857 15.2953 10.7041 15.1934C10.5545 15.1092 10.5465 15.0226 10.5361 14.9053C10.5263 14.7939 10.5136 14.6534 10.376 14.46C10.3528 14.4274 10.3321 14.398 10.3135 14.3721C10.1765 14.1816 10.1494 14.1436 10.0488 13.874C9.94018 13.5827 10.0798 13.345 10.209 13.126C10.2949 12.9802 10.3758 12.8416 10.376 12.7012C10.3758 12.5096 10.2822 12.3456 10.1768 12.1611C10.1475 12.11 10.1235 12.0563 10.1025 12.001H12V11.501C12 11.0021 11.9351 11.057 12 11.001C12.0981 10.9164 12.5 11.001 12.5 11.001C12.5106 11.0025 12.8941 11.0578 13 11.001C13.1994 10.8928 13.2701 10.7437 13.2842 10.5928C13.2973 10.4497 13.3166 10.2496 13.5 10.001C13.6634 9.78195 13.7757 9.43189 13.8936 9.1123ZM7 13.874C6.88995 13.8742 6.85947 14.0132 6.79883 14.292C6.77155 14.4174 6.73799 14.5712 6.68848 14.7529C6.569 15.1913 6.71325 15.1378 6.86035 15.083C6.90975 15.0646 6.95984 15.046 7 15.0459C7.04018 15.0459 7.09018 15.0646 7.13965 15.083C7.28687 15.1378 7.43111 15.1917 7.31152 14.7529C7.26201 14.5712 7.22845 14.4174 7.20117 14.292C7.1405 14.0131 7.11021 13.874 7 13.874ZM13 13.874C12.8898 13.8741 12.8595 14.0139 12.7988 14.293C12.7716 14.4182 12.7379 14.5725 12.6885 14.7539C12.5695 15.1912 12.7134 15.1387 12.8604 15.084C12.9098 15.0656 12.9598 15.0469 13 15.0469C13.0402 15.0469 13.0902 15.0655 13.1396 15.084C13.2866 15.1387 13.4306 15.1914 13.3115 14.7539C13.2621 14.5725 13.2284 14.4182 13.2012 14.293C13.1404 14.0138 13.1103 13.874 13 13.874ZM6.61035 13.5977C6.61033 13.3104 5.3392 12.8793 5.02051 13.0225C4.70249 13.1661 4.59892 13.5424 4.70215 13.8848C4.79455 14.1909 5.02001 14.4597 5.33789 14.46C5.656 14.46 6.61033 13.8851 6.61035 13.5977ZM8.98047 13.0225C8.66237 12.8788 7.38967 13.3103 7.38965 13.5977C7.38966 13.8851 8.344 14.46 8.66211 14.46C8.98018 14.4599 9.20541 14.191 9.29785 13.8848C9.40112 13.5424 9.2984 13.1662 8.98047 13.0225ZM12.6104 13.5977C12.6089 13.3103 11.339 12.8803 11.0205 13.0234C10.7026 13.1672 10.5988 13.5434 10.7021 13.8857C10.7947 14.1916 11.0202 14.4598 11.3379 14.46C11.6558 14.46 12.6093 13.8852 12.6104 13.5977ZM14.9795 13.0234C14.661 12.8803 13.3911 13.3104 13.3896 13.5977C13.3907 13.8852 14.3441 14.4599 14.6621 14.46C14.9798 14.4598 15.2053 14.1916 15.2979 13.8857C15.4012 13.5434 15.2975 13.1672 14.9795 13.0234ZM10 4C11.9675 4 12.9998 5.50248 13 6.23535C13 6.64815 12.9595 6.92161 12.8232 7.16016C12.7176 7.34498 12.624 7.50926 12.624 7.70117C12.624 7.84179 12.7049 7.97999 12.791 8.12598C12.9203 8.34512 13.0609 8.58256 12.9521 8.87402C12.8516 9.14363 12.8243 9.1809 12.6875 9.37109V9.37207C12.6687 9.39823 12.6475 9.42703 12.624 9.45996C12.4863 9.65337 12.4737 9.79296 12.4639 9.9043C12.4535 10.022 12.4457 10.1081 12.2959 10.1924C12.1142 10.2945 11.8833 10.1957 11.6855 10.1104C11.5246 10.0409 11.3851 9.98013 11.3115 10.0459C11.2625 10.09 11.2744 10.202 11.291 10.3652C11.2989 10.4431 11.3072 10.5332 11.3115 10.6328C11.3283 11.02 11.3115 11 11.3115 11H8.68848C8.6879 11.0006 8.67204 11.013 8.68848 10.6328C8.69279 10.5332 8.70206 10.4431 8.70996 10.3652C8.72655 10.2018 8.73772 10.0899 8.68848 10.0459C8.61486 9.98017 8.47545 10.0409 8.31445 10.1104C8.11674 10.1957 7.88579 10.2945 7.7041 10.1924C7.55452 10.1081 7.54651 10.0219 7.53613 9.9043C7.52631 9.79302 7.51447 9.65322 7.37695 9.45996C7.35341 9.4269 7.33235 9.39733 7.31348 9.37109C7.17651 9.1807 7.14938 9.14359 7.04883 8.87402C6.94015 8.58263 7.07976 8.34508 7.20898 8.12598C7.29509 7.97999 7.37695 7.84179 7.37695 7.70117C7.37695 7.50926 7.28239 7.34498 7.17676 7.16016C7.04057 6.92164 7 6.64806 7 6.23535C7.00021 5.5025 8.03258 4.00009 10 4ZM10 8.87402C9.88995 8.8742 9.85947 9.01323 9.79883 9.29199C9.77155 9.41737 9.73799 9.57125 9.68848 9.75293C9.569 10.1913 9.71325 10.1378 9.86035 10.083C9.90975 10.0646 9.95984 10.046 10 10.0459C10.0402 10.0459 10.0902 10.0646 10.1396 10.083C10.2869 10.1378 10.4311 10.1917 10.3115 9.75293C10.262 9.57125 10.2284 9.41736 10.2012 9.29199C10.1405 9.01311 10.1102 8.87402 10 8.87402ZM9.61035 8.59766C9.61033 8.31036 8.3392 7.87926 8.02051 8.02246C7.70249 8.16611 7.59892 8.5424 7.70215 8.88477C7.79455 9.1909 8.02001 9.4597 8.33789 9.45996C8.656 9.45997 9.61033 8.88507 9.61035 8.59766ZM11.9805 8.02246C11.6624 7.87877 10.3897 8.31025 10.3896 8.59766C10.3897 8.88507 11.344 9.45997 11.6621 9.45996C11.9802 9.45991 12.2054 9.19102 12.2979 8.88477C12.4011 8.54243 12.2984 8.16618 11.9805 8.02246Z" fill="white"/>
</svg>
