<svg width="20" height="20" viewBox="0 0 20 20" fill="none" xmlns="http://www.w3.org/2000/svg">
<path d="M10.5 1.01367C15.0652 1.26486 18.7342 4.93419 18.9854 9.5H20V10.5H18.9854C18.7341 15.0655 15.0652 18.7341 10.5 18.9854V20H9.5V18.9854C4.93471 18.734 1.2659 15.0654 1.01465 10.5H0V9.5H1.01465C1.26585 4.93427 4.93465 1.26498 9.5 1.01367V0H10.5V1.01367ZM10.5 3H9.5V2.0166C5.48629 2.26543 2.26632 5.48597 2.01758 9.5H3V10.5H2.01758C2.26637 14.5137 5.48635 17.7336 9.5 17.9824V17H10.5V17.9824C14.5136 17.7337 17.7336 14.5138 17.9824 10.5H17V9.5H17.9824C17.7337 5.4859 14.5136 2.26533 10.5 2.0166V3ZM10 4C13.279 4 14.9997 6.57568 15 7.83203C15 8.53988 14.9323 9.00895 14.7051 9.41797C14.5291 9.73478 14.3721 10.0158 14.3721 10.3447C14.3721 10.5857 14.508 10.8221 14.6514 11.0723C14.8668 11.4479 15.1 11.8549 14.9189 12.3545C14.7512 12.8172 14.7068 12.8816 14.4785 13.208L14.4775 13.209C14.4462 13.2537 14.411 13.3031 14.3721 13.3594C14.1424 13.6912 14.1218 13.9311 14.1055 14.1221C14.0882 14.3238 14.0761 14.4717 13.8262 14.6162C13.5234 14.7913 13.139 14.6209 12.8096 14.4746C12.5415 14.3556 12.3093 14.2521 12.1865 14.3643C12.1045 14.4397 12.1227 14.6319 12.1504 14.9121C12.1636 15.0455 12.1793 15.1994 12.1865 15.3701C12.2127 15.9917 12.1896 16.0013 12.1865 16H7.81348C7.81045 16.0013 7.78735 15.9916 7.81348 15.3701C7.82065 15.1994 7.83644 15.0455 7.84961 14.9121C7.87727 14.6319 7.89555 14.4397 7.81348 14.3643C7.69071 14.2521 7.45852 14.3556 7.19043 14.4746C6.86096 14.6209 6.4766 14.7913 6.17383 14.6162C5.92395 14.4717 5.91184 14.3238 5.89453 14.1221C5.87815 13.9311 5.85762 13.6912 5.62793 13.3594C5.58871 13.3027 5.55293 13.253 5.52148 13.208C5.29319 12.8816 5.24881 12.8172 5.08105 12.3545C4.90002 11.8549 5.13324 11.4479 5.34863 11.0723C5.49205 10.8221 5.62793 10.5857 5.62793 10.3447C5.6279 10.0158 5.47094 9.73478 5.29492 9.41797C5.06769 9.00895 5 8.53988 5 7.83203C5.00033 6.57569 6.72096 4 10 4ZM10 12.3545C9.8163 12.3545 9.76524 12.5939 9.66406 13.0723C9.61861 13.2872 9.56299 13.5508 9.48047 13.8623C9.2813 14.6142 9.52226 14.5217 9.76758 14.4277C9.85 14.3962 9.93305 14.3643 10 14.3643C10.0669 14.3643 10.15 14.3962 10.2324 14.4277C10.4778 14.5217 10.7187 14.6142 10.5195 13.8623C10.437 13.5508 10.3814 13.2872 10.3359 13.0723C10.2348 12.5938 10.1837 12.3545 10 12.3545ZM9.35059 11.8818C9.35055 11.3891 7.23033 10.6502 6.7002 10.8965C6.17031 11.1428 5.99785 11.7872 6.16992 12.374C6.324 12.8991 6.70031 13.3594 7.23047 13.3594C7.7606 13.3593 9.35018 12.3746 9.35059 11.8818ZM13.2998 10.8965C12.7697 10.6502 10.6494 11.3891 10.6494 11.8818C10.6498 12.3746 12.2394 13.3593 12.7695 13.3594C13.2997 13.3594 13.676 12.8991 13.8301 12.374C14.0021 11.7872 13.8297 11.1428 13.2998 10.8965ZM12 6C10.5 6 10 7 10 7C10 7 9.5 6 8 6C6.89543 6 6 6.89543 6 8C6 9.10457 6.89543 10 8 10C9.5 10 10 9 10 9C10 9 10.5 10 12 10L12.2041 9.98926C13.2128 9.887 14 9.03565 14 8C14 6.96435 13.2128 6.113 12.2041 6.01074L12 6ZM8 7C9 7 9.5 8 9.5 8C9.5 8 9 9 8 9L7.89746 8.99512C7.39333 8.94379 7 8.51768 7 8C7 7.44772 7.44772 7 8 7ZM12.1025 7.00488C12.6067 7.05621 13 7.48232 13 8C13 8.55228 12.5523 9 12 9C11 9 10.5 8 10.5 8C10.5 8 11 7 12 7L12.1025 7.00488Z" fill="white"/>
</svg>
