<svg width="30" height="30" viewBox="0 0 30 30" fill="none" xmlns="http://www.w3.org/2000/svg">
<path d="M1 27V29H3L4 30H0V26L1 27ZM26 5L20.5 4L17.4746 9.18457L20.5996 8.40039L19.8877 11.2461L26 9.5L30 17L25.5 11L20.4482 12.8359L22 14L20.4814 15.1377L27 17L28 26L26 18L19.7529 16.2148L20.5996 19.5996L17.9326 18.9326L22 23L23 30L21 24L16.2852 19.2852L15 21L13.7139 19.2852L9 24L7 30L8 23L12.0664 18.9326L9.40039 19.5996L10.2451 16.2148L4 18L2 26L3 17L9.5166 15.1377L8 14L9.55078 12.8359L4.5 11L0 17L4 9.5L10.1807 11.2656L9.40039 8.40039L12.5244 9.18555L9.5 4L4 5L10 3L13.7637 8.64648L15 7L16.2344 8.64648L20 3L26 5ZM29.999 30H25.999L26.999 29H28.999V27L29.999 26V30ZM13.4619 10.2881L10.5449 9.58789L11.2881 12.4619L9.0498 14L11.2881 15.5381L10.5449 18.4551L13.4619 17.7119L15 19.9502L16.5381 17.7119L19.4551 18.4551L18.7119 15.5381L20.9502 14L18.7119 12.4619L19.4121 9.58789L16.5381 10.2881L15 8.40039L13.4619 10.2881ZM13 14.5V16L11 14L13 14.5ZM17 16V14.5L19 14L17 16ZM14 12V14L12 11L14 12ZM16 14V12L18 11L16 14ZM3 1H1V3L0 4V0H4L3 1ZM29.999 4L28.999 3V1H26.999L25.999 0H29.999V4Z" fill="white"/>
</svg>
