<svg width="30" height="30" viewBox="0 0 30 30" fill="none" xmlns="http://www.w3.org/2000/svg">
<path fill-rule="evenodd" clip-rule="evenodd" d="M28.9994 2.99994L29.9994 3.99993L29.9994 0H25.9995L26.9995 0.99999H28.9994V2.99994ZM3 1.00008L3.99999 9.35243e-05L5.89986e-05 9.34607e-05V4.00002L1.00005 3.00003V1.00008L3 1.00008ZM0 25.9997L0.99999 26.9997L0.999991 28.9997H2.99994L3.99993 29.9996H0V25.9997ZM26.9995 28.9996L25.9995 29.9996H29.9994V25.9997L28.9994 26.9997V28.9996H26.9995ZM11 1L9 5H5L4.5 9L1 11L3 15L1 19L5 22V25H8L11 29L15 27L19 29L22 25H25V22L29 19L27 15L29 11L26.5 9L26 5H22L20 1L15.5 3L11 1ZM11.5 2L9.5 6H6L5.5 10L2.5 11.5L4 15L2.5 18.5L6 21.5V24H8.5L11.5 27.5L15 26L18.5 27.5L21.5 24H24V21.5L27.5 18.5L26 15L27.5 11.5L25.5 10L25 6H21.5L19.5 2L15.5 4L11.5 2ZM17.4851 7.02939L21.3637 8.636L23.9998 15L21.3637 21.3639L14.9998 24L12.5857 23H12.4998L12.5145 22.9705L8.63582 21.3639L5.99978 15L8.63582 8.636L14.9998 5.99996L17.4141 7H17.4998L17.4851 7.02939ZM14.9999 7L14.9998 6.99996L9.49978 9.49996L6.99978 15L9.49978 20.5L12.9627 22.074L15.9998 16H9.99976L14.9998 7H14.9999ZM14.9998 23L20.4998 20.5L22.9998 15L20.4998 9.49996L17.0368 7.92588L13.9998 14H19.9998L14.9998 23Z" fill="white"/>
</svg>
