<svg width="30" height="30" viewBox="0 0 30 30" fill="none" xmlns="http://www.w3.org/2000/svg">
<path fill-rule="evenodd" clip-rule="evenodd" d="M9 3V9H3L5 7L0 5L5 0L7 5L9 3ZM21 3V9H27L25 7L30 5L25 0L23 5L21 3ZM24.8006 20C25.5674 18.4999 26 16.8004 26 15C26 13.1996 25.5674 11.5001 24.8006 10H20V5.19942C18.4999 4.43256 16.8004 4 15 4C13.1996 4 11.5001 4.43256 10 5.19942V10H5.19942C4.43256 11.5001 4 13.1996 4 15C4 16.8004 4.43256 18.4999 5.19942 20H8.05769L10.6667 19.6333L13.5 12.6154L11.2333 13.4L9.53333 16.9273C9.53333 16.9273 8.38631 16.1192 8.96667 14.5333C9.54703 12.9475 10.1 11.704 10.1 11.704L14.7046 10C14.7046 10 16.9317 10.247 17.618 11.704L15.9164 16.6257L18.4156 20.1661L19.2957 25.1296C19.5349 25.0281 19.7698 24.9183 20 24.8006V20H24.8006ZM10 24.8006V22.0588L11.8 21.9L13.8612 18.8959L16.295 21.2365L17.4178 25.7334C16.6398 25.9079 15.8306 26 15 26C13.1996 26 11.5001 25.5674 10 24.8006ZM21.9203 15.3244L22 15.0619L19.3244 14.8143L18.3043 12.8234L17.3553 15.0613L18.3043 16.5542L19.7698 16.729C20.7323 16.8437 21.6385 16.2518 21.9203 15.3244ZM18.5 8.5C18.5 9.32843 17.8284 10 17 10C16.1716 10 15.5 9.32843 15.5 8.5C15.5 7.67157 16.1716 7 17 7C17.8284 7 18.5 7.67157 18.5 8.5ZM9 21V27L7 25L5 30L0 25L5 23L3 21H9ZM21 21V27L23 25L25 30L30 25L25 23L27 21H21Z" fill="white"/>
</svg>
