<svg width="30" height="30" viewBox="0 0 30 30" fill="none" xmlns="http://www.w3.org/2000/svg">
<path fill-rule="evenodd" clip-rule="evenodd" d="M8 20H6V23L8 25V23H10V25H11V23H13V25H14V23H16V25H17V23H19V25H20V23H22V25L24 23V20H22V22H20V20H19V22H17V20H16V22H14V20H13V22H11V20H10V22H8V20ZM26 20V25L22 30H8L4 25V20L0 10L8 0H12V4.07742e-05L14.9999 4.86978L18 0.0147861V0H22L30 10L26 20ZM18.5857 1H21.5L28.5 10L25 19H21H9H5L1.5 10L8.5 1H11.4226L5 12.123H10.7082L7.81026 17H15.0094H22.2085L19.3106 12.123H25L18.5857 1ZM29.9996 3.99993L28.9997 2.99994V0.99999H26.9997L25.9997 0H29.9996L29.9996 3.99993ZM4.00023 9.35243e-05L3.00024 1.00008L1.00029 1.00008V3.00003L0.000303139 4.00002V9.34607e-05L4.00023 9.35243e-05ZM1.00023 26.9997L0.000244141 25.9997L0.000244252 29.9996H4.00017L3.00018 28.9997H1.00023L1.00023 26.9997ZM25.9997 29.9996L26.9997 28.9996H28.9997V26.9997L29.9997 25.9997V29.9996H25.9997ZM18 3.11253L22.2135 10.4974H18.3446L15.9205 6.41782L18 3.11253ZM15.0094 7.98182L16.5042 10.4974H13.5146L15.0094 7.98182ZM7.78645 10.4974L12.0091 3.11253L14.0889 6.43375L11.6742 10.4974H7.78645ZM10.6166 15.3743L12.5486 12.123H17.4702L19.4022 15.3743H10.6166ZM8.5 29H21.5L25 24.5V23.5L22.5 26H7.5L5 23.5V24.5L8.5 29Z" fill="white"/>
</svg>
