<svg width="30" height="30" viewBox="0 0 30 30" fill="none" xmlns="http://www.w3.org/2000/svg">
<path fill-rule="evenodd" clip-rule="evenodd" d="M26 4.53267C22.3775 4.37989 18.5483 3.93869 15 3.2135C11.2467 4.05439 6.81415 4.39825 4 4.53267V18.0025C4 21.5942 10.9894 25.512 15 27C19.0395 25.4839 26 21.613 26 17.9931V4.53267ZM1 1.50047C1 1.50047 8.94073 1.50047 15 0H15.0032C21.1911 1.50047 29 1.50047 29 1.50047V18.0025C29 25.5017 15 30 15 30C15 30 0.99357 25.4923 1 17.9931V1.50047ZM6 6.5C6 6.5 11.1048 6.50031 15 5.5C18.9779 6.50031 24 6.5 24 6.5V17.0017C24 21.5 15 24.5 15 24.5C15 24.5 6 21.5 6 16.9954V6.5Z" fill="white"/>
</svg>
