<svg width="30" height="30" viewBox="0 0 30 30" fill="none" xmlns="http://www.w3.org/2000/svg">
<path d="M1 27V29H3L4 30H0V26L1 27ZM11 4.5L12 3.5V1L13 2V4L11 6V7L12 8L13.5 5L14 7L13 9L14 10V13L15 14L16 13V10L17 9L16 7L16.5 5L18 8L19 7V6L17 4V2L18 1V3.5L19 4.5V0H20V3L22 1.5V0L23 1V2L20 4V8L21.5 9.5L24 7V6L23 5V3.5L24 4.5V0L25 1V3.5L26.5 2H28L25 5V8L22 11V13H23L25 14L26 13L24 11V10L25 9V10.5L26 11.5V7L27 6V9.5L28 8.5V5L29 6V9L27 11V13.5L25 15.5V20.7393L27 22.8262V24.9561L26 26V23.3477L25 22.3047V26.9561L24 28V20L22 22V25L19 28V30H18V27L21 24V21.3994L20 20.7998V24L19 25L16 23H14L11 25L10 24V20.7998L9 21.3994V24L12 27V30H11V28L8 25V22L6 20V28L5 26.9561V22.3047L4 23.3477V26L3 24.9561V22.8262L5 20.7393V15.5L3 13.5V11L1 9V6L2 5V8.5L3 9.5V6L4 7V11.5L5 10.5V9L6 10V11L4 13L5 14L7 13H8V11L5 8V5L2 2H3.5L5 3.5V1L6 0V4.5L7 3.5V5L6 6V7L8.5 9.5L10 8V4L7 2V1L8 0V1.5L10 3V0H11V4.5ZM17.5 26L17.0996 27V30H16V26.5L15 26L14 26.5V30H13V27L12.5 26L14 25H16L17.5 26ZM29.999 30H25.999L26.999 29H28.999V27L29.999 26V30ZM18 21.5L15 20L12 21.5V19.5996L11 20.1992V23.5L13.5 22H16.5L19 23.5V20.1992L18 19.5996V21.5ZM6 14.5V18.5L8 20.5L15 17L22 20.5L24 18.5V14.5L23 14H16.5L15 15.5L13.5 14H7L6 14.5ZM13 19V20L15 19L17 20V19L15 18L13 19ZM9 15C9.99987 15 12.9992 15.6665 13 16.5996C13 17.6663 10 19 8.5 19C7.5 19 7 17.6663 7 16.5996C7.00011 15.5332 7.50011 15 8.5 15H9ZM21.5 15C22.4999 15 22.9999 15.5332 23 16.5996C23 17.6663 22.5 19 21.5 19C20 19 17 17.6663 17 16.5996C17.0008 15.6665 20.0001 15 21 15H21.5ZM9 16C8.33341 16 8.00008 16.2666 8 16.7998C8 17.3331 8.33333 18 9 18C10 18 11.75 17.3331 11.75 16.7998C11.7495 16.3332 9.99959 16 9.33301 16H9ZM20.667 16C20.0004 16 18.2505 16.3332 18.25 16.7998C18.25 17.3331 20 18 21 18C21.6667 18 22 17.3331 22 16.7998C21.9999 16.2666 21.6666 16 21 16H20.667ZM9 11V13H13V11L11 9L9 11ZM17 11V13H21V11L19 9L17 11ZM3 1H1V3L0 4V0H4L3 1ZM29.999 4L28.999 3V1H26.999L25.999 0H29.999V4Z" fill="white"/>
</svg>
