<svg width="30" height="30" viewBox="0 0 30 30" fill="none" xmlns="http://www.w3.org/2000/svg">
<path fill-rule="evenodd" clip-rule="evenodd" d="M16.5807 11.7896C16.0771 11.9268 15.5471 12 15 12C14.4529 12 13.9229 11.9268 13.4193 11.7896L9.84756 18.0926C11.2689 19.0258 12 20.3419 12 21.1518C12 21.9186 11.9184 22.4262 11.6457 22.8693C11.4344 23.2126 11.247 23.5171 11.247 23.8736C11.247 23.9158 11.2512 23.958 11.2591 24.0001L18 24.0001V24C18 21.9179 19.0605 20.0835 20.6709 19.0075L16.5807 11.7896ZM11.9219 26.0001H18.3414C19.1651 28.3304 21.3876 30 24 30C27.3137 30 30 27.3137 30 24C30 20.6863 27.3137 18 24 18C23.4935 18 23.0017 18.0628 22.5319 18.1809L18.3977 10.946C19.9695 9.86412 21 8.0524 21 6C21 2.68629 18.3137 0 15 0C11.6863 0 9 2.68629 9 6C9 8.05241 10.0305 9.86414 11.6024 10.946L7.99394 17.2607C7.39436 17.0959 6.7293 17 6 17C2.06478 17 0 19.7909 0 21.1518C0 21.9186 0.0816302 22.4262 0.35435 22.8693C0.565597 23.2126 0.753037 23.5171 0.753037 23.8736C0.753037 24.1347 0.590305 24.3909 0.418109 24.662C0.159598 25.0691 -0.120243 25.5097 0.0971661 26.051C0.29853 26.5524 0.352134 26.6216 0.626276 26.9755C0.664027 27.0242 0.70596 27.0783 0.753037 27.1397C1.02869 27.4992 1.05335 27.7588 1.07301 27.9657C1.09378 28.1843 1.10895 28.344 1.40891 28.5006C1.77232 28.6903 2.23321 28.5056 2.62864 28.3471C2.95069 28.218 3.22932 28.1063 3.37652 28.2285C3.475 28.3102 3.45233 28.5176 3.41914 28.8211C3.40333 28.9657 3.38514 29.1321 3.37652 29.3172C3.34298 30.0371 3.37652 29.9997 3.37652 29.9997H8.62348C8.62348 29.9997 8.65702 30.0371 8.62348 29.3172C8.61486 29.1321 8.59667 28.9657 8.58086 28.8212C8.54768 28.5176 8.525 28.3102 8.62348 28.2285C8.77068 28.1063 9.04931 28.218 9.37136 28.3471C9.76679 28.5056 10.2277 28.6903 10.5911 28.5006C10.891 28.344 10.9062 28.1843 10.927 27.9657C10.9466 27.7588 10.9713 27.4992 11.247 27.1397C11.2939 27.0785 11.3357 27.0245 11.3733 26.9759L11.3737 26.9755C11.6479 26.6216 11.7015 26.5524 11.9028 26.051C11.9097 26.0339 11.9161 26.0169 11.9219 26.0001ZM10.654 25.8314C10.6316 25.8882 10.6083 25.9444 10.5839 26.0001H10.6174C10.6108 26.0242 10.6036 26.0482 10.5958 26.0722C10.4109 26.641 9.95968 27.1397 9.32349 27.1397C8.68729 27.1397 6.77881 26.0722 6.77884 25.5384C6.77888 25.0047 9.32349 24.2041 9.95965 24.4709C10.5162 24.7044 10.744 25.2682 10.654 25.8314ZM21.1656 19.8805L21.1656 19.8805C19.8574 20.7822 19 22.291 19 24C19 26.7614 21.2386 29 24 29C26.7614 29 29 26.7614 29 24C29 21.2386 26.7614 19 24 19C23.6756 19 23.3585 19.0309 23.0513 19.0899L23.0514 19.0899C22.3619 19.2223 21.7229 19.4963 21.1656 19.8805ZM20 6C20 8.76142 17.7614 11 15 11C12.2386 11 10 8.76142 10 6C10 3.23858 12.2386 1 15 1C17.7614 1 20 3.23858 20 6ZM5.59735 26.8286C5.7188 26.3102 5.77953 26.051 6 26.0509C6.2205 26.0509 6.28127 26.3101 6.40272 26.8285L6.40273 26.8285C6.45728 27.0614 6.52409 27.3466 6.62313 27.684C6.86229 28.4988 6.57344 28.3989 6.27901 28.2971C6.18004 28.2628 6.08039 28.2284 6 28.2284C5.91963 28.2284 5.82005 28.2628 5.7211 28.2971C5.42669 28.3989 5.13786 28.4988 5.37698 27.684C5.476 27.3466 5.5428 27.0615 5.59735 26.8286ZM1.40419 26.0722C1.19748 25.4363 1.40419 24.7378 2.04035 24.4709C2.67651 24.2041 5.22112 25.0047 5.22116 25.5384C5.22119 26.0722 3.31271 27.1397 2.67651 27.1397C2.04032 27.1397 1.58908 26.641 1.40419 26.0722Z" fill="white"/>
</svg>
