<svg width="30" height="30" viewBox="0 0 30 30" fill="none" xmlns="http://www.w3.org/2000/svg">
<path fill-rule="evenodd" clip-rule="evenodd" d="M28.9994 2.99994L29.9994 3.99993L29.9994 0H25.9995L26.9995 0.99999H28.9994V2.99994ZM3 1.00008L3.99999 9.35243e-05L5.89986e-05 9.34607e-05V4.00002L1.00005 3.00003V1.00008L3 1.00008ZM0 25.9997L0.99999 26.9997L0.999991 28.9997H2.99994L3.99993 29.9996H0V25.9997ZM26.9995 28.9996L25.9995 29.9996H29.9994V25.9997L28.9994 26.9997V28.9996H26.9995ZM11 7.00003L7.24243 6.06065L4.11114 1.58738L6.77942 3.68388L10 1.00003H15H20L22.8302 3.35851L25.9998 2.00011L21.9285 5.00003H19L21.707 3.83991L19.5454 2.00003H15H10.4545L7.6618 4.37718L11 7.00003ZM4.00004 7.40007V7.40004L4.99998 8V8.00003L9.99998 11L4.99998 10V16.8572L6.81816 19.6429L7.11277 21.7493L10.7307 20.2692L3.0001 27.9999L6.32789 22.295L6.00004 20L4.00004 17V10H0.499977L3.99998 9.00003L3.99995 9.00001L3.99997 9L5.4121e-05 5.00008L4.00004 7.40007ZM9.00936 26.4703L10.6141 21.3825L7.86839 27.2171L15 29L23 27L23.7458 21.7797L25.5456 22.4546L23 21L28.9999 22L24.25 19.6251L24.25 19.625L21.0001 18L21 18L20 17.5L23 20.5L19 20L22.9259 21.4723L22.2727 26.1429L15 28L9.00936 26.4703ZM23.9765 18.4252L24.9566 18.5652L26 17V6.00003L25.7791 5.81595L27.5 3.00003L27.4971 3.00157L20.3076 6.92314L24 6.00003L22 12L25 7.09094V16.8572L23.9765 18.4252ZM23 13.3591C23 12.2807 17 13.8747 17 14.9373C17 16 18.2 16 19.4 16C21.8 16 23 14.4374 23 13.3591ZM7 13.5148C7 12.5 13 14 13 15C13 16 11.8 16.0001 10.6 16.0001C8.2 16.0001 7 14.5296 7 13.5148Z" fill="white"/>
</svg>
