<svg width="30" height="30" viewBox="0 0 30 30" fill="none" xmlns="http://www.w3.org/2000/svg">
<path d="M1 27V29H3L4 30H0V26L1 27ZM29.999 30H25.999L26.999 29H28.999V27L29.999 26V30ZM10 3L4.5 7.5V8L7 10.5L10 12H15.5L17 10V11.5L18 10.5L19 7V10L20 9L22 4V7.5L26 5L23 8H26L28 9.5L29 13V14.5L24 14L21 18L24 20H22L26 24L23 22.25L25.5 27L26.5 26L28 26.5V28L27 27L26 28H24.5L19.5 18L23.5 13L28 13.5V13L27 10L25 9H22L16.5 13H10L7 11.5L3.5 8V7.5L8.5 3.5L2 7.5V8L6 13L5.5 17L8.5 20V20.5L4.5 22.5L7.5 27L9 28H6.5L4 24L3.5 26L3 22L7 20L4.5 17L5 13L1 8V7L10 2H15L10 3ZM19 21H17.5L20.5 24L18 23L19.5 27L20.5 26L22 26.5V28L21 27L20 28H18.5L16 20.5L13 18.5L12 19L13.5 21L9.5 23.5L11.5 27L13 28H10.5L9 25L8.5 26L8 23L12 20.5L10.5 19L13 17.5L19 21ZM3 1H1V3L0 4V0H4L3 1ZM29.999 4L28.999 3V1H26.999L25.999 0H29.999V4Z" fill="white"/>
</svg>
