<svg width="30" height="30" viewBox="0 0 30 30" fill="none" xmlns="http://www.w3.org/2000/svg">
<path fill-rule="evenodd" clip-rule="evenodd" d="M4 0C3.44772 0 3 0.447716 3 1V22L9.85517 21.2888L14.0483 11.1371H11.5103L8.2 16.7647C8.2 16.7647 6.25096 16.2417 7.09655 14.1164C7.94214 11.9911 9.74483 8.04743 9.74483 8.04743L16.2552 7.7164C16.2552 7.7164 19.5 8.04743 20.5 10L18.0207 17.0957L21.6621 21.8405L23.235 30H26C26.5523 30 27 29.5523 27 29V1C27 0.447715 26.5523 0 26 0H4ZM20.3978 30L18.5724 23.275L15.0263 20.1383L12.0621 24.4888H3V29C3 29.5523 3.44772 30 4 30H20.3978ZM19.8071 7.15791C15.4026 7.15791 15.7278 1.20605 19.5376 1.20605C23.4218 1.20605 23.5193 7.15791 19.8071 7.15791ZM26 17.5V15L22.9862 14.6681L21.5 12L20.1172 14.9992L21.5 17L26 17.5Z" fill="white"/>
</svg>
