<svg width="30" height="30" viewBox="0 0 30 30" fill="none" xmlns="http://www.w3.org/2000/svg">
<path fill-rule="evenodd" clip-rule="evenodd" d="M29.9994 3.99993L28.9994 2.99994V0.99999H26.9994L25.9994 0H29.9994V3.99993ZM4 2.21741e-05L3.00001 1.00001L1.00006 1.00001V2.99996L6.94911e-05 3.99995V2.21105e-05L4 2.21741e-05ZM0.99999 26.9996L0 25.9996V29.9995H3.99993L2.99994 28.9995H0.999991L0.99999 26.9996ZM25.9995 29.9995L26.9995 28.9995H28.9994V26.9996L29.9994 25.9996V29.9995H25.9995ZM4 22L6 27L10 29L7 26.4999L5 22L6 19L4 14.9999L7 19L11 20.9999L8 12.9999L9 8L13 3.49988V6L16 13L21 15.9999V10.4999L22 15L25 19.9999L22 25.9999L19 28.9999L23 25.9999L26 19.9999L23 15L22 10.9999V6.99988L20 10.9999V13.9999L17 12L14 6V1L8 8L7 13L9 19L7 17.4999L5 15V10L3 15L5 18.9999L4 22ZM12 28L15 29L18 28L19 25L18 22L17 24L15 25L16 22V20L15 18L14.5 20L12 23L11 26L12 28ZM13 27.5L15 28L17 27L18 24.5L15.5 26H14L14.5 23L15 21L13 23.5L12 26L13 27.5Z" fill="white"/>
</svg>
