<svg width="30" height="30" viewBox="0 0 30 30" fill="none" xmlns="http://www.w3.org/2000/svg">
<path fill-rule="evenodd" clip-rule="evenodd" d="M14 30V25L8 27L0 23L6 20L0 15V9H6L9 11L8 6L15 0L22 6L21 11L24 9H30V15L24 20L30 23L22 27L16 25V30H14ZM15 23.5L8 26L2 23L7.5 20L1 14.5V10H6L10 12.5L9 6.5L15 1.5L21 6.5L20 12.5L24 10H29V14.5L22.5 20L28 23L22 26L15 23.5ZM19.9049 14.5316C19.6651 14.381 19.4122 14.2563 19.1497 14.1594C19.1891 13.9153 19.2093 13.6681 19.2101 13.4204C19.2093 12.3924 18.885 11.3953 18.2905 10.5922C17.696 9.78913 16.8664 9.22775 15.9376 9V9.56511C16.4835 9.77301 16.9563 10.1585 17.2908 10.6684C17.6253 11.1783 17.8051 11.7876 17.8055 12.4124C17.8065 12.9107 17.6914 13.4012 17.4707 13.8388C17.4633 13.8534 17.4569 13.8686 17.4504 13.8838L17.4504 13.8838L17.4504 13.8838L17.4504 13.8838L17.4504 13.8838L17.4504 13.8839C17.4413 13.9053 17.4321 13.9268 17.4203 13.9475C17.2826 14.1932 17.1131 14.4164 16.9169 14.6104C16.4802 15.0638 15.9178 15.4247 15.3158 15.5H15.2554V16.0329C15.3914 16.0687 15.516 16.1324 15.6228 16.2176C15.6527 16.227 15.6805 16.2469 15.706 16.2838C15.7118 16.2921 15.7175 16.3006 15.723 16.3091C15.8946 16.4887 16 16.732 16 17C16 17.0705 15.9927 17.1392 15.9789 17.2055L16.2422 17.3708L16.2674 17.3273C16.5118 16.9244 16.841 16.5895 17.2282 16.3501C17.6154 16.1107 18.0495 15.9736 18.4952 15.9498H18.6286C19.0389 15.9472 19.4446 16.0429 19.8164 16.2302C20.1882 16.4175 20.5168 16.6916 20.7784 17.0327C21.04 17.3738 21.2281 17.7734 21.3291 18.2026C21.4301 18.6318 21.4415 19.0799 21.3624 19.5144L21.8155 19.7861C22.0938 18.8061 22.0564 17.7533 21.7094 16.7991C21.3625 15.845 20.7264 15.0458 19.9049 14.5316ZM14.7494 15.5V16.0316C14.3184 16.1429 14 16.5342 14 17C14 17.0719 14.0076 17.1419 14.022 17.2095L13.7652 17.3706L13.7375 17.3271C13.4931 16.9242 13.1639 16.5894 12.7767 16.35C12.3895 16.1106 11.9553 15.9734 11.5097 15.9497H11.3788C10.9677 15.9484 10.5615 16.0454 10.1892 16.2338C9.81701 16.4221 9.48804 16.697 9.22596 17.0388C8.96388 17.3807 8.77518 17.7809 8.67343 18.2108C8.57167 18.6406 8.55938 19.0895 8.63744 19.5251L8.18684 19.7968C7.90602 18.8147 7.94264 17.7589 8.29069 16.8022C8.63875 15.8455 9.27759 15.0449 10.1025 14.5315C10.3421 14.3812 10.5951 14.2574 10.8577 14.162C10.8176 13.917 10.7965 13.6689 10.7948 13.4202C10.7957 12.3926 11.1201 11.3959 11.7146 10.5932C12.3092 9.79062 13.1387 9.22976 14.0673 9.00256V9.56496C13.6876 9.70984 13.3416 9.94189 13.0531 10.2451C12.7646 10.5483 12.5404 10.9154 12.3961 11.3212C12.2518 11.727 12.1908 12.1617 12.2172 12.5954C12.2437 13.029 12.357 13.4514 12.5493 13.8332C12.5569 13.8484 12.564 13.864 12.571 13.8795L12.571 13.8795L12.571 13.8796L12.571 13.8796C12.5804 13.9002 12.5896 13.9206 12.5997 13.9392C12.7374 14.1857 12.907 14.4098 13.1031 14.6048C13.5401 15.0562 14.101 15.4224 14.7016 15.5H14.7494ZM13.9892 17.8352L14.2606 17.6733C14.4435 17.874 14.7071 18 15 18C15.292 18 15.5547 17.8749 15.7375 17.6753L16.0207 17.8488C15.8 18.4432 15.762 19.0985 15.9124 19.718C15.9525 19.8903 16.0064 20.0584 16.0735 20.2206C16.1304 20.3555 16.1969 20.4854 16.2724 20.6091C16.5115 21.0102 16.836 21.3437 17.2189 21.5818C17.7179 21.8941 18.2942 22.0322 18.8688 21.9773C19.4434 21.9223 19.9881 21.6769 20.4285 21.2748L20.8791 21.5464C20.1318 22.4192 19.0963 22.9395 17.9964 22.995C16.8965 23.0504 15.8206 22.6364 15.0012 21.8426C14.7854 22.0499 14.55 22.232 14.2988 22.386C13.4747 22.8951 12.515 23.0876 11.5764 22.9322C10.6377 22.7767 9.77566 22.2825 9.13083 21.5301L9.58143 21.2585C9.88376 21.5392 10.2383 21.7469 10.6213 21.8673C11.0042 21.9878 11.4066 22.0182 11.8014 21.9567C12.1961 21.8952 12.5741 21.7431 12.9098 21.5106C13.2455 21.2782 13.5312 20.9708 13.7476 20.6091C13.8221 20.4847 13.8886 20.3549 13.9464 20.2206C14.0108 20.0537 14.0614 19.8809 14.0975 19.7044C14.2466 19.0848 14.2087 18.4299 13.9892 17.8352ZM16.9593 13.5119C16.3802 13.1859 15.7118 13 15 13C14.2948 13 13.6321 13.1825 13.0568 13.5029L13.0635 13.5182L13.0635 13.5182L13.0635 13.5182C13.0718 13.5373 13.08 13.5562 13.0889 13.5734C13.2114 13.8017 13.3621 14.0093 13.5365 14.19C13.5762 14.2328 13.6171 14.2747 13.659 14.3156C14.0626 14.1137 14.518 14 15 14C15.489 14 15.9507 14.117 16.3585 14.3245C16.3994 14.2845 16.4393 14.2434 16.478 14.2015C16.6526 14.0217 16.8034 13.8147 16.9259 13.5869C16.9363 13.5678 16.9445 13.5478 16.9526 13.5279L16.9593 13.5119ZM17.9836 16.6841C17.9944 16.7879 18 16.8933 18 17C18 18.087 17.4219 19.039 16.5563 19.5653C16.5959 19.6462 16.6394 19.725 16.6867 19.8012C16.8161 20.0144 16.9722 20.2068 17.1502 20.3735C18.2625 19.6631 19 18.4177 19 17C19 16.8111 18.9869 16.6253 18.9616 16.4433H18.8821C18.5712 16.4606 18.2666 16.5425 17.9836 16.6841ZM11.12 16.4359C11.4304 16.4532 11.7346 16.5349 12.0173 16.6762C12.0059 16.7826 12 16.8906 12 17C12 18.0898 12.5811 19.0439 13.4504 19.5693C13.4112 19.6486 13.3686 19.726 13.3227 19.8012C13.1922 20.0155 13.0347 20.2091 12.8551 20.3769C11.7398 19.667 11 18.4199 11 17C11 16.8085 11.0135 16.6202 11.0395 16.4359H11.12ZM28.9994 2.99994L29.9994 3.99993L29.9994 0H25.9995L26.9995 0.99999H28.9994V2.99994ZM3 1.00008L3.99999 9.35243e-05L5.89986e-05 9.34607e-05V4.00002L1.00005 3.00003V1.00008L3 1.00008ZM0 25.9997L0.99999 26.9997L0.999991 28.9997H2.99994L3.99993 29.9996H0V25.9997ZM26.9995 28.9996L25.9995 29.9996H29.9994V25.9997L28.9994 26.9997V28.9996H26.9995Z" fill="white"/>
</svg>
