<svg width="30" height="30" viewBox="0 0 30 30" fill="none" xmlns="http://www.w3.org/2000/svg">
<path fill-rule="evenodd" clip-rule="evenodd" d="M12 3.5L15 0L18 3.5L16 3V5L15.5 7L16 9L14 10L13.5 7L14 5V3L12 3.5ZM18 26.5L15 30L12 26.5L14 27V25L14.5 23L14 21L16 20.5L16.5 23L16 25.5V27L18 26.5ZM30 15L26.5 12L27 14H24.5L23 13.5L21 14L20.5 16L23 15.5L24 16H27L26.5 18L30 15ZM3.5 18L0 15L3.5 12L3 14L6 14.5L8.5 14V15L9 16L6 16.5L3 16L3.5 18ZM29.9996 3.99993L28.9997 2.99994V0.99999H26.9997L25.9997 0H29.9996L29.9996 3.99993ZM4.00023 9.35243e-05L3.00024 1.00008L1.00029 1.00008V3.00003L0.000303139 4.00002V9.34607e-05L4.00023 9.35243e-05ZM1.00023 26.9997L0.000244141 25.9997L0.000244252 29.9996H4.00017L3.00018 28.9997H1.00023L1.00023 26.9997ZM25.9997 29.9996L26.9997 28.9996H28.9997V26.9997L29.9997 25.9997V29.9996H25.9997ZM12.7224 4.94342L7.22183 7.22182L4.71036 13.285L5.70426 13.4507L8.12505 8.12495L12.5556 6.11107L12.7224 4.94342ZM6.12506 17.475L6 17.5L4.96401 17.3273L7.22183 22.7782L12.9611 25.1555L13.2041 24.1836L8.12505 21.8749L6.12506 17.475ZM8.73417 16.9531L9.68335 16.7633L9.80366 18.0002L12.7823 20.1292L13.1903 21.7613L13.1883 21.7615L8.93782 18.5L8.73417 16.9531ZM9.6875 13.039L8.24264 13.2197L8.23852 13.1883L11.5 8.93787L12.6315 8.7889L12.7879 9.72734L11.9998 9.804L9.6875 13.039ZM11 15L12.1716 17.8284L15 19H15L17.8284 17.8284L19 15L17.8284 12.1716L15 11L12.1716 12.1716L11 15ZM17.9998 20.1963L20.1288 17.2178L21.7612 16.8097L21.7615 16.8118L18.5 21.0622L17.2779 21.2231L17.1598 20.278L17.9998 20.1963ZM20.31 13.1725L21.2514 12.9371L21.0622 11.5L17.0905 8.45247L17.4004 10.002L20.196 12.0002L20.31 13.1725ZM21.8751 21.8749L24.0909 17H25.1716L22.7782 22.7782L17.241 25.0717L17.3855 23.9156L21.8751 21.8749ZM23.7756 12.3061L24.7801 12.0549L22.7782 7.22182L17.3432 4.97056L17.0264 5.921L21.8751 8.12495L23.7756 12.3061ZM14.9998 12L17.0623 12.9375L17.9998 15L17.0623 17.0625L14.9998 18L12.9373 17.0625L11.9998 15L12.9373 12.9375L14.9998 12ZM15.7071 14.2929L15 14L14.2929 14.2929L14 15L14.2929 15.7071L15 16L15.7071 15.7071L16 15L15.7071 14.2929Z" fill="white"/>
</svg>
