<svg width="30" height="30" viewBox="0 0 30 30" fill="none" xmlns="http://www.w3.org/2000/svg">
<path fill-rule="evenodd" clip-rule="evenodd" d="M16 0V2.66502C22.0276 3.1493 26.8503 7.97174 27.3341 14H30V16H27.334C26.8494 22.0272 22.027 26.8491 16 27.3333V30H14V27.3334C7.97257 26.8492 3.14976 22.0272 2.66508 16H0V14H2.66495C3.14885 7.97167 7.97201 3.14919 14 2.665V0H16ZM5.05121 16H6V14H5.05104C5.53028 9.32722 9.32691 5.53063 14 5.0511V6H16V5.05112C20.673 5.53071 24.4697 9.32727 24.949 14H24V16H24.9488C24.4688 20.6722 20.6725 24.4692 16 24.9489V24H14V24.9489C9.32751 24.4692 5.53116 20.6722 5.05121 16ZM15 8C10.9059 8 8 10.9059 8 15C8 19.0938 10.9058 22 15 22C19.0934 22 22 19.0938 22 15C22 10.9059 19.0934 8 15 8ZM15 20C12.2704 20 10 17.7296 10 15C10 12.2712 12.2704 10 15 10C17.7292 10 20 12.2712 20 15C20 17.7296 17.7292 20 15 20ZM13 15C13 13.8955 13.8955 13 15.0003 13C16.1048 13 17 13.8955 17 15C17 16.1045 16.1048 17 15.0003 17C13.8955 17 13 16.1046 13 15Z" fill="white"/>
</svg>
