<svg width="30" height="30" viewBox="0 0 30 30" fill="none" xmlns="http://www.w3.org/2000/svg">
<path fill-rule="evenodd" clip-rule="evenodd" d="M28.9997 2.99994L29.9996 3.99993L29.9996 0H25.9997L26.9997 0.99999H28.9997V2.99994ZM3.00024 1.00008L4.00023 9.35243e-05L0.000303139 9.34607e-05V4.00002L1.00029 3.00003V1.00008L3.00024 1.00008ZM0.000244141 25.9997L1.00023 26.9997L1.00023 28.9997H3.00018L4.00017 29.9996H0.000244252L0.000244141 25.9997ZM26.9997 28.9996L25.9997 29.9996H29.9997V25.9997L28.9997 26.9997V28.9996H26.9997ZM13.1333 1H10L9.42548 1.47877L10.0527 3H13.4L13.1333 1ZM19.9473 3H16.6L16.8667 1H20L20.5745 1.47876L19.9473 3ZM7.48311 5.23723L6.47949 3.93376L4 6V6.5305L5.5 7.68543V7L7.48311 5.23723ZM5.5 11.0833L4 10.4649V13.5333L5.5 13.7333V11.0833ZM5.80188 16.2264L4 16.4667V17L6.18112 18.6358L8.00943 17.8821L5.80188 16.2264ZM9.53021 19.2115L8.05015 20.3511L8.56461 23.9523L9.93511 22.0458L9.53021 19.2115ZM10.3884 25.2186L9.50802 27.1693L13.2128 28.4043L13.4043 26.9681L10.5 26L10.3884 25.2186ZM16.5958 26.9681L16.7872 28.4043L20.492 27.1693L19.6116 25.2186L19.5 26L16.5958 26.9681ZM20.0649 22.0457L21.4354 23.9522L21.9499 20.351L20.4698 19.2115L20.0649 22.0457ZM21.9906 17.8821L23.8189 18.6358L26 17V16.4667L24.1981 16.2264L21.9906 17.8821ZM24.5 13.7333L26 13.5333V10.4649L24.5 11.0833V13.7333ZM24.5 7.68543V7L22.5169 5.23723L23.5205 3.93375L26 6V6.5305L24.5 7.68543ZM6.99997 13.5147C6.99997 12.2721 13 13.5147 13 14.7574C13 16 11.8 16 10.6 16C8.19997 16 6.99997 14.7574 6.99997 13.5147ZM23 13.5147C23 12.2721 17 13.5147 17 14.7574C17 16 18.2 16 19.4 16C21.8 16 23 14.7574 23 13.5147Z" fill="white"/>
</svg>
