<svg width="30" height="30" viewBox="0 0 30 30" fill="none" xmlns="http://www.w3.org/2000/svg">
<path fill-rule="evenodd" clip-rule="evenodd" d="M28.9994 2.99994L29.9994 3.99993L29.9994 0H25.9995L26.9995 0.99999H28.9994V2.99994ZM3 1.00008L3.99999 9.35243e-05L5.89986e-05 9.34607e-05V4.00002L1.00005 3.00003V1.00008L3 1.00008ZM0 25.9997L0.99999 26.9997L0.999991 28.9997H2.99994L3.99993 29.9996H0V25.9997ZM26.9995 28.9996L25.9995 29.9996H29.9994V25.9997L28.9994 26.9997V28.9996H26.9995ZM22 0H23V8L19 9V10H30V15L26 17L18 13L17 13L17 16V17L18 17L21 19L18 25L22 30H21L17 25L19.5 19.5L18 18.5L17 22L15 24L13 22L12 18.5L10.5 19.5L13 25L9 30H8L12 25L9 19L12 17L13 17L13 16L10 16L2.49999 20L1.99999 19L9.5 15H13L13 13L12 13L4 17L0 15V10H11V9L7 8V0H8V7L12 8V10L12 11H11H1L1 14.5L4 16L12 12H14V16V17.5L13 18.5L14 21.5L15 22.5L16 21.5L17 18.5L16 17.5V16V12L18 12L26 16L29 14.5L29 11H19H18L18 10L18 8L22 7V0ZM27.5 20L28 19L20.5 15H17L17 16L20 16L27.5 20ZM15 0L13 7V11H14V7.5L15 4L16 7.5V11L17 11L17 7L15 0Z" fill="white"/>
</svg>
