<svg width="30" height="30" viewBox="0 0 30 30" fill="none" xmlns="http://www.w3.org/2000/svg">
<path fill-rule="evenodd" clip-rule="evenodd" d="M28.9994 2.99994L29.9994 3.99993V0H25.9994L26.9994 0.99999H28.9994V2.99994ZM3.00001 1.00001L4 2.21741e-05L7.02063e-05 2.21105e-05V3.99995L1.00006 2.99996V1.00001L3.00001 1.00001ZM0 25.9996L0.999991 26.9996L0.999991 28.9995H2.99994L3.99993 29.9995H0V25.9996ZM26.9995 28.9995L25.9995 29.9995H29.9994V25.9996L28.9994 26.9996V28.9995H26.9995ZM14 0H6.99999L0 7L2 20L4.99999 23L3.49999 20L7.99998 21L9.99998 27L11 26L12 28L13 26.5L14 30L15 27L16 30L17 26.5L18 28L19 26L20 27L22 21L26.5 20L25 23L28 20L30 7L23 0H16L15 1V7L15.5 2L16.5 1H22.5L29 7.5L27 18.5L21 20L19.5 24L15 26L15 27L15 26L10.5 24L8.99998 20L2.99999 18.5L0.999998 7.5L7.49998 1H13.5L14.5 2L15 7V1L14 0ZM7 16.5L5 12H9L12 13V18L7 16.5ZM6.5 13H9L11 14V16.5L7.5 15.5L6.5 13ZM25 12L23 16.5L18 18V13L21 12H25ZM21 13H23.5L22.5 15.5L19 16.5V14L21 13ZM13 21V22L14 23V21L15 19.5L16 21V23L17 22V21L15 18L13 21Z" fill="white"/>
</svg>
