<svg width="30" height="30" viewBox="0 0 30 30" fill="none" xmlns="http://www.w3.org/2000/svg">
<path fill-rule="evenodd" clip-rule="evenodd" d="M28.9994 2.99994L29.9994 3.99993L29.9994 0H25.9995L26.9995 0.99999H28.9994V2.99994ZM3 1.00008L3.99999 9.35243e-05L5.89986e-05 9.34607e-05V4.00002L1.00005 3.00003V1.00008L3 1.00008ZM0 25.9997L0.99999 26.9997L0.999991 28.9997H2.99994L3.99993 29.9996H0V25.9997ZM26.9995 28.9996L25.9995 29.9996H29.9994V25.9997L28.9994 26.9997V28.9996H26.9995ZM4 5L10 0H15H20L26 5L27 9L29 13V18H28L26 13L24 12H15H6L4 13L2 18H1V13L3 9L4 5ZM10.5 1L5 5.5L4 9.5L2 13.5V15.5L3.5 12L5.5 11H15H24.5L26.5 12L28 15.5V13.5L26 9.5L25 5.5L19.5 1H15H10.5ZM5 20V14L7 13H15H23L25 14V20L22 23V24L21 27L17 30H13L9 27L8 24V23L5 20ZM17 20C17.6799 20.3399 19.7466 21.6044 21 22.3791V24L20 26.5L16.5 29H13.5L10 26.5L9 24V22.4L13 20C14 19.5 15 19.5 15 19.5C15 19.5 16 19.5 17 20ZM6 14.5L7 14H15H23L24 14.5V19.5L22 21.5L17 19C16.1 18.55 15 18.5 15 18.5C15 18.5 13.9 18.55 13 19L8 21.5L6 19.5V14.5ZM13 16.6C13 17.6667 10 19 8.5 19C7.5 19 7 17.6667 7 16.6C7 15.5333 7.5 15 8.5 15H9C10 15 13 15.6667 13 16.6ZM11.75 16.8C11.75 17.3333 10 18 9 18C8.33333 18 8 17.3333 8 16.8C8 16.2666 8.33333 16 9 16H9.33333C10 16 11.75 16.3333 11.75 16.8ZM21.5 19C20 19 17 17.6667 17 16.6C17 15.6667 20 15 21 15H21.5C22.5 15 23 15.5333 23 16.6C23 17.6667 22.5 19 21.5 19ZM21 18C20 18 18.25 17.3333 18.25 16.8C18.25 16.3333 20 16 20.6667 16H21C21.6667 16 22 16.2666 22 16.8C22 17.3333 21.6667 18 21 18Z" fill="white"/>
</svg>
