<svg width="30" height="30" viewBox="0 0 30 30" fill="none" xmlns="http://www.w3.org/2000/svg">
<path fill-rule="evenodd" clip-rule="evenodd" d="M26.8093 0.432501C27.2617 -0.0233455 27.9364 -0.118646 28.4818 0.1466L28.4996 0.128673L28.5557 0.185212C28.6722 0.250407 28.7817 0.332836 28.8806 0.432501L29.5711 1.1282C29.67 1.22786 29.7518 1.33824 29.8165 1.45561L29.8805 1.52007L29.8599 1.5408C30.1168 2.08841 30.0205 2.76241 29.5711 3.2153C29.1216 3.66818 28.4527 3.76519 27.9092 3.50632L23.3212 8.12921L25.4093 10.2332C25.8832 9.91645 26.5284 9.96851 26.9461 10.3894C27.4227 10.8697 27.4227 11.6483 26.9461 12.1286L26.6008 12.4765C26.1242 12.9568 25.3514 12.9568 24.8747 12.4765C24.4573 12.0559 24.4054 11.4065 24.719 10.9291L22.9759 9.17276L17.0723 15.1191L29.7739 27.9125V29.9996H27.7026L15.0006 17.2058L2.29797 30.0002H0.226605V27.9131L12.9288 15.1191L7.0246 9.17217L5.28092 10.9291C5.5946 11.4066 5.54273 12.056 5.1253 12.4766C4.64864 12.9569 3.87582 12.9569 3.39916 12.4766L3.05394 12.1288C2.57728 11.6485 2.57728 10.8698 3.05394 10.3895C3.4716 9.96867 4.11665 9.91659 4.5906 10.2333L6.67937 8.12862L2.09141 3.50581C1.54783 3.765 0.878614 3.66808 0.428993 3.21505C-0.0206284 2.76201 -0.116818 2.08771 0.140421 1.54001L0.120053 1.51948L0.183423 1.45563C0.248149 1.33815 0.330006 1.22769 0.428994 1.12795L1.11945 0.432252C1.21844 0.332513 1.32807 0.250034 1.44466 0.184816L1.50096 0.128083L1.51883 0.14609C2.06411 -0.118831 2.73855 -0.0234445 3.19081 0.432252C3.64307 0.887948 3.73774 1.56751 3.47482 2.11693L8.06028 6.73722L10.1487 4.63298C9.83444 4.15543 9.88614 3.50552 10.3038 3.0847C10.7804 2.60442 11.5533 2.60442 12.0299 3.0847L12.3752 3.43255C12.8518 3.91283 12.8518 4.69152 12.3752 5.1718C11.9577 5.59242 11.3131 5.64467 10.8392 5.32856L9.09597 7.08507L15.0006 13.0323L20.9046 7.08566L19.1609 5.3288C18.6871 5.64477 18.0426 5.59247 17.6252 5.17191C17.1486 4.69163 17.1486 3.91294 17.6252 3.43266L17.9704 3.08482C18.4471 2.60454 19.2199 2.60454 19.6966 3.08482C20.1143 3.50569 20.166 4.15572 19.8516 4.63328L21.9402 6.73781L26.5255 2.11772C26.2623 1.56821 26.3568 0.888347 26.8093 0.432501Z" fill="white"/>
</svg>
