<svg width="30" height="30" viewBox="0 0 30 30" fill="none" xmlns="http://www.w3.org/2000/svg">
<path d="M13 17V23L11 21L5 30L0 25L9 19L7 17H13ZM23 17L21 19L30 25L25 30L19 21L17 23V17H23ZM20.625 25.5996C18.9469 26.492 17.0331 27 15 27C12.9665 27 11.0523 26.4922 9.37402 25.5996L10.4385 23.8975C11.8066 24.6003 13.3562 25 15 25C16.6435 25 18.1927 24.6 19.5605 23.8975L20.625 25.5996ZM6.10156 10.4385C5.3989 11.8065 5 13.3563 5 15C5 16.6434 5.39914 18.1928 6.10156 19.5605L4.39941 20.625C3.50718 18.947 3 17.033 3 15C3 12.9667 3.50692 11.0522 4.39941 9.37402L6.10156 10.4385ZM25.5996 9.37402C26.4922 11.0523 27 12.9665 27 15C27 17.0331 26.492 18.9469 25.5996 20.625L23.8975 19.5605C24.6 18.1927 25 16.6435 25 15C25 13.3562 24.6003 11.8066 23.8975 10.4385L25.5996 9.37402ZM15 13C16.1046 13 17 13.8954 17 15C17 16.1046 16.1046 17 15 17C13.8954 17 13 16.1046 13 15C13 13.8954 13.8954 13 15 13ZM11 9L13 7V13H7L9 11L0 5L5 0L11 9ZM30 5L21 11L23 13H17V7L19 9L25 0L30 5ZM15 3C17.033 3 18.947 3.50718 20.625 4.39941L19.5605 6.10156C18.1928 5.39914 16.6434 5 15 5C13.3563 5 11.8065 5.3989 10.4385 6.10156L9.37402 4.39941C11.0522 3.50692 12.9667 3 15 3Z" fill="white"/>
</svg>
