<svg width="30" height="30" viewBox="0 0 30 30" fill="none" xmlns="http://www.w3.org/2000/svg">
<path fill-rule="evenodd" clip-rule="evenodd" d="M23 0H7V2H8V11H2V12H28V11H22V2H23V0ZM10 5H20V7H10V5ZM8.5 13L4 14.0055L6 15.011L0 20.2553L0.0148713 20.2623L5 20L7.9236 25L7.92447 24.9834L8.5 16.0164L10 17.0219L8.5 13ZM21.5 13L26 14.0055L24 15.011L30 20.2553L29.9851 20.2623L25 20L22.0764 25L22.0755 24.9834L21.5 16.0164L20 17.0219L21.5 13ZM14.8868 13.2767L12 17H14L9 30L15 27L21 30L16 17H18L14.8868 13.2767Z" fill="white"/>
</svg>
