<svg width="30" height="30" viewBox="0 0 30 30" fill="none" xmlns="http://www.w3.org/2000/svg">
<path fill-rule="evenodd" clip-rule="evenodd" d="M28.9994 2.99994L29.9994 3.99993L29.9994 0H25.9995L26.9995 0.99999H28.9994V2.99994ZM3 1.00008L3.99999 9.35243e-05L5.89986e-05 9.34607e-05V4.00002L1.00005 3.00003V1.00008L3 1.00008ZM0 25.9997L0.99999 26.9997L0.999991 28.9997H2.99994L3.99993 29.9996H0V25.9997ZM26.9995 28.9996L25.9995 29.9996H29.9994V25.9997L28.9994 26.9997V28.9996H26.9995ZM13.9998 9.04818V7L14.9998 4V0L15.9998 4L15 7L15.6701 9.01067C16.1714 9.06861 16.6539 9.18803 17.11 9.36121L18.5 7L21.5 4.5L22.5 2.00964L22 5L19 8L18.5678 10.1609C19.0246 10.501 19.4315 10.9043 19.7757 11.3577L21 11L23 9.5L26.5 9L27.9904 7.50006L27 9.5L23.5 10.5L21.5 12L20.5702 12.7606C20.728 13.1549 20.8454 13.5697 20.9172 14H22L25 15L27.5 14.5L30 15H28L25 16L22 15.5L20.9521 15.762C20.8889 16.2625 20.7645 16.7439 20.5864 17.1985L23 18.9999L25 20.9999L27.9904 22.5L25 21.9999L22 19.9999L19.6578 18.7927C19.4002 19.1107 19.1109 19.4019 18.7946 19.6617L20 22L21 25L22.4999 27.9904L20 25L19 22L17.3906 20.5241C16.9518 20.7166 16.4857 20.8584 15.9998 20.942V23L14.9998 26V30L14 26L14.5 22L14.2465 20.9865C13.6601 20.9164 13.0995 20.762 12.5772 20.536L11.5 21.5L9.99999 26L7.50001 27.9904L8.99999 26L10.5 21L11.1834 19.6923C10.8243 19.4021 10.4992 19.0716 10.215 18.7076L8 19.5L5 22L2.00965 22.4999L5 21L7 19L9.36764 17.2328C9.18048 16.7635 9.05056 16.2653 8.98651 15.7466L7.99999 15.5L3.99999 16L7.85591e-06 15H3.99999L7.99999 14H9.02328C9.09014 13.5994 9.1965 13.2122 9.33822 12.8425L7.99999 12.0001L5.49999 9.50006L2.00965 7.5L5.49999 8.50006L8.49999 11.0001L10.1407 11.3896C10.4547 10.9703 10.822 10.5932 11.2326 10.2684L9.99999 7.5L8.99999 4.5L7.50007 2.00964L9.49999 4L11 7L12.7776 9.38155C13.167 9.2295 13.576 9.11676 13.9998 9.04818ZM10 14.4512C10.0573 13.9265 10.1958 13.4261 10.4026 12.963L10.9181 12.0701C11.2535 11.6071 11.6662 11.2039 12.1373 10.8793L12.8259 10.4818C13.4671 10.1769 14.1835 10.0045 14.9397 10H15.0008C17.7482 10.0165 19.9702 12.2487 19.9702 14.9999C19.9702 17.7613 17.7317 19.9999 14.9702 19.9999C14.202 19.9999 13.4741 19.8266 12.8238 19.517L12.1392 19.1218C11.6671 18.7969 11.2536 18.3931 10.9178 17.9293L10.4028 17.0374C10.1959 16.5741 10.0573 16.0736 10 15.5486V14.4512ZM12 15V16L11.5 17L13 18.5L15 19L17 18.5L18 17.5L18.5 16L17 15.5V14L18 12.5L16 11L15 12H14L13 11.5L11.5 13L11 15H12ZM12.5 13L12 14L13 14.5L15 14H16L17 12.5L16 12L15 13H14H12.5ZM16 15H15L13 15.5V16V17L13.5 17.5L14.1428 17.7143L15 16L16 15.5V15ZM15.5 16.5L15 18L16.5 17.5L17.5 16.5L16.5 16.1667L15.5 16.5Z" fill="white"/>
</svg>
