<svg width="30" height="30" viewBox="0 0 30 30" fill="none" xmlns="http://www.w3.org/2000/svg">
<path fill-rule="evenodd" clip-rule="evenodd" d="M20 8C20 12.4183 16.4183 16 12 16C7.58172 16 4 12.4183 4 8C4 3.58172 7.58172 0 12 0C16.4183 0 20 3.58172 20 8ZM21.1349 20.1883L18.5 24.5V29.3089C15.343 30.0413 12 29.9996 12 29.9996C12 29.9996 0 30.1496 0 24.8997C0 19.6499 7.2 18 12 18C14.8711 18 18.6009 18.5903 21.1349 20.1883ZM30 24.84H28.5988V16H25.4511L20 25.04V27.48H25.9501V30H28.5988V27.48H30V24.84ZM25.9501 19.84V24.84H22.9559L25.9501 19.84Z" fill="white"/>
</svg>
