<svg width="30" height="30" viewBox="0 0 30 30" fill="none" xmlns="http://www.w3.org/2000/svg">
<path fill-rule="evenodd" clip-rule="evenodd" d="M20 8C20 12.4183 16.4183 16 12 16C7.58172 16 4 12.4183 4 8C4 3.58172 7.58172 0 12 0C16.4183 0 20 3.58172 20 8ZM18.7557 19.0687C16.5685 18.3047 14.0626 18 12 18C7.2 18 0 19.6499 0 24.8997C0 30.1496 12 29.9996 12 29.9996C12 29.9996 16.2054 30.0521 19.6371 29.0059C18.9132 27.8428 18.5 26.3408 18.5 24.5L21.9994 24.5079L21.9955 21.5H18.5C18.5 20.5976 18.5897 19.7894 18.7557 19.0687ZM30 25.989C30 24.2342 29.0099 23.2121 27.8614 22.6915C28.9505 22.0937 29.6832 21.1102 29.6832 19.876C29.6832 17.8512 27.8218 16 24.9703 16C22.1782 16 20.2772 17.9091 20.1188 20.011H22.9505C23.0693 19.2782 23.7624 18.5455 25.0099 18.5455C26.1386 18.5455 26.8515 19.2397 26.8515 20.146C26.8515 21.0523 26.1584 21.7273 24.8515 21.7273H23.8416V24.0028H24.9505C26.4158 24.0028 27.1683 24.697 27.1683 25.719C27.1683 26.7218 26.4158 27.4545 25.0495 27.4545C23.6634 27.4545 22.9109 26.5675 22.8317 25.8733H20C20.1782 28.0716 21.9604 30 25.0693 30C28.099 30 30 28.1102 30 25.989Z" fill="white"/>
</svg>
