<svg width="30" height="30" viewBox="0 0 30 30" fill="none" xmlns="http://www.w3.org/2000/svg">
<path fill-rule="evenodd" clip-rule="evenodd" d="M20 8C20 12.4183 16.4183 16 12 16C7.58172 16 4 12.4183 4 8C4 3.58172 7.58172 0 12 0C16.4183 0 20 3.58172 20 8ZM18.8079 19.0871C16.6084 18.3096 14.0791 18 12 18C7.2 18 0 19.6499 0 24.8997C0 30.1496 12 29.9996 12 29.9996C12 29.9996 15.343 30.0413 18.5 29.3089V27.5L23.4447 22.5663C23.3428 22.3701 23.228 22.1814 23.1015 22H18.5C18.5 20.8097 18.6055 19.8541 18.8079 19.0871ZM24.617 27.2903L27.0393 25.0126C28.7371 23.4025 30 22.087 30 20.1038C30 17.8065 28.0538 16 25.0104 16C22.1532 16 20 17.9635 20 20.575H22.8364C22.8364 19.3773 23.7474 18.5919 25.0104 18.5919C26.1905 18.5919 27.0393 19.2595 27.0393 20.2412C27.0393 21.2819 26.5217 21.8513 24.9068 23.3829L20.1863 27.899V30H29.9586V27.2903H24.617Z" fill="white"/>
</svg>
