<svg width="30" height="30" viewBox="0 0 30 30" fill="none" xmlns="http://www.w3.org/2000/svg">
<path fill-rule="evenodd" clip-rule="evenodd" d="M21 8C21 12.4183 17.4183 16 13 16C8.58172 16 5 12.4183 5 8C5 3.58172 8.58172 0 13 0C17.4183 0 21 3.58172 21 8ZM22.5456 20.4638C20.0177 18.6577 16.0305 18 13 18C8.2 18 1 19.6499 1 24.8997C1 30.1496 13 29.9996 13 29.9996C13 29.9996 22.2295 30.1149 24.5 26.6022V22.676C24.471 22.6167 24.4409 22.558 24.4096 22.5H24L22.5456 20.4638ZM26.7703 16L23 18.6L24.3581 20.78L26.1014 19.56V30H29V16H26.7703Z" fill="white"/>
</svg>
