<svg width="30" height="30" viewBox="0 0 30 30" fill="none" xmlns="http://www.w3.org/2000/svg">
<path fill-rule="evenodd" clip-rule="evenodd" d="M28.9997 2.99994L29.9996 3.99993L29.9996 0H25.9997L26.9997 0.99999H28.9997V2.99994ZM3.00024 1.00008L4.00023 9.35243e-05L0.000303139 9.34607e-05V4.00002L1.00029 3.00003V1.00008L3.00024 1.00008ZM0.000244141 25.9997L1.00023 26.9997L1.00023 28.9997H3.00018L4.00017 29.9996H0.000244252L0.000244141 25.9997ZM26.9997 28.9996L25.9997 29.9996H29.9997V25.9997L28.9997 26.9997V28.9996H26.9997ZM14 1.00003L10 2.00003L4.00001 6.00003L5.00001 12L4.00001 16L7.00001 20L8.00001 24V27L15 29L22 27V22L23 20L26 17L27 11L26 6.00003L20 1.00003H14ZM14 2.00003L10 3.00003L9.05407 3.68923L10 6.99988L12 7.99988V12.9999L13 14.9999L15 13.9999L18 10.9999L18.5 7.99988L21 4.49988V3.26624L19.5 2.00003H14ZM5.11633 6.55815L8.12262 4.36786L9 6.99988H6L5.11633 6.55815ZM6.00003 12L5.14723 7.43143L6 7.99988H9.5L11 8.99988L10.5 12.9999L12 15.9999L11.5 16.9999H9L6.92452 18.2453L5.00003 16L6.00003 12ZM8.00003 19.5L7.60868 19.0435L9 17.9999H12L13 15.9999L15 14.9999L20 16.9999L19 19.9999V21.9999L15 21.5L12 22.9999L10 25L12 24L15 22.5L19 22.9999L21 24.6V26L15.0357 28L9.00003 26.1429V23.5L8.00003 19.5ZM21 21.5V23.3333L20 21.9999V19.9999L21.5 16.9999L24 15.9999L25.091 15.9999L25 16.5L22 19.5L21 21.5ZM26 11L25.3334 14.6666L24 13.9999L23 11.5L19 13L17 13.9999L19 10.9999L20 7.99988L22 4.99988V4.11039L25 6.64289L26 11ZM23 14V15L21 16L17.5 15L19 14L22 13L23 14Z" fill="white"/>
</svg>
