<svg width="30" height="30" viewBox="0 0 30 30" fill="none" xmlns="http://www.w3.org/2000/svg">
<path fill-rule="evenodd" clip-rule="evenodd" d="M28.9997 2.99994L29.9996 3.99993L29.9996 0H25.9997L26.9997 0.99999H28.9997V2.99994ZM3.00024 1.00008L4.00023 9.35243e-05L0.000305047 9.34607e-05V4.00002L1.0003 3.00003V1.00008L3.00024 1.00008ZM0.000246048 25.9997L1.00024 26.9997L1.00024 28.9997H3.00018L4.00017 29.9996H0.000246159L0.000246048 25.9997ZM26.9997 28.9996L25.9998 29.9996L29.9997 29.9996V25.9997L28.9997 26.9997V28.9996H26.9997ZM14.9999 0.000338078H9.9999L0 10.0002V21L7.99992 25.9999L2.49998 20V12.0001L5.00001 10.3334V17.0001L7.1724 19.3277L5.50002 21.0001L8.49999 24L10.0689 22.4311L11.9999 24.5001H9.99996V30H14.9999V29H11V25.5001H14.9999V24.5001L13.2502 24.4996L6 16.7501V9.66679L9.9999 7.00021H14.9999H19.9998L23.9998 9.66669V16.7501L16.7502 24.4995L14.9999 24.5V25.5H18.9999V29H14.9999V30H19.9999V24.5H17.9999L19.9309 22.4311L21.4999 24L24.4998 21.0001L22.8274 19.3277L24.9998 17.0001V10.3333L27.5001 12V19.9999L21.9997 25.9999L29.9996 21V10.0002L19.9998 0.000338078H14.9999ZM14.9999 6.00028H19.9998L28.2498 11.5002V20.5001L26.9999 22.0001L29.2498 20.5001V10.5002L19.7499 1.00033H14.9999H10.25L0.749992 10.5002V20.5001L2.99999 22.0001L1.74999 20.5001V11.5002L10.0001 6.00028H14.9999ZM22.9997 14.0002C22.9997 15.9331 21.4327 17.5001 19.4998 17.5001C17.5668 17.5001 15.9998 15.9331 15.9998 14.0002C15.9998 12.0672 17.5668 10.5002 19.4998 10.5002C21.4327 10.5002 22.9997 12.0672 22.9997 14.0002ZM21.9998 14.0002C21.9998 15.3809 20.8805 16.5001 19.4998 16.5001C18.1191 16.5001 16.9999 15.3809 16.9999 14.0002C16.9999 12.6195 18.1191 11.5002 19.4998 11.5002C20.8805 11.5002 21.9998 12.6195 21.9998 14.0002ZM13.9998 14.0002C13.9998 15.9332 12.4328 17.5002 10.4999 17.5002C8.56691 17.5002 6.99993 15.9332 6.99993 14.0002C6.99993 12.0673 8.56691 10.5003 10.4999 10.5003C12.4328 10.5003 13.9998 12.0673 13.9998 14.0002ZM12.9999 14.0002C12.9999 15.3809 11.8806 16.5002 10.4999 16.5002C9.11919 16.5002 7.99992 15.3809 7.99992 14.0002C7.99992 12.6195 9.11919 11.5002 10.4999 11.5002C11.8806 11.5002 12.9999 12.6195 12.9999 14.0002ZM8.5 23.0001L9.49999 22.0001L7.50001 20.0001L6.50002 21.0001L8.5 23.0001ZM21.4999 23.0001L20.4999 22.0001L22.4999 20.0001L23.4999 21.0001L21.4999 23.0001Z" fill="white"/>
</svg>
