<svg width="30" height="30" viewBox="0 0 30 30" fill="none" xmlns="http://www.w3.org/2000/svg">
<path fill-rule="evenodd" clip-rule="evenodd" d="M14 27.9621V29.9672C11.9937 29.8351 10.0951 29.3086 8.38107 28.4644L9.38382 26.7276C10.7994 27.4067 12.357 27.8371 14 27.9621ZM7.27055 27.8578L7.75374 28.1368C7.5908 28.0467 7.42971 27.9537 7.27055 27.8578ZM7.65266 25.7261L6.64992 27.4629C5.0262 26.3728 3.62724 24.9739 2.5372 23.3502L4.27399 22.3474C5.18231 23.6709 6.3292 24.8178 7.65266 25.7261ZM1.86499 22.2495L2.14032 22.7263C2.04573 22.5692 1.95393 22.4102 1.86499 22.2495ZM3.27244 20.6163L1.53563 21.619C0.691429 19.905 0.16488 18.0064 0.0328105 16.0001H2.0379C2.16289 17.6431 2.59329 19.2007 3.27244 20.6163ZM2.26684e-05 14.9736L2.26721e-05 15.0264L0 15L2.26684e-05 14.9736ZM2.03788 14.0001H0.0327986C0.164848 11.9937 0.691394 10.0951 1.5356 8.38103L3.27241 9.38378C2.59325 10.7994 2.16286 12.3571 2.03788 14.0001ZM2.1412 7.27221L1.86417 7.75204C1.95363 7.59024 2.046 7.43028 2.1412 7.27221ZM4.27396 7.65262L2.53717 6.64988C3.62722 5.02615 5.0262 3.62718 6.64994 2.53713L7.65268 4.27392C6.3292 5.18224 5.18228 6.32915 4.27396 7.65262ZM7.75097 1.86476L7.27326 2.14057C7.43064 2.0458 7.5899 1.95384 7.75097 1.86476ZM9.38384 3.27238L8.38109 1.53557C10.0951 0.691391 11.9937 0.164858 14 0.0328046V2.03789C12.3571 2.16287 10.7994 2.59325 9.38384 3.27238ZM15 0L15.0524 8.97124e-05H14.9476L15 0ZM16 29.9672C18.0064 29.8351 19.905 29.3086 21.619 28.4644L20.6163 26.7276C19.2007 27.4067 17.643 27.8371 16 27.9621V29.9672ZM22.2523 28.1334C22.4112 28.0455 22.5683 27.9548 22.7236 27.8614L22.2523 28.1334ZM27.4628 23.3501C26.3728 24.9738 24.9739 26.3728 23.3502 27.4628L22.3474 25.726C23.6709 24.8177 24.8177 23.6708 25.726 22.3474L27.4628 23.3501ZM26.7276 20.6162C27.4067 19.2006 27.8371 17.643 27.9621 16.0001H29.9672C29.8351 18.0064 29.3086 19.905 28.4644 21.619L26.7276 20.6162ZM28.4644 8.38107C29.3086 10.0951 29.8352 11.9937 29.9672 14.0001H27.9621C27.8371 12.3571 27.4068 10.7994 26.7276 9.38382L28.4644 8.38107ZM25.7261 7.65266C24.8178 6.3292 23.6709 5.1823 22.3474 4.27399L23.3502 2.53719C24.9739 3.62724 26.3728 5.0262 27.4629 6.64992L25.7261 7.65266ZM22.7208 2.13697C22.5673 2.04467 22.4121 1.95504 22.2551 1.86814L22.7208 2.13697ZM16 0.0328046C18.0064 0.164869 19.905 0.691419 21.619 1.53562L20.6163 3.27243C19.2006 2.59327 17.643 2.16288 16 2.03789V0.0328046ZM28.1336 7.74806L27.8611 7.27611C27.9547 7.43161 28.0456 7.58895 28.1336 7.74806ZM27.862 22.7225L28.1328 22.2534C28.0453 22.4115 27.955 22.5679 27.862 22.7225ZM13.2157 19.1041H16.3837V18.9121C16.3837 17.3027 17.2941 16.4474 18.2366 15.562C19.2477 14.6121 20.2957 13.6276 20.2957 11.6401C20.2957 8.83209 18.2797 6.88809 14.9437 6.88809C11.6557 6.88809 9.47168 9.38409 9.47168 12.3361V12.5041H12.8317V12.3361C12.8317 11.1121 13.6717 10.0561 14.9437 10.0561C16.1197 10.0561 16.8637 10.7281 16.8637 11.9521C16.8637 12.9123 16.23 13.4974 15.4909 14.1798C14.4566 15.1348 13.2157 16.2806 13.2157 18.9121V19.1041ZM12.8797 22.3921C12.8797 23.4721 13.6957 24.3121 14.7997 24.3121C15.9037 24.3121 16.7197 23.4721 16.7197 22.3921C16.7197 21.3121 15.9037 20.4721 14.7997 20.4721C13.6957 20.4721 12.8797 21.3121 12.8797 22.3921Z" fill="white"/>
</svg>
