<svg width="30" height="30" viewBox="0 0 30 30" fill="none" xmlns="http://www.w3.org/2000/svg">
<path fill-rule="evenodd" clip-rule="evenodd" d="M13.0865 14L10.0865 11C7 11 5 10 5 6C5 3 10 0 10 0C10 0 1 1 1 8C1 14 5.08649 17 10.0865 17L13.0865 14ZM9.5 16L11.5 14L9.5 12C7 12 4 11 4 7.00003C4 4.00003 6 2 6 2C6 2 2 4 2 8.00003C2 12.0001 5 16 9.5 16ZM15 13.5L17 11C17 7.99997 20 5 23 5C26 5 30 7.99997 30 7.99997C30 7.99997 28 3 22 3C17 3 13 6.5 13 11L15 13.5ZM15 11.5L16 10.5C16 7.00003 20 2.99991 25 4.49994C20 1.99991 15 6.00003 14 10.5L15 11.5ZM13 18L16 15L19 18C19 23 18 28 10 29C3 30 0 22 0 22C0 22 3 25 8 25C11 25 13 23 13 18ZM18 19C18 24 15 28 9 28C5 28 3 25 3 25C3 25 5 26 8 26C11 26 14 24 14 19L16 17L18 19ZM17 13L19.5 15C22.5 15 25 18 25 21C25 24 23 27 23 27C23 27 27.5 25 27.5 20C27.5 15 24 11 19.5 11L17 13ZM20 14C24 14 27.5 19.5 25.5 24C28.5 19 25 12.5 20 12L19 13L20 14ZM0 12.9999C2 20 7.5 21 9 19L11 18V20C9.5 22 7 22 5 21.5C3 21 0 18.5 0 12.9999ZM20.5 19C22.5 21 21 28 13 30C18.5001 30 22 27 23 24C23.5 22.5 24 20 22.5 17.5L20 16.5L20.5 19ZM28 22C30 14 27 9.50005 23 9.50005L20 9.00005L22 7.50005C25 7.00005 30 9 30 14C30 16 30 18 28 22ZM12 6.5C13 -0.5 22 0 28 3C24 0 19 0 18 0C12 0 9.5 3 9.5 7L11 9L12 6.5ZM28.9997 2.99994L29.9996 3.99993L29.9996 0H25.9997L26.9997 0.99999H28.9997V2.99994ZM3.00024 1.00008L4.00023 9.35243e-05L0.000303139 9.34607e-05V4.00002L1.00029 3.00003V1.00008L3.00024 1.00008ZM0.000244141 25.9997L1.00023 26.9997L1.00023 28.9997H3.00018L4.00017 29.9996H0.000244252L0.000244141 25.9997ZM26.9997 28.9996L25.9997 29.9996H29.9997V25.9997L28.9997 26.9997V28.9996H26.9997Z" fill="white"/>
</svg>
