<svg width="26" height="26" viewBox="0 0 26 26" fill="none" xmlns="http://www.w3.org/2000/svg">
<g clip-path="url(#clip0_2321_61298)">
<path fill-rule="evenodd" clip-rule="evenodd" d="M4 1C4 0.447754 4.44772 0 5 0C5.55228 0 6 0.447754 6 1V5C6 5.55225 5.55228 6 5 6C4.44772 6 4 5.55225 4 5V1ZM1 3C0.447716 3 0 3.44775 0 4V25C0 25.5522 0.447716 26 1 26H19C19.5523 26 20 25.5522 20 25V4C20 3.44775 19.5523 3 19 3H17V5C17 6.10461 16.1046 7 15 7C13.8954 7 13 6.10461 13 5V3H12V5C12 6.10461 11.1046 7 10 7C8.89543 7 8 6.10461 8 5V3H7V5C7 6.10461 6.10457 7 5 7C3.89543 7 3 6.10461 3 5V3H1ZM17 9V11H3V9H17ZM17 15V13H3V15H17ZM17 17V19H3V17H17ZM10 21H3V23H10V21ZM10 0C9.44772 0 9 0.447754 9 1V5C9 5.55225 9.44772 6 10 6C10.5523 6 11 5.55225 11 5V1C11 0.447754 10.5523 0 10 0ZM14 1C14 0.447754 14.4477 0 15 0C15.5523 0 16 0.447754 16 1V5C16 5.55225 15.5523 6 15 6C14.4477 6 14 5.55225 14 5V1ZM22 4C22 3.44775 22.4477 3 23 3H25C25.5523 3 26 3.44775 26 4V7H22V4ZM22 8H26V22L24 26L22 22V8Z" fill="white"/>
</g>
<defs>
<clipPath id="clip0_2321_61298">
<rect width="26" height="26" fill="white"/>
</clipPath>
</defs>
</svg>
