<svg width="38" height="38" viewBox="0 0 38 38" fill="none" xmlns="http://www.w3.org/2000/svg">
<path fill-rule="evenodd" clip-rule="evenodd" d="M19.0009 0L0 9.88118L19.0009 19.7595L37.999 9.87831L19.0009 0ZM19.0009 2.64207L32.9174 9.88118L19.0009 17.1203L5.08436 9.88118L19.0009 2.64207ZM7.30772 15.2001L0 19.0004L19.0009 28.8787L37.999 18.9976L30.6924 15.1984L28.1501 16.5206L32.9174 19.0004L19.0009 26.2395L5.08436 19.0004L9.84962 16.5216L7.30772 15.2001ZM0 28.12L7.30771 24.3197L9.8496 25.6412L5.08436 28.12L19.0009 35.3591L32.9174 28.12L28.1502 25.6401L30.6924 24.3179L37.999 28.1171L19.0009 37.9983L0 28.12Z" fill="white"/>
</svg>
