<svg width="36" height="36" viewBox="0 0 36 36" fill="none" xmlns="http://www.w3.org/2000/svg">
<path fill-rule="evenodd" clip-rule="evenodd" d="M16.8627 0.347615L17.5 2.5C17.9072 4.24865 18.4663 8.17724 18.5 10H14.5C14.5337 8.17724 15.0928 4.24865 15.5 2.5L16.1376 0.347615C16.1857 0.141369 16.3329 0 16.5002 0C16.6671 0 16.8147 0.141369 16.8627 0.347615ZM20 17.4721V32.0353C20 32.2789 19.3677 32.4781 19.1258 32.4782V33.3568C19.3677 33.3568 20 33.5513 20 33.7949V35.5565C20 35.8 19.8045 35.9969 19.5625 35.9969H13.4375C13.1956 35.9969 13 35.8001 13 35.5565V33.7948C13 33.5512 13.6331 33.3545 13.8751 33.3545V32.4759C13.6332 32.4759 13 32.2789 13 32.0353V17.4721C13 17.1616 13.0723 16.8554 13.2111 16.5777L14.3944 14.2111C14.4639 14.0723 14.5 13.9192 14.5 13.7639V11.5C14.5 11.2238 14.7239 11 15 11H18C18.2761 11 18.5 11.2238 18.5 11.5V13.7639C18.5 13.9192 18.5361 14.0723 18.6056 14.2111L19.7889 16.5777C19.9277 16.8554 20 17.1616 20 17.4721ZM9.72224 24H5.2778C5.12417 24 5.00003 23.8883 5 23.75V23.5001C5 21.8567 5.87251 20.0365 7.33333 19.0501C7.43222 18.9833 7.56778 18.9833 7.66666 19.0501C9.12749 20.0365 10 21.8568 10 23.5001V23.75C10 23.8883 9.87586 24 9.72224 24ZM10 25.3929V33.2518C10 33.4691 9.39693 33.6447 9.16652 33.6448V34.4286C9.39693 34.4286 10 34.6042 10 34.8215V35.6071C10 35.8244 9.81378 36 9.58332 36H5.41668C5.18627 36 5 35.8244 5 35.6071V34.8214C5 34.6041 5.60215 34.4285 5.8326 34.4285V33.6447C5.6022 33.6447 5 33.4691 5 33.2518V25.3929C5 25.1756 5.18622 25 5.41668 25H9.58332C9.81373 25 10 25.1756 10 25.3929ZM23 0.999999C23 0.447715 23.4477 0 24 0H30C30.5523 0 31 0.447715 31 1V27H23V0.999999ZM31 31.5026V27.9995H23V31.5026C23 31.7792 23.6129 32 24 32V32.9974C23.6129 32.9974 23 33.2235 23 33.5V35.5C23 35.7765 23.3129 36 23.7 36H30.3C30.6872 36 31 35.7765 31 35.5V33.5001C31 33.2236 30.3871 32.9974 30 32.9974V32C30.3871 31.9999 31 31.7792 31 31.5026Z" fill="white"/>
</svg>
