<svg width="34" height="34" viewBox="0 0 34 34" fill="none" xmlns="http://www.w3.org/2000/svg">
<path d="M25.3849 0.422716C24.87 0.19141 24.2659 0.431807 24.0506 0.953617L21.5288 7.06813L24.6731 8.48074L27.2187 2.3088C27.4247 1.80941 27.1968 1.23671 26.704 1.01534L25.3849 0.422716ZM9.95031 0.987203C9.74393 0.462271 9.14449 0.2118 8.62599 0.433846L7.29835 1.0024C6.80141 1.21522 6.56356 1.78444 6.76136 2.28755L9.20521 8.50348L12.3722 7.14723L9.95031 0.987203ZM12.0126 0.551397L11.3705 0.83171L13.6418 6.61042L13.8079 7.03301C14.0056 7.53628 13.7675 8.10558 13.2703 8.31818L9.40325 9.97177C8.88478 10.1935 8.28564 9.9429 8.07938 9.41809L7.9351 9.051L5.68005 3.31703L4.80374 3.69968C6.17154 5.6079 6.34158 8.69439 5.52011 11.1426C4.93084 12.8987 4.42901 13.5448 3.30435 13.5448L3.30443 15.64H9.47834C10.0306 15.64 10.4783 16.0877 10.4783 16.64V20.76C10.4783 21.3123 10.0306 21.76 9.47834 21.76H3.30435L3.30427 23.1099H9.47819C10.0305 23.1099 10.4782 23.5576 10.4782 24.1099L10.4782 28.24C10.4783 28.7923 10.0305 29.24 9.47825 29.24H3.30435L3.30427 31.9241C4.63058 33.3084 10.8512 34 17.0009 34C23.1506 34 29.3693 33.3084 30.6957 31.9241L30.693 29.24H24.5195C23.967 29.24 23.5193 28.792 23.5195 28.2396L23.5213 24.1105C23.5215 23.5584 23.9692 23.1109 24.5213 23.1109H30.6957V21.76H24.5198C23.9674 21.76 23.5196 21.312 23.5198 20.7596L23.5216 16.6396C23.5219 16.0874 23.9695 15.64 24.5216 15.64H30.6957L30.693 13.5373C29.569 13.5448 29.0685 12.8912 28.4792 11.1351C27.6577 8.6869 27.8278 5.6004 29.1956 3.69218L28.3003 3.3008L25.9319 9.04268L25.7816 9.40701C25.5664 9.92852 24.9627 10.1689 24.448 9.93809L20.6099 8.2169C20.1167 7.99574 19.8885 7.42272 20.0946 6.92307L20.268 6.50281L22.6114 0.819927L21.9884 0.551315C21.4942 1.4797 20.7711 2.25327 19.8941 2.79186C19.0171 3.33045 18.018 3.61446 17.0005 3.61446C15.9829 3.61446 14.9838 3.33045 14.1068 2.79186C13.2298 2.25327 12.5067 1.47978 12.0126 0.551397ZM3 17C2.44771 17 2 17.4477 2 18V19.4C2 19.9523 2.44772 20.4 3 20.4H9.17391V17H3ZM24.8261 17V20.4H31C31.5523 20.4 32 19.9523 32 19.4V18C32 17.4477 31.5523 17 31 17H24.8261ZM3 24.48C2.44771 24.48 2 24.9277 2 25.48V26.88C2 27.4323 2.44772 27.88 3 27.88H9.17391V24.48H3ZM24.8261 24.48V27.88H31C31.5523 27.88 32 27.4323 32 26.88V25.48C32 24.9277 31.5523 24.48 31 24.48H24.8261Z" fill="white"/>
</svg>
