<?xml version="1.0" encoding="UTF-8" standalone="no"?>
<svg
   width="50"
   height="50"
   viewBox="0 0 50 50"
   fill="none"
   version="1.1"
   id="svg1"
   xmlns="http://www.w3.org/2000/svg"
   xmlns:svg="http://www.w3.org/2000/svg">
  <defs
     id="defs1" />
  <path
     fill-rule="evenodd"
     clip-rule="evenodd"
     d="m 32.215512,16.9546 c 0.0845,0.594 0.6346,1.0153 1.2166,0.8696 4.0233,-1.0072 6.9955,-4.5513 6.9955,-8.7687 0,-5.00122 -4.1795,-9.0555 -9.3353,-9.0555 -3.674,0 -6.8523,2.05884 -8.3757,5.05203 -0.2851,0.56018 0.0373,1.2143 0.6334,1.41369 0.5805,0.19419 1.2018,-0.11857 1.4982,-0.65421 1.194,-2.15816 3.5424,-3.62571 6.2441,-3.62571 3.9113,0 7.082,3.07566 7.082,6.86969 0,3.10351 -2.1216,5.72631 -5.0347,6.57831 -0.5836,0.1706 -1.0097,0.7188 -0.9241,1.3208 z m 2.4893,3.1021 v 0 c -0.0269,0.0028 -0.0537,0.0056 -0.0796,0.0134 -0.4692,0.0694 -0.9605,0.0478 -1.4483,-0.079 -1.889,-0.4909 -3.01,-2.3744 -2.5039,-4.2068 0.3371,-1.2204 1.4172,-2.0137 2.482,-2.4236 1.4745,-0.6659 2.55,-2.0236 2.783,-3.64305 l -0.0528,-0.01387 c -5.8387,-1.51758 -11.8401,1.84352 -13.4046,7.50722 -1.2125,4.3896 0.5961,8.874 4.1894,11.376 l -0.5314,1.9238 c -0.0644,0.2332 0.0783,0.4729 0.3187,0.5354 l 0.4975,0.1293 -4.4991,16.2875 2.2986,2.537 3.6316,-2.2888 0.7498,-2.7146 -0.8897,-1.6051 1.5979,-0.9586 -0.8897,-1.6052 1.7541,-1.5241 0.1718,-0.6221 -0.8829,-1.6297 1.9491,-2.2301 0.6053,-2.1914 0.4975,0.1293 c 0.2404,0.0625 0.4876,-0.0759 0.552,-0.3091 l 0.5314,-1.9238 c 4.4015,-0.424 8.2793,-3.4305 9.4918,-7.8201 0.8805,-3.1874 0.168,-6.4249 -1.664,-8.917 -1.2068,2.6027 -3.378,4.6937 -6.0721,5.8446 -0.3392,0.1935 -0.7114,0.3324 -1.1013,0.4082 -0.0265,0.0084 -0.0543,0.0113 -0.0821,0.0143 z m -20.60908,-7.2401 c 2.83608,-4.76491 8.90488,-6.59057 13.96748,-4.37513 -3.5402,1.4459 -6.379,4.40633 -7.4502,8.28413 -1.2262,4.4393 0.1735,8.961 3.2756,12.0133 -0.6952,0.02 -1.3954,-0.0241 -2.0909,-0.1349 l -1.0266,1.7248 c -0.1244,0.2091 -0.4,0.2807 -0.6156,0.16 l -0.446,-0.2498 -1.1695,1.9648 -2.4776,1.6648 0.4179,1.7958 -0.3319,0.5577 -2.10097,1.0318 0.43107,1.7739 -1.79917,0.5247 0.43107,1.7739 -1.44858,2.4338 -4.11853,1.299 -1.54329,-3.0277 8.69145,-14.6028 -0.44605,-0.2498 c -0.21555,-0.1208 -0.2894,-0.3881 -0.16495,-0.5972 l 1.02659,-1.7248 c -2.80331,-3.3189 -3.35374,-8.1046 -1.01132,-12.0403 z"
     fill="white"
     id="path1"
     style="fill:#ffffff;fill-opacity:0.997859" />
</svg>
