<svg width="36" height="36" viewBox="0 0 36 36" fill="none" xmlns="http://www.w3.org/2000/svg">
<path fill-rule="evenodd" clip-rule="evenodd" d="M10 7C10 4.79086 11.7909 3 14 3H22C24.2091 3 26 4.79086 26 7H24C24 5.89543 23.1046 5 22 5H14C12.8954 5 12 5.89543 12 7H10ZM8.0002 6H5.0002V7H8.0002V6ZM31.0002 6H28.0002V7H31.0002V6ZM0 11C0 8.79087 1.79086 7.00001 4 7.00001H32C34.2091 7.00001 36 8.79087 36 11V29C36 31.2092 34.2091 33 32 33H4C1.79086 33 0 31.2092 0 29V11ZM9 20C9 15.0294 13.0294 11 18 11C22.9706 11 27 15.0294 27 20C27 24.9706 22.9706 29 18 29C13.0294 29 9 24.9706 9 20ZM15.7502 14H20.2502V17.75H24V22.25H20.2502V26H15.7502V22.25H12V17.75L15.7502 17.75V14Z" fill="white"/>
</svg>
