<svg width="30" height="30" viewBox="0 0 30 30" fill="none" xmlns="http://www.w3.org/2000/svg">
<path d="M7 5H30V17.75L10 20V22H25.5C27.7091 22 29.5 23.7909 29.5 26C29.5 28.2091 27.7091 30 25.5 30C23.2909 30 21.5 28.2091 21.5 26C21.5 25.2712 21.6956 24.5884 22.0361 24H13.4639C13.8044 24.5884 14 25.2712 14 26C14 28.2091 12.2091 30 10 30C7.79086 30 6 28.2091 6 26C6 24.5196 6.80464 23.2278 8 22.5361V20L4.5 2H0V0H6L7 5ZM10 24C8.89543 24 8 24.8954 8 26C8 27.1046 8.89543 28 10 28C11.1046 28 12 27.1046 12 26C12 24.8954 11.1046 24 10 24ZM25.5 24C24.3954 24 23.5 24.8954 23.5 26C23.5 27.1046 24.3954 28 25.5 28C26.6046 28 27.5 27.1046 27.5 26C27.5 24.8954 26.6046 24 25.5 24ZM8.86328 13L10 18H10.5L11.9844 17.835L11.5449 13H8.86328ZM13.5449 13L13.9648 17.6143L16 17.3887V13H13.5449ZM18 13V17.166L20 16.9443V13H18ZM22 13V16.7217L24 16.5V13H22ZM26 13V16.2773L28 16.0547V13H26ZM8.40918 11H11.3633L11 7H7.5L8.40918 11ZM13.3633 11H16V7H13L13.3633 11ZM18 11H20V7H18V11ZM22 11H24V7H22V11ZM26 11H28V7H26V11Z" fill="white"/>
</svg>
