<svg width="54" height="54" viewBox="0 0 54 54" fill="none" xmlns="http://www.w3.org/2000/svg">
<path fill-rule="evenodd" clip-rule="evenodd" d="M46 11V7H45V2.00956L43 2L40 5V7H19V4C19 2.89543 18.1046 2 17 2H2C0.895431 2 0 2.89543 0 4V23C0 24.1046 0.895431 25 2 25H3V5H16V7H6C5.44771 7 5 7.44772 5 8V20C5 20.5523 5.44772 21 6 21H14V34C14 34.5523 14.4477 35 15 35H16H25H26C26.5523 35 27 34.5523 27 34V28H32C34.2091 28 36 26.2091 36 24V21H46V17H47V18H48.2676C48.6134 17.4022 49.2597 17 50 17C50.7403 17 51.3866 17.4022 51.7324 18H54V10H51.7324C51.3866 10.5978 50.7403 11 50 11C49.2597 11 48.6134 10.5978 48.2676 10H47V11H46ZM16 51V36H25V51C25 51.5523 24.5523 52 24 52H17C16.4477 52 16 51.5523 16 51ZM27 26V21H28L29 24L31 25L30 21H34V24C34 25.1046 33.1046 26 32 26H27ZM50 16C51.1046 16 52 15.1046 52 14C52 12.8954 51.1046 12 50 12C48.8954 12 48 12.8954 48 14C48 15.1046 48.8954 16 50 16Z" fill="white"/>
</svg>
