<svg width="34" height="34" viewBox="0 0 34 34" fill="none" xmlns="http://www.w3.org/2000/svg">
<path fill-rule="evenodd" clip-rule="evenodd" d="M18 0H16V5L17 6L18 5V0ZM17 28L16 29V34H18V29L17 28ZM34 18H29L28 17L29 16H34V18ZM6 17L5 16H0V18H5L6 17ZM2.12305 14C3.32103 8.02653 8.02654 3.32082 13.9999 2.12255V4.34794C9.22968 5.47485 5.47485 9.22973 4.34803 14H2.12305ZM2.12298 20C3.32084 25.9737 8.02642 30.6796 13.9999 31.8779V29.6521C9.22968 28.5252 5.47485 24.7703 4.34803 20H2.12298ZM19.9999 31.8782C25.9743 30.6805 30.6807 25.9743 31.8787 20H29.6523C28.5254 24.7705 24.7704 28.5254 19.9999 29.6522V31.8782ZM19.9999 2.12218C25.9742 3.31985 30.6805 8.02591 31.8787 14H29.6523C28.5254 9.22957 24.7704 5.4746 19.9999 4.34782V2.12218ZM22.1552 13.9801C22.2933 14.2229 22.4027 14.4635 22.5053 14.7081L24.626 15.0368C24.8176 15.0674 24.9616 15.24 24.9686 15.4455L24.9998 18.7215C25.0067 18.9269 24.8645 19.0959 24.6699 19.1242L22.552 19.4127C22.3531 19.9006 22.1063 20.3689 21.7886 20.793L22.6042 22.8383C22.6811 23.0218 22.6099 23.2349 22.438 23.3356L19.6886 24.9462C19.5168 25.0468 19.2993 25.0028 19.1812 24.8435L17.8432 23.1042C17.3223 23.1713 16.8033 23.1611 16.2833 23.0849L14.9782 24.8016C14.8594 24.9473 14.6414 24.9989 14.4695 24.8901L11.6889 23.2247C11.517 23.1159 11.4416 22.9029 11.5113 22.7193L12.2912 20.6915C12.1336 20.4791 11.9789 20.2555 11.8448 20.0199C11.7107 19.7842 11.5973 19.5365 11.4947 19.2919L9.37398 18.9632C9.18243 18.9326 9.03148 18.764 9.03144 18.5546L9.00024 15.2785C8.99333 15.0731 9.13547 14.9041 9.33014 14.8758L11.448 14.5873C11.6469 14.0994 11.8937 13.6311 12.2114 13.207L11.3958 11.1617C11.3189 10.9782 11.3901 10.7651 11.562 10.6645L14.3114 9.05385C14.4832 8.95319 14.7007 8.99716 14.8189 9.15646L16.1568 10.8958C16.6777 10.8287 17.1967 10.8389 17.7167 10.9151L19.0218 9.19842C19.1406 9.05271 19.3587 9.00112 19.5305 9.1099L22.3111 10.7753C22.483 10.8841 22.5584 11.0971 22.4887 11.2807L21.7088 13.3085C21.8664 13.5209 22.017 13.7373 22.1552 13.9801ZM14.5943 18.4093C15.3785 19.7875 17.0956 20.2764 18.4222 19.4993C19.7488 18.7222 20.19 16.9689 19.4057 15.5907C18.6215 14.2125 16.9044 13.7236 15.5778 14.5007C14.2512 15.2778 13.81 17.0311 14.5943 18.4093Z" fill="white"/>
</svg>
