<svg width="21" height="23" viewBox="0 0 21 23" fill="none" xmlns="http://www.w3.org/2000/svg">
<path fill-rule="evenodd" clip-rule="evenodd" d="M9 0C11.7614 0 14 2.23858 14 5H16H17H19L21 23H0L2 5H4C4 2.23858 6.23858 0 9 0ZM5 5H7H8H13C13 2.79086 11.2091 1 9 1C6.79086 1 5 2.79086 5 5ZM13.8329 1.44373C15.1201 2.10847 16 3.45148 16 5H17C17 2.35087 14.9398 0.182929 12.3342 0.0109863C12.9129 0.398478 13.4204 0.883976 13.8329 1.44373ZM7.83316 2.23543C7.30673 3.0273 7 3.97783 7 5H8C8 3.81525 8.51507 2.75081 9.33349 2.01838C9.224 2.00627 9.11272 2.00005 9 2.00005C8.58613 2.00005 8.19183 2.08386 7.83316 2.23543ZM14 10.5C14 12.433 12.433 14 10.5 14C8.567 14 7 12.433 7 10.5C7 8.567 8.567 7 10.5 7C12.433 7 14 8.567 14 10.5ZM4 18.4499C4 15.825 7.9 15 10.5 15C13.1 15 17 15.825 17 18.4499C17 21.0748 10.5 20.9998 10.5 20.9998C10.5 20.9998 4 21.0748 4 18.4499Z" fill="white"/>
</svg>
