<svg width="21" height="23" viewBox="0 0 21 23" fill="none" xmlns="http://www.w3.org/2000/svg">
<path fill-rule="evenodd" clip-rule="evenodd" d="M9 0C11.7614 0 14 2.23858 14 5H16H17H19L21 23H0L2 5H4C4 2.23858 6.23858 0 9 0ZM5 5H7H8H13C13 2.79086 11.2091 1 9 1C6.79086 1 5 2.79086 5 5ZM13.8329 1.44373C15.1201 2.10847 16 3.45148 16 5H17C17 2.35087 14.9398 0.182929 12.3342 0.0109863C12.9129 0.398478 13.4204 0.883976 13.8329 1.44373ZM7.83316 2.23543C7.30673 3.0273 7 3.97783 7 5H8C8 3.81525 8.51507 2.75081 9.33349 2.01838C9.224 2.00627 9.11272 2.00005 9 2.00005C8.58613 2.00005 8.19183 2.08386 7.83316 2.23543ZM8 6L10.5 8.5L6 11.5L3 9L8 6ZM10.5 14L15 11.5L10.5 8.5L13 6.00001L18 9.00001L15 11.5L18 14.5L13 17L10.5 14ZM10.5 14L6 11.5L3 14.5L8 17L10.5 14ZM6 19L10.5 22L15 19V17L13 18L10.5 15L8 18L6 17V19Z" fill="white"/>
</svg>
