<svg width="16" height="16" viewBox="0 0 16 16" fill="none" xmlns="http://www.w3.org/2000/svg">
<g clip-path="url(#clip0_3730_9065)">
<path d="M0 3L2 0H9V1H13V6L16 7V13L12 16H0V3Z" fill="black" fill-opacity="0.3"/>
<path d="M12.333 12.8672L13.4004 12.333V13.4004L11 15L8.59961 13.4004V12.333L9.66699 12.8672L11 11.2666L12.333 12.8672ZM11 10.7334L9.66699 12.333L7 11L8.59961 9.40039L11 10.7334ZM15 11L12.333 12.333L11 10.7334L13.4004 9.40039L15 11ZM11 8.33301L8.59961 9.40039L7 8.06641L9.66699 7L11 8.33301ZM15 8.06641L13.4004 9.40039L11 8.33301L12.333 7L15 8.06641Z" fill="white"/>
<path d="M6 13H5.5V14H6V15H1V14H1.5V13H1V6H6V13ZM3.5 1C4.61111 1 6 2.77781 6 5H1C1 2.77781 2.38889 1.00003 3.5 1Z" fill="white"/>
<rect x="10" y="2" width="2" height="4" fill="white"/>
<path d="M12 2L12 4L8 4L8 5L6 3L8 1L8 2L12 2Z" fill="white"/>
</g>
<defs>
<clipPath id="clip0_3730_9065">
<rect width="16" height="16" fill="white"/>
</clipPath>
</defs>
</svg>
