<svg width="15" height="16" viewBox="0 0 15 16" fill="none" xmlns="http://www.w3.org/2000/svg">
<path fill-rule="evenodd" clip-rule="evenodd" d="M7 5.99998C7 2.6667 5.05556 0 3.5 0C1.94444 4.06546e-05 0 2.6667 0 5.99998V16H7V12H15V7H7V5.99998Z" fill="black" fill-opacity="0.3"/>
<path fill-rule="evenodd" clip-rule="evenodd" d="M6 4.99999C6 2.7778 4.61111 1 3.5 1C2.38889 1.00003 1 2.7778 1 4.99999H6ZM1 13V6H6V6.99999H4V12H6V13H5.5V14H6V15H1V14H1.5V13H1ZM14 7.99999H5V11H14V7.99999Z" fill="white"/>
</svg>
