<svg width="16" height="16" viewBox="0 0 16 16" fill="none" xmlns="http://www.w3.org/2000/svg">
<g clip-path="url(#clip0_3730_9025)">
<path d="M0 4H2V0H9V1H13V6L16 7V13L12 16H0V4Z" fill="black" fill-opacity="0.3"/>
<path d="M12.333 12.8672L13.4004 12.333V13.4004L11 15L8.59961 13.4004V12.333L9.66699 12.8672L11 11.2666L12.333 12.8672ZM11 10.7334L9.66699 12.333L7 11L8.59961 9.40039L11 10.7334ZM15 11L12.333 12.333L11 10.7334L13.4004 9.40039L15 11ZM11 8.33301L8.59961 9.40039L7 8.06641L9.66699 7L11 8.33301ZM15 8.06641L13.4004 9.40039L11 8.33301L12.333 7L15 8.06641Z" fill="white"/>
<path d="M4.99994 5C5.55222 5 5.99994 5.44772 5.99994 6V7C5.99994 7.55228 5.55222 8 4.99994 8V9C5.55222 9 5.99994 9.44772 5.99994 10V14C5.99994 14.5523 5.55222 15 4.99994 15H1.99994C1.44765 15 0.999939 14.5523 0.999939 14V10C0.999941 9.44772 1.44766 9 1.99994 9V8C1.44765 8 0.999939 7.55228 0.999939 7V6C0.999941 5.44772 1.44766 5 1.99994 5H2.99994V2L3.99994 1V5H4.99994Z" fill="white"/>
<rect x="10" y="2" width="2" height="4" fill="white"/>
<path d="M12 2L12 4L8 4L8 5L6 3L8 1L8 2L12 2Z" fill="white"/>
</g>
<defs>
<clipPath id="clip0_3730_9025">
<rect width="16" height="16" fill="white"/>
</clipPath>
</defs>
</svg>
