<svg width="15" height="16" viewBox="0 0 15 16" fill="none" xmlns="http://www.w3.org/2000/svg">
<path fill-rule="evenodd" clip-rule="evenodd" d="M0 0H3V2.03073C3.70003 0.782995 4.65711 2.20483e-05 5.5 0C6.34289 0 7.29997 0.782975 8 2.03071V0H11V7H15V12H11V16H8V16H3V16H0V0Z" fill="black" fill-opacity="0.3"/>
<path fill-rule="evenodd" clip-rule="evenodd" d="M2 1H1V15H2V1ZM5.5 1C6.61111 1 8 2.7778 8 4.99999H3C3 2.7778 4.38889 1.00003 5.5 1ZM3 6V13H3.5V14H3V15H8V14H7.5V13H8V12H6V6.99999H8V6H3ZM7 8H14V11H7V8ZM9 12H10V15H9V12ZM10 1H9V7H10V1Z" fill="white"/>
</svg>
