<svg width="15" height="16" viewBox="0 0 15 16" fill="none" xmlns="http://www.w3.org/2000/svg">
<path fill-rule="evenodd" clip-rule="evenodd" d="M5 0H4L2 2V4H0V16H7V15H12V12H15V7.00002H12V4.00002L7 4.00002V4H5V0Z" fill="black" fill-opacity="0.3"/>
<path fill-rule="evenodd" clip-rule="evenodd" d="M4 4.99999V1L3 2V4.99999H4ZM1 6.00002C1 5.44773 1.44772 5.00002 2 5.00002H5C5.55228 5.00002 6 5.44773 6 6.00002V6.99999H4V12H6V14C6 14.5523 5.55228 15 5 15H2C1.44772 15 1 14.5523 1 14V10C1 9.44773 1.44772 9.00002 2 9.00002L2 8.00002C1.44772 8.00002 1 7.5523 1 7.00002V6.00002ZM8 14V11H5V7.99999H8L8 4.99999H11V7.99999H14V11H11V14H8Z" fill="white"/>
</svg>
