<svg width="15" height="15" viewBox="0 0 15 15" fill="none" xmlns="http://www.w3.org/2000/svg">
<path fill-rule="evenodd" clip-rule="evenodd" d="M12 15C13.6569 15 15 13.6569 15 12L15 8C15 6.89543 14.1046 6 13 6L7.5 6.55671e-07L2 6C0.89543 6 -7.08524e-07 6.89543 -6.11959e-07 8L-2.62268e-07 12C-1.17422e-07 13.6569 1.34315 15 3 15L12 15Z" fill="black" fill-opacity="0.3"/>
<path fill-rule="evenodd" clip-rule="evenodd" d="M12 14C13.1046 14 14 13.1046 14 12L14 8C14 7.44772 13.5523 7 13 7L13 12C13 12.5523 12.5523 13 12 13L3 13C2.44771 13 2 12.5523 2 12L2 7C1.44772 7 0.999999 7.44772 0.999999 8L1 12C1 13.1046 1.89543 14 3 14L12 14Z" fill="white"/>
<path d="M6 6L6 10L9 10L9 6L11 6L7.5 2L4 6L6 6Z" fill="white"/>
</svg>
