<svg width="15" height="15" viewBox="0 0 15 15" fill="none" xmlns="http://www.w3.org/2000/svg">
<path fill-rule="evenodd" clip-rule="evenodd" d="M3 -0.00012207C1.34315 -0.00012207 0 1.34302 0 2.99988V6.99988C0 8.10445 0.89543 8.99988 2 8.99988L7.5 14.9999L13 8.99988C14.1046 8.99988 15 8.10445 15 6.99988V2.99988C15 1.34302 13.6569 -0.00012207 12 -0.00012207H3Z" fill="black" fill-opacity="0.3"/>
<path fill-rule="evenodd" clip-rule="evenodd" d="M3 0.999878C1.89543 0.999878 1 1.89531 1 2.99988V6.99988C1 7.55216 1.44772 7.99988 2 7.99988L2 2.99988C2 2.44759 2.44772 1.99988 3 1.99988H12C12.5523 1.99988 13 2.44759 13 2.99988V7.99988C13.5523 7.99988 14 7.55216 14 6.99988V2.99988C14 1.89531 13.1046 0.999878 12 0.999878H3Z" fill="white"/>
<path d="M9 8.99988L9 4.99988L6 4.99988L6 8.99988L4 8.99988L7.5 12.9999L11 8.99988L9 8.99988Z" fill="white"/>
</svg>
