<svg width="15" height="16" viewBox="0 0 15 16" fill="none" xmlns="http://www.w3.org/2000/svg">
<path fill-rule="evenodd" clip-rule="evenodd" d="M0 2C0 0.89543 0.895431 0 2 0H13C14.1046 0 15 0.895431 15 2V7C15 8.10457 14.1046 9 13 9V10L7.5 16L2 10L2 9C0.89543 9 0 8.10457 0 7V2Z" fill="black" fill-opacity="0.3"/>
<path fill-rule="evenodd" clip-rule="evenodd" d="M2 1C1.44772 1 1 1.44772 1 2V7C1 7.55228 1.44772 8 2 8H5V5H10V8H13C13.5523 8 14 7.55228 14 7V2C14 1.44772 13.5523 1 13 1H2Z" fill="white"/>
<path d="M9 10L9 6L6 6L6 10L4 10L7.5 14L11 10L9 10Z" fill="white"/>
</svg>
