<svg width="15" height="16" viewBox="0 0 15 16" fill="none" xmlns="http://www.w3.org/2000/svg">
<path fill-rule="evenodd" clip-rule="evenodd" d="M5 0H4L2 2V4H0V16H7V12H15V7.00002H7V4H5V0Z" fill="black" fill-opacity="0.3"/>
<path fill-rule="evenodd" clip-rule="evenodd" d="M4 1V4.99999H3V2L4 1ZM2 5.00002C1.44772 5.00002 1 5.44773 1 6.00002V7.00002C1 7.5523 1.44772 8.00002 2 8.00002L2 9.00002C1.44772 9.00002 1 9.44773 1 10V14C1 14.5523 1.44772 15 2 15H5C5.55228 15 6 14.5523 6 14V12H4V6.99999H6V6.00002C6 5.44773 5.55228 5.00002 5 5.00002H2Z" fill="white"/>
<path d="M5 8H14V11H5V8Z" fill="white"/>
</svg>
