<svg width="16" height="16" viewBox="0 0 16 16" fill="none" xmlns="http://www.w3.org/2000/svg">
<g clip-path="url(#clip0_3454_95)">
<path d="M2.5 0H13.5L16 2.5V13.5L13.5 16H2.5L0 13.5V2.5L2.5 0Z" fill="black" fill-opacity="0.3"/>
<path d="M14.9999 3V13L12.9999 15H4.49994L7.99994 11.5V13H11.9999L12.9999 12V4L12.08 3.08008L13.58 1.58008L14.9999 3ZM7.99994 4.5V3H3.99994L3.03998 4V12L3.92084 12.918L2.41986 14.4199L0.999939 13V3L2.99994 1H11.4999L7.99994 4.5ZM10.9999 6.5V11H9.49994V9.5H6.49994V11H4.99994V6.5L6.49994 5H9.49994L10.9999 6.5ZM6.49994 7V8H9.49994V7L8.99994 6.5H6.99994L6.49994 7Z" fill="white"/>
</g>
<defs>
<clipPath id="clip0_3454_95">
<rect width="16" height="16" fill="white"/>
</clipPath>
</defs>
</svg>
