<svg width="15" height="16" viewBox="0 0 15 16" fill="none" xmlns="http://www.w3.org/2000/svg">
<path fill-rule="evenodd" clip-rule="evenodd" d="M5.45927 4.05298C5.7978 3.62646 6 3.08684 6 2.5C6 1.11929 4.88071 0 3.5 0C2.11929 0 1 1.11929 1 2.5C1 3.08684 1.2022 3.62646 1.54073 4.05298C0.657526 4.26052 0 5.05347 0 6V7L1 16H6L6.4 12.4L9 15H10V12H15V6H10V3H9L6.82325 5.17675C6.57058 4.61804 6.06864 4.19617 5.45927 4.05298Z" fill="black" fill-opacity="0.3"/>
<path d="M9 11L14 11L14 7L9 7L9 5L5 9L9 13L9 11Z" fill="white"/>
<path fill-rule="evenodd" clip-rule="evenodd" d="M4.99985 2.5C4.99985 3.32843 4.32827 4 3.49985 4C2.67142 4 1.99985 3.32843 1.99985 2.5C1.99985 1.67157 2.67142 1 3.49985 1C4.32827 1 4.99985 1.67157 4.99985 2.5ZM1.1098 6.09951C1.05093 5.51082 1.51321 5 2.10483 5H4.89486C5.48648 5 5.94876 5.51082 5.8899 6.0995L5.88871 6.11136L3.00007 9L5.3635 11.3634L4.99985 15H1.99985L1.1098 6.09951Z" fill="white"/>
</svg>
