<svg width="16" height="16" viewBox="0 0 16 16" fill="none" xmlns="http://www.w3.org/2000/svg">
<path fill-rule="evenodd" clip-rule="evenodd" d="M12.4422 9.13835C12.8008 8.33207 13 7.4393 13 6.5C13 2.91015 10.0899 0 6.5 0C2.91015 0 0 2.91015 0 6.5C0 10.0899 2.91015 13 6.5 13C7.4393 13 8.33207 12.8008 9.13835 12.4422L12.0119 15.3157C12.9242 16.2281 14.4034 16.2281 15.3157 15.3157C16.2281 14.4034 16.2281 12.9242 15.3157 12.0119L12.4422 9.13835Z" fill="black" fill-opacity="0.3"/>
<path fill-rule="evenodd" clip-rule="evenodd" d="M9.25899 11.259C8.44798 11.7302 7.5055 12 6.5 12C3.46243 12 1 9.53757 1 6.5C1 3.46243 3.46243 1 6.5 1C9.53757 1 12 3.46243 12 6.5C12 7.5055 11.7302 8.44798 11.259 9.25899L14.5 12.5C15.0523 13.0523 15.0523 13.9477 14.5 14.5C13.9477 15.0523 13.0523 15.0523 12.5 14.5L9.25899 11.259ZM10 6.5C10 8.433 8.433 10 6.5 10C4.567 10 3 8.433 3 6.5C3 4.567 4.567 3 6.5 3C8.433 3 10 4.567 10 6.5Z" fill="white"/>
</svg>
