<svg width="15" height="16" viewBox="0 0 15 16" fill="none" xmlns="http://www.w3.org/2000/svg">
<path fill-rule="evenodd" clip-rule="evenodd" d="M11.9999 8H14L14 2L7 2V0H5L0 5L3.00011 8.00011H1V14.0001H8V16.0001H10L15 11.0001L11.9999 8ZM8 8H7V8.00011H8V8Z" fill="black" fill-opacity="0.3"/>
<path fill-rule="evenodd" clip-rule="evenodd" d="M8 7.00012H6V9.00012L2 5.00012L6 1.00012L6 3.00012L8 3.00012H13V7.00012H11L8 4.00012V6.00012V7.00012ZM9 9.00012L9 7.00012L13 11.0001L9 15.0001L9 13.0001H7H2V9.00012H4L5 10.0001L7 12.0001V9.00012L9 9.00012Z" fill="white"/>
</svg>
