<svg width="16" height="16" viewBox="0 0 16 16" fill="none" xmlns="http://www.w3.org/2000/svg">
<g clip-path="url(#clip0_3453_32)">
<path d="M1.5 0H12.5L14 1.5V5.5L16 7.5V9.5L10.5 15L7 16H1.5L0 14.5V1.5L1.5 0Z" fill="black" fill-opacity="0.3"/>
<path d="M13 2V5.5L7 11.5L6 15H2L1 14V2L2 1H12L13 2ZM13.5 10.5L10 14L7 15L8 12L11.5 8.5L13.5 10.5ZM15 8V9L14 10L12 8L13 7H14L15 8ZM3 8H7V7H3V8ZM3 6H11V5H3V6ZM3 4H11V3H3V4Z" fill="white"/>
</g>
<defs>
<clipPath id="clip0_3453_32">
<rect width="16" height="16" fill="white"/>
</clipPath>
</defs>
</svg>
