<svg width="16" height="16" viewBox="0 0 16 16" fill="none" xmlns="http://www.w3.org/2000/svg">
<path d="M2 5H1V10H0V14H2V16H11L16 12.5V6L13 5V1H2V5Z" fill="black" fill-opacity="0.3"/>
<path d="M12.333 11.8672L13.4004 11.333V12.4004L11 14L8.59961 12.4004V11.333L9.66699 11.8672L11 10.2666L12.333 11.8672ZM11 9.7334L9.66699 11.333L7 10L8.59961 8.40039L11 9.7334ZM15 10L12.333 11.333L11 9.7334L13.4004 8.40039L15 10ZM11 7.33301L8.59961 8.40039L7 7.06641L9.66699 6L11 7.33301ZM15 7.06641L13.4004 8.40039L11 7.33301L12.333 6L15 7.06641Z" fill="white"/>
<path d="M10 2H12V5L11 6L10 5V2Z" fill="white"/>
<path d="M3 4L3 2L10 2L10 4L3 4Z" fill="white"/>
<path d="M3 2L5 2L5 6H6L4 8L2 6H3L3 2Z" fill="white"/>
<path d="M3 11H1V13H3V15H5V13H7V11H5V9H3V11Z" fill="white"/>
</svg>
