<svg width="16" height="16" viewBox="0 0 16 16" fill="none" xmlns="http://www.w3.org/2000/svg">
<g clip-path="url(#clip0_3548_3)">
<circle cx="8" cy="8" r="8" fill="black" fill-opacity="0.3"/>
<path d="M8 1C11.866 1 15 4.13401 15 8C15 11.866 11.866 15 8 15C4.13401 15 1 11.866 1 8C1 4.13401 4.13401 1 8 1ZM5.6084 12.3906C6.31896 12.7785 7.13345 13 8 13C10.7614 13 13 10.7614 13 8C13 7.13345 12.7785 6.31896 12.3906 5.6084L5.6084 12.3906ZM8 3C5.23858 3 3 5.23858 3 8C3 8.86608 3.22093 9.68034 3.6084 10.3906L10.3906 3.6084C9.68034 3.22093 8.86608 3 8 3Z" fill="white"/>
</g>
<defs>
<clipPath id="clip0_3548_3">
<rect width="16" height="16" fill="white"/>
</clipPath>
</defs>
</svg>
