<svg width="16" height="15" viewBox="0 0 16 15" fill="none" xmlns="http://www.w3.org/2000/svg">
<path fill-rule="evenodd" clip-rule="evenodd" d="M9 11V12.5C9 13.8807 7.88071 15 6.5 15C5.11929 15 4 13.8807 4 12.5V12L0 4V2H10.5L12.5 0H16V1L14.5 4H16V5L15 7H14L12.5 10C13.8807 10 15 11.1193 15 12.5C15 13.8807 13.8807 15 12.5 15C11.1193 15 10 13.8807 10 12.5V11H9Z" fill="black" fill-opacity="0.3"/>
<path fill-rule="evenodd" clip-rule="evenodd" d="M1 3H11L13 1H15L14.5 2H13.5L11.5 4H2L2.5 5H15L14.5 6H3L3.5 7H13L12.5 8H4L4.5 9H11L10.5 10H4L1 4V3ZM8 12.5C8 13.3284 7.32843 14 6.5 14C5.67157 14 5 13.3284 5 12.5C5 11.6716 5.67157 11 6.5 11C7.32843 11 8 11.6716 8 12.5ZM14 12.5C14 13.3284 13.3284 14 12.5 14C11.6716 14 11 13.3284 11 12.5C11 11.6716 11.6716 11 12.5 11C13.3284 11 14 11.6716 14 12.5Z" fill="white"/>
</svg>
