<svg width="15" height="14" viewBox="0 0 15 14" fill="none" xmlns="http://www.w3.org/2000/svg">
<path fill-rule="evenodd" clip-rule="evenodd" d="M1 9.49982V9L0 3V2H8L10 0H15V3H13L11 5L10.0864 9.56776C10.6442 10.0263 11 10.7216 11 11.5C11 12.8807 9.88071 14 8.5 14C7.11929 14 6 12.8807 6 11.5V10H5V11.5C5 12.8807 3.88071 14 2.5 14C1.11929 14 0 12.8807 0 11.5C0 10.6821 0.392777 9.95592 1 9.49982Z" fill="black" fill-opacity="0.3"/>
<path fill-rule="evenodd" clip-rule="evenodd" d="M2 9L1 3H9L11 1H14V2H12L10 4L9 9H2ZM4 11.5C4 12.3284 3.32843 13 2.5 13C1.67157 13 1 12.3284 1 11.5C1 10.6716 1.67157 10 2.5 10C3.32843 10 4 10.6716 4 11.5ZM10 11.5C10 12.3284 9.32843 13 8.5 13C7.67157 13 7 12.3284 7 11.5C7 10.6716 7.67157 10 8.5 10C9.32843 10 10 10.6716 10 11.5Z" fill="white"/>
</svg>
