<svg width="15" height="16" viewBox="0 0 15 16" fill="none" xmlns="http://www.w3.org/2000/svg">
<path fill-rule="evenodd" clip-rule="evenodd" d="M5.45927 4.05298C5.7978 3.62646 6 3.08684 6 2.5C6 1.11929 4.88071 0 3.5 0C2.11929 0 1 1.11929 1 2.5C1 3.08684 1.2022 3.62646 1.54073 4.05298C0.657526 4.26052 0 5.05347 0 6V7L1 16H6L6.44444 12H8V15H9L15 9L9 3H8L8 6H7C7 5.05347 6.34247 4.26052 5.45927 4.05298Z" fill="black" fill-opacity="0.3"/>
<path d="M9 7H4V11H9V13L13 9L9 5V7Z" fill="white"/>
<path fill-rule="evenodd" clip-rule="evenodd" d="M4.99985 2.5C4.99985 3.32843 4.32827 4 3.49985 4C2.67142 4 1.99985 3.32843 1.99985 2.5C1.99985 1.67157 2.67142 1 3.49985 1C4.32827 1 4.99985 1.67157 4.99985 2.5ZM1.1098 6.09951C1.05093 5.51082 1.51321 5 2.10483 5H4.89486C5.45287 5 5.89582 5.45442 5.89495 6H3.00007V12H5.29985L4.99985 15H1.99985L1.1098 6.09951Z" fill="white"/>
</svg>
