<svg width="16" height="16" viewBox="0 0 16 16" fill="none" xmlns="http://www.w3.org/2000/svg">
<path d="M8 0C12.4183 0 16 3.58172 16 8C16 9.11738 15.7692 10.1805 15.3555 11.1465C15.7578 11.657 16 12.2996 16 13C16 14.6569 14.6569 16 13 16C12.2996 16 11.657 15.7578 11.1465 15.3555C10.1805 15.7692 9.11738 16 8 16C3.58172 16 0 12.4183 0 8C0 6.88244 0.229673 5.81863 0.643555 4.85254C0.241785 4.34219 0 3.69991 0 3C0 1.34315 1.34315 0 3 0C3.69991 0 4.34219 0.241785 4.85254 0.643555C5.81863 0.229673 6.88244 0 8 0Z" fill="black" fill-opacity="0.3"/>
<circle cx="13" cy="13" r="2" fill="white"/>
<path d="M1.62027 6.66382L3.50015 8.99976L2.12906 9.22729C2.57822 11.3709 4.18702 13.19 6.44742 13.7957C7.69032 14.1286 8.94575 14.044 10.0675 13.6306C10.139 13.9647 10.268 14.2766 10.4406 14.5593C9.12475 15.0508 7.64916 15.1527 6.18863 14.7615C2.45437 13.7609 0.237841 9.92249 1.23843 6.18823L1.62027 6.66382ZM5.55777 1.43921C6.87405 0.947608 8.35085 0.846648 9.81168 1.23804C13.5458 2.23858 15.7621 6.07718 14.7619 9.81128L13.9445 8.79663V8.79468L12.5002 6.99976L13.8703 6.77124C13.421 4.62822 11.8128 2.8104 9.55289 2.20483C8.30994 1.87179 7.05386 1.95463 5.93179 2.36792C5.86008 2.03369 5.73066 1.72193 5.55777 1.43921Z" fill="white"/>
<circle cx="3.00003" cy="3" r="2" fill="white"/>
<path d="M9.78941 5.59309C9.81394 5.61134 9.83873 5.62914 9.86263 5.64809L11.2138 5.5673L11.7137 6.43323L10.9675 7.56175C10.972 7.59193 10.975 7.62229 10.9785 7.65267L11.9931 8.55237L11.7343 9.51829L10.406 9.78921C10.3878 9.81375 10.37 9.83853 10.351 9.86243L10.4327 11.2138L9.56682 11.7138L8.43735 10.9673C8.40718 10.9717 8.37682 10.9748 8.34644 10.9783L7.44768 11.9932L6.48176 11.7343L6.2099 10.4058C6.18537 10.3876 6.16057 10.3698 6.13668 10.3508L4.78624 10.4328L4.28629 9.56687L5.03182 8.43716C5.02736 8.40699 5.02433 8.37662 5.0208 8.34624L4.00688 7.44774L4.2657 6.48181L5.59328 6.2097C5.61154 6.18517 5.62934 6.16037 5.64829 6.13648L5.56724 4.7863L6.43318 4.28635L7.56195 5.03163C7.59211 5.02716 7.6225 5.02415 7.65286 5.0206L8.55231 4.00694L9.51824 4.26576L9.78941 5.59309ZM8.51763 6.0682C7.4507 5.78232 6.35403 6.41548 6.06815 7.48242C5.78226 8.54935 6.41543 9.64602 7.48236 9.93191C8.54929 10.2178 9.64596 9.58462 9.93185 8.51769C10.2177 7.45076 9.58457 6.35409 8.51763 6.0682Z" fill="white"/>
</svg>
