<svg width="14" height="14" viewBox="0 0 14 14" fill="none" xmlns="http://www.w3.org/2000/svg">
<path d="M10.5 6.5L14 10V12.5L12.5 14H10L6.5 10.5L6 12.5L4.5 14H1.5L0 12.5V9.5L1.5 8L3.5 7.5L4 7L1 4L0 1.5L1.5 0L4 1L7 4L8 3V1.5L9.5 0H12.5L14 1.5V4.5L12.5 6H11L10.5 6.5Z" fill="black" fill-opacity="0.3"/>
<path fill-rule="evenodd" clip-rule="evenodd" d="M1 1.5L1.5 1L3.5 2L4 3L8 7L8.5 6.5L9 7V8H10L13 11V12L12 13H11L8 10V9H7L6.5 8.5L7 8L3 4L2 3.5L1 1.5ZM2 9H3L4 8.5L5.24999 7.25001L6.00001 8.00002L5.50001 8.50002L6.24999 9.25001L5.5 10L5 11V12L4 13H2L1 12V10L2 9ZM8.00001 6.00002L7.24999 5.25001L9 3.5V2L10 1H11.5L10.5 2V3.5H12L13 2.5V4L12 5H10.5L9.24999 6.25001L8.50001 5.50002L8.00001 6.00002ZM3.5 10H2.5L2 10.5L2 11.5L2.5 12H3.5L4.00001 11.5L4 10.5L3.5 10Z" fill="white"/>
</svg>
