<?xml version="1.0" encoding="UTF-8" standalone="no"?>
<svg
   version="1.1"
   x="0px"
   y="0px"
   viewBox="0 0 512 100"
   xmlns:svg="http://www.w3.org/2000/svg">
   
<path
   class="st0"
   d="M 169.99636,86.164168 V 51.171599 h -8.29671 l -9.19954,14.79557 -9.19959,-14.79557 h -8.29671 v 34.992569 h 7.54956 v -22.69536 l 9.75215,14.795566 h 0.20234 l 9.85337,-14.943444 v 22.843238 z"
   id="path4"
   style="fill:#ffffff;fill-opacity:1;stroke-width:0.0778306" />
<path
   class="st0"
   d="m 205.05118,86.164168 v -6.849083 h -18.9984 v -7.34719 h 16.50005 v -6.849082 h -16.50005 v -7.098132 h 18.74935 v -6.849082 h -26.40009 v 34.992569 z"
   id="path6"
   style="fill:#ffffff;fill-opacity:1;stroke-width:0.0778306" />
<path
   class="st0"
   d="M 243.69404,81.214142 V 66.013863 h -15.20031 v 6.646718 h 7.75191 v 4.996715 c -1.95353,1.400947 -4.45191,2.10142 -7.246,2.10142 -6.20312,0 -10.60051,-4.700957 -10.60051,-11.098618 v -0.101175 c 0,-5.946247 4.45191,-10.896262 10.0479,-10.896262 4.04718,0 6.45215,1.299767 9.15288,3.549065 l 4.84884,-5.845062 c -3.65027,-3.097652 -7.4484,-4.802139 -13.75267,-4.802139 -10.60052,0 -18.35243,8.148845 -18.35243,18.095573 v 0.101179 c 0,10.343667 7.50286,17.994395 18.39914,17.994395 6.40544,0.0081 11.35545,-2.498359 14.95125,-5.54153 z"
   id="path8"
   style="fill:#ffffff;fill-opacity:1;stroke-width:0.0778306" />
<path
   class="st0"
   d="M 285.20102,86.164168 270.20304,50.922545 h -7.09813 L 248.107,86.164168 h 7.85307 l 3.19888,-7.845314 h 14.79553 l 3.19887,7.845314 z M 271.2071,71.516476 h -9.30077 l 4.6465,-11.347677 z"
   id="path10"
   style="fill:#ffffff;fill-opacity:1;stroke-width:0.0778306" />
<path
   class="st0"
   d="m 315.41479,75.812719 v -0.101181 c 0,-6.101906 -4.00048,-8.646961 -11.09867,-10.499326 -6.04742,-1.548826 -7.54951,-2.295996 -7.54951,-4.599777 v -0.10118 c 0,-1.696706 1.54879,-3.050953 4.49857,-3.050953 2.94978,0 6.00072,1.299767 9.09838,3.447889 l 4.00052,-5.798372 c -3.54909,-2.848594 -7.89984,-4.4519 -12.99773,-4.4519 -7.15258,0 -12.25047,4.195061 -12.25047,10.546025 v 0.10118 c 0,6.95026 4.55308,8.896015 11.5967,10.693899 5.85289,1.502128 7.05146,2.498359 7.05146,4.451904 v 0.101181 c 0,2.04693 -1.89906,3.300011 -5.05122,3.300011 -4.00048,0 -7.30047,-1.650011 -10.45259,-4.24954 l -4.55308,5.448124 c 4.20282,3.751432 9.54976,5.596007 14.85004,5.596007 7.55732,0.01554 12.8576,-3.883738 12.8576,-10.833991 z"
   id="path12"
   style="fill:#ffffff;fill-opacity:1;stroke-width:0.0778306" />
<path
   class="st0"
   d="m 352.85122,80.513678 -4.90331,-4.950022 c -2.74743,2.498356 -5.19911,4.101665 -9.19959,4.101665 -6.00071,0 -10.14907,-4.996714 -10.14907,-10.997438 v -0.101179 c 0,-6.000727 4.24953,-10.896262 10.14907,-10.896262 3.50239,0 6.24981,1.502127 8.9505,3.946003 l 4.89555,-5.650489 c -3.25329,-3.198832 -7.19931,-5.401431 -13.79934,-5.401431 -10.74838,0 -18.25124,8.148845 -18.25124,18.095573 v 0.101179 c 0,10.04791 7.65073,17.994395 17.94768,17.994395 6.75571,0.0081 10.75619,-2.397177 14.35975,-6.241994 z"
   id="path14"
   style="fill:#ffffff;fill-opacity:1;stroke-width:0.0778306" />
<path
   class="st0"
   d="M 393.11289,86.164168 378.11498,50.922545 h -7.09813 l -14.99792,35.241623 h 7.85308 l 3.19882,-7.845314 h 14.80338 l 3.19882,7.845314 z M 379.11122,71.516476 h -9.30076 l 4.65427,-11.347677 z"
   id="path16"
   style="fill:#ffffff;fill-opacity:1;stroke-width:0.0778306" />
<path
   class="st0"
   d="M 429.61539,86.164168 V 51.171599 h -7.59627 v 21.54347 l -16.39884,-21.54347 h -7.09819 v 34.992569 h 7.59629 V 63.920226 l 16.95143,22.243942 z"
   id="path18"
   style="fill:#ffffff;fill-opacity:1;stroke-width:0.0778306" />
<path
   class="st0"
   d="m 463.31594,75.812719 v -0.101181 c 0,-6.101906 -4.00048,-8.646961 -11.09861,-10.499326 -6.04742,-1.548826 -7.54956,-2.295996 -7.54956,-4.599777 v -0.10118 c 0,-1.696706 1.54884,-3.050953 4.49862,-3.050953 2.94978,0 6.00072,1.299767 9.09838,3.447889 l 4.00047,-5.798372 c -3.54904,-2.848594 -7.89979,-4.4519 -12.99768,-4.4519 -7.15258,0 -12.25053,4.195061 -12.25053,10.546025 v 0.10118 c 0,6.95026 4.55309,8.896015 11.59675,10.693899 5.85284,1.502128 7.05143,2.498359 7.05143,4.451904 v 0.101181 c 0,2.04693 -1.89902,3.300011 -5.05118,3.300011 -4.00048,0 -7.30048,-1.650011 -10.45264,-4.24954 l -4.55308,5.448124 c 4.20287,3.751432 9.54981,5.596007 14.85009,5.596007 7.55731,0.01554 12.85754,-3.883738 12.85754,-10.833991 z"
   id="path20"
   style="fill:#ffffff;fill-opacity:1;stroke-width:0.0778306" />
<path
   class="st0"
   d="m 169.89519,27.230959 c 0,-9.697676 -7.15263,-18.041098 -17.79981,-18.041098 -10.65502,0 -17.90103,8.452383 -17.90103,18.142277 0,9.697671 7.15264,18.041093 17.79986,18.041093 4.3507,0 8.10212,-1.447646 11.0519,-3.751425 l 4.5998,4.202843 2.70072,-2.949773 -4.65431,-3.844824 c 2.70073,-3.198831 4.20287,-7.401674 4.20287,-11.799093 z m -7.15263,9.199557 -6.45211,-5.845066 -2.65402,2.949774 6.49881,5.54931 c -2.14811,1.650005 -4.95001,2.654016 -8.04767,2.654016 -8.00095,0 -13.79932,-6.49884 -13.79932,-14.49981 0,-8.000971 5.6972,-14.398634 13.69816,-14.398634 8.00096,0 13.79933,6.498844 13.79933,14.499813 0.008,3.440105 -1.14412,6.638937 -3.04318,9.090597 z"
   id="path22"
   style="fill:#ffffff;fill-opacity:1;stroke-width:0.0778306" />
<path
   class="st0"
   d="m 193.43892,33.729797 c 0,4.848837 -3.34676,8.094369 -7.75196,8.094369 -4.54528,0 -7.15259,-2.996472 -7.15259,-7.798611 V 18.93423 h -3.8526 v 16.048641 c 0,6.1486 3.65026,10.343667 9.90003,10.343667 4.45191,0 7.09813,-2.249303 8.84932,-5.051198 v 4.506382 h 3.79813 V 18.942017 h -3.79033 z"
   id="path24"
   style="fill:#ffffff;fill-opacity:1;stroke-width:0.0778306" />
<path
   class="st0"
   d="m 207.58847,18.93423 h -3.8448 v 25.839709 h 3.8448 z"
   id="path26"
   style="fill:#ffffff;fill-opacity:1;stroke-width:0.0778306" />
<path
   class="st0"
   d="m 236.08997,18.93423 h -4.29624 l -7.65074,10.001215 -7.65073,-10.001215 h -4.40516 l 9.75214,12.694148 -10.14912,13.153344 h 4.29623 l 8.04772,-10.546027 8.00871,10.546027 h 4.45191 L 226.29111,31.53498 Z"
   id="path28"
   style="fill:#ffffff;fill-opacity:1;stroke-width:0.0778306" />
<path
   class="st0"
   d="m 249.29003,18.381638 c -7.15264,0 -12.39842,6.000726 -12.39842,13.495793 0,8.047671 5.79839,13.4958 12.90432,13.4958 4.9033,0 8.04767,-1.953539 10.65496,-4.848833 l -2.40496,-2.148123 c -2.10141,2.202603 -4.59975,3.65025 -8.14884,3.65025 -4.54528,0 -8.55356,-3.152133 -9.09836,-8.748141 h 20.50054 c 0.0469,-0.451418 0.0469,-0.848354 0.0469,-1.198592 -0.008,-7.596248 -4.4052,-13.698154 -12.05594,-13.698154 z m -8.4991,12.048147 c 0.49815,-5.051191 3.89931,-8.794839 8.39793,-8.794839 5.15235,0 7.84528,4.093886 8.25,8.794839 z"
   id="path30"
   style="fill:#ffffff;fill-opacity:1;stroke-width:0.0778306" />
<path
   class="st0"
   d="m 269.79057,8.287025 h -3.84485 v 36.494697 h 3.84485 z"
   id="path32"
   style="fill:#ffffff;fill-opacity:1;stroke-width:0.0778306" />
<path
   class="st0"
   d="m 205.6894,13.984218 c 1.5177,0 2.74743,-1.229725 2.74743,-2.747419 0,-1.517691 -1.22973,-2.747415 -2.74743,-2.747415 -1.51769,0 -2.74739,1.229724 -2.74739,2.747415 0,1.517694 1.2297,2.747419 2.74739,2.747419 z"
   id="path34"
   style="fill:#ffffff;fill-opacity:1;stroke-width:0.0778306" />
<rect
   x="1.0420408"
   class="st1"
   width="99.622971"
   height="99.622971"
   id="rect36"
   style="fill:#8bc24a;fill-opacity:1;stroke-width:0.0778306"
   y="-0.12644863" />
<path
   class="st0"
   d="m 19.721341,25.168453 v 49.033172 h 12.45287 V 36.843017 H 44.627083 V 55.522324 H 57.079954 V 36.843017 H 69.532825 V 74.201625 H 81.985696 V 31.005732 L 69.532825,25.168453 Z"
   id="path38"
   style="fill:#ffffff;fill-opacity:1;stroke-width:0.0778306" />
</svg>
