<?xml version="1.0" encoding="UTF-8"?>
<!DOCTYPE svg PUBLIC "-//W3C//DTD SVG 1.0//EN" "http://www.w3.org/TR/2001/REC-SVG-20010904/DTD/svg10.dtd">
<!-- Creator: CorelDRAW -->
<svg xmlns="http://www.w3.org/2000/svg" xml:space="preserve" width="100mm" height="100mm" version="1.0" shape-rendering="geometricPrecision" text-rendering="geometricPrecision" image-rendering="optimizeQuality" fill-rule="evenodd" clip-rule="evenodd"
viewBox="0 0 10000 10000"
 xmlns:xlink="http://www.w3.org/1999/xlink"
 xmlns:xodm="http://www.corel.com/coreldraw/odm/2003">
 <g id="layer_1">
  <metadata id="CorelCorpID_0Corel-Layer"/>
  <path fill="#c0c0c0" d="M4586.91 4259.33l-808.13 0 -642.69 12.4 -2216.68 6.12 -90.21 -65.91 -592.26 0 0 67.8 -115.11 0.32 0 225.29 927.57 2.57 0 39.71 -176.84 0 0 17.73 -711.98 0c-21.31,0 -38.75,17.43 -38.75,38.74l0 162.73c0,21.31 17.44,38.74 38.75,38.74l711.98 0 0 17.72 176.84 0 0 35.34 287.73 0 0 -56.02 178.94 0 0 5.92 68.13 68.12 1602.18 0 68.13 -68.12 0 -5.92 1332.4 0 0 9.33 119.26 0 150.82 -24.15c20.6,-3.31 38.4,-4.72 59.26,-4.72l674.75 0c70.94,10.84 126.69,68.56 133.32,142.17 7.7,85.55 92.65,157.36 180.13,157.36l218.24 0c92.57,0 176.65,-79.91 176.65,-172.48l0 -49.78c0,-34.5 22.29,-63.97 53.2,-74.74 271.28,13.52 646.35,92.45 786.37,489.18 17.63,49.95 92.92,56.12 138.46,29.03l227.74 -135.43c8.26,-4.9 14.57,-10.33 20.67,-17.74 24.47,-29.76 57.51,-38.11 97.6,-22.01l1905.85 765.41c69.86,28.05 133.82,42.74 207.86,48.22 23.87,1.77 45.12,-6.05 62.14,-22.88 17.04,-16.83 25.11,-37.98 23.62,-61.87 -24.96,-401.46 -33.08,-727.97 -16.01,-1134.27 1.47,-34.91 -18.6,-65.49 -51.22,-78.03 -64.85,-24.93 -126.33,-39.15 -201.12,-44.44l-2057.12 -145.42c-39.55,-2.79 -74.32,6 -107.8,27.25 -76.92,48.83 -164.19,85.1 -254.23,41.13 -402,-196.32 -734.09,-290.92 -1197.74,-290.92l-1350.7 0 0 26.52zm1492.51 523.74c15.41,39.33 20.84,95.67 -5.64,184.35 -4.27,14.31 10.45,31.55 27.09,7.98 31.02,-43.93 64.68,-113.1 59.91,-188.16 52.76,15.94 91.46,65.1 91.46,122.88l0 0c0,70.57 -57.74,128.31 -128.31,128.31l-220.72 0c-70.58,0 -128.31,-57.74 -128.31,-128.31l0 0c0,-64.5 48.22,-118.26 110.39,-127.05l194.13 0zm-1492.51 -214.75l-1332.4 0 0 -52.35 524.27 10.12 808.13 0 0 42.23zm-3070.84 0l-178.94 0 0 -59.61 178.94 0.5 0 59.11z"/>
 </g>
</svg>
