<?xml version="1.0" encoding="UTF-8"?>
<!DOCTYPE svg PUBLIC "-//W3C//DTD SVG 1.0//EN" "http://www.w3.org/TR/2001/REC-SVG-20010904/DTD/svg10.dtd">
<!-- Creator: CorelDRAW -->
<svg xmlns="http://www.w3.org/2000/svg" xml:space="preserve" width="100mm" height="100mm" version="1.0" shape-rendering="geometricPrecision" text-rendering="geometricPrecision" image-rendering="optimizeQuality" fill-rule="evenodd" clip-rule="evenodd"
viewBox="0 0 10000 10000"
 xmlns:xlink="http://www.w3.org/1999/xlink"
 xmlns:xodm="http://www.corel.com/coreldraw/odm/2003">
 <g id="layer_1">
  <metadata id="CorelCorpID_0Corel-Layer"/>
  <path fill="#c0c0c0" d="M4102.45 1857.15l1348.33 0 0 93.35 331.11 0c21.83,0 42.51,4.33 61.21,12.45 -34.08,-122.37 -55.37,-236.44 -63.26,-334.66 -17.08,-212.61 32.55,-368.59 152.92,-417.53 120.16,-48.85 264.53,28.4 400.78,192.77 110.38,133.16 225.35,330.31 318.66,559.85 93.28,229.45 148.49,450.91 162.35,623.43 11.22,139.76 -6.38,255.05 -53.94,331.55l261.96 114.41c70.39,40.64 153.87,54.63 198.26,251.32 327.5,1451.24 278.53,2943.4 -16.29,4405.89 -12.21,61.04 -71.6,100.63 -132.64,88.42 -61.04,-12.21 -62.9,3.85 -50.69,-57.18 236.61,-1173.79 175.44,-3116.64 -87.01,-4299.38 -11.31,-50.98 -41.62,-91.61 -89.97,-111.36l-719.7 -293.91 0 253.93 93.6 0c146.25,0 266.75,102 296.46,245.15l224.78 1082.91 0 2096.77 -224.78 1082.91c-29.71,143.15 -150.25,245.16 -296.46,245.16l-192.71 0 0 254.85 -2058.44 0 0 -254.85 -192.7 0c-146.21,0 -266.75,-101.96 -296.46,-245.16l-224.78 -1082.91 0 -2096.77 224.78 -1082.91c29.72,-143.2 150.21,-245.15 296.46,-245.15l672.01 0 0 -365.86 -117.47 0 -377.29 -410.56 0 -486.01c0,-83.13 67.79,-150.92 150.92,-150.92zm2045.47 300.15c17.6,-5.02 36.19,-7.7 55.4,-7.7 111.47,0 201.84,90.36 201.84,201.84 0,65.73 -31.43,124.11 -80.06,160.97 36.61,59.08 73.66,111.25 109.96,155.04 70.82,85.45 123.66,134.64 141.69,127.31 17.8,-7.23 21.21,-79.42 12.32,-190.26 -12.12,-150.9 -61.9,-348.25 -146.44,-556.21 -84.51,-207.88 -186.6,-383.97 -283.29,-500.62 -70.83,-85.46 -123.67,-134.65 -141.69,-127.33 -17.83,7.24 -21.23,79.43 -12.33,190.27 11.93,148.6 60.39,342.23 142.6,546.69z"/>
 </g>
</svg>
