<?xml version="1.0" encoding="UTF-8"?>
<!DOCTYPE svg PUBLIC "-//W3C//DTD SVG 1.0//EN" "http://www.w3.org/TR/2001/REC-SVG-20010904/DTD/svg10.dtd">
<!-- Creator: CorelDRAW -->
<svg xmlns="http://www.w3.org/2000/svg" xml:space="preserve" width="100mm" height="100mm" version="1.0" shape-rendering="geometricPrecision" text-rendering="geometricPrecision" image-rendering="optimizeQuality" fill-rule="evenodd" clip-rule="evenodd"
viewBox="0 0 10000 10000"
 xmlns:xlink="http://www.w3.org/1999/xlink"
 xmlns:xodm="http://www.corel.com/coreldraw/odm/2003">
 <g id="layer_1">
  <metadata id="CorelCorpID_0Corel-Layer"/>
  <path fill="#c0c0c0" d="M7553.2 4893.91l-107.48 173.69c-123.2,27.06 -191.79,118.15 -138.87,244.73 22.73,54.35 151.42,268.55 212.27,504.24 11.9,46.1 -12.44,93.25 -56.92,110.24l-110.78 42.32c-23.29,8.9 -44.68,12.66 -69.61,12.24l-232.6 -3.95c-23.32,-0.39 -43.2,-11.09 -56.4,-30.33 -13.19,-19.23 -15.99,-41.64 -7.96,-63.54 13.12,-35.73 16.93,-67.84 7.01,-108.77l-74.47 -307.32c-8.1,-33.43 -23.85,-60.77 -52.59,-79.68 -28.74,-18.91 -59.66,-17.22 -93.98,-16.77 -90.81,1.2 -246.35,3.47 -395.06,4.55l0 163.06 -32.82 0 0 798.54c0,30.29 -24.79,55.08 -55.08,55.08l-885.89 0c-30.29,0 -55.07,-24.79 -55.07,-55.08l0 -798.54 -40.51 0 0 -346.08 40.51 0 0 -53.12c0,-28.98 22.67,-52.91 51.15,-54.94l-3.06 -94.48 -140.67 0c-2.05,0.16 -4.11,0.23 -6.2,0.23l-381.87 0c-45,0 -81.82,-36.82 -81.82,-81.82l0 -33.11 -583.68 0 0 33.11c0,45 -36.83,81.82 -81.83,81.82l-381.87 0c-45.01,0 -81.83,-36.82 -81.83,-81.82l0 -123.48 -131.58 0 0 95.86 0 58.23c0,57.59 -30.22,108.46 -75.58,137.55l0 78.72 31.78 0 0 63.11 -31.78 0 0 66.99 -34.7 0 0 93.9 42.45 0c13.94,0 25.34,11.41 25.34,25.34l0 977.12c0,13.94 -11.4,25.35 -25.34,25.35l-14.62 0 0 54.87 28.49 0 0 50.82 -23.27 150.55 -195.42 -139.64 0 -61.73 28.49 0 0 -54.87 -14.62 0c-13.94,0 -25.34,-11.41 -25.34,-25.35l0 -977.12c0,-13.93 11.4,-25.34 25.34,-25.34l42.45 0 0 -93.9 -34.01 0 0 -21.1 -104.77 0 0 -154.9 104.77 0 0 -32.37c-45.74,-29.02 -76.27,-80.12 -76.27,-138l0 -165.22 80.85 0 0 -62.5 -720.49 0 0 52.35 -574.96 0 0 -29.87 -46.27 0 0 22.47 -179.69 0 0 -251.5 179.69 0 0 22.47 46.27 0 0 -43.48 -601.49 0 0 -12.74 -502.79 0 0 38.66 -427.64 0 0 -25.35 -27.37 0 0 25.35 -160.26 0 -83.79 -37.24 0 -167.19 83.79 -37.24 160.26 0 0 25.35 27.37 0 0 -25.35 427.64 0 0 38.67 502.79 0 0 -12.75 601.49 0 0 -49.54 21.07 0 15.45 -76.34 35.28 0 0 -89.1 46.54 -166.02 167.3 0 62.63 255.12 92.39 0 15.44 76.34 118.86 0 0 31.3 806.68 0 0 -41.98 1281.4 0 0 -19.79 -98.91 0c-21.03,0 -41.15,-4.22 -59.55,-11.85 -19.1,-7.93 -36.29,-19.53 -50.65,-33.88 -14.35,-14.36 -25.95,-31.54 -33.87,-50.64 -7.64,-18.4 -11.86,-38.52 -11.86,-59.56l0 -250.11c0,-21.03 4.22,-41.16 11.86,-59.56 7.93,-19.1 19.52,-36.28 33.87,-50.63 14.36,-14.36 31.54,-25.95 50.65,-33.88 18.4,-7.64 38.52,-11.86 59.55,-11.86l50.35 0 0 -14.49c0,-19.39 15.85,-35.24 35.24,-35.24l944.9 0c19.38,0 35.24,15.85 35.24,35.24l0 141.81c0,19.38 -15.86,35.24 -35.24,35.24l-944.9 0c-19.39,0 -35.24,-15.86 -35.24,-35.24l0 -24.92 -50.35 0c-7.24,0 -14.13,1.45 -20.39,4.05 -6.51,2.71 -12.42,6.71 -17.4,11.69 -4.98,4.98 -8.99,10.89 -11.69,17.4 -2.61,6.26 -4.05,13.15 -4.05,20.39l0 250.11c0,7.25 1.44,14.14 4.05,20.4 2.7,6.51 6.71,12.41 11.69,17.39 4.98,4.99 10.89,8.99 17.4,11.7 6.26,2.6 13.15,4.04 20.39,4.04l98.91 0 0 -28.83 74.19 0 0 28.83 562.19 0 0 -28.83 104.54 0 0 -21.56c0,-17.95 14.68,-32.64 32.64,-32.64l937.81 0c17.96,0 32.64,14.69 32.64,32.64l0 26.98 394.24 0c25.64,0 47.7,9.14 65.83,27.27l85.77 85.76c18.12,18.13 40.19,27.27 65.82,27.27l83.58 0 29.63 -55.57 -34.97 0 0 -41.12 -28.46 0 0 -75.9 28.46 0 0 -58.51 274.15 0 349.03 -103.45 0 0.01c8.99,-2.66 18.51,-4.1 28.36,-4.1 55.02,0 99.63,44.6 99.63,99.63 0,2.66 -0.11,5.3 -0.31,7.91l0.31 0 0 175.53 -17.43 0 23.81 55.57 175.9 0 0 145.67 31.97 0 0 -30.74c0,-25.65 20.92,-46.57 46.57,-46.57l1309.45 0c25.65,0 46.57,20.92 46.57,46.57l0 3.88 217.03 0 -1.17 38.36 70.92 0c65.16,0 90.82,57.87 80,122.12 -59.17,351.48 -65.23,677.54 -3.15,917.87 14.31,55.43 5.42,116.25 -50.76,127.28l-307.07 60.28c-60.64,11.91 -116.69,2.27 -169.88,-29.19l-1181.4 -699.01c-36.4,-21.54 -57.11,-57.86 -57.11,-100.15l0 -62.47 -31.97 0 0 38.52 -194.26 0 0 133.1 -265.37 0zm1773.23 108.08l-226.42 -60.3c-39.21,-10.44 -73.84,-14.97 -114.4,-14.97l-42.27 0c-25.64,0 -46.55,-20.91 -46.55,-46.55l0 -38.47 -132.38 0c-51.27,0 -93.09,41.82 -93.09,93.1l0 74.02c0,33.37 16.08,62.04 44.55,79.44l320.25 195.68c15.28,9.34 30.64,13.66 48.54,13.66l262.33 0c51.27,0 93.09,-41.82 93.09,-93.09l0 -269.71c0,-37.45 -22.3,-69.85 -54.3,-84.6l0 106.38c0,31.11 -30,53.22 -59.35,45.41zm-6178.34 -500.01l0 47.73 -590.7 0 0 -47.73 590.7 0zm3522.8 524.48c18.76,44.17 26.51,108.16 -4.25,211.16 -4.77,16 11.69,35.27 30.29,8.91 33.68,-47.71 70.17,-122.03 67.35,-203.16 43.4,23.68 73.02,69.78 73.02,122.45l0 0.01c0,76.64 -62.71,139.36 -139.36,139.36l-155.34 0c-76.64,0 -139.36,-62.71 -139.36,-139.36l0 -0.01c0,-76.64 62.71,-139.36 139.36,-139.36l128.29 0zm-1951.23 -812.56l0 19.79 134.4 0 48.12 -19.79 -182.52 0z"/>
 </g>
</svg>
