<?xml version="1.0" encoding="UTF-8"?>
<!DOCTYPE svg PUBLIC "-//W3C//DTD SVG 1.0//EN" "http://www.w3.org/TR/2001/REC-SVG-20010904/DTD/svg10.dtd">
<!-- Creator: CorelDRAW -->
<svg xmlns="http://www.w3.org/2000/svg" xml:space="preserve" width="100mm" height="100mm" version="1.0" shape-rendering="geometricPrecision" text-rendering="geometricPrecision" image-rendering="optimizeQuality" fill-rule="evenodd" clip-rule="evenodd"
viewBox="0 0 10000 10000"
 xmlns:xlink="http://www.w3.org/1999/xlink"
 xmlns:xodm="http://www.corel.com/coreldraw/odm/2003">
 <g id="layer_1">
  <metadata id="CorelCorpID_0Corel-Layer"/>
  <path fill="#c0c0c0" d="M1228.86 4250.35l448.3 0 0 -21.11 399.17 0 0 -45.76 50.77 0 0 -174.48 31.23 -141.27 170.93 0 0 300.32 3512.57 0 0 -112.78 0 -4.08 0.15 0c2.09,-29.6 26.76,-52.97 56.9,-52.97 22.17,0 41.38,12.64 50.82,31.1l416.62 -25.86 -1.95 -27.1 210.38 -15.12 2.1 29.16 82.49 -5.12 16.68 -72.29 133.41 0 0 138.2 93 0 0 116.86 0 32.57 88.8 0c68.37,0 127.2,26.7 172.22,78.15l64.75 73.99 2160.76 0c53.62,0 99.41,6.87 150.68,22.57l143.89 44.1c45.91,14.07 75.33,56.38 72.54,104.31l-66.3 1139.48c-3.17,54.46 -48.13,96.88 -102.68,96.88l-243.69 0c-76.12,0 -141.47,-38.09 -178.98,-104.32l-193.17 -341.03c-9.54,-16.86 -26.36,-26.44 -45.73,-26.07 -36.33,0.69 -61.35,1.24 -64.57,1.63 -42.57,5.2 -84.12,-15.48 -105.67,-52.8l-200.95 -347.24c-9.45,-16.33 -25.65,-25.67 -44.51,-25.67l-1128.97 0c-373.74,0 -296.42,250.17 -186.39,347.63 186.31,165.03 369.07,394.31 518.73,680.48l-578.46 310.13 -62.01 -109.11c1.57,-54.72 36.43,-86.61 -9.09,-168.62l-209.92 -378.2c-70.63,-127.26 -170.63,-106.44 -263.84,-105.21 -80.24,1.06 -368.46,1.81 -680.6,2.28l2.53 173.44 -83.52 15.3 -44.37 -188.57 -26.71 0.04 0 0 -0.02 0c-48.68,530.42 -180.75,1109.82 -360.37,1680.45l-846.38 -281.28c132.37,-385.16 262.49,-916.01 314.36,-1431.99l-99.79 -11.98 18.07 -290.09 -343.47 0 -32.21 32.2 -2006.12 0 -72.01 -72.02 0 -150.56 -128.13 0 -124.8 0 0 -103.63 -317.07 0 0 16.01 -57.61 0 0 -46.77 -75.13 -23.45 0 -98.21 75.13 -23.46 0 -46.76 43.47 0 0 -65.66c0,-26.92 -21.96,-48.88 -48.88,-48.88l-19.08 0 0 -21.12 -448.3 0 -45.78 41.34 -301.38 0 -672.62 -30.85 0 -227.61 672.62 -30.85 301.38 0 45.78 41.33zm5177.86 809.36c22.96,48.99 34.19,120.96 -1.49,240.46 -5.28,17.67 12.91,38.97 33.46,9.84 39.79,-56.35 83.12,-146.33 73.11,-243.17 62.29,19.75 107.75,78.24 107.75,146.83l0 0c0,84.68 -69.29,153.97 -153.97,153.97l-274.46 0c-84.68,0 -153.96,-69.29 -153.96,-153.97l0 0c0,-84.68 69.28,-153.96 153.96,-153.96l215.6 0zm2467.37 109.36l-0.07 0.03 -144.28 -249.89c-20.28,-34.58 -71.45,-3.31 -52.04,30.31l144.17 249.72c19.74,34.2 71.82,4.14 52.22,-30.17zm-6797.76 -690.96l-95.45 0c-26.93,0 -48.88,21.96 -48.88,48.88l0 32.78c0,26.92 21.95,48.88 48.88,48.88l95.45 0 0 -130.54z"/>
 </g>
</svg>
