<?xml version="1.0" encoding="UTF-8"?>
<!DOCTYPE svg PUBLIC "-//W3C//DTD SVG 1.0//EN" "http://www.w3.org/TR/2001/REC-SVG-20010904/DTD/svg10.dtd">
<!-- Creator: CorelDRAW -->
<svg xmlns="http://www.w3.org/2000/svg" xml:space="preserve" width="100mm" height="100mm" version="1.0" shape-rendering="geometricPrecision" text-rendering="geometricPrecision" image-rendering="optimizeQuality" fill-rule="evenodd" clip-rule="evenodd"
viewBox="0 0 10000 10000"
 xmlns:xlink="http://www.w3.org/1999/xlink"
 xmlns:xodm="http://www.corel.com/coreldraw/odm/2003">
 <g id="layer_1">
  <metadata id="CorelCorpID_0Corel-Layer"/>
  <path fill="#c0c0c0" d="M1598.42 3066.35l127.12 0 153.33 -148.63 361.78 0 16.13 148.63 4568.08 0 0 -89.57 530.56 -111.45 309.57 0 0 201.02 106.22 0c49.91,71.44 92.8,144.99 129.65,220.35l50.16 -10.72 177.54 -37.57 0 0.01c11.82,-2.51 24.09,-3.83 36.65,-3.83 97.32,0 176.21,78.89 176.21,176.21 0,64.67 -34.84,121.19 -86.78,151.84l0.01 0.01c-80.09,59.2 -143.31,126.75 -196.03,203.71 10.26,51.66 18.87,103.81 26.08,156.38 17.11,124.92 144.69,222.95 259.84,246.38 114.78,23.35 109.91,199.85 -8.26,213.55 -148.82,17.23 -356.6,37.19 -471.38,113.12 -175.4,116.03 -271.59,458.57 -77.65,758.42 152.91,236.41 318.72,700.59 381.12,1020.39 44.28,227 116.8,486.85 74.86,870.59l-296.35 88.83 -16.41 142.17 -1421.58 0 0 -115.5c59.42,-134.22 83.51,-242.38 47.54,-387.93l-309.93 -1254.21c-24.44,-98.93 -70.64,-180.02 -155.77,-236.05 -85.14,-56.02 -181.22,-79.54 -278.41,-49.67l-355.5 109.29c-26.12,8.02 -50.39,8.9 -77.73,8.81l-987.23 -3.13c-40.1,-0.12 -74.71,-17.44 -98.84,-49.58 -24.13,-32.13 -31.14,-70.11 -20.06,-108.74l5.57 -19.4c28.87,-100.69 29.28,-119.19 28.52,-223.93l-2.58 -353.95c-0.9,-124.18 -103.42,-224.3 -227.49,-224.3l-1659.17 0c-41.8,0 -75.9,-34.1 -75.9,-75.9l0 -70.97 -743.49 0 0 -534.35 -77.47 0 0 -603.63 77.47 0 0 -116.7zm3770.49 1381.19c48.31,129.81 63.47,314.53 -22.18,601.39 -14.15,47.4 34.61,104.49 89.73,26.41 103.36,-146.4 215.61,-377.41 198.12,-627.8 150.92,0.29 278.2,100.32 314.14,246.96l14.67 59.86c41.91,171.02 -60.84,344.64 -230.91,390.21l-318.94 85.46c-28.74,7.7 -54.13,11.04 -83.88,11.04l-549.99 0c-140.53,0 -255.16,-114.62 -255.16,-255.16l0 -283.21c0,-140.54 114.63,-255.16 255.16,-255.16l589.24 0z"/>
 </g>
</svg>
