<?xml version="1.0" encoding="UTF-8"?>
<!DOCTYPE svg PUBLIC "-//W3C//DTD SVG 1.0//EN" "http://www.w3.org/TR/2001/REC-SVG-20010904/DTD/svg10.dtd">
<!-- Creator: CorelDRAW -->
<svg xmlns="http://www.w3.org/2000/svg" xml:space="preserve" width="100mm" height="100mm" version="1.0" shape-rendering="geometricPrecision" text-rendering="geometricPrecision" image-rendering="optimizeQuality" fill-rule="evenodd" clip-rule="evenodd"
viewBox="0 0 10000 10000"
 xmlns:xlink="http://www.w3.org/1999/xlink"
 xmlns:xodm="http://www.corel.com/coreldraw/odm/2003">
 <g id="layer_1">
  <metadata id="CorelCorpID_0Corel-Layer"/>
  <path fill="#c0c0c0" d="M4658.19 3898.19l406.9 0 0 -77.58 -406.9 0 0 77.58zm-3868.71 2840.91l62.99 79.64 0 290.06c0,43.16 35.23,78.37 78.38,78.37l1924.75 0c50.37,0 93.5,8.71 139.92,28.27l92.27 38.87c25.23,10.63 48.65,15.37 76.03,15.37l371.34 0c43.15,0 78.37,-35.22 78.37,-78.38l0 -692.52c0,-21.57 -17.59,-39.17 -39.17,-39.17l-3.96 0 0 -1030.89 154.52 0 0 -179.56 805.44 -4.17c57.76,-0.29 109.81,-3.61 158.17,28.22 48.36,31.83 74.87,77.84 88.5,134.1l144.49 596.24c20.05,82.78 6.75,144.14 -27.01,220.39l13.83 122.74 913.05 -210.51c21.15,-488.53 -185.81,-742.38 -356.7,-1151.04 -53.99,-129.13 -82.63,-267.4 23.14,-476.24l0 -391.68 -70.56 -219.02 -76.63 0 0 -77.58 444.26 0 0 -39.84 2155.31 0c43.17,0 78.38,35.21 78.38,78.38l0 117.8c0,19.48 6.19,36.22 18.87,51.01l756.42 882.39 18.4 218.52 202.92 137.89 47.67 244.76 159.02 0c58.52,0 108.87,-20.89 150.21,-62.31 41.34,-41.41 62.13,-91.81 62.02,-150.32 -1.07,-568.93 -19.42,-1126.32 83.8,-1764.76 10.28,-63.59 -6.15,-122.4 -47.9,-171.45 -41.76,-49.04 -97.2,-74.66 -161.61,-74.66l-274.16 0 -304.9 76.47 -2.49 103.74 -2941.96 0 0 -39.83 -444.26 0 0 -38.65 -275.55 0 0 38.65 -1340.17 0 0 -38.65 -197.44 0 0 -45.18 162.57 0 1.87 -144.93c0.24,-18.21 -11.58,-33.75 -29.19,-38.38l-135.25 -35.59 0 -2.14c0,-16.93 -10.22,-31.34 -26.19,-36.95l-85.01 -29.86c-4.38,-1.54 -8.35,-2.21 -12.98,-2.21l-169.01 0c-16.43,0 -30.57,10.22 -36.36,24.63l-2204.43 45.95 0 65.75c0,4.42 0.72,8.67 2.08,12.64l-86.35 87.19 0 99.08 -19.58 0 0 346.74 0 122.77 0 1204.38 -116 0 0 233.08 116 0 0 1162.94c-20.66,1.04 -37.18,18.21 -37.18,39.12l0 63.83 -62.99 0 0 176.49zm2563.96 -757.53l-74.55 0 0 425.8 -388.61 0 0 -36.21 -63.17 0 -82.32 -24.55c-38.14,-11.37 -72.12,-16.33 -111.92,-16.33l-156.39 0 0 -20.44 -1210.94 0c-20.36,0 -37.86,6.8 -52.88,20.53l-5.7 5.2 -32.11 0 0 71.8 -112.67 0 0 52.24 2062.08 0 229.18 0 0 -478.04zm-74.55 -1602.78l70.62 0 2.24 -475.39 -156.62 0 0 -82.79 -1642.68 0 -270.82 38.65 -219.45 0 0 93.73 112.67 0 0 71.79 32.11 0 5.7 5.21c15.02,13.73 32.52,20.53 52.88,20.53l1210.94 0 0 -20.44 156.39 0c39.8,0 73.78,-4.96 111.92,-16.33l82.32 -24.55 63.17 0 0 -36.21 388.61 0 0 425.8zm866.97 286.35c41.63,74.81 67.97,187.37 8.36,387.02 -8.04,26.93 19.66,59.37 50.97,15 64.92,-91.95 136.01,-242.64 106.85,-402.02l95.67 0c129,0 234.54,105.54 234.54,234.53l0 0.01c0,128.99 -105.54,234.54 -234.54,234.54l-418.1 0c-128.99,0 -234.53,-105.55 -234.53,-234.54l0 -0.01c0,-128.99 105.54,-234.53 234.53,-234.53l156.25 0zm-950.73 -1275.39l0 -45.18 -274.71 0 -1639.67 -99.45 0 144.63 0.88 0 270.82 38.65 1642.68 0 0 -38.65zm5042.88 514.72l282.45 328.78c15.52,18.07 13.45,45.47 -4.62,60.99l-15.36 13.2c-18.07,15.52 -45.47,13.44 -61,-4.62l-282.44 -328.78c-15.53,-18.08 -13.45,-45.47 4.62,-61l15.36 -13.2c18.07,-15.52 45.47,-13.44 60.99,4.63z"/>
 </g>
</svg>
