<?xml version="1.0" encoding="UTF-8"?>
<!DOCTYPE svg PUBLIC "-//W3C//DTD SVG 1.0//EN" "http://www.w3.org/TR/2001/REC-SVG-20010904/DTD/svg10.dtd">
<!-- Creator: CorelDRAW -->
<svg xmlns="http://www.w3.org/2000/svg" xml:space="preserve" width="100mm" height="100mm" version="1.0" shape-rendering="geometricPrecision" text-rendering="geometricPrecision" image-rendering="optimizeQuality" fill-rule="evenodd" clip-rule="evenodd"
viewBox="0 0 10000 10000"
 xmlns:xlink="http://www.w3.org/1999/xlink"
 xmlns:xodm="http://www.corel.com/coreldraw/odm/2003">
 <g id="layer_1">
  <metadata id="CorelCorpID_0Corel-Layer"/>
  <path id="smg" fill="#c0c0c0" d="M6057.02 4480.72c-284.67,0 -418.01,164.91 -317.77,404.6 161.02,385.05 356,624.22 336.08,1084.51l-860.27 198.34 -13.04 -115.64c31.81,-71.85 44.35,-129.66 25.45,-207.65l-136.14 -561.78c-12.84,-53.02 -37.81,-96.36 -83.38,-126.35 -45.57,-29.99 -94.61,-27.31 -149.03,-26.59 -164.41,2.17 -462.55,4.23 -725.68,5.25l-199.11 119.1 -165.57 -19.37 -298.96 2350.34 -66.85 -8.51 -199.73 -25.4 -292.88 -37.25 -82.98 -10.56 7.87 -67.32 94.65 -75.75 278.7 -2191.07 -196.61 -23 2.92 -96.2 7.55 -15.11c32.52,-65.03 29.14,-136.55 -9.35,-198.23 -38.49,-61.68 -101.25,-96.14 -173.95,-95.51l-489.84 4.25c-86.46,0.75 -160.17,-2.44 -246.25,-10.66l-655.96 -62.66c-126.5,-12.08 -172.87,44.01 -256.58,122.33l-119.54 0 0 -314.11 0 -71.91 -128.61 0 0 -50.61 -270.56 0 0 -314.21 270.56 0 0 -50.62 128.61 0 0 -12.92 0 -135.48 0 -224.63 62.52 -170.89 237.58 0 0 292.36 3716.76 0 68.57 -174.79c32.81,-83.66 78.14,-107.72 168,-107.72l532.15 0c68.26,0 123.92,55.69 123.92,123.92l0 158.59 239.39 0c82.74,0 153.52,45.46 187.93,120.7l39.54 86.43 94.07 0 12.1 31.25 2276.61 0 332.99 0 142.67 0c50.84,0 94.6,20.22 127.55,58.93 32.96,38.71 45.92,85.14 37.81,135.32 -81.46,503.9 -66.99,943.85 -66.14,1392.87 0.08,46.19 -16.32,85.97 -48.95,118.65 -32.63,32.68 -72.39,49.18 -118.56,49.18l-21.27 0 0 1.24 -329.37 0c-73.54,0 -142.81,-8.53 -210.38,-26.74 -67.29,-18.14 -131.96,-45.95 -196.53,-84.57l-1789.25 -1070.38c-42.94,-25.69 -86.04,-44.21 -130.94,-56.31 -44.63,-12.03 -92.02,-17.66 -143.78,-17.66l-176.51 0 -182.23 0zm2801.36 916.83l-16.8 -836.36c-0.76,-38.14 -31.99,-68.75 -70.14,-68.75l-450.51 0c-60.23,0 -123.11,-29.21 -147.52,-84.22l-13.13 -29.59c-24.41,-55 -79.91,-84.23 -140.13,-84.23l-1009.24 0c-32.01,0 -59.1,20.62 -67.62,51.47 -8.52,30.86 4.14,62.46 31.61,78.89l1637.03 979.32c42.93,25.69 86.03,44.2 130.93,56.31 10.44,2.81 21.04,5.28 31.8,7.4 21.55,4.25 41.84,-0.97 58.67,-15.08 16.83,-14.12 25.5,-33.2 25.05,-55.16zm-505.31 -1103.15l369.82 0c20.33,0 36.91,16.59 36.91,36.9l0 17.28c0,20.32 -16.59,36.91 -36.91,36.91l-369.82 0c-20.32,0 -36.9,-16.58 -36.9,-36.91l0 -17.28c0,-20.32 16.58,-36.9 36.9,-36.9zm-3755.01 289.42c30.92,70.16 44.57,172.32 -5.09,338.62 -7.57,25.37 18.53,55.93 48.03,14.13 57.62,-81.61 120.39,-212.32 104.52,-352.72 120.55,1.17 218.82,100.13 218.82,220.95l0 0c0,121.54 -99.44,220.99 -220.98,220.99l-393.94 0c-121.54,0 -220.98,-99.45 -220.98,-220.99l0 0c0,-121.54 99.44,-220.98 220.98,-220.98l248.64 0z"/>
 </g>
</svg>
