<?xml version="1.0" encoding="UTF-8"?>
<!DOCTYPE svg PUBLIC "-//W3C//DTD SVG 1.0//EN" "http://www.w3.org/TR/2001/REC-SVG-20010904/DTD/svg10.dtd">
<!-- Creator: CorelDRAW -->
<svg xmlns="http://www.w3.org/2000/svg" xml:space="preserve" width="100mm" height="100mm" version="1.0" shape-rendering="geometricPrecision" text-rendering="geometricPrecision" image-rendering="optimizeQuality" fill-rule="evenodd" clip-rule="evenodd"
viewBox="0 0 10000 10000"
 xmlns:xlink="http://www.w3.org/1999/xlink"
 xmlns:xodm="http://www.corel.com/coreldraw/odm/2003">
 <g id="layer_1">
  <metadata id="CorelCorpID_0Corel-Layer"/>
  <path fill="#c0c0c0" d="M3747.84 4916.09l0 33.34 -31.68 31.68 -244.47 0 0 46.08 104.96 0 0 -29.78 73.76 0 0 229.77 -73.76 0 0 -29.78 -120.56 0 0 43.97 -51.73 0 0 83.66 -94.89 0c-55.79,0 -104.21,-31.47 -128.52,-77.62l-765.1 0 0 17.18 -130.34 0 0 -17.18 0 -9.71 -69.89 0 0 48.68 -203.29 0 0 39.78c-10.31,0 -20.62,0 -30.94,0l-79.19 -107.7 0 -57 79.19 -107.7c10.32,0 20.63,0 30.94,0l0 39.78 203.29 0 0 48.68 69.89 0 0 -9.71 0 -17.18 0 -31.74 80.22 0 0 31.74 50.12 0 0 17.18 748.44 0 0 -42.31 66.28 0 0 -41.73 -158.55 0c-24.35,0 -44.28,-19.92 -44.28,-44.28l0 -64.93 23.07 0 0 -23.17 -42.6 0 -144.54 -30.32 0 -70.36 -936.82 -8.37 0 72.77 -1742.83 0 -55.44 -23.76 0 -261.91 55.44 -23.76 1742.83 0 0 72.77 936.82 -8.37 0 -46.22 84.91 -102.31 3098.86 0 0 -5.1c0,-33.54 -23.25,-61.7 -56.19,-68.04l-167.02 -32.17 0 -33.07 0 -71.46 -889.72 105.97 -275.44 0 0 -453.61 275.44 0 889.72 105.96 0 -30.04 233.13 0 0 28.43 83.19 0 0 -8.63 46.99 -31.68 26.58 0 0 -10.72 -34.07 0 0 -72.81 -12.55 0 0 -61.21 51.48 -11.88 194.44 0 51.48 11.88 0 61.21 -12.55 0 0 72.81 -34.07 0 0 10.72 10.81 0 142.62 31.68 0 8.63 59.4 0 0 -28.43 135.54 0 0 28.43 181.78 0 0 -28.43 160.89 0 0 10.66 39.42 0 0 -10.66 103.03 -11.88 184.41 0 0 11.88 75.04 0 0 301.76 -75.04 0 0 11.88 -184.42 0 -103.02 -11.88 0 -10.66 -39.42 0 0 10.66 -160.89 0 0 -28.43 -181.78 0 0 208.23 511.8 0 117.15 130.59 636.54 0 83.23 96.42 106.63 0c-23.12,-19.36 -37.89,-48.4 -37.89,-80.73l0 -96.1c0,-17.1 13.98,-31.08 31.07,-31.08l1008.99 0c17.09,0 31.07,13.98 31.07,31.08l0 96.1c0,32.33 -14.77,61.37 -37.89,80.73l202.92 0 0 97.48 80.25 0 0 -97.48 246.44 0c20.53,0 38.19,7.94 51.82,23.28 13.63,15.35 19.42,33.84 16.99,54.22 -33.67,282.51 -48.82,535.71 -23.68,768.68 2.18,20.27 -3.72,38.56 -17.34,53.73 -13.62,15.17 -31.17,23 -51.56,23l-222.67 0 0 -294.38 -80.25 0 0 294.38 -301.23 -1.03c-26.79,-0.09 -49.69,-14.27 -61.71,-38.21l-219.87 -438.12c-12.05,-24.01 -35.07,-38.21 -61.93,-38.21l-640.6 0 -64.09 0 -213.74 0c-245.96,-77.24 -265.26,129.63 -186.18,210.59 133.92,137.1 221.15,259.71 320.2,487.82l-461.52 206.04 -41.56 -87.25c4.25,-41.94 32.79,-64.5 2.39,-130.01l-120.74 -260.19c-34.48,-74.32 -100.78,-77.48 -183.85,-77.24l-501.67 1.49 0 101.68 12.58 2.46 -12.1 62.05 -949.6 -185.14c-14.58,-2.84 -24.18,-17.1 -21.34,-31.68l1.76 -9.04c2.84,-14.57 17.1,-24.18 31.68,-21.34l19.65 3.84 0 -178.99 -101.43 -12.19 0.13 -38.65c0.06,-18 -6.39,-33.51 -19.12,-46.24 -12.72,-12.74 -28.22,-19.16 -46.22,-19.16l-219.82 0 -887.85 -183.36 -744.65 0zm2392.71 -638.07l0 8.63 46.99 31.68 96.73 0 144.82 0 142.62 -31.68 0 -8.63 59.4 0 0 30.25c0,21.81 -17.79,39.6 -39.6,39.6l-494.55 0c-21.81,0 -39.6,-17.79 -39.6,-39.6l0 -30.25 83.19 0zm2838.73 501.76l-155.64 98.31 0 106.69c0,38.16 31.13,69.29 69.3,69.29l117.14 0c28.22,0 52.35,-15.83 63.57,-41.72l53.75 -123.95 -134.48 0 0 -77.66 133.72 0c-13.2,-19.91 -33.79,-30.96 -57.72,-30.96l-89.64 0zm-363.57 98.31l-155.64 -98.31 -89.64 0c-24.05,0 -44.74,11.16 -57.93,31.27 -13.2,20.11 -15.22,43.53 -5.65,65.6l58.85 135.7c11.22,25.89 35.35,41.72 63.57,41.72l117.14 0c38.17,0 69.3,-31.13 69.3,-69.29l0 -106.69zm884.81 386.04l0 -375.73 -80.25 0 0 232.2 0 143.53 80.25 0zm-186.71 0l-179.88 0 0 -189.58c0,-38.16 31.13,-69.29 69.3,-69.29l41.28 0c38.17,0 69.3,31.13 69.3,69.29l0 189.58zm-179.88 77.66l179.88 0 0 158.56c0,38.17 -31.13,69.3 -69.3,69.3l-41.28 0c-38.17,0 -69.3,-31.13 -69.3,-69.3l0 -158.56zm-2089.12 -165.58c17.68,37.73 26.33,93.15 -1.15,185.17 -4.06,13.61 9.94,30 25.77,7.58 30.64,-43.4 64,-112.68 56.3,-187.25 47.96,15.2 82.97,60.24 82.97,113.06l0 0c0,65.21 -53.36,118.56 -118.56,118.56l-211.35 0c-65.21,0 -118.56,-53.35 -118.56,-118.56l0 0c0,-65.21 53.35,-118.56 118.56,-118.56l166.02 0z"/>
 </g>
</svg>
