<?xml version="1.0" encoding="UTF-8"?>
<svg id="Layer_1" data-name="Layer 1" xmlns="http://www.w3.org/2000/svg" width="200" height="200" xmlns:xlink="http://www.w3.org/1999/xlink" viewBox="0 0 200 200">
  <defs>
    <style>
      .cls-1 {
        fill: url(#radial-gradient-2);
      }

      .cls-1, .cls-2, .cls-3 {
        fill-rule: evenodd;
      }

      .cls-1, .cls-2, .cls-3, .cls-4 {
        stroke-width: 0px;
      }

      .cls-2 {
        fill: url(#radial-gradient-3);
      }

      .cls-3 {
        fill: url(#radial-gradient-4);
      }

      .cls-4 {
        fill: url(#radial-gradient);
      }
    </style>
    <radialGradient id="radial-gradient" cx="-2007.38" cy="-4.96" fx="-2007.38" fy="-4.96" r="1" gradientTransform="translate(207392.24 -411.87) scale(103.27 -103.27)" gradientUnits="userSpaceOnUse">
      <stop offset="0" stop-color="#b30104"/>
      <stop offset=".47" stop-color="#970103"/>
      <stop offset="1" stop-color="#4c0102"/>
    </radialGradient>
    <radialGradient id="radial-gradient-2" cx="-2007.38" cy="-4.97" fx="-2007.38" fy="-4.97" r="1" gradientTransform="translate(207392.24 -409.82) scale(103.27 -102.75)" gradientUnits="userSpaceOnUse">
      <stop offset="0" stop-color="#780103"/>
      <stop offset=".47" stop-color="#640102"/>
      <stop offset="1" stop-color="#2e0101"/>
    </radialGradient>
    <radialGradient id="radial-gradient-3" cx="-2011.04" cy="-4.52" fx="-2011.04" fy="-4.52" r="1" gradientTransform="translate(255505.75 528.02) rotate(.23) scale(127 -127.64)" gradientUnits="userSpaceOnUse">
      <stop offset="0" stop-color="#2e0101"/>
      <stop offset="1" stop-color="#000"/>
    </radialGradient>
    <radialGradient id="radial-gradient-4" cx="-2000.46" cy="-5.61" fx="-2000.46" fy="-5.61" r="1" gradientTransform="translate(152843.84 -335.49) scale(76.35 -77.47)" gradientUnits="userSpaceOnUse">
      <stop offset="0" stop-color="#fb8587"/>
      <stop offset=".59" stop-color="#db6d6f"/>
      <stop offset=".81" stop-color="#943739"/>
      <stop offset="1" stop-color="#4c0102"/>
    </radialGradient>
  </defs>
  <g id="hexagon_red">
    <rect class="cls-4" x="0" width="200" height="200"/>
    <path class="cls-1" d="m200,17.61v7.03h-4.95l-9.52,16.49,9.52,16.49h4.95v7.03h-4.95l-9.52,16.49,9.52,16.49h4.95v7.03h-4.95l-9.52,16.49,9.52,16.49h4.95v7.03h-4.95l-9.52,16.49,9.52,16.49h4.95v7.03h-4.92l-8.38,15.36h-34.27l-8.38-15.36h-18.97l-8.38,15.36h-34.27l-8.38-15.36h-18.97l-8.38,15.36H12.95c-2.05-3.55-8.86-15.36-8.86-15.36H0v-7.03h4.08l9.51-16.49-9.51-16.49H0v-7.03h4.08l9.51-16.49-9.51-16.49H0v-7.03h4.08l9.51-16.49-9.51-16.49H0v-7.03h4.08l9.51-16.49L4.08,24.64H0v-7.03h4.08L13.6,1.13l-.08-.13h32.08l-.08.13,9.52,16.49h19.04L83.6,1.13l-.08-.13h32.08l-.08.13,9.52,16.49h19.04l9.51-16.49-.08-.13h32.08l-.08.13,9.52,16.49h4.95Zm-39.96,67.03l-9.51,16.49,9.51,16.49h19.04l9.52-16.49-9.52-16.49h-19.04Zm-35,60l-9.52,16.49,9.52,16.49h19.04l9.51-16.49-9.51-16.49h-19.04Zm35-20l-9.51,16.49,9.51,16.49h19.04l9.52-16.49-9.52-16.49h-19.04Zm-105-60l-9.52,16.49,9.52,16.49h19.04l9.51-16.49-9.51-16.49h-19.04ZM90.04,4.64l-9.51,16.49,9.51,16.49h19.04l9.52-16.49-9.52-16.49h-19.04Zm70,40l-9.51,16.49,9.51,16.49h19.04l9.52-16.49-9.52-16.49h-19.04Zm-35-20l-9.52,16.49,9.52,16.49h19.04l9.51-16.49-9.51-16.49h-19.04ZM20.04,4.64l-9.51,16.49,9.51,16.49h19.04l9.52-16.49-9.52-16.49h-19.04Zm35,100l-9.52,16.49,9.52,16.49h19.04l9.51-16.49-9.51-16.49h-19.04ZM20.04,44.64l-9.51,16.49,9.51,16.49h19.04l9.52-16.49-9.52-16.49h-19.04Zm35-20l-9.52,16.49,9.52,16.49h19.04l9.51-16.49-9.51-16.49h-19.04Zm35,60l-9.51,16.49,9.51,16.49h19.04l9.52-16.49-9.52-16.49h-19.04Zm0-40l-9.51,16.49,9.51,16.49h19.04l9.52-16.49-9.52-16.49h-19.04ZM20.04,164.64l-9.51,16.49,9.51,16.49h19.04l9.52-16.49-9.52-16.49h-19.04Zm0-40l-9.51,16.49,9.51,16.49h19.04l9.52-16.49-9.52-16.49h-19.04Zm140,40l-9.51,16.49,9.51,16.49h19.04l9.52-16.49-9.52-16.49h-19.04Zm-105-20l-9.52,16.49,9.52,16.49h19.04l9.51-16.49-9.51-16.49h-19.04Zm35,20l-9.51,16.49,9.51,16.49h19.04l9.52-16.49-9.52-16.49h-19.04Zm35-100l-9.52,16.49,9.52,16.49h19.04l9.51-16.49-9.51-16.49h-19.04Zm-105,20l-9.51,16.49,9.51,16.49h19.04l9.52-16.49-9.52-16.49h-19.04Zm105,20l-9.52,16.49,9.52,16.49h19.04l9.51-16.49-9.51-16.49h-19.04ZM160.04,4.64l-9.51,16.49,9.51,16.49h19.04l9.52-16.49-9.52-16.49h-19.04Zm-70,120l-9.51,16.49,9.51,16.49h19.04l9.52-16.49-9.52-16.49h-19.04Z"/>
    <path class="cls-2" d="m0,21.64v-3.03h5.24L15.91.13h27.31l10.68,18.49h21.35L85.91.13h27.31l10.68,18.49h21.35L155.91.13h27.31l10.68,18.49h6.11v3.03h-6.11l-10.68,18.49,10.68,18.49h6.11v3.03h-6.11l-10.68,18.49,10.68,18.49h6.11v3.03h-6.11l-10.68,18.49,10.68,18.49h6.11v3.03h-6.11l-10.68,18.49,10.68,18.49h6.11v3.03h-6.11l-10.02,18.35h-28.62l-10.02-18.35h-21.35l-10.02,18.35h-28.62l-10.02-18.35h-21.35l-10.02,18.35h-27.62l-11.01-18.35H0v-3.03h5.24l10.67-18.49-10.67-18.49H0v-3.03h5.24l10.67-18.49-10.67-18.49H0v-3.03h5.24l10.67-18.49-10.67-18.49H0v-3.03h5.24l10.67-18.49L5.24,21.64H0Zm18.89,100l-10.67,18.49,10.67,18.49h21.35l10.68-18.49-10.68-18.49h-21.35Zm0-80l-10.67,18.49,10.67,18.49h21.35l10.68-18.49-10.68-18.49h-21.35Zm105,20l-10.68,18.49,10.68,18.49h21.35l10.67-18.49-10.67-18.49h-21.35ZM18.89,1.64l-10.67,18.49,10.67,18.49h21.35l10.68-18.49L40.23,1.64h-21.35Zm140,0l-10.67,18.49,10.67,18.49h21.35l10.68-18.49-10.68-18.49h-21.35Zm0,160l-10.67,18.49,10.67,18.49h21.35l10.68-18.49-10.68-18.49h-21.35ZM18.89,81.64l-10.67,18.49,10.67,18.49h21.35l10.68-18.49-10.68-18.49h-21.35Zm0,80l-10.67,18.49,10.67,18.49h21.35l10.68-18.49-10.68-18.49h-21.35Zm140-80l-10.67,18.49,10.67,18.49h21.35l10.68-18.49-10.68-18.49h-21.35ZM53.89,21.64l-10.68,18.49,10.68,18.49h21.35l10.67-18.49-10.67-18.49h-21.35Zm105,100l-10.67,18.49,10.67,18.49h21.35l10.68-18.49-10.68-18.49h-21.35Zm-105-20l-10.68,18.49,10.68,18.49h21.35l10.67-18.49-10.67-18.49h-21.35Zm0,40l-10.68,18.49,10.68,18.49h21.35l10.67-18.49-10.67-18.49h-21.35Zm35,20l-10.67,18.49,10.67,18.49h21.35l10.68-18.49-10.68-18.49h-21.35Zm35-20l-10.68,18.49,10.68,18.49h21.35l10.67-18.49-10.67-18.49h-21.35ZM53.89,61.64l-10.68,18.49,10.68,18.49h21.35l10.67-18.49-10.67-18.49h-21.35Zm35,20l-10.67,18.49,10.67,18.49h21.35l10.68-18.49-10.68-18.49h-21.35Zm0-40l-10.67,18.49,10.67,18.49h21.35l10.68-18.49-10.68-18.49h-21.35Zm0-40l-10.67,18.49,10.67,18.49h21.35l10.68-18.49L110.23,1.64h-21.35Zm0,120l-10.67,18.49,10.67,18.49h21.35l10.68-18.49-10.68-18.49h-21.35Zm70-80l-10.67,18.49,10.67,18.49h21.35l10.68-18.49-10.68-18.49h-21.35Zm-35-20l-10.68,18.49,10.68,18.49h21.35l10.67-18.49-10.67-18.49h-21.35Zm0,80l-10.68,18.49,10.68,18.49h21.35l10.67-18.49-10.67-18.49h-21.35Z"/>
    <path class="cls-3" d="m.87,19.62v-2h5.24l.19-.33-.08-.15L16.13,0l.57.99L6.22,19.13l.08.15-.19.33H.87Zm53.87-2h21.37l.19-.33-.08-.15L86.13,0l.57.99-10.48,18.14.08.15-.19.33h-20.22l-1.16-2Zm70,0h21.37l.19-.33-.08-.15L156.13,0l.57.99-10.48,18.14.08.15-.19.33h-20.22l-1.15-2Zm70,0h5.26v2h-4.11l-1.15-2Zm0,40h5.26v2h-4.11l-1.15-2Zm0,40h5.26v2h-4.11l-1.15-2Zm0,40h5.26v2h-4.11l-1.15-2Zm0,40h5.26v2h-4.11l-1.15-2Zm-188.63,2H.87v-2h5.24l.19-.33-.08-.15,9.9-17.15.58,1-10.48,18.14.08.15-.19.33Zm0-40H.87v-2h5.24l.19-.33-.08-.15,9.9-17.15.58,1-10.48,18.14.08.15-.19.33Zm0-40H.87v-2h5.24l.19-.33-.08-.15,9.9-17.15.58,1-10.48,18.14.08.15-.19.34Zm0-40H.87v-2h5.24l.19-.34-.08-.15,9.9-17.15.58,1-10.48,18.14.08.15-.19.33Zm35,20h-20.22l-1.15-2h21.37l.2-.33-.09-.15,9.91-17.15.57,1-10.48,18.14.09.15-.2.33Zm70,80h-20.22l-1.15-2h21.37l.2-.34-.09-.15,9.9-17.15.59,1-10.49,18.14.09.15-.2.33Zm70-40h-20.22l-1.15-2h21.37l.2-.33-.09-.15,9.91-17.15.58,1-10.49,18.14.09.15-.2.33Zm-35-20h-20.22l-1.15-2h21.37l.19-.33-.08-.15,9.9-17.15.58,1-10.48,18.14.08.15-.19.34Zm-70-40h-20.22l-1.16-2h21.37l.19-.34-.08-.15,9.9-17.15.58,1-10.48,18.14.08.15-.19.33Zm105,100h-20.22l-1.15-2h21.37l.2-.34-.09-.15,9.91-17.15.58,1-10.49,18.14.09.15-.2.33Zm0-80h-20.22l-1.15-2h21.37l.2-.33-.09-.15,9.91-17.15.58,1-10.49,18.14.09.15-.2.33Zm-35,60h-20.22l-1.15-2h21.37l.19-.33-.08-.15,9.9-17.15.58,1-10.48,18.14.08.15-.19.33Zm-35-20h-20.22l-1.15-2h21.37l.2-.33-.09-.15,9.9-17.15.59,1-10.49,18.14.09.15-.2.33Zm70-80h-20.22l-1.15-2h21.37l.2-.33-.09-.15,9.91-17.15.58,1-10.49,18.14.09.15-.2.33Zm-35,140h-20.22l-1.15-2h21.37l.19-.33-.08-.15,9.9-17.15.58,1-10.48,18.14.08.15-.19.33Zm-70-80h-20.22l-1.16-2h21.37l.19-.33-.08-.15,9.9-17.15.58,1-10.48,18.14.08.15-.19.34Zm0,40h-20.22l-1.16-2h21.37l.19-.33-.08-.15,9.9-17.15.58,1-10.48,18.14.08.15-.19.33Zm35-60h-20.22l-1.15-2h21.37l.2-.33-.09-.15,9.9-17.15.59,1-10.49,18.14.09.15-.2.33Zm35-20h-20.22l-1.15-2h21.37l.19-.34-.08-.15,9.9-17.15.58,1-10.48,18.14.08.15-.19.33Zm-35-20h-20.22l-1.15-2h21.37l.2-.33-.09-.15,9.9-17.15.59,1-10.49,18.14.09.15-.2.33Zm-70,0h-20.22l-1.15-2h21.37l.2-.33-.09-.15,9.91-17.15.57,1-10.48,18.14.09.15-.2.33Zm-21.37,158h18.5l.4-.69,1.83.07.02-.03.98.03,7.46-12.92,2.21-4.04.56.97-2.77,5.07-7.46,12.92-21.38-.74-.36-.63Zm21.37-38h-20.22l-1.15-2h21.37l.2-.34-.09-.15,9.91-17.15.57,1-10.48,18.14.09.15-.2.33Zm0-40h-20.22l-1.15-2h21.37l.2-.33-.09-.15,9.91-17.15.57,1-10.48,18.14.09.15-.2.33Zm118.63,78h18.5l.36-.61h2.87l7.46-12.94,2.21-4.04.56.97-2.77,5.07-7.46,12.93h-20.93l-.8-1.38Zm-83.62-18h-20.22l-1.16-2h21.37l.19-.33-.08-.15,9.9-17.15.58,1-10.48,18.14.08.15-.19.33Zm13.62,18h18.5l.36-.61h2.87l7.46-12.94,2.21-4.04.56.97-2.77,5.07-7.46,12.93h-20.93l-.8-1.38Z"/>
  </g>
</svg>