<?xml version="1.0" encoding="UTF-8"?>
<svg id="Layer_1" data-name="Layer 1" xmlns="http://www.w3.org/2000/svg" width="200" height="200" xmlns:xlink="http://www.w3.org/1999/xlink" viewBox="0 0 200 200">
  <defs>
    <style>
      .cls-1 {
        fill: url(#radial-gradient-2);
        fill-rule: evenodd;
      }

      .cls-1, .cls-2 {
        stroke-width: 0px;
      }

      .cls-2 {
        fill: url(#radial-gradient);
      }
    </style>
    <radialGradient id="radial-gradient" cx="-1790.64" cy="-4.83" fx="-1790.64" fy="-4.83" r="1" gradientTransform="translate(197883.06 -433.87) scale(110.45 -110.45)" gradientUnits="userSpaceOnUse">
      <stop offset="0" stop-color="#e4bd3c"/>
      <stop offset="1" stop-color="#b6822e"/>
    </radialGradient>
    <radialGradient id="radial-gradient-2" cx="-1790.64" cy="-4.83" fx="-1790.64" fy="-4.83" r="1" gradientTransform="translate(197883.06 -433.87) scale(110.45 -110.45)" gradientUnits="userSpaceOnUse">
      <stop offset="0" stop-color="#311c0b"/>
      <stop offset=".5" stop-color="#27180b"/>
      <stop offset="1" stop-color="#080a09"/>
    </radialGradient>
  </defs>
  <g id="strips_black_yellow">
    <rect class="cls-2" width="200" height="200"/>
    <path class="cls-1" d="m0,191.74v-23.31l31.57,31.57H8.26l-8.26-8.26Zm59.77,8.26L0,140.23v-23.31l83.09,83.09h-23.31Zm51.51,0L0,88.71v-23.31l134.6,134.6h-23.31Zm51.51,0L0,37.2V13.88l186.12,186.12h-23.31Zm37.2-14.32L14.32,0h23.31l162.37,162.37v23.31Zm0-51.51L65.83,0h23.31l110.85,110.85v23.31Zm0-51.51L117.35,0h23.31l59.34,59.34v23.31Zm0-51.51L168.86,0h23.31l7.82,7.82v23.31Z"/>
  </g>
</svg>