<svg width="20" height="20" viewBox="0 0 20 20" fill="none" xmlns="http://www.w3.org/2000/svg">
<path fill-rule="evenodd" clip-rule="evenodd" d="M10 0C9.44771 0 9 0.447715 9 1V9C9 9.55229 9.44771 10 10 10C10.5523 10 11 9.55228 11 9V1C11 0.447715 10.5523 0 10 0ZM10 20C15.5228 20 20 15.5228 20 9.99996C20 6.00378 17.656 2.55509 14.2678 0.953812C13.6573 0.665284 13 1.14477 13 1.82001V1.90745C13 2.31485 13.2501 2.67632 13.6134 2.86059C16.2162 4.18053 18 6.88193 18 9.99996C18 14.4182 14.4183 18 10 18C5.58172 18 2 14.4182 2 9.99996C2 6.88193 3.7838 4.18053 6.38657 2.86059C6.74992 2.67632 7 2.31485 7 1.90745V1.82001C7 1.14477 6.34268 0.665285 5.73218 0.953812C2.34404 2.55509 0 6.00378 0 9.99996C0 15.5228 4.47715 20 10 20Z" fill="white"/>
</svg>
