<svg width="12" height="22" viewBox="0 0 12 22" fill="none" xmlns="http://www.w3.org/2000/svg">
<path d="M6.65969 16.3785H4.99476V15.6718C4.99476 9.3757 10.3351 10.6327 10.3351 5.84637C10.3351 3.40503 8.63874 1.60614 6.15707 1.60614C3.48691 1.60614 1.66492 3.59776 1.66492 6.64944V7.19553H0V6.64944C0 2.76257 2.60733 0 6.15707 0C9.54974 0 12 2.56983 12 5.84637C12 11.3715 6.65969 10.0503 6.65969 15.6718V16.3785ZM5.84293 22C5.089 22 4.49215 21.3897 4.49215 20.6508C4.49215 19.8799 5.089 19.2696 5.84293 19.2696C6.59686 19.2696 7.1623 19.912 7.1623 20.6508C7.1623 21.3897 6.59686 22 5.84293 22Z" fill="white"/>
</svg>
