<svg width="20" height="20" viewBox="0 0 20 20" fill="none" xmlns="http://www.w3.org/2000/svg">
<path fill-rule="evenodd" clip-rule="evenodd" d="M9.24403 0C8.80242 0 8.4131 0.289668 8.2862 0.712652L7.8089 2.30368C7.21032 2.47376 6.64035 2.71179 6.10783 3.0089L4.6447 2.22106C4.25587 2.01169 3.77575 2.08216 3.46349 2.39442L2.39439 3.46352C2.08212 3.77579 2.01166 4.25591 2.22102 4.64473L3.00888 6.1079C2.7118 6.64039 2.47379 7.21034 2.30372 7.80888L0.712652 8.2862C0.289668 8.4131 0 8.80242 0 9.24403V10.756C0 11.1976 0.289668 11.5869 0.712652 11.7138L2.30377 12.1911C2.47385 12.7897 2.71187 13.3596 3.00895 13.8921L2.22106 15.3553C2.01169 15.7441 2.08216 16.2242 2.39442 16.5365L3.46352 17.6056C3.77579 17.9179 4.25591 17.9883 4.64473 17.779L6.10802 16.9911C6.64047 17.2881 7.21036 17.5261 7.80884 17.6961L8.28621 19.2873C8.4131 19.7103 8.80242 20 9.24403 20H10.756C11.1976 20 11.5869 19.7103 11.7138 19.2873L12.1912 17.6961C12.7896 17.5261 13.3595 17.2881 13.892 16.991L15.3553 17.7789C15.7441 17.9883 16.2242 17.9178 16.5365 17.6056L17.6056 16.5365C17.9179 16.2242 17.9883 15.7441 17.779 15.3553L16.991 13.892C17.2881 13.3595 17.5261 12.7896 17.6962 12.1912L19.2873 11.7138C19.7103 11.5869 20 11.1976 20 10.756V9.24403C20 8.80242 19.7103 8.4131 19.2873 8.2862L17.6962 7.80886C17.5261 7.21033 17.2881 6.64039 16.9911 6.1079L17.7789 4.64469C17.9883 4.25587 17.9178 3.77575 17.6056 3.46349L16.5365 2.39439C16.2242 2.08212 15.7441 2.01166 15.3553 2.22102L13.8921 3.00889C13.3596 2.7118 12.7896 2.47378 12.1911 2.3037L11.7138 0.712652C11.5869 0.289668 11.1976 0 10.756 0H9.24403ZM4.40118 12.1616C4.60203 12.6815 4.87319 13.1663 5.203 13.6045L3.98961 15.3033L4.69672 16.0104L6.39547 14.797C7.18674 15.3925 8.13009 15.7968 9.15686 15.9411L9.5 18H10.5L10.8431 15.9411C11.8699 15.7967 12.8132 15.3925 13.6045 14.797L15.3033 16.0104L16.0104 15.3033L14.797 13.6045C15.3925 12.8132 15.7968 11.8699 15.9412 10.8431L18 10.5V9.5L15.9412 9.15687C15.8763 8.69558 15.759 8.25114 15.5955 7.82975C15.395 7.31317 15.125 6.83124 14.797 6.39545L16.0104 4.69674L15.3033 3.98963L13.6046 5.203C12.8133 4.60747 11.8699 4.20317 10.8431 4.05877L10.5 2H9.5L9.15687 4.05877C8.13009 4.20317 7.18673 4.60746 6.39545 5.20298L4.69674 3.98961L3.98963 4.69672L5.203 6.39543C4.60747 7.18671 4.20317 8.13008 4.05877 9.15687L2 9.5V10.5L4.05877 10.8431C4.1232 11.3013 4.23937 11.7428 4.40118 12.1616ZM14 10C14 12.2091 12.2091 14 10 14C7.79086 14 6 12.2091 6 10C6 7.79086 7.79086 6 10 6C12.2091 6 14 7.79086 14 10ZM12 10C12 11.1046 11.1046 12 10 12C8.89543 12 8 11.1046 8 10C8 8.89543 8.89543 8 10 8C11.1046 8 12 8.89543 12 10Z" fill="white"/>
</svg>
